<svg width="46" height="46" viewBox="0 0 46 46" fill="none" xmlns="http://www.w3.org/2000/svg">
<path d="M46 46H0V0H46V46ZM0.731669 45.2572H45.2683V0.742774H0.731669V45.2572Z" fill="url(#paint0_linear)"/>
<path d="M45.2754 22.6025H0.724121V33.3022H45.2754V22.6025Z" fill="url(#paint1_linear)"/>
<path d="M45.2754 14.3383H0.724121V18.7949H45.2754V14.3383Z" fill="url(#paint2_linear)"/>
<path d="M45.2754 0H0.724121V10.9039H45.2754V0Z" fill="url(#paint3_linear)"/>
<g opacity="0.7">
<path d="M3.56299 36.0469H4.97145V38.9251L7.19207 36.0469H8.7871L6.5482 38.8843L9.08709 42.7467H7.42254L5.66654 40.0319L4.97145 40.938V42.7504H3.56299V36.0469Z" fill="#7E8283"/>
<path d="M12.6502 35.9058C15.0793 35.9058 16.1695 37.8184 16.1695 39.3968C16.1695 41.2983 14.7537 42.8878 12.6502 42.8878C10.4186 42.8878 9.10156 41.2463 9.10156 39.3968C9.10156 37.5176 10.4917 35.9058 12.6502 35.9058ZM12.6428 41.5806C13.8611 41.5806 14.7061 40.6261 14.7061 39.3968C14.7061 38.3309 13.9928 37.213 12.6428 37.213C11.4429 37.213 10.5722 38.1192 10.5722 39.3968C10.5686 40.4664 11.2746 41.5806 12.6428 41.5806Z" fill="#7E8283"/>
<path d="M17.3623 42.7504V36.0469H18.7708V41.4394H21.2987V42.7467H17.3623V42.7504Z" fill="#7E8283"/>
<path d="M25.2131 35.9058C27.6423 35.9058 28.7325 37.8184 28.7325 39.3968C28.7325 41.2983 27.3167 42.8878 25.2131 42.8878C22.9816 42.8878 21.6646 41.2463 21.6646 39.3968C21.6646 37.5176 23.0511 35.9058 25.2131 35.9058ZM25.2022 41.5806C26.4204 41.5806 27.2655 40.6261 27.2655 39.3968C27.2655 38.3309 26.5521 37.213 25.2022 37.213C24.0022 37.213 23.1315 38.1192 23.1315 39.3968C23.1315 40.4664 23.8339 41.5806 25.2022 41.5806Z" fill="#7E8283"/>
<path d="M31.3296 42.7504H29.9248V36.0469H31.9186C33.3746 36.058 34.3953 36.8231 34.3953 38.2009C34.3953 39.2668 33.8685 39.7905 33.0673 40.0504L35.0794 42.7467H33.3563L31.5235 40.2918H31.3369V42.7504H31.3296ZM31.3296 38.9845H31.893C32.5771 38.9845 32.9137 38.7431 32.9137 38.1601C32.9137 37.759 32.6466 37.3542 32.0613 37.3542H31.3296V38.9845Z" fill="#7E8283"/>
<path d="M35.8955 36.0469H37.304V42.7467H35.8955V36.0469Z" fill="#7E8283"/>
<path d="M39.5906 37.3578H38.1528V36.0505H42.4367V37.3578H40.999V42.7504H39.5906V37.3578Z" fill="#7E8283"/>
</g>
<defs>
<linearGradient id="paint0_linear" x1="0" y1="22.9995" x2="45.9999" y2="22.9995" gradientUnits="userSpaceOnUse">
<stop stop-color="#966B34"/>
<stop offset="0.5" stop-color="#D1B173"/>
<stop offset="1" stop-color="#966B34"/>
</linearGradient>
<linearGradient id="paint1_linear" x1="0.724011" y1="27.9515" x2="45.2755" y2="27.9515" gradientUnits="userSpaceOnUse">
<stop stop-color="#966B34"/>
<stop offset="0.5" stop-color="#D1B173"/>
<stop offset="1" stop-color="#966B34"/>
</linearGradient>
<linearGradient id="paint2_linear" x1="0.724011" y1="16.5649" x2="45.2755" y2="16.5649" gradientUnits="userSpaceOnUse">
<stop stop-color="#966B34"/>
<stop offset="0.5" stop-color="#D1B173"/>
<stop offset="1" stop-color="#966B34"/>
</linearGradient>
<linearGradient id="paint3_linear" x1="0.724011" y1="5.45185" x2="45.2755" y2="5.45185" gradientUnits="userSpaceOnUse">
<stop stop-color="#966B34"/>
<stop offset="0.5" stop-color="#D1B173"/>
<stop offset="1" stop-color="#966B34"/>
</linearGradient>
</defs>
</svg>
