<svg width="14" height="14" viewBox="0 0 14 14" fill="none" xmlns="http://www.w3.org/2000/svg">
<mask id="path-1-inside-1" fill="white">
<path d="M10.153 9.60765C11.1427 8.47648 11.654 7.00493 11.579 5.50379C11.5039 4.00265 10.8484 2.58944 9.75077 1.56263C8.65317 0.535812 7.19946 -0.0242215 5.69664 0.000803998C4.19382 0.0258295 2.75956 0.633955 1.69676 1.69675C0.633959 2.75954 0.0258297 4.19379 0.000804004 5.6966C-0.0242217 7.19941 0.535816 8.65311 1.56264 9.7507C2.58946 10.8483 4.00268 11.5038 5.50384 11.5789C7.00499 11.6539 8.47654 11.1426 9.60772 10.1529L13.4548 14L14 13.4547L10.153 9.60765ZM5.80317 10.8152C4.81187 10.8152 3.84283 10.5212 3.0186 9.97049C2.19437 9.41976 1.55195 8.63698 1.1726 7.72115C0.793249 6.80532 0.693993 5.79756 0.887386 4.82532C1.08078 3.85308 1.55813 2.96002 2.25909 2.25907C2.96004 1.55812 3.85311 1.08077 4.82536 0.887379C5.79761 0.693988 6.80537 0.793243 7.72121 1.17259C8.63705 1.55194 9.41983 2.19435 9.97057 3.01858C10.5213 3.84281 10.8153 4.81183 10.8153 5.80312C10.8137 7.13194 10.2852 8.40589 9.34557 9.3455C8.40595 10.2851 7.13199 10.8137 5.80317 10.8152Z"/>
</mask>
<path d="M10.153 9.60765C11.1427 8.47648 11.654 7.00493 11.579 5.50379C11.5039 4.00265 10.8484 2.58944 9.75077 1.56263C8.65317 0.535812 7.19946 -0.0242215 5.69664 0.000803998C4.19382 0.0258295 2.75956 0.633955 1.69676 1.69675C0.633959 2.75954 0.0258297 4.19379 0.000804004 5.6966C-0.0242217 7.19941 0.535816 8.65311 1.56264 9.7507C2.58946 10.8483 4.00268 11.5038 5.50384 11.5789C7.00499 11.6539 8.47654 11.1426 9.60772 10.1529L13.4548 14L14 13.4547L10.153 9.60765ZM5.80317 10.8152C4.81187 10.8152 3.84283 10.5212 3.0186 9.97049C2.19437 9.41976 1.55195 8.63698 1.1726 7.72115C0.793249 6.80532 0.693993 5.79756 0.887386 4.82532C1.08078 3.85308 1.55813 2.96002 2.25909 2.25907C2.96004 1.55812 3.85311 1.08077 4.82536 0.887379C5.79761 0.693988 6.80537 0.793243 7.72121 1.17259C8.63705 1.55194 9.41983 2.19435 9.97057 3.01858C10.5213 3.84281 10.8153 4.81183 10.8153 5.80312C10.8137 7.13194 10.2852 8.40589 9.34557 9.3455C8.40595 10.2851 7.13199 10.8137 5.80317 10.8152Z" fill="#17315B"/>
<path d="M10.153 9.60765L9.40038 8.94917L8.78437 9.65323L9.44587 10.3147L10.153 9.60765ZM9.60772 10.1529L10.3148 9.4458L9.65332 8.78429L8.94925 9.4003L9.60772 10.1529ZM13.4548 14L12.7477 14.7071L13.4549 15.4143L14.162 14.707L13.4548 14ZM14 13.4547L14.7072 14.1618L15.4141 13.4547L14.7071 12.7476L14 13.4547ZM5.80317 10.8152L5.80317 11.8152L5.80431 11.8152L5.80317 10.8152ZM10.8153 5.80312L11.8153 5.80427V5.80312H10.8153ZM10.9056 10.2661C12.0661 8.9397 12.6657 7.21413 12.5777 5.45386L10.5802 5.55373C10.6423 6.79574 10.2192 8.01326 9.40038 8.94917L10.9056 10.2661ZM12.5777 5.45386C12.4897 3.69359 11.721 2.03643 10.4339 0.832367L9.0676 2.29289C9.97573 3.14246 10.5181 4.31172 10.5802 5.55373L12.5777 5.45386ZM10.4339 0.832367C9.14688 -0.371698 7.44222 -1.0284 5.67999 -0.999057L5.71329 1.00067C6.9567 0.97996 8.15947 1.44332 9.0676 2.29289L10.4339 0.832367ZM5.67999 -0.999057C3.91776 -0.969712 2.23592 -0.256614 0.989655 0.989637L2.40386 2.40386C3.2832 1.52452 4.46989 1.02137 5.71329 1.00067L5.67999 -0.999057ZM0.989655 0.989637C-0.256605 2.23589 -0.969712 3.91772 -0.999057 5.67995L1.00067 5.71325C1.02137 4.46986 1.52452 3.28319 2.40386 2.40386L0.989655 0.989637ZM-0.999057 5.67995C-1.0284 7.44217 -0.37169 9.14682 0.832384 10.4339L2.2929 9.06752C1.44332 8.1594 0.97996 6.95664 1.00067 5.71325L-0.999057 5.67995ZM0.832384 10.4339C2.03646 11.7209 3.69363 12.4896 5.4539 12.5776L5.55377 10.5801C4.31174 10.518 3.14247 9.97565 2.2929 9.06752L0.832384 10.4339ZM5.4539 12.5776C7.21418 12.6656 8.93975 12.0661 10.2662 10.9055L8.94925 9.4003C8.01333 10.2192 6.79579 10.6422 5.55377 10.5801L5.4539 12.5776ZM8.90062 10.86L12.7477 14.7071L14.1619 13.2929L10.3148 9.4458L8.90062 10.86ZM14.162 14.707L14.7072 14.1618L13.2928 12.7477L12.7477 13.293L14.162 14.707ZM14.7071 12.7476L10.8601 8.90055L9.44587 10.3147L13.2929 14.1618L14.7071 12.7476ZM5.80317 9.81518C5.00965 9.81518 4.23395 9.57987 3.57417 9.13902L2.46303 10.802C3.45171 11.4626 4.61409 11.8152 5.80317 11.8152L5.80317 9.81518ZM3.57417 9.13902C2.91438 8.69817 2.40014 8.07157 2.09648 7.33847L0.248723 8.10384C0.703764 9.2024 1.47435 10.1414 2.46303 10.802L3.57417 9.13902ZM2.09648 7.33847C1.79282 6.60536 1.71336 5.79867 1.86817 5.02041L-0.0933993 4.63023C-0.325378 5.79645 -0.206318 7.00528 0.248723 8.10384L2.09648 7.33847ZM1.86817 5.02041C2.02298 4.24215 2.40509 3.52727 2.96619 2.96618L1.55198 1.55196C0.711177 2.39276 0.138579 3.464 -0.0933993 4.63023L1.86817 5.02041ZM2.96619 2.96618C3.52729 2.40508 4.24218 2.02297 5.02045 1.86816L4.63027 -0.0934068C3.46404 0.138569 2.39279 0.711159 1.55198 1.55196L2.96619 2.96618ZM5.02045 1.86816C5.79872 1.71336 6.60542 1.79281 7.33853 2.09647L8.10389 0.248713C7.00533 -0.206324 5.7965 -0.325382 4.63027 -0.0934068L5.02045 1.86816ZM7.33853 2.09647C8.07164 2.40014 8.69825 2.91437 9.1391 3.57415L10.802 2.46301C10.1414 1.47433 9.20246 0.70375 8.10389 0.248713L7.33853 2.09647ZM9.1391 3.57415C9.57995 4.23393 9.81526 5.00962 9.81526 5.80312H11.8153C11.8153 4.61405 11.4627 3.45168 10.802 2.46301L9.1391 3.57415ZM9.81526 5.80198C9.81404 6.86597 9.39083 7.88603 8.63846 8.63839L10.0527 10.0526C11.1795 8.92574 11.8134 7.3979 11.8153 5.80427L9.81526 5.80198ZM8.63846 8.63839C7.8861 9.39075 6.86602 9.81396 5.80202 9.81518L5.80431 11.8152C7.39795 11.8133 8.9258 11.1795 10.0527 10.0526L8.63846 8.63839Z" fill="#000C31" mask="url(#path-1-inside-1)"/>
</svg>
