<svg width="95" height="38" viewBox="0 0 95 38" fill="none" xmlns="http://www.w3.org/2000/svg">
<path d="M37.4482 17.5882H37.826C37.8679 18.4093 38.2176 19.0863 38.8891 19.6049C39.5606 20.1235 40.4 20.3971 41.4072 20.3971C42.3864 20.3971 43.1978 20.1379 43.8273 19.6193C44.4568 19.1007 44.7646 18.4381 44.7646 17.6314C44.7646 16.9976 44.5548 16.4934 44.1211 16.1045C43.6874 15.7156 42.988 15.3987 42.0087 15.1538L40.7357 14.8225C39.7005 14.5632 38.9451 14.2031 38.4695 13.7709C37.9938 13.3388 37.756 12.7626 37.756 12.0712C37.756 11.2213 38.1057 10.501 38.7912 9.92484C39.4767 9.34864 40.316 9.06055 41.2813 9.06055C42.3025 9.06055 43.1558 9.33424 43.8553 9.88162C44.5548 10.429 44.9185 11.106 44.9465 11.9127H44.5688C44.5268 11.2069 44.205 10.6163 43.5755 10.1409C42.96 9.66555 42.1906 9.43507 41.2813 9.43507C40.4 9.43507 39.6585 9.67996 39.057 10.1841C38.4415 10.6883 38.1477 11.3077 38.1477 12.0712C38.1477 12.6762 38.3575 13.1515 38.7912 13.526C39.2249 13.9006 39.9103 14.2031 40.8616 14.448L42.1206 14.7649C43.1698 15.0386 43.9532 15.3987 44.4289 15.8452C44.9185 16.2918 45.1563 16.8824 45.1563 17.6026C45.1563 18.5245 44.8066 19.2736 44.1071 19.8642C43.4077 20.4548 42.5123 20.7429 41.3932 20.7429C40.2741 20.7429 39.3508 20.4404 38.6093 19.8498C37.8819 19.2736 37.4762 18.5101 37.4482 17.5882Z" fill="#9AB4C1"/>
<path d="M57.0475 9.2334V20.5988H56.6697V10.1409H56.6418L52.1792 20.5988H51.7735L47.311 10.1409H47.283V20.5988H46.9053V9.2334H47.311L51.9694 20.109H51.9973L56.6278 9.2334H57.0475Z" fill="#9AB4C1"/>
<path d="M67.0211 20.5988L65.5802 16.6519H60.4462L58.9773 20.5988H58.5576L62.8103 9.2334H63.202L67.4548 20.5988H67.0211ZM62.9922 9.76637L60.5861 16.2774H65.4403L63.0342 9.76637H62.9922Z" fill="#9AB4C1"/>
<path d="M69.3302 15.6291V20.5988H68.9385V9.2334H72.3658C73.471 9.2334 74.3383 9.52149 74.9678 10.0833C75.5974 10.6595 75.9191 11.4373 75.9191 12.4313C75.9191 13.2667 75.6813 13.9582 75.2196 14.5056C74.758 15.053 74.1005 15.4131 73.2751 15.5571L76.1849 20.5988H75.7512L72.8695 15.6147C72.6876 15.6291 72.5197 15.6291 72.3658 15.6291H69.3302ZM69.3302 9.59352V15.269H72.3658C73.3451 15.269 74.1285 15.0097 74.6881 14.5056C75.2476 14.0014 75.5274 13.31 75.5274 12.4313C75.5274 11.5382 75.2476 10.8467 74.6881 10.3426C74.1285 9.8384 73.3451 9.59352 72.3519 9.59352H69.3302Z" fill="#9AB4C1"/>
<path d="M81.2914 20.5988H80.9137V9.60792H76.9268V9.2334H85.2643V9.60792H81.2774L81.2914 20.5988Z" fill="#9AB4C1"/>
<path d="M42.4008 21.7515C43.8836 21.7515 45.0727 22.2844 45.9401 23.336C46.8214 24.3875 47.255 25.8136 47.255 27.5998C47.255 29.386 46.8214 30.8121 45.9401 31.8637C45.0587 32.9152 43.8836 33.4482 42.3868 33.4482C40.89 33.4482 39.7149 32.9152 38.8335 31.8637C37.9522 30.8121 37.5186 29.386 37.5186 27.5998C37.5186 25.8136 37.9522 24.402 38.8335 23.336C39.7149 22.27 40.89 21.7515 42.4008 21.7515ZM42.4008 22.1116C41.0298 22.1116 39.9387 22.6013 39.1273 23.5953C38.3159 24.5748 37.9103 25.9145 37.9103 27.5854C37.9103 29.2564 38.3159 30.5816 39.1273 31.5756C39.9387 32.5695 41.0298 33.0593 42.4008 33.0593C43.7577 33.0593 44.8489 32.5695 45.6603 31.5756C46.4717 30.5816 46.8773 29.2564 46.8773 27.5854C46.8773 25.9145 46.4717 24.5892 45.6603 23.5953C44.8489 22.6158 43.7577 22.1116 42.4008 22.1116Z" fill="#9AB4C1"/>
<path d="M49.4659 28.3054V33.2751H49.0742V21.9097H52.5016C53.6067 21.9097 54.4741 22.1978 55.1036 22.7596C55.7331 23.3357 56.0548 24.1136 56.0548 25.1075C56.0548 25.943 55.817 26.6345 55.3554 27.1818C54.8797 27.7292 54.2362 28.0893 53.4109 28.2334L56.3206 33.2751H55.887L53.0052 28.291C52.8233 28.3054 52.6555 28.3054 52.5016 28.3054H49.4659ZM49.4659 22.2698V27.9453H52.5016C53.4808 27.9453 54.2642 27.686 54.8238 27.1818C55.3834 26.6777 55.6631 25.9862 55.6631 25.1075C55.6631 24.2144 55.3834 23.523 54.8238 23.0188C54.2642 22.5147 53.4808 22.2698 52.4876 22.2698H49.4659Z" fill="#9AB4C1"/>
<path d="M65.7219 33.2751L64.281 29.3282H59.147L57.6921 33.2751H57.2725L61.5252 21.9097H61.9169L66.1696 33.2751H65.7219ZM61.707 22.4426L59.2869 28.9536H64.1411L61.735 22.4426H61.707Z" fill="#9AB4C1"/>
<path d="M68.0294 33.2751H67.6377V21.9097H68.0574L75.3877 32.526H75.4157V21.9097H75.7934V33.2751H75.4437L68.0574 22.5723H68.0294V33.2751Z" fill="#9AB4C1"/>
<path d="M86.7749 28.824C86.7749 30.2501 86.3832 31.3737 85.5998 32.1947C84.8164 33.0158 83.7393 33.4191 82.3823 33.4191C81.459 33.4191 80.6337 33.1743 79.9062 32.6701C79.1788 32.1803 78.6192 31.4745 78.2275 30.5814C77.8218 29.6883 77.626 28.6511 77.626 27.4988C77.626 25.7702 78.0596 24.3729 78.941 23.3213C79.8083 22.2698 80.9694 21.7368 82.3963 21.7368C83.4875 21.7368 84.4247 22.0537 85.2221 22.6731C86.0195 23.2925 86.5091 24.0992 86.719 25.1075H86.3413C86.1314 24.2 85.6558 23.4798 84.9423 22.9324C84.2289 22.385 83.3755 22.1113 82.3963 22.1113C81.0813 22.1113 80.0181 22.6011 79.2207 23.595C78.4234 24.589 78.0317 25.8854 78.0317 27.5132C78.0317 29.1553 78.4374 30.495 79.2487 31.5177C80.0601 32.5404 81.1093 33.059 82.4103 33.059C83.6553 33.059 84.6346 32.6845 85.348 31.9354C86.0615 31.1864 86.4252 30.1492 86.4252 28.8528V28.0605H82.3683V27.7004H86.8029V28.824H86.7749Z" fill="#9AB4C1"/>
<path d="M95.0009 32.9006V33.2751H88.6777V21.9097H95.0009V22.2842H89.0694V27.2683H94.7351V27.6284H89.0694V32.915H95.0009V32.9006Z" fill="#9AB4C1"/>
<path d="M32.3003 24.5171L32.1605 23.7104L33.8252 20.5846L32.2164 17.9341L32.8459 16.3064L31.3071 15.0819L31.0973 11.7688L28.0756 10.3716L27.516 9.03191L26.6207 8.72941L25.2917 6.55428L22.4799 6.68392L20.1017 4.50879L17.9334 5.27225L17.234 4.88332L15.5133 5.74761L12.1978 5.01296L10.8689 6.45344L9.95957 6.3238L8.65857 8.38369L4.96542 9.57929L4.18202 12.9932L3.52453 13.4974L3.48256 14.2609L3.14682 14.5922L3.1748 15.0531L0.936523 17.574L1.91577 20.2389L1.1044 21.7946L1.95774 23.3503L1.38418 25.9576L3.62245 28.3056L3.87426 30.3655L5.31515 31.1001L6.32237 34.2548L9.72175 34.8598L10.8689 36.3867L12.5056 36.3291L14.5061 37.8416L17.0941 36.8332L19.9898 38L21.2349 36.9053L22.354 37.1357L24.1866 35.0326L27.4601 34.6293L28.3134 32.4254L28.9289 32.1517L29.4885 30.2934L32.4402 28.2624L32.0765 24.8772L32.3003 24.5171Z" fill="#727376"/>
<path d="M28.831 27.6285L28.1035 29.1266L29.5584 25.8423L28.831 27.6285Z" fill="#898A8D"/>
<path d="M23.6823 34.1107L22.6611 34.5284L25.5709 32.3389L23.6823 34.1107Z" fill="#A0A1A3"/>
<path d="M31.4889 18.8561L30.2578 14.8804L31.3769 16.9835L31.4889 18.8561Z" fill="#8D8E91"/>
<path d="M10.1973 34.2117L9.12012 33.5923L12.6874 34.9031L10.1973 34.2117Z" fill="#6C6E70"/>
<path d="M32.3005 24.5174L31.2373 26.1163L31.9927 22.5439L32.3005 24.5174Z" fill="#F2F2F2"/>
<path d="M3.17446 16.2201L3.14648 14.5923L4.92311 12.8062L3.17446 16.2201Z" fill="#E5E5E5"/>
<path d="M25.082 33.8516L27.4042 32.5264L28.9291 32.1519L25.082 33.8516Z" fill="#A0A0A0"/>
<path d="M28.9291 32.1517L27.4043 32.5262L29.6985 29.6021L28.9291 32.1517Z" fill="#CCCCCC"/>
<path d="M25.6416 8.55664L27.5162 9.032L28.4115 11.1783L25.6416 8.55664Z" fill="#D8D8D8"/>
<path d="M23.5703 7.69238L27.5153 9.03203L25.6407 8.55667L23.5703 7.69238Z" fill="#F2F2F2"/>
<path d="M3.7627 27.7871L5.97299 31.4171L3.87461 30.3656L3.7627 27.7871Z" fill="#999999"/>
<path d="M3.76177 27.7869L3.87368 30.3654L3.28613 25.7559L3.76177 27.7869Z" fill="#A5A5A5"/>
<path d="M22.3545 37.1358L18.4375 36.3003L20.9556 36.4155L22.3545 37.1358Z" fill="#BFBFBF"/>
<path d="M22.355 37.1356L20.9561 36.4153L24.3834 34.8164L22.355 37.1356Z" fill="#D8D8D8"/>
<path d="M2.43444 23.6383L3.28778 25.7558L1.10547 21.7944L2.43444 23.6383Z" fill="#BFBFBF"/>
<path d="M2.12668 19.7925L2.43444 23.6386L1.10547 21.7948L2.12668 19.7925Z" fill="#D8D8D8"/>
<path d="M18.4368 36.3003L14.5059 37.8416L17.1638 36.6604L18.4368 36.3003Z" fill="#CCCCCC"/>
<path d="M20.1016 4.50879L23.5709 7.69226L22.1999 6.69832L20.1016 4.50879Z" fill="#E5E5E5"/>
<path d="M33.8257 20.5849L31.9792 18.5538L31.3916 16.5947L33.8257 20.5849Z" fill="#E5E5E5"/>
<path d="M31.9788 18.5534L30.8037 14.6641L31.3913 16.5943L31.9788 18.5534Z" fill="#808183"/>
<path d="M31.3913 16.5947L30.8037 14.6644L31.0975 11.769L31.3913 16.5947Z" fill="#D8D8D8"/>
<path d="M14.506 37.8416L13.0371 35.9546L17.1639 36.6604L14.506 37.8416Z" fill="#999999"/>
<path d="M14.505 37.8412L10.8398 35.061L13.0362 35.9541L14.505 37.8412Z" fill="#999999"/>
<path d="M11.526 6.82819L9.30176 8.18225L12.1975 5.01318L11.526 6.82819Z" fill="#F2F2F2"/>
<path d="M12.1973 5.01318L16.1422 5.89188L14.8972 6.03593L12.1973 5.01318Z" fill="#F2F2F2"/>
<path d="M11.5273 6.82819L12.1988 5.01318L14.8987 6.03593L11.5273 6.82819Z" fill="#E5E5E5"/>
<path d="M18.5068 5.87725L20.1016 4.50879L22.2 6.69832L18.5068 5.87725Z" fill="#F2F2F2"/>
<path d="M16.1425 5.89185L18.5067 5.87744L14.8975 6.0359L16.1425 5.89185Z" fill="#9C9EA0"/>
<path d="M16.1426 5.89165L20.1015 4.50879L18.5068 5.87725L16.1426 5.89165Z" fill="#E5E5E5"/>
<path d="M8.25293 9.00325L9.30212 8.18218L11.5264 6.82812L8.25293 9.00325Z" fill="#B9B9BA"/>
<path d="M8.25231 9.00321L4.96484 9.5794L9.3015 8.18213L8.25231 9.00321Z" fill="#E5E5E5"/>
<path d="M33.8254 20.5848L31.9229 22.0109L31.9788 18.5537L33.8254 20.5848Z" fill="#F2F2F2"/>
<path d="M31.9788 24.0849L31.9229 22.0106L33.8254 20.5845L31.9788 24.0849Z" fill="#E5E5E5"/>
<path d="M20.9561 36.4153L23.2083 35.1477L24.3834 34.8164L20.9561 36.4153Z" fill="#BFBFBF"/>
<path d="M2.36379 21.5211L2.43374 23.6386L2.12598 19.7925L2.36379 21.5211Z" fill="#A5A5A5"/>
<path d="M10.8415 35.0616L9.26074 34.1973L13.0378 35.9547L10.8415 35.0616Z" fill="#6E6F72"/>
<path d="M10.8408 35.0616L6.32227 34.2549L9.26 34.1973L10.8408 35.0616Z" fill="#999999"/>
<path d="M5.24463 12.3593L4.96484 9.57912L8.25231 9.00293L5.24463 12.3593Z" fill="#F2F2F2"/>
<path d="M5.24497 12.3597L3.87402 14.2468L4.96518 9.57959L5.24497 12.3597Z" fill="#E5E5E5"/>
<path d="M27.46 10.0977L31.0972 11.7686L28.8029 12.1287L27.46 10.0977Z" fill="#E5E5E5"/>
<path d="M28.8027 12.1292L31.097 11.769L30.8032 14.6644L28.8027 12.1292Z" fill="#F2F2F2"/>
<path d="M13.0371 35.9546L15.5132 36.2139L17.1639 36.6604L13.0371 35.9546Z" fill="#CCCCCC"/>
<path d="M32.4403 28.2624L31.1113 24.9925L31.9787 24.085L32.4403 28.2624Z" fill="#D8D8D8"/>
<path d="M31.1113 24.9925L31.9227 22.0107L31.9787 24.085L31.1113 24.9925Z" fill="#CCCCCC"/>
<path d="M3.41309 15.9318L3.87473 14.2464L5.24567 12.3594L3.41309 15.9318Z" fill="#B9BABA"/>
<path d="M3.41262 15.9319L0.936523 17.5741L3.87426 14.2466L3.41262 15.9319Z" fill="#F2F2F2"/>
<path d="M18.5068 5.87744L22.2 6.69852L20.955 6.90019L18.5068 5.87744Z" fill="#CCCCCC"/>
<path d="M20.9561 6.89992L22.2011 6.69825L25.2927 6.5542L20.9561 6.89992Z" fill="#F2F2F2"/>
<path d="M11.5273 6.82791L14.8987 6.03564L13.8775 6.85672L11.5273 6.82791Z" fill="#CCCCCC"/>
<path d="M5.24414 12.3593L8.25182 9.00293L7.27258 10.6019L5.24414 12.3593Z" fill="#E5E5E5"/>
<path d="M6.57407 31.0713L9.26 34.1972L6.32227 34.2548L6.57407 31.0713Z" fill="#A5A5A5"/>
<path d="M6.57419 31.0716L6.32239 34.2551L4.85352 29.6167L6.57419 31.0716Z" fill="#B2B2B2"/>
<path d="M32.4404 28.2626L29.6426 28.0177L31.1114 24.9927L32.4404 28.2626Z" fill="#E5E5E5"/>
<path d="M28.999 30.6393L29.6425 28.0176L32.4404 28.2625L28.999 30.6393Z" fill="#F2F2F2"/>
<path d="M31.9784 18.5533L31.209 19.2015L32.8457 16.3062L31.9784 18.5533Z" fill="#CCCCCC"/>
<path d="M31.9224 22.0109L31.209 19.2019L31.9784 18.5537L31.9224 22.0109Z" fill="#D8D8D8"/>
<path d="M29.9775 15.1538L30.8029 14.6641L32.8453 16.3062L29.9775 15.1538Z" fill="#E5E5E5"/>
<path d="M29.9775 15.1538L32.8453 16.3062L31.2086 19.2016L29.9775 15.1538Z" fill="#F2F2F2"/>
<path d="M28.8027 12.1289L30.8032 14.6642L29.9778 15.1539L28.8027 12.1289Z" fill="#CCCCCC"/>
<path d="M3.41262 15.9316L3.10485 19.3888L0.936523 17.5738L3.41262 15.9316Z" fill="#D8D8D8"/>
<path d="M3.10485 19.3892L2.36343 21.5212L0.936523 17.5742L3.10485 19.3892Z" fill="#B2B2B2"/>
<path d="M27.4603 10.0977L28.8033 12.1287L26.4531 10.3858L27.4603 10.0977Z" fill="#CCCCCC"/>
<path d="M25.292 6.5542L27.4603 10.0978L26.4531 10.3859L25.292 6.5542Z" fill="#E5E5E5"/>
<path d="M13.876 6.85676L14.8972 6.03569L17.2334 4.8833L13.876 6.85676Z" fill="#D8D8D8"/>
<path d="M27.46 34.6293L27.5719 30.6536L28.9988 30.6392L27.46 34.6293Z" fill="#D8D8D8"/>
<path d="M27.5713 30.6537L29.6417 28.0176L28.9982 30.6393L27.5713 30.6537Z" fill="#E5E5E5"/>
<path d="M19.9892 38.0001L15.5127 36.2139L18.2546 35.6089L19.9892 38.0001Z" fill="#A5A5A5"/>
<path d="M19.9895 37.9999L18.2549 35.6087L21.9201 34.5859L19.9895 37.9999Z" fill="#CCCCCC"/>
<path d="M19.9902 37.9999L21.9207 34.5859L23.2078 35.1477L19.9902 37.9999Z" fill="#E5E5E5"/>
<path d="M23.207 35.148L24.8717 32.9009L27.4598 34.6295L23.207 35.148Z" fill="#CCCCCC"/>
<path d="M27.4601 34.6295L24.8721 32.901L27.572 30.6538L27.4601 34.6295Z" fill="#E5E5E5"/>
<path d="M21.9209 34.5862L24.8726 32.9009L23.2079 35.148L21.9209 34.5862Z" fill="#D8D8D8"/>
<path d="M4.60131 27.1243L4.85311 29.6164L1.38379 25.9575L4.60131 27.1243Z" fill="#B2B2B2"/>
<path d="M6.57404 31.0714L4.85337 29.6165L4.60156 27.1245L6.57404 31.0714Z" fill="#999999"/>
<path d="M3.45419 23.0913L4.60131 27.1247L1.38379 25.9579L3.45419 23.0913Z" fill="#999999"/>
<path d="M3.45541 23.0912L2.36426 21.5211L3.10568 19.3892L3.45541 23.0912Z" fill="#D8D8D8"/>
<path d="M3.45419 23.0911L1.38379 25.9577L2.36303 21.521L3.45419 23.0911Z" fill="#F2F2F2"/>
<path d="M23.417 9.00302L25.2915 6.5542L26.4527 10.3859L23.417 9.00302Z" fill="#F2F2F2"/>
<path d="M20.9561 6.89991L25.2927 6.5542L23.4182 9.00302L20.9561 6.89991Z" fill="#E5E5E5"/>
<path d="M10.0573 9.55041L7.27344 10.602L9.95937 6.32373L10.0573 9.55041Z" fill="#D8D8D8"/>
<path d="M15.5136 36.2137L10.8691 36.3865L14.2545 34.9316L15.5136 36.2137Z" fill="#A5A5A5"/>
<path d="M15.5129 36.2137L14.2539 34.9316L18.2548 35.6087L15.5129 36.2137Z" fill="#999999"/>
<path d="M9.02136 32.1372L9.25917 34.1971L6.57324 31.0713L9.02136 32.1372Z" fill="#999999"/>
<path d="M9.02246 32.1372L10.869 36.3866L9.26028 34.1971L9.02246 32.1372Z" fill="#BFBFBF"/>
<path d="M10.0579 9.55041L9.95996 6.32373L13.4852 8.28279L10.0579 9.55041Z" fill="#E5E5E5"/>
<path d="M9.95996 6.32373L13.8769 6.85671L13.4852 8.28279L9.95996 6.32373Z" fill="#D8D8D8"/>
<path d="M3.525 13.4976L4.54621 17.4157L3.41309 15.932L3.525 13.4976Z" fill="#D8D8D8"/>
<path d="M4.54538 17.4153L3.10449 19.3888L3.41226 15.9316L4.54538 17.4153Z" fill="#BFBFBF"/>
<path d="M20.9562 6.8999L23.4183 9.00301L20.1309 8.32598L20.9562 6.8999Z" fill="#CCCCCC"/>
<path d="M17.2334 4.8833L20.9545 6.89998L20.1292 8.32605L17.2334 4.8833Z" fill="#D8D8D8"/>
<path d="M7.19043 12.7914L7.27436 10.6018L10.0582 9.55029L7.19043 12.7914Z" fill="#F2F2F2"/>
<path d="M7.19056 12.7916L3.52539 13.4974L7.2745 10.6021L7.19056 12.7916Z" fill="#D8D8D8"/>
<path d="M13.876 6.85676L17.2334 4.8833L16.6738 8.12439L13.876 6.85676Z" fill="#F2F2F2"/>
<path d="M16.6738 8.12439L17.2334 4.8833L20.1292 8.32605L16.6738 8.12439Z" fill="#E5E5E5"/>
<path d="M13.8771 6.85693L16.6749 8.12456L13.4854 8.28301L13.8771 6.85693Z" fill="#E5E5E5"/>
<path d="M29.9784 15.1538L31.2095 19.2016L29.209 17.6314L29.9784 15.1538Z" fill="#E5E5E5"/>
<path d="M29.209 17.6313L31.2094 19.2015L32.0908 22.1113L29.209 17.6313Z" fill="#CCCCCC"/>
<path d="M29.6424 28.0175L29.3906 24.7476L31.1113 24.9924L29.6424 28.0175Z" fill="#D8D8D8"/>
<path d="M31.1113 24.9923L29.3906 24.7474L32.0906 22.1113L31.1113 24.9923Z" fill="#F2F2F2"/>
<path d="M26.4531 10.3857L28.8033 12.1287L29.1111 12.4312L26.4531 10.3857Z" fill="#E5E5E5"/>
<path d="M29.1104 12.4316L29.9777 15.1542L29.2083 17.6318L29.1104 12.4316Z" fill="#D8D8D8"/>
<path d="M11.8483 32.5982L10.869 36.3866L9.02246 32.1372L11.8483 32.5982Z" fill="#A5A5A5"/>
<path d="M11.8484 32.5981L14.2545 34.9317L10.8691 36.3866L11.8484 32.5981Z" fill="#BFBFBF"/>
<path d="M23.417 9.00293L26.4527 10.3858L25.3615 11.8551L23.417 9.00293Z" fill="#E5E5E5"/>
<path d="M25.3613 11.855L26.4525 10.3857L29.1104 12.4312L25.3613 11.855Z" fill="#F2F2F2"/>
<path d="M18.2549 35.6087L19.6958 33.52L21.9201 34.586L18.2549 35.6087Z" fill="#D8D8D8"/>
<path d="M18.2557 35.6087L16.8848 36.0841L19.6966 33.52L18.2557 35.6087Z" fill="#E5E5E5"/>
<path d="M5.58144 24.7047L4.6022 27.1247L3.45508 23.0913L5.58144 24.7047Z" fill="#BFBFBF"/>
<path d="M6.60302 16.0616L4.5466 17.4157L3.52539 13.4976L6.60302 16.0616Z" fill="#CCCCCC"/>
<path d="M7.19056 12.7915L6.60302 16.0614L3.52539 13.4973L7.19056 12.7915Z" fill="#E5E5E5"/>
<path d="M24.8721 32.9007L25.2917 29.8901L27.572 30.6536L24.8721 32.9007Z" fill="#D8D8D8"/>
<path d="M29.208 17.6313L32.0898 22.1113L28.1309 20.3971L29.208 17.6313Z" fill="#F2F2F2"/>
<path d="M28.1309 20.3975L32.0898 22.1116L29.3899 24.7477L28.1309 20.3975Z" fill="#D8D8D8"/>
<path d="M10.0586 9.55034L13.486 8.28271L12.5767 10.8324L10.0586 9.55034Z" fill="#D8D8D8"/>
<path d="M29.2085 17.6317L28.1313 20.3974L26.7324 15.7734L29.2085 17.6317Z" fill="#CCCCCC"/>
<path d="M29.1106 12.4316L29.2085 17.6318L26.7324 15.7736L29.1106 12.4316Z" fill="#F2F2F2"/>
<path d="M25.3613 11.8555L29.1104 12.4317L26.7323 15.7736L25.3613 11.8555Z" fill="#D8D8D8"/>
<path d="M5.7207 29.5298L9.02216 32.1371L6.57404 31.0711L5.7207 29.5298Z" fill="#A5A5A5"/>
<path d="M5.58081 24.7046L5.7207 29.5302L4.60156 27.1246L5.58081 24.7046Z" fill="#A5A5A5"/>
<path d="M15.5549 32.7998L16.8839 36.0841L14.2539 34.9317L15.5549 32.7998Z" fill="#B2B2B2"/>
<path d="M15.5548 32.7998L14.2538 34.9317L11.8477 32.5981L15.5548 32.7998Z" fill="#999999"/>
<path d="M15.5557 32.7998L19.6965 33.52L16.8846 36.0841L15.5557 32.7998Z" fill="#D8D8D8"/>
<path d="M3.34277 20.6567L5.58105 24.7045L3.45469 23.0912L3.34277 20.6567Z" fill="#B2B2B2"/>
<path d="M4.54538 17.4155L3.34231 20.6566L3.10449 19.389L4.54538 17.4155Z" fill="#F2F2F2"/>
<path d="M3.34231 20.6568L3.45422 23.0912L3.10449 19.3892L3.34231 20.6568Z" fill="#A5A5A5"/>
<path d="M8.70117 10.3858L10.0581 9.55029L12.5762 10.8323L8.70117 10.3858Z" fill="#E5E5E5"/>
<path d="M27.5722 30.6537L25.292 29.8902L28.7613 28.1616L27.5722 30.6537Z" fill="#CCCCCC"/>
<path d="M29.643 28.0175L28.7617 28.1615L29.3912 24.7476L29.643 28.0175Z" fill="#CCCCCC"/>
<path d="M27.5713 30.6537L28.7604 28.1616L29.6417 28.0176L27.5713 30.6537Z" fill="#D8D8D8"/>
<path d="M16.6738 8.12451L20.1292 8.32618L19.052 10.3429L16.6738 8.12451Z" fill="#D8D8D8"/>
<path d="M10.2392 29.7026L9.02215 32.1371L5.7207 29.5298L10.2392 29.7026Z" fill="#BFBFBF"/>
<path d="M11.8483 32.598L9.02246 32.1371L10.2395 29.7026L11.8483 32.598Z" fill="#999999"/>
<path d="M9.60925 14.1888L6.60156 16.0614L7.18911 12.7915L9.60925 14.1888Z" fill="#D8D8D8"/>
<path d="M8.70117 10.3857L12.5762 10.8323L9.61047 14.1886L8.70117 10.3857Z" fill="#D8D8D8"/>
<path d="M8.70127 10.3857L9.61057 14.1886L7.19043 12.7913L8.70127 10.3857Z" fill="#E5E5E5"/>
<path d="M21.9206 34.586L19.6963 33.52L23.2915 33.1743L21.9206 34.586Z" fill="#BFBFBF"/>
<path d="M24.8718 32.9007L23.291 33.1744L25.2915 29.8901L24.8718 32.9007Z" fill="#BFBFBF"/>
<path d="M21.9209 34.5863L23.2918 33.1746L24.8726 32.9009L21.9209 34.5863Z" fill="#E5E5E5"/>
<path d="M7.09096 19.1009L4.54492 17.4156L6.60134 16.0615L7.09096 19.1009Z" fill="#BFBFBF"/>
<path d="M7.09188 19.1009L3.34277 20.6566L4.54584 17.4155L7.09188 19.1009Z" fill="#E5E5E5"/>
<path d="M19.0527 10.3429L20.1299 8.32617L23.0117 9.76666L19.0527 10.3429Z" fill="#F2F2F2"/>
<path d="M20.1309 8.32617L23.4183 9.0032L23.0126 9.76665L20.1309 8.32617Z" fill="#D8D8D8"/>
<path d="M23.0107 9.76638L23.4164 9.00293L25.3609 11.8551L23.0107 9.76638Z" fill="#CCCCCC"/>
<path d="M28.1314 20.3975L29.3905 24.7477L26.3408 23.2928L28.1314 20.3975Z" fill="#E5E5E5"/>
<path d="M26.3408 23.293L29.3905 24.7479L28.761 28.1618L26.3408 23.293Z" fill="#F2F2F2"/>
<path d="M8.72863 26.2747L5.72095 29.5302L5.58105 24.7046L8.72863 26.2747Z" fill="#BFBFBF"/>
<path d="M8.72838 26.2744L10.2392 29.7028L5.7207 29.5299L8.72838 26.2744Z" fill="#A5A5A5"/>
<path d="M25.3622 11.8555L26.7332 15.7736L23.5576 14.4483L25.3622 11.8555Z" fill="#E5E5E5"/>
<path d="M23.0107 9.7666L25.3609 11.8553L23.5563 14.4482L23.0107 9.7666Z" fill="#F2F2F2"/>
<path d="M18.5068 30.7832L23.2912 33.1744L19.6959 33.5201L18.5068 30.7832Z" fill="#A5A5A5"/>
<path d="M18.5074 30.7832L19.6965 33.5201L15.5557 32.7999L18.5074 30.7832Z" fill="#BFBFBF"/>
<path d="M8.72863 26.2748L5.58105 24.7047L7.74938 22.688L8.72863 26.2748Z" fill="#999999"/>
<path d="M7.09188 19.1006L7.74937 22.6874L3.34277 20.6563L7.09188 19.1006Z" fill="#B2B2B2"/>
<path d="M7.74937 22.6878L5.58105 24.7045L3.34277 20.6567L7.74937 22.6878Z" fill="#A5A5A5"/>
<path d="M15.6953 9.01761L16.6746 8.12451L19.0527 10.3429L15.6953 9.01761Z" fill="#CCCCCC"/>
<path d="M13.4854 8.28297L16.6749 8.12451L15.6956 9.01761L13.4854 8.28297Z" fill="#D8D8D8"/>
<path d="M12.5762 10.8324L13.4855 8.28271L15.6958 9.01736L12.5762 10.8324Z" fill="#F2F2F2"/>
<path d="M26.3408 23.293L28.7609 28.1618L24.1025 26.0587L26.3408 23.293Z" fill="#E5E5E5"/>
<path d="M24.1025 26.0586L28.7609 28.1617L25.2916 29.8903L24.1025 26.0586Z" fill="#CCCCCC"/>
<path d="M21.3896 28.6948L25.2926 29.8904L23.2922 33.1747L21.3896 28.6948Z" fill="#CCCCCC"/>
<path d="M21.3886 28.6948L23.2912 33.1747L18.5068 30.7835L21.3886 28.6948Z" fill="#B2B2B2"/>
<path d="M24.1036 26.0586L25.2926 29.8903L21.3896 28.6947L24.1036 26.0586Z" fill="#BFBFBF"/>
<path d="M12.5762 10.8326L15.6958 9.01758L13.1078 13.7856L12.5762 10.8326Z" fill="#E5E5E5"/>
<path d="M12.5761 10.8325L13.1077 13.7855L9.61035 14.1888L12.5761 10.8325Z" fill="#CCCCCC"/>
<path d="M19.0527 10.3428L23.0117 9.7666L20.1159 13.5695L19.0527 10.3428Z" fill="#D8D8D8"/>
<path d="M23.011 9.7666L23.5566 14.4482L20.1152 13.5695L23.011 9.7666Z" fill="#E5E5E5"/>
<path d="M15.6945 9.01758L16.4918 13.2526L13.1064 13.7856L15.6945 9.01758Z" fill="#BFBFBF"/>
<path d="M15.6953 9.01758L19.0527 10.3428L16.4927 13.2526L15.6953 9.01758Z" fill="#E5E5E5"/>
<path d="M19.0532 10.3428L20.1164 13.5695L16.4932 13.2526L19.0532 10.3428Z" fill="#CCCCCC"/>
<path d="M12.4357 27.2683L10.2394 29.7028L8.72852 26.2744L12.4357 27.2683Z" fill="#999999"/>
<path d="M21.3889 28.6944L18.5071 30.7831L16.7725 27.8301L21.3889 28.6944Z" fill="#A5A5A5"/>
<path d="M10.3383 20.4546L7.75027 22.6874L7.09277 19.1006L10.3383 20.4546Z" fill="#999999"/>
<path d="M13.4984 31.3018L15.5548 32.7999L11.8477 32.5982L13.4984 31.3018Z" fill="#BFBFBF"/>
<path d="M12.4365 27.2681L16.7732 27.8299L13.4997 31.3014L12.4365 27.2681Z" fill="#BFBFBF"/>
<path d="M16.7715 27.8301L18.5062 30.7831L13.498 31.3016L16.7715 27.8301Z" fill="#999999"/>
<path d="M13.498 31.3018L18.5062 30.7832L15.5545 32.7999L13.498 31.3018Z" fill="#B2B2B2"/>
<path d="M12.4356 27.2681L13.4987 31.3014L10.2393 29.7025L12.4356 27.2681Z" fill="#A5A5A5"/>
<path d="M13.4987 31.3016L11.848 32.598L10.2393 29.7026L13.4987 31.3016Z" fill="#B2B2B2"/>
<path d="M26.3418 23.2925L24.1035 26.0583L22.4248 21.6792L26.3418 23.2925Z" fill="#CCCCCC"/>
<path d="M16.4918 13.2524L13.2184 17.0265L13.1064 13.7854L16.4918 13.2524Z" fill="#B2B2B2"/>
<path d="M23.5566 14.448L20.9826 17.401L20.1152 13.5693L23.5566 14.448Z" fill="#D8D8D8"/>
<path d="M26.7325 15.7734L28.1315 20.3974L25.8232 18.2511L26.7325 15.7734Z" fill="#E5E5E5"/>
<path d="M23.5574 14.4482L25.8237 18.2511L20.9834 17.4012L23.5574 14.4482Z" fill="#E5E5E5"/>
<path d="M23.5576 14.4482L26.7332 15.7735L25.8239 18.2511L23.5576 14.4482Z" fill="#D8D8D8"/>
<path d="M25.8242 18.251L26.3418 23.2927L22.4248 21.6793L25.8242 18.251Z" fill="#F2F2F2"/>
<path d="M25.8232 18.251L28.1315 20.3973L26.3408 23.2927L25.8232 18.251Z" fill="#D8D8D8"/>
<path d="M20.9834 17.4009L25.8237 18.2508L22.4243 21.6791L20.9834 17.4009Z" fill="#D8D8D8"/>
<path d="M8.86816 16.8105L13.2188 17.0266L10.337 20.455L8.86816 16.8105Z" fill="#BFBFBF"/>
<path d="M13.1069 13.7856L13.2188 17.0267L8.86816 16.8107L13.1069 13.7856Z" fill="#D8D8D8"/>
<path d="M8.8694 16.8105L10.3383 20.455L7.09277 19.1009L8.8694 16.8105Z" fill="#A5A5A5"/>
<path d="M8.86781 16.8106L7.09119 19.1009L6.60156 16.0615L8.86781 16.8106Z" fill="#B2B2B2"/>
<path d="M9.60925 14.189L8.86782 16.8106L6.60156 16.0616L9.60925 14.189Z" fill="#F2F2F2"/>
<path d="M9.60959 14.189L13.1069 13.7856L8.86816 16.8107L9.60959 14.189Z" fill="#E5E5E5"/>
<path d="M15.3463 24.2578L16.7732 27.8302L12.4365 27.2684L15.3463 24.2578Z" fill="#A5A5A5"/>
<path d="M13.2187 17.0264L14.086 20.642L10.3369 20.4547L13.2187 17.0264Z" fill="#999999"/>
<path d="M18.2137 20.7285L15.3459 24.2577L14.0869 20.6421L18.2137 20.7285Z" fill="#999999"/>
<path d="M20.9827 17.4009L22.4236 21.6791L18.2129 20.7284L20.9827 17.4009Z" fill="#CCCCCC"/>
<path d="M10.5889 24.3731L15.3452 24.2578L12.4354 27.2684L10.5889 24.3731Z" fill="#BFBFBF"/>
<path d="M10.5891 24.373L12.4357 27.2684L8.72852 26.2745L10.5891 24.373Z" fill="#A5A5A5"/>
<path d="M10.337 20.4551L10.5888 24.3732L7.74902 22.6878L10.337 20.4551Z" fill="#A5A5A5"/>
<path d="M10.5888 24.3734L8.72827 26.2748L7.74902 22.688L10.5888 24.3734Z" fill="#BFBFBF"/>
<path d="M14.0862 20.6421L15.3452 24.2577L10.5889 24.3729L14.0862 20.6421Z" fill="#A5A5A5"/>
<path d="M10.3369 20.4551L14.086 20.6423L10.5887 24.3732L10.3369 20.4551Z" fill="#B2B2B2"/>
<path d="M16.8564 16.1191L20.9833 17.4012L18.2134 20.7287L16.8564 16.1191Z" fill="#D8D8D8"/>
<path d="M20.1159 13.5693L20.9833 17.401L16.8564 16.119L20.1159 13.5693Z" fill="#F2F2F2"/>
<path d="M16.4932 13.2524L20.1164 13.5693L16.8569 16.119L16.4932 13.2524Z" fill="#BFBFBF"/>
<path d="M16.8568 16.1191L18.2137 20.7287L14.0869 20.6423L16.8568 16.1191Z" fill="#A5A5A5"/>
<path d="M16.4922 13.2524L16.856 16.119L13.2188 17.0265L16.4922 13.2524Z" fill="#F2F2F2"/>
<path d="M13.2188 17.0266L16.856 16.1191L14.0861 20.6423L13.2188 17.0266Z" fill="#B2B2B2"/>
<path d="M22.4244 21.6792L24.1031 26.0583L19.9902 25.3236L22.4244 21.6792Z" fill="#F2F2F2"/>
<path d="M19.9902 25.3237L24.1031 26.0584L21.3892 28.6945L19.9902 25.3237Z" fill="#D8D8D8"/>
<path d="M18.2135 20.7285L19.9901 25.3237L15.3457 24.2577L18.2135 20.7285Z" fill="#B2B2B2"/>
<path d="M18.2129 20.7285L22.4236 21.6792L19.9895 25.3237L18.2129 20.7285Z" fill="#D8D8D8"/>
<path d="M19.99 25.3237L21.3889 28.6945L16.7725 27.8302L19.99 25.3237Z" fill="#BFBFBF"/>
<path d="M15.3457 24.2578L19.9901 25.3238L16.7726 27.8302L15.3457 24.2578Z" fill="#999999"/>
<path d="M3.52539 4.2207L6.77089 5.64679L7.97396 8.64299L3.52539 4.2207Z" fill="#727272"/>
<path d="M7.27412 4.39336L7.97358 8.64278L6.77051 5.64658L5.65137 3.11133L7.27412 4.39336Z" fill="#A5A5A5"/>
<path d="M1.14648 3.11133L3.52465 4.2205L6.77015 5.64658L5.65101 3.11133H1.14648Z" fill="#8C8C8C"/>
<path d="M3.70651 1.29639L5.65101 3.1114H1.14648L3.70651 1.29639Z" fill="#B2B2B2"/>
<path d="M0 1.29639H3.70714L1.14712 3.1114L0 1.29639Z" fill="#BFBFBF"/>
<path d="M3.70714 1.29644L6.21121 1.4837L3.94496 0L0 1.29644H3.70714Z" fill="#8C8C8C"/>
<path d="M7.40065 1.4837H6.21157L3.94531 0L7.40065 1.4837Z" fill="#A5A5A5"/>
<path d="M7.27428 4.39343L6.2111 1.48365L3.70703 1.29639L5.65153 3.1114L7.27428 4.39343Z" fill="#727272"/>
<path d="M8.65935 8.42691L7.27441 4.39355L7.97387 8.64298L8.65935 8.42691Z" fill="#727272"/>
<path d="M7.40002 1.48389L8.65905 8.42702L7.27412 4.39367L6.21094 1.48389H7.40002Z" fill="#8C8C8C"/>
</svg>
