<svg width="60" height="60" viewBox="0 0 60 60" fill="none" xmlns="http://www.w3.org/2000/svg">
<circle cx="30" cy="30" r="22" fill="#F0F1F8"/>
<circle cx="30" cy="30" r="29.835" stroke="#9AB4C1" stroke-width="0.33"/>
<path d="M40.8115 37.5973C40.8115 37.5973 38.65 35.2507 38.2519 28.68C37.7968 21.8747 35.1803 19 29.6629 19C29.5491 19 20.7326 19.1173 20.7326 29.9707C20.7326 35.192 19.7656 36.8347 19.1968 37.3627C18.9124 37.5973 18.7418 37.5973 18.6849 37.5973C18.4005 37.5387 18.1729 37.656 18.0592 37.8907C17.9454 38.1253 18.0023 38.4187 18.1729 38.5947C18.2867 38.6533 20.3344 40.472 26.1363 41H26.1931C26.4775 41 26.7051 40.824 26.7619 40.5307C26.8757 40.0027 26.9326 39.1813 26.7619 38.3013C26.7619 38.184 26.7051 38.1253 26.6482 38.008C26.4207 37.7733 26.1931 37.48 25.9656 37.128C26.5913 37.4213 27.3876 37.5973 28.184 37.656C28.4115 38.0667 28.8097 38.36 29.2647 38.36C29.9473 38.36 30.5161 37.7733 30.5161 37.0693C30.5161 36.3653 29.9473 35.7787 29.2647 35.7787C28.8097 35.7787 28.4115 36.072 28.184 36.424C26.3638 36.248 24.8849 35.3093 24.6574 34.136C24.6574 34.0187 24.6574 33.96 24.6574 33.8427C24.6574 33.784 24.6574 33.7253 24.6005 33.608C24.6005 33.608 24.6005 33.5493 24.5436 33.5493C24.5436 33.4907 24.4867 33.4907 24.4867 33.432L24.4298 33.3733C24.373 33.3147 24.373 33.3147 24.3161 33.3147C24.3161 33.3147 24.2592 33.3147 24.2592 33.256C24.2592 33.256 24.2592 33.256 24.2023 33.256C23.9179 33.1387 23.5197 32.9627 23.3491 32.6693C23.2353 32.4347 23.2922 32.2 23.3491 32.024C25.4537 30.2053 26.3069 28.0347 26.5913 26.392C28.9234 30.1467 33.5876 31.32 35.2372 31.4373C35.4647 31.6133 35.7491 31.9067 35.806 32.2587C35.806 32.6107 35.4647 32.9627 35.1234 33.1973C35.0666 33.256 35.0097 33.3147 34.9528 33.432C34.839 33.608 34.7821 33.8427 34.7821 34.0773C34.8959 35.544 33.4739 37.4213 32.6776 38.008C32.5069 38.1253 32.45 38.3013 32.45 38.4773C32.45 39.1813 32.5069 39.8853 32.6207 40.4133C32.6776 40.7067 32.962 40.8827 33.2464 40.8827C38.9913 40.3547 40.8684 38.4773 40.9253 38.4187C41.039 38.184 41.039 37.832 40.8115 37.5973ZM33.5308 39.7093C33.4739 39.416 33.4739 39.1227 33.4739 38.7707C34.4409 37.9493 35.9198 35.9547 35.806 34.0773C36.4886 33.5493 36.8299 32.904 36.8299 32.2587C36.773 31.144 35.7491 30.4987 35.6354 30.3813C35.5785 30.3227 35.4647 30.3227 35.351 30.3227C33.9289 30.264 27.8427 28.7973 26.5913 23.6933C26.5344 23.4 26.25 23.224 25.9087 23.2827C25.5674 23.3413 25.3968 23.6347 25.4537 23.928C25.4537 24.104 26.0794 28.2107 22.439 31.2613C22.3821 31.32 22.3252 31.3787 22.2684 31.496C21.984 32.0827 21.984 32.728 22.2115 33.256C22.3821 33.608 22.6665 34.0187 23.3491 34.3707C23.5197 36.072 24.6005 37.5973 25.5106 38.712C25.5674 39.1227 25.5675 39.4747 25.5675 39.768C22.6096 39.416 20.7895 38.7707 19.7656 38.2427C21.0739 37.1867 21.7564 34.3707 21.7564 29.912C21.7564 20.232 29.2647 20.1147 29.5491 20.1147C33.6445 20.1147 36.5454 21.5813 37.0005 28.7387C37.3418 34.0773 38.7638 36.8347 39.5033 37.8907C38.8776 38.36 37.0574 39.2987 33.5308 39.7093Z" fill="#17315B"/>
</svg>
