<svg width="60" height="60" viewBox="0 0 60 60" fill="none" xmlns="http://www.w3.org/2000/svg">
<circle cx="30" cy="30" r="22" fill="#F0F1F8"/>
<path d="M36.7835 21.5106C36.7835 21.2383 36.5412 21 36.2643 21H21.5192C21.2423 21 21 21.2383 21 21.5106V24.7106C21 24.983 21.2423 25.2213 21.5192 25.2213H21.7615V36.4894C21.7615 36.7617 22.0038 37 22.2807 37H35.5028C35.7797 37 36.022 36.7617 36.022 36.4894V34.5489C36.3682 34.4128 36.6797 34.2766 36.9566 34.0723C39.7602 32.1319 39.6564 27.1957 36.7835 23.0085V21.5106ZM34.9836 33.766C32.5953 34.1745 29.4456 32.4383 27.2303 29.3064C26.2958 28.0128 25.6727 26.617 25.3266 25.2213H34.9836V33.766ZM22.0384 24.2V22.0213H35.7451V24.2H35.5028H25.1536C25.1189 23.9617 25.1189 23.7234 25.0843 23.4851C25.0843 23.2128 24.842 23.0085 24.5305 23.0085C24.2536 23.0085 24.0113 23.2468 24.0459 23.5532C24.0459 23.7915 24.0806 23.9957 24.1152 24.234H22.3153H22.0384V24.2ZM34.9836 35.9787H22.7999V25.2213H24.2536C24.5997 26.7872 25.3266 28.3872 26.365 29.8851C28.5456 32.983 31.6954 34.8213 34.326 34.8213C34.5337 34.8213 34.776 34.8213 34.9836 34.7872V35.9787ZM36.3682 33.2213C36.2643 33.2894 36.1259 33.3574 36.022 33.4255V25.2553H36.2643C36.472 25.2553 36.6797 25.1191 36.7489 24.9149C38.5142 28.2851 38.4449 31.7915 36.3682 33.2213Z" fill="#000C31"/>
<circle cx="30" cy="30" r="29.835" stroke="#9AB4C1" stroke-width="0.33"/>
</svg>
