<svg width="60" height="60" viewBox="0 0 60 60" fill="none" xmlns="http://www.w3.org/2000/svg">
<circle cx="30" cy="30" r="22" fill="#F0F1F8"/>
<circle cx="30" cy="30" r="29.835" stroke="#9AB4C1" stroke-width="0.33"/>
<path d="M42.3053 28.8092C42.2978 28.7898 42.2859 28.7739 42.276 28.7558C42.2628 28.7312 42.2534 28.7047 42.2359 28.6826L38.5696 24.0426C38.4773 23.9259 38.3364 23.8577 38.1876 23.8577H33.8652V20.4868C33.8652 20.218 33.6472 20 33.3784 20H18.4868C18.218 20 18 20.218 18 20.4868V30.6077C18 30.608 18.0002 30.6083 18.0002 30.6087C18.0002 30.609 18 30.6093 18 30.6096V34.767C18 35.0359 18.218 35.2538 18.4868 35.2538H21.0466C21.2703 36.2511 22.161 37 23.2266 37C24.2902 37 25.1793 36.2511 25.4026 35.2538H33.3784H35.4381C35.6619 36.2511 36.5527 37 37.6183 37C38.6819 37 39.571 36.2511 39.7943 35.2538H41.8539C42.1228 35.2538 42.3407 35.0359 42.3407 34.767V28.9844C42.3407 28.9237 42.327 28.8651 42.3053 28.8092ZM37.9518 24.8313L40.8489 28.4976H33.8652V24.8313H37.9518ZM18.9736 20.9736H32.8916V24.3445V30.1209H18.9736V20.9736ZM18.9736 31.0964H32.8916V34.2802H25.4031C25.1803 33.2803 24.2907 32.5293 23.2266 32.5293C22.1604 32.5293 21.2693 33.2803 21.0461 34.2802H18.9736V31.0964ZM23.2266 36.0264C22.5299 36.0264 21.963 35.4614 21.963 34.7668C21.963 34.0698 22.5299 33.5029 23.2266 33.5029C23.9191 33.5029 24.4822 34.0666 24.4856 34.7607C24.4855 34.7629 24.4843 34.7648 24.4843 34.767C24.4843 34.7692 24.4855 34.771 24.4855 34.7732C24.482 35.4647 23.919 36.0264 23.2266 36.0264ZM37.6183 36.0264C36.9213 36.0264 36.3544 35.4614 36.3544 34.7668C36.3544 34.0698 36.9213 33.5029 37.6183 33.5029C38.3129 33.5029 38.8779 34.0698 38.8779 34.7668C38.8779 35.4614 38.3129 36.0264 37.6183 36.0264ZM39.7948 34.2802C39.572 33.2803 38.6824 32.5293 37.6183 32.5293C36.5521 32.5293 35.6608 33.2803 35.4376 34.2802H33.8652V30.6096V30.6077V29.4713H41.3671V34.2802H39.7948Z" fill="#000C31"/>
<path d="M36.2556 30.4297H35.4341C35.1652 30.4297 34.9473 30.6477 34.9473 30.9165C34.9473 31.1853 35.1652 31.4033 35.4341 31.4033H36.2556C36.5244 31.4033 36.7424 31.1853 36.7424 30.9165C36.7424 30.6477 36.5244 30.4297 36.2556 30.4297Z" fill="#000C31"/>
</svg>
