<svg width="215" height="73" viewBox="0 0 215 73" fill="none" xmlns="http://www.w3.org/2000/svg">
<path d="M150.208 24.708L153.153 32.7051H151.26L150.629 31.0215H147.263L146.632 32.7051H144.738L147.683 24.708H150.208ZM148.946 25.9707L147.683 29.7588H150.208L148.946 25.9707Z" fill="#586386"/>
<path d="M155.888 32.7051L152.942 24.708H155.046L157.15 31.0215L159.254 24.708H161.357L158.412 32.7051H155.888Z" fill="#586386"/>
<path d="M166.618 24.708L169.563 32.7051H167.67L167.039 31.0215H163.673L163.042 32.7051H161.148L164.094 24.708H166.618ZM165.356 25.9707L164.094 29.7588H166.618L165.356 25.9707Z" fill="#586386"/>
<path d="M175.664 26.1812H173.561V32.7051H171.667V26.1812H169.563V24.708H175.875V26.1812H175.664Z" fill="#586386"/>
<path d="M178.819 32.7051H176.926V24.708H178.819V32.7051Z" fill="#586386"/>
<path d="M188.494 32.7051H186.391L182.604 27.023V27.6543V32.4947H180.921V24.4976H183.025L186.811 30.1797V29.5484V24.4976H188.494V32.7051Z" fill="#586386"/>
<path d="M196.069 26.1812H193.965V32.7051H192.071V26.1812H189.968V24.708H196.279V26.1812H196.069Z" fill="#586386"/>
<path d="M142.424 40.9126H140.32V47.4366H138.427V40.9126H136.323V39.4395H142.634V40.9126H142.424Z" fill="#586386"/>
<path d="M145.58 47.4366H143.687V39.4395H145.58V47.4366Z" fill="#586386"/>
<path d="M147.685 39.4395H149.578V43.0171L150.209 42.5962L152.734 39.4395H154.838L151.682 43.2276L155.048 47.4366H152.944L150.209 44.2798L149.368 44.7007V47.4366H147.475V39.4395H147.685Z" fill="#586386"/>
<path d="M156.519 39.4395H158.412V43.0171L159.043 42.5962L161.568 39.4395H163.672L160.516 43.2276L163.882 47.4366H161.778L159.043 44.2798L158.202 44.7007V47.4366H156.309V39.4395H156.519Z" fill="#586386"/>
<path d="M164.933 44.4903V39.4395H166.826V44.0694C166.826 45.1216 167.247 45.9634 168.509 45.9634C169.771 45.9634 170.192 45.3321 170.192 44.0694V39.4395H172.085V44.4903C172.085 46.1739 171.033 47.647 168.509 47.647C165.984 47.647 164.933 46.1739 164.933 44.4903Z" fill="#586386"/>
<path d="M180.29 42.1753C180.29 43.438 179.659 44.0694 178.817 44.4903L180.711 47.4366H178.607L176.924 44.9112H176.082V47.4366H174.399V39.4395H177.134C179.238 39.4395 180.29 40.2813 180.29 42.1753ZM176.082 40.9126V43.6485H176.924C177.976 43.6485 178.607 43.2276 178.607 42.1753C178.607 41.3335 177.976 40.9126 176.924 40.9126H176.082Z" fill="#586386"/>
<path d="M184.079 47.4366H182.186V39.4395H184.079V47.4366Z" fill="#586386"/>
<path d="M191.86 47.4366H186.18V39.4395H188.073V45.9634H191.86V47.4366Z" fill="#586386"/>
<path d="M198.174 39.4395L201.119 47.4366H199.226L198.595 45.753H195.229L194.597 47.4366H192.704L195.649 39.4395H198.174ZM196.912 40.7022L195.649 44.4903H198.174L196.912 40.7022Z" fill="#586386"/>
<path d="M20.1954 44.9106C19.5643 44.9106 19.1436 45.3315 19.1436 46.1733V52.9078C19.1436 53.7496 19.5643 54.1705 20.1954 54.1705C20.8265 54.1705 21.2473 53.7496 21.2473 52.9078V46.1733C21.0369 45.1211 20.6162 44.9106 20.1954 44.9106Z" fill="#586386"/>
<path d="M49.8583 19.2358C49.4376 19.2358 49.0169 19.4463 48.8065 19.6567C48.3857 20.0776 48.3857 20.4985 48.3857 21.1299V31.442C48.3857 32.0733 48.5961 32.7047 48.8065 32.9151C49.0169 33.1256 49.4376 33.336 49.8583 33.336C50.2791 33.336 50.6998 33.1256 50.9102 32.9151C51.1206 32.7047 51.3309 32.0733 51.3309 31.442V21.1299C51.3309 20.4985 51.1206 19.8672 50.9102 19.6567C50.6998 19.4463 50.2791 19.2358 49.8583 19.2358Z" fill="#586386"/>
<path d="M50.9118 45.1206H50.0703V49.3296H50.9118C51.5429 49.3296 51.9637 49.1192 51.9637 48.0669V46.1729C51.7533 45.3311 51.5429 45.1206 50.9118 45.1206Z" fill="#586386"/>
<path d="M43.336 44.9106C42.7049 44.9106 42.2842 45.3315 42.2842 46.1733V52.9078C42.2842 53.7496 42.7049 54.1705 43.336 54.1705C43.9672 54.1705 44.3879 53.7496 44.3879 52.9078V46.1733C44.3879 45.1211 43.9672 44.9106 43.336 44.9106Z" fill="#586386"/>
<path d="M35.9723 49.5405H35.1309V53.7495H35.9723C36.6035 53.7495 37.0242 53.5391 37.0242 52.4868V50.5928C37.0242 49.9614 36.6035 49.5405 35.9723 49.5405Z" fill="#586386"/>
<path d="M39.3408 19.2358C38.92 19.2358 38.4993 19.4463 38.2889 19.6567C38.0785 19.8672 37.8682 20.4985 37.8682 21.1299V31.442C37.8682 32.0733 38.0785 32.7047 38.2889 32.9151C38.4993 33.1256 38.92 33.336 39.3408 33.336C39.7615 33.336 40.1823 33.1256 40.3926 32.9151C40.603 32.7047 40.8134 32.0733 40.8134 31.442V21.1299C40.8134 20.4985 40.603 19.8672 40.3926 19.6567C40.1823 19.4463 39.7615 19.2358 39.3408 19.2358Z" fill="#586386"/>
<path d="M60.3769 19.2358C59.9562 19.2358 59.5354 19.4463 59.325 19.6567C58.9043 20.0776 58.9043 20.4985 58.9043 21.1299V31.442C58.9043 32.0733 59.1147 32.7047 59.325 32.9151C59.5354 33.1256 59.9562 33.336 60.3769 33.336C60.7976 33.336 61.2184 33.1256 61.4288 32.9151C61.6391 32.7047 61.8495 32.0733 61.8495 31.442V21.1299C61.8495 20.4985 61.6391 19.8672 61.4288 19.6567C61.2184 19.4463 60.7976 19.2358 60.3769 19.2358Z" fill="#586386"/>
<path d="M72.999 0.0849609H0V72.2694H72.999H215V0.0849609H72.999ZM20.1957 21.3404C20.1957 19.8673 20.6164 18.6046 21.4579 17.7628C22.2994 16.921 23.3513 16.5001 24.8239 16.5001C26.2965 16.5001 27.3483 16.921 28.1898 17.7628C29.0313 18.6046 29.4521 19.8673 29.4521 21.3404V31.2316C29.4521 32.7048 29.0313 33.9675 28.1898 34.8093C27.3483 35.6511 26.2965 36.072 24.8239 36.072C23.3513 36.072 22.2994 35.6511 21.4579 34.8093C20.6164 33.9675 20.1957 32.7048 20.1957 31.2316V21.3404ZM9.6771 29.7585H12.6223V31.4421C12.6223 32.0734 12.8327 32.7048 13.0431 32.9152C13.2534 33.3361 13.6742 33.3361 14.0949 33.3361C14.726 33.3361 14.9364 33.3361 15.3571 32.9152C15.5675 32.7048 15.7779 32.0734 15.7779 31.4421V27.2331C15.7779 26.6017 15.5675 25.9704 15.3571 25.7599C15.1468 25.5495 14.726 25.339 14.3053 25.339C13.8845 25.339 13.4638 25.5495 13.2534 25.7599C12.8327 26.1808 12.6223 26.6017 12.6223 27.2331V27.8644H9.6771L10.3082 16.7105H18.3023V19.4464H13.0431L12.8327 24.0763C13.4638 23.2345 14.3053 22.6032 15.3571 22.6032C16.409 22.6032 17.2505 23.0241 17.8816 23.6554C18.5127 24.4972 18.7231 25.5495 18.7231 26.8122V31.0212C18.7231 32.4943 18.3023 33.757 17.6712 34.5988C16.8297 35.4406 15.7779 35.8615 14.3053 35.8615C12.8327 35.8615 11.7808 35.4406 10.9393 34.5988C10.0978 33.757 9.88748 32.4943 9.88748 31.0212V29.7585H9.6771ZM16.1986 55.6439H14.0949L12.2016 50.8035L11.5705 51.8558V55.6439H9.6771V43.4377H11.5705V48.699L14.0949 43.4377H15.9883L13.2534 48.9095L16.1986 55.6439ZM22.9305 52.6975C22.9305 54.5916 21.8787 55.8543 19.9853 55.8543C18.092 55.8543 17.0401 54.8021 17.0401 52.6975V46.384C17.0401 44.49 18.092 43.2273 19.9853 43.2273C21.8787 43.2273 22.9305 44.2795 22.9305 46.384V52.6975ZM31.3454 55.6439H29.4521V45.1213H27.7691L27.5587 52.4871C27.5587 54.8021 26.7172 55.6439 24.8239 55.6439H24.6135V53.9603C25.455 53.9603 25.6654 53.7498 25.8757 52.6975L26.0861 43.4377H31.5558V55.6439H31.3454ZM38.9188 52.4871C38.9188 54.3812 37.8669 55.4334 35.9736 55.4334H33.2388V43.2273H35.1321V47.8572H35.9736C37.8669 47.8572 38.9188 48.9095 38.9188 50.8035V52.4871ZM35.9736 34.8093C35.1321 33.9675 34.7114 32.7048 34.7114 31.2316V21.3404C34.7114 19.8673 35.1321 18.6046 35.9736 17.7628C36.8151 16.921 37.8669 16.5001 39.3395 16.5001C40.8121 16.5001 41.864 16.921 42.7055 17.7628C43.547 18.6046 43.9677 19.8673 43.9677 21.3404V31.2316C43.9677 32.7048 43.547 33.9675 42.7055 34.8093C41.864 35.6511 40.8121 36.072 39.3395 36.072C37.8669 36.072 36.6047 35.6511 35.9736 34.8093ZM46.2818 52.6975C46.2818 54.5916 45.2299 55.8543 43.3366 55.8543C41.4433 55.8543 40.3914 54.8021 40.3914 52.6975V46.384C40.3914 44.49 41.4433 43.2273 43.3366 43.2273C45.2299 43.2273 46.2818 44.2795 46.2818 46.384V52.6975ZM53.6448 47.8572C53.6448 49.7513 52.593 50.8035 50.6996 50.8035H49.8581V55.4334H47.9648V43.2273H50.6996C52.593 43.2273 53.6448 44.2795 53.6448 46.1736V47.8572ZM54.4863 31.2316C54.4863 32.7048 54.0656 33.9675 53.2241 34.8093C52.3826 35.6511 51.3307 36.072 49.8581 36.072C48.3855 36.072 47.3337 35.6511 46.4922 34.8093C45.6507 33.9675 45.2299 32.7048 45.2299 31.2316V21.3404C45.2299 19.8673 45.6507 18.6046 46.4922 17.7628C47.3337 16.921 48.3855 16.5001 49.8581 16.5001C51.3307 16.5001 52.3826 16.921 53.2241 17.7628C54.0656 18.6046 54.4863 19.8673 54.4863 21.3404V31.2316ZM57.2211 55.6439H55.3278V43.4377H57.2211V55.6439ZM64.7945 52.6975C64.7945 54.5916 63.7427 55.6439 61.8493 55.6439H58.9041V43.4377H61.8493C63.953 43.4377 64.7945 44.2795 64.7945 46.1736V46.5945C64.7945 47.8572 64.3738 48.699 63.5323 49.1199C64.5842 49.5408 65.0049 50.3826 65.0049 51.8558V52.6975H64.7945ZM65.0049 31.2316C65.0049 32.7048 64.5842 33.9675 63.7427 34.8093C62.9012 35.6511 61.8493 36.072 60.3767 36.072C58.9041 36.072 57.8523 35.6511 57.0108 34.8093C56.1693 33.9675 55.7485 32.7048 55.7485 31.2316V21.3404C55.7485 19.8673 56.1693 18.6046 57.0108 17.7628C57.8523 16.921 58.9041 16.5001 60.3767 16.5001C61.8493 16.5001 62.9012 16.921 63.7427 17.7628C64.5842 18.6046 65.0049 19.8673 65.0049 21.3404V31.2316ZM212.896 70.3754H74.8924V1.97901H212.896V70.3754Z" fill="#586386"/>
<path d="M24.8232 33.336C25.2439 33.336 25.6647 33.1256 25.875 32.9151C26.0854 32.7047 26.2958 32.0733 26.2958 31.442V21.1299C26.2958 20.4985 26.0854 19.8672 25.875 19.6567C25.6647 19.4463 25.2439 19.2358 24.8232 19.2358C24.4024 19.2358 23.9817 19.4463 23.7713 19.6567C23.561 19.8672 23.3506 20.4985 23.3506 21.1299V31.442C23.3506 32.0733 23.561 32.7047 23.7713 32.9151C23.9817 33.336 24.1921 33.336 24.8232 33.336Z" fill="#586386"/>
<path d="M62.6922 47.0147V46.3833C62.6922 45.5415 62.4818 45.1206 61.6403 45.1206H60.7988V48.2774H61.6403C62.2714 48.2774 62.6922 47.8565 62.6922 47.0147Z" fill="#586386"/>
<path d="M61.6403 49.9614H60.7988V53.7495H61.8507C62.4818 53.7495 62.9025 53.5391 62.9025 52.4868V51.4346C62.9025 50.3823 62.4818 49.9614 61.6403 49.9614Z" fill="#586386"/>
<path d="M99.9278 18.3945C99.9278 17.3423 99.0863 16.5005 98.0345 16.5005H88.7781C87.7263 16.5005 86.8848 17.3423 86.8848 18.3945V53.7502C86.8848 54.8025 87.7263 55.6443 88.7781 55.6443H124.121C125.172 55.6443 126.014 54.8025 126.014 53.7502V44.4904C126.014 43.4381 125.172 42.5963 124.121 42.5963H117.809L123.279 39.4396C123.7 39.2291 124.121 38.8082 124.121 38.1769C124.331 37.756 124.121 37.1246 123.91 36.7037L119.282 28.7066C119.072 28.2857 118.651 27.8648 118.02 27.8648C117.599 27.6544 116.968 27.8648 116.547 28.0753L111.078 31.232L114.233 25.7603C114.443 25.3394 114.654 24.7081 114.443 24.2872C114.233 23.8663 114.023 23.4453 113.602 23.0244L105.818 18.605C105.397 18.3945 104.766 18.1841 104.346 18.3945C103.925 18.605 103.504 18.8154 103.083 19.2363L99.9278 24.7081V18.3945ZM99.9278 52.9084L106.449 49.1203V54.3816H99.7175C99.7175 54.1711 99.9278 53.9607 99.9278 53.7502V52.9084ZM100.138 27.2335L109.184 32.4947L105.187 39.4396L99.9278 36.4933L100.138 27.2335ZM110.026 33.547L115.285 42.5963L108.553 46.5949L105.608 41.3336L110.026 33.547ZM115.706 44.0695V54.592H107.922V48.6994L108.763 48.2785L115.706 44.0695ZM99.9278 51.4353V51.0144L104.766 42.8068L107.291 47.4367L99.9278 51.4353ZM99.9278 48.2785V37.756L104.556 40.2814L104.346 40.9127L99.9278 48.2785ZM88.147 44.0695V36.2828H98.6656V44.0695H88.147ZM88.147 34.8097V27.023H98.6656V34.8097H88.147ZM109.815 31.4425L100.769 26.1812L104.346 19.8677C104.346 19.6572 104.556 19.6572 104.766 19.6572C104.977 19.6572 105.187 19.6572 105.187 19.6572L113.181 24.2872C113.392 24.2872 113.392 24.4976 113.392 24.7081C113.392 24.9185 113.392 25.129 113.392 25.129L109.815 31.4425ZM116.547 41.965L111.288 32.9156L117.599 29.338C117.809 29.338 118.02 29.1275 118.02 29.338C118.23 29.338 118.23 29.5484 118.441 29.5484L123.069 37.5455C123.069 37.756 123.279 37.9664 123.069 37.9664C123.069 38.1769 122.858 38.1769 122.858 38.3873L116.547 41.965ZM124.962 53.7502C124.962 54.1711 124.752 54.3816 124.331 54.3816H117.178V43.859H124.121C124.541 43.859 124.752 44.0695 124.752 44.4904V53.7502H124.962ZM88.9885 54.3816C88.5677 54.3816 88.3574 54.1711 88.3574 53.7502V45.3322H98.876V53.7502C98.876 54.1711 98.6656 54.3816 98.2449 54.3816H88.9885ZM98.0345 17.7632C98.4552 17.7632 98.6656 17.9736 98.6656 18.3945V25.5499H88.147V18.3945C88.147 17.9736 88.3574 17.7632 88.7781 17.7632H98.0345Z" fill="#586386"/>
<path d="M96.1417 49.9619C96.1417 48.4888 94.8795 47.4365 93.6172 47.4365C92.1446 47.4365 91.0928 48.6992 91.0928 49.9619C91.0928 51.2246 92.355 52.4873 93.6172 52.4873C94.8795 52.4873 96.1417 51.4351 96.1417 49.9619ZM92.1446 49.9619C92.1446 49.3306 92.7758 48.6992 93.4069 48.6992C94.038 48.6992 94.6691 49.3306 94.6691 49.9619C94.6691 50.5933 94.038 51.2246 93.4069 51.2246C92.7758 51.2246 92.1446 50.5933 92.1446 49.9619Z" fill="#586386"/>
</svg>
