<svg width="60" height="60" viewBox="0 0 60 60" fill="none" xmlns="http://www.w3.org/2000/svg">
<circle cx="30" cy="30" r="22" fill="#F0F1F8"/>
<circle cx="30" cy="30" r="29.835" stroke="#9AB4C1" stroke-width="0.33"/>
<path d="M37.9328 40.45L32.6391 29.8969V22.025H33.0172C33.2234 22.025 33.3953 21.8531 33.3953 21.6469V19.3781C33.3953 19.1719 33.2234 19 33.0172 19H26.9672C26.7609 19 26.5891 19.1719 26.5891 19.3781V21.6469C26.5891 21.8531 26.7609 22.025 26.9672 22.025H27.3453V29.8969L22.0516 40.45C21.9828 40.5531 21.9828 40.6906 22.0516 40.8281C22.1547 40.9312 22.2578 41 22.3953 41H37.5547C37.6922 41 37.7953 40.9312 37.8641 40.8281C37.9672 40.725 37.9672 40.5531 37.9328 40.45ZM27.3453 19.7563H32.6391V21.2687H32.2609H27.7234H27.3453V19.7563ZM23.0141 40.2437L28.0672 30.1719C28.1016 30.1031 28.1016 30.0688 28.1016 30V22.025H31.8828V30C31.8828 30.0688 31.8828 30.1031 31.9172 30.1719L36.9703 40.2437H23.0141Z" fill="#000C31"/>
<path d="M29.2355 22.7812C29.0293 22.7812 28.8574 22.9531 28.8574 23.1594V28.4531C28.8574 28.6594 29.0293 28.8313 29.2355 28.8313C29.4418 28.8313 29.6137 28.6594 29.6137 28.4531V23.1594C29.6137 22.9531 29.4418 22.7812 29.2355 22.7812Z" fill="#000C31"/>
</svg>
