<svg width="60" height="60" viewBox="0 0 60 60" fill="none" xmlns="http://www.w3.org/2000/svg">
<circle cx="30" cy="30" r="22" fill="#F0F1F8"/>
<circle cx="30" cy="30" r="29.835" stroke="#9AB4C1" stroke-width="0.33"/>
<path d="M40.6534 41H24.7476C24.4816 41 24.2656 40.784 24.2656 40.518C24.2656 40.2519 24.4816 40.036 24.7476 40.036H40.1714V30.3961H24.7476C24.4816 30.3961 24.2656 30.1802 24.2656 29.9141C24.2656 29.6481 24.4816 29.4321 24.7476 29.4321H40.6534C40.9185 29.4321 41.1354 29.6481 41.1354 29.9141V40.518C41.1354 40.785 40.9185 41 40.6534 41Z" fill="#000C31"/>
<path d="M25.23 40.9999H18.4821C18.3452 40.9999 18.2151 40.9421 18.1235 40.8399C18.0319 40.7377 17.9876 40.6027 18.003 40.4668L19.931 22.1511C19.956 21.9063 20.1633 21.7192 20.4101 21.7192H23.302C23.5488 21.7192 23.7561 21.9053 23.7811 22.1511L25.7091 40.4668C25.7236 40.6027 25.6792 40.7367 25.5886 40.8399C25.498 40.943 25.3669 40.9999 25.23 40.9999ZM19.0171 40.0359H24.695L22.8682 22.6842H20.8439L19.0171 40.0359Z" fill="#000C31"/>
<path d="M32.6145 22.8C31.155 22.8 29.9134 22.345 28.7104 21.9045C27.4099 21.4283 26.1992 20.982 24.8043 21.1449C24.5778 21.1748 24.3609 21.034 24.2895 20.8152C24.2182 20.5964 24.3107 20.3583 24.5112 20.2464C25.9996 19.4078 27.3675 19 28.692 19C30.031 19 31.1377 19.4058 32.2087 19.7982C33.2237 20.1703 34.1819 20.5212 35.2953 20.5212C35.8978 20.5212 36.4965 20.419 37.126 20.2088C37.3515 20.1317 37.6031 20.2358 37.7101 20.4518C37.8171 20.6677 37.7487 20.9289 37.5501 21.0639C35.8313 22.2322 34.2166 22.8 32.6145 22.8ZM26.7525 20.2908C27.5497 20.4527 28.3036 20.7284 29.042 20.9983C30.2171 21.4283 31.3276 21.8351 32.6145 21.8351C33.3047 21.8351 34.0036 21.7107 34.7237 21.4582C33.6826 21.3637 32.7678 21.0282 31.879 20.7024C30.8398 20.3207 29.8614 19.9611 28.693 19.9611C28.0664 19.964 27.4234 20.072 26.7525 20.2908Z" fill="#000C31"/>
<path d="M37.7618 36.1803H33.9058C33.6407 36.1803 33.4238 35.9643 33.4238 35.6983V31.8423C33.4238 31.5763 33.6407 31.3604 33.9058 31.3604H37.7618C38.0269 31.3604 38.2438 31.5763 38.2438 31.8423V35.6983C38.2438 35.9653 38.0269 36.1803 37.7618 36.1803ZM34.3878 35.2163H37.2798V32.3243H34.3878V35.2163Z" fill="#000C31"/>
<path d="M31.0147 36.1803H27.1588C26.8927 36.1803 26.6768 35.9643 26.6768 35.6983V31.8423C26.6768 31.5763 26.8927 31.3604 27.1588 31.3604H31.0147C31.2798 31.3604 31.4967 31.5763 31.4967 31.8423V35.6983C31.4967 35.9653 31.2798 36.1803 31.0147 36.1803ZM27.6407 35.2163H30.5327V32.3243H27.6407V35.2163Z" fill="#000C31"/>
</svg>
