<svg width="60" height="60" viewBox="0 0 60 60" fill="none" xmlns="http://www.w3.org/2000/svg">
<circle cx="30" cy="30" r="22" fill="#F0F1F8"/>
<circle cx="30" cy="30" r="29.835" stroke="#9AB4C1" stroke-width="0.33"/>
<path d="M38.2311 32.2835V27.7397C39.2453 27.5311 40 26.6502 40 25.607C40 24.4015 39.0094 23.4278 37.783 23.4278C37.1226 23.4278 36.5566 23.706 36.1321 24.1465L32.1698 21.8978C32.2406 21.666 32.3113 21.4341 32.3113 21.1791C32.3113 19.9737 31.3208 19 30.0943 19C28.8679 19 27.8774 19.9737 27.8774 21.1791C27.8774 21.3878 27.9245 21.5964 27.9717 21.8051L23.8679 24.1465C23.467 23.706 22.8774 23.4278 22.217 23.4278C20.9906 23.4278 20 24.4015 20 25.607C20 26.6502 20.7547 27.5311 21.7689 27.7397V32.2835C20.7547 32.4921 20 33.373 20 34.4162C20 35.6217 20.9906 36.5954 22.217 36.5954C22.8774 36.5954 23.4434 36.3172 23.8679 35.8767L27.8774 38.1486C27.8066 38.3572 27.7594 38.589 27.7594 38.8209C27.7594 40.0263 28.75 41 29.9764 41C31.2028 41 32.1934 40.0263 32.1934 38.8209C32.1934 38.589 32.1462 38.3572 32.0755 38.1486L36.1321 35.8767C36.533 36.3172 37.1226 36.5954 37.783 36.5954C39.0094 36.5954 40 35.6217 40 34.4162C40 33.373 39.2453 32.4921 38.2311 32.2835ZM36.1085 32.9789L32.0991 30.7071C32.1698 30.4984 32.217 30.2666 32.217 30.0116C32.217 29.7798 32.1698 29.5479 32.0991 29.3393L36.1321 27.0674C36.4387 27.392 36.8396 27.647 37.3113 27.7397V32.2835C36.8396 32.3762 36.4151 32.6312 36.1085 32.9789ZM30 31.2866C29.2925 31.2866 28.7028 30.7071 28.7028 30.0116C28.7028 29.3161 29.2925 28.7366 30 28.7366C30.7075 28.7366 31.2972 29.3161 31.2972 30.0116C31.2972 30.7071 30.7075 31.2866 30 31.2866ZM22.6887 32.2835V27.7397C23.1368 27.647 23.5377 27.4152 23.8443 27.0906L27.8774 29.3625C27.8066 29.5711 27.7594 29.7798 27.7594 30.0116C27.7594 30.2434 27.8066 30.4752 27.8774 30.6839L23.8679 32.9557C23.5613 32.6312 23.1604 32.3762 22.6887 32.2835ZM37.783 24.3319C38.4906 24.3319 39.0802 24.9115 39.0802 25.607C39.0802 26.3024 38.4906 26.882 37.783 26.882C37.0755 26.882 36.4858 26.3024 36.4858 25.607C36.4858 24.9115 37.0519 24.3319 37.783 24.3319ZM35.6604 24.9347C35.5896 25.1433 35.5425 25.3751 35.5425 25.607C35.5425 25.8388 35.5896 26.0706 35.6604 26.2792L31.6509 28.5511C31.3443 28.2034 30.9198 27.9715 30.4481 27.8788V23.3351C30.9434 23.2655 31.3915 23.0105 31.6981 22.686L35.6604 24.9347ZM30.0708 19.9041C30.7783 19.9041 31.3679 20.4837 31.3679 21.1791C31.3679 21.8746 30.7783 22.4542 30.0708 22.4542C29.3632 22.4542 28.7736 21.8746 28.7736 21.1791C28.7972 20.4837 29.3632 19.9041 30.0708 19.9041ZM28.4198 22.6164C28.7028 22.941 29.0802 23.1728 29.5283 23.2887V27.8788C29.0566 27.9715 28.6557 28.2266 28.3491 28.5743L24.3396 26.3024C24.4104 26.0938 24.4575 25.862 24.4575 25.607C24.4575 25.3751 24.4104 25.1433 24.3396 24.9347L28.4198 22.6164ZM20.9198 25.607C20.9198 24.9115 21.5094 24.3319 22.217 24.3319C22.9245 24.3319 23.5142 24.9115 23.5142 25.607C23.5142 26.3024 22.9245 26.882 22.217 26.882C21.5094 26.882 20.9198 26.3024 20.9198 25.607ZM22.217 35.6913C21.5094 35.6913 20.9198 35.1117 20.9198 34.4162C20.9198 33.7208 21.5094 33.1412 22.217 33.1412C22.9245 33.1412 23.5142 33.7208 23.5142 34.4162C23.5142 35.1349 22.9481 35.6913 22.217 35.6913ZM24.3396 35.0885C24.4104 34.8799 24.4575 34.6481 24.4575 34.4162C24.4575 34.1844 24.4104 33.9526 24.3396 33.7439L28.3491 31.4721C28.6557 31.7966 29.0566 32.0285 29.5047 32.1444V36.7113C29.0566 36.804 28.6557 37.059 28.3491 37.3836L24.3396 35.0885ZM30 40.1191C29.2925 40.1191 28.7028 39.5395 28.7028 38.844C28.7028 38.1486 29.2925 37.569 30 37.569C30.7075 37.569 31.2972 38.1486 31.2972 38.844C31.2972 39.5395 30.7075 40.1191 30 40.1191ZM31.6509 37.3836C31.3443 37.0358 30.9198 36.804 30.4481 36.7113V32.1444C30.9198 32.0516 31.3208 31.8198 31.6274 31.4721L35.6604 33.7903C35.5896 33.9989 35.5425 34.2076 35.5425 34.4394C35.5425 34.6712 35.5896 34.9031 35.6604 35.1117L31.6509 37.3836ZM37.783 35.6913C37.0755 35.6913 36.4858 35.1117 36.4858 34.4162C36.4858 33.7208 37.0755 33.1412 37.783 33.1412C38.4906 33.1412 39.0802 33.7208 39.0802 34.4162C39.0802 35.1349 38.4906 35.6913 37.783 35.6913Z" fill="#000C31"/>
</svg>
