<svg width="1156" height="208" viewBox="0 0 1156 208" fill="none" xmlns="http://www.w3.org/2000/svg">
<g opacity="0.6">
<path d="M0 4.19531H41.8793V89.7773L107.907 4.19531H155.334L88.7624 88.5626L164.254 203.408H114.76L62.547 122.685L41.8793 149.63V203.519H0V4.19531Z" fill="white"/>
<path d="M270.213 0C342.441 0 374.857 56.8707 374.857 103.803C374.857 160.342 332.76 207.605 270.213 207.605C203.859 207.605 164.699 158.796 164.699 103.803C164.699 47.926 206.035 0 270.213 0ZM269.996 168.735C306.219 168.735 331.346 140.355 331.346 103.803C331.346 72.1098 310.135 38.8708 269.996 38.8708C234.317 38.8708 208.428 65.8154 208.428 103.803C208.319 135.606 229.313 168.735 269.996 168.735Z" fill="white"/>
<path d="M410.299 203.519V4.19531H452.178V164.537H527.343V203.408H410.299V203.519Z" fill="white"/>
<path d="M643.743 0C715.971 0 748.387 56.8707 748.387 103.803C748.387 160.342 706.29 207.605 643.743 207.605C577.389 207.605 538.229 158.796 538.229 103.803C538.229 47.926 579.456 0 643.743 0ZM643.417 168.735C679.64 168.735 704.767 140.355 704.767 103.803C704.767 72.1098 683.556 38.8708 643.417 38.8708C607.738 38.8708 581.849 65.8154 581.849 103.803C581.849 135.606 602.734 168.735 643.417 168.735Z" fill="white"/>
<path d="M825.624 203.519H783.854V4.19531H843.137C886.431 4.5266 916.779 27.2749 916.779 68.2438C916.779 99.9368 901.116 115.507 877.293 123.237L937.121 203.408H885.887L831.389 130.415H825.842V203.519H825.624ZM825.624 91.5442H842.376C862.717 91.5442 872.725 84.3664 872.725 67.0291C872.725 55.1028 864.784 43.0662 847.379 43.0662H825.624V91.5442Z" fill="white"/>
<path d="M961.365 4.19531H1003.24V203.408H961.365V4.19531Z" fill="white"/>
<path d="M1071.25 43.1813H1028.5V4.31055H1155.87V43.1813H1113.12V203.523H1071.25V43.1813Z" fill="white"/>
</g>
</svg>
