<svg width="80" height="79" viewBox="0 0 80 79" fill="none" xmlns="http://www.w3.org/2000/svg">
<path d="M9.03267 57.9917C9.3016 58.4196 9.16714 58.9819 8.72706 59.2508C8.29922 59.5075 7.70023 59.3853 7.4313 58.9574C7.16236 58.5296 7.29683 57.9673 7.7369 57.6984C8.1892 57.4294 8.76374 57.5639 9.03267 57.9917ZM19.0565 66.8665L16.0494 70.3382L15.5482 69.9226L18.1642 66.9032L15.9883 65.1185L13.3723 68.1379L12.8711 67.7222L15.8782 64.2505L19.0565 66.8665ZM20.4501 67.8078L23.6284 69.6781L23.3106 70.1915L20.7068 68.6513L19.9978 69.7881L22.4426 71.2306L22.1248 71.744L19.68 70.3015L18.9221 71.524L21.5625 73.0887L21.2447 73.6021L18.0297 71.7073L20.4501 67.8078ZM23.7629 74.7878L23.1516 74.5433L24.9608 70.3504L26.9534 71.1572C28.0169 71.5851 28.3714 72.1963 28.0047 73.0398C27.6379 73.8955 26.9412 74.0544 25.8776 73.6265L24.5085 73.0642L23.7629 74.7878ZM24.7163 72.563L25.8532 73.0275C26.6844 73.3698 27.149 73.3331 27.3812 72.7953C27.6379 72.2085 27.3323 71.8785 26.5378 71.5484L25.3642 71.0717L24.7163 72.563ZM29.8872 72.2085L33.4933 73.0887L33.3466 73.6632L30.3884 72.9297L30.0583 74.2133L32.8332 74.8978L32.6865 75.4724L29.9116 74.7878L29.5449 76.1814L32.5521 76.9148L32.4054 77.4894L28.7626 76.597L29.8872 72.2085ZM34.948 73.3454L37.5273 73.5776C38.4441 73.6632 38.9087 74.1277 38.8353 74.8489C38.7864 75.3257 38.5053 75.6313 38.0041 75.778C38.5786 75.9369 38.8475 76.3403 38.7987 76.9271C38.7131 77.8317 38.1385 78.1984 37.0384 78.1006L34.5079 77.8683L34.948 73.3454ZM35.2292 77.3427L36.9406 77.5016C37.6862 77.575 38.0652 77.4283 38.1141 76.9271C38.163 76.3892 37.8696 76.1325 37.1728 76.0714L35.3636 75.9125L35.2292 77.3427ZM35.4248 75.3012L37.075 75.4479C37.784 75.5091 38.1141 75.399 38.163 74.8856C38.2119 74.4211 37.943 74.2133 37.3317 74.1522L35.5348 73.9932L35.4248 75.3012ZM41.6224 78.2106L40.9623 78.2228L40.8523 73.6754L41.5124 73.6632L41.6224 78.2106ZM44.7641 78.0028L44.1162 78.0884L43.4683 73.5898L45.5953 73.2965C46.7322 73.1376 47.3556 73.4921 47.4901 74.3966C47.6245 75.3135 47.1111 75.8024 45.9743 75.9491L44.5074 76.1569L44.7641 78.0028ZM44.4218 75.6191L45.6442 75.4479C46.5366 75.3257 46.9155 75.069 46.8422 74.4944C46.7566 73.8588 46.3288 73.7365 45.4609 73.8466L44.2018 74.0177L44.4218 75.6191ZM48.6636 72.7586L52.2208 71.7318L52.392 72.3063L49.4704 73.1498L49.8616 74.4211L52.612 73.6265L52.7832 74.2011L50.0327 74.9956L50.4483 76.377L53.4188 75.5213L53.59 76.0958L49.9838 77.1349L48.6636 72.7586ZM54.9957 72.5752L57.5628 71.3895L56.7683 69.7637L57.3672 69.4825L59.372 73.5898L58.773 73.871L57.8318 71.9273L55.2647 73.1253L56.2182 75.069L55.6192 75.3501L53.6144 71.2428L54.2134 70.9616L54.9957 72.5752ZM60.6067 67.2944C61.9024 66.402 63.2471 66.6343 64.1028 67.8078C64.9585 68.9935 64.7384 70.3015 63.4305 71.2061C62.1347 72.0985 60.79 71.8662 59.9343 70.6927C59.0786 69.507 59.2987 68.1867 60.6067 67.2944ZM63.076 70.7049C64.0417 70.0326 64.2006 69.1036 63.5405 68.199C62.8804 67.2822 61.9269 67.1232 60.9612 67.7956C59.9954 68.4679 59.8365 69.397 60.4966 70.3015C61.1568 71.2061 62.1102 71.3773 63.076 70.7049ZM65.1296 66.0475L63.9805 64.8251L64.5429 64.3117L65.7042 65.5341L66.7799 66.9521L66.4987 67.2088L65.1296 66.0475ZM66.6088 67.6244L67.1711 67.111L67.6967 67.6733L67.1344 68.1745L66.6088 67.6244ZM71.6207 57.8939C71.8896 57.4783 72.4642 57.3316 72.9042 57.6006C73.3321 57.8573 73.4788 58.4318 73.2098 58.8597C72.9409 59.2875 72.3664 59.4097 71.9263 59.153C71.4862 58.8963 71.3518 58.3218 71.6207 57.8939Z" fill="#586386"/>
<path d="M0.440072 44.6184L1.44246 44.4106L1.94365 46.8432L5.81873 46.0731L6.06321 47.2589L1.18575 48.2368L0.440072 44.6184ZM5.0486 40.3277L5.13417 41.5379L0.171139 41.8557L0.0855696 40.6455L5.0486 40.3277ZM0.488969 32.5653L5.43978 33.0421L5.31754 34.2523L1.38134 33.8733L1.13685 36.1959L5.07305 36.5749L4.95081 37.7851L0 37.3083L0.488969 32.5653ZM5.40311 24.5462C6.89446 25.0352 7.5179 26.4166 6.93113 28.1035C6.34437 29.7904 4.99971 30.5361 3.49613 30.0471C2.00477 29.5582 1.38134 28.1768 1.9681 26.4777C2.55486 24.803 3.91175 24.0573 5.40311 24.5462ZM3.9362 28.788C4.87746 29.0937 5.64759 28.7025 5.96542 27.7857C6.28325 26.8688 5.9043 26.1109 4.96303 25.8053C4.02177 25.4997 3.25164 25.8787 2.94604 26.7955C2.62821 27.7245 2.99493 28.4824 3.9362 28.788ZM5.30531 19.571L5.91652 18.5686L11.3563 19.1309L10.6473 20.2922L9.51044 20.1455L8.38582 21.9914L9.07037 22.8837L8.38582 24.0084L5.30531 19.571ZM8.41026 20.0233L6.74777 19.8277L7.73793 21.1357L8.41026 20.0233ZM12.701 10.3661L16.3071 13.6911L15.4514 14.5713L12.5787 11.9309L11.0751 13.4833L12.4932 14.7913C13.4222 15.647 13.7767 16.4783 12.9699 17.3095C12.7743 17.5051 12.5787 17.6762 12.3954 17.7985L11.6252 17.0895C11.6864 17.0528 11.7964 16.9672 11.9064 16.8572C12.2976 16.4538 12.1998 16.1849 11.3685 15.427L9.486 13.6911L12.701 10.3661ZM19.1309 5.64758L19.7054 6.46662L17.1017 8.2269L17.5662 8.88702L19.8888 7.32232L20.4634 8.14134L18.1407 9.70604L18.752 10.574L21.3557 8.81367L21.9425 9.63269L18.2997 12.0898L15.4759 8.10467L19.1309 5.64758ZM22.1014 4.04621L24.8152 2.90937C25.8909 2.45707 26.7466 2.78713 27.1622 3.71617C27.5778 4.65744 27.2233 5.51313 26.1598 5.96543L24.5951 6.61331L25.2063 8.00687L24.0573 8.48361L22.1014 4.04621ZM24.1917 5.70871L25.243 5.26864C25.952 4.97526 26.2332 4.71856 26.0254 4.22959C25.8053 3.71617 25.4631 3.7284 24.7907 4.02178L23.6661 4.49852L24.1917 5.70871ZM33.2499 0.537869L33.4699 1.50357L30.9762 2.04144L31.8197 5.80651L30.5972 6.06322L29.5337 1.33244L33.2499 0.537869ZM40.7067 0L40.7433 0.990159L37.5773 1.10019L37.6017 1.90698L40.4255 1.80918L40.4622 2.79936L37.6384 2.89713L37.6751 3.94842L40.8411 3.83841L40.8778 4.82856L36.4649 4.98748L36.3059 0.158921L40.7067 0ZM45.0952 2.20036L47.4544 2.60377L47.7723 0.831257L48.9947 1.03907L48.139 5.81874L46.9166 5.61091L47.2833 3.59392L44.924 3.19052L44.5573 5.20753L43.3226 4.9997L44.1783 0.220046L45.413 0.427855L45.0952 2.20036ZM52.9309 4.11956L55.1435 4.9997L55.8402 3.32499L56.9893 3.77728L55.1068 8.26359L53.9577 7.81128L54.7523 5.91652L52.5397 5.03637L51.7451 6.93113L50.5961 6.46662L52.4786 1.98032L53.6277 2.43263L52.9309 4.11956ZM61.6712 6.44217L62.6614 7.10227L61.7323 12.3587L60.5955 11.6008L60.8155 10.5006L59.0063 9.30263L58.0406 9.91385L56.9282 9.1804L61.6712 6.44217ZM60.9866 9.42488L61.3045 7.82351L59.8987 8.70364L60.9866 9.42488ZM72.2941 16.5272L71.8907 16.8083L72.184 17.2117C72.8686 18.1285 73.3331 19.5221 72.1351 20.3778C71.0594 21.1357 69.9103 20.5978 69.0302 19.4243L68.749 19.0453L68.2601 19.3876L67.5266 18.4097L68.0156 18.0674L67.7222 17.6762C66.842 16.5027 66.6954 15.268 67.7589 14.5101C68.9691 13.6545 70.1793 14.5224 70.8516 15.4392L71.1572 15.8426L71.5606 15.5614L72.2941 16.5272ZM70.3993 16.356L70.1793 16.0626C69.7514 15.4759 69.0791 15.048 68.4801 15.4637C67.9178 15.8671 68.1256 16.6249 68.5657 17.2117L68.7735 17.4929L70.3993 16.356ZM69.5069 18.4953L69.727 18.7886C70.1548 19.3754 70.8271 19.8032 71.3895 19.4121C71.9884 18.9842 71.7806 18.2263 71.3528 17.6396L71.1328 17.3462L69.5069 18.4953ZM76.218 23.3727L76.6703 24.4484L72.9419 28.3602L72.4163 27.1133L73.2231 26.3187L72.3796 24.3506L71.2305 24.3384L70.7171 23.1282L76.218 23.3727ZM73.9688 25.5119L75.1301 24.3384L73.4676 24.3262L73.9688 25.5119ZM78.3328 29.3137L78.8829 32.1375C79.0907 33.2499 78.5895 34.0078 77.5627 34.1912C76.5236 34.3867 75.7535 33.8733 75.5335 32.7487L75.2279 31.1229L73.6998 31.404L73.4676 30.2061L78.3328 29.3137ZM76.218 30.9395L76.4258 32.0397C76.5725 32.7854 76.7681 33.1032 77.306 33.0054C77.8683 32.9076 77.9294 32.5776 77.795 31.8686L77.5627 30.695L76.218 30.9395ZM79.4208 41.0856L78.3939 41.0734L78.4306 38.2129L77.5994 38.2007L77.5749 39.9365C77.5627 40.9634 76.9515 41.5501 75.9858 41.5501C75.0323 41.5379 74.4455 40.9511 74.4577 39.9243L74.4944 36.9661L79.4697 37.0149L79.4208 41.0856ZM75.4968 38.1885L75.4846 39.4965C75.4724 40.0954 75.5824 40.3277 76.0347 40.3399C76.487 40.3522 76.5603 40.0588 76.5603 39.4476L76.5725 38.2129L75.4968 38.1885ZM78.6506 46.3909L78.3939 47.5278L73.052 48.6646L73.3453 47.3444L74.47 47.1244L74.9345 45.034L74.0054 44.3984L74.2866 43.1271L78.6506 46.3909ZM75.5579 46.9043L77.196 46.5865L75.8391 45.6575L75.5579 46.9043Z" fill="#586386"/>
<path fill-rule="evenodd" clip-rule="evenodd" d="M31.5992 67.869C41.2563 70.0082 48.4931 68.4068 54.7396 64.7029C61.4263 60.7423 67.8807 53.4933 69.0664 42.1737C70.0932 32.3576 66.1815 24.1552 60.2772 18.2875C57.3312 15.3659 53.6517 12.7377 48.8476 11.1975C44.0312 9.65722 38.3469 9.30272 33.5795 10.2807C25.2304 11.9798 17.9203 17.5052 13.7274 24.9742C8.60542 34.1057 9.22885 45.8654 13.1528 52.662C14.8031 51.6352 15.9644 50.9017 17.4558 49.8871C15.2921 45.3519 14.4975 40.1078 15.4877 34.7902C17.9936 21.4658 30.8291 12.6888 44.1657 15.1948C57.4901 17.7008 66.2548 30.5362 63.7489 43.8606C61.7441 54.5323 52.8327 62.1114 42.9922 63.566L44.5202 61.8547C44.5202 61.8424 44.5324 61.8424 44.5324 61.8424L44.5813 61.7935C47.1606 58.9453 49.4221 55.1313 50.5712 50.6939C52.2214 44.3251 50.7668 38.4697 48.4075 33.7756C45.9015 28.7759 41.5008 24.8153 35.1564 22.3337C35.2664 23.5439 35.8777 24.6441 36.0855 25.9521C36.2933 27.2479 36.3422 28.7881 35.7676 30.4262C34.8875 32.9688 33.2128 35.0103 32.3815 37.724C29.8878 45.8898 32.3082 52.0019 36.0488 57.1728C38.2614 54.8135 40.315 51.8675 41.4763 48.2124C43.3589 42.2715 42.0142 36.9295 40.914 32.8955C42.7966 34.8513 43.7134 37.4918 44.2146 40.2789C44.7035 42.9804 44.8747 46.3421 44.0312 49.496C42.601 54.8868 39.8505 58.8964 36.8556 62.1236L31.3547 67.7956L31.5992 67.869Z" fill="#586386"/>
</svg>
