<svg width="70" height="79" viewBox="0 0 70 79" fill="none" xmlns="http://www.w3.org/2000/svg">
<path d="M3.69943 51.1694L3.92274 51.0438C4.04836 50.974 4.21584 51.0438 4.29958 51.1973L5.79298 53.7515L6.47688 53.3467L5.19283 51.1415C5.10909 50.988 5.137 50.8066 5.24866 50.7368L5.47197 50.6112C5.59759 50.5414 5.76507 50.6112 5.86277 50.7507L7.14681 52.9559L7.84466 52.5512L6.35126 49.997C6.26752 49.8435 6.29544 49.676 6.40709 49.5923L6.6304 49.4527C6.75602 49.3829 6.9235 49.4388 7.0212 49.6063L9.0031 52.9838C9.08684 53.1374 9.05892 53.3188 8.93331 53.3886L6.00234 55.1053C5.87673 55.1751 5.70924 55.1053 5.6255 54.9518L3.6436 51.5602C3.55986 51.4207 3.57382 51.2532 3.69943 51.1694Z" fill="#586386"/>
<path d="M6.08693 47.5265C6.14275 47.694 6.07297 47.8615 5.94736 47.9173L2.73724 48.992C2.59767 49.0339 2.44415 48.9362 2.38832 48.7687L2.19292 48.1546C2.13709 47.9871 2.20688 47.8196 2.33249 47.7638L3.57466 47.3451L3.3374 46.6472C3.21178 46.2704 2.97451 46.0471 2.51393 45.9075L1.63464 45.6423C1.42529 45.5725 1.28572 45.419 1.22989 45.2655L0.978661 44.5118C0.922833 44.3443 1.02053 44.2745 1.18802 44.3303L2.44415 44.6932C2.73724 44.777 3.05826 44.9165 3.29552 45.3353C3.2397 45.0003 3.44905 44.5676 3.61654 44.3024L4.37021 43.158C4.46791 43.0044 4.59353 43.0184 4.64935 43.1859L4.90058 43.9256C4.95641 44.0931 4.9285 44.3443 4.8308 44.4978L4.30043 45.3073C4.06316 45.6563 3.93755 45.9773 4.07712 46.396L4.30043 47.0938L5.55656 46.6751C5.68217 46.6333 5.8357 46.731 5.89153 46.8984L6.08693 47.5265Z" fill="#586386"/>
<path d="M2.30441 40.9946C3.14183 40.8969 3.54659 40.4363 3.43493 39.4035C3.32328 38.3567 2.82082 38.0078 1.9834 38.0915C1.14598 38.1892 0.741229 38.6498 0.852885 39.6826C0.964541 40.7294 1.46699 41.0923 2.30441 40.9946ZM0.113164 39.7803C-0.0822338 38.0497 0.392304 36.9889 1.82988 36.8354C3.26745 36.6819 3.9653 37.603 4.1607 39.3337C4.35609 41.0644 3.88156 42.1251 2.44398 42.2786C1.00641 42.4322 0.308562 41.511 0.113164 39.7803Z" fill="#586386"/>
<path d="M4.28588 30.555L4.21609 31.197C4.20214 31.3645 4.07652 31.5041 3.923 31.4901L1.06181 31.1831L0.978067 32.0065C0.936196 32.4392 1.10368 32.816 1.42469 32.9556L3.65781 33.9884C3.79738 34.0582 3.88112 34.2396 3.86717 34.4211L3.79738 35.105C3.78343 35.2585 3.65781 35.3562 3.54616 35.3004L1.0339 34.1559C0.210432 33.7791 0.112733 32.7742 0.224389 31.7972L0.40583 30.1084C0.419787 29.9548 0.559357 29.8432 0.68497 29.8571L4.06257 30.22C4.21609 30.234 4.31379 30.3875 4.28588 30.555Z" fill="#586386"/>
<path d="M3.21207 26.7583C4.00762 27.0235 4.57985 26.7862 4.91482 25.7952C5.24979 24.8043 4.94274 24.26 4.14719 23.9948C3.35164 23.7296 2.7794 23.9669 2.44443 24.9578C2.10947 25.9488 2.41652 26.4791 3.21207 26.7583ZM1.74658 24.7205C2.30486 23.0736 3.18415 22.3199 4.5659 22.7805C5.93368 23.2411 6.17095 24.3856 5.61267 26.0325C5.05439 27.6794 4.1751 28.4471 2.79336 27.9725C1.42557 27.498 1.1883 26.3675 1.74658 24.7205Z" fill="#586386"/>
<path d="M4.0638 20.0447C3.93818 19.9749 3.91027 19.7935 4.00797 19.6399L5.66885 16.7927C5.76655 16.6392 5.92008 16.5694 6.04569 16.6392L6.269 16.7648C6.39462 16.8346 6.42253 17.016 6.32483 17.1695L5.15244 19.1794L7.63679 20.6448C7.7624 20.7146 7.77636 20.8961 7.69262 21.0496L7.37161 21.6079C7.28786 21.7614 7.12038 21.8312 6.99477 21.7614L4.0638 20.0447Z" fill="#586386"/>
<path d="M7.39917 14.8953C7.28752 14.8115 7.28752 14.6161 7.39917 14.4905L7.80392 13.9881C7.91558 13.8485 8.09702 13.8066 8.20868 13.8904L10.8605 16.0118C10.9722 16.0956 10.9722 16.291 10.8605 16.4306L10.4697 16.919C10.3581 17.0586 10.1766 17.1005 10.0789 17.0167L7.39917 14.8953Z" fill="#586386"/>
<path d="M9.75706 12.0336C9.65936 11.922 9.68727 11.7405 9.82684 11.6149L10.3014 11.1962C10.441 11.0706 10.6224 11.0566 10.7201 11.1683L11.3342 11.8522C11.6273 12.1732 11.9902 12.1453 12.381 11.7964L13.358 10.9171L12.2972 9.75863C12.1995 9.64697 12.2275 9.46553 12.367 9.35388L12.8416 8.93517C12.9811 8.80955 13.1626 8.7956 13.2603 8.90725L15.5353 11.4195C15.633 11.5172 15.5911 11.7126 15.4655 11.8243L14.9909 12.243C14.8653 12.3546 14.6839 12.3825 14.5862 12.2709L13.8744 11.4893L12.8974 12.3686C11.9902 13.1921 11.0411 13.4572 10.3712 12.7175L9.75706 12.0336Z" fill="#586386"/>
<path d="M19.6118 7.17697L17.5741 8.3354L18.2719 9.54966C18.3417 9.67527 18.2719 9.84275 18.1184 9.9265L17.5601 10.2475C17.4066 10.3312 17.2251 10.3033 17.1554 10.1917L15.4666 7.23279C15.3968 7.10718 15.4666 6.9397 15.6201 6.842L16.1784 6.53494C16.3319 6.4512 16.5133 6.46516 16.5831 6.59077L17.1972 7.6515L19.235 6.49307L18.6209 5.43234C18.5511 5.30673 18.6209 5.13924 18.7744 5.0555L19.3327 4.74845C19.4862 4.65075 19.6676 4.67866 19.7514 4.80427L21.4402 7.7492C21.51 7.87482 21.4402 8.0423 21.2866 8.14L20.7423 8.46101C20.5888 8.54475 20.4073 8.51684 20.3376 8.40518L19.6118 7.17697Z" fill="#586386"/>
<path d="M27.204 6.01781C27.0365 6.07364 26.8551 6.00385 26.8272 5.86428L26.0875 3.44972L25.1244 6.38069C25.0686 6.54818 24.9011 6.71566 24.7197 6.77149L23.645 7.10646C23.4775 7.16229 23.2961 7.0925 23.2681 6.95293L22.2772 3.70095C22.2353 3.56138 22.333 3.42181 22.5145 3.36598L23.0867 3.18454C23.2542 3.12871 23.4217 3.1985 23.4635 3.33807L24.2591 5.94803L25.3198 2.77978C25.3757 2.62626 25.5292 2.44482 25.6967 2.40295L26.6597 2.10985C26.8272 2.05402 26.9947 2.12381 27.0365 2.26338L28.0275 5.51536C28.0694 5.65493 27.9577 5.80846 27.7902 5.85033L27.204 6.01781Z" fill="#586386"/>
<path d="M32.5641 0.184058C32.606 0.100316 32.6758 0.030531 32.7874 0.030531L33.0666 0.00261694C33.1922 -0.0113401 33.262 0.030531 33.262 0.12823C33.2899 0.630682 32.8572 0.96565 32.1733 1.00752C31.4894 1.06335 31.0149 0.784209 30.973 0.281757C30.973 0.184058 31.0289 0.142187 31.1545 0.12823L31.4336 0.114273C31.5453 0.114273 31.629 0.156144 31.6848 0.239886C31.7546 0.351542 31.8942 0.421327 32.1315 0.40737C32.3827 0.393413 32.5083 0.309671 32.5641 0.184058ZM34.0436 5.11088C33.8621 5.12484 33.7226 5.01318 33.7086 4.87361L33.5272 2.34739L31.9361 4.99923C31.8523 5.1388 31.643 5.27837 31.4615 5.29232L30.331 5.37606C30.1496 5.39002 29.996 5.27837 29.996 5.1388L29.7588 1.7612C29.7448 1.60767 29.8844 1.49602 30.0658 1.48206L30.666 1.44019C30.8335 1.42623 30.987 1.52393 31.0009 1.6635L31.1963 4.38512L32.941 1.53789C33.0247 1.39832 33.2201 1.25875 33.3876 1.24479L34.3925 1.17501C34.56 1.16105 34.7135 1.2727 34.7275 1.41227L34.9647 4.78987C34.9787 4.92944 34.8391 5.05505 34.6577 5.06901L34.0436 5.11088Z" fill="#586386"/>
<path d="M43.6993 2.40343L44.439 2.59883C45.3462 2.85005 46.2255 3.50603 46.0162 4.27367C45.9464 4.51094 45.6812 4.49698 45.5975 4.46907L45.1927 4.35741C45.0113 4.30158 44.8717 4.18993 44.8019 3.9387C44.7182 3.6456 44.5088 3.40833 44.1041 3.29668L43.5179 3.14315C42.5409 2.87797 42.2059 3.08732 41.9687 3.96661C41.7314 4.84591 41.9128 5.19483 42.8898 5.46002L43.5458 5.64146C43.9505 5.75311 44.2436 5.65541 44.467 5.44606C44.6484 5.26462 44.8298 5.2367 45.0113 5.27857L45.4021 5.39023C45.4858 5.41814 45.7231 5.5298 45.6673 5.76707C45.4579 6.5347 44.3693 6.66032 43.4621 6.40909L42.6665 6.18578C41.0614 5.75311 40.3915 4.92965 40.7404 3.61769C41.0894 2.33364 42.0803 1.95681 43.6993 2.40343Z" fill="#586386"/>
<path d="M52.619 6.42316L52.5074 6.64647C52.4376 6.77208 52.2561 6.81396 52.1026 6.73021L49.4647 5.37638L49.1019 6.07423L51.3769 7.24662C51.5304 7.33036 51.6141 7.49785 51.5443 7.62346L51.4327 7.84677C51.3629 7.97239 51.1815 8.0003 51.0279 7.93052L48.7529 6.75813L48.3901 7.46993L51.014 8.82376C51.1675 8.90751 51.2373 9.06103 51.1815 9.18665L51.0558 9.42392C50.9861 9.54953 50.8186 9.5914 50.6511 9.50766L47.1758 7.7072C47.0083 7.62346 46.9385 7.45598 47.0083 7.33036L48.5575 4.31565C48.6273 4.19004 48.8088 4.16212 48.9623 4.24587L52.4515 6.04632C52.6051 6.13006 52.6749 6.29755 52.619 6.42316Z" fill="#586386"/>
<path d="M55.2866 8.96324L54.3375 10.1217L55.3006 10.9033C55.817 11.322 56.2776 11.5592 56.6823 11.0568C57.0871 10.5683 56.7661 10.1635 56.2497 9.74484L55.2866 8.96324ZM57.0313 9.39591C58.0362 10.2194 58.3293 11.0568 57.6733 11.8663C57.0033 12.6758 56.124 12.5642 55.1191 11.7407L53.8491 10.7218L53.4583 11.1964C53.3745 11.308 53.1931 11.308 53.0535 11.1964L52.5511 10.7916C52.4115 10.68 52.3696 10.4985 52.4673 10.3869L54.6027 7.76294C54.7004 7.65129 54.8679 7.65129 55.0075 7.76294L57.0313 9.39591Z" fill="#586386"/>
<path d="M62.962 15.7323C63.0737 15.8718 63.0737 16.0533 62.962 16.137L62.7666 16.3045C62.655 16.4022 62.4735 16.3603 62.3619 16.2208L61.3988 15.0484L59.1657 16.8628C59.0541 16.9465 58.8726 16.9047 58.761 16.7791L58.3562 16.2766C58.2445 16.137 58.2445 15.9556 58.3562 15.8718L60.5893 14.0574L59.6263 12.8711C59.5146 12.7315 59.5146 12.5501 59.6263 12.4663L59.8217 12.2989C59.9333 12.2012 60.1148 12.243 60.2264 12.3826L62.962 15.7323Z" fill="#586386"/>
<path d="M62.8219 23.3528C62.7382 23.1993 62.7801 23.0179 62.9057 22.9481L65.1667 21.8036L62.1101 21.3709C61.9426 21.343 61.7472 21.2034 61.6635 21.0499L61.1471 20.045C61.0633 19.8775 61.1052 19.71 61.2308 19.6403L64.2595 18.105C64.3851 18.0352 64.5526 18.105 64.6363 18.2725L64.9155 18.8028C64.9992 18.9564 64.9713 19.1378 64.8457 19.2076L62.4172 20.4498L65.725 20.9383C65.8925 20.9662 66.0879 21.0918 66.1716 21.2314L66.6322 22.1246C66.7159 22.2781 66.6741 22.4596 66.5484 22.5154L63.5198 24.0507C63.3942 24.1065 63.2267 24.0367 63.1429 23.8832L62.8219 23.3528Z" fill="#586386"/>
<path d="M65.809 29.0611C65.9905 29.8147 66.3673 30.2614 66.9535 30.1078C67.5397 29.9683 67.6793 29.41 67.4978 28.6563L65.809 29.0611ZM67.2047 27.4839C67.0233 26.7302 66.6464 26.2976 66.0603 26.4371C65.4741 26.5767 65.3345 27.135 65.5159 27.8887L67.2047 27.4839ZM68.6423 28.0841C68.6842 28.2655 68.6144 28.433 68.4609 28.4609L68.1957 28.5167C68.5306 29.9124 68.3771 31.0848 67.2326 31.364C66.0882 31.6431 65.4182 30.6661 65.0833 29.2704L64.8181 29.3402C64.6785 29.3681 64.5389 29.2564 64.4971 29.089L64.3575 28.4749C64.3156 28.2934 64.3994 28.1259 64.5389 28.098L64.8041 28.0422C64.4692 26.6465 64.6227 25.4741 65.7672 25.195C66.9116 24.9158 67.5816 25.8928 67.9165 27.2885L68.1817 27.2327C68.3213 27.1908 68.4609 27.3164 68.5027 27.4839L68.6423 28.0841Z" fill="#586386"/>
<path d="M69.0057 33.3179C69.1453 33.3039 69.2709 33.4435 69.2848 33.6249L69.3267 34.2669C69.3407 34.4484 69.229 34.6019 69.0894 34.6159L65.6979 34.8113C65.5583 34.8252 65.4327 34.6717 65.4187 34.4902L65.3908 33.8622C65.3769 33.6807 65.4885 33.5272 65.6281 33.5272L69.0057 33.3179Z" fill="#586386"/>
<path d="M65.4886 37.1838C65.5026 37.0024 65.6421 36.8767 65.7817 36.8907L69.1453 37.2396C69.2849 37.2536 69.3966 37.4071 69.3686 37.5886L69.2989 38.2306C69.2849 38.3981 69.1453 38.5376 69.0058 38.5237L67.7078 38.3841L67.638 39.1099C67.5961 39.5007 67.7217 39.8077 68.0846 40.1148L68.7824 40.7149C68.9499 40.8545 69.0058 41.0499 68.9918 41.2313L68.9081 42.0129C68.8941 42.1944 68.7824 42.2083 68.6429 42.0827L67.6519 41.2313C67.4147 41.0359 67.1774 40.7708 67.1495 40.2962C67.0657 40.6312 66.6889 40.9382 66.4237 41.1057L65.2513 41.8454C65.0978 41.9431 64.9861 41.8734 65.0141 41.6919L65.0978 40.9103C65.1118 40.7428 65.2513 40.5195 65.4049 40.4218L66.2283 39.9054C66.5772 39.6821 66.8424 39.4448 66.8843 39.0122L66.9541 38.2864L65.6421 38.1468C65.5026 38.1329 65.4049 37.9794 65.4188 37.7979L65.4886 37.1838Z" fill="#586386"/>
<path d="M65.8364 45.1953L65.1525 47.247L66.5064 47.6936L66.8134 46.7724C66.953 46.3537 66.8692 45.949 66.5762 45.7396L65.8364 45.1953ZM67.2042 44.6649C67.93 45.2093 67.8044 46.2002 67.4973 47.1493L66.9251 48.8939C66.8692 49.0474 66.7157 49.1312 66.5901 49.0893L63.366 48.0146C63.2265 47.9727 63.1706 47.7913 63.2265 47.6238L63.4358 47.0097C63.4917 46.8422 63.6452 46.7445 63.7847 46.7864L64.4268 47.0097L65.1944 44.7068L64.6082 44.2741C64.4826 44.1764 64.4268 43.981 64.4966 43.8136L64.7059 43.1715C64.7617 43.004 64.9013 42.9343 65.013 43.032L67.2042 44.6649Z" fill="#586386"/>
<path d="M63.5057 55.3285C63.408 55.482 63.2405 55.5518 63.1289 55.4681L62.9056 55.3425C62.78 55.2727 62.752 55.0912 62.8497 54.9377L63.6174 53.6258L61.133 52.1603C61.0074 52.0905 60.9935 51.9091 61.0772 51.7555L61.3982 51.1972C61.4819 51.0437 61.6634 50.9739 61.775 51.0437L64.2594 52.5092L65.027 51.1972C65.1108 51.0437 65.2783 50.9739 65.4039 51.0577L65.6272 51.1833C65.7528 51.2531 65.7807 51.4345 65.683 51.588L63.5057 55.3285Z" fill="#586386"/>
<path d="M18.4391 62.2511L18.9276 62.5442C19.5277 62.9211 19.9883 63.6329 19.6115 64.247C19.4859 64.4424 19.3044 64.3865 19.2486 64.3447L18.9974 64.1911C18.8718 64.1214 18.802 63.9957 18.8299 63.7724C18.8578 63.5073 18.7601 63.27 18.4949 63.1025L18.1041 62.8652C17.4621 62.4744 17.1411 62.6 16.7084 63.2979C16.2757 64.0097 16.3037 64.3447 16.9457 64.7355L17.3784 65.0007C17.6435 65.1681 17.8948 65.1402 18.1181 65.0007C18.3135 64.875 18.453 64.875 18.5787 64.9588L18.8438 65.1123C18.8997 65.1542 19.0392 65.2937 18.9276 65.4891C18.5507 66.1033 17.7133 66.0195 17.0992 65.6566L16.5688 65.3356C15.5081 64.6796 15.2569 63.8701 15.8989 62.8094C16.5409 61.7347 17.3783 61.5951 18.4391 62.2511Z" fill="#586386"/>
<path d="M20.4205 65.4192C20.1134 66.117 20.2251 66.6335 20.9369 66.9545C21.6487 67.2755 22.1093 67.0103 22.4164 66.3124C22.7234 65.6146 22.6118 65.0982 21.8999 64.7772C21.1881 64.4562 20.7276 64.7074 20.4205 65.4192ZM22.1791 64.1491C23.3794 64.6795 23.84 65.475 23.3096 66.6893C22.7792 67.9035 21.872 68.085 20.6717 67.5686C19.4714 67.0382 19.0108 66.2427 19.5412 65.0284C20.0855 63.8141 20.9788 63.6187 22.1791 64.1491Z" fill="#586386"/>
<path d="M24.1063 68.0154C24.2459 68.0572 24.3576 68.141 24.5111 68.1828L24.553 68.1968C24.874 68.2945 25.1671 68.1549 25.4043 67.7781L25.195 67.7223C24.3436 67.471 24.0645 67.0104 23.9528 66.2149L23.8272 65.2379C23.8132 65.0983 23.9109 65.0146 24.0366 65.0565L24.553 65.21C24.7065 65.2519 24.8042 65.3914 24.8181 65.517L24.9019 66.2707C24.9438 66.6755 25.1112 66.9546 25.5439 67.0802L25.837 67.164L26.6326 66.0614C26.7303 65.9358 26.8838 65.8939 27.0094 65.9358L27.5118 66.0893C27.6375 66.1312 27.6793 66.2428 27.5956 66.3545L26.1301 68.3503C25.7533 68.8667 25.2508 69.1459 24.3994 68.8946L23.8132 68.7132C23.6876 68.6713 23.6178 68.5457 23.6458 68.4201L23.7295 68.1549C23.7714 68.0293 23.897 67.9595 24.0226 68.0014L24.1063 68.0154Z" fill="#586386"/>
<path d="M30.121 68.3506C30.0372 69.1182 30.3024 69.5648 31.084 69.6486C31.8656 69.7323 32.2145 69.3415 32.2983 68.5739C32.382 67.8202 32.1168 67.3596 31.3352 67.2759C30.5536 67.2061 30.2047 67.5969 30.121 68.3506ZM31.405 66.6199C32.703 66.7595 33.3869 67.3736 33.2613 68.6855C33.1217 70.0114 32.3262 70.4581 31.0282 70.3325C29.7302 70.1929 29.0323 69.5788 29.1719 68.2668C29.3115 66.9409 30.107 66.4803 31.405 66.6199Z" fill="#586386"/>
<path d="M37.2246 67.0523V67.2895C37.2246 67.4291 37.1129 67.5268 36.9873 67.5268L34.7403 67.5687L34.7542 68.2944L36.6942 68.2526C36.8198 68.2526 36.9455 68.3503 36.9455 68.4759V68.7131C36.9455 68.8387 36.8338 68.9504 36.7082 68.9504L34.7682 68.9923L34.7821 69.732L37.0292 69.6762C37.1548 69.6762 37.2665 69.7739 37.2665 69.8995V70.1367C37.2665 70.2624 37.1688 70.374 37.0292 70.374L34.0564 70.4438C33.9168 70.4438 33.8051 70.3461 33.8051 70.2065L33.7354 67.1081C33.7354 66.9825 33.833 66.8708 33.9726 66.8708L36.9594 66.801C37.1129 66.815 37.2246 66.9127 37.2246 67.0523Z" fill="#586386"/>
<path d="M40.2257 69.9972C40.1001 70.0251 39.9466 69.9413 39.8768 69.8297L38.5788 67.5686L38.9836 69.9693C39.0115 70.0949 38.9138 70.2205 38.7882 70.2484L38.3276 70.3182C38.188 70.3461 38.0624 70.2624 38.0484 70.1228L37.532 67.0662C37.5181 66.9406 37.5879 66.815 37.7274 66.7871L38.7602 66.6056C38.8998 66.5777 39.0394 66.6614 39.1092 66.7871L40.2118 68.7689L40.6165 66.5358C40.6444 66.4102 40.7561 66.2706 40.8817 66.2567L41.9285 66.0752C42.0541 66.0613 42.1797 66.145 42.2076 66.2706L42.724 69.3272C42.7519 69.4528 42.6542 69.5785 42.5147 69.6064L42.0541 69.6762C41.9145 69.7041 41.7889 69.6203 41.775 69.4808L41.3702 67.0802L40.8677 69.6482C40.8398 69.7739 40.7282 69.8995 40.5886 69.9274L40.2257 69.9972Z" fill="#586386"/>
<path d="M45.6407 66.7872C45.9477 67.5688 46.4362 67.6665 46.9387 67.4711C47.4411 67.2757 47.7482 66.8849 47.4411 66.0893C47.1341 65.3077 46.6456 65.2101 46.1431 65.4054C45.6407 65.6008 45.3336 66.0056 45.6407 66.7872ZM45.9617 64.7216C46.9107 64.3447 47.8319 64.4564 48.3344 65.7404C48.8368 67.0245 48.2227 67.7223 47.2736 68.0852L47.1061 68.155C46.1571 68.5179 45.2359 68.4202 44.7334 67.1361C44.231 65.8521 44.8451 65.1542 45.7942 64.7913L45.9617 64.7216Z" fill="#586386"/>
<path d="M48.935 63.3952C49.0606 63.3394 49.2002 63.3813 49.256 63.4929L50.6517 66.2704C50.7075 66.382 50.6657 66.5356 50.54 66.5914L50.1213 66.8007C49.9957 66.8566 49.8561 66.8147 49.8003 66.703L48.7117 64.5537L48.5442 64.8747C48.5023 64.9445 48.4046 64.9724 48.3209 64.9445L48.0417 64.8188C47.9301 64.763 47.958 64.6793 47.9859 64.5955L48.3069 63.8419C48.3627 63.7162 48.4744 63.6325 48.5861 63.5627L48.935 63.3952Z" fill="#586386"/>
<path d="M52.4654 63.0745L52.3119 62.8093C52.0885 62.4464 51.8652 62.4743 51.5163 62.6837L51.1953 62.8791C50.8464 63.0884 50.7347 63.2838 50.9022 63.549C51.0697 63.8281 51.293 63.7863 51.6419 63.5769L52.4654 63.0745ZM51.9211 64.2468C51.1255 64.7353 50.5114 64.7912 50.0648 64.0794C49.6321 63.3676 49.9392 62.8372 50.7347 62.3487L51.2092 62.0556C51.9908 61.5671 52.6189 61.5113 53.1074 62.3208L53.6936 63.2559C54.224 64.0933 53.9029 64.6376 53.1214 65.1261L52.591 65.4611C51.949 65.8659 51.2511 65.8519 50.9859 65.4332C50.8603 65.2378 50.9999 65.0982 51.0697 65.0564L51.3209 64.8889C51.4465 64.8191 51.5582 64.8191 51.7396 64.9028C51.8792 64.9726 52.0746 64.9447 52.2979 64.8051L52.7026 64.5539C53.0376 64.3445 53.1493 64.1491 52.898 63.7444L52.8422 63.6607L51.9211 64.2468Z" fill="#586386"/>
<path d="M14.6696 24.274C15.4931 21.8734 16.7353 19.5984 18.3961 17.5467C19.9872 15.5927 21.8156 14.0016 23.8115 12.7874C21.1317 14.1551 18.6892 16.1231 16.6236 18.6633C15.4931 20.059 14.544 21.5663 13.7764 23.1295L14.6696 24.274Z" fill="#586386"/>
<path d="M13.8617 27.2747C13.9176 26.9537 13.4709 26.8142 13.2197 26.3675C12.9545 25.879 12.8987 25.1114 12.815 25.3347C9.3955 34.4626 11.5728 45.2793 18.9421 52.0624C19.1096 52.2159 19.2073 52.2717 19.3887 52.4253C19.3887 52.4253 20.6169 51.7274 21.1473 51.3645C21.6777 51.0017 22.7105 50.234 22.7105 50.234C21.9568 49.7037 21.231 49.1314 20.5332 48.4894C14.6573 43.0741 12.3544 34.8674 13.8617 27.2747Z" fill="#586386"/>
<path d="M50.4424 45.0563C50.8332 45.154 51.3915 45.2796 51.866 45.3494C52.2568 45.4052 52.6755 45.4052 53.0105 45.3773C57.058 37.3939 56.4439 27.5821 51.4752 20.2407C55.8717 27.8054 55.6483 37.7009 50.4424 45.0563Z" fill="#586386"/>
<path d="M49.7993 47.9869C49.7993 47.9869 48.4734 47.4705 48.2222 47.7218C42.2207 53.9047 33.5952 55.5516 26.1422 52.1601C26.1422 52.1601 25.3048 52.8579 24.4953 53.5697C23.7137 54.2676 22.8623 54.9515 22.8623 54.9515C31.8506 60.1574 43.3233 58.1756 50.2739 49.592C50.7624 48.9918 51.2229 48.3638 51.6417 47.7218C51.7812 47.5124 49.7993 47.9869 49.7993 47.9869Z" fill="#586386"/>
<path d="M57.8819 44.4838C57.4073 45.1258 56.4582 46.5355 55.0067 47.652C53.5831 48.7546 50.5823 50.9738 46.3534 51.1971C44.4971 51.239 44.4552 51.0575 43.4643 50.9319C42.8781 50.8063 39.0538 49.941 35.0482 47.5264C32.8151 46.4378 30.6378 46.6611 30.1074 47.2333C29.3119 48.1126 28.6419 48.7546 28.2232 49.2292C26.5763 51.0157 17.6438 58.0919 16.1504 59.4178C16.3039 59.2084 17.2809 57.1847 17.6438 54.1281C22.1379 51.4483 25.4039 48.9082 27.8185 46.4936C28.0836 46.2424 28.4046 45.6283 28.1115 45.1398C27.7766 43.4091 26.4228 42.0413 24.2873 41.1899C20.1002 39.529 16.5412 37.3797 14.6709 34.3649C13.4846 32.5505 12.5355 30.6105 12.0052 28.3495C10.3443 21.3291 12.0749 18.3144 12.4518 17.5886C12.0191 20.8964 13.1915 23.2552 14.9082 25.0277C16.6389 26.8002 18.5789 27.9029 20.7841 28.8519C24.3152 30.3732 26.3669 32.8436 27.7068 35.6769C29.0467 38.5241 29.27 41.818 29.27 41.818C28.8652 40.7573 28.0976 38.901 27.2602 37.5471C26.3251 36.0258 24.1338 33.6531 21.8309 32.2295C19.7932 30.9734 17.9648 30.3453 16.597 29.2148C14.6012 27.5818 13.1217 25.3348 12.3262 23.2412C12.382 24.5253 13.5823 26.5351 14.1964 27.5539C16.5272 30.7222 17.9648 30.9315 21.1191 32.9972C23.743 34.7139 25.8366 37.1424 26.9112 38.7195C27.9859 40.2967 29.27 43.423 29.0467 45.2235C33.1221 40.5339 34.3922 36.0119 35.118 32.3691C36.2764 26.4792 36.8905 23.7576 38.356 21.692C39.0957 20.5754 39.5703 19.7799 40.6031 18.8866C41.1195 18.44 41.3428 18.1609 41.929 17.9236C42.3756 17.7421 43.4922 17.3793 45.0135 17.9375C47.0791 18.1329 50.2613 18.2725 53.0248 18.8308L49.1866 18.7889C47.8328 18.7889 45.5299 19.096 44.7762 19.1937C42.5012 19.3751 40.9241 20.6173 39.6819 22.5992C38.4118 24.5253 37.7279 27.0515 36.5695 32.9274C35.7042 38.7614 33.2198 43.1299 31.2937 45.7399C31.2937 45.7399 34.5457 43.8278 37.0161 44.0372C39.4865 44.2465 43.2549 45.7957 43.2549 45.7957C46.9954 47.5683 48.74 47.6381 50.1915 47.6799C51.6431 47.7218 53.625 47.0798 54.2949 46.7727C52.5503 47.3171 50.4149 47.5683 48.0142 47.01C45.502 46.4238 42.2779 44.4977 40.8403 43.9813C36.2624 42.4461 34.0712 43.4649 34.0712 43.4649C34.0712 43.4649 35.6204 42.2786 37.4069 41.6924C40.7706 40.6596 42.6268 41.7482 44.9158 43.0183C47.0931 44.2326 49.1169 45.2654 51.3918 45.6701C53.625 46.0888 55.5371 45.4747 57.8819 44.4838Z" fill="#586386"/>
<path d="M15.3389 77.8127C15.7995 77.8127 15.9949 77.5754 15.9949 77.0869V75.1609C15.9949 75.0352 16.1065 74.9236 16.2322 74.9236H16.6927C16.8184 74.9236 16.93 75.0213 16.93 75.1609V77.0869C16.93 77.9941 16.3996 78.5245 15.3529 78.5245H14.9062C13.8595 78.5245 13.3291 77.9941 13.3291 77.0869V75.1609C13.3291 75.0352 13.4408 74.9236 13.5664 74.9236H14.027C14.1526 74.9236 14.2642 75.0213 14.2642 75.1609V77.0869C14.2642 77.5754 14.4736 77.8127 14.9202 77.8127H15.3389Z" fill="#586386"/>
<path d="M18.5078 76.9336H20.0989V75.6356H19.3871C19.066 75.6356 18.8148 75.831 18.7311 76.138L18.5078 76.9336ZM17.8239 75.9008C18.0332 75.1192 18.745 74.9377 19.4848 74.9377H20.8246C20.9502 74.9377 21.034 75.0494 21.034 75.1611V78.2735C21.034 78.3991 20.9223 78.5107 20.7967 78.5107H20.3222C20.1966 78.5107 20.0849 78.413 20.0849 78.2735V77.6454H18.3124L18.1449 78.2735C18.103 78.3991 17.9774 78.5107 17.8518 78.5107H17.3633C17.2237 78.5107 17.1539 78.413 17.1818 78.2735L17.8239 75.9008Z" fill="#586386"/>
<path d="M21.6074 78.0366C21.6074 77.8273 21.733 77.7017 21.9424 77.7017H22.2494C22.4588 77.7017 22.5844 77.8273 22.5844 78.0366V78.1902C22.5844 78.3995 22.4588 78.5251 22.2494 78.5251H21.9424C21.733 78.5251 21.6074 78.3995 21.6074 78.1902V78.0366Z" fill="#586386"/>
<path d="M23.8824 76.7241C23.8824 77.5615 24.3011 77.8267 24.8175 77.8267C25.3479 77.8267 25.7526 77.5615 25.7526 76.7241C25.7526 75.8727 25.3339 75.6215 24.8175 75.6215C24.2871 75.6215 23.8824 75.8727 23.8824 76.7241ZM24.9012 74.9097C25.8922 74.9097 26.6877 75.3423 26.6877 76.7241C26.6877 78.0919 25.8922 78.5245 24.9012 78.5245H24.7338C23.7428 78.5245 22.9473 78.0919 22.9473 76.7241C22.9473 75.3423 23.7428 74.9097 24.7338 74.9097H24.9012Z" fill="#586386"/>
<path d="M28.6411 75.6215C28.2503 75.6215 28.0549 75.7052 28.0549 75.9844C28.0549 76.2635 28.2503 76.3472 28.6411 76.3472H28.8923C29.2831 76.3472 29.4785 76.2495 29.4785 75.9844C29.4785 75.7052 29.2831 75.6215 28.8923 75.6215H28.6411ZM29.0179 77.8127C29.4087 77.8127 29.6181 77.729 29.6181 77.4219C29.6181 77.1149 29.4227 77.0311 29.0179 77.0311H28.5294C28.1386 77.0311 27.9432 77.1288 27.9432 77.4219C27.9432 77.715 28.1386 77.8127 28.5294 77.8127H29.0179ZM29.0179 74.9097C29.7576 74.9097 30.4136 75.1888 30.4136 75.9425C30.4136 76.2077 30.3299 76.4031 30.0786 76.5985C30.4136 76.7799 30.5532 77.087 30.5532 77.4219C30.5532 78.1477 29.9251 78.5106 29.1296 78.5106H28.4178C27.6222 78.5106 26.9941 78.1477 26.9941 77.4219C26.9941 77.087 27.1337 76.7799 27.4687 76.5985C27.2175 76.3891 27.1337 76.1937 27.1337 75.9425C27.1337 75.1888 27.7897 74.9097 28.5294 74.9097H29.0179Z" fill="#586386"/>
<path d="M30.915 78.0366C30.915 77.8273 31.0407 77.7017 31.25 77.7017H31.5571C31.7664 77.7017 31.892 77.8273 31.892 78.0366V78.1902C31.892 78.3995 31.7664 78.5251 31.5571 78.5251H31.25C31.0407 78.5251 30.915 78.3995 30.915 78.1902V78.0366Z" fill="#586386"/>
<path d="M33.1913 76.7241C33.1913 77.5615 33.61 77.8267 34.1264 77.8267C34.6567 77.8267 35.0615 77.5615 35.0615 76.7241C35.0615 75.8727 34.6428 75.6215 34.1264 75.6215C33.61 75.6215 33.1913 75.8727 33.1913 76.7241ZM34.2101 74.9097C35.2011 74.9097 35.9966 75.3423 35.9966 76.7241C35.9966 78.0919 35.2011 78.5245 34.2101 78.5245H34.0287C33.0377 78.5245 32.2422 78.0919 32.2422 76.7241C32.2422 75.3423 33.0377 74.9097 34.0287 74.9097H34.2101Z" fill="#586386"/>
<path d="M37.2515 76.7241C37.2515 77.5615 37.6702 77.8267 38.1866 77.8267C38.717 77.8267 39.1218 77.5615 39.1218 76.7241C39.1218 75.8727 38.7031 75.6215 38.1866 75.6215C37.6702 75.6215 37.2515 75.8727 37.2515 76.7241ZM38.2843 74.9097C39.2753 74.9097 40.0708 75.3423 40.0708 76.7241C40.0708 78.0919 39.2753 78.5245 38.2843 78.5245H38.1029C37.112 78.5245 36.3164 78.0919 36.3164 76.7241C36.3164 75.3423 37.112 74.9097 38.1029 74.9097H38.2843Z" fill="#586386"/>
<path d="M42.7234 76.0961C42.7234 75.7192 42.528 75.6076 42.0953 75.6076H41.9139C41.6068 75.6076 41.3974 75.6913 41.2858 75.9146C41.202 76.0821 41.0904 76.1519 40.9508 76.1519H40.6577C40.5879 76.1519 40.4065 76.11 40.4065 75.8727C40.4065 75.2726 41.1462 74.8958 41.8441 74.8958H42.179C43.0025 74.8958 43.6724 75.147 43.6724 76.0821C43.6724 77.5197 41.3416 77.2126 41.3416 77.7849H43.4073C43.5329 77.7849 43.6445 77.8826 43.6445 78.0221V78.2594C43.6445 78.385 43.5329 78.4967 43.4073 78.4967H40.6438C40.5042 78.4967 40.4065 78.385 40.4065 78.2594V77.8965C40.3786 76.3612 42.7234 76.7939 42.7234 76.0961Z" fill="#586386"/>
<path d="M44.0215 78.0366C44.0215 77.8273 44.1471 77.7017 44.3565 77.7017H44.6635C44.8729 77.7017 44.9985 77.8273 44.9985 78.0366V78.1902C44.9985 78.3995 44.8729 78.5251 44.6635 78.5251H44.3565C44.1471 78.5251 44.0215 78.3995 44.0215 78.1902V78.0366Z" fill="#586386"/>
<path d="M46.9254 75.6215C46.6183 75.6215 46.395 75.7052 46.2833 75.9285C46.1996 76.096 46.0879 76.1658 45.9484 76.1658H45.6553C45.5855 76.1658 45.4041 76.1239 45.4041 75.8867C45.4041 75.2865 46.1438 74.9097 46.8416 74.9097H47.1766C48.014 74.9097 48.684 75.1609 48.684 75.9983C48.684 76.2635 48.5723 76.5287 48.335 76.7101C48.6281 76.8916 48.7258 77.1288 48.7258 77.4219C48.7258 78.2314 48.1815 78.5106 47.2883 78.5106H46.7579C46.06 78.5106 45.3203 78.1337 45.3203 77.5196C45.3203 77.2824 45.5157 77.2405 45.5715 77.2405H45.8646C46.0042 77.2405 46.1298 77.2963 46.2275 77.5196C46.3113 77.7011 46.5346 77.8127 46.8416 77.8127H47.1906C47.5813 77.8127 47.7767 77.729 47.7767 77.4219C47.7767 77.1288 47.5813 77.0451 47.1906 77.0451H46.7439C46.6183 77.0451 46.5067 76.9474 46.5067 76.8078V76.5985C46.5067 76.4729 46.6044 76.3612 46.73 76.3612H47.0929C47.5255 76.3612 47.7209 76.2635 47.7209 75.9704C47.7209 75.6913 47.5255 75.5936 47.0929 75.5936H46.9254V75.6215Z" fill="#586386"/>
<path d="M50.6246 75.6215C50.3175 75.6215 50.1082 75.7052 49.9965 75.9285C49.9128 76.096 49.8011 76.1658 49.6616 76.1658H49.3685C49.2987 76.1658 49.1172 76.1239 49.1172 75.8867C49.1172 75.2865 49.8569 74.9097 50.5548 74.9097H50.8898C51.7272 74.9097 52.3971 75.1609 52.3971 75.9983C52.3971 76.2635 52.2855 76.5287 52.0482 76.7101C52.3413 76.8916 52.439 77.1288 52.439 77.4219C52.439 78.2314 51.8947 78.5106 50.9875 78.5106H50.4571C49.7593 78.5106 49.0195 78.1337 49.0195 77.5196C49.0195 77.2824 49.201 77.2405 49.2708 77.2405H49.5639C49.7034 77.2405 49.829 77.2963 49.9267 77.5196C50.0105 77.7011 50.2338 77.8127 50.5408 77.8127H50.9037C51.2945 77.8127 51.4899 77.729 51.4899 77.4219C51.4899 77.1288 51.2945 77.0451 50.9037 77.0451H50.4571C50.3315 77.0451 50.2198 76.9474 50.2198 76.8078V76.5985C50.2198 76.4729 50.3175 76.3612 50.4431 76.3612H50.806C51.2387 76.3612 51.4341 76.2635 51.4341 75.9704C51.4341 75.6913 51.2387 75.5936 50.806 75.5936H50.6246V75.6215Z" fill="#586386"/>
<path d="M54.3079 75.6215C54.0008 75.6215 53.7915 75.7052 53.6798 75.9285C53.5961 76.096 53.4844 76.1658 53.3449 76.1658H53.0518C52.982 76.1658 52.8005 76.1239 52.8005 75.8867C52.8005 75.2865 53.5403 74.9097 54.2381 74.9097H54.587C55.4245 74.9097 56.0944 75.1609 56.0944 75.9983C56.0944 76.2635 55.9827 76.5287 55.7455 76.7101C56.0386 76.8916 56.1363 77.1288 56.1363 77.4219C56.1363 78.2314 55.5919 78.5106 54.6847 78.5106H54.1544C53.4565 78.5106 52.7168 78.1337 52.7168 77.5196C52.7168 77.2824 52.9122 77.2405 52.968 77.2405H53.2611C53.4007 77.2405 53.5263 77.2963 53.624 77.5196C53.7077 77.7011 53.9311 77.8127 54.2381 77.8127H54.587C54.9778 77.8127 55.1732 77.729 55.1732 77.4219C55.1732 77.1288 54.9778 77.0451 54.587 77.0451H54.1404C54.0148 77.0451 53.9031 76.9474 53.9031 76.8078V76.5985C53.9031 76.4729 54.0008 76.3612 54.1265 76.3612H54.4893C54.936 76.3612 55.1174 76.2635 55.1174 75.9704C55.1174 75.6913 54.922 75.5936 54.4893 75.5936H54.3079V75.6215Z" fill="#586386"/>
</svg>
