<svg width="154" height="53" viewBox="0 0 154 53" fill="none" xmlns="http://www.w3.org/2000/svg">
<path d="M152.323 44.5234C152.323 48.0829 149.42 50.9849 145.861 50.9849H50.321V1.94528H145.861C149.42 1.94528 152.323 4.84731 152.323 8.40682V44.5234ZM39.8466 35.5226C39.8466 35.5226 37.9421 37.2683 37.2393 37.7671C36.4004 38.3339 34.3146 39.6035 30.7097 40.1477C29.7802 40.2837 27.9211 40.261 26.9915 40.1477C23.8628 39.7849 16.8118 37.6991 16.8118 37.6991V30.3987V28.5169V27.1566H18.1494H21.3915H29.3494C30.0976 27.1566 30.6871 27.7687 30.6871 28.5169V30.3987C30.6871 31.1469 30.0749 31.7363 29.3494 31.7363H24.1802C24.1802 31.7363 25.6312 33.1647 26.8328 33.8448C27.6037 34.2756 29.3267 34.7517 30.2109 34.8197C30.8231 34.8651 32.0927 34.7744 32.6595 34.5477C33.4077 34.2303 35.1081 32.4392 35.1081 32.4392L36.5138 31.1469C36.8992 30.7841 37.5113 30.8295 37.8287 31.2376L39.9826 33.9582C40.368 34.4116 40.3 35.1145 39.8466 35.5226ZM15.4968 40.193H10.917V25.7963H15.4968V40.193ZM25.0644 17.8611C26.0166 15.4578 27.4676 13.3493 28.8733 11.1955C29.4854 10.2659 29.9389 10.2206 30.551 11.1728C31.3899 12.4878 34.0652 16.9768 34.4279 17.9744C35.2441 20.2643 34.5866 22.5542 32.7729 23.9145C30.9591 25.2521 28.3972 25.2295 26.5834 23.8465C24.7697 22.4408 24.1575 20.1283 25.0644 17.8611ZM145.861 0.244873H8.87656C4.3875 0.244873 0.737305 3.89508 0.737305 8.40682V44.5234C0.737305 49.0351 4.3875 52.6626 8.87656 52.6626H145.861C150.35 52.6626 154 49.0124 154 44.5234V8.40682C154 3.89508 150.35 0.244873 145.861 0.244873Z" fill="#586386"/>
<path d="M63.8554 9.88037V15.5711H62.563V10.946H60.5452V15.5711H59.2529V9.88037H63.8554Z" fill="#586386"/>
<path d="M66.2364 12.533C66.3498 12.5556 66.4858 12.5783 66.6672 12.5783C67.3474 12.5783 67.7781 12.2382 67.7781 11.6488C67.7781 11.1273 67.4154 10.8099 66.7806 10.8099C66.5085 10.8099 66.3271 10.8326 66.2364 10.8552V12.533ZM64.9668 9.97102C65.3749 9.903 65.919 9.85767 66.7125 9.85767C67.5061 9.85767 68.0729 10.0164 68.4583 10.3111C68.821 10.6058 69.0704 11.082 69.0704 11.6261C69.0704 12.1929 68.8891 12.6463 68.549 12.9864C68.1182 13.3945 67.4607 13.5759 66.6899 13.5759C66.5312 13.5759 66.3725 13.5759 66.2591 13.5532V15.5937H64.9895V9.97102H64.9668Z" fill="#586386"/>
<path d="M70.9519 12.7371C70.9519 13.8481 71.4734 14.6416 72.3349 14.6416C73.1964 14.6416 73.6952 13.8027 73.6952 12.7144C73.6952 11.6942 73.1964 10.81 72.3122 10.81C71.4734 10.81 70.9519 11.6489 70.9519 12.7371ZM75.0782 12.6691C75.0782 14.5282 73.9446 15.6618 72.2896 15.6618C70.6118 15.6618 69.6143 14.3922 69.6143 12.7598C69.6143 11.0594 70.7025 9.76709 72.3802 9.76709C74.126 9.78976 75.0782 11.1047 75.0782 12.6691Z" fill="#586386"/>
<path d="M77.7072 11.6941C77.7072 12.3516 77.6165 12.9865 77.4578 13.5759C77.3671 13.916 77.2084 14.2561 77.0497 14.5281H78.9541V10.9233H77.7072V11.6941ZM80.2464 9.88037V14.5508L80.8132 14.5962L80.7452 17.0221H79.7703L79.7023 15.5711H76.3695L76.3015 17.0221H75.3266L75.2812 14.5962L75.7574 14.5508C75.9841 14.1427 76.1655 13.7346 76.3015 13.2812C76.4602 12.7144 76.5282 12.0796 76.5282 11.3994V9.88037H80.2464Z" fill="#586386"/>
<path d="M82.3545 9.88027L83.1934 11.8754C83.3521 12.2835 83.4655 12.6236 83.5788 12.9637H83.6015C83.6695 12.7143 83.7829 12.3289 83.9189 11.8527L84.5311 9.85761H85.8914L84.8258 12.6236C84.4857 13.5078 84.123 14.3693 83.6922 14.8908C83.3068 15.3669 82.8533 15.639 82.1732 15.639C81.8784 15.639 81.6971 15.6163 81.5384 15.5483L81.629 14.5054C81.7197 14.528 81.8558 14.5507 82.0598 14.5507C82.4452 14.5507 82.7173 14.2786 82.8307 14.0066C82.876 13.9159 82.8533 13.8252 82.808 13.7345L80.8809 9.81226H82.3545V9.88027Z" fill="#586386"/>
<path d="M87.6837 9.88037V12.2383H87.7971L89.3614 9.88037H90.9258L88.9307 12.397C89.6562 12.5783 89.9962 13.0998 90.2456 13.78C90.4497 14.3921 90.6311 15.0043 90.9031 15.5711H89.5201C89.3161 15.1856 89.2254 14.7322 89.0894 14.3241C88.8853 13.6893 88.6359 13.1905 87.9331 13.1905H87.6837V15.5711H86.4141V9.88037H87.6837Z" fill="#586386"/>
<path d="M92.7622 10.9686H91.2432V9.88037H95.6189V10.9686H94.0545V15.5711H92.7622V10.9686Z" fill="#586386"/>
<path d="M99.3148 9.88037V12.0796H101.423V9.88037H102.716V15.5711H101.423V13.1905H99.3148V15.5711H98.0225V9.88037H99.3148Z" fill="#586386"/>
<path d="M107.229 13.1678H105.143V14.5281H107.478V15.5711H103.851V9.88037H107.365V10.946H105.143V12.1249H107.229V13.1678Z" fill="#586386"/>
<path d="M114.892 13.3946C114.869 12.7144 114.846 11.8755 114.846 11.0594H114.824C114.642 11.7849 114.416 12.6011 114.189 13.2585L113.486 15.4804H112.488L111.876 13.2812C111.695 12.6237 111.491 11.8075 111.355 11.0594H111.332C111.31 11.8302 111.264 12.7144 111.242 13.4172L111.151 15.5938H109.949L110.312 9.90308H112.035L112.602 11.8075C112.783 12.465 112.965 13.1678 113.078 13.848H113.101C113.259 13.1905 113.463 12.4424 113.645 11.8075L114.257 9.92575H115.935L116.252 15.6164H115.005L114.892 13.3946Z" fill="#586386"/>
<path d="M118.518 9.88037H117.226V15.5711H118.518V9.88037Z" fill="#586386"/>
<path d="M123.824 15.4124C123.597 15.5258 123.053 15.6618 122.373 15.6618C120.4 15.6618 119.38 14.4375 119.38 12.8052C119.38 10.8554 120.763 9.78979 122.486 9.78979C123.143 9.78979 123.665 9.92581 123.892 10.0392L123.62 11.0594C123.347 10.9461 122.985 10.8554 122.531 10.8554C121.511 10.8554 120.718 11.4675 120.718 12.7371C120.718 13.8707 121.398 14.5963 122.554 14.5963C122.939 14.5963 123.37 14.5056 123.62 14.4149L123.824 15.4124Z" fill="#586386"/>
<path d="M125.931 10.9686H124.412V9.88037H128.788V10.9686H127.223V15.5711H125.931V10.9686Z" fill="#586386"/>
<path d="M130.647 9.88037V11.5808C130.647 12.4877 130.625 13.3946 130.579 14.1654H130.625C130.92 13.5079 131.305 12.737 131.645 12.1476L132.869 9.90305H134.184V15.5937H133.005V13.916C133.005 13.0318 133.028 12.2609 133.096 11.5128H133.073C132.801 12.1929 132.439 12.9411 132.121 13.5306L130.965 15.5937H129.491V9.90305H130.647V9.88037Z" fill="#586386"/>
<path d="M136.406 10.9686H134.887V9.88037H139.262V10.9686H137.698V15.5711H136.406V10.9686Z" fill="#586386"/>
<path d="M141.214 14.6415C141.35 14.6642 141.509 14.6642 141.69 14.6642C142.325 14.6642 142.824 14.3694 142.824 13.7119C142.824 13.0545 142.325 12.7824 141.713 12.7824C141.531 12.7824 141.373 12.8051 141.214 12.8051V14.6415ZM141.237 9.88037V11.8528C141.418 11.8302 141.69 11.8075 141.917 11.8075C143.141 11.8075 144.184 12.397 144.184 13.6666C144.184 14.2107 144.003 14.6188 143.731 14.9136C143.186 15.4804 142.234 15.6391 141.327 15.6391C140.693 15.6391 140.216 15.5937 139.944 15.5484V9.88037H141.237Z" fill="#586386"/>
<path d="M60.2291 22.0098H60.5238C60.9773 22.0098 61.2493 21.8964 61.2493 21.6244C61.2493 21.3977 61.068 21.239 60.6145 21.239C60.4558 21.239 60.3651 21.2616 60.2291 21.2616V22.0098ZM60.2291 23.5515C60.3425 23.5742 60.4331 23.5742 60.6145 23.5742C60.9999 23.5742 61.3854 23.4608 61.3854 23.1207C61.3854 22.8033 61.0906 22.6673 60.5692 22.6673H60.2518V23.5515H60.2291ZM59.1182 20.6268C59.3902 20.5815 60.0024 20.5361 60.5692 20.5361C61.1813 20.5361 62.3376 20.6041 62.3376 21.4657C62.3376 21.9191 61.9748 22.1685 61.6121 22.2365V22.2592C62.1562 22.3499 62.4963 22.6446 62.4963 23.1434C62.4963 24.1637 61.1133 24.2543 60.3651 24.2543C59.8663 24.2543 59.3449 24.2317 59.1182 24.1863V20.6268Z" fill="#586386"/>
<path d="M65.1255 22.4861C64.536 22.4861 64.0826 22.6222 64.0826 23.0529C64.0826 23.3477 64.264 23.4837 64.5134 23.4837C64.7854 23.4837 65.0122 23.3023 65.0802 23.0756C65.1028 23.0076 65.1028 22.9623 65.1028 22.8942V22.4861H65.1255ZM65.2389 24.1865L65.1709 23.8238H65.1482C64.9215 24.1185 64.536 24.2546 64.1279 24.2546C63.4024 24.2546 62.9717 23.7331 62.9717 23.1436C62.9717 22.2141 63.8105 21.7606 65.0802 21.7606V21.738C65.0802 21.5566 64.9895 21.2845 64.4227 21.2845C64.0599 21.2845 63.6745 21.3979 63.4251 21.5566L63.2211 20.8311C63.4705 20.695 63.9692 20.5137 64.6041 20.5137C65.8057 20.5137 66.1911 21.2165 66.1911 22.0554V23.3023C66.1911 23.6424 66.2138 23.9825 66.2364 24.1639H65.2389V24.1865Z" fill="#586386"/>
<path d="M67.8683 20.6042L68.6845 22.0326H68.7978V20.6042H69.8861V22.0326H69.9994L70.8156 20.6042H72.0399L70.793 22.1459C71.2011 22.214 71.4731 22.6221 71.6318 23.0528C71.7679 23.4609 71.9039 23.8464 72.0626 24.1864H70.9517C70.8383 24.0051 70.7703 23.733 70.6343 23.3702C70.4982 22.9848 70.2715 22.7581 69.9768 22.7581H69.8861V24.1864H68.7978V22.7581H68.7071C68.3897 22.7581 68.1857 22.9621 68.027 23.3702C67.8909 23.7557 67.8229 24.0051 67.7096 24.1864H66.5986C66.78 23.8464 66.8934 23.4609 67.0294 23.0528C67.1881 22.5994 67.4602 22.214 67.8683 22.1233L66.644 20.6042H67.8683Z" fill="#586386"/>
<path d="M73.6037 20.6042V22.0326H73.7397L74.6466 20.6042H75.9616L74.6466 22.1459C75.0773 22.2366 75.3494 22.6221 75.5535 23.1435C75.6668 23.4383 75.8029 23.869 75.9842 24.2091H74.828C74.7373 24.0504 74.6466 23.801 74.5106 23.4156C74.3519 23.0075 74.1251 22.7808 73.7624 22.7808H73.649V24.2091H72.5381V20.6042H73.6037Z" fill="#586386"/>
<path d="M77.4377 20.6042V21.6925C77.4377 22.2593 77.415 22.6674 77.3696 23.1662H77.3923C77.5737 22.7581 77.6644 22.486 77.8004 22.1459L78.5259 20.6042H79.8862V24.1864H78.8206V23.0982C78.8206 22.5314 78.8433 22.3047 78.8887 21.5338H78.866C78.73 21.9192 78.6393 22.1686 78.4806 22.5087C78.2538 23.0075 77.9818 23.6423 77.7324 24.1864H76.3721V20.6042H77.4377Z" fill="#586386"/>
<path d="M81.631 20.6042L81.971 21.1937C82.0617 21.3751 82.1751 21.5565 82.2658 21.7378H82.2885C82.3791 21.5565 82.4698 21.3524 82.5605 21.1937L82.8779 20.6042H84.1022L82.9233 22.3047L84.1249 24.1864H82.8553L82.4925 23.5516C82.4018 23.3702 82.3111 23.1889 82.2204 23.0075H82.1978C82.1071 23.1889 82.0164 23.3702 81.9257 23.5516L81.5856 24.1864H80.3613L81.5856 22.35L80.384 20.6042H81.631Z" fill="#586386"/>
<path d="M86.1859 20.6042H87.6142L87.9997 21.9646C88.0677 22.1686 88.1584 22.554 88.2264 22.8715H88.2491C88.3171 22.6221 88.4304 22.2366 88.5438 21.8966L88.9519 20.6042H90.3576L90.5843 24.1864H89.5414L89.4734 22.7581C89.4734 22.4407 89.4507 21.9192 89.428 21.5111H89.4053C89.2693 21.9872 89.2466 22.1006 89.0653 22.6901L88.5891 24.1411H87.7956L87.3649 22.7127C87.2742 22.3727 87.1608 21.8512 87.0701 21.5111H87.0474C87.0248 21.9646 87.0248 22.4633 87.0021 22.7581L86.9341 24.1864H85.9365L86.1859 20.6042Z" fill="#586386"/>
<path d="M93.487 21.9874C93.487 21.7153 93.3736 21.2619 92.8522 21.2619C92.3761 21.2619 92.1947 21.6926 92.172 21.9874H93.487ZM92.172 22.7582C92.2174 23.2116 92.6708 23.4384 93.1923 23.4384C93.5777 23.4384 93.8724 23.393 94.1898 23.3023L94.3259 24.0505C93.9631 24.2092 93.5097 24.2772 93.0336 24.2772C91.8093 24.2772 91.1064 23.5744 91.1064 22.4408C91.1064 21.5339 91.6732 20.5137 92.9202 20.5137C94.0765 20.5137 94.5299 21.4206 94.5299 22.3048C94.5299 22.4861 94.5072 22.6675 94.4846 22.7355H92.172V22.7582Z" fill="#586386"/>
<path d="M97.9753 20.6042V21.4431H96.9324V24.1864H95.7988V21.4431H94.7559V20.6042H97.9753Z" fill="#586386"/>
<path d="M100.336 22.4861C99.7468 22.4861 99.2933 22.6222 99.2933 23.0529C99.2933 23.3477 99.4747 23.4837 99.7241 23.4837C99.9962 23.4837 100.223 23.3023 100.314 23.0756C100.336 23.0076 100.336 22.9623 100.336 22.8942V22.4861ZM100.472 24.1865L100.404 23.8238H100.382C100.155 24.1185 99.7921 24.2546 99.3613 24.2546C98.6358 24.2546 98.2051 23.7331 98.2051 23.1436C98.2051 22.2141 99.0439 21.7606 100.314 21.7606V21.738C100.314 21.5566 100.223 21.2845 99.6561 21.2845C99.2933 21.2845 98.9079 21.3979 98.6585 21.5566L98.4545 20.8311C98.7039 20.695 99.2026 20.5137 99.8601 20.5137C101.062 20.5137 101.447 21.2165 101.447 22.0554V23.3023C101.447 23.6424 101.47 23.9825 101.493 24.1639H100.472V24.1865Z" fill="#586386"/>
<path d="M105.459 20.6042V24.1864H104.348V21.4431H103.577V22.1006C103.577 22.9621 103.464 23.5743 103.078 23.9144C102.851 24.1638 102.534 24.2544 102.035 24.2544L101.922 23.3929C102.081 23.3702 102.239 23.3022 102.307 23.1889C102.511 22.9848 102.534 22.6447 102.534 22.0326V20.6042H105.459Z" fill="#586386"/>
<path d="M106.342 20.6044H107.453V24.1866H106.342V20.6044ZM107.499 19.6068C107.499 19.9242 107.272 20.1736 106.887 20.1736C106.547 20.1736 106.297 19.9242 106.32 19.6068C106.32 19.2894 106.547 19.04 106.909 19.04C107.249 19.04 107.476 19.2894 107.499 19.6068Z" fill="#586386"/>
<path d="M109.449 22.0098H109.744C110.197 22.0098 110.469 21.8964 110.469 21.6244C110.469 21.3977 110.288 21.239 109.834 21.239C109.676 21.239 109.585 21.2616 109.449 21.2616V22.0098ZM109.449 23.5515C109.562 23.5742 109.653 23.5742 109.834 23.5742C110.22 23.5742 110.605 23.4608 110.605 23.1207C110.605 22.8033 110.31 22.6673 109.789 22.6673H109.471V23.5515H109.449ZM108.338 20.6268C108.61 20.5815 109.222 20.5361 109.789 20.5361C110.401 20.5361 111.557 20.6041 111.557 21.4657C111.557 21.9191 111.172 22.1685 110.832 22.2365V22.2592C111.376 22.3499 111.716 22.6446 111.716 23.1434C111.716 24.1637 110.333 24.2543 109.585 24.2543C109.086 24.2543 108.565 24.2317 108.338 24.1863V20.6268Z" fill="#586386"/>
<path d="M111.965 25.0706C112.192 24.4131 112.396 23.6423 112.486 22.9848L113.62 22.9167C113.371 23.6649 113.053 24.4358 112.69 25.0026L111.965 25.0706Z" fill="#586386"/>
<path d="M118.496 23.5293C119.04 23.4159 119.289 22.9624 119.289 22.3956C119.289 21.8288 119.04 21.3981 118.496 21.2847V23.5293ZM117.498 21.262C116.954 21.3981 116.705 21.8515 116.705 22.3956C116.705 22.9851 116.954 23.3932 117.498 23.5293V21.262ZM118.496 18.9722V20.5365C119.539 20.6272 120.4 21.2394 120.4 22.3956C120.4 23.5519 119.516 24.1641 118.496 24.2321V25.6377H117.498V24.2548C116.501 24.1641 115.594 23.5746 115.594 22.4183C115.594 21.2394 116.455 20.6499 117.498 20.5365V18.9722H118.496Z" fill="#586386"/>
<path d="M123.257 21.9874C123.257 21.7153 123.143 21.2619 122.622 21.2619C122.146 21.2619 121.964 21.6926 121.942 21.9874H123.257ZM121.942 22.7582C121.987 23.2116 122.44 23.4384 122.962 23.4384C123.347 23.4384 123.642 23.393 123.959 23.3023L124.095 24.0505C123.733 24.2092 123.279 24.2772 122.803 24.2772C121.579 24.2772 120.876 23.5744 120.876 22.4408C120.876 21.5339 121.443 20.5137 122.69 20.5137C123.846 20.5137 124.299 21.4206 124.299 22.3048C124.299 22.4861 124.277 22.6675 124.254 22.7355H121.942V22.7582Z" fill="#586386"/>
<path d="M126.068 20.6042V21.8966H127.202V20.6042H128.335V24.1864H127.202V22.7581H126.068V24.1864H124.957V20.6042H126.068Z" fill="#586386"/>
<path d="M130.172 22.3955C130.172 23.0076 130.422 23.4837 130.898 23.4837C131.328 23.4837 131.6 23.0529 131.6 22.3955C131.6 21.8513 131.396 21.3072 130.898 21.3072C130.353 21.3072 130.172 21.874 130.172 22.3955ZM132.757 22.3501C132.757 23.6651 131.827 24.2772 130.852 24.2772C129.809 24.2772 128.993 23.5744 128.993 22.4181C128.993 21.2619 129.764 20.5137 130.92 20.5137C132.031 20.5137 132.757 21.2845 132.757 22.3501Z" fill="#586386"/>
<path d="M136.588 20.6042V24.1864H135.477V21.4431H134.706V22.1006C134.706 22.9621 134.592 23.5743 134.207 23.9144C133.98 24.1638 133.663 24.2544 133.164 24.2544L133.051 23.3929C133.209 23.3702 133.368 23.3022 133.436 23.1889C133.64 22.9848 133.663 22.6447 133.663 22.0326V20.6042H136.588Z" fill="#586386"/>
<path d="M137.472 20.6044H138.583V24.1866H137.472V20.6044ZM138.629 19.6068C138.629 19.9242 138.402 20.1736 138.016 20.1736C137.676 20.1736 137.427 19.9242 137.45 19.6068C137.45 19.2894 137.676 19.04 138.039 19.04C138.402 19.04 138.606 19.2894 138.629 19.6068Z" fill="#586386"/>
<path d="M140.579 22.0098H140.873C141.327 22.0098 141.599 21.8964 141.599 21.6244C141.599 21.3977 141.418 21.239 140.964 21.239C140.805 21.239 140.715 21.2616 140.579 21.2616V22.0098ZM140.556 23.5515C140.669 23.5742 140.76 23.5742 140.941 23.5742C141.327 23.5742 141.712 23.4608 141.712 23.1207C141.712 22.8033 141.418 22.6673 140.896 22.6673H140.579V23.5515H140.556ZM139.468 20.6268C139.74 20.5815 140.352 20.5361 140.919 20.5361C141.531 20.5361 142.71 20.6041 142.71 21.4657C142.71 21.9191 142.324 22.1685 141.984 22.2365V22.2592C142.528 22.3499 142.869 22.6446 142.869 23.1434C142.869 24.1637 141.486 24.2543 140.737 24.2543C140.239 24.2543 139.717 24.2317 139.49 24.1863V20.6268H139.468Z" fill="#586386"/>
<path d="M143.096 25.0706C143.322 24.4131 143.526 23.6423 143.617 22.9848L144.751 22.9167C144.501 23.6649 144.184 24.4358 143.821 25.0026L143.096 25.0706Z" fill="#586386"/>
<path d="M61.0452 31.3055C60.4558 31.3055 60.0023 31.4415 60.0023 31.8723C60.0023 32.167 60.1837 32.3031 60.4331 32.3031C60.7052 32.3031 60.9319 32.1217 60.9999 31.895C61.0226 31.8269 61.0226 31.7816 61.0226 31.7136V31.3055H61.0452ZM61.1813 33.0059L61.1132 32.6431H61.0906C60.8639 32.9379 60.4784 33.0739 60.0703 33.0739C59.3448 33.0739 58.9141 32.5524 58.9141 31.9856C58.9141 31.0561 59.7529 30.6027 61.0226 30.6027V30.5573C61.0226 30.3759 60.9319 30.1039 60.3651 30.1039C60.0023 30.1039 59.6169 30.2172 59.3675 30.3759L59.1635 29.6504C59.4128 29.5144 59.9116 29.333 60.5464 29.333C61.7481 29.333 62.1335 30.0358 62.1335 30.8747V32.1217C62.1335 32.4618 62.1562 32.8018 62.1788 32.9832H61.1813V33.0059Z" fill="#586386"/>
<path d="M66.1462 29.424V33.0062H65.0353V30.2629H64.2644V30.9204C64.2644 31.7819 64.1511 32.3941 63.7656 32.7342C63.5389 32.9836 63.2215 33.0742 62.7227 33.0742L62.6094 32.2127C62.7681 32.19 62.9268 32.122 63.0175 32.0087C63.2215 31.8046 63.2442 31.4645 63.2442 30.8524V29.4014H66.1462V29.424Z" fill="#586386"/>
<path d="M68.1623 29.4241V30.8524H68.2983L69.2052 29.4241H70.5202L69.2052 30.9658C69.6359 31.0565 69.8853 31.4419 70.1121 31.9633C70.2254 32.2581 70.3615 32.6888 70.5428 33.0063H69.3866C69.2959 32.8476 69.2052 32.5982 69.0691 32.2127C68.9104 31.8046 68.6837 31.5779 68.321 31.5779H68.2076V33.0063H67.0967V29.4241H68.1623Z" fill="#586386"/>
<path d="M70.9294 29.4239H72.0403V33.0061H70.9294V29.4239ZM72.0856 28.4037C72.0856 28.7211 71.8589 28.9705 71.4735 28.9705C71.1334 28.9705 70.884 28.7211 70.9067 28.4037C70.9067 28.0863 71.1334 27.8369 71.4962 27.8369C71.8589 27.8369 72.0856 28.0863 72.0856 28.4037Z" fill="#586386"/>
<path d="M76.0749 29.424V33.0062H74.964V30.2629H74.1931V30.9204C74.1931 31.7819 74.0798 32.3941 73.6944 32.7342C73.4676 32.9836 73.1502 33.0742 72.6514 33.0742L72.5381 32.2127C72.6968 32.19 72.8555 32.122 72.9235 32.0087C73.1276 31.8046 73.1502 31.4645 73.1502 30.8524V29.4014H76.0749V29.424Z" fill="#586386"/>
<path d="M79.6581 32.3257C80.2022 32.2123 80.4516 31.7589 80.4516 31.1921C80.4516 30.6253 80.2022 30.1945 79.6581 30.0811V32.3257ZM78.6605 30.0811C78.1164 30.2172 77.867 30.6706 77.867 31.2147C77.867 31.8042 78.1164 32.2123 78.6605 32.3483V30.0811ZM79.6581 27.7913V29.3556C80.6783 29.4463 81.5625 30.0585 81.5625 31.2147C81.5625 32.371 80.6783 32.9832 79.6581 33.0512V34.4568H78.6378V33.0738C77.6403 32.9832 76.7334 32.3937 76.7334 31.2374C76.7334 30.0585 77.5949 29.4463 78.6378 29.3556V27.7913H79.6581Z" fill="#586386"/>
<path d="M84.4196 30.8069C84.4196 30.5348 84.3063 30.0814 83.7848 30.0814C83.3087 30.0814 83.1273 30.5122 83.1047 30.8069H84.4196ZM83.1047 31.5551C83.15 32.0312 83.6034 32.2352 84.1249 32.2352C84.5103 32.2352 84.8051 32.1899 85.1225 32.0992L85.2585 32.8474C84.8957 32.9834 84.4423 33.0741 83.9662 33.0741C82.7419 33.0741 82.0391 32.3713 82.0391 31.2377C82.0391 30.3308 82.6059 29.3105 83.8528 29.3105C85.0091 29.3105 85.4625 30.2174 85.4625 31.1016C85.4625 31.283 85.4399 31.4644 85.4172 31.5324H83.1047V31.5551Z" fill="#586386"/>
<path d="M87.2311 29.4241V30.7164H88.3647V29.4241H89.4983V33.0063H88.3647V31.5779H87.2311V33.0063H86.1201V29.4241H87.2311Z" fill="#586386"/>
<path d="M91.334 31.1921C91.334 31.8043 91.5834 32.2804 92.0595 32.2804C92.4903 32.2804 92.7623 31.8496 92.7623 31.1921C92.7623 30.648 92.5583 30.1039 92.0595 30.1039C91.5154 30.1265 91.334 30.6707 91.334 31.1921ZM93.9186 31.1695C93.9186 32.4844 92.9891 33.0966 92.0368 33.0966C90.9939 33.0966 90.1777 32.3937 90.1777 31.2375C90.1777 30.0812 90.9486 29.333 92.1049 29.333C93.1931 29.333 93.9186 30.0812 93.9186 31.1695Z" fill="#586386"/>
<path d="M97.7263 29.424V33.0062H96.6154V30.2629H95.8445V30.9204C95.8445 31.7819 95.7311 32.3941 95.3457 32.7342C95.119 32.9836 94.8016 33.0742 94.3028 33.0742L94.1895 32.2127C94.3482 32.19 94.5069 32.122 94.5749 32.0087C94.7789 31.8046 94.8016 31.4645 94.8016 30.8524V29.4014H97.7263V29.424Z" fill="#586386"/>
<path d="M100.811 30.8069C100.811 30.5348 100.698 30.0814 100.176 30.0814C99.7003 30.0814 99.5189 30.5122 99.4963 30.8069H100.811ZM99.4963 31.5551C99.5416 32.0312 99.995 32.2352 100.516 32.2352C100.902 32.2352 101.197 32.1899 101.514 32.0992L101.65 32.8474C101.287 32.9834 100.834 33.0741 100.358 33.0741C99.1335 33.0741 98.4307 32.3713 98.4307 31.2377C98.4307 30.3308 98.9975 29.3105 100.244 29.3105C101.401 29.3105 101.854 30.2174 101.854 31.1016C101.854 31.283 101.831 31.4644 101.809 31.5324H99.4963V31.5551Z" fill="#586386"/>
<path d="M105.3 29.4241V30.2629H104.258V33.0063H103.124V30.2629H102.081V29.4241H105.3Z" fill="#586386"/>
<path d="M106.684 31.1921C106.684 31.8043 106.933 32.2804 107.409 32.2804C107.84 32.2804 108.112 31.8496 108.112 31.1921C108.112 30.648 107.908 30.1039 107.409 30.1039C106.888 30.1265 106.684 30.6707 106.684 31.1921ZM109.268 31.1695C109.268 32.4844 108.339 33.0966 107.386 33.0966C106.344 33.0966 105.527 32.3937 105.527 31.2375C105.527 30.0812 106.298 29.333 107.454 29.333C108.543 29.333 109.268 30.0812 109.268 31.1695Z" fill="#586386"/>
<path d="M111.081 29.4241V30.8524H111.217L112.124 29.4241H113.439L112.124 30.9658C112.555 31.0565 112.804 31.4419 113.031 31.9633C113.144 32.2581 113.28 32.6888 113.462 33.0063H112.305C112.215 32.8476 112.124 32.5982 111.988 32.2127C111.829 31.8046 111.603 31.5779 111.24 31.5779H111.127V33.0063H110.016V29.4241H111.081Z" fill="#586386"/>
<path d="M116.523 32.9152C116.319 33.0059 115.956 33.0739 115.526 33.0739C114.369 33.0739 113.621 32.3711 113.621 31.2375C113.621 30.1946 114.347 29.333 115.684 29.333C115.979 29.333 116.296 29.3784 116.546 29.4691L116.364 30.3079C116.228 30.2399 116.024 30.1946 115.73 30.1946C115.14 30.1946 114.755 30.6026 114.777 31.1921C114.777 31.8496 115.208 32.2124 115.752 32.2124C116.024 32.2124 116.228 32.167 116.387 32.099L116.523 32.9152Z" fill="#586386"/>
<path d="M118.18 29.424V30.5123C118.18 31.0791 118.157 31.4872 118.112 31.9633H118.135C118.293 31.5552 118.407 31.2831 118.543 30.9431L119.246 29.4014H120.606V32.9836H119.54V31.8953C119.54 31.3285 119.563 31.1018 119.608 30.3309H119.586C119.45 30.7164 119.359 30.9657 119.2 31.3058C118.974 31.8046 118.702 32.4168 118.452 32.9836H117.092V29.4014H118.18V29.424Z" fill="#586386"/>
<path d="M124.66 29.424V33.0062H123.549V30.2629H122.778V30.9204C122.778 31.7819 122.665 32.3941 122.279 32.7342C122.053 32.9836 121.735 33.0742 121.236 33.0742L121.123 32.2127C121.282 32.19 121.44 32.122 121.531 32.0087C121.735 31.8046 121.758 31.4645 121.758 30.8524V29.4014H124.66V29.424Z" fill="#586386"/>
<path d="M127.451 31.3055C126.862 31.3055 126.409 31.4415 126.409 31.8723C126.409 32.167 126.59 32.3031 126.839 32.3031C127.111 32.3031 127.338 32.1217 127.429 31.895C127.451 31.8269 127.451 31.7816 127.451 31.7136V31.3055ZM127.588 33.0059L127.519 32.6431H127.497C127.27 32.9379 126.907 33.0739 126.477 33.0739C125.751 33.0739 125.32 32.5524 125.32 31.9856C125.32 31.0561 126.159 30.6027 127.429 30.6027V30.5573C127.429 30.3759 127.338 30.1039 126.771 30.1039C126.409 30.1039 126.023 30.2172 125.774 30.3759L125.57 29.6504C125.819 29.5144 126.318 29.333 126.975 29.333C128.177 29.333 128.562 30.0358 128.562 30.8747V32.1217C128.562 32.4618 128.585 32.8018 128.608 32.9832H127.588V33.0059Z" fill="#586386"/>
<path d="M132.187 29.4241V30.2629H131.144V33.0063H130.011V30.2629H128.968V29.4241H132.187Z" fill="#586386"/>
<path d="M132.687 29.4239H133.798V33.0061H132.687V29.4239ZM133.843 28.4037C133.843 28.7211 133.616 28.9705 133.231 28.9705C132.868 28.9705 132.642 28.7211 132.642 28.4037C132.642 28.0863 132.868 27.8369 133.231 27.8369C133.594 27.8369 133.821 28.0863 133.843 28.4037Z" fill="#586386"/>
<path d="M135.795 30.807H136.089C136.543 30.807 136.815 30.6936 136.815 30.4215C136.815 30.1948 136.634 30.0361 136.18 30.0361C136.021 30.0361 135.931 30.0588 135.795 30.0588V30.807ZM135.795 32.3713C135.908 32.394 135.999 32.394 136.18 32.394C136.566 32.394 136.951 32.2806 136.951 31.9179C136.951 31.6232 136.656 31.4645 136.135 31.4645H135.817V32.3713H135.795ZM134.684 29.4466C134.956 29.4013 135.568 29.356 136.135 29.356C136.747 29.356 137.903 29.424 137.903 30.2628C137.903 30.7163 137.54 30.9657 137.178 31.0337V31.0564C137.722 31.147 138.062 31.4418 138.062 31.9406C138.062 32.9608 136.679 33.0515 135.931 33.0515C135.432 33.0515 134.911 33.0062 134.661 32.9835V29.4466H134.684Z" fill="#586386"/>
<path d="M138.334 33.8672C138.561 33.2097 138.765 32.4389 138.855 31.7814L139.989 31.7134C139.74 32.4616 139.422 33.2324 139.059 33.7992L138.334 33.8672Z" fill="#586386"/>
<path d="M61.0452 40.1251C60.4558 40.1251 60.0023 40.2611 60.0023 40.6919C60.0023 40.9866 60.1837 41.1226 60.4331 41.1226C60.7052 41.1226 60.9319 40.9413 60.9999 40.7145C61.0226 40.6465 61.0226 40.6012 61.0226 40.5332V40.1251H61.0452ZM61.1813 41.8255L61.1132 41.4627H61.0906C60.8639 41.7574 60.4784 41.9162 60.0703 41.9162C59.3448 41.9162 58.9141 41.3947 58.9141 40.8052C58.9141 39.8757 59.7529 39.4222 61.0226 39.4222V39.3769C61.0226 39.1955 60.9319 38.9234 60.3651 38.9234C60.0023 38.9234 59.6169 39.0368 59.3675 39.1955L59.1635 38.47C59.4128 38.334 59.9116 38.1526 60.5464 38.1526C61.7481 38.1526 62.1335 38.8554 62.1335 39.6943V40.9413C62.1335 41.2813 62.1562 41.6214 62.1788 41.8028H61.1813V41.8255Z" fill="#586386"/>
<path d="M63.1295 38.2207H64.5578L64.9432 39.581C65.0113 39.7851 65.102 40.1705 65.17 40.4879H65.1926C65.2607 40.2385 65.374 39.8531 65.4874 39.513L65.8955 38.2434H67.3011L67.5279 41.8256H66.4849L66.4169 40.3972C66.4169 40.0798 66.3943 39.5584 66.3716 39.1503H66.3489C66.2129 39.6264 66.1902 39.7397 66.0088 40.3292L65.5327 41.8029H64.7165L64.2858 40.3746C64.1951 40.0345 64.0817 39.513 63.991 39.1729H63.9684C63.9457 39.6264 63.9457 40.1252 63.923 40.4199L63.855 41.8482H62.8574L63.1295 38.2207Z" fill="#586386"/>
<path d="M68.2772 38.2206H69.3881V41.8028H68.2772V38.2206ZM69.4334 37.2231C69.4334 37.5405 69.2067 37.7899 68.8213 37.7899C68.4585 37.7899 68.2318 37.5405 68.2545 37.2231C68.2545 36.9056 68.4812 36.6562 68.844 36.6562C69.2067 36.6562 69.4334 36.9056 69.4334 37.2231Z" fill="#586386"/>
<path d="M72.1995 40.1251C71.6101 40.1251 71.1566 40.2611 71.1566 40.6919C71.1566 40.9866 71.3607 41.1226 71.5874 41.1226C71.8595 41.1226 72.0862 40.9413 72.1542 40.7145C72.1769 40.6465 72.1769 40.6012 72.1769 40.5332V40.1251H72.1995ZM72.3356 41.8255L72.2675 41.4627H72.2449C72.0182 41.7574 71.6327 41.9162 71.2246 41.9162C70.4991 41.9162 70.0684 41.3947 70.0684 40.8052C70.0684 39.8757 70.9072 39.4222 72.1769 39.4222V39.3769C72.1769 39.1955 72.0635 38.9234 71.5194 38.9234C71.1566 38.9234 70.7712 39.0368 70.5218 39.1955L70.3178 38.47C70.5671 38.334 71.0659 38.1526 71.7007 38.1526C72.9024 38.1526 73.2878 38.8554 73.2878 39.6943V40.9413C73.2878 41.2813 73.3105 41.6214 73.3331 41.8028H72.3356V41.8255Z" fill="#586386"/>
<path d="M75.2818 38.2207V39.6491H75.4179L76.3247 38.2207H77.6397L76.3247 39.7624C76.7555 39.8531 77.0049 40.2385 77.2316 40.76C77.345 41.0547 77.481 41.4855 77.6624 41.8029H76.4608C76.3701 41.6442 76.2794 41.3948 76.1434 41.0094C75.9847 40.6013 75.7579 40.3746 75.3952 40.3746H75.2818V41.8029H74.1709V38.2207H75.2818Z" fill="#586386"/>
<path d="M78.9999 38.2207L79.544 39.9891C79.612 40.1932 79.68 40.4652 79.7254 40.6466H79.7481C79.7934 40.4652 79.8614 40.1705 79.9068 39.9891L80.3375 38.2207H81.5392L80.7003 40.5786C80.1788 42.0069 79.8388 42.5737 79.4307 42.9365C79.0452 43.2766 78.6371 43.3899 78.3424 43.4353L78.1157 42.4831C78.2517 42.4604 78.4331 42.3924 78.5918 42.3017C78.7505 42.211 78.9545 42.0296 79.0452 41.8482C79.0906 41.8029 79.1132 41.7349 79.1132 41.6895C79.1132 41.6442 79.1132 41.5988 79.0679 41.5082L77.7529 38.2207H78.9999Z" fill="#586386"/>
<path d="M81.4482 41.2131C81.4482 40.8277 81.7203 40.533 82.1057 40.533C82.4912 40.533 82.7632 40.805 82.7632 41.2131C82.7632 41.5985 82.4912 41.8933 82.1057 41.8933C81.7203 41.8933 81.4482 41.5985 81.4482 41.2131Z" fill="#586386"/>
</svg>
