<svg width="36" height="36" viewBox="0 0 36 36" fill="none" xmlns="http://www.w3.org/2000/svg">
<path d="M4.0781 26.172C4.19948 26.3651 4.13879 26.6188 3.94018 26.7402C3.74709 26.8561 3.47677 26.8009 3.3554 26.6078C3.23403 26.4147 3.29471 26.1609 3.49332 26.0396C3.69744 25.9182 3.95673 25.9789 4.0781 26.172ZM8.60192 30.1772L7.24478 31.744L7.01859 31.5564L8.19919 30.1938L7.21719 29.3883L6.03659 30.751L5.8104 30.5634L7.16754 28.9966L8.60192 30.1772ZM9.23085 30.602L10.6652 31.4461L10.5218 31.6778L9.3467 30.9827L9.02672 31.4957L10.1301 32.1467L9.98665 32.3784L8.88328 31.7274L8.54124 32.2791L9.73288 32.9853L9.58944 33.217L8.13851 32.3619L9.23085 30.602ZM10.7259 33.7521L10.4501 33.6418L11.2666 31.7495L12.1658 32.1136C12.6458 32.3067 12.8058 32.5826 12.6403 32.9632C12.4748 33.3494 12.1603 33.4211 11.6803 33.228L11.0624 32.9743L10.7259 33.7521ZM11.1562 32.7481L11.6693 32.9577C12.0444 33.1122 12.2541 33.0956 12.3589 32.8529C12.4748 32.5881 12.3368 32.4391 11.9782 32.2902L11.4486 32.075L11.1562 32.7481ZM13.4899 32.5881L15.1173 32.9853L15.0511 33.2446L13.716 32.9136L13.5671 33.4928L14.8194 33.8018L14.7532 34.0611L13.5009 33.7521L13.3354 34.3811L14.6925 34.7121L14.6263 34.9714L12.9823 34.5686L13.4899 32.5881ZM15.7738 33.1011L16.9379 33.206C17.3517 33.2446 17.5613 33.4542 17.5282 33.7797C17.5061 33.9949 17.3792 34.1328 17.153 34.199C17.4123 34.2707 17.5337 34.4528 17.5116 34.7176C17.473 35.1258 17.2137 35.2913 16.7172 35.2472L15.5752 35.1424L15.7738 33.1011ZM15.9007 34.9052L16.6731 34.9769C17.0096 35.01 17.1806 34.9438 17.2027 34.7176C17.2248 34.4748 17.0924 34.359 16.7779 34.3314L15.9614 34.2597L15.9007 34.9052ZM15.989 33.9838L16.7338 34.05C17.0537 34.0776 17.2027 34.028 17.2248 33.7963C17.2468 33.5866 17.1255 33.4928 16.8496 33.4653L16.0386 33.3935L15.989 33.9838ZM18.786 35.2968L18.4881 35.3024L18.4385 33.2501L18.7364 33.2446L18.786 35.2968ZM20.2039 35.2031L19.9115 35.2417L19.6191 33.2115L20.579 33.0791C21.0921 33.0074 21.3734 33.1673 21.4341 33.5756C21.4948 33.9894 21.2631 34.21 20.75 34.2762L20.088 34.37L20.2039 35.2031ZM20.0494 34.1273L20.6011 34.05C21.0038 33.9949 21.1748 33.879 21.1417 33.6197C21.1031 33.3328 20.91 33.2777 20.5183 33.3273L19.9501 33.4046L20.0494 34.1273ZM21.9637 32.8363L23.5691 32.3729L23.6464 32.6322L22.3279 33.0129L22.5044 33.5866L23.7457 33.228L23.8229 33.4873L22.5816 33.8459L22.7692 34.4693L24.1098 34.0831L24.187 34.3424L22.5596 34.8114L21.9637 32.8363ZM24.8215 32.7536L25.98 32.2184L25.6214 31.4847L25.8917 31.3578L26.7965 33.2115L26.5262 33.3384L26.1014 32.4612L24.9428 33.0018L25.3732 33.879L25.1028 34.0059L24.1981 32.1522L24.4684 32.0254L24.8215 32.7536ZM27.3537 30.3703C27.9385 29.9676 28.5454 30.0724 28.9315 30.602C29.3177 31.1371 29.2184 31.7274 28.6281 32.1357C28.0433 32.5384 27.4365 32.4336 27.0503 31.904C26.6641 31.3688 26.7634 30.773 27.3537 30.3703ZM28.4681 31.9095C28.9039 31.6061 28.9757 31.1868 28.6778 30.7785C28.3798 30.3648 27.9495 30.2931 27.5137 30.5965C27.0779 30.8999 27.0061 31.3192 27.3041 31.7274C27.602 32.1357 28.0323 32.2129 28.4681 31.9095ZM29.3949 29.8076L28.8764 29.2559L29.1301 29.0242L29.6542 29.5759L30.1397 30.2158L30.0128 30.3317L29.3949 29.8076ZM30.0625 30.5193L30.3163 30.2875L30.5535 30.5413L30.2997 30.7675L30.0625 30.5193ZM32.3244 26.1278C32.4458 25.9403 32.7051 25.8741 32.9037 25.9954C33.0968 26.1113 33.163 26.3706 33.0416 26.5637C32.9202 26.7568 32.6609 26.8119 32.4623 26.6961C32.2637 26.5802 32.203 26.3209 32.3244 26.1278Z" fill="#9AB4C1"/>
<path d="M0.198607 20.1365L0.650989 20.0427L0.87718 21.1406L2.62602 20.793L2.73636 21.3282L0.535135 21.7695L0.198607 20.1365ZM2.27846 18.2001L2.31708 18.7463L0.077236 18.8897L0.038618 18.3435L2.27846 18.2001ZM0.220674 14.6969L2.455 14.9121L2.39983 15.4582L0.623405 15.2872L0.513067 16.3354L2.28949 16.5064L2.23433 17.0526L0 16.8374L0.220674 14.6969ZM2.43845 11.0778C3.11151 11.2985 3.39287 11.9219 3.12806 12.6833C2.86325 13.4446 2.25639 13.7811 1.57782 13.5604C0.904764 13.3398 0.623405 12.7164 0.888214 11.9495C1.15302 11.1937 1.76539 10.8572 2.43845 11.0778ZM1.77643 12.9922C2.20123 13.1301 2.54879 12.9536 2.69222 12.5398C2.83566 12.126 2.66464 11.784 2.23984 11.6461C1.81505 11.5082 1.46748 11.6792 1.32956 12.0929C1.18612 12.5122 1.35163 12.8543 1.77643 12.9922ZM2.39432 8.83249L2.67016 8.3801L5.12516 8.63388L4.80518 9.15798L4.29211 9.09177L3.78456 9.92482L4.09351 10.3276L3.78456 10.8351L2.39432 8.83249ZM3.7956 9.03661L3.0453 8.94834L3.49217 9.53864L3.7956 9.03661ZM5.73201 4.67829L7.35948 6.17887L6.9733 6.57609L5.67684 5.38445L4.99827 6.08509L5.63823 6.6754C6.05751 7.06158 6.21749 7.43672 5.85338 7.81187C5.76511 7.90014 5.67684 7.97737 5.59409 8.03254L5.24653 7.71256C5.27411 7.69601 5.32376 7.6574 5.37342 7.60775C5.54996 7.42569 5.50582 7.30431 5.13067 6.96227L4.28108 6.17887L5.73201 4.67829ZM8.63388 2.54878L8.89317 2.91842L7.71808 3.71284L7.92772 4.01076L8.97592 3.3046L9.23522 3.67423L8.18701 4.38038L8.46285 4.77208L9.63795 3.97766L9.90275 4.34728L8.25873 5.45617L6.98434 3.65768L8.63388 2.54878ZM9.97447 1.82608L11.1992 1.31301C11.6847 1.10889 12.0709 1.25785 12.2585 1.67713C12.446 2.10193 12.286 2.4881 11.8061 2.69223L11.0999 2.98462L11.3758 3.61354L10.8572 3.8287L9.97447 1.82608ZM10.9179 2.57637L11.3923 2.37776C11.7123 2.24536 11.8392 2.12951 11.7454 1.90884C11.6461 1.67713 11.4916 1.68265 11.1882 1.81505L10.6806 2.03021L10.9179 2.57637ZM15.0058 0.242743L15.1051 0.678571L13.9797 0.921314L14.3604 2.62051L13.8087 2.73636L13.3287 0.601335L15.0058 0.242743ZM18.3711 0L18.3877 0.446864L16.9588 0.496522L16.9698 0.860628L18.2442 0.816492L18.2608 1.26336L16.9864 1.30749L17.0029 1.78194L18.4318 1.73229L18.4484 2.17916L16.4568 2.25088L16.3851 0.0717218L18.3711 0ZM20.3517 0.993035L21.4164 1.17509L21.5599 0.37515L22.1116 0.468936L21.7254 2.62603L21.1737 2.53223L21.3392 1.62196L20.2744 1.4399L20.1089 2.35019L19.5517 2.25639L19.9379 0.0993077L20.4951 0.193093L20.3517 0.993035ZM23.888 1.85918L24.8865 2.25639L25.201 1.50058L25.7196 1.70471L24.87 3.7294L24.3514 3.52527L24.71 2.67016L23.7114 2.27294L23.3528 3.12806L22.8343 2.91842L23.6839 0.893728L24.2024 1.09786L23.888 1.85918ZM27.8325 2.90738L28.2794 3.20529L27.8601 5.57754L27.347 5.2355L27.4464 4.73898L26.6299 4.19833L26.194 4.47417L25.692 4.14316L27.8325 2.90738ZM27.5236 4.2535L27.667 3.53079L27.0326 3.928L27.5236 4.2535ZM32.6267 7.45879L32.4446 7.58567L32.577 7.76773C32.886 8.1815 33.0956 8.81041 32.555 9.19659C32.0695 9.53864 31.5509 9.2959 31.1537 8.76628L31.0268 8.59526L30.8061 8.74973L30.4751 8.30838L30.6958 8.15391L30.5634 7.97737C30.1662 7.44776 30.1 6.89055 30.5799 6.5485C31.1261 6.16232 31.6723 6.55403 31.9757 6.96779L32.1136 7.14985L32.2957 7.02295L32.6267 7.45879ZM31.7716 7.38155L31.6723 7.24915C31.4792 6.98434 31.1757 6.79125 30.9054 6.97883C30.6516 7.16088 30.7454 7.50292 30.944 7.76773L31.0378 7.89462L31.7716 7.38155ZM31.3688 8.347L31.4681 8.4794C31.6612 8.74421 31.9647 8.93731 32.2184 8.76077C32.4888 8.56768 32.395 8.22563 32.2019 7.96082L32.1026 7.82842L31.3688 8.347ZM34.3976 10.5482L34.6017 11.0337L32.9191 12.7991L32.6818 12.2364L33.046 11.8778L32.6653 10.9896L32.1467 10.9841L31.915 10.4379L34.3976 10.5482ZM33.3825 11.5137L33.9066 10.9841L33.1563 10.9785L33.3825 11.5137ZM35.352 13.2294L35.6003 14.5038C35.694 15.0058 35.4679 15.3479 35.0044 15.4306C34.5355 15.5189 34.1879 15.2872 34.0886 14.7797L33.9507 14.0459L33.2611 14.1728L33.1563 13.6321L35.352 13.2294ZM34.3976 13.9632L34.4914 14.4597C34.5576 14.7962 34.6458 14.9396 34.8886 14.8955C35.1424 14.8514 35.1699 14.7024 35.1093 14.3824L35.0044 13.8528L34.3976 13.9632ZM35.843 18.5421L35.3796 18.5366L35.3961 17.2457L35.021 17.2402L35.01 18.0236C35.0044 18.487 34.7286 18.7518 34.2928 18.7518C33.8625 18.7463 33.5976 18.4815 33.6032 18.018L33.6197 16.683L35.8651 16.705L35.843 18.5421ZM34.0721 17.2347L34.0666 17.825C34.0611 18.0953 34.1107 18.2001 34.3148 18.2056C34.519 18.2111 34.5521 18.0787 34.5521 17.8029L34.5576 17.2457L34.0721 17.2347ZM35.4954 20.9365L35.3796 21.4495L32.9687 21.9626L33.1011 21.3668L33.6087 21.2675L33.8183 20.3241L33.399 20.0372L33.5259 19.4635L35.4954 20.9365ZM34.0997 21.1682L34.8389 21.0247L34.2266 20.6055L34.0997 21.1682Z" fill="#9AB4C1"/>
<path fill-rule="evenodd" clip-rule="evenodd" d="M14.2614 30.6296C18.6197 31.5951 21.8857 30.8724 24.7048 29.2007C27.7225 27.4133 30.6354 24.1418 31.1705 19.0332C31.634 14.6031 29.8686 10.9013 27.2039 8.25325C25.8744 6.93472 24.2138 5.74859 22.0457 5.05347C19.872 4.35835 17.3067 4.19836 15.1551 4.63971C11.3871 5.40655 8.08802 7.90017 6.19574 11.271C3.88418 15.3921 4.16554 20.6993 5.93645 23.7666C6.68122 23.3032 7.20532 22.9722 7.87838 22.5143C6.9019 20.4676 6.5433 18.1008 6.99017 15.701C8.12112 9.68763 13.9138 5.72653 19.9327 6.85748C25.9461 7.98844 29.9017 13.7811 28.7707 19.7945C27.8659 24.6107 23.8442 28.0312 19.4031 28.6877L20.0927 27.9153C20.0927 27.9098 20.0982 27.9098 20.0982 27.9098L20.1203 27.8877C21.2843 26.6023 22.305 24.881 22.8235 22.8784C23.5683 20.0041 22.9118 17.3616 21.8471 15.2431C20.7161 12.9867 18.73 11.1992 15.8668 10.0793C15.9164 10.6255 16.1923 11.122 16.2861 11.7123C16.3799 12.2971 16.4019 12.9922 16.1426 13.7315C15.7454 14.879 14.9896 15.8003 14.6145 17.025C13.489 20.7103 14.5814 23.4687 16.2695 25.8024C17.2681 24.7376 18.1949 23.408 18.719 21.7585C19.5686 19.0773 18.9617 16.6664 18.4652 14.8459C19.3148 15.7286 19.7286 16.9202 19.9548 18.1781C20.1754 19.3973 20.2527 20.9144 19.872 22.3378C19.2265 24.7707 17.9853 26.5802 16.6336 28.0367L14.151 30.5965L14.2614 30.6296Z" fill="#9AB4C1"/>
</svg>
