<svg width="33" height="36" viewBox="0 0 33 36" fill="none" xmlns="http://www.w3.org/2000/svg">
<path d="M2.40449 23.093L2.50527 23.0363C2.56196 23.0048 2.63754 23.0363 2.67534 23.1056L3.34932 24.2583L3.65796 24.0756L3.07846 23.0804C3.04067 23.0111 3.05327 22.9292 3.10366 22.8977L3.20444 22.841C3.26113 22.8095 3.33672 22.841 3.38081 22.904L3.96031 23.8992L4.27525 23.7166L3.60127 22.5639C3.56348 22.4946 3.57608 22.419 3.62647 22.3812L3.72725 22.3182C3.78394 22.2867 3.85952 22.3119 3.90362 22.3875L4.79806 23.9118C4.83585 23.9811 4.82325 24.063 4.76656 24.0945L3.4438 24.8693C3.38711 24.9008 3.31152 24.8693 3.27373 24.8L2.37929 23.2694C2.3415 23.2064 2.3478 23.1308 2.40449 23.093Z" fill="#9AB4C1"/>
<path d="M3.48047 21.4489C3.50567 21.5245 3.47417 21.6001 3.41748 21.6253L1.96874 22.1103C1.90576 22.1292 1.83647 22.0851 1.81127 22.0095L1.72309 21.7324C1.69789 21.6568 1.72939 21.5812 1.78608 21.556L2.34668 21.367L2.2396 21.0521C2.18291 20.882 2.07582 20.7812 1.86796 20.7182L1.47113 20.5986C1.37665 20.5671 1.31366 20.4978 1.28847 20.4285L1.17509 20.0884C1.14989 20.0128 1.19398 19.9813 1.26957 20.0065L1.83647 20.1702C1.96874 20.208 2.11362 20.271 2.2207 20.46C2.1955 20.3088 2.28999 20.1136 2.36557 19.9939L2.70571 19.4774C2.7498 19.4081 2.80649 19.4144 2.83169 19.49L2.94507 19.8238C2.97026 19.8994 2.95767 20.0128 2.91357 20.0821L2.67422 20.4474C2.56714 20.6049 2.51045 20.7497 2.57344 20.9387L2.67422 21.2536L3.24112 21.0647C3.2978 21.0458 3.36709 21.0899 3.39229 21.1655L3.48047 21.4489Z" fill="#9AB4C1"/>
<path d="M1.77345 18.501C2.15138 18.457 2.33405 18.2491 2.28365 17.783C2.23326 17.3106 2.0065 17.1531 1.62857 17.1909C1.25064 17.235 1.06797 17.4428 1.11836 17.909C1.16875 18.3814 1.39551 18.5451 1.77345 18.501ZM0.784524 17.953C0.696339 17.172 0.910501 16.6933 1.55928 16.624C2.20807 16.5547 2.52301 16.9704 2.6112 17.7515C2.69938 18.5325 2.48522 19.0113 1.83643 19.0805C1.18765 19.1498 0.872708 18.7341 0.784524 17.953Z" fill="#9AB4C1"/>
<path d="M2.67037 13.7896L2.63888 14.0793C2.63258 14.1549 2.57589 14.2179 2.5066 14.2116L1.21533 14.073L1.17754 14.4447C1.15864 14.6399 1.23423 14.81 1.3791 14.873L2.38692 15.3391C2.44991 15.3706 2.4877 15.4525 2.48141 15.5344L2.44991 15.843C2.44361 15.9123 2.38692 15.9564 2.33653 15.9312L1.20274 15.4147C0.831102 15.2446 0.78701 14.7911 0.837401 14.3502L0.919287 13.588C0.925586 13.5187 0.988574 13.4683 1.04526 13.4746L2.56959 13.6384C2.63888 13.6447 2.68297 13.714 2.67037 13.7896Z" fill="#9AB4C1"/>
<path d="M2.18262 12.0761C2.54166 12.1958 2.79991 12.0887 2.95108 11.6415C3.10226 11.1943 2.96368 10.9486 2.60465 10.829C2.24561 10.7093 1.98736 10.8164 1.83618 11.2636C1.68501 11.7108 1.82359 11.9502 2.18262 12.0761ZM1.52124 11.1565C1.7732 10.4132 2.17002 10.0731 2.79361 10.281C3.4109 10.4888 3.51798 11.0053 3.26603 11.7486C3.01407 12.4919 2.61724 12.8383 1.99366 12.6241C1.37637 12.41 1.26929 11.8998 1.52124 11.1565Z" fill="#9AB4C1"/>
<path d="M2.56733 9.04628C2.51064 9.01478 2.49805 8.9329 2.54214 8.86361L3.2917 7.57864C3.3358 7.50935 3.40508 7.47786 3.46177 7.50935L3.56256 7.56604C3.61925 7.59754 3.63184 7.67942 3.58775 7.74871L3.05865 8.65575L4.17985 9.31713C4.23654 9.34862 4.24283 9.43051 4.20504 9.4998L4.06017 9.75175C4.02237 9.82104 3.94679 9.85253 3.8901 9.82104L2.56733 9.04628Z" fill="#9AB4C1"/>
<path d="M4.07295 6.72227C4.02256 6.68448 4.02256 6.59629 4.07295 6.5396L4.25562 6.31284C4.30601 6.24985 4.38789 6.23096 4.43828 6.26875L5.63507 7.22618C5.68546 7.26397 5.68546 7.35216 5.63507 7.41514L5.4587 7.6356C5.40831 7.69859 5.32642 7.71749 5.28233 7.6797L4.07295 6.72227Z" fill="#9AB4C1"/>
<path d="M5.13548 5.43082C5.09139 5.38043 5.10398 5.29854 5.16697 5.24185L5.38113 5.05289C5.44412 4.9962 5.52601 4.9899 5.5701 5.04029L5.84725 5.34893C5.97953 5.49381 6.1433 5.48121 6.31967 5.32374L6.76059 4.92691L6.28187 4.4041C6.23778 4.35371 6.25038 4.27183 6.31337 4.22143L6.52753 4.03247C6.59052 3.97578 6.6724 3.96948 6.71649 4.01987L7.74321 5.15367C7.7873 5.19776 7.76841 5.28594 7.71172 5.33633L7.49755 5.5253C7.44086 5.57569 7.35898 5.58829 7.31489 5.5379L6.99365 5.18516L6.55272 5.58199C6.1433 5.95362 5.71497 6.0733 5.41263 5.73946L5.13548 5.43082Z" fill="#9AB4C1"/>
<path d="M9.58222 3.239L8.66258 3.76181L8.97753 4.30981C9.00902 4.3665 8.97753 4.44209 8.90824 4.47988L8.65629 4.62475C8.587 4.66255 8.50511 4.64995 8.47362 4.59956L7.71146 3.2642C7.67996 3.20751 7.71146 3.13192 7.78074 3.08783L8.0327 2.94925C8.10199 2.91146 8.18387 2.91776 8.21536 2.97445L8.49252 3.45316L9.41215 2.93036L9.135 2.45164C9.10351 2.39495 9.135 2.31937 9.20429 2.28157L9.45624 2.143C9.52553 2.09891 9.60741 2.11151 9.64521 2.1682L10.4074 3.49726C10.4389 3.55395 10.4074 3.62953 10.3381 3.67362L10.0924 3.8185C10.0231 3.85629 9.94125 3.84369 9.90976 3.7933L9.58222 3.239Z" fill="#9AB4C1"/>
<path d="M13.0091 2.71586C12.9335 2.74106 12.8516 2.70956 12.839 2.64657L12.5052 1.55687L12.0706 2.87963C12.0454 2.95522 11.9698 3.03081 11.8879 3.056L11.4029 3.20717C11.3273 3.23237 11.2454 3.20088 11.2328 3.13789L10.7856 1.67025C10.7667 1.60726 10.8108 1.54427 10.8927 1.51908L11.1509 1.43719C11.2265 1.412 11.3021 1.44349 11.321 1.50648L11.68 2.68437L12.1587 1.25452C12.1839 1.18524 12.2532 1.10335 12.3288 1.08446L12.7634 0.952179C12.839 0.926984 12.9146 0.958478 12.9335 1.02147L13.3807 2.4891C13.3996 2.55209 13.3492 2.62138 13.2736 2.64028L13.0091 2.71586Z" fill="#9AB4C1"/>
<path d="M15.4306 0.0830663C15.4495 0.0452731 15.481 0.0137788 15.5314 0.0137788L15.6573 0.00118104C15.714 -0.00511783 15.7455 0.0137788 15.7455 0.0578709C15.7581 0.28463 15.5628 0.435803 15.2542 0.4547C14.9456 0.479895 14.7314 0.353918 14.7125 0.127158C14.7125 0.0830663 14.7377 0.0641697 14.7944 0.0578709L14.9204 0.051572C14.9708 0.051572 15.0085 0.0704686 15.0337 0.108262C15.0652 0.158653 15.1282 0.190147 15.2353 0.183848C15.3487 0.177549 15.4054 0.139756 15.4306 0.0830663ZM16.0983 2.30657C16.0164 2.31287 15.9534 2.26248 15.9471 2.19949L15.8652 1.05939L15.1471 2.25618C15.1093 2.31916 15.0148 2.38215 14.933 2.38845L14.4228 2.42625C14.3409 2.43254 14.2716 2.38215 14.2716 2.31916L14.1645 0.794839C14.1582 0.725551 14.2212 0.67516 14.3031 0.668861L14.5739 0.649965C14.6495 0.643666 14.7188 0.687758 14.7251 0.750747L14.8133 1.97903L15.6006 0.694057C15.6384 0.631068 15.7266 0.568079 15.8022 0.56178L16.2557 0.530286C16.3313 0.523987 16.4006 0.574378 16.4069 0.637367L16.514 2.16169C16.5203 2.22468 16.4573 2.28137 16.3754 2.28767L16.0983 2.30657Z" fill="#9AB4C1"/>
<path d="M20.4541 1.08467L20.788 1.17286C21.1974 1.28624 21.5942 1.58228 21.4997 1.92872C21.4682 2.0358 21.3486 2.0295 21.3108 2.0169L21.1281 1.96651C21.0462 1.94132 20.9832 1.89093 20.9517 1.77755C20.9139 1.64527 20.8195 1.53819 20.6368 1.4878L20.3722 1.41851C19.9313 1.29883 19.7801 1.39332 19.6731 1.79014C19.566 2.18697 19.6479 2.34445 20.0888 2.46412L20.3848 2.54601C20.5675 2.5964 20.6998 2.55231 20.8006 2.45783C20.8824 2.37594 20.9643 2.36334 21.0462 2.38224L21.2226 2.43263C21.2604 2.44523 21.3675 2.49562 21.3423 2.6027C21.2478 2.94914 20.7565 3.00583 20.347 2.89245L19.988 2.79167C19.2636 2.5964 18.9613 2.22477 19.1188 1.63267C19.2762 1.05318 19.7235 0.883108 20.4541 1.08467Z" fill="#9AB4C1"/>
<path d="M24.4818 2.89879L24.4314 2.99957C24.3999 3.05626 24.318 3.07516 24.2487 3.03736L23.0582 2.42637L22.8945 2.74132L23.9212 3.27042C23.9905 3.30822 24.0283 3.3838 23.9968 3.44049L23.9464 3.54127C23.9149 3.59796 23.833 3.61056 23.7637 3.57907L22.737 3.04996L22.5732 3.3712L23.7574 3.98219C23.8267 4.01999 23.8582 4.08927 23.833 4.14596L23.7763 4.25305C23.7448 4.30974 23.6692 4.32863 23.5936 4.29084L22.0252 3.47828C21.9496 3.44049 21.9181 3.3649 21.9496 3.30822L22.6488 1.94766C22.6803 1.89097 22.7622 1.87837 22.8315 1.91616L24.4062 2.72872C24.4755 2.76651 24.507 2.8421 24.4818 2.89879Z" fill="#9AB4C1"/>
<path d="M25.6831 4.04513L25.2548 4.56794L25.6894 4.92068C25.9225 5.10964 26.1303 5.21672 26.313 4.98996C26.4957 4.7695 26.3508 4.58684 26.1177 4.39787L25.6831 4.04513ZM26.4705 4.2404C26.924 4.61203 27.0563 4.98996 26.7602 5.3553C26.4579 5.72063 26.0611 5.67024 25.6075 5.29861L25.0343 4.83879L24.858 5.05295C24.8202 5.10334 24.7383 5.10334 24.6753 5.05295L24.4485 4.87028C24.3856 4.81989 24.3667 4.73801 24.4107 4.68762L25.3745 3.50343C25.4186 3.45304 25.4942 3.45304 25.5571 3.50343L26.4705 4.2404Z" fill="#9AB4C1"/>
<path d="M29.1477 7.10001C29.1981 7.163 29.1981 7.24488 29.1477 7.28268L29.0595 7.35826C29.0091 7.40236 28.9272 7.38346 28.8768 7.32047L28.4422 6.79137L27.4344 7.61022C27.384 7.64801 27.3021 7.62912 27.2517 7.57243L27.069 7.34567C27.0187 7.28268 27.0187 7.20079 27.069 7.163L28.0769 6.34415L27.6422 5.80874C27.5918 5.74575 27.5918 5.66387 27.6422 5.62608L27.7304 5.55049C27.7808 5.5064 27.8627 5.52529 27.9131 5.58828L29.1477 7.10001Z" fill="#9AB4C1"/>
<path d="M29.0841 10.5392C29.0463 10.4699 29.0652 10.388 29.1219 10.3566L30.1423 9.84005L28.7629 9.64478C28.6873 9.63218 28.5991 9.56919 28.5613 9.49991L28.3283 9.04639C28.2905 8.9708 28.3094 8.89522 28.366 8.86372L29.7329 8.17085C29.7896 8.13935 29.8652 8.17085 29.903 8.24643L30.029 8.48579C30.0667 8.55508 30.0541 8.63696 29.9975 8.66846L28.9015 9.22906L30.3943 9.44952C30.4699 9.46211 30.5581 9.5188 30.5959 9.58179L30.8037 9.98492C30.8415 10.0542 30.8226 10.1361 30.7659 10.1613L29.3991 10.8542C29.3424 10.8794 29.2668 10.8479 29.229 10.7786L29.0841 10.5392Z" fill="#9AB4C1"/>
<path d="M30.4334 13.1154C30.5153 13.4555 30.6854 13.6571 30.9499 13.5878C31.2145 13.5248 31.2774 13.2729 31.1956 12.9327L30.4334 13.1154ZM31.0633 12.4036C30.9814 12.0635 30.8113 11.8682 30.5468 11.9312C30.2822 11.9942 30.2192 12.2462 30.3011 12.5863L31.0633 12.4036ZM31.7121 12.6745C31.731 12.7564 31.6995 12.832 31.6302 12.8446L31.5105 12.8698C31.6617 13.4996 31.5924 14.0287 31.0759 14.1547C30.5594 14.2807 30.257 13.8398 30.1059 13.2099L29.9862 13.2414C29.9232 13.254 29.8602 13.2036 29.8413 13.128L29.7783 12.8509C29.7594 12.769 29.7972 12.6934 29.8602 12.6808L29.9799 12.6556C29.8287 12.0257 29.898 11.4966 30.4145 11.3706C30.931 11.2446 31.2334 11.6856 31.3845 12.3155L31.5042 12.2903C31.5672 12.2714 31.6302 12.3281 31.6491 12.4036L31.7121 12.6745Z" fill="#9AB4C1"/>
<path d="M31.878 15.0366C31.941 15.0303 31.9977 15.0933 32.004 15.1751L32.0229 15.4649C32.0292 15.5468 31.9788 15.6161 31.9158 15.6224L30.3852 15.7105C30.3222 15.7168 30.2655 15.6476 30.2592 15.5657L30.2466 15.2822C30.2403 15.2003 30.2907 15.131 30.3537 15.131L31.878 15.0366Z" fill="#9AB4C1"/>
<path d="M30.2864 16.7813C30.2927 16.6994 30.3557 16.6427 30.4187 16.649L31.9367 16.8065C31.9997 16.8128 32.0501 16.882 32.0375 16.9639L32.006 17.2537C31.9997 17.3293 31.9367 17.3923 31.8737 17.386L31.2879 17.323L31.2564 17.6505C31.2375 17.8269 31.2942 17.9655 31.458 18.104L31.7729 18.3749C31.8485 18.4379 31.8737 18.5261 31.8674 18.6079L31.8296 18.9607C31.8233 19.0426 31.7729 19.0489 31.71 18.9922L31.2627 18.6079C31.1557 18.5198 31.0486 18.4001 31.036 18.1859C30.9982 18.3371 30.8281 18.4757 30.7084 18.5512L30.1793 18.8851C30.11 18.9292 30.0597 18.8977 30.0722 18.8158L30.11 18.4631C30.1163 18.3875 30.1793 18.2867 30.2486 18.2426L30.6202 18.0095C30.7777 17.9088 30.8974 17.8017 30.9163 17.6064L30.9478 17.2789L30.3557 17.2159C30.2927 17.2096 30.2486 17.1403 30.2549 17.0584L30.2864 16.7813Z" fill="#9AB4C1"/>
<path d="M30.4454 20.3969L30.1367 21.3228L30.7477 21.5244L30.8863 21.1087C30.9493 20.9197 30.9115 20.7371 30.7792 20.6426L30.4454 20.3969ZM31.0626 20.1576C31.3902 20.4032 31.3335 20.8504 31.1949 21.2788L30.9367 22.0661C30.9115 22.1354 30.8422 22.1732 30.7855 22.1543L29.3305 21.6693C29.2675 21.6504 29.2423 21.5685 29.2675 21.4929L29.3619 21.2158C29.3871 21.1402 29.4564 21.0961 29.5194 21.115L29.8092 21.2158L30.1556 20.1765L29.8911 19.9812C29.8344 19.9371 29.8092 19.8489 29.8407 19.7733L29.9351 19.4836C29.9603 19.408 30.0233 19.3765 30.0737 19.4206L31.0626 20.1576Z" fill="#9AB4C1"/>
<path d="M29.3933 24.97C29.3492 25.0393 29.2736 25.0708 29.2232 25.033L29.1224 24.9763C29.0657 24.9448 29.0531 24.8629 29.0972 24.7936L29.4437 24.2015L28.3225 23.5402C28.2658 23.5087 28.2595 23.4268 28.2973 23.3575L28.4421 23.1055C28.4799 23.0363 28.5618 23.0048 28.6122 23.0363L29.7334 23.6976L30.0798 23.1055C30.1176 23.0363 30.1932 23.0048 30.2499 23.0426L30.3507 23.0992C30.4074 23.1307 30.42 23.2126 30.3759 23.2819L29.3933 24.97Z" fill="#9AB4C1"/>
<path d="M9.05439 28.0942L9.27485 28.2265C9.5457 28.3966 9.75356 28.7178 9.58349 28.995C9.5268 29.0832 9.44492 29.058 9.41972 29.0391L9.30634 28.9698C9.24965 28.9383 9.21816 28.8816 9.23075 28.7808C9.24335 28.6611 9.19926 28.5541 9.07958 28.4785L8.90321 28.3714C8.61347 28.195 8.46859 28.2517 8.27333 28.5666C8.07806 28.8879 8.09066 29.0391 8.38041 29.2154L8.57567 29.3351C8.69535 29.4107 8.80873 29.3981 8.90951 29.3351C8.9977 29.2784 9.06069 29.2784 9.11738 29.3162L9.23705 29.3855C9.26225 29.4044 9.32524 29.4674 9.27485 29.5556C9.10478 29.8327 8.72685 29.7949 8.4497 29.6312L8.21034 29.4863C7.73162 29.1902 7.61824 28.8249 7.90799 28.3462C8.19774 27.8612 8.57567 27.7982 9.05439 28.0942Z" fill="#9AB4C1"/>
<path d="M9.94832 29.524C9.80975 29.839 9.86014 30.072 10.1814 30.2169C10.5026 30.3618 10.7105 30.2421 10.8491 29.9272C10.9876 29.6122 10.9372 29.3792 10.616 29.2343C10.2948 29.0894 10.0869 29.2028 9.94832 29.524ZM10.742 28.9508C11.2837 29.1902 11.4915 29.5492 11.2522 30.0972C11.0128 30.6452 10.6034 30.7271 10.0617 30.4941C9.52 30.2547 9.31214 29.8957 9.5515 29.3477C9.79715 28.7997 10.2003 28.7115 10.742 28.9508Z" fill="#9AB4C1"/>
<path d="M11.613 30.6956C11.676 30.7145 11.7263 30.7523 11.7956 30.7712L11.8145 30.7775C11.9594 30.8216 12.0917 30.7586 12.1988 30.5886L12.1043 30.5634C11.72 30.45 11.5941 30.2421 11.5437 29.8831L11.487 29.4422C11.4807 29.3792 11.5248 29.3414 11.5815 29.3603L11.8145 29.4296C11.8838 29.4485 11.9279 29.5115 11.9342 29.5682L11.972 29.9083C11.9909 30.091 12.0665 30.2169 12.2617 30.2736L12.394 30.3114L12.7531 29.8138C12.7972 29.7571 12.8664 29.7382 12.9231 29.7571L13.1499 29.8264C13.2066 29.8453 13.2255 29.8957 13.1877 29.9461L12.5263 30.8468C12.3562 31.0799 12.1295 31.2059 11.7452 31.0925L11.4807 31.0106C11.424 30.9917 11.3925 30.935 11.4051 30.8783L11.4429 30.7586C11.4618 30.7019 11.5185 30.6705 11.5752 30.6894L11.613 30.6956Z" fill="#9AB4C1"/>
<path d="M14.3269 30.8469C14.2891 31.1934 14.4088 31.3949 14.7615 31.4327C15.1142 31.4705 15.2717 31.2942 15.3095 30.9477C15.3473 30.6076 15.2276 30.3997 14.8749 30.3619C14.5222 30.3304 14.3647 30.5068 14.3269 30.8469ZM14.9064 30.0659C15.4922 30.1289 15.8008 30.406 15.7441 30.9981C15.6811 31.5965 15.3221 31.7981 14.7363 31.7414C14.1505 31.6784 13.8356 31.4012 13.8986 30.8091C13.9616 30.2107 14.3206 30.0029 14.9064 30.0659Z" fill="#9AB4C1"/>
<path d="M17.5317 30.261V30.3681C17.5317 30.4311 17.4814 30.4752 17.4247 30.4752L16.4106 30.4941L16.4168 30.8216L17.2924 30.8027C17.3491 30.8027 17.4058 30.8468 17.4058 30.9035V31.0106C17.4058 31.0673 17.3554 31.1177 17.2987 31.1177L16.4231 31.1366L16.4294 31.4704L17.4436 31.4452C17.5003 31.4452 17.5506 31.4893 17.5506 31.546V31.6531C17.5506 31.7097 17.5066 31.7601 17.4436 31.7601L16.1019 31.7916C16.0389 31.7916 15.9885 31.7475 15.9885 31.6846L15.957 30.2862C15.957 30.2295 16.0011 30.1791 16.0641 30.1791L17.4121 30.1476C17.4814 30.1539 17.5317 30.198 17.5317 30.261Z" fill="#9AB4C1"/>
<path d="M18.8883 31.59C18.8317 31.6026 18.7624 31.5649 18.7309 31.5145L18.1451 30.494L18.3277 31.5775C18.3403 31.6341 18.2963 31.6908 18.2396 31.7034L18.0317 31.7349C17.9687 31.7475 17.912 31.7097 17.9057 31.6467L17.6727 30.2673C17.6664 30.2106 17.6979 30.1539 17.7608 30.1413L18.227 30.0594C18.29 30.0468 18.3529 30.0846 18.3844 30.1413L18.882 31.0357L19.0647 30.0279C19.0773 29.9712 19.1277 29.9083 19.1844 29.902L19.6568 29.8201C19.7135 29.8138 19.7702 29.8516 19.7828 29.9082L20.0158 31.2877C20.0284 31.3444 19.9844 31.4011 19.9214 31.4137L19.7135 31.4452C19.6505 31.4578 19.5938 31.42 19.5875 31.357L19.4049 30.2736L19.1781 31.4326C19.1655 31.4893 19.1151 31.546 19.0521 31.5586L18.8883 31.59Z" fill="#9AB4C1"/>
<path d="M21.3304 30.1414C21.469 30.4941 21.6894 30.5382 21.9162 30.45C22.1429 30.3618 22.2815 30.1855 22.1429 29.8264C22.0044 29.4737 21.7839 29.4296 21.5571 29.5178C21.3304 29.606 21.1918 29.7886 21.3304 30.1414ZM21.4753 29.2091C21.9036 29.0391 22.3193 29.0895 22.5461 29.6689C22.7728 30.2484 22.4957 30.5634 22.0674 30.7272L21.9918 30.7587C21.5634 30.9224 21.1477 30.8783 20.921 30.2988C20.6942 29.7193 20.9713 29.4044 21.3997 29.2406L21.4753 29.2091Z" fill="#9AB4C1"/>
<path d="M22.8185 28.6106C22.8752 28.5854 22.9382 28.6043 22.9634 28.6547L23.5933 29.9082C23.6185 29.9585 23.5996 30.0278 23.5429 30.053L23.3539 30.1475C23.2972 30.1727 23.2342 30.1538 23.209 30.1034L22.7177 29.1334L22.6421 29.2783C22.6232 29.3098 22.5791 29.3224 22.5413 29.3098L22.4154 29.2531C22.365 29.2279 22.3776 29.1901 22.3902 29.1523L22.535 28.8121C22.5602 28.7555 22.6106 28.7177 22.661 28.6862L22.8185 28.6106Z" fill="#9AB4C1"/>
<path d="M24.4104 28.4659L24.3411 28.3462C24.2403 28.1824 24.1396 28.195 23.9821 28.2895L23.8372 28.3777C23.6797 28.4722 23.6294 28.5603 23.7049 28.68C23.7805 28.806 23.8813 28.7871 24.0388 28.6926L24.4104 28.4659ZM24.1648 28.995C23.8057 29.2154 23.5286 29.2406 23.327 28.9194C23.1317 28.5981 23.2703 28.3588 23.6294 28.1383L23.8435 28.006C24.1963 27.7856 24.4797 27.7604 24.7002 28.1257L24.9647 28.5478C25.2041 28.9257 25.0592 29.1713 24.7065 29.3918L24.4671 29.543C24.1774 29.7256 23.8624 29.7193 23.7427 29.5304C23.686 29.4422 23.749 29.3792 23.7805 29.3603L23.8939 29.2847C23.9506 29.2532 24.001 29.2532 24.0829 29.291C24.1459 29.3225 24.234 29.3099 24.3348 29.2469L24.5175 29.1335C24.6687 29.0391 24.7191 28.9509 24.6057 28.7682L24.5805 28.7304L24.1648 28.995Z" fill="#9AB4C1"/>
<path d="M7.35235 10.955C7.72398 9.87157 8.28458 8.84486 9.03414 7.91893C9.75222 7.03708 10.5774 6.31901 11.4781 5.77101C10.2687 6.3883 9.16642 7.27644 8.23419 8.42284C7.72398 9.05272 7.29566 9.733 6.94922 10.4385L7.35235 10.955Z" fill="#9AB4C1"/>
<path d="M6.98955 12.3092C7.01474 12.1643 6.81318 12.1013 6.6998 11.8998C6.58012 11.6793 6.55493 11.3329 6.51713 11.4336C4.97391 15.5531 5.95653 20.4347 9.28234 23.496C9.35792 23.5653 9.40202 23.5905 9.4839 23.6597C9.4839 23.6597 10.0382 23.3448 10.2776 23.181C10.5169 23.0173 10.983 22.6708 10.983 22.6708C10.6429 22.4315 10.3154 22.1732 10.0004 21.8835C7.34858 19.4395 6.30927 15.7358 6.98955 12.3092Z" fill="#9AB4C1"/>
<path d="M23.5 20.3341C23.6764 20.3782 23.9283 20.4349 24.1425 20.4664C24.3189 20.4916 24.5078 20.4916 24.659 20.479C26.4857 16.876 26.2085 12.4479 23.9661 9.13472C25.9503 12.5487 25.8495 17.0146 23.5 20.3341Z" fill="#9AB4C1"/>
<path d="M23.2076 21.6568C23.2076 21.6568 22.6092 21.4237 22.4958 21.5371C19.7873 24.3275 15.8946 25.0707 12.531 23.5401C12.531 23.5401 12.1531 23.8551 11.7877 24.1763C11.435 24.4912 11.0508 24.7999 11.0508 24.7999C15.1073 27.1494 20.2849 26.2549 23.4218 22.3811C23.6422 22.1103 23.8501 21.8268 24.039 21.5371C24.102 21.4426 23.2076 21.6568 23.2076 21.6568Z" fill="#9AB4C1"/>
<path d="M26.8561 20.0758C26.6419 20.3655 26.2136 21.0017 25.5585 21.5056C24.916 22.0032 23.5618 23.0047 21.6532 23.1055C20.8155 23.1244 20.7966 23.0425 20.3493 22.9858C20.0848 22.9291 18.3589 22.5386 16.5511 21.4489C15.5433 20.9576 14.5607 21.0584 14.3213 21.3166C13.9623 21.7135 13.6599 22.0032 13.471 22.2174C12.7277 23.0236 8.69643 26.2172 8.02245 26.8155C8.09174 26.7211 8.53266 25.8077 8.69643 24.4283C10.7247 23.2189 12.1986 22.0725 13.2883 20.9828C13.408 20.8694 13.5529 20.5923 13.4206 20.3718C13.2694 19.5907 12.6584 18.9735 11.6947 18.5892C9.80503 17.8397 8.19882 16.8696 7.35477 15.5091C6.81936 14.6902 6.39104 13.8147 6.15168 12.7943C5.40212 9.62593 6.18318 8.26538 6.35325 7.93784C6.15798 9.43067 6.68709 10.4952 7.46185 11.2951C8.24291 12.0951 9.11845 12.5927 10.1137 13.021C11.7073 13.7076 12.6332 14.8225 13.2379 16.1012C13.8426 17.3861 13.9434 18.8727 13.9434 18.8727C13.7607 18.394 13.4143 17.5562 13.0363 16.9452C12.6143 16.2586 11.6254 15.1878 10.5861 14.5454C9.66645 13.9785 8.8413 13.695 8.22401 13.1848C7.32327 12.4478 6.65559 11.4337 6.29656 10.4889C6.32175 11.0684 6.86346 11.9754 7.14061 12.4352C8.19252 13.8651 8.8413 13.9596 10.2648 14.8918C11.449 15.6665 12.3939 16.7626 12.8789 17.4743C13.3639 18.1861 13.9434 19.597 13.8426 20.4096C15.6819 18.2932 16.2551 16.2523 16.5826 14.6083C17.1054 11.9502 17.3826 10.7219 18.044 9.7897C18.3778 9.28579 18.592 8.92676 19.0581 8.52363C19.2911 8.32207 19.3919 8.19609 19.6565 8.08901C19.858 8.00712 20.3619 7.84335 21.0485 8.09531C21.9807 8.18349 23.4169 8.24648 24.6641 8.49843L22.9319 8.47954C22.3209 8.47954 21.2816 8.61811 20.9414 8.66221C19.9147 8.74409 19.2029 9.30469 18.6423 10.1991C18.0691 11.0684 17.7605 12.2085 17.2377 14.8603C16.8472 17.4932 15.726 19.4648 14.8567 20.6427C14.8567 20.6427 16.3244 19.7797 17.4393 19.8742C18.5542 19.9687 20.2549 20.6679 20.2549 20.6679C21.943 21.4678 22.7303 21.4993 23.3854 21.5182C24.0405 21.5371 24.9349 21.2473 25.2373 21.1088C24.4499 21.3544 23.4862 21.4678 22.4028 21.2159C21.269 20.9513 19.8139 20.0821 19.1651 19.849C17.0991 19.1561 16.1102 19.6159 16.1102 19.6159C16.1102 19.6159 16.8094 19.0805 17.6156 18.816C19.1337 18.3499 19.9714 18.8412 21.0044 19.4144C21.987 19.9624 22.9004 20.4285 23.9271 20.6112C24.9349 20.8001 25.7979 20.523 26.8561 20.0758Z" fill="#9AB4C1"/>
<path d="M7.65704 35.1173C7.8649 35.1173 7.95308 35.0102 7.95308 34.7897V33.9205C7.95308 33.8638 8.00347 33.8134 8.06016 33.8134H8.26803C8.32472 33.8134 8.37511 33.8575 8.37511 33.9205V34.7897C8.37511 35.1992 8.13575 35.4385 7.66334 35.4385H7.46177C6.98936 35.4385 6.75 35.1992 6.75 34.7897V33.9205C6.75 33.8638 6.80039 33.8134 6.85708 33.8134H7.06494C7.12163 33.8134 7.17202 33.8575 7.17202 33.9205V34.7897C7.17202 35.0102 7.26651 35.1173 7.46807 35.1173H7.65704Z" fill="#9AB4C1"/>
<path d="M9.08551 34.7205H9.80358V34.1347H9.48233C9.33746 34.1347 9.22408 34.2229 9.18629 34.3615L9.08551 34.7205ZM8.77686 34.2544C8.87134 33.9017 9.19259 33.8198 9.52643 33.8198H10.1311C10.1878 33.8198 10.2256 33.8702 10.2256 33.9206V35.3252C10.2256 35.3819 10.1752 35.4323 10.1185 35.4323H9.90436C9.84767 35.4323 9.79728 35.3882 9.79728 35.3252V35.0418H8.99732L8.92173 35.3252C8.90284 35.3819 8.84615 35.4323 8.78946 35.4323H8.569C8.50601 35.4323 8.47451 35.3882 8.48711 35.3252L8.77686 34.2544Z" fill="#9AB4C1"/>
<path d="M10.4844 35.2183C10.4844 35.1238 10.5411 35.0671 10.6355 35.0671H10.7741C10.8686 35.0671 10.9253 35.1238 10.9253 35.2183V35.2876C10.9253 35.3821 10.8686 35.4387 10.7741 35.4387H10.6355C10.5411 35.4387 10.4844 35.3821 10.4844 35.2876V35.2183Z" fill="#9AB4C1"/>
<path d="M11.5119 34.626C11.5119 35.004 11.7008 35.1236 11.9339 35.1236C12.1732 35.1236 12.3559 35.004 12.3559 34.626C12.3559 34.2418 12.167 34.1284 11.9339 34.1284C11.6945 34.1284 11.5119 34.2418 11.5119 34.626ZM11.9717 33.8072C12.4189 33.8072 12.7779 34.0024 12.7779 34.626C12.7779 35.2433 12.4189 35.4386 11.9717 35.4386H11.8961C11.4489 35.4386 11.0898 35.2433 11.0898 34.626C11.0898 34.0024 11.4489 33.8072 11.8961 33.8072H11.9717Z" fill="#9AB4C1"/>
<path d="M13.6573 34.1284C13.481 34.1284 13.3928 34.1662 13.3928 34.2922C13.3928 34.4182 13.481 34.456 13.6573 34.456H13.7707C13.9471 34.456 14.0353 34.4119 14.0353 34.2922C14.0353 34.1662 13.9471 34.1284 13.7707 34.1284H13.6573ZM13.8274 35.1173C14.0038 35.1173 14.0982 35.0795 14.0982 34.941C14.0982 34.8024 14.0101 34.7646 13.8274 34.7646H13.6069C13.4306 34.7646 13.3424 34.8087 13.3424 34.941C13.3424 35.0732 13.4306 35.1173 13.6069 35.1173H13.8274ZM13.8274 33.8072C14.1612 33.8072 14.4573 33.9332 14.4573 34.2733C14.4573 34.393 14.4195 34.4812 14.3061 34.5693C14.4573 34.6512 14.5203 34.7898 14.5203 34.941C14.5203 35.2685 14.2368 35.4323 13.8778 35.4323H13.5565C13.1975 35.4323 12.9141 35.2685 12.9141 34.941C12.9141 34.7898 12.9771 34.6512 13.1282 34.5693C13.0148 34.4749 12.9771 34.3867 12.9771 34.2733C12.9771 33.9332 13.2731 33.8072 13.6069 33.8072H13.8274Z" fill="#9AB4C1"/>
<path d="M14.6875 35.2183C14.6875 35.1238 14.7442 35.0671 14.8387 35.0671H14.9772C15.0717 35.0671 15.1284 35.1238 15.1284 35.2183V35.2876C15.1284 35.3821 15.0717 35.4387 14.9772 35.4387H14.8387C14.7442 35.4387 14.6875 35.3821 14.6875 35.2876V35.2183Z" fill="#9AB4C1"/>
<path d="M15.7135 34.626C15.7135 35.004 15.9024 35.1236 16.1355 35.1236C16.3749 35.1236 16.5575 35.004 16.5575 34.626C16.5575 34.2418 16.3686 34.1284 16.1355 34.1284C15.9024 34.1284 15.7135 34.2418 15.7135 34.626ZM16.1733 33.8072C16.6205 33.8072 16.9796 34.0024 16.9796 34.626C16.9796 35.2433 16.6205 35.4386 16.1733 35.4386H16.0914C15.6442 35.4386 15.2852 35.2433 15.2852 34.626C15.2852 34.0024 15.6442 33.8072 16.0914 33.8072H16.1733Z" fill="#9AB4C1"/>
<path d="M17.547 34.626C17.547 35.004 17.736 35.1236 17.969 35.1236C18.2084 35.1236 18.3911 35.004 18.3911 34.626C18.3911 34.2418 18.2021 34.1284 17.969 34.1284C17.736 34.1284 17.547 34.2418 17.547 34.626ZM18.0131 33.8072C18.4604 33.8072 18.8194 34.0024 18.8194 34.626C18.8194 35.2433 18.4604 35.4386 18.0131 35.4386H17.9313C17.484 35.4386 17.125 35.2433 17.125 34.626C17.125 34.0024 17.484 33.8072 17.9313 33.8072H18.0131Z" fill="#9AB4C1"/>
<path d="M20.0145 34.3425C20.0145 34.1724 19.9263 34.1221 19.731 34.1221H19.6491C19.5106 34.1221 19.4161 34.1598 19.3657 34.2606C19.3279 34.3362 19.2775 34.3677 19.2145 34.3677H19.0822C19.0507 34.3677 18.9689 34.3488 18.9689 34.2417C18.9689 33.9709 19.3027 33.8008 19.6176 33.8008H19.7688C20.1405 33.8008 20.4428 33.9142 20.4428 34.3362C20.4428 34.985 19.3909 34.8464 19.3909 35.1047H20.3231C20.3798 35.1047 20.4302 35.1488 20.4302 35.2118V35.3188C20.4302 35.3755 20.3798 35.4259 20.3231 35.4259H19.0759C19.013 35.4259 18.9689 35.3755 18.9689 35.3188V35.1551C18.9563 34.4622 20.0145 34.6575 20.0145 34.3425Z" fill="#9AB4C1"/>
<path d="M20.6016 35.2183C20.6016 35.1238 20.6583 35.0671 20.7527 35.0671H20.8913C20.9858 35.0671 21.0425 35.1238 21.0425 35.2183V35.2876C21.0425 35.3821 20.9858 35.4387 20.8913 35.4387H20.7527C20.6583 35.4387 20.6016 35.3821 20.6016 35.2876V35.2183Z" fill="#9AB4C1"/>
<path d="M21.9119 34.1284C21.7733 34.1284 21.6725 34.1662 21.6221 34.267C21.5843 34.3426 21.5339 34.3741 21.4709 34.3741H21.3387C21.3072 34.3741 21.2253 34.3552 21.2253 34.2481C21.2253 33.9772 21.5591 33.8072 21.8741 33.8072H22.0253C22.4032 33.8072 22.7055 33.9206 22.7055 34.2985C22.7055 34.4182 22.6551 34.5378 22.5481 34.6197C22.6803 34.7016 22.7244 34.8087 22.7244 34.941C22.7244 35.3063 22.4788 35.4323 22.0756 35.4323H21.8363C21.5213 35.4323 21.1875 35.2622 21.1875 34.9851C21.1875 34.878 21.2757 34.8591 21.3009 34.8591H21.4332C21.4961 34.8591 21.5528 34.8843 21.5969 34.9851C21.6347 35.067 21.7355 35.1173 21.8741 35.1173H22.0315C22.2079 35.1173 22.2961 35.0795 22.2961 34.941C22.2961 34.8087 22.2079 34.7709 22.0315 34.7709H21.83C21.7733 34.7709 21.7229 34.7268 21.7229 34.6638V34.5693C21.7229 34.5126 21.767 34.4623 21.8237 34.4623H21.9875C22.1827 34.4623 22.2709 34.4182 22.2709 34.2859C22.2709 34.1599 22.1827 34.1158 21.9875 34.1158H21.9119V34.1284Z" fill="#9AB4C1"/>
<path d="M23.5798 34.1284C23.4413 34.1284 23.3468 34.1662 23.2964 34.267C23.2586 34.3426 23.2082 34.3741 23.1452 34.3741H23.0129C22.9814 34.3741 22.8996 34.3552 22.8996 34.2481C22.8996 33.9772 23.2334 33.8072 23.5483 33.8072H23.6995C24.0774 33.8072 24.3798 33.9206 24.3798 34.2985C24.3798 34.4182 24.3294 34.5378 24.2223 34.6197C24.3546 34.7016 24.3987 34.8087 24.3987 34.941C24.3987 35.3063 24.153 35.4323 23.7436 35.4323H23.5043C23.1893 35.4323 22.8555 35.2622 22.8555 34.9851C22.8555 34.878 22.9374 34.8591 22.9688 34.8591H23.1011C23.1641 34.8591 23.2208 34.8843 23.2649 34.9851C23.3027 35.067 23.4035 35.1173 23.542 35.1173H23.7058C23.8822 35.1173 23.9704 35.0795 23.9704 34.941C23.9704 34.8087 23.8822 34.7709 23.7058 34.7709H23.5043C23.4476 34.7709 23.3972 34.7268 23.3972 34.6638V34.5693C23.3972 34.5126 23.4413 34.4623 23.498 34.4623H23.6617C23.857 34.4623 23.9452 34.4182 23.9452 34.2859C23.9452 34.1599 23.857 34.1158 23.6617 34.1158H23.5798V34.1284Z" fill="#9AB4C1"/>
<path d="M25.2415 34.1284C25.1029 34.1284 25.0085 34.1662 24.9581 34.267C24.9203 34.3426 24.8699 34.3741 24.8069 34.3741H24.6746C24.6431 34.3741 24.5612 34.3552 24.5612 34.2481C24.5612 33.9772 24.8951 33.8072 25.21 33.8072H25.3675C25.7454 33.8072 26.0478 33.9206 26.0478 34.2985C26.0478 34.4182 25.9974 34.5378 25.8903 34.6197C26.0226 34.7016 26.0667 34.8087 26.0667 34.941C26.0667 35.3063 25.821 35.4323 25.4116 35.4323H25.1722C24.8573 35.4323 24.5234 35.2622 24.5234 34.9851C24.5234 34.878 24.6116 34.8591 24.6368 34.8591H24.7691C24.8321 34.8591 24.8888 34.8843 24.9329 34.9851C24.9707 35.067 25.0714 35.1173 25.21 35.1173H25.3675C25.5439 35.1173 25.632 35.0795 25.632 34.941C25.632 34.8087 25.5439 34.7709 25.3675 34.7709H25.1659C25.1092 34.7709 25.0588 34.7268 25.0588 34.6638V34.5693C25.0588 34.5126 25.1029 34.4623 25.1596 34.4623H25.3234C25.525 34.4623 25.6068 34.4182 25.6068 34.2859C25.6068 34.1599 25.5187 34.1158 25.3234 34.1158H25.2415V34.1284Z" fill="#9AB4C1"/>
</svg>
