<svg width="70" height="25" viewBox="0 0 70 25" fill="none" xmlns="http://www.w3.org/2000/svg">
<path d="M69.2432 20.9606C69.2432 22.567 67.9335 23.8767 66.3271 23.8767H23.2094V1.74488H66.3271C67.9335 1.74488 69.2432 3.05458 69.2432 4.66101V20.9606ZM18.4822 16.8985C18.4822 16.8985 17.6227 17.6863 17.3056 17.9114C16.927 18.1672 15.9856 18.7402 14.3587 18.9858C13.9392 19.0472 13.1002 19.037 12.6807 18.9858C11.2687 18.8221 8.08652 17.8808 8.08652 17.8808V14.586V13.7368V13.1229H8.69021H10.1534H13.7448C14.0825 13.1229 14.3485 13.3991 14.3485 13.7368V14.586C14.3485 14.9237 14.0722 15.1897 13.7448 15.1897H11.4119C11.4119 15.1897 12.0668 15.8343 12.6091 16.1413C12.957 16.3357 13.7346 16.5506 14.1336 16.5813C14.4099 16.6017 14.9829 16.5608 15.2387 16.4585C15.5763 16.3153 16.3437 15.5069 16.3437 15.5069L16.9781 14.9237C17.1521 14.76 17.4283 14.7805 17.5716 14.9646L18.5436 16.1925C18.7176 16.3971 18.6869 16.7143 18.4822 16.8985ZM7.49307 19.0063H5.4262V12.509H7.49307V19.0063ZM11.811 8.92775C12.2407 7.84316 12.8956 6.89158 13.5299 5.91954C13.8062 5.50003 14.0109 5.47956 14.2871 5.9093C14.6657 6.50276 15.8731 8.5287 16.0368 8.9789C16.4051 10.0123 16.1084 11.0458 15.2899 11.6597C14.4713 12.2634 13.3151 12.2531 12.4965 11.629C11.678 10.9946 11.4017 9.95095 11.811 8.92775ZM66.3271 0.977478H4.50532C2.47938 0.977478 0.832031 2.62484 0.832031 4.66101V20.9606C0.832031 22.9968 2.47938 24.6339 4.50532 24.6339H66.3271C68.353 24.6339 70.0004 22.9865 70.0004 20.9606V4.66101C70.0004 2.62484 68.353 0.977478 66.3271 0.977478Z" fill="#9AB4C1"/>
<path d="M29.3154 5.32608V7.89432H28.7322V5.80699H27.8215V7.89432H27.2383V5.32608H29.3154Z" fill="#9AB4C1"/>
<path d="M30.3933 6.52313C30.4445 6.53336 30.5059 6.54359 30.5877 6.54359C30.8947 6.54359 31.0891 6.39011 31.0891 6.12408C31.0891 5.88874 30.9254 5.74549 30.6389 5.74549C30.5161 5.74549 30.4342 5.75572 30.3933 5.76595V6.52313ZM29.8203 5.36691C30.0045 5.33621 30.2501 5.31575 30.6082 5.31575C30.9663 5.31575 31.2221 5.38737 31.396 5.52039C31.5598 5.6534 31.6723 5.86828 31.6723 6.11385C31.6723 6.36965 31.5904 6.57428 31.437 6.72776C31.2426 6.91194 30.9458 6.9938 30.5979 6.9938C30.5263 6.9938 30.4547 6.9938 30.4035 6.98356V7.90445H29.8305V5.36691H29.8203Z" fill="#9AB4C1"/>
<path d="M32.5217 6.61528C32.5217 7.11665 32.757 7.47477 33.1458 7.47477C33.5346 7.47477 33.7597 7.09618 33.7597 6.60504C33.7597 6.1446 33.5346 5.74556 33.1356 5.74556C32.757 5.74556 32.5217 6.12414 32.5217 6.61528ZM34.3839 6.58458C34.3839 7.42361 33.8723 7.93521 33.1253 7.93521C32.3682 7.93521 31.918 7.36222 31.918 6.62551C31.918 5.85811 32.4091 5.27489 33.1663 5.27489C33.9541 5.28512 34.3839 5.87857 34.3839 6.58458Z" fill="#9AB4C1"/>
<path d="M35.5675 6.14464C35.5675 6.44137 35.5266 6.72787 35.4549 6.9939C35.414 7.14738 35.3424 7.30086 35.2708 7.42364H36.1302V5.79676H35.5675V6.14464ZM36.7135 5.32608V7.43388L36.9693 7.45434L36.9386 8.54916H36.4986L36.4679 7.89432H34.9638L34.9331 8.54916H34.4931L34.4727 7.45434L34.6875 7.43388C34.7898 7.2497 34.8717 7.06552 34.9331 6.86088C35.0047 6.60508 35.0354 6.31859 35.0354 6.01163V5.32608H36.7135Z" fill="#9AB4C1"/>
<path d="M37.6651 5.32601L38.0437 6.22643C38.1153 6.41061 38.1665 6.56409 38.2176 6.71757H38.2278C38.2585 6.60501 38.3097 6.43107 38.3711 6.2162L38.6474 5.31579H39.2613L38.7804 6.56409C38.6269 6.96314 38.4632 7.35196 38.2688 7.58729C38.0948 7.80217 37.8902 7.92494 37.5832 7.92494C37.4502 7.92494 37.3684 7.91471 37.2967 7.88401L37.3377 7.41334C37.3786 7.42358 37.44 7.43381 37.5321 7.43381C37.706 7.43381 37.8288 7.31102 37.88 7.18824C37.9004 7.14731 37.8902 7.10639 37.8697 7.06546L37 5.29532H37.6651V5.32601Z" fill="#9AB4C1"/>
<path d="M40.0691 5.32608V6.39021H40.1202L40.8263 5.32608H41.5323L40.6318 6.46183C40.9593 6.54369 41.1127 6.77903 41.2253 7.08599C41.3174 7.36225 41.3992 7.63852 41.522 7.89432H40.8979C40.8058 7.72037 40.7649 7.51574 40.7035 7.33156C40.6114 7.04506 40.4988 6.81996 40.1816 6.81996H40.0691V7.89432H39.4961V5.32608H40.0691Z" fill="#9AB4C1"/>
<path d="M42.3652 5.81722H41.6797V5.32608H43.6545V5.81722H42.9485V7.89432H42.3652V5.81722Z" fill="#9AB4C1"/>
<path d="M45.3215 5.32608V6.31859H46.2731V5.32608H46.8563V7.89432H46.2731V6.81996H45.3215V7.89432H44.7383V5.32608H45.3215Z" fill="#9AB4C1"/>
<path d="M48.8918 6.80973H47.9504V7.42364H49.0043V7.89432H47.3672V5.32608H48.9531V5.80699H47.9504V6.33905H48.8918V6.80973Z" fill="#9AB4C1"/>
<path d="M52.3478 6.91202C52.3375 6.60506 52.3273 6.22648 52.3273 5.85812H52.3171C52.2352 6.18555 52.1329 6.5539 52.0306 6.85063L51.7134 7.85336H51.2632L50.9869 6.86085C50.9051 6.56413 50.813 6.19578 50.7516 5.85812H50.7413C50.7311 6.20601 50.7106 6.60506 50.7004 6.92225L50.6595 7.90452H50.1172L50.2809 5.33629H51.0585L51.3143 6.19578C51.3962 6.49251 51.478 6.8097 51.5292 7.11666H51.5394C51.6111 6.81993 51.7031 6.48228 51.785 6.19578L52.0613 5.34652H52.8184L52.9617 7.91476H52.3989L52.3478 6.91202Z" fill="#9AB4C1"/>
<path d="M53.9856 5.32608H53.4023V7.89432H53.9856V5.32608Z" fill="#9AB4C1"/>
<path d="M56.3805 7.82264C56.2782 7.8738 56.0326 7.9352 55.7256 7.9352C54.8354 7.9352 54.375 7.38267 54.375 6.64596C54.375 5.76601 54.9992 5.28511 55.7768 5.28511C56.0735 5.28511 56.3088 5.3465 56.4112 5.39766L56.2884 5.8581C56.1656 5.80694 56.0019 5.76601 55.7972 5.76601C55.3368 5.76601 54.9787 6.04227 54.9787 6.61527C54.9787 7.12687 55.2856 7.45429 55.8075 7.45429C55.9814 7.45429 56.1758 7.41336 56.2884 7.37243L56.3805 7.82264Z" fill="#9AB4C1"/>
<path d="M57.334 5.81722H56.6484V5.32608H58.6232V5.81722H57.9172V7.89432H57.334V5.81722Z" fill="#9AB4C1"/>
<path d="M59.4593 5.32608V6.09348C59.4593 6.50276 59.4491 6.91205 59.4286 7.25994H59.4491C59.5821 6.96321 59.7561 6.61531 59.9095 6.34928L60.4621 5.33631H61.0555V7.90455H60.5235V7.14738C60.5235 6.74834 60.5337 6.40044 60.5644 6.06279H60.5542C60.4314 6.36975 60.2677 6.7074 60.1244 6.97343L59.6026 7.90455H58.9375V5.33631H59.4593V5.32608Z" fill="#9AB4C1"/>
<path d="M62.0605 5.81722H61.375V5.32608H63.3498V5.81722H62.6438V7.89432H62.0605V5.81722Z" fill="#9AB4C1"/>
<path d="M64.2292 7.47481C64.2906 7.48504 64.3623 7.48503 64.4441 7.48503C64.7306 7.48503 64.9557 7.35202 64.9557 7.05529C64.9557 6.75856 64.7306 6.63578 64.4543 6.63578C64.3725 6.63578 64.3009 6.64601 64.2292 6.64601V7.47481ZM64.2395 5.32608V6.21627C64.3213 6.20604 64.4441 6.19581 64.5464 6.19581C65.099 6.19581 65.5696 6.46184 65.5696 7.03483C65.5696 7.2804 65.4878 7.46457 65.365 7.59759C65.1194 7.85339 64.6897 7.92501 64.2804 7.92501C63.9939 7.92501 63.779 7.90455 63.6562 7.88408V5.32608H64.2395Z" fill="#9AB4C1"/>
<path d="M27.6811 10.8001H27.8141C28.0187 10.8001 28.1415 10.749 28.1415 10.6262C28.1415 10.5239 28.0596 10.4522 27.855 10.4522C27.7834 10.4522 27.7424 10.4625 27.6811 10.4625V10.8001ZM27.6811 11.4959C27.7322 11.5061 27.7731 11.5061 27.855 11.5061C28.0289 11.5061 28.2029 11.455 28.2029 11.3015C28.2029 11.1583 28.0699 11.0969 27.8345 11.0969H27.6913V11.4959H27.6811ZM27.1797 10.176C27.3025 10.1555 27.5787 10.1351 27.8345 10.1351C28.1108 10.1351 28.6326 10.1657 28.6326 10.5546C28.6326 10.7592 28.4689 10.8718 28.3052 10.9025V10.9127C28.5508 10.9536 28.7043 11.0866 28.7043 11.3117C28.7043 11.7722 28.0801 11.8131 27.7424 11.8131C27.5173 11.8131 27.282 11.8029 27.1797 11.7824V10.176Z" fill="#9AB4C1"/>
<path d="M29.89 11.0151C29.624 11.0151 29.4193 11.0765 29.4193 11.2709C29.4193 11.404 29.5012 11.4653 29.6137 11.4653C29.7365 11.4653 29.8388 11.3835 29.8695 11.2812C29.8798 11.2505 29.8798 11.23 29.8798 11.1993V11.0151H29.89ZM29.9412 11.7825L29.9105 11.6188H29.9002C29.7979 11.7518 29.624 11.8132 29.4398 11.8132C29.1124 11.8132 28.918 11.5779 28.918 11.3119C28.918 10.8924 29.2966 10.6877 29.8695 10.6877V10.6775C29.8695 10.5956 29.8286 10.4728 29.5728 10.4728C29.4091 10.4728 29.2352 10.524 29.1226 10.5956L29.0305 10.2682C29.1431 10.2068 29.3682 10.125 29.6547 10.125C30.197 10.125 30.3709 10.4421 30.3709 10.8207V11.3835C30.3709 11.537 30.3811 11.6905 30.3914 11.7723H29.9412V11.7825Z" fill="#9AB4C1"/>
<path d="M31.1277 10.1658L31.496 10.8104H31.5472V10.1658H32.0383V10.8104H32.0895L32.4578 10.1658H33.0104L32.4476 10.8616C32.6318 10.8923 32.7546 11.0765 32.8262 11.2709C32.8876 11.4551 32.949 11.629 33.0206 11.7825H32.5192C32.4681 11.7006 32.4374 11.5778 32.376 11.4141C32.3146 11.2402 32.2123 11.1379 32.0793 11.1379H32.0383V11.7825H31.5472V11.1379H31.5063C31.363 11.1379 31.2709 11.2299 31.1993 11.4141C31.1379 11.5881 31.1072 11.7006 31.0561 11.7825H30.5547C30.6365 11.629 30.6877 11.4551 30.7491 11.2709C30.8207 11.0662 30.9435 10.8923 31.1277 10.8514L30.5752 10.1658H31.1277Z" fill="#9AB4C1"/>
<path d="M33.7153 10.1658V10.8104H33.7767L34.1859 10.1658H34.7794L34.1859 10.8616C34.3804 10.9025 34.5031 11.0765 34.5952 11.3118C34.6464 11.4448 34.7078 11.6392 34.7896 11.7927H34.2678C34.2269 11.7211 34.186 11.6085 34.1246 11.4346C34.0529 11.2504 33.9506 11.1481 33.7869 11.1481H33.7357V11.7927H33.2344V10.1658H33.7153Z" fill="#9AB4C1"/>
<path d="M35.4457 10.1658V10.657C35.4457 10.9128 35.4355 11.0969 35.4151 11.322H35.4253C35.5071 11.1379 35.5481 11.0151 35.6095 10.8616L35.9369 10.1658H36.5508V11.7825H36.0699V11.2913C36.0699 11.0355 36.0801 10.9332 36.1006 10.5853H36.0904C36.029 10.7593 35.988 10.8718 35.9164 11.0253C35.8141 11.2504 35.6913 11.5369 35.5788 11.7825H34.9648V10.1658H35.4457Z" fill="#9AB4C1"/>
<path d="M37.3386 10.1658L37.4921 10.4319C37.533 10.5137 37.5842 10.5956 37.6251 10.6774H37.6353C37.6763 10.5956 37.7172 10.5035 37.7581 10.4319L37.9014 10.1658H38.4539L37.9218 10.9332L38.4641 11.7825H37.8911L37.7274 11.496C37.6865 11.4141 37.6456 11.3323 37.6046 11.2504H37.5944C37.5535 11.3323 37.5126 11.4141 37.4716 11.496L37.3182 11.7825H36.7656L37.3182 10.9537L36.7759 10.1658H37.3386Z" fill="#9AB4C1"/>
<path d="M39.3938 10.1658H40.0384L40.2124 10.7797C40.2431 10.8718 40.284 11.0458 40.3147 11.189H40.3249C40.3556 11.0765 40.4068 10.9025 40.4579 10.749L40.6421 10.1658H41.2765L41.3788 11.7825H40.9081L40.8774 11.1379C40.8774 10.9946 40.8672 10.7593 40.857 10.5751H40.8467C40.7854 10.79 40.7751 10.8411 40.6933 11.1072L40.4784 11.762H40.1203L39.9259 11.1174C39.8849 10.9639 39.8338 10.7286 39.7929 10.5751H39.7826C39.7724 10.7797 39.7724 11.0048 39.7622 11.1379L39.7315 11.7825H39.2812L39.3938 10.1658Z" fill="#9AB4C1"/>
<path d="M42.6915 10.79C42.6915 10.6673 42.6404 10.4626 42.4051 10.4626C42.1902 10.4626 42.1083 10.657 42.0981 10.79H42.6915ZM42.0981 11.1379C42.1186 11.3426 42.3232 11.4449 42.5585 11.4449C42.7325 11.4449 42.8655 11.4244 43.0087 11.3835L43.0701 11.7211C42.9064 11.7928 42.7018 11.8235 42.4869 11.8235C41.9344 11.8235 41.6172 11.5063 41.6172 10.9947C41.6172 10.5854 41.873 10.125 42.4357 10.125C42.9576 10.125 43.1622 10.5342 43.1622 10.9333C43.1622 11.0151 43.152 11.097 43.1418 11.1277H42.0981V11.1379Z" fill="#9AB4C1"/>
<path d="M44.7147 10.1658V10.5444H44.244V11.7825H43.7324V10.5444H43.2617V10.1658H44.7147Z" fill="#9AB4C1"/>
<path d="M45.7821 11.0151C45.5161 11.0151 45.3114 11.0765 45.3114 11.2709C45.3114 11.404 45.3933 11.4653 45.5059 11.4653C45.6286 11.4653 45.731 11.3835 45.7719 11.2812C45.7821 11.2505 45.7821 11.23 45.7821 11.1993V11.0151ZM45.8435 11.7825L45.8128 11.6188H45.8026C45.7003 11.7518 45.5366 11.8132 45.3421 11.8132C45.0147 11.8132 44.8203 11.5779 44.8203 11.3119C44.8203 10.8924 45.1989 10.6877 45.7719 10.6877V10.6775C45.7719 10.5956 45.731 10.4728 45.4752 10.4728C45.3114 10.4728 45.1375 10.524 45.0249 10.5956L44.9329 10.2682C45.0454 10.2068 45.2705 10.125 45.5672 10.125C46.1095 10.125 46.2835 10.4421 46.2835 10.8207V11.3835C46.2835 11.537 46.2937 11.6905 46.3039 11.7723H45.8435V11.7825Z" fill="#9AB4C1"/>
<path d="M48.0923 10.1658V11.7825H47.5909V10.5444H47.243V10.8411C47.243 11.2299 47.1919 11.5062 47.0179 11.6597C46.9156 11.7722 46.7724 11.8132 46.5473 11.8132L46.4961 11.4244C46.5677 11.4141 46.6393 11.3834 46.67 11.3323C46.7621 11.2402 46.7724 11.0867 46.7724 10.8104V10.1658H48.0923Z" fill="#9AB4C1"/>
<path d="M48.4913 10.1658H48.9927V11.7825H48.4913V10.1658ZM49.0132 9.71559C49.0132 9.85884 48.9109 9.97139 48.7369 9.97139C48.5834 9.97139 48.4709 9.85884 48.4811 9.71559C48.4811 9.57235 48.5834 9.45979 48.7471 9.45979C48.9006 9.45979 49.0029 9.57235 49.0132 9.71559Z" fill="#9AB4C1"/>
<path d="M49.8959 10.8001H50.0289C50.2336 10.8001 50.3563 10.749 50.3563 10.6262C50.3563 10.5239 50.2745 10.4522 50.0698 10.4522C49.9982 10.4522 49.9573 10.4625 49.8959 10.4625V10.8001ZM49.8959 11.4959C49.9471 11.5061 49.988 11.5061 50.0698 11.5061C50.2438 11.5061 50.4177 11.455 50.4177 11.3015C50.4177 11.1583 50.2847 11.0969 50.0494 11.0969H49.9061V11.4959H49.8959ZM49.3945 10.176C49.5173 10.1555 49.7936 10.1351 50.0494 10.1351C50.3256 10.1351 50.8475 10.1657 50.8475 10.5546C50.8475 10.7592 50.6735 10.8718 50.5201 10.9025V10.9127C50.7656 10.9536 50.9191 11.0866 50.9191 11.3117C50.9191 11.7722 50.2949 11.8131 49.9573 11.8131C49.7322 11.8131 49.4969 11.8029 49.3945 11.7824V10.176Z" fill="#9AB4C1"/>
<path d="M51.0273 12.1815C51.1297 11.8848 51.2218 11.5369 51.2627 11.2402L51.7743 11.2095C51.6617 11.5471 51.5185 11.895 51.3548 12.1508L51.0273 12.1815Z" fill="#9AB4C1"/>
<path d="M53.9777 11.4859C54.2232 11.4347 54.3358 11.2301 54.3358 10.9743C54.3358 10.7185 54.2232 10.5241 53.9777 10.4729V11.4859ZM53.5275 10.4627C53.2819 10.5241 53.1693 10.7287 53.1693 10.9743C53.1693 11.2403 53.2819 11.4245 53.5275 11.4859V10.4627ZM53.9777 9.42926V10.1353C54.4483 10.1762 54.8372 10.4525 54.8372 10.9743C54.8372 11.4961 54.4381 11.7724 53.9777 11.8031V12.4375H53.5275V11.8133C53.0772 11.7724 52.668 11.5064 52.668 10.9845C52.668 10.4525 53.0568 10.1864 53.5275 10.1353V9.42926H53.9777Z" fill="#9AB4C1"/>
<path d="M56.1251 10.79C56.1251 10.6673 56.074 10.4626 55.8386 10.4626C55.6238 10.4626 55.5419 10.657 55.5317 10.79H56.1251ZM55.5317 11.1379C55.5521 11.3426 55.7568 11.4449 55.9921 11.4449C56.1661 11.4449 56.2991 11.4244 56.4423 11.3835L56.5037 11.7211C56.34 11.7928 56.1354 11.8235 55.9205 11.8235C55.368 11.8235 55.0508 11.5063 55.0508 10.9947C55.0508 10.5854 55.3066 10.125 55.8693 10.125C56.3912 10.125 56.5958 10.5342 56.5958 10.9333C56.5958 11.0151 56.5856 11.097 56.5753 11.1277H55.5317V11.1379Z" fill="#9AB4C1"/>
<path d="M57.392 10.1658V10.749H57.9036V10.1658H58.4152V11.7825H57.9036V11.1379H57.392V11.7825H56.8906V10.1658H57.392Z" fill="#9AB4C1"/>
<path d="M59.2469 10.9742C59.2469 11.2505 59.3595 11.4653 59.5743 11.4653C59.7687 11.4653 59.8915 11.2709 59.8915 10.9742C59.8915 10.7286 59.7994 10.4831 59.5743 10.4831C59.3288 10.4831 59.2469 10.7389 59.2469 10.9742ZM60.4134 10.9537C60.4134 11.5472 59.9938 11.8235 59.5539 11.8235C59.0832 11.8235 58.7148 11.5063 58.7148 10.9844C58.7148 10.4626 59.0627 10.125 59.5846 10.125C60.0859 10.125 60.4134 10.4728 60.4134 10.9537Z" fill="#9AB4C1"/>
<path d="M62.1431 10.1658V11.7825H61.6417V10.5444H61.2938V10.8411C61.2938 11.2299 61.2426 11.5062 61.0687 11.6597C60.9664 11.7722 60.8231 11.8132 60.598 11.8132L60.5469 11.4244C60.6185 11.4141 60.6901 11.3834 60.7208 11.3323C60.8129 11.2402 60.8231 11.0867 60.8231 10.8104V10.1658H62.1431Z" fill="#9AB4C1"/>
<path d="M62.5421 10.1658H63.0435V11.7825H62.5421V10.1658ZM63.064 9.71559C63.064 9.85884 62.9616 9.97139 62.7877 9.97139C62.6342 9.97139 62.5217 9.85884 62.5319 9.71559C62.5319 9.57235 62.6342 9.45979 62.7979 9.45979C62.9616 9.45979 63.0537 9.57235 63.064 9.71559Z" fill="#9AB4C1"/>
<path d="M63.9428 10.8001H64.0758C64.2804 10.8001 64.4032 10.749 64.4032 10.6262C64.4032 10.5239 64.3214 10.4522 64.1167 10.4522C64.0451 10.4522 64.0042 10.4625 63.9428 10.4625V10.8001ZM63.9325 11.4959C63.9837 11.5061 64.0246 11.5061 64.1065 11.5061C64.2804 11.5061 64.4544 11.455 64.4544 11.3015C64.4544 11.1583 64.3214 11.0969 64.086 11.0969H63.9428V11.4959H63.9325ZM63.4414 10.176C63.5642 10.1555 63.8405 10.1351 64.0963 10.1351C64.3725 10.1351 64.9046 10.1657 64.9046 10.5546C64.9046 10.7592 64.7306 10.8718 64.5772 10.9025V10.9127C64.8227 10.9536 64.9762 11.0866 64.9762 11.3117C64.9762 11.7722 64.3521 11.8131 64.0144 11.8131C63.7893 11.8131 63.554 11.8029 63.4516 11.7824V10.176H63.4414Z" fill="#9AB4C1"/>
<path d="M65.0781 12.1815C65.1804 11.8848 65.2725 11.5369 65.3135 11.2402L65.8251 11.2095C65.7125 11.5471 65.5693 11.895 65.4055 12.1508L65.0781 12.1815Z" fill="#9AB4C1"/>
<path d="M28.0477 14.9953C27.7817 14.9953 27.5771 15.0567 27.5771 15.2511C27.5771 15.3841 27.6589 15.4455 27.7715 15.4455C27.8943 15.4455 27.9966 15.3637 28.0273 15.2614C28.0375 15.2307 28.0375 15.2102 28.0375 15.1795V14.9953H28.0477ZM28.1091 15.7627L28.0784 15.599H28.0682C27.9659 15.732 27.7919 15.7934 27.6078 15.7934C27.2803 15.7934 27.0859 15.5581 27.0859 15.3023C27.0859 14.8828 27.4645 14.6781 28.0375 14.6781V14.6577C28.0375 14.5758 27.9966 14.453 27.7408 14.453C27.5771 14.453 27.4031 14.5042 27.2906 14.5758L27.1985 14.2484C27.311 14.187 27.5361 14.1051 27.8226 14.1051C28.3649 14.1051 28.5389 14.4223 28.5389 14.8009V15.3637C28.5389 15.5172 28.5491 15.6706 28.5593 15.7525H28.1091V15.7627Z" fill="#9AB4C1"/>
<path d="M30.3501 14.1462V15.7629H29.8487V14.5248H29.5008V14.8215C29.5008 15.2104 29.4497 15.4866 29.2757 15.6401C29.1734 15.7526 29.0302 15.7936 28.8051 15.7936L28.7539 15.4048C28.8255 15.3945 28.8972 15.3638 28.9381 15.3127C29.0302 15.2206 29.0404 15.0671 29.0404 14.7908V14.136H30.3501V14.1462Z" fill="#9AB4C1"/>
<path d="M31.2622 14.1462V14.7908H31.3235L31.7328 14.1462H32.3263L31.7328 14.842C31.9272 14.8829 32.0398 15.0568 32.1421 15.2922C32.1933 15.4252 32.2547 15.6196 32.3365 15.7629H31.8147C31.7738 15.6912 31.7328 15.5787 31.6714 15.4047C31.5998 15.2206 31.4975 15.1182 31.3338 15.1182H31.2826V15.7629H30.7812V14.1462H31.2622Z" fill="#9AB4C1"/>
<path d="M32.5109 14.1461H33.0122V15.7628H32.5109V14.1461ZM33.0327 13.6857C33.0327 13.8289 32.9304 13.9415 32.7564 13.9415C32.603 13.9415 32.4904 13.8289 32.5006 13.6857C32.5006 13.5424 32.603 13.4299 32.7667 13.4299C32.9304 13.4299 33.0327 13.5424 33.0327 13.6857Z" fill="#9AB4C1"/>
<path d="M34.8306 14.1462V15.7629H34.3292V14.5248H33.9813V14.8215C33.9813 15.2104 33.9302 15.4866 33.7562 15.6401C33.6539 15.7526 33.5106 15.7936 33.2855 15.7936L33.2344 15.4048C33.306 15.3945 33.3776 15.3638 33.4083 15.3127C33.5004 15.2206 33.5106 15.0671 33.5106 14.7908V14.136H34.8306V14.1462Z" fill="#9AB4C1"/>
<path d="M36.4488 15.4557C36.6944 15.4046 36.807 15.1999 36.807 14.9441C36.807 14.6883 36.6944 14.4939 36.4488 14.4428V15.4557ZM35.9986 14.4428C35.7531 14.5042 35.6405 14.7088 35.6405 14.9544C35.6405 15.2204 35.7531 15.4046 35.9986 15.466V14.4428ZM36.4488 13.4093V14.1153C36.9093 14.1563 37.3083 14.4325 37.3083 14.9544C37.3083 15.4762 36.9093 15.7525 36.4488 15.7832V16.4175H35.9884V15.7934C35.5382 15.7525 35.1289 15.4864 35.1289 14.9646C35.1289 14.4325 35.5177 14.1563 35.9884 14.1153V13.4093H36.4488Z" fill="#9AB4C1"/>
<path d="M38.5978 14.7703C38.5978 14.6475 38.5466 14.4429 38.3113 14.4429C38.0964 14.4429 38.0146 14.6373 38.0043 14.7703H38.5978ZM38.0043 15.108C38.0248 15.3229 38.2294 15.4149 38.4648 15.4149C38.6387 15.4149 38.7717 15.3945 38.915 15.3536L38.9764 15.6912C38.8127 15.7526 38.608 15.7935 38.3932 15.7935C37.8406 15.7935 37.5234 15.4763 37.5234 14.9647C37.5234 14.5555 37.7792 14.095 38.342 14.095C38.8638 14.095 39.0685 14.5043 39.0685 14.9033C39.0685 14.9852 39.0582 15.0671 39.048 15.0978H38.0043V15.108Z" fill="#9AB4C1"/>
<path d="M39.8686 14.1462V14.7294H40.3802V14.1462H40.8918V15.7629H40.3802V15.1182H39.8686V15.7629H39.3672V14.1462H39.8686Z" fill="#9AB4C1"/>
<path d="M41.7171 14.9442C41.7171 15.2204 41.8297 15.4353 42.0446 15.4353C42.239 15.4353 42.3618 15.2409 42.3618 14.9442C42.3618 14.6986 42.2697 14.453 42.0446 14.453C41.799 14.4633 41.7171 14.7088 41.7171 14.9442ZM42.8836 14.9339C42.8836 15.5274 42.4641 15.8036 42.0343 15.8036C41.5637 15.8036 41.1953 15.4865 41.1953 14.9646C41.1953 14.4428 41.5432 14.1051 42.065 14.1051C42.5562 14.1051 42.8836 14.4428 42.8836 14.9339Z" fill="#9AB4C1"/>
<path d="M44.604 14.1462V15.7629H44.1026V14.5248H43.7547V14.8215C43.7547 15.2104 43.7036 15.4866 43.5296 15.6401C43.4273 15.7526 43.2841 15.7936 43.059 15.7936L43.0078 15.4048C43.0794 15.3945 43.1511 15.3638 43.1818 15.3127C43.2738 15.2206 43.2841 15.0671 43.2841 14.7908V14.136H44.604V14.1462Z" fill="#9AB4C1"/>
<path d="M45.9962 14.7703C45.9962 14.6475 45.9451 14.4429 45.7097 14.4429C45.4949 14.4429 45.413 14.6373 45.4028 14.7703H45.9962ZM45.4028 15.108C45.4232 15.3229 45.6279 15.4149 45.8632 15.4149C46.0372 15.4149 46.1702 15.3945 46.3134 15.3536L46.3748 15.6912C46.2111 15.7526 46.0065 15.7935 45.7916 15.7935C45.2391 15.7935 44.9219 15.4763 44.9219 14.9647C44.9219 14.5555 45.1777 14.095 45.7404 14.095C46.2623 14.095 46.4669 14.5043 46.4669 14.9033C46.4669 14.9852 46.4567 15.0671 46.4464 15.0978H45.4028V15.108Z" fill="#9AB4C1"/>
<path d="M48.0233 14.1462V14.5248H47.5526V15.7629H47.041V14.5248H46.5703V14.1462H48.0233Z" fill="#9AB4C1"/>
<path d="M48.6468 14.9442C48.6468 15.2204 48.7594 15.4353 48.9743 15.4353C49.1687 15.4353 49.2914 15.2409 49.2914 14.9442C49.2914 14.6986 49.1994 14.453 48.9743 14.453C48.7389 14.4633 48.6468 14.7088 48.6468 14.9442ZM49.8133 14.9339C49.8133 15.5274 49.3938 15.8036 48.964 15.8036C48.4934 15.8036 48.125 15.4865 48.125 14.9646C48.125 14.4428 48.4729 14.1051 48.9947 14.1051C49.4859 14.1051 49.8133 14.4428 49.8133 14.9339Z" fill="#9AB4C1"/>
<path d="M50.6293 14.1462V14.7908H50.6907L51.1 14.1462H51.6935L51.1 14.842C51.2944 14.8829 51.407 15.0568 51.5093 15.2922C51.5605 15.4252 51.6218 15.6196 51.7037 15.7629H51.1819C51.1409 15.6912 51.1 15.5787 51.0386 15.4047C50.967 15.2206 50.8647 15.1182 50.701 15.1182H50.6498V15.7629H50.1484V14.1462H50.6293Z" fill="#9AB4C1"/>
<path d="M53.087 15.7218C52.995 15.7627 52.8312 15.7934 52.6368 15.7934C52.115 15.7934 51.7773 15.4762 51.7773 14.9646C51.7773 14.494 52.1048 14.1051 52.7085 14.1051C52.8415 14.1051 52.9847 14.1256 53.0973 14.1665L53.0154 14.5451C52.954 14.5144 52.8619 14.494 52.7289 14.494C52.4629 14.494 52.2889 14.6781 52.2992 14.9442C52.2992 15.2409 52.4936 15.4046 52.7392 15.4046C52.8619 15.4046 52.954 15.3841 53.0256 15.3534L53.087 15.7218Z" fill="#9AB4C1"/>
<path d="M53.8349 14.1462V14.6374C53.8349 14.8932 53.8247 15.0773 53.8042 15.2922H53.8144C53.886 15.108 53.9372 14.9852 53.9986 14.8318L54.3158 14.136H54.9297V15.7526H54.4488V15.2615C54.4488 15.0057 54.459 14.9034 54.4795 14.5555H54.4693C54.4079 14.7294 54.367 14.842 54.2953 14.9955C54.193 15.2206 54.0702 15.4968 53.9577 15.7526H53.3438V14.136H53.8349V14.1462Z" fill="#9AB4C1"/>
<path d="M56.7603 14.1462V15.7629H56.2589V14.5248H55.911V14.8215C55.911 15.2104 55.8598 15.4866 55.6859 15.6401C55.5836 15.7526 55.4403 15.7936 55.2152 15.7936L55.1641 15.4048C55.2357 15.3945 55.3073 15.3638 55.3482 15.3127C55.4403 15.2206 55.4506 15.0671 55.4506 14.7908V14.136H56.7603V14.1462Z" fill="#9AB4C1"/>
<path d="M58.0165 14.9953C57.7505 14.9953 57.5458 15.0567 57.5458 15.2511C57.5458 15.3841 57.6277 15.4455 57.7402 15.4455C57.863 15.4455 57.9653 15.3637 58.0063 15.2614C58.0165 15.2307 58.0165 15.2102 58.0165 15.1795V14.9953ZM58.0779 15.7627L58.0472 15.599H58.037C57.9346 15.732 57.7709 15.7934 57.5765 15.7934C57.2491 15.7934 57.0547 15.5581 57.0547 15.3023C57.0547 14.8828 57.4333 14.6781 58.0063 14.6781V14.6577C58.0063 14.5758 57.9653 14.453 57.7095 14.453C57.5458 14.453 57.3719 14.5042 57.2593 14.5758L57.1672 14.2484C57.2798 14.187 57.5049 14.1051 57.8016 14.1051C58.3439 14.1051 58.5179 14.4223 58.5179 14.8009V15.3637C58.5179 15.5172 58.5281 15.6706 58.5383 15.7525H58.0779V15.7627Z" fill="#9AB4C1"/>
<path d="M60.1561 14.1462V14.5248H59.6854V15.7629H59.1738V14.5248H58.7031V14.1462H60.1561Z" fill="#9AB4C1"/>
<path d="M60.3798 14.1461H60.8812V15.7628H60.3798V14.1461ZM60.9017 13.6857C60.9017 13.8289 60.7993 13.9415 60.6254 13.9415C60.4617 13.9415 60.3594 13.8289 60.3594 13.6857C60.3594 13.5424 60.4617 13.4299 60.6254 13.4299C60.7891 13.4299 60.8914 13.5424 60.9017 13.6857Z" fill="#9AB4C1"/>
<path d="M61.7811 14.7703H61.9141C62.1188 14.7703 62.2416 14.7191 62.2416 14.5964C62.2416 14.494 62.1597 14.4224 61.9551 14.4224C61.8835 14.4224 61.8425 14.4326 61.7811 14.4326V14.7703ZM61.7811 15.4763C61.8323 15.4865 61.8732 15.4865 61.9551 15.4865C62.129 15.4865 62.303 15.4354 62.303 15.2717C62.303 15.1386 62.1699 15.067 61.9346 15.067H61.7914V15.4763H61.7811ZM61.2798 14.1564C61.4025 14.1359 61.6788 14.1154 61.9346 14.1154C62.2109 14.1154 62.7327 14.1461 62.7327 14.5247C62.7327 14.7294 62.569 14.8419 62.4053 14.8726V14.8828C62.6509 14.9238 62.8043 15.0568 62.8043 15.2819C62.8043 15.7423 62.1802 15.7833 61.8425 15.7833C61.6174 15.7833 61.3821 15.7628 61.2695 15.7526V14.1564H61.2798Z" fill="#9AB4C1"/>
<path d="M62.9297 16.1515C63.032 15.8547 63.1241 15.5069 63.165 15.2101L63.6766 15.1794C63.5641 15.5171 63.4208 15.865 63.2571 16.1208L62.9297 16.1515Z" fill="#9AB4C1"/>
<path d="M28.0477 18.9756C27.7817 18.9756 27.5771 19.037 27.5771 19.2314C27.5771 19.3644 27.6589 19.4258 27.7715 19.4258C27.8943 19.4258 27.9966 19.3439 28.0273 19.2416C28.0375 19.2109 28.0375 19.1905 28.0375 19.1598V18.9756H28.0477ZM28.1091 19.743L28.0784 19.5793H28.0682C27.9659 19.7123 27.7919 19.7839 27.6078 19.7839C27.2803 19.7839 27.0859 19.5486 27.0859 19.2826C27.0859 18.863 27.4645 18.6584 28.0375 18.6584V18.6379C28.0375 18.5561 27.9966 18.4333 27.7408 18.4333C27.5771 18.4333 27.4031 18.4845 27.2906 18.5561L27.1985 18.2287C27.311 18.1673 27.5361 18.0854 27.8226 18.0854C28.3649 18.0854 28.5389 18.4026 28.5389 18.7812V19.3439C28.5389 19.4974 28.5491 19.6509 28.5593 19.7328H28.1091V19.743Z" fill="#9AB4C1"/>
<path d="M28.99 18.1161H29.6346L29.8085 18.7301C29.8392 18.8222 29.8802 18.9961 29.9109 19.1394H29.9211C29.9518 19.0268 30.0029 18.8529 30.0541 18.6994L30.2383 18.1264H30.8727L30.975 19.743H30.5043L30.4736 19.0984C30.4736 18.9552 30.4634 18.7198 30.4531 18.5357H30.4429C30.3815 18.7505 30.3713 18.8017 30.2894 19.0677L30.0746 19.7328H29.7062L29.5118 19.0882C29.4709 18.9347 29.4197 18.6994 29.3788 18.5459H29.3686C29.3583 18.7505 29.3583 18.9756 29.3481 19.1087L29.3174 19.7533H28.8672L28.99 18.1161Z" fill="#9AB4C1"/>
<path d="M31.3117 18.1161H31.8131V19.7328H31.3117V18.1161ZM31.8335 17.6659C31.8335 17.8092 31.7312 17.9217 31.5573 17.9217C31.3936 17.9217 31.2913 17.8092 31.3015 17.6659C31.3015 17.5227 31.4038 17.4101 31.5675 17.4101C31.7312 17.4101 31.8335 17.5227 31.8335 17.6659Z" fill="#9AB4C1"/>
<path d="M33.0829 18.9756C32.8169 18.9756 32.6122 19.037 32.6122 19.2314C32.6122 19.3644 32.7043 19.4258 32.8066 19.4258C32.9294 19.4258 33.0317 19.3439 33.0624 19.2416C33.0727 19.2109 33.0727 19.1905 33.0727 19.1598V18.9756H33.0829ZM33.1443 19.743L33.1136 19.5793H33.1034C33.001 19.7123 32.8271 19.7839 32.6429 19.7839C32.3155 19.7839 32.1211 19.5486 32.1211 19.2826C32.1211 18.863 32.4997 18.6584 33.0727 18.6584V18.6379C33.0727 18.5561 33.0215 18.4333 32.7759 18.4333C32.6122 18.4333 32.4383 18.4845 32.3257 18.5561L32.2336 18.2287C32.3462 18.1673 32.5713 18.0854 32.8578 18.0854C33.4001 18.0854 33.574 18.4026 33.574 18.7812V19.3439C33.574 19.4974 33.5843 19.6509 33.5945 19.7328H33.1443V19.743Z" fill="#9AB4C1"/>
<path d="M34.474 18.1161V18.7608H34.5354L34.9447 18.1161H35.5382L34.9447 18.8119C35.1391 18.8529 35.2517 19.0268 35.354 19.2621C35.4051 19.3952 35.4665 19.5896 35.5484 19.7328H35.0061C34.9652 19.6612 34.9242 19.5486 34.8628 19.3747C34.7912 19.1905 34.6889 19.0882 34.5252 19.0882H34.474V19.7328H33.9727V18.1161H34.474Z" fill="#9AB4C1"/>
<path d="M36.1526 18.1161L36.3982 18.9143C36.4289 19.0063 36.4596 19.1291 36.48 19.211H36.4903C36.5107 19.1291 36.5414 18.9961 36.5619 18.9143L36.7563 18.1161H37.2986L36.92 19.1803C36.6847 19.8249 36.5312 20.0807 36.347 20.2444C36.1731 20.3979 35.9889 20.449 35.8559 20.4695L35.7536 20.0398C35.8149 20.0295 35.8968 19.9988 35.9684 19.9579C36.0401 19.917 36.1321 19.8351 36.1731 19.7533C36.1935 19.7328 36.2038 19.7021 36.2038 19.6817C36.2038 19.6612 36.2038 19.6407 36.1833 19.5998L35.5898 18.1161H36.1526Z" fill="#9AB4C1"/>
<path d="M37.2578 19.4667C37.2578 19.2927 37.3806 19.1597 37.5545 19.1597C37.7285 19.1597 37.8513 19.2825 37.8513 19.4667C37.8513 19.6406 37.7285 19.7736 37.5545 19.7736C37.3806 19.7736 37.2578 19.6406 37.2578 19.4667Z" fill="#9AB4C1"/>
</svg>
