<svg width="33" height="26" viewBox="0 0 33 26" fill="none" xmlns="http://www.w3.org/2000/svg">
<path d="M26.84 20.873C27.0706 20.873 27.2576 20.686 27.2576 20.4554C27.2576 20.2247 27.0706 20.0378 26.84 20.0378C26.6093 20.0378 26.4224 20.2247 26.4224 20.4554C26.4224 20.686 26.6093 20.873 26.84 20.873Z" fill="#C11426"/>
<path d="M0.543352 11.9632H1.48572V21.5889H0.749452C0.449794 21.5889 0.207085 21.833 0.207085 22.1313V24.5814C0.207085 24.8811 0.45115 25.1238 0.749452 25.1238H15.9561H20.9174H28.0875H30.1159H31.918C32.2176 25.1238 32.4603 24.8797 32.4603 24.5814V22.1313C32.4603 21.8316 32.2163 21.5889 31.918 21.5889H31.0027V11.9632H31.5532C31.5641 11.9632 31.5749 11.9632 31.5803 11.9632C31.8813 11.9632 32.1227 11.7205 32.1227 11.4209C32.1227 11.2704 32.0603 11.1334 31.9613 11.0344L27.8936 3.4901C27.7987 3.31519 27.6156 3.20536 27.4149 3.20536H14.108H11.4178V1.31792C11.7161 1.31656 11.9575 1.07385 11.9575 0.775552C11.9575 0.475894 11.7134 0.233185 11.4151 0.233185H7.59684C7.29718 0.233185 7.05447 0.475894 7.05447 0.775552C7.05447 1.07521 7.29854 1.31792 7.59684 1.31792L7.66193 3.20536H6.90126H4.18399C3.97518 3.20536 3.784 3.32604 3.69451 3.51586L0.0525098 11.189C-0.0274894 11.3571 -0.0152861 11.5538 0.083696 11.711C0.184034 11.8683 0.357592 11.9632 0.543352 11.9632ZM29.918 11.9632V21.5889H28.6312V14.6154C28.6312 14.3158 28.3871 14.073 28.0888 14.073H20.9187C20.6191 14.073 20.3764 14.3158 20.3764 14.6154V21.5889H2.57181V11.9632H29.918ZM21.4611 15.1578H27.5451V24.0377H21.4611V15.1578ZM15.9561 24.0391H1.29318V22.675H1.59283H2.02944H20.375V24.0391H15.9561ZM31.3756 24.0391H30.1159H28.6299V22.675H30.4603H30.84H31.3756V24.0391ZM8.74802 1.31792H10.3331V3.20536H8.74802V1.31792ZM4.52704 4.29009H6.90126H8.20429H10.8755H14.1093H27.0936L30.6461 10.8785H30.4603H2.02944H1.89927H1.40165L4.52704 4.29009Z" fill="#C11426"/>
<path d="M5.67176 20.336H11.6324C11.932 20.336 12.1747 20.0919 12.1747 19.7936V13.8615C12.1747 13.5618 11.9307 13.3191 11.6324 13.3191H5.67176C5.3721 13.3191 5.12939 13.5618 5.12939 13.8615V19.7936C5.12939 20.0933 5.3721 20.336 5.67176 20.336ZM6.21413 17.3693H8.15017V19.2499L6.21413 19.2513V17.3693ZM9.17126 19.2499V17.3693L11.0887 17.3679V19.2499H9.17126ZM11.0887 16.2845H9.17126V14.4025H11.0887V16.2845ZM8.15017 14.4025V16.2845H6.21413V14.4025H8.15017Z" fill="#C11426"/>
</svg>
