<svg width="27" height="26" viewBox="0 0 27 26" fill="none" xmlns="http://www.w3.org/2000/svg">
<path fill-rule="evenodd" clip-rule="evenodd" d="M18.8255 2.04498C18.8255 1.54277 18.833 1.04056 18.833 0.538342C18.8355 0.482094 18.8431 0.427355 18.8607 0.374121C18.9084 0.237518 19.0138 0.125775 19.1494 0.0720382C19.2021 0.0511964 19.2549 0.0406521 19.3126 0.0366344C20.3321 0.0125281 21.3516 0.0125281 22.3736 0.0366344C22.4289 0.0406521 22.4816 0.0511964 22.5343 0.0720382C22.6699 0.125775 22.7754 0.237518 22.8231 0.374121C22.8381 0.419822 22.8457 0.466525 22.8507 0.514487C22.8633 1.02448 22.8557 1.53473 22.8532 2.04498H25.6129L25.6782 2.04925C25.7008 2.05352 25.7209 2.05653 25.7435 2.06206C25.7862 2.07336 25.8263 2.09044 25.864 2.11228C25.9795 2.17832 26.0649 2.28956 26.0975 2.41712C26.1126 2.47387 26.1126 2.48919 26.1151 2.5472V25.1468C26.1126 25.1687 26.1126 25.1908 26.1101 25.2124C26.1051 25.2558 26.0925 25.2985 26.0775 25.3389C26.0172 25.482 25.8916 25.5918 25.7435 25.632C25.6857 25.647 25.6707 25.6453 25.6129 25.649H16.5731H9.54206H0.502214C0.444459 25.6453 0.429388 25.647 0.371633 25.632C0.22348 25.5918 0.0979072 25.482 0.0376415 25.3389C0.0225751 25.2985 0.0100492 25.2558 0.00502704 25.2124C0.00251597 25.1908 0.00251107 25.1687 0 25.1468L0 2.5472C0.00251107 2.48919 0.00252823 2.47387 0.0175946 2.41712C0.0577717 2.26771 0.165728 2.14241 0.31137 2.08315C0.351547 2.06633 0.394235 2.05503 0.436924 2.04925C0.459523 2.04649 0.479614 2.04649 0.502214 2.04498H3.75906C3.75906 1.54277 3.7666 1.04056 3.7666 0.538342C3.76911 0.482094 3.77667 0.427355 3.79425 0.374121C3.84196 0.237518 3.9474 0.125775 4.083 0.0720382C4.13573 0.0511964 4.18844 0.0406521 4.2462 0.0366344C5.26569 0.0125281 6.28523 0.0125281 7.30723 0.0366344C7.36248 0.0406521 7.41518 0.0511964 7.46792 0.0720382C7.60351 0.125775 7.70895 0.237518 7.75666 0.374121C7.77173 0.419822 7.77929 0.466525 7.78431 0.514487C7.79687 1.02448 7.78934 1.53473 7.78683 2.04498H8.7812C8.7812 1.54277 8.78874 1.04056 8.78874 0.538342C8.79125 0.482094 8.79881 0.427355 8.81639 0.374121C8.8641 0.237518 8.96954 0.125775 9.10514 0.0720382C9.15787 0.0511964 9.21058 0.0406521 9.26833 0.0366344C10.2878 0.0125281 11.3074 0.0125281 12.3294 0.0366344C12.3771 0.0401499 12.4222 0.047927 12.4674 0.0637467C12.6055 0.110955 12.7161 0.217425 12.7713 0.351767C12.7914 0.403997 12.8014 0.458239 12.8065 0.514487C12.819 1.02448 12.8115 1.53473 12.809 2.04498H13.8033C13.8033 1.54277 13.8109 1.04056 13.8109 0.538342C13.8134 0.482094 13.8209 0.427355 13.8385 0.374121C13.8862 0.237518 13.9917 0.125775 14.1273 0.0720382C14.18 0.0511964 14.2327 0.0406521 14.2905 0.0366344C15.31 0.0125281 16.3295 0.0125281 17.3515 0.0366344C17.3992 0.0401499 17.4444 0.047927 17.4896 0.0637467C17.6277 0.110955 17.7382 0.217425 17.7935 0.351767C17.8135 0.403997 17.8236 0.458239 17.8286 0.514487C17.8411 1.02448 17.8336 1.53473 17.8311 2.04498H18.8255ZM4.26882 3.04941H1.00443V24.6446H9.03985V18.3669C9.04236 18.3335 9.03985 18.3252 9.04487 18.2921C9.05241 18.2549 9.05991 18.2185 9.07498 18.1834C9.13022 18.0423 9.24824 17.9318 9.39389 17.8871C9.42904 17.876 9.46675 17.869 9.50442 17.8662C9.51698 17.8652 9.52951 17.8652 9.54206 17.8647H16.5731C16.5856 17.8652 16.5981 17.8657 16.6107 17.8662C16.6433 17.8697 16.6534 17.87 16.686 17.8773C16.7212 17.8856 16.7564 17.8981 16.7915 17.9144C16.9171 17.9747 17.0125 18.0864 17.0526 18.2188C17.0627 18.2547 17.0702 18.2919 17.0728 18.3295C17.0753 18.3418 17.0753 18.3544 17.0753 18.3669V24.6446H25.1107V3.04941H22.3485C21.3441 3.07251 20.3397 3.04941 19.3352 3.04941H17.3264C16.3219 3.07251 15.3175 3.04941 14.3131 3.04941H12.3042C11.2998 3.07251 10.2954 3.04941 9.29095 3.04941H7.2821C6.27767 3.07251 5.27324 3.04941 4.26882 3.04941ZM12.3369 24.0168H10.0443V24.6446H16.0708V24.0168H13.7757C13.7557 24.055 13.723 24.0874 13.6828 24.1095C13.6477 24.1296 13.61 24.1399 13.5698 24.1421C13.2283 24.1489 12.8868 24.1489 12.5453 24.1421C12.5076 24.1399 12.4725 24.1313 12.4398 24.1143C12.4097 24.0989 12.3846 24.0779 12.362 24.0522C12.3545 24.0412 12.3444 24.0294 12.3369 24.0168ZM13.7783 23.7657H16.0708V23.2635H10.0443V23.7657H12.3394C12.3595 23.7276 12.3921 23.6952 12.4323 23.6731C12.4675 23.653 12.5051 23.6427 12.5453 23.6404C12.8868 23.6336 13.2283 23.6336 13.5698 23.6404C13.6075 23.6427 13.6426 23.6512 13.6753 23.6683C13.7054 23.6836 13.7305 23.7047 13.7531 23.7303C13.7607 23.7414 13.7707 23.7532 13.7783 23.7657ZM10.0443 22.5102V23.0124H16.0708V22.5102H10.0443ZM7.2821 22.3846H3.7666C3.744 22.3841 3.73648 22.3844 3.71388 22.3819C3.67119 22.3774 3.6285 22.3671 3.58581 22.3512C3.44519 22.2975 3.33472 22.1805 3.28952 22.0376C3.27195 21.9869 3.2669 21.9354 3.26439 21.8824V18.3669C3.26439 18.3436 3.26439 18.3378 3.2669 18.3144C3.27192 18.2708 3.28194 18.2278 3.297 18.1869C3.35225 18.0465 3.46776 17.9358 3.61089 17.8893C3.66111 17.8727 3.71387 17.8662 3.7666 17.8647C4.94681 17.8647 6.12955 17.8346 7.30975 17.8655C7.33235 17.8672 7.33736 17.8672 7.35996 17.871C7.40516 17.8778 7.44533 17.8903 7.48551 17.9082C7.61609 17.9657 7.71649 18.0774 7.75918 18.2117C7.77675 18.2625 7.7818 18.3139 7.78431 18.3669V21.8824C7.7818 21.9354 7.77675 21.9869 7.75918 22.0376C7.71398 22.1805 7.60351 22.2975 7.46289 22.3512C7.4202 22.3671 7.37751 22.3774 7.33482 22.3819C7.31222 22.3844 7.3047 22.3841 7.2821 22.3846ZM22.3485 22.3846H18.833C18.8104 22.3841 18.8029 22.3844 18.7803 22.3819C18.7376 22.3774 18.6949 22.3671 18.6522 22.3512C18.5116 22.2975 18.4011 22.1805 18.3559 22.0376C18.3384 21.9869 18.3333 21.9354 18.3308 21.8824V18.3669C18.3333 18.3139 18.3384 18.2625 18.3559 18.2117C18.4011 18.0689 18.5116 17.9518 18.6522 17.8981C18.6949 17.8823 18.7376 17.872 18.7803 17.8675C18.8029 17.865 18.8104 17.8652 18.833 17.8647C20.0132 17.8647 21.196 17.8346 22.3762 17.8655C22.3988 17.8672 22.4038 17.8672 22.4264 17.871C22.4716 17.8778 22.5117 17.8903 22.5519 17.9082C22.6825 17.9657 22.7829 18.0774 22.8256 18.2117C22.8432 18.2625 22.8482 18.3139 22.8507 18.3669V21.8824C22.8482 21.9354 22.8432 21.9869 22.8256 22.0376C22.7804 22.1805 22.6699 22.2975 22.5293 22.3512C22.4866 22.3671 22.4439 22.3774 22.4012 22.3819C22.3786 22.3844 22.3711 22.3841 22.3485 22.3846ZM10.0443 21.7569V22.2591H16.0708V21.7569H10.0443ZM10.0443 21.0036V21.5058H16.0708V21.0036H10.0443ZM21.8463 20.2648C21.55 20.2728 21.2537 20.2799 20.9574 20.2856C20.877 20.2871 20.7967 20.2887 20.7163 20.2902V21.3802H21.8463V20.2648ZM5.3988 20.2939C5.14267 20.2974 4.88652 20.2994 4.6304 20.2989C4.51991 20.2987 4.40947 20.2977 4.29898 20.2954C4.28893 20.2954 4.27886 20.2952 4.26882 20.2949V21.3802H5.3988V20.2939ZM20.4652 20.2939C20.2091 20.2974 19.9529 20.2994 19.6968 20.2989C19.5863 20.2987 19.4759 20.2977 19.3654 20.2954C19.3553 20.2954 19.3453 20.2952 19.3352 20.2949V21.3802H20.4652V20.2939ZM6.77989 20.2648C6.48358 20.2728 6.18726 20.2799 5.89096 20.2856C5.8106 20.2871 5.73026 20.2887 5.6499 20.2902V21.3802H6.77989V20.2648ZM10.0443 20.2502V20.7524H16.0708V20.2502H10.0443ZM20.4652 20.0428V18.8691H19.3352V20.0438C19.3679 20.0443 19.398 20.0451 19.4306 20.0456C19.6692 20.0491 19.9078 20.0483 20.1488 20.0463C20.2543 20.0456 20.3597 20.0443 20.4652 20.0428ZM4.26882 18.8691V20.0438C4.30146 20.0443 4.33156 20.0451 4.36421 20.0456C4.60276 20.0491 4.84134 20.0483 5.0824 20.0463C5.18787 20.0456 5.29333 20.0443 5.3988 20.0428V18.8691H4.26882ZM21.8463 20.0137V18.8691H20.7163V20.0393C21.093 20.033 21.4696 20.0242 21.8463 20.0137ZM5.6499 18.8691V20.0393C6.02656 20.033 6.40323 20.0242 6.77989 20.0137V18.8691H5.6499ZM10.0443 19.4969V19.9991H16.0708V19.4969H10.0443ZM10.0443 18.8691V19.2458H16.0708V18.8691H10.0443ZM22.3485 15.8559H18.833C18.7803 15.8544 18.7275 15.8478 18.6773 15.8313C18.5342 15.7848 18.4187 15.6741 18.3634 15.5337C18.3483 15.4928 18.3383 15.4498 18.3333 15.4061C18.3308 15.3828 18.3308 15.377 18.3308 15.3536V11.8382C18.3333 11.7852 18.3384 11.7337 18.3559 11.683C18.4011 11.5401 18.5116 11.4231 18.6522 11.3693C18.6949 11.3535 18.7376 11.3432 18.7803 11.3387C18.8029 11.3362 18.8104 11.3364 18.833 11.3359C20.0132 11.3359 21.196 11.3058 22.3762 11.3367C22.3988 11.3384 22.4038 11.3384 22.4264 11.3422C22.4716 11.349 22.5117 11.3616 22.5519 11.3794C22.6825 11.4369 22.7829 11.5486 22.8256 11.683C22.8432 11.7337 22.8482 11.7852 22.8507 11.8382V15.3536C22.8507 15.377 22.8507 15.3828 22.8482 15.4061C22.8432 15.4498 22.8332 15.4928 22.8181 15.5337C22.7629 15.6741 22.6474 15.7848 22.5042 15.8313C22.454 15.8478 22.4012 15.8544 22.3485 15.8559ZM14.8153 15.8559H11.2998C11.2772 15.8554 11.2697 15.8556 11.2471 15.8531C11.2044 15.8486 11.1617 15.8383 11.119 15.8225C10.9784 15.7687 10.8679 15.6517 10.8227 15.5088C10.8052 15.4581 10.8001 15.4066 10.7976 15.3536V11.8382C10.8001 11.7852 10.8052 11.7337 10.8227 11.683C10.8679 11.5401 10.9784 11.4231 11.119 11.3693C11.1617 11.3535 11.2044 11.3432 11.2471 11.3387C11.2697 11.3362 11.2772 11.3364 11.2998 11.3359C12.48 11.3359 13.6628 11.3058 14.843 11.3367C14.8656 11.3384 14.8706 11.3384 14.8932 11.3422C14.9384 11.349 14.9785 11.3616 15.0187 11.3794C15.1493 11.4369 15.2497 11.5486 15.2924 11.683C15.31 11.7337 15.315 11.7852 15.3175 11.8382V15.3536C15.315 15.4066 15.31 15.4581 15.2924 15.5088C15.2472 15.6517 15.1367 15.7687 14.9961 15.8225C14.9534 15.8383 14.9107 15.8486 14.868 15.8531C14.8454 15.8556 14.8379 15.8554 14.8153 15.8559ZM7.2821 15.8559H3.7666C3.744 15.8554 3.73648 15.8556 3.71388 15.8531C3.67119 15.8486 3.6285 15.8383 3.58581 15.8225C3.44519 15.7687 3.33472 15.6517 3.28952 15.5088C3.27195 15.4581 3.2669 15.4066 3.26439 15.3536V11.8382C3.2669 11.7852 3.27195 11.7337 3.28952 11.683C3.33472 11.5401 3.44519 11.4231 3.58581 11.3693C3.6285 11.3535 3.67119 11.3432 3.71388 11.3387C3.73648 11.3362 3.744 11.3364 3.7666 11.3359C4.94681 11.3359 6.12955 11.3058 7.30975 11.3367C7.33235 11.3384 7.33736 11.3384 7.35996 11.3422C7.40516 11.349 7.44533 11.3616 7.48551 11.3794C7.61609 11.4369 7.71649 11.5486 7.75918 11.683C7.77675 11.7337 7.7818 11.7852 7.78431 11.8382V15.3536C7.7818 15.4066 7.77675 15.4581 7.75918 15.5088C7.71398 15.6517 7.60351 15.7687 7.46289 15.8225C7.4202 15.8383 7.37751 15.8486 7.33482 15.8531C7.31222 15.8556 7.3047 15.8554 7.2821 15.8559ZM21.8463 13.736C21.55 13.7441 21.2537 13.7511 20.9574 13.7569C20.877 13.7584 20.7967 13.7599 20.7163 13.7614V14.8514H21.8463V13.736ZM6.77989 13.736C6.48358 13.7441 6.18726 13.7511 5.89096 13.7569C5.8106 13.7584 5.73026 13.7599 5.6499 13.7614V14.8514H6.77989V13.736ZM20.4652 13.7651C20.2091 13.7687 19.9529 13.7707 19.6968 13.7702C19.5863 13.7699 19.4759 13.7689 19.3654 13.7666C19.3553 13.7666 19.3453 13.7664 19.3352 13.7662V14.8514H20.4652V13.7651ZM5.3988 13.7651C5.14267 13.7687 4.88652 13.7707 4.6304 13.7702C4.51991 13.7699 4.40947 13.7689 4.29898 13.7666C4.28893 13.7666 4.27886 13.7664 4.26882 13.7662V14.8514H5.3988V13.7651ZM14.3131 13.736C14.0168 13.7441 13.7205 13.7511 13.4242 13.7569C13.3438 13.7584 13.2635 13.7599 13.1831 13.7614V14.8514H14.3131V13.736ZM12.932 13.7651C12.6759 13.7687 12.4197 13.7707 12.1636 13.7702C12.0531 13.7699 11.9427 13.7689 11.8322 13.7666C11.8221 13.7666 11.8121 13.7664 11.802 13.7662V14.8514H12.932V13.7651ZM4.26882 12.3404V13.515C4.28137 13.5153 4.29139 13.5155 4.30394 13.5155C4.56258 13.5208 4.82125 13.5198 5.0824 13.5176C5.18787 13.5165 5.29333 13.5155 5.3988 13.514V12.3404H4.26882ZM19.3352 12.3404V13.515C19.3478 13.5153 19.3578 13.5155 19.3704 13.5155C19.629 13.5208 19.8877 13.5198 20.1488 13.5176C20.2543 13.5165 20.3597 13.5155 20.4652 13.514V12.3404H19.3352ZM12.932 13.514V12.3404H11.802V13.515C11.8146 13.5153 11.8246 13.5155 11.8372 13.5155C12.0958 13.5208 12.3545 13.5198 12.6156 13.5176C12.7211 13.5165 12.8265 13.5155 12.932 13.514ZM20.7163 12.3404V13.5105C21.093 13.5042 21.4696 13.4955 21.8463 13.4849V12.3404H20.7163ZM5.6499 12.3404V13.5105C6.02656 13.5042 6.40323 13.4955 6.77989 13.4849V12.3404H5.6499ZM14.3131 13.4849V12.3404H13.1831V13.5105C13.5598 13.5042 13.9364 13.4955 14.3131 13.4849ZM7.2821 9.32708H3.7666C3.744 9.32658 3.73648 9.32683 3.71388 9.32432C3.67119 9.3198 3.6285 9.30951 3.58581 9.29369C3.44519 9.23995 3.33472 9.12294 3.28952 8.98006C3.27195 8.92933 3.2669 8.87785 3.26439 8.82487V5.30937C3.2669 5.25639 3.27195 5.20491 3.28952 5.15419C3.33472 5.01131 3.44519 4.89429 3.58581 4.84056C3.6285 4.82474 3.67119 4.81444 3.71388 4.80992C3.73648 4.80741 3.744 4.80766 3.7666 4.80716C4.94681 4.80716 6.12955 4.77702 7.30975 4.80791C7.33235 4.80967 7.33736 4.80967 7.35996 4.81344C7.40516 4.82022 7.44533 4.83277 7.48551 4.8506C7.61609 4.90811 7.71649 5.01984 7.75918 5.15419C7.77675 5.20491 7.7818 5.25639 7.78431 5.30937V8.82487C7.7818 8.87785 7.77675 8.92933 7.75918 8.98006C7.71398 9.12294 7.60351 9.23995 7.46289 9.29369C7.4202 9.30951 7.37751 9.3198 7.33482 9.32432C7.31222 9.32683 7.3047 9.32658 7.2821 9.32708ZM14.8153 9.32708H11.2998C11.2772 9.32658 11.2697 9.32683 11.2471 9.32432C11.2044 9.3198 11.1617 9.30951 11.119 9.29369C10.9784 9.23995 10.8679 9.12294 10.8227 8.98006C10.8052 8.92933 10.8001 8.87785 10.7976 8.82487V5.30937C10.8001 5.25639 10.8052 5.20491 10.8227 5.15419C10.8679 5.01131 10.9784 4.89429 11.119 4.84056C11.1617 4.82474 11.2044 4.81444 11.2471 4.80992C11.2697 4.80741 11.2772 4.80766 11.2998 4.80716C12.48 4.80716 13.6628 4.77702 14.843 4.80791C14.8957 4.81193 14.9459 4.82147 14.9961 4.84056C15.1267 4.89103 15.2347 4.9975 15.2849 5.12933C15.3 5.17026 15.31 5.2132 15.315 5.25689C15.3175 5.28024 15.3175 5.28602 15.3175 5.30937V8.82487C15.3175 8.84822 15.3175 8.854 15.315 8.87735C15.31 8.92105 15.3 8.96398 15.2849 9.00491C15.2297 9.14528 15.1142 9.25602 14.971 9.30248C14.9208 9.31905 14.868 9.32558 14.8153 9.32708ZM22.3485 9.32708H18.833C18.7803 9.32558 18.7275 9.31905 18.6773 9.30248C18.5342 9.25602 18.4187 9.14528 18.3634 9.00491C18.3483 8.96398 18.3383 8.92105 18.3333 8.87735C18.3308 8.854 18.3308 8.84822 18.3308 8.82487V5.30937C18.3308 5.28602 18.3308 5.28024 18.3333 5.25689C18.3383 5.2132 18.3483 5.17026 18.3634 5.12933C18.4187 4.98896 18.5342 4.87822 18.6773 4.83177C18.7275 4.81519 18.7803 4.80867 18.833 4.80716C20.0132 4.80716 21.196 4.77702 22.3762 4.80791C22.3988 4.80967 22.4038 4.80967 22.4264 4.81344C22.4716 4.82022 22.5117 4.83277 22.5519 4.8506C22.6825 4.90811 22.7829 5.01984 22.8256 5.15419C22.8432 5.20491 22.8482 5.25639 22.8507 5.30937V8.82487C22.8482 8.87785 22.8432 8.92933 22.8256 8.98006C22.7804 9.12294 22.6699 9.23995 22.5293 9.29369C22.4866 9.30951 22.4439 9.3198 22.4012 9.32432C22.3786 9.32683 22.3711 9.32658 22.3485 9.32708ZM5.3988 7.23637C5.14267 7.23989 4.88652 7.24189 4.6304 7.24139C4.51991 7.24114 4.40947 7.24013 4.29898 7.23787C4.28893 7.23787 4.27886 7.23762 4.26882 7.23737V8.32266H5.3988V7.23637ZM21.8463 7.20724C21.55 7.21528 21.2537 7.2223 20.9574 7.22808C20.877 7.22958 20.7967 7.23109 20.7163 7.2326V8.32266H21.8463V7.20724ZM14.3131 7.20724C14.0168 7.21528 13.7205 7.2223 13.4242 7.22808C13.3438 7.22958 13.2635 7.23109 13.1831 7.2326V8.32266H14.3131V7.20724ZM6.77989 7.20724C6.48358 7.21528 6.18726 7.2223 5.89096 7.22808C5.8106 7.22958 5.73026 7.23109 5.6499 7.2326V8.32266H6.77989V7.20724ZM20.4652 7.23637C20.2091 7.23989 19.9529 7.24189 19.6968 7.24139C19.5863 7.24114 19.4759 7.24013 19.3654 7.23787C19.3553 7.23787 19.3453 7.23762 19.3352 7.23737V8.32266H20.4652V7.23637ZM12.932 7.23637C12.6759 7.23989 12.4197 7.24189 12.1636 7.24139C12.0531 7.24114 11.9427 7.24013 11.8322 7.23787C11.8221 7.23787 11.8121 7.23762 11.802 7.23737V8.32266H12.932V7.23637ZM5.3988 6.98526V5.81159H4.26882V6.98627C4.30146 6.98677 4.33156 6.98752 4.36421 6.98802C4.60276 6.99154 4.84134 6.99078 5.0824 6.98877C5.18787 6.98802 5.29333 6.98677 5.3988 6.98526ZM20.4652 6.98526V5.81159H19.3352V6.98627C19.3679 6.98677 19.398 6.98752 19.4306 6.98802C19.6692 6.99154 19.9078 6.99078 20.1488 6.98877C20.2543 6.98802 20.3597 6.98677 20.4652 6.98526ZM12.932 6.98526V5.81159H11.802V6.98627C11.8347 6.98677 11.8648 6.98752 11.8974 6.98802C12.136 6.99154 12.3745 6.99078 12.6156 6.98877C12.7211 6.98802 12.8265 6.98677 12.932 6.98526ZM21.8463 6.95613V5.81159H20.7163V6.98175C21.093 6.97547 21.4696 6.96668 21.8463 6.95613ZM6.77989 6.95613V5.81159H5.6499V6.98175C6.02656 6.97547 6.40323 6.96668 6.77989 6.95613ZM14.3131 6.95613V5.81159H13.1831V6.98175C13.5598 6.97547 13.9364 6.96668 14.3131 6.95613ZM19.8374 1.04056V2.04498H20.2141V1.04056H19.8374ZM15.192 1.04056H14.8153V2.04498H15.192V1.04056ZM9.79317 1.04056V2.04498H10.1698V1.04056H9.79317ZM5.14769 1.04056H4.77103V2.04498H5.14769V1.04056ZM6.40323 1.04056V2.04498H6.77989V1.04056H6.40323ZM6.15212 1.04056H5.3988V2.04498H6.15212V1.04056ZM11.4254 1.04056V2.04498H11.802V1.04056H11.4254ZM10.4209 1.04056V2.04498H11.1743V1.04056H10.4209ZM16.4475 1.04056V2.04498H16.8242V1.04056H16.4475ZM16.1964 1.04056H15.4431V2.04498H16.1964V1.04056ZM21.4696 1.04056V2.04498H21.8463V1.04056H21.4696ZM20.4652 1.04056V2.04498H21.2185V1.04056H20.4652Z" fill="#F0F1F8"/>
</svg>
