<svg width="15" height="26" viewBox="0 0 15 26" fill="none" xmlns="http://www.w3.org/2000/svg">
<path d="M0.481021 0.748047C0.375423 0.748113 0.273709 0.787871 0.196058 0.859432C0.118406 0.930993 0.0704911 1.02913 0.0618192 1.13437C-0.294603 5.41673 0.861637 10.4649 4.27521 13.1564V14.6442C4.27522 14.7558 4.31956 14.8628 4.39848 14.9417C4.4774 15.0207 4.58444 15.065 4.69605 15.065H5.53774C5.54363 15.065 5.55281 15.0559 5.61501 15.1308C5.67721 15.2057 5.75804 15.3586 5.8205 15.5615C5.94541 15.9671 6.00518 16.5627 5.96188 17.1512C5.91861 17.7395 5.77198 18.3224 5.54432 18.7162C5.31665 19.1101 5.06951 19.2998 4.69605 19.2998C4.63683 19.2997 4.57825 19.312 4.52414 19.3361C4.47003 19.3602 4.42161 19.3954 4.38205 19.4395C4.34248 19.4835 4.31266 19.5355 4.29453 19.5918C4.2764 19.6482 4.27038 19.7078 4.27685 19.7666C4.27685 19.7666 4.4403 21.252 4.84729 22.7553C5.05079 23.5069 5.3119 24.2651 5.6709 24.871C6.0299 25.4771 6.53256 25.9922 7.22112 25.9922C7.90933 25.9914 8.41213 25.4772 8.7697 24.871C9.12728 24.2649 9.38645 23.5069 9.58838 22.7553C9.99226 21.2522 10.1506 19.765 10.1506 19.765C10.1568 19.7064 10.1506 19.6472 10.1325 19.5911C10.1144 19.535 10.0846 19.4834 10.0453 19.4395C10.0059 19.3957 9.95779 19.3606 9.90401 19.3365C9.85022 19.3124 9.79198 19.2999 9.73305 19.2998C9.36648 19.2998 9.11989 19.1108 8.89136 18.7162C8.66282 18.3217 8.51226 17.7378 8.46722 17.1495C8.42219 16.5613 8.48144 15.9657 8.60696 15.5615C8.66975 15.3594 8.75085 15.2089 8.81409 15.1341C8.8773 15.0591 8.88976 15.065 8.90451 15.065H9.7462C9.85781 15.065 9.96485 15.0207 10.0438 14.9417C10.1227 14.8628 10.167 14.7558 10.167 14.6442V13.1433C13.5703 10.4433 14.6338 5.35574 14.3673 1.14259C14.3606 1.03588 14.3135 0.93572 14.2357 0.862443C14.1578 0.789166 14.055 0.748266 13.9481 0.748047H0.481021ZM0.905154 1.58974H13.5174C13.6836 5.56715 12.582 10.1927 9.56372 12.5317H4.86209C1.83519 10.1877 0.66374 5.60494 0.905154 1.58974ZM5.1169 13.3816H9.32535V14.2233H8.90451C8.60577 14.2233 8.34258 14.3872 8.17132 14.5899C8.00005 14.7927 7.88813 15.0377 7.80307 15.3116C7.63297 15.8594 7.57668 16.5326 7.62882 17.2136C7.68092 17.8946 7.84028 18.5813 8.1631 19.1387C8.40262 19.5522 8.79722 19.836 9.25466 19.9902C9.22327 20.2559 9.1164 21.2708 8.77628 22.5367C8.58525 23.2476 8.3344 23.9509 8.04473 24.442C7.75506 24.933 7.47298 25.1503 7.22112 25.1505C6.96866 25.1505 6.68512 24.9347 6.39423 24.4436C6.10333 23.9526 5.8519 23.2477 5.65939 22.5367C5.31706 21.2722 5.20663 20.2597 5.17443 19.9919C5.63508 19.8381 6.03286 19.5534 6.27258 19.1387C6.59519 18.5805 6.75181 17.8945 6.80192 17.2136C6.852 16.5328 6.79435 15.8596 6.62602 15.3132C6.54194 15.04 6.43217 14.7958 6.26436 14.5932C6.09654 14.3907 5.83619 14.2233 5.53774 14.2233H5.1169V13.3816ZM7.21126 21.7985C6.75139 21.7985 6.36957 22.1803 6.36957 22.6402C6.36957 23.1 6.75139 23.4819 7.21126 23.4819C7.67113 23.4819 8.05295 23.1 8.05295 22.6402C8.05295 22.1803 7.67113 21.7985 7.21126 21.7985Z" fill="#C11426"/>
</svg>
