<svg width="28" height="20" viewBox="0 0 28 20" fill="none" xmlns="http://www.w3.org/2000/svg">
<path d="M26.9168 -3.64262e-08L1.0835 -2.29485e-06C0.853084 -2.31499e-06 0.666834 0.186248 0.666834 0.416666L0.666833 5.83416L0.666833 8.74875C0.666833 9.66833 1.41517 10.4167 2.33475 10.4167L6.99475 10.4167C7.16808 10.8992 7.62516 11.2471 8.16683 11.2471L9.82517 11.2471C9.82808 11.2471 9.83058 11.2487 9.8335 11.2487C10.5227 11.2487 11.0835 11.8096 11.0835 12.4987L11.0835 17.0833C11.0835 18.6912 12.3922 20 14.0002 20C15.6081 20 16.9168 18.6912 16.9168 17.0833L16.9168 12.4987C16.9168 11.8096 17.4777 11.2487 18.1668 11.2487C18.1697 11.2487 18.1722 11.2471 18.1752 11.2471L19.8335 11.2471C20.3752 11.2471 20.8322 10.8992 21.0056 10.4167L25.6656 10.4167C25.6693 10.4167 25.6727 10.4146 25.6764 10.4146C26.5914 10.4088 27.3335 9.66458 27.3335 8.74875L27.3335 5.83417L27.3335 0.416668C27.3335 0.186251 27.1472 -1.62825e-08 26.9168 -3.64262e-08ZM1.50017 2.08333L26.5002 2.08333L26.5002 5.4175L1.50017 5.4175L1.50017 2.08333ZM26.5002 0.833334L26.5002 1.25L1.50017 1.25L1.50017 0.833332L26.5002 0.833334ZM16.0835 12.4987L16.0835 17.0833C16.0835 18.2321 15.1489 19.1667 14.0002 19.1667C12.8514 19.1667 11.9168 18.2321 11.9168 17.0833L11.9168 12.4987C11.9168 11.3558 10.9906 10.4258 9.84975 10.4171C9.84392 10.4167 9.83933 10.4137 9.8335 10.4137L8.16683 10.4137C7.93683 10.4137 7.75016 10.2271 7.75016 9.99708L7.75017 7.91542L20.2502 7.91542L20.2502 9.99708C20.2502 10.2271 20.0635 10.4138 19.8335 10.4137L18.1668 10.4137C18.161 10.4137 18.1564 10.4167 18.1506 10.4171C17.0097 10.4258 16.0835 11.3558 16.0835 12.4987ZM25.6668 9.58208C25.6647 9.58208 25.6627 9.58333 25.6606 9.58333L21.0835 9.58333L21.0835 7.49875C21.0835 7.26833 20.8972 7.08208 20.6668 7.08208L7.3335 7.08208C7.10308 7.08208 6.91683 7.26833 6.91683 7.49875L6.91683 9.58333L2.33475 9.58333C1.87433 9.58333 1.50017 9.20917 1.50017 8.74875L1.50017 6.25083L26.5002 6.25083L26.5002 8.74875C26.5002 9.20833 26.1264 9.58208 25.6668 9.58208Z" fill="#F6F7FC"/>
<path d="M14 15.8337C13.3108 15.8337 12.75 16.3946 12.75 17.0837C12.75 17.7729 13.3108 18.3337 14 18.3337C14.6892 18.3337 15.25 17.7729 15.25 17.0837C15.25 16.3946 14.6892 15.8337 14 15.8337ZM14 17.5004C13.77 17.5004 13.5833 17.3137 13.5833 17.0837C13.5833 16.8537 13.77 16.6671 14 16.6671C14.23 16.6671 14.4167 16.8537 14.4167 17.0837C14.4167 17.3137 14.23 17.5004 14 17.5004Z" fill="#F6F7FC"/>
</svg>
