<svg width="20" height="25" viewBox="0 0 20 25" fill="none" xmlns="http://www.w3.org/2000/svg">
<path fill="none" fill-rule="evenodd" clip-rule="evenodd" d="M18.2504 1.02465L16.1815 1.83322C15.2597 2.06882 14.3133 2.188 13.363 2.188H6.85133C5.90141 2.188 4.95466 2.06882 4.03285 1.83322L1.96432 1.02465C1.35097 0.867849 0.82235 1.48714 1.05676 2.08703L2.18804 4.95977C1.15417 9.62425 1.1411 14.6776 2.18804 20.0065L1.24999 22.8574C1.02548 23.4304 1.50064 24.0343 2.09657 23.9325L4.43832 23.5338C4.78795 23.474 5.14036 23.4308 5.47496 23.3706C6.16869 23.2455 6.86915 23.1742 7.57318 23.1742H12.6412C13.3452 23.1742 14.046 23.2455 14.7394 23.3706C15.0744 23.4308 15.4264 23.474 15.7764 23.5338L18.1178 23.9325C18.7137 24.0343 19.1889 23.4304 18.9647 22.8574L18.0267 20.0065C19.0922 14.4931 19.0772 9.45715 18.0267 4.95977L19.1576 2.08703C19.3924 1.48714 18.8634 0.867849 18.2504 1.02465Z" stroke="#F0F1F8" stroke-width="0.791933" stroke-linecap="round" stroke-linejoin="round"/>
<path fill="none" fill-rule="evenodd" clip-rule="evenodd" d="M5.75195 11.691H14.4632V5.35556H5.75195V11.691Z" stroke="#F0F1F8" stroke-width="0.791933" stroke-linecap="round" stroke-linejoin="round"/>
<path fill="none" d="M8.91992 7.33548H11.2957" stroke="#F0F1F8" stroke-width="0.791933" stroke-linecap="round" stroke-linejoin="round"/>
<path fill="none" d="M7.73145 9.31531H12.483" stroke="#F0F1F8" stroke-width="0.791933" stroke-linecap="round" stroke-linejoin="round"/>
</svg>
