<svg width="60" height="60" viewBox="0 0 60 60" fill="none" xmlns="http://www.w3.org/2000/svg">
<circle cx="30" cy="30" r="22" fill="#17315B"/>
<circle cx="30" cy="30" r="29.835" stroke="#9AB4C1" stroke-width="0.33"/>
<path d="M34 29C34 31.2092 32.2092 33 30 33C27.7908 33 26 31.2092 26 29C26 26.7908 27.7908 25 30 25C32.2092 25 34 26.7908 34 29Z" fill="#F6F7FC"/>
<path d="M39.5089 21.806C39.3135 21.2764 39.0017 20.797 38.5965 20.4035C38.203 19.9983 37.7239 19.6865 37.194 19.4911C36.7642 19.3241 36.1185 19.1254 34.9293 19.0713C33.6428 19.0126 33.2571 19 30.0002 19C26.7429 19 26.3572 19.0123 25.0711 19.071C23.8818 19.1254 23.2358 19.3241 22.8063 19.4911C22.2764 19.6865 21.797 19.9983 21.4038 20.4035C20.9987 20.797 20.6868 21.2761 20.4911 21.806C20.3241 22.2358 20.1254 22.8818 20.0713 24.0711C20.0126 25.3572 20 25.7429 20 29.0002C20 32.2571 20.0126 32.6428 20.0713 33.9293C20.1254 35.1185 20.3241 35.7642 20.4911 36.194C20.6868 36.7239 20.9983 37.203 21.4035 37.5965C21.797 38.0017 22.2761 38.3135 22.806 38.5089C23.2358 38.6762 23.8818 38.8749 25.0711 38.929C26.3572 38.9877 26.7426 39 29.9998 39C33.2574 39 33.6431 38.9877 34.9289 38.929C36.1182 38.8749 36.7642 38.6762 37.194 38.5089C38.2578 38.0986 39.0986 37.2578 39.5089 36.194C39.6759 35.7642 39.8746 35.1185 39.929 33.9293C39.9877 32.6428 40 32.2571 40 29.0002C40 25.7429 39.9877 25.3572 39.929 24.0711C39.8749 22.8818 39.6762 22.2358 39.5089 21.806ZM30.0002 35.2634C26.5407 35.2634 23.7363 32.4593 23.7363 28.9998C23.7363 25.5404 26.5407 22.7363 30.0002 22.7363C33.4593 22.7363 36.2637 25.5404 36.2637 28.9998C36.2637 32.4593 33.4593 35.2634 30.0002 35.2634ZM36.5114 23.9524C35.703 23.9524 35.0476 23.297 35.0476 22.4886C35.0476 21.6803 35.703 21.0249 36.5114 21.0249C37.3197 21.0249 37.9751 21.6803 37.9751 22.4886C37.9748 23.297 37.3197 23.9524 36.5114 23.9524Z" fill="#F6F7FC"/>
</svg>
