<svg width="60" height="60" viewBox="0 0 60 60" fill="none" xmlns="http://www.w3.org/2000/svg">
<circle cx="30" cy="30" r="22" fill="#17315B"/>
<circle cx="30" cy="30" r="29.835" stroke="#9AB4C1" stroke-width="0.33"/>
<g clip-path="url(#clip0)">
<path d="M19.4785 35.3845C19.9277 36.9777 21.3018 37.2692 21.3934 37.3251C23.6548 37.9411 36.3305 37.9429 38.6258 37.3251C40.1979 36.8704 40.4867 35.4762 40.5408 35.3845C41.1393 32.2 41.1788 28.0484 40.5133 24.4349L40.5408 24.6146C40.0916 23.0214 38.7175 22.7299 38.6258 22.674C36.3947 22.0681 23.686 22.0452 21.3934 22.674C19.8213 23.1296 19.5326 24.5229 19.4785 24.6146C18.8378 27.9613 18.8057 31.8013 19.4785 35.3845ZM27.8073 33.3468V26.6615L33.5512 30.0092L27.8073 33.3468Z" fill="#F6F7FC"/>
</g>
<defs>
<clipPath id="clip0">
<rect width="22" height="22" fill="white" transform="translate(19 19)"/>
</clipPath>
</defs>
</svg>
