<svg width="122" height="58" viewBox="0 0 122 58" fill="none" xmlns="http://www.w3.org/2000/svg">
<path fill-rule="evenodd" clip-rule="evenodd" d="M21.4999 0.915039C9.97137 0.915039 0.625633 10.2608 0.625633 21.7893C0.625633 33.3179 9.97136 42.6636 21.4999 42.6636H72.5001V42.6638C73.6417 42.6638 74.9198 43.1881 76.2963 44.1057C77.6671 45.0194 79.0961 46.2966 80.5322 47.7425C81.9669 49.1872 83.3975 50.789 84.7741 52.3469C84.9371 52.5314 85.0994 52.7153 85.2609 52.8983C86.4599 54.257 87.6137 55.5644 88.6782 56.6704L89.3221 57.3394V56.4108V56.4101V56.4092V56.4084V56.4074V56.4064V56.4053V56.4041V56.4029V56.4016V56.4002V56.3988V56.3973V56.3957V56.3941V56.3924V56.3906V56.3888V56.3869V56.3849V56.3828V56.3807V56.3785V56.3762V56.3739V56.3715V56.369V56.3665V56.3639V56.3612V56.3584V56.3556V56.3527V56.3497V56.3466V56.3435V56.3403V56.337V56.3337V56.3302V56.3267V56.3232V56.3195V56.3158V56.312V56.3081V56.3042V56.3001V56.296V56.2919V56.2876V56.2833V56.2788V56.2744V56.2698V56.2651V56.2604V56.2556V56.2507V56.2458V56.2407V56.2356V56.2304V56.2251V56.2198V56.2143V56.2088V56.2032V56.1975V56.1918V56.1859V56.18V56.174V56.1679V56.1617V56.1555V56.1491V56.1427V56.1362V56.1296V56.1229V56.1162V56.1093V56.1024V56.0954V56.0883V56.0811V56.0738V56.0665V56.059V56.0515V56.0439V56.0362V56.0284V56.0205V56.0126V56.0045V55.9964V55.9882V55.9799V55.9715V55.963V55.9544V55.9457V55.937V55.9281V55.9192V55.9101V55.901V55.8918V55.8825V55.8731V55.8636V55.854V55.8444V55.8346V55.8248V55.8148V55.8048V55.7947V55.7844V55.7741V55.7637V55.7532V55.7426V55.7319V55.7211V55.7102V55.6993V55.6882V55.677V55.6657V55.6544V55.6429V55.6314V55.6197V55.608V55.5961V55.5842V55.5721V55.56V55.5478V55.5354V55.523V55.5105V55.4978V55.4851V55.4723V55.4593V55.4463V55.4332V55.4199V55.4066V55.3932V55.3796V55.366V55.3523V55.3384V55.3245V55.3104V55.2963V55.282V55.2677V55.2532V55.2387V55.224V55.2092V55.1943V55.1794V55.1643V55.1491V55.1338V55.1184V55.1029V55.0873V55.0716V55.0558V55.0398V55.0238V55.0076V54.9914V54.975V54.9586V54.942V54.9253V54.9085V54.8916V54.8746V54.8575V54.8403V54.8229V54.8055V54.7879V54.7703V54.7525V54.7346V54.7166V54.6985V54.6803V54.6619V54.6435V54.6249V54.6063V54.5875V54.5686V54.5496V54.5304V54.5112V54.4919V54.4724V54.4528V54.4331V54.4133V54.3934V54.3733V54.3532V54.3329V54.3125V54.292V54.2714V54.2507V54.2298V54.2089V54.1878V54.1666V54.1452V54.1238V54.1022V54.0806V54.0588V54.0368V54.0148V53.9927V53.9704V53.948V53.9255V53.9028V53.8801V53.8572V53.8342V53.8111V53.7879V53.7645V53.741V53.7174V53.6937V53.6698V53.6458V53.6217V53.5975V53.5732V53.5487V53.5241V53.4994V53.4745V53.4496V53.4245V53.3993V53.3739V53.3485V53.3229V53.2971V53.2713V53.2453V53.2192V53.193V53.1666V53.1401V53.1135V53.0868V53.0599V53.0329V53.0058V52.9785V52.9512V52.9236V52.896V52.8682V52.8403V52.8123V52.7841V52.7558V52.7274V52.6988V52.6701V52.6413V52.6124V52.5833V52.554V52.5247V52.4952V52.4656V52.4358V52.4059V52.3759V52.3458V52.3155V52.2851V52.2545V52.2238V52.193V52.162V52.1309V52.0997V52.0683V52.0368V52.0051V51.9734V51.9414V51.9094V51.8772V51.8448V51.8124V51.7798V51.747V51.7141V51.6811V51.6479V51.6146V51.5812V51.5476V51.5138V51.48V51.446V51.4118V51.3775V51.3431V51.3085V51.2738V51.2389V51.2039V51.1688V51.1335V51.0981V51.0625V51.0268V50.9909V50.9549V50.9188V50.8825V50.846V50.8095V50.7727V50.7359V50.6988V50.6617V50.6244V50.5869V50.5493V50.5115V50.4736V50.4356V50.3974V50.3591V50.3206V50.2819V50.2431V50.2042V50.1651V50.1259V50.0865V50.047V50.0073V49.9675V49.9275V49.8873V49.8471V49.8066V49.766V49.7253V49.6844V49.6434V49.6022V49.5608V49.5193V49.4777V49.4359V49.3939V49.3518V49.3095V49.2671V49.2245V49.1818V49.1389V49.0959V49.0527V49.0093V48.9658V48.9221V48.8783V48.8343V48.7902V48.7459V48.7015V48.6569V48.6121V48.5672V48.5221V48.4769V48.4315V48.3859V48.3402V48.2943V48.2483V48.2021V48.1558V48.1093V48.0626V48.0158V47.9688V47.9216V47.8743V47.8268V47.7792V47.7314V47.6834V47.6353V47.587V47.5385V47.4899V47.4411V47.3922V47.3431V47.2938V47.2444V47.1948V47.145V47.0951V47.045V46.9947V46.9443V46.8937V46.843V46.792V46.7409V46.6897V46.6382V46.5867V46.5349V46.483V46.4309V46.3786V46.3262V46.2736V46.2208V46.1678V46.1147V46.0614V46.008V45.9544V45.9006V45.8466V45.7925V45.7382V45.6837V45.6291V45.5742V45.5192V45.4641V45.4087V45.3532V45.2975V45.2417V45.1856V45.1294V45.0731V45.0165V44.9598V44.9029V44.8458V44.7886V44.7311V44.6735V44.6157V44.5578V44.4997V44.4413V44.3829V44.3242V44.2654V44.2063V44.1471V44.0878V44.0282V43.9685V43.9086V43.8485V43.7882V43.7278V43.6672V43.6064V43.5454V43.4842V43.4229V43.3613V43.2996V43.2377V43.1757V43.1134V43.051V42.9884V42.9256V42.8626V42.7994V42.7361V42.6725V42.6636H100.5C112.028 42.6636 121.374 33.3179 121.374 21.7893C121.374 10.2608 112.028 0.915039 100.5 0.915039H21.4999ZM88.5746 42.2227H88.5735V42.2875V42.3521V42.4166V42.4808V42.5449V42.6088V42.6725V42.7361V42.7994V42.8626V42.9256V42.9884V43.051V43.1134V43.1757V43.2377V43.2996V43.3613V43.4229V43.4842V43.5454V43.6064V43.6672V43.7278V43.7882V43.8485V43.9086V43.9685V44.0282V44.0878V44.1471V44.2063V44.2654V44.3242V44.3829V44.4413V44.4997V44.5578V44.6157V44.6735V44.7311V44.7886V44.8458V44.9029V44.9598V45.0165V45.0731V45.1294V45.1856V45.2417V45.2975V45.3532V45.4087V45.4641V45.5192V45.5742V45.6291V45.6837V45.7382V45.7925V45.8466V45.9006V45.9544V46.008V46.0614V46.1147V46.1678V46.2208V46.2736V46.3262V46.3786V46.4309V46.483V46.5349V46.5867V46.6382V46.6897V46.7409V46.792V46.843V46.8937V46.9443V46.9947V47.045V47.0951V47.145V47.1948V47.2444V47.2938V47.3431V47.3922V47.4411V47.4899V47.5385V47.587V47.6353V47.6834V47.7314V47.7792V47.8268V47.8743V47.9216V47.9688V48.0158V48.0626V48.1093V48.1558V48.2021V48.2483V48.2943V48.3402V48.3859V48.4315V48.4769V48.5221V48.5672V48.6121V48.6569V48.7015V48.7459V48.7902V48.8343V48.8783V48.9221V48.9658V49.0093V49.0527V49.0959V49.1389V49.1818V49.2245V49.2671V49.3095V49.3518V49.3939V49.4359V49.4777V49.5193V49.5608V49.6022V49.6434V49.6844V49.7253V49.766V49.8066V49.8471V49.8873V49.9275V49.9675V50.0073V50.047V50.0865V50.1259V50.1651V50.2042V50.2431V50.2819V50.3206V50.3591V50.3974V50.4356V50.4736V50.5115V50.5493V50.5869V50.6244V50.6617V50.6988V50.7359V50.7727V50.8095V50.846V50.8825V50.9188V50.9549V50.9909V51.0268V51.0625V51.0981V51.1335V51.1688V51.2039V51.2389V51.2738V51.3085V51.3431V51.3775V51.4118V51.446V51.48V51.5138V51.5476V51.5812V51.6146V51.6479V51.6811V51.7141V51.747V51.7798V51.8124V51.8448V51.8772V51.9094V51.9414V51.9734V52.0051V52.0368V52.0683V52.0997V52.1309V52.162V52.193V52.2238V52.2545V52.2851V52.3155V52.3458V52.3759V52.4059V52.4358V52.4656V52.4952V52.5247V52.554V52.5833V52.6124V52.6413V52.6701V52.6988V52.7274V52.7558V52.7841V52.8123V52.8403V52.8682V52.896V52.9236V52.9512V52.9785V53.0058V53.0329V53.0599V53.0868V53.1135V53.1401V53.1666V53.193V53.2192V53.2453V53.2713V53.2971V53.3229V53.3485V53.3739V53.3993V53.4245V53.4496V53.4745V53.4994V53.5241V53.5487V53.5732V53.5975V53.6217V53.6458V53.6698V53.6937V53.7174V53.741V53.7645V53.7879V53.8111V53.8342V53.8572V53.8801V53.9028V53.9255V53.948V53.9704V53.9927V54.0148V54.0368V54.0588V54.0806V54.1022V54.1238V54.1452V54.1666V54.1878V54.2089V54.2298V54.2507V54.2714V54.292V54.3125V54.3329V54.3532V54.3733V54.3934V54.4133V54.4331V54.4528V54.4724V54.4919V54.5112V54.5304V54.5496V54.5686V54.5875V54.6063V54.6249V54.6435V54.6619V54.6803V54.6985V54.7166V54.7346V54.7525V54.7703V54.7879V54.8055V54.8229V54.8403V54.8575V54.8746V54.8916V54.9085V54.9253V54.942V54.9586V54.975V54.9914V55.0076V55.0238V55.0398V55.0558V55.0716V55.0873V55.1029V55.1184V55.1338V55.1491V55.1643V55.1794V55.1943V55.2092V55.224V55.2387V55.2532V55.2677V55.282V55.2963V55.3104V55.3245V55.3384V55.3523V55.366V55.3796V55.3932V55.4066V55.4199V55.4332V55.4463V55.4593V55.4701C87.7046 54.5361 86.7824 53.4911 85.8226 52.4034L85.8223 52.4031C85.6609 52.2202 85.4985 52.0362 85.3351 51.8512C83.9587 50.2936 82.5151 48.6769 81.0633 47.215C79.6128 45.7545 78.143 44.437 76.7116 43.4828C75.3692 42.588 74.0254 41.9886 72.7391 41.9215V41.915H21.4999C10.3848 41.915 1.3742 32.9044 1.3742 21.7893C1.3742 10.6742 10.3848 1.6636 21.4999 1.6636H100.5C111.615 1.6636 120.626 10.6742 120.626 21.7893C120.626 32.9044 111.615 41.915 100.5 41.915H88.5746V42.2227Z" fill="#9AB4C1"/>
<path d="M37.1521 28.2939H34.3261L31.8781 24.1899L29.4301 28.2939H26.6221L30.4741 21.8319L26.8201 15.6939H29.6281L31.8781 19.4739L34.1281 15.6939H36.9361L33.2821 21.8139L37.1521 28.2939ZM41.0284 25.9179H46.3384V28.2939H38.5444V15.6939H46.2484V18.0699H41.0284V20.7519H45.7984V23.0919H41.0284V25.9179ZM47.1174 28.2939V25.9899C47.8614 26.0979 48.4194 25.9479 48.7914 25.5399C49.1634 25.1319 49.3494 24.3339 49.3494 23.1459V15.6939H57.9174V28.2939H55.4514V18.0699H51.8154V23.0739C51.8154 24.1659 51.6834 25.0839 51.4194 25.8279C51.1554 26.5719 50.7894 27.1239 50.3214 27.4839C49.8654 27.8439 49.3734 28.0839 48.8454 28.2039C48.3294 28.3239 47.7534 28.3539 47.1174 28.2939ZM59.2814 28.2939V25.9899C60.0254 26.0979 60.5834 25.9479 60.9554 25.5399C61.3274 25.1319 61.5134 24.3339 61.5134 23.1459V15.6939H70.0814V28.2939H67.6154V18.0699H63.9794V23.0739C63.9794 24.1659 63.8474 25.0839 63.5834 25.8279C63.3194 26.5719 62.9534 27.1239 62.4854 27.4839C62.0294 27.8439 61.5374 28.0839 61.0094 28.2039C60.4934 28.3239 59.9174 28.3539 59.2814 28.2939ZM83.0195 26.6559C81.7475 27.9159 80.1995 28.5459 78.3755 28.5459C76.5515 28.5459 75.0035 27.9159 73.7315 26.6559C72.4715 25.3839 71.8415 23.8299 71.8415 21.9939C71.8415 20.1579 72.4715 18.6099 73.7315 17.3499C75.0035 16.0779 76.5515 15.4419 78.3755 15.4419C80.1995 15.4419 81.7475 16.0779 83.0195 17.3499C84.2915 18.6099 84.9275 20.1579 84.9275 21.9939C84.9275 23.8299 84.2915 25.3839 83.0195 26.6559ZM75.4775 24.9639C76.2575 25.7319 77.2235 26.1159 78.3755 26.1159C79.5275 26.1159 80.4935 25.7319 81.2735 24.9639C82.0535 24.1839 82.4435 23.1939 82.4435 21.9939C82.4435 20.7939 82.0535 19.8039 81.2735 19.0239C80.4935 18.2439 79.5275 17.8539 78.3755 17.8539C77.2235 17.8539 76.2575 18.2439 75.4775 19.0239C74.6975 19.8039 74.3075 20.7939 74.3075 21.9939C74.3075 23.1939 74.6975 24.1839 75.4775 24.9639ZM92.9538 15.6939H95.4378L91.6578 24.8199C90.6498 27.2679 88.9938 28.4259 86.6898 28.2939V25.9719C87.3618 26.0319 87.9018 25.9419 88.3098 25.7019C88.7298 25.4499 89.0778 25.0479 89.3538 24.4959L85.2318 15.6939H87.7158L90.4698 21.7779L92.9538 15.6939Z" fill="#17315B"/>
<path d="M37.1521 28.2939V28.7745H37.9988L37.5646 28.0476L37.1521 28.2939ZM34.3261 28.2939L33.9134 28.5401L34.0532 28.7745H34.3261V28.2939ZM31.8781 24.1899L32.2908 23.9438L31.8781 23.252L31.4654 23.9438L31.8781 24.1899ZM29.4301 28.2939V28.7745H29.703L29.8428 28.5401L29.4301 28.2939ZM26.6221 28.2939L26.2094 28.0479L25.7763 28.7745H26.6221V28.2939ZM30.4741 21.8319L30.8868 22.078L31.0334 21.8321L30.887 21.5862L30.4741 21.8319ZM26.8201 15.6939V15.2134H25.9748L26.4072 15.9397L26.8201 15.6939ZM29.6281 15.6939L30.041 15.4482L29.9013 15.2134H29.6281V15.6939ZM31.8781 19.4739L31.4652 19.7197L31.8781 20.4134L32.291 19.7197L31.8781 19.4739ZM34.1281 15.6939V15.2134H33.8549L33.7152 15.4482L34.1281 15.6939ZM36.9361 15.6939L37.3487 15.9403L37.7826 15.2134H36.9361V15.6939ZM33.2821 21.8139L32.8695 21.5676L32.7224 21.814L32.8696 22.0603L33.2821 21.8139ZM37.1521 27.8134H34.3261V28.7745H37.1521V27.8134ZM34.7388 28.0478L32.2908 23.9438L31.4654 24.4361L33.9134 28.5401L34.7388 28.0478ZM31.4654 23.9438L29.0174 28.0478L29.8428 28.5401L32.2908 24.4361L31.4654 23.9438ZM29.4301 27.8134H26.6221V28.7745H29.4301V27.8134ZM27.0348 28.54L30.8868 22.078L30.0614 21.5859L26.2094 28.0479L27.0348 28.54ZM30.887 21.5862L27.233 15.4482L26.4072 15.9397L30.0612 22.0777L30.887 21.5862ZM26.8201 16.1745H29.6281V15.2134H26.8201V16.1745ZM29.2152 15.9397L31.4652 19.7197L32.291 19.2282L30.041 15.4482L29.2152 15.9397ZM32.291 19.7197L34.541 15.9397L33.7152 15.4482L31.4652 19.2282L32.291 19.7197ZM34.1281 16.1745H36.9361V15.2134H34.1281V16.1745ZM36.5235 15.4476L32.8695 21.5676L33.6947 22.0603L37.3487 15.9403L36.5235 15.4476ZM32.8696 22.0603L36.7396 28.5403L37.5646 28.0476L33.6946 21.5676L32.8696 22.0603ZM41.0284 25.9179H40.5479V26.3985H41.0284V25.9179ZM46.3384 25.9179H46.8189V25.4374H46.3384V25.9179ZM46.3384 28.2939V28.7745H46.8189V28.2939H46.3384ZM38.5444 28.2939H38.0639V28.7745H38.5444V28.2939ZM38.5444 15.6939V15.2134H38.0639V15.6939H38.5444ZM46.2484 15.6939H46.7289V15.2134H46.2484V15.6939ZM46.2484 18.0699V18.5505H46.7289V18.0699H46.2484ZM41.0284 18.0699V17.5894H40.5479V18.0699H41.0284ZM41.0284 20.7519H40.5479V21.2325H41.0284V20.7519ZM45.7984 20.7519H46.2789V20.2714H45.7984V20.7519ZM45.7984 23.0919V23.5725H46.2789V23.0919H45.7984ZM41.0284 23.0919V22.6114H40.5479V23.0919H41.0284ZM41.0284 26.3985H46.3384V25.4374H41.0284V26.3985ZM45.8579 25.9179V28.2939H46.8189V25.9179H45.8579ZM46.3384 27.8134H38.5444V28.7745H46.3384V27.8134ZM39.0249 28.2939V15.6939H38.0639V28.2939H39.0249ZM38.5444 16.1745H46.2484V15.2134H38.5444V16.1745ZM45.7679 15.6939V18.0699H46.7289V15.6939H45.7679ZM46.2484 17.5894H41.0284V18.5505H46.2484V17.5894ZM40.5479 18.0699V20.7519H41.5089V18.0699H40.5479ZM41.0284 21.2325H45.7984V20.2714H41.0284V21.2325ZM45.3179 20.7519V23.0919H46.2789V20.7519H45.3179ZM45.7984 22.6114H41.0284V23.5725H45.7984V22.6114ZM40.5479 23.0919V25.9179H41.5089V23.0919H40.5479ZM47.1174 28.2939H46.6368V28.7313L47.0722 28.7723L47.1174 28.2939ZM47.1174 25.9899L47.1864 25.5144L46.6368 25.4346V25.9899H47.1174ZM48.7914 25.5399L48.4363 25.2162L48.7914 25.5399ZM49.3494 15.6939V15.2134H48.8688V15.6939H49.3494ZM57.9174 15.6939H58.3979V15.2134H57.9174V15.6939ZM57.9174 28.2939V28.7745H58.3979V28.2939H57.9174ZM55.4514 28.2939H54.9708V28.7745H55.4514V28.2939ZM55.4514 18.0699H55.9319V17.5894H55.4514V18.0699ZM51.8154 18.0699V17.5894H51.3348V18.0699H51.8154ZM51.4194 25.8279L50.9665 25.6673L51.4194 25.8279ZM50.3214 27.4839L50.0284 27.1031L50.0236 27.1068L50.3214 27.4839ZM48.8454 28.2039L48.7389 27.7354L48.7365 27.7359L48.8454 28.2039ZM47.5979 28.2939V25.9899H46.6368V28.2939H47.5979ZM47.0483 26.4655C47.8875 26.5873 48.6305 26.4296 49.1464 25.8637L48.4363 25.2162C48.2083 25.4663 47.8352 25.6086 47.1864 25.5144L47.0483 26.4655ZM49.1464 25.8637C49.4082 25.5765 49.5745 25.1876 49.6778 24.7445C49.782 24.2977 49.8299 23.7618 49.8299 23.1459H48.8688C48.8688 23.7181 48.8237 24.1752 48.7419 24.5264C48.6592 24.8813 48.5465 25.0953 48.4363 25.2162L49.1464 25.8637ZM49.8299 23.1459V15.6939H48.8688V23.1459H49.8299ZM49.3494 16.1745H57.9174V15.2134H49.3494V16.1745ZM57.4368 15.6939V28.2939H58.3979V15.6939H57.4368ZM57.9174 27.8134H55.4514V28.7745H57.9174V27.8134ZM55.9319 28.2939V18.0699H54.9708V28.2939H55.9319ZM55.4514 17.5894H51.8154V18.5505H55.4514V17.5894ZM51.3348 18.0699V23.0739H52.2959V18.0699H51.3348ZM51.3348 23.0739C51.3348 24.1306 51.2067 24.9904 50.9665 25.6673L51.8722 25.9886C52.16 25.1774 52.2959 24.2013 52.2959 23.0739H51.3348ZM50.9665 25.6673C50.7233 26.3527 50.4021 26.8156 50.0284 27.1031L50.6143 27.8648C51.1766 27.4323 51.5874 26.7912 51.8722 25.9886L50.9665 25.6673ZM50.0236 27.1068C49.6196 27.4258 49.1921 27.6324 48.7389 27.7354L48.9518 28.6725C49.5546 28.5355 50.1111 28.2621 50.6191 27.8611L50.0236 27.1068ZM48.7365 27.7359C48.2801 27.8421 47.7572 27.8717 47.1625 27.8156L47.0722 28.7723C47.7495 28.8362 48.3786 28.8058 48.9542 28.672L48.7365 27.7359ZM59.2814 28.2939H58.8009V28.7313L59.2363 28.7723L59.2814 28.2939ZM59.2814 25.9899L59.3504 25.5144L58.8009 25.4346V25.9899H59.2814ZM60.9554 25.5399L60.6003 25.2162L60.9554 25.5399ZM61.5134 15.6939V15.2134H61.0329V15.6939H61.5134ZM70.0814 15.6939H70.5619V15.2134H70.0814V15.6939ZM70.0814 28.2939V28.7745H70.5619V28.2939H70.0814ZM67.6154 28.2939H67.1349V28.7745H67.6154V28.2939ZM67.6154 18.0699H68.0959V17.5894H67.6154V18.0699ZM63.9794 18.0699V17.5894H63.4989V18.0699H63.9794ZM63.5834 25.8279L63.1306 25.6673L63.5834 25.8279ZM62.4854 27.4839L62.1924 27.1031L62.1877 27.1068L62.4854 27.4839ZM61.0094 28.2039L60.9029 27.7354L60.9006 27.7359L61.0094 28.2039ZM59.7619 28.2939V25.9899H58.8009V28.2939H59.7619ZM59.2124 26.4655C60.0516 26.5873 60.7945 26.4296 61.3105 25.8637L60.6003 25.2162C60.3723 25.4663 59.9992 25.6086 59.3504 25.5144L59.2124 26.4655ZM61.3105 25.8637C61.5723 25.5765 61.7386 25.1876 61.8419 24.7445C61.946 24.2977 61.9939 23.7618 61.9939 23.1459H61.0329C61.0329 23.7181 60.9878 24.1752 60.9059 24.5264C60.8232 24.8813 60.7105 25.0953 60.6003 25.2162L61.3105 25.8637ZM61.9939 23.1459V15.6939H61.0329V23.1459H61.9939ZM61.5134 16.1745H70.0814V15.2134H61.5134V16.1745ZM69.6009 15.6939V28.2939H70.5619V15.6939H69.6009ZM70.0814 27.8134H67.6154V28.7745H70.0814V27.8134ZM68.0959 28.2939V18.0699H67.1349V28.2939H68.0959ZM67.6154 17.5894H63.9794V18.5505H67.6154V17.5894ZM63.4989 18.0699V23.0739H64.4599V18.0699H63.4989ZM63.4989 23.0739C63.4989 24.1306 63.3707 24.9904 63.1306 25.6673L64.0363 25.9886C64.3241 25.1774 64.4599 24.2013 64.4599 23.0739H63.4989ZM63.1306 25.6673C62.8873 26.3527 62.5662 26.8156 62.1924 27.1031L62.7784 27.8648C63.3407 27.4323 63.7515 26.7912 64.0363 25.9886L63.1306 25.6673ZM62.1877 27.1068C61.7836 27.4258 61.3562 27.6324 60.9029 27.7354L61.1159 28.6725C61.7187 28.5355 62.2752 28.2621 62.7832 27.8611L62.1877 27.1068ZM60.9006 27.7359C60.4442 27.8421 59.9213 27.8717 59.3265 27.8156L59.2363 28.7723C59.9136 28.8362 60.5427 28.8058 61.1183 28.672L60.9006 27.7359ZM83.0195 26.6559L83.3576 26.9973L83.3592 26.9957L83.0195 26.6559ZM73.7315 26.6559L73.3901 26.9941L73.3933 26.9973L73.7315 26.6559ZM73.7315 17.3499L73.3917 17.0102L73.7315 17.3499ZM83.0195 17.3499L82.6797 17.6897L82.6813 17.6913L83.0195 17.3499ZM75.4775 24.9639L75.1377 25.3037L75.1404 25.3063L75.4775 24.9639ZM81.2735 24.9639L81.6106 25.3064L81.6133 25.3037L81.2735 24.9639ZM81.2735 19.0239L81.6133 18.6842L81.2735 19.0239ZM75.4775 19.0239L75.1377 18.6842L75.4775 19.0239ZM82.6813 26.3146C81.5012 27.4836 80.0755 28.0654 78.3755 28.0654V29.0265C80.3235 29.0265 81.9938 28.3483 83.3576 26.9973L82.6813 26.3146ZM78.3755 28.0654C76.6755 28.0654 75.2498 27.4836 74.0696 26.3146L73.3933 26.9973C74.7572 28.3483 76.4275 29.0265 78.3755 29.0265V28.0654ZM74.0729 26.3178C72.9045 25.1383 72.322 23.7069 72.322 21.9939H71.361C71.361 23.953 72.0385 25.6296 73.3901 26.9941L74.0729 26.3178ZM72.322 21.9939C72.322 20.2811 72.9044 18.8566 74.0713 17.6897L73.3917 17.0102C72.0386 18.3633 71.361 20.0348 71.361 21.9939H72.322ZM74.0713 17.6897C75.2517 16.5092 76.6769 15.9225 78.3755 15.9225V14.9614C76.426 14.9614 74.7552 15.6467 73.3917 17.0102L74.0713 17.6897ZM78.3755 15.9225C80.074 15.9225 81.4992 16.5092 82.6797 17.6897L83.3592 17.0102C81.9957 15.6467 80.3249 14.9614 78.3755 14.9614V15.9225ZM82.6813 17.6913C83.8597 18.8585 84.447 20.2825 84.447 21.9939H85.408C85.408 20.0334 84.7233 18.3614 83.3576 17.0086L82.6813 17.6913ZM84.447 21.9939C84.447 23.7055 83.8595 25.1363 82.6797 26.3162L83.3592 26.9957C84.7234 25.6315 85.408 23.9544 85.408 21.9939H84.447ZM75.1404 25.3063C76.0153 26.1679 77.1047 26.5965 78.3755 26.5965V25.6354C77.3423 25.6354 76.4996 25.296 75.8146 24.6215L75.1404 25.3063ZM78.3755 26.5965C79.6463 26.5965 80.7356 26.1679 81.6106 25.3063L80.9364 24.6215C80.2513 25.296 79.4087 25.6354 78.3755 25.6354V26.5965ZM81.6133 25.3037C82.4917 24.4252 82.924 23.309 82.924 21.9939H81.963C81.963 23.0788 81.6152 23.9427 80.9337 24.6242L81.6133 25.3037ZM82.924 21.9939C82.924 20.6788 82.4917 19.5627 81.6133 18.6842L80.9337 19.3637C81.6152 20.0452 81.963 20.909 81.963 21.9939H82.924ZM81.6133 18.6842C80.7388 17.8097 79.6486 17.3734 78.3755 17.3734V18.3345C79.4063 18.3345 80.2482 18.6782 80.9337 19.3637L81.6133 18.6842ZM78.3755 17.3734C77.1023 17.3734 76.0122 17.8097 75.1377 18.6842L75.8172 19.3637C76.5028 18.6782 77.3446 18.3345 78.3755 18.3345V17.3734ZM75.1377 18.6842C74.2592 19.5627 73.827 20.6788 73.827 21.9939H74.788C74.788 20.909 75.1357 20.0452 75.8172 19.3637L75.1377 18.6842ZM73.827 21.9939C73.827 23.309 74.2592 24.4252 75.1377 25.3037L75.8172 24.6242C75.1357 23.9427 74.788 23.0788 74.788 21.9939H73.827ZM92.9538 15.6939V15.2134H92.631L92.5089 15.5123L92.9538 15.6939ZM95.4378 15.6939L95.8817 15.8778L96.1569 15.2134H95.4378V15.6939ZM91.6578 24.8199L91.2139 24.6361L91.2135 24.637L91.6578 24.8199ZM86.6898 28.2939H86.2093V28.7477L86.6623 28.7737L86.6898 28.2939ZM86.6898 25.9719L86.7325 25.4933L86.2093 25.4466V25.9719H86.6898ZM88.3098 25.7019L88.5534 26.1161L88.557 26.114L88.3098 25.7019ZM89.3538 24.4959L89.7836 24.7108L89.8876 24.5028L89.7889 24.2922L89.3538 24.4959ZM85.2318 15.6939V15.2134H84.4762L84.7966 15.8977L85.2318 15.6939ZM87.7158 15.6939L88.1535 15.4958L88.0257 15.2134H87.7158V15.6939ZM90.4698 21.7779L90.032 21.9761L90.4925 22.9934L90.9146 21.9596L90.4698 21.7779ZM92.9538 16.1745H95.4378V15.2134H92.9538V16.1745ZM94.9939 15.5101L91.2139 24.6361L92.1017 25.0038L95.8817 15.8778L94.9939 15.5101ZM91.2135 24.637C90.7338 25.8019 90.1171 26.6184 89.3844 27.1307C88.6572 27.6392 87.7776 27.875 86.7173 27.8142L86.6623 28.7737C87.906 28.8449 89.0064 28.5677 89.9352 27.9182C90.8585 27.2725 91.5738 26.286 92.1021 25.0029L91.2135 24.637ZM87.1703 28.2939V25.9719H86.2093V28.2939H87.1703ZM86.6471 26.4506C87.378 26.5158 88.0293 26.4244 88.5534 26.1161L88.0662 25.2878C87.7743 25.4595 87.3456 25.5481 86.7325 25.4933L86.6471 26.4506ZM88.557 26.114C89.0734 25.8041 89.4773 25.3234 89.7836 24.7108L88.924 24.2811C88.6783 24.7725 88.3862 25.0958 88.0626 25.2899L88.557 26.114ZM89.7889 24.2922L85.6669 15.4902L84.7966 15.8977L88.9186 24.6997L89.7889 24.2922ZM85.2318 16.1745H87.7158V15.2134H85.2318V16.1745ZM87.278 15.8921L90.032 21.9761L90.9075 21.5798L88.1535 15.4958L87.278 15.8921ZM90.9146 21.9596L93.3987 15.8756L92.5089 15.5123L90.0249 21.5963L90.9146 21.9596Z" fill="#F0F1F8"/>
</svg>
