<svg width="147" height="79" viewBox="0 0 147 79" fill="none" xmlns="http://www.w3.org/2000/svg">
<path d="M38.9752 38.3423H34.7854L31.156 32.2577L27.5266 38.3423H23.3635L29.0745 28.7618L23.6571 19.6617H27.8202L31.156 25.2659L34.4918 19.6617H38.6549L33.2376 28.7351L38.9752 38.3423ZM44.7222 34.8197H52.5947V38.3423H41.0394V19.6617H52.4613V23.1843H44.7222V27.1606H51.7941V30.6299H44.7222V34.8197ZM53.7495 38.3423V34.9264C54.8526 35.0865 55.6798 34.8641 56.2314 34.2592C56.7829 33.6543 57.0586 32.4712 57.0586 30.7099V19.6617H69.7615V38.3423H66.1054V23.1843H60.7147V30.6032C60.7147 32.2222 60.519 33.5832 60.1276 34.6862C59.7362 35.7893 59.1936 36.6077 58.4997 37.1414C57.8237 37.6751 57.0942 38.0309 56.3114 38.2089C55.5464 38.3868 54.6924 38.4312 53.7495 38.3423ZM71.7838 38.3423V34.9264C72.8868 35.0865 73.7141 34.8641 74.2656 34.2592C74.8172 33.6543 75.0929 32.4712 75.0929 30.7099V19.6617H87.7957V38.3423H84.1397V23.1843H78.749V30.6032C78.749 32.2222 78.5533 33.5832 78.1619 34.6862C77.7705 35.7893 77.2279 36.6077 76.534 37.1414C75.8579 37.6751 75.1285 38.0309 74.3457 38.2089C73.5807 38.3868 72.7267 38.4312 71.7838 38.3423ZM106.978 35.9138C105.092 37.7819 102.797 38.7159 100.092 38.7159C97.3882 38.7159 95.0931 37.7819 93.2073 35.9138C91.3392 34.028 90.4052 31.724 90.4052 29.002C90.4052 26.28 91.3392 23.9849 93.2073 22.1169C95.0931 20.231 97.3882 19.2881 100.092 19.2881C102.797 19.2881 105.092 20.231 106.978 22.1169C108.863 23.9849 109.806 26.28 109.806 29.002C109.806 31.724 108.863 34.028 106.978 35.9138ZM95.7959 33.4053C96.9523 34.5439 98.3845 35.1132 100.092 35.1132C101.8 35.1132 103.233 34.5439 104.389 33.4053C105.545 32.2489 106.124 30.7811 106.124 29.002C106.124 27.2229 105.545 25.7551 104.389 24.5987C103.233 23.4423 101.8 22.8641 100.092 22.8641C98.3845 22.8641 96.9523 23.4423 95.7959 24.5987C94.6394 25.7551 94.0612 27.2229 94.0612 29.002C94.0612 30.7811 94.6394 32.2489 95.7959 33.4053ZM121.706 19.6617H125.389L119.785 33.1918C118.29 36.8212 115.835 38.538 112.419 38.3423V34.8997C113.415 34.9887 114.216 34.8552 114.821 34.4994C115.444 34.1258 115.96 33.5298 116.369 32.7114L110.257 19.6617H113.94L118.023 28.6817L121.706 19.6617Z" fill="#17315B"/>
<path d="M38.9752 38.3423V39.0094H40.1507L39.548 38.0002L38.9752 38.3423ZM34.7854 38.3423L34.2124 38.6841L34.4065 39.0094H34.7854V38.3423ZM31.156 32.2577L31.729 31.916L31.156 30.9554L30.583 31.916L31.156 32.2577ZM27.5266 38.3423V39.0094H27.9055L28.0996 38.6841L27.5266 38.3423ZM23.3635 38.3423L22.7905 38.0007L22.1891 39.0094H23.3635V38.3423ZM29.0745 28.7618L29.6475 29.1034L29.851 28.762L29.6477 28.4205L29.0745 28.7618ZM23.6571 19.6617V18.9945H22.4835L23.0838 20.003L23.6571 19.6617ZM27.8202 19.6617L28.3935 19.3204L28.1995 18.9945H27.8202V19.6617ZM31.156 25.2659L30.5827 25.6071L31.156 26.5702L31.7293 25.6071L31.156 25.2659ZM34.4918 19.6617V18.9945H34.1125L33.9185 19.3204L34.4918 19.6617ZM38.6549 19.6617L39.2278 20.0037L39.8303 18.9945H38.6549V19.6617ZM33.2376 28.7351L32.6647 28.3931L32.4605 28.7352L32.6648 29.0772L33.2376 28.7351ZM38.9752 37.6751H34.7854V39.0094H38.9752V37.6751ZM35.3583 38.0005L31.729 31.916L30.583 32.5995L34.2124 38.6841L35.3583 38.0005ZM30.583 31.916L26.9537 38.0005L28.0996 38.6841L31.729 32.5995L30.583 31.916ZM27.5266 37.6751H23.3635V39.0094H27.5266V37.6751ZM23.9366 38.6839L29.6475 29.1034L28.5014 28.4202L22.7905 38.0007L23.9366 38.6839ZM29.6477 28.4205L24.2304 19.3204L23.0838 20.003L28.5012 29.1031L29.6477 28.4205ZM23.6571 20.3289H27.8202V18.9945H23.6571V20.3289ZM27.2469 20.0029L30.5827 25.6071L31.7293 24.9246L28.3935 19.3204L27.2469 20.0029ZM31.7293 25.6071L35.0651 20.0029L33.9185 19.3204L30.5827 24.9246L31.7293 25.6071ZM34.4918 20.3289H38.6549V18.9945H34.4918V20.3289ZM38.0821 19.3197L32.6647 28.3931L33.8104 29.0771L39.2278 20.0037L38.0821 19.3197ZM32.6648 29.0772L38.4024 38.6844L39.548 38.0002L33.8103 28.393L32.6648 29.0772ZM44.7222 34.8197H44.055V35.4868H44.7222V34.8197ZM52.5947 34.8197H53.2619V34.1525H52.5947V34.8197ZM52.5947 38.3423V39.0094H53.2619V38.3423H52.5947ZM41.0394 38.3423H40.3722V39.0094H41.0394V38.3423ZM41.0394 19.6617V18.9945H40.3722V19.6617H41.0394ZM52.4613 19.6617H53.1284V18.9945H52.4613V19.6617ZM52.4613 23.1843V23.8515H53.1284V23.1843H52.4613ZM44.7222 23.1843V22.5172H44.055V23.1843H44.7222ZM44.7222 27.1606H44.055V27.8278H44.7222V27.1606ZM51.7941 27.1606H52.4613V26.4935H51.7941V27.1606ZM51.7941 30.6299V31.297H52.4613V30.6299H51.7941ZM44.7222 30.6299V29.9627H44.055V30.6299H44.7222ZM44.7222 35.4868H52.5947V34.1525H44.7222V35.4868ZM51.9275 34.8197V38.3423H53.2619V34.8197H51.9275ZM52.5947 37.6751H41.0394V39.0094H52.5947V37.6751ZM41.7066 38.3423V19.6617H40.3722V38.3423H41.7066ZM41.0394 20.3289H52.4613V18.9945H41.0394V20.3289ZM51.7941 19.6617V23.1843H53.1284V19.6617H51.7941ZM52.4613 22.5172H44.7222V23.8515H52.4613V22.5172ZM44.055 23.1843V27.1606H45.3893V23.1843H44.055ZM44.7222 27.8278H51.7941V26.4935H44.7222V27.8278ZM51.1269 27.1606V30.6299H52.4613V27.1606H51.1269ZM51.7941 29.9627H44.7222V31.297H51.7941V29.9627ZM44.055 30.6299V34.8197H45.3893V30.6299H44.055ZM53.7495 38.3423H53.0824V38.9495L53.6869 39.0065L53.7495 38.3423ZM53.7495 34.9264L53.8454 34.2662L53.0824 34.1554V34.9264H53.7495ZM56.2314 34.2592L55.7384 33.8097L56.2314 34.2592ZM57.0587 19.6617V18.9945H56.3915V19.6617H57.0587ZM69.7615 19.6617H70.4286V18.9945H69.7615V19.6617ZM69.7615 38.3423V39.0094H70.4286V38.3423H69.7615ZM66.1054 38.3423H65.4382V39.0094H66.1054V38.3423ZM66.1054 23.1843H66.7726V22.5172H66.1054V23.1843ZM60.7147 23.1843V22.5172H60.0475V23.1843H60.7147ZM60.1276 34.6862L59.4989 34.4631L60.1276 34.6862ZM58.4997 37.1414L58.0929 36.6125L58.0863 36.6177L58.4997 37.1414ZM56.3114 38.2089L56.1636 37.5583L56.1603 37.559L56.3114 38.2089ZM54.4167 38.3423V34.9264H53.0824V38.3423H54.4167ZM53.6537 35.5866C54.8889 35.766 55.9729 35.5329 56.7244 34.7087L55.7384 33.8097C55.3867 34.1954 54.8162 34.4071 53.8454 34.2662L53.6537 35.5866ZM56.7244 34.7087C57.1054 34.2909 57.3494 33.7225 57.5016 33.0697C57.6549 32.4118 57.7258 31.6209 57.7258 30.7099H56.3915C56.3915 31.5602 56.3245 32.2416 56.2021 32.7668C56.0785 33.2971 55.9089 33.6227 55.7384 33.8097L56.7244 34.7087ZM57.7258 30.7099V19.6617H56.3915V30.7099H57.7258ZM57.0587 20.3289H69.7615V18.9945H57.0587V20.3289ZM69.0943 19.6617V38.3423H70.4286V19.6617H69.0943ZM69.7615 37.6751H66.1054V39.0094H69.7615V37.6751ZM66.7726 38.3423V23.1843H65.4382V38.3423H66.7726ZM66.1054 22.5172H60.7147V23.8515H66.1054V22.5172ZM60.0475 23.1843V30.6032H61.3819V23.1843H60.0475ZM60.0475 30.6032C60.0475 32.1731 59.8572 33.4534 59.4989 34.4631L60.7564 34.9093C61.1809 33.713 61.3819 32.2712 61.3819 30.6032H60.0475ZM59.4989 34.4631C59.1363 35.4849 58.6559 36.1796 58.0929 36.6126L58.9065 37.6702C59.7313 37.0358 60.3361 36.0937 60.7564 34.9093L59.4989 34.4631ZM58.0863 36.6177C57.4824 37.0945 56.8426 37.404 56.1636 37.5583L56.4593 38.8594C57.3459 38.6579 58.1649 38.2557 58.9131 37.665L58.0863 36.6177ZM56.1603 37.559C55.478 37.7177 54.6978 37.7616 53.8122 37.6781L53.6869 39.0065C54.6871 39.1009 55.6148 39.0558 56.4625 38.8587L56.1603 37.559ZM71.7838 38.3423H71.1166V38.9495L71.7211 39.0065L71.7838 38.3423ZM71.7838 34.9264L71.8796 34.2662L71.1166 34.1554V34.9264H71.7838ZM74.2656 34.2592L73.7726 33.8097L74.2656 34.2592ZM75.0929 19.6617V18.9945H74.4258V19.6617H75.0929ZM87.7957 19.6617H88.4629V18.9945H87.7957V19.6617ZM87.7957 38.3423V39.0094H88.4629V38.3423H87.7957ZM84.1397 38.3423H83.4725V39.0094H84.1397V38.3423ZM84.1397 23.1843H84.8068V22.5172H84.1397V23.1843ZM78.749 23.1843V22.5172H78.0818V23.1843H78.749ZM78.1619 34.6862L77.5331 34.4631L78.1619 34.6862ZM76.534 37.1414L76.1272 36.6125L76.1206 36.6177L76.534 37.1414ZM74.3457 38.2089L74.1978 37.5583L74.1946 37.559L74.3457 38.2089ZM72.451 38.3423V34.9264H71.1166V38.3423H72.451ZM71.688 35.5866C72.9232 35.766 74.0072 35.5329 74.7586 34.7087L73.7726 33.8097C73.421 34.1954 72.8505 34.4071 71.8796 34.2662L71.688 35.5866ZM74.7586 34.7087C75.1397 34.2909 75.3837 33.7225 75.5359 33.0697C75.6892 32.4118 75.7601 31.6209 75.7601 30.7099H74.4258C74.4258 31.5602 74.3588 32.2416 74.2364 32.7668C74.1128 33.2971 73.9431 33.6227 73.7726 33.8097L74.7586 34.7087ZM75.7601 30.7099V19.6617H74.4258V30.7099H75.7601ZM75.0929 20.3289H87.7957V18.9945H75.0929V20.3289ZM87.1286 19.6617V38.3423H88.4629V19.6617H87.1286ZM87.7957 37.6751H84.1397V39.0094H87.7957V37.6751ZM84.8068 38.3423V23.1843H83.4725V38.3423H84.8068ZM84.1397 22.5172H78.749V23.8515H84.1397V22.5172ZM78.0818 23.1843V30.6032H79.4162V23.1843H78.0818ZM78.0818 30.6032C78.0818 32.1731 77.8914 33.4534 77.5331 34.4631L78.7906 34.9093C79.2151 33.713 79.4162 32.2712 79.4162 30.6032H78.0818ZM77.5331 34.4631C77.1706 35.4849 76.6902 36.1796 76.1272 36.6126L76.9408 37.6702C77.7655 37.0358 78.3704 36.0937 78.7906 34.9093L77.5331 34.4631ZM76.1206 36.6177C75.5167 37.0945 74.8768 37.404 74.1978 37.5583L74.4936 38.8594C75.3802 38.6579 76.1992 38.2557 76.9474 37.665L76.1206 36.6177ZM74.1946 37.559C73.5123 37.7177 72.7321 37.7616 71.8465 37.6781L71.7211 39.0065C72.7214 39.1009 73.6491 39.0558 74.4968 38.8587L74.1946 37.559ZM106.978 35.9138L107.447 36.3878L107.449 36.3856L106.978 35.9138ZM93.2073 35.9138L92.7333 36.3833L92.7378 36.3878L93.2073 35.9138ZM93.2073 22.1169L92.7355 21.6451L93.2073 22.1169ZM106.978 22.1169L106.506 22.5886L106.508 22.5908L106.978 22.1169ZM95.7959 33.4053L95.3241 33.877L95.3278 33.8807L95.7959 33.4053ZM104.389 33.4053L104.857 33.8807L104.861 33.877L104.389 33.4053ZM104.389 24.5987L104.861 24.1269L104.389 24.5987ZM95.7959 24.5987L95.3241 24.1269L95.7959 24.5987ZM106.508 35.4398C104.75 37.1816 102.624 38.0487 100.092 38.0487V39.3831C102.969 39.3831 105.434 38.3822 107.447 36.3878L106.508 35.4398ZM100.092 38.0487C97.5603 38.0487 95.4351 37.1816 93.6768 35.4398L92.7378 36.3878C94.7511 38.3822 97.216 39.3831 100.092 39.3831V38.0487ZM93.6813 35.4443C91.9404 33.6869 91.0723 31.5532 91.0723 29.002H89.738C89.738 31.8949 90.738 34.369 92.7333 36.3833L93.6813 35.4443ZM91.0723 29.002C91.0723 26.4509 91.9403 24.3274 93.679 22.5886L92.7355 21.6451C90.7382 23.6425 89.738 26.109 89.738 29.002H91.0723ZM93.679 22.5886C95.4378 20.8298 97.5623 19.9552 100.092 19.9552V18.6209C97.214 18.6209 94.7484 19.6322 92.7355 21.6451L93.679 22.5886ZM100.092 19.9552C102.622 19.9552 104.747 20.8298 106.506 22.5886L107.449 21.6451C105.436 19.6322 102.971 18.6209 100.092 18.6209V19.9552ZM106.508 22.5908C108.264 24.3301 109.139 26.4529 109.139 29.002H110.473C110.473 26.107 109.463 23.6398 107.447 21.6429L106.508 22.5908ZM109.139 29.002C109.139 31.5512 108.264 33.6842 106.506 35.4421L107.449 36.3856C109.463 34.3717 110.473 31.8969 110.473 29.002H109.139ZM95.3278 33.8807C96.6161 35.1491 98.2195 35.7804 100.092 35.7804V34.446C98.5494 34.446 97.2885 33.9386 96.2639 32.9299L95.3278 33.8807ZM100.092 35.7804C101.965 35.7804 103.569 35.1491 104.857 33.8807L103.921 32.9299C102.896 33.9386 101.635 34.446 100.092 34.446V35.7804ZM104.861 33.877C106.154 32.5839 106.791 30.9409 106.791 29.002H105.456C105.456 30.6213 104.937 31.9138 103.917 32.9335L104.861 33.877ZM106.791 29.002C106.791 27.0631 106.154 25.4201 104.861 24.1269L103.917 25.0705C104.937 26.0901 105.456 27.3827 105.456 29.002H106.791ZM104.861 24.1269C103.573 22.8394 101.969 22.1969 100.092 22.1969V23.5312C101.632 23.5312 102.892 24.0452 103.917 25.0705L104.861 24.1269ZM100.092 22.1969C98.2163 22.1969 96.6117 22.8394 95.3241 24.1269L96.2676 25.0705C97.2929 24.0452 98.5527 23.5312 100.092 23.5312V22.1969ZM95.3241 24.1269C94.031 25.4201 93.3941 27.0631 93.3941 29.002H94.7284C94.7284 27.3827 95.2479 26.0901 96.2676 25.0705L95.3241 24.1269ZM93.3941 29.002C93.3941 30.9409 94.031 32.5839 95.3241 33.877L96.2676 32.9335C95.2479 31.9138 94.7284 30.6213 94.7284 29.002H93.3941ZM121.706 19.6617V18.9945H121.258L121.088 19.4095L121.706 19.6617ZM125.389 19.6617L126.005 19.917L126.387 18.9945H125.389V19.6617ZM119.785 33.1918L119.168 32.9365L119.168 32.9378L119.785 33.1918ZM112.419 38.3423H111.752V38.9723L112.381 39.0084L112.419 38.3423ZM112.419 34.8997L112.478 34.2352L111.752 34.1703V34.8997H112.419ZM114.821 34.4994L115.159 35.0745L115.164 35.0715L114.821 34.4994ZM116.369 32.7114L116.965 33.0098L117.11 32.7209L116.973 32.4285L116.369 32.7114ZM110.257 19.6617V18.9945H109.208L109.653 19.9446L110.257 19.6617ZM113.94 19.6617L114.548 19.3866L114.371 18.9945H113.94V19.6617ZM118.023 28.6817L117.415 28.9569L118.055 30.3694L118.641 28.9339L118.023 28.6817ZM121.706 20.3289H125.389V18.9945H121.706V20.3289ZM124.772 19.4064L119.168 32.9365L120.401 33.4471L126.005 19.917L124.772 19.4064ZM119.168 32.9378C118.454 34.6704 117.535 35.8889 116.44 36.6547C115.352 37.4153 114.038 37.7668 112.457 37.6762L112.381 39.0084C114.216 39.1135 115.837 38.7045 117.205 37.7482C118.565 36.7972 119.62 35.3425 120.401 33.4458L119.168 32.9378ZM113.086 38.3423V34.8997H111.752V38.3423H113.086ZM112.36 35.5642C113.438 35.6605 114.393 35.5251 115.159 35.0745L114.483 33.9244C114.039 34.1854 113.393 34.3169 112.478 34.2352L112.36 35.5642ZM115.164 35.0715C115.921 34.6176 116.514 33.9123 116.965 33.0098L115.772 32.4131C115.405 33.1473 114.966 33.634 114.478 33.9273L115.164 35.0715ZM116.973 32.4285L110.862 19.3787L109.653 19.9446L115.765 32.9944L116.973 32.4285ZM110.257 20.3289H113.94V18.9945H110.257V20.3289ZM113.332 19.9368L117.415 28.9569L118.631 28.4066L114.548 19.3866L113.332 19.9368ZM118.641 28.9339L122.324 19.9139L121.088 19.4095L117.406 28.4296L118.641 28.9339Z" fill="#F0F1F8"/>
<path fill-rule="evenodd" clip-rule="evenodd" d="M117.559 0C133.569 0 146.547 12.9787 146.547 28.9886C146.547 44.9986 133.569 57.9772 117.559 57.9772H59.0392V57.9772C58.9691 57.9772 58.8357 58.0007 58.6232 58.0829C58.4173 58.1626 58.1672 58.2855 57.8739 58.4536C57.2874 58.7899 56.5651 59.2857 55.7348 59.9139C54.0759 61.1688 52.0275 62.9206 49.8432 64.8966C45.4767 68.8469 40.5993 73.6643 37.2712 77.1221L36.3771 78.051V76.7617V76.7607V76.7595V76.7583V76.7569V76.7555V76.754V76.7524V76.7507V76.7489V76.747V76.745V76.7429V76.7407V76.7385V76.7361V76.7336V76.7311V76.7284V76.7257V76.7228V76.7199V76.7168V76.7137V76.7104V76.7071V76.7037V76.7001V76.6965V76.6928V76.6889V76.685V76.6809V76.6768V76.6726V76.6682V76.6638V76.6592V76.6546V76.6498V76.645V76.64V76.6349V76.6298V76.6245V76.6191V76.6136V76.608V76.6023V76.5965V76.5906V76.5846V76.5785V76.5722V76.5659V76.5594V76.5529V76.5462V76.5394V76.5325V76.5255V76.5184V76.5112V76.5039V76.4964V76.4889V76.4812V76.4734V76.4656V76.4576V76.4494V76.4412V76.4329V76.4244V76.4158V76.4071V76.3983V76.3894V76.3804V76.3712V76.362V76.3526V76.3431V76.3335V76.3237V76.3139V76.3039V76.2938V76.2836V76.2733V76.2628V76.2522V76.2416V76.2307V76.2198V76.2088V76.1976V76.1863V76.1749V76.1633V76.1517V76.1399V76.128V76.1159V76.1038V76.0915V76.0791V76.0665V76.0539V76.0411V76.0282V76.0151V76.0019V75.9886V75.9752V75.9617V75.948V75.9342V75.9202V75.9062V75.892V75.8777V75.8632V75.8486V75.8339V75.8191V75.8041V75.789V75.7737V75.7583V75.7428V75.7272V75.7114V75.6955V75.6795V75.6633V75.647V75.6305V75.6139V75.5972V75.5804V75.5634V75.5462V75.529V75.5116V75.494V75.4764V75.4585V75.4406V75.4225V75.4043V75.3859V75.3674V75.3487V75.3299V75.311V75.2919V75.2727V75.2534V75.2338V75.2142V75.1944V75.1745V75.1544V75.1342V75.1138V75.0933V75.0727V75.0519V75.0309V75.0099V74.9886V74.9672V74.9457V74.924V74.9022V74.8803V74.8581V74.8359V74.8135V74.7909V74.7682V74.7453V74.7223V74.6992V74.6758V74.6524V74.6288V74.605V74.5811V74.557V74.5328V74.5084V74.4839V74.4592V74.4343V74.4094V74.3842V74.3589V74.3335V74.3078V74.2821V74.2561V74.2301V74.2038V74.1774V74.1509V74.1242V74.0973V74.0703V74.0431V74.0158V73.9883V73.9606V73.9328V73.9048V73.8766V73.8483V73.8199V73.7912V73.7624V73.7335V73.7044V73.6751V73.6457V73.6161V73.5863V73.5563V73.5262V73.496V73.4656V73.435V73.4042V73.3733V73.3422V73.3109V73.2795V73.2479V73.2161V73.1842V73.1521V73.1198V73.0874V73.0548V73.022V72.9891V72.9559V72.9227V72.8892V72.8556V72.8218V72.7878V72.7536V72.7193V72.6848V72.6502V72.6153V72.5803V72.5451V72.5098V72.4742V72.4385V72.4026V72.3665V72.3303V72.2939V72.2573V72.2205V72.1836V72.1464V72.1091V72.0716V72.034V71.9961V71.9581V71.9199V71.8815V71.843V71.8042V71.7653V71.7262V71.6869V71.6474V71.6078V71.5679V71.5279V71.4877V71.4473V71.4068V71.366V71.3251V71.2839V71.2426V71.2011V71.1594V71.1176V71.0755V71.0333V70.9908V70.9482V70.9054V70.8624V70.8192V70.7759V70.7323V70.6886V70.6446V70.6005V70.5562V70.5117V70.4669V70.4221V70.377V70.3317V70.2862V70.2406V70.1947V70.1486V70.1024V70.056V70.0093V69.9625V69.9155V69.8682V69.8208V69.7732V69.7254V69.6774V69.6292V69.5808V69.5322V69.4834V69.4344V69.3852V69.3358V69.2862V69.2364V69.1865V69.1363V69.0859V69.0353V68.9845V68.9335V68.8823V68.8309V68.7793V68.7275V68.6755V68.6233V68.5708V68.5182V68.4654V68.4124V68.3591V68.3057V68.252V68.1982V68.1441V68.0899V68.0354V67.9807V67.9258V67.8707V67.8154V67.7599V67.7042V67.6482V67.5921V67.5357V67.4792V67.4224V67.3654V67.3082V67.2508V67.1932V67.1353V67.0773V67.019V66.9606V66.9019V66.843V66.7839V66.7245V66.665V66.6052V66.5452V66.4851V66.4247V66.364V66.3032V66.2421V66.1809V66.1194V66.0576V65.9957V65.9336V65.8712V65.8086V65.7458V65.6828V65.6195V65.5561V65.4924V65.4285V65.3643V65.3V65.2354V65.1706V65.1056V65.0403V64.9748V64.9091V64.8432V64.7771V64.7107V64.6441V64.5773V64.5102V64.443V64.3755V64.3077V64.2398V64.1716V64.1032V64.0346V63.9657V63.8966V63.8273V63.7577V63.6879V63.6179V63.5477V63.4772V63.4065V63.3355V63.2644V63.193V63.1213V63.0495V62.9774V62.905V62.8324V62.7596V62.6866V62.6133V62.5398V62.4661V62.3921V62.3179V62.2434V62.1687V62.0938V62.0187V61.9433V61.8676V61.7917V61.7156V61.6393V61.5627V61.4858V61.4088V61.3314V61.2539V61.1761V61.0981V61.0198V60.9413V60.8625V60.7835V60.7042V60.6247V60.545V60.465V60.3848V60.3043V60.2236V60.1427V60.0615V59.98V59.8983V59.8164V59.7342V59.6518V59.5691V59.4861V59.403V59.3195V59.2359V59.1519V59.0678V58.9833V58.8987V58.8137V58.7285V58.6431V58.5574V58.4715V58.3853V58.2989V58.2122V58.1253V58.0381V57.9772H28.9886C12.9787 57.9772 0 44.9986 0 28.9886C0 12.9787 12.9787 0 28.9886 0H117.559ZM37.4165 57.9772H37.4187V56.9379H28.9886C13.5527 56.9379 1.03934 44.4246 1.03934 28.9886C1.03934 13.5527 13.5527 1.03934 28.9886 1.03934H117.559C132.995 1.03934 145.508 13.5527 145.508 28.9886C145.508 44.4246 132.995 56.9379 117.559 56.9379H59.0393V56.9379C58.7845 56.9379 58.513 57.0111 58.2482 57.1135C57.9769 57.2185 57.6774 57.3682 57.3569 57.552C56.7159 57.9195 55.954 58.4447 55.1077 59.085C53.4132 60.3669 51.3389 62.142 49.146 64.1259C45.135 67.7545 40.7006 72.1059 37.4165 75.478V75.4764V75.4585V75.4406V75.4225V75.4043V75.3859V75.3674V75.3487V75.3299V75.311V75.2919V75.2727V75.2534V75.2338V75.2142V75.1944V75.1745V75.1544V75.1342V75.1138V75.0933V75.0727V75.0519V75.0309V75.0099V74.9886V74.9672V74.9457V74.924V74.9022V74.8803V74.8581V74.8359V74.8135V74.7909V74.7682V74.7453V74.7223V74.6992V74.6758V74.6524V74.6288V74.605V74.5811V74.557V74.5328V74.5084V74.4839V74.4592V74.4343V74.4094V74.3842V74.3589V74.3335V74.3078V74.2821V74.2561V74.2301V74.2038V74.1774V74.1509V74.1242V74.0973V74.0703V74.0431V74.0158V73.9883V73.9606V73.9328V73.9048V73.8766V73.8483V73.8199V73.7912V73.7624V73.7335V73.7044V73.6751V73.6457V73.6161V73.5863V73.5563V73.5262V73.496V73.4656V73.435V73.4042V73.3733V73.3422V73.3109V73.2795V73.2479V73.2161V73.1842V73.1521V73.1198V73.0874V73.0548V73.022V72.9891V72.9559V72.9227V72.8892V72.8556V72.8218V72.7878V72.7536V72.7193V72.6848V72.6502V72.6153V72.5803V72.5451V72.5098V72.4742V72.4385V72.4026V72.3665V72.3303V72.2939V72.2573V72.2205V72.1836V72.1464V72.1091V72.0716V72.034V71.9961V71.9581V71.9199V71.8815V71.843V71.8042V71.7653V71.7262V71.6869V71.6474V71.6078V71.5679V71.5279V71.4877V71.4473V71.4068V71.366V71.3251V71.2839V71.2426V71.2011V71.1594V71.1176V71.0755V71.0333V70.9908V70.9482V70.9054V70.8624V70.8192V70.7759V70.7323V70.6886V70.6446V70.6005V70.5562V70.5117V70.4669V70.4221V70.377V70.3317V70.2862V70.2406V70.1947V70.1486V70.1024V70.056V70.0093V69.9625V69.9155V69.8682V69.8208V69.7732V69.7254V69.6774V69.6292V69.5808V69.5322V69.4834V69.4344V69.3852V69.3358V69.2862V69.2364V69.1865V69.1363V69.0859V69.0353V68.9845V68.9335V68.8823V68.8309V68.7793V68.7275V68.6755V68.6233V68.5708V68.5182V68.4654V68.4124V68.3591V68.3057V68.252V68.1982V68.1441V68.0899V68.0354V67.9807V67.9258V67.8707V67.8154V67.7599V67.7042V67.6482V67.5921V67.5357V67.4792V67.4224V67.3654V67.3082V67.2508V67.1932V67.1353V67.0773V67.019V66.9606V66.9019V66.843V66.7839V66.7245V66.665V66.6052V66.5452V66.4851V66.4247V66.364V66.3032V66.2421V66.1809V66.1194V66.0576V65.9957V65.9336V65.8712V65.8086V65.7458V65.6828V65.6195V65.5561V65.4924V65.4285V65.3643V65.3V65.2354V65.1706V65.1056V65.0403V64.9748V64.9091V64.8432V64.7771V64.7107V64.6441V64.5773V64.5102V64.443V64.3755V64.3077V64.2398V64.1716V64.1032V64.0346V63.9657V63.8966V63.8273V63.7577V63.6879V63.6179V63.5477V63.4772V63.4065V63.3355V63.2644V63.193V63.1213V63.0495V62.9774V62.905V62.8324V62.7596V62.6866V62.6133V62.5398V62.4661V62.3921V62.3179V62.2434V62.1687V62.0938V62.0187V61.9433V61.8676V61.7917V61.7156V61.6393V61.5627V61.4858V61.4088V61.3314V61.2539V61.1761V61.0981V61.0198V60.9413V60.8625V60.7835V60.7042V60.6247V60.545V60.465V60.3848V60.3043V60.2236V60.1427V60.0615V59.98V59.8983V59.8164V59.7342V59.6518V59.5691V59.4861V59.403V59.3195V59.2359V59.1519V59.0678V58.9833V58.8987V58.8137V58.7285V58.6431V58.5574V58.4715V58.3853V58.2989V58.2122V58.1253V58.0381V57.9772Z" fill="#9AB4C1"/>
</svg>
