<svg width="26" height="26" viewBox="0 0 26 26" fill="none" xmlns="http://www.w3.org/2000/svg">
<path d="M25.2938 12.5471C19.3545 9.86381 15.5557 6.06503 13.9276 1.21104C13.8975 1.09045 13.7769 1 13.6563 1C13.5357 1 13.4151 1.09045 13.385 1.21104C11.6966 6.15548 7.98829 9.86381 2.01878 12.5471C1.89819 12.6074 1.83789 12.6978 1.83789 12.8184C1.83789 12.939 1.92834 13.0596 2.01878 13.0898C7.23456 15.0796 11.0333 18.8784 13.3548 24.4559C13.4151 24.5765 13.5056 24.6368 13.6262 24.6368C13.7467 24.6368 13.8673 24.5464 13.8975 24.4559C15.9476 19.1799 19.7765 15.3811 25.2637 13.1199C25.3843 13.0596 25.4446 12.9692 25.4446 12.8486C25.4446 12.728 25.3843 12.6074 25.2938 12.5471ZM13.6262 23.5515C11.3348 18.4261 7.71695 14.8082 2.89311 12.8184C8.25963 10.2557 11.8775 6.69816 13.6262 2.20596C15.3748 6.66801 18.9927 10.2256 24.4195 12.8184C19.3243 15.0796 15.7064 18.6975 13.6262 23.5515Z" fill="#C11426" stroke="#C11426" stroke-width="0.3"/>
<path d="M8.83288 21.2904C6.96364 20.4462 5.75768 19.2402 5.2753 17.7328C5.24515 17.6122 5.12455 17.5217 5.00396 17.5217C4.88336 17.5217 4.76277 17.6122 4.73262 17.7328C4.22008 19.2704 3.04427 20.4462 1.17503 21.2904C1.05444 21.3507 0.994141 21.4411 0.994141 21.5617C0.994141 21.6823 1.08459 21.8029 1.17503 21.833C2.80308 22.436 4.00904 23.642 4.73262 25.3906C4.79292 25.5112 4.88336 25.5715 5.00396 25.5715C5.12455 25.5715 5.24515 25.4811 5.2753 25.3906C5.90843 23.7324 7.08424 22.5566 8.83288 21.833C8.95348 21.7727 9.01377 21.6823 9.01377 21.5617C9.01377 21.4411 8.95348 21.3205 8.83288 21.2904ZM4.97381 24.5464C4.28038 23.1897 3.25532 22.1647 1.95891 21.5315C3.37591 20.7778 4.37083 19.8131 4.97381 18.6071C5.54664 19.8131 6.57171 20.7778 7.98871 21.5315C6.632 22.2551 5.60694 23.25 4.97381 24.5464Z" fill="#C11426" stroke="#C11426" stroke-width="0.3"/>
</svg>
