<svg width="22" height="22" viewBox="0 0 22 22" fill="none" xmlns="http://www.w3.org/2000/svg">
<path fill-rule="evenodd" clip-rule="evenodd" d="M11 21C16.5228 21 21 16.5228 21 11C21 5.81465 17.0533 1.5511 12 1.04938V10.2667H12.0005V11.2667H1.00349C1.14485 16.6663 5.56632 21 11 21ZM1.02648 10.2667H11V1C5.72378 1 1.40195 5.08622 1.02648 10.2667ZM22 11C22 5.26196 17.6065 0.550072 12 0.044843V0H11C4.92487 0 0 4.92487 0 11C0 17.0751 4.92487 22 11 22C17.0751 22 22 17.0751 22 11Z" fill="#C11426"/>
</svg>
