<svg width="25" height="20" viewBox="0 0 25 20" fill="none" xmlns="http://www.w3.org/2000/svg">
<path d="M5.1455 11.4659C5.85446 11.4659 6.59888 11.395 7.37874 11.2533C7.37874 11.2178 7.37874 11.2178 7.37874 11.1824C7.37874 10.8279 7.41419 10.4734 7.48508 10.1544C4.79102 10.6152 2.45144 10.5088 1.06895 8.63008C0.891714 8.38195 0.57268 8.3465 0.324542 8.52374C0.0764045 8.70098 0.0409566 9.02001 0.218198 9.26815C1.42344 10.8988 3.1604 11.4659 5.1455 11.4659Z" fill="#C11426"/>
<path d="M16.0977 8.09839C16.2749 8.41742 16.4521 8.73646 16.6294 9.09094C19.5361 8.59466 21.9821 8.7719 23.4 10.9697C23.5418 11.2178 23.8963 11.2887 24.1444 11.1469C24.3925 11.0051 24.4634 10.6507 24.3216 10.4025C22.4783 7.56667 19.4298 7.46032 16.0977 8.09839Z" fill="#C11426"/>
<path d="M14.1492 8.27564C13.6883 7.53123 13.1566 6.68047 12.7312 5.68792L12.235 4.51813L11.7387 5.68792C11.3133 6.71592 10.7816 7.53123 10.3208 8.27564C10.0017 8.80736 9.71815 9.26819 9.47001 9.72902C9.29277 10.1189 9.15098 10.5089 9.11553 10.8988C9.11553 11.0052 9.08008 11.076 9.08008 11.1824C9.08008 12.8839 10.4626 14.2664 12.1641 14.2664C13.8656 14.2664 15.2481 12.8839 15.2481 11.1824C15.2481 10.5798 15.0354 10.0126 14.7163 9.44543C14.5391 9.1264 14.3619 8.80736 14.1492 8.48833C14.2201 8.41743 14.1846 8.34654 14.1492 8.27564ZM14.2555 11.1824C14.2555 12.3167 13.3339 13.2029 12.235 13.2029C11.1006 13.2029 10.2144 12.2813 10.2144 11.1824C10.2144 11.0052 10.2499 10.8279 10.3208 10.6507C10.4271 10.2607 10.6752 9.87081 10.9234 9.37453C11.0297 9.19729 11.1361 9.02005 11.2779 8.80736C11.5969 8.31109 11.9159 7.74392 12.2704 7.10585C12.5895 7.70847 12.9085 8.24019 13.2275 8.77191C13.2275 8.80736 13.263 8.80736 13.263 8.84281C13.4757 9.16184 13.6529 9.44543 13.7947 9.72902C14.0783 10.2607 14.2555 10.757 14.2555 11.1824Z" fill="#C11426"/>
<path d="M5.28583 3.66735C7.09369 3.66735 9.11424 3.20652 11.1348 2.6748C11.3475 2.6039 11.5602 2.56845 11.7729 2.49756C11.9147 2.46211 12.0564 2.42666 12.1982 2.39121C12.2337 2.39121 12.2691 2.39121 12.2691 2.35576C12.2691 2.35576 12.2691 2.35576 12.3046 2.35576C12.4109 2.32031 12.5173 2.28487 12.6236 2.28487C12.8009 2.24942 12.9781 2.17852 13.1553 2.14307C17.5155 0.973282 21.5211 0.0870766 23.5062 3.17107C23.648 3.41921 24.0025 3.49011 24.2506 3.34831C24.4988 3.20652 24.5697 2.85204 24.4279 2.6039C22.0528 -1.15361 17.4091 -0.0901643 12.7654 1.15052C12.5173 1.22142 12.3046 1.29232 12.0564 1.32776C11.9147 1.36321 11.8083 1.39866 11.6665 1.43411C7.34183 2.6039 3.26528 3.6319 1.24474 0.866937C1.06749 0.6188 0.748461 0.583352 0.500323 0.760593C0.252186 0.937834 0.216738 1.25687 0.393979 1.50501C1.56377 3.10018 3.30073 3.66735 5.28583 3.66735Z" fill="#C11426"/>
<path d="M11.7732 16.925C7.27132 18.1302 3.05298 19.3 0.961533 16.4642C0.784292 16.216 0.465258 16.1806 0.21712 16.3578C-0.0310171 16.535 -0.0664654 16.8541 0.110776 17.1022C1.31602 18.7328 3.05298 19.3 5.00263 19.3C7.16497 19.3 9.64635 18.6265 12.0568 17.953C16.736 16.6768 21.167 15.4716 23.223 18.7683C23.3648 19.0164 23.7193 19.0873 23.9674 18.9455C24.2156 18.8037 24.2865 18.4493 24.1447 18.2011C21.6278 14.2664 16.5942 15.6134 11.7732 16.925Z" fill="#C11426"/>
</svg>
