<svg width="28" height="29" viewBox="0 0 28 29" fill="none" xmlns="http://www.w3.org/2000/svg">
<path d="M26.1814 0.522426C25.0942 -0.360992 23.4695 -0.077326 22.6451 1.02188L21.0664 3.11337L20.4867 2.67634C19.7331 2.10999 18.6539 2.26161 18.0831 3.01526C17.5106 3.77239 17.6638 4.84564 18.422 5.4189L18.9973 5.85593L14.1632 12.2642C9.20582 12.2642 5.37908 12.2642 0.445945 12.2642C0.196216 12.2642 0 12.4648 0 12.7101C0 18.0909 0 22.7144 0 28.0952C0 28.3449 0.196216 28.5412 0.445945 28.5412C6.54326 28.5412 11.816 28.5412 18.0385 28.5412C18.2838 28.5412 18.4844 28.3449 18.4844 28.0952C18.4844 18.5065 18.4844 23.5883 18.4844 14.6232L22.8859 8.79025L23.4656 9.22728C24.2134 9.79648 25.2926 9.6511 25.8693 8.88836C26.428 8.14947 26.3067 7.06837 25.5348 6.48471L24.9551 6.04769L26.5917 3.88039C27.392 2.81338 27.1874 1.3328 26.1814 0.522426ZM0.89189 13.1561H9.04823V19.9567H0.89189V13.1561ZM0.89189 20.8486H9.04823V27.6493H0.89189V20.8486ZM17.5925 27.6493H9.94012V20.8486H17.5925V27.6493ZM17.5925 19.9567H9.94012V13.1561H13.4898L12.9413 13.8829C12.5444 14.4092 12.5534 15.1227 12.9146 15.6355L11.7819 17.1383C11.2992 17.7755 11.4527 18.6953 12.1342 19.1496C12.7545 19.551 13.5965 19.3843 14.0517 18.775L15.1488 17.3212C15.7309 17.5307 16.4264 17.358 16.83 16.8173L17.5925 15.805V19.9567ZM16.1209 16.2821C15.9301 16.5249 15.58 16.6088 15.2692 16.3802C15.0729 16.2509 14.8098 16.291 14.6671 16.4828L13.3427 18.2398C13.1643 18.4717 12.8432 18.5475 12.6247 18.4048C12.3785 18.2385 12.3171 17.9112 12.4954 17.6735L13.8555 15.8719C14.0027 15.6756 13.967 15.3947 13.7708 15.2475C13.5077 15.0513 13.4586 14.6812 13.6548 14.4181C22.2209 3.06445 11.1348 17.7632 19.7108 6.39106L22.1769 8.25512C21.5562 9.07775 24.4223 5.27874 16.1209 16.2821ZM24.9952 7.19823C25.3316 7.44211 25.4512 7.95317 25.1602 8.35322C24.8767 8.72171 24.3632 8.78552 24.0008 8.51376C23.9502 8.47564 18.9065 4.66731 18.9571 4.70539C18.5961 4.43693 18.5193 3.91999 18.7966 3.55039C19.0658 3.19136 19.5908 3.11653 19.9516 3.38985C23.0245 5.70953 22.0486 4.97247 24.9952 7.19823ZM25.8782 3.34526L24.246 5.51255L21.78 3.65296L23.3586 1.55702C23.8842 0.85626 24.9345 0.658528 25.6195 1.21364C26.2811 1.75051 26.3709 2.69422 25.8782 3.34526Z" fill="#C11426"/>
</svg>
