<svg width="28" height="29" viewBox="0 0 28 29" fill="none" xmlns="http://www.w3.org/2000/svg">
<path d="M1.00068 8.42126L1.08966 20.9694L1.20476 21.1895L13.8203 28.5245L13.936 28.5245L14.0517 28.5245L26.6779 21.1887L26.793 20.9765L26.7106 8.42327L26.6354 8.27602L13.9931 0.968917L13.7618 0.968917L1.08249 8.26942L1.00068 8.42126ZM5.86194 11.3843L9.71369 13.6126L9.56759 22.6881L5.7167 20.4524L5.86194 11.3843ZM1.45765 8.83631L5.55682 11.2078L5.40727 20.5506L5.4842 20.6864L9.64021 23.092L9.87156 22.9611L10.0748 13.7894L13.8169 15.9218L13.8169 27.8806L1.60662 20.8339L1.45765 8.83631ZM14.1039 27.8806L14.1039 15.8656L18.3038 13.4352L26.2358 8.84177L26.2909 20.8348L14.1039 27.8806ZM13.8772 1.37249L26.0243 8.41753L24.9361 9.05188L13.907 15.4485L2.70109 9.00108L1.6956 8.41925L13.8772 1.37249Z" fill="#C11426" stroke="#C11426" stroke-width="0.5"/>
<path d="M21.9259 15.1483L17.3232 17.8619L17.2629 17.9948L17.2629 22.6511L17.4868 22.7838L22.0857 20.0701L22.1426 19.9372L22.1426 15.2809L21.9259 15.1483ZM21.8555 19.8491L17.55 22.3819L17.55 18.0827L21.8555 15.5498L21.8555 19.8491Z" fill="#C11426" stroke="#C11426" stroke-width="0.5"/>
</svg>
