<svg width="11" height="11" viewBox="0 0 11 11" fill="none" xmlns="http://www.w3.org/2000/svg">
<path d="M7.5439 5.38848C7.5439 6.5789 6.57892 7.54388 5.3885 7.54388C4.19808 7.54388 3.23309 6.5789 3.23309 5.38848C3.23309 4.19806 4.19808 3.23308 5.3885 3.23308C6.57892 3.23308 7.5439 4.19806 7.5439 5.38848Z" fill="#17315B"/>
<path d="M10.5124 1.51203C10.4071 1.22663 10.2391 0.968312 10.0207 0.756276C9.8087 0.537951 9.55056 0.369929 9.26499 0.264609C9.03339 0.174659 8.68547 0.0675932 8.04464 0.0384251C7.35142 0.00681173 7.14357 0 5.3886 0C3.63344 0 3.4256 0.00663707 2.73255 0.0382504C2.09172 0.0675932 1.74363 0.174659 1.5122 0.264609C1.22663 0.369929 0.968312 0.537951 0.75645 0.756276C0.538126 0.968312 0.370104 1.22646 0.264609 1.51203C0.174659 1.74363 0.0675932 2.09172 0.0384251 2.73255C0.00681173 3.4256 0 3.63344 0 5.3886C0 7.14357 0.00681173 7.35142 0.0384251 8.04464C0.0675932 8.68547 0.174659 9.03339 0.264609 9.26499C0.370104 9.55056 0.537951 9.8087 0.756276 10.0207C0.968312 10.2391 1.22646 10.4071 1.51203 10.5124C1.74363 10.6025 2.09172 10.7096 2.73255 10.7388C3.4256 10.7704 3.63327 10.777 5.38842 10.777C7.14375 10.777 7.35159 10.7704 8.04447 10.7388C8.68529 10.7096 9.03339 10.6025 9.26499 10.5124C9.83822 10.2913 10.2913 9.83822 10.5124 9.26499C10.6024 9.03339 10.7094 8.68547 10.7388 8.04464C10.7704 7.35142 10.777 7.14357 10.777 5.3886C10.777 3.63344 10.7704 3.4256 10.7388 2.73255C10.7096 2.09172 10.6025 1.74363 10.5124 1.51203ZM5.3886 8.76354C3.52445 8.76354 2.0133 7.25256 2.0133 5.38842C2.0133 3.52428 3.52445 2.0133 5.3886 2.0133C7.25256 2.0133 8.76372 3.52428 8.76372 5.38842C8.76372 7.25256 7.25256 8.76354 5.3886 8.76354ZM8.89716 2.66862C8.46155 2.66862 8.10839 2.31546 8.10839 1.87986C8.10839 1.44426 8.46155 1.0911 8.89716 1.0911C9.33276 1.0911 9.68592 1.44426 9.68592 1.87986C9.68574 2.31546 9.33276 2.66862 8.89716 2.66862Z" fill="#17315B"/>
</svg>
