<svg width="14" height="22" viewBox="0 0 14 22" fill="none" xmlns="http://www.w3.org/2000/svg">
<path d="M6.52951 0C10.1324 0 13.059 2.92664 13.059 6.52951C13.059 8.80884 11.587 10.9879 10.2919 12.9029C9.11297 14.6467 8.00343 16.4513 6.87365 18.2283C6.71122 18.4843 6.3396 18.4771 6.18344 18.225C5.05414 16.4493 3.94508 14.6452 2.7671 12.9029C1.47199 10.9879 0 8.80884 0 6.52951C0 2.92664 2.92664 0 6.52951 0ZM6.52951 0.81649C3.372 0.81649 0.81649 3.37248 0.81649 6.52951C0.81649 8.56109 2.21378 10.6293 3.44285 12.4469C4.50708 14.022 5.50914 15.6459 6.52951 17.2504C7.54988 15.6459 8.55193 14.022 9.61617 12.4469C10.8452 10.6293 12.2425 8.56109 12.2425 6.52951C12.2425 3.37248 9.68654 0.81649 6.52951 0.81649Z" fill="#C11426"/>
<path d="M6.52835 3.12817C8.40666 3.12817 9.92975 4.65126 9.92975 6.52957C9.92975 8.40788 8.40666 9.93097 6.52835 9.93097C4.65004 9.93097 3.12695 8.40788 3.12695 6.52957C3.12695 4.65126 4.65004 3.12817 6.52835 3.12817ZM6.52835 3.94466C5.10118 3.94466 3.94344 5.1024 3.94344 6.52957C3.94344 7.95674 5.10118 9.11448 6.52835 9.11448C7.95552 9.11448 9.11326 7.95674 9.11326 6.52957C9.11326 5.1024 7.95552 3.94466 6.52835 3.94466Z" fill="#C11426"/>
<path d="M8.43522 17.2871C8.2135 17.251 8.06312 17.0418 8.09927 16.8201C8.13542 16.5984 8.3446 16.448 8.56632 16.4841C9.62718 16.6562 10.541 16.9632 11.1883 17.3546C13.1669 18.5485 12.3186 20.1362 10.487 20.8905C8.27953 21.8 4.77837 21.8 2.57085 20.8905C0.738332 20.1357 -0.107559 18.5499 1.86908 17.3536C2.74196 16.8803 3.50977 16.6432 4.49158 16.4841C4.7133 16.448 4.92248 16.5984 4.95863 16.8201C4.99478 17.0418 4.8444 17.251 4.62268 17.2871C3.90693 17.4033 2.90343 17.6539 2.28937 18.0516C0.9051 18.8883 1.72448 19.6628 2.88029 20.1386C4.88055 20.9623 8.17735 20.9623 10.1776 20.1386C11.3334 19.6628 12.1528 18.8883 10.7685 18.0516C10.2099 17.7122 9.39727 17.4433 8.43522 17.2871Z" fill="#C11426"/>
</svg>
