<svg width="18" height="18" viewBox="0 0 18 18" fill="none" xmlns="http://www.w3.org/2000/svg">
<path d="M18 6.47937L15.9 5.10091L15.84 1.26092C15.84 1.08092 15.7 0.940918 15.52 0.940918H2.50001C2.32001 0.940918 2.18001 1.08092 2.18001 1.26092V5.00091L5.3944e-05 6.47937C5.3944e-05 6.47937 0 6.47937 1.35169e-05 6.64091V17.7409C1.35169e-05 17.7209 1.35169e-05 17.7609 1.35169e-05 17.7409H0.300013C0.300013 17.7409 0.300013 17.7409 0.320013 17.7409H17.68H18C18 17.7409 18 17.4609 18 17.4409V6.64091C18 6.54091 18 6.61784 18 6.47937ZM15.84 5.82091L17.16 6.64091L15.84 7.66091V5.82091ZM2.82001 4.96091V1.58092H15.18V4.96091V8.04091L9.00001 12.8009L2.82001 8.04091V4.96091ZM2.16001 5.82091V7.66091L1.78001 7.36091L0.840013 6.64091L2.16001 5.82091ZM0.640013 7.30091L2.28001 8.58091L6.80001 12.0209L0.640013 16.7609V7.30091ZM1.26001 17.1009L7.32 12.4409L9.00001 13.7809L10.68 12.4409L16.72 17.1009H1.26001ZM17.36 16.7609L14.72 14.7209L11.2 12.0209L17.08 7.48091L17.34 7.28091V16.7609H17.36Z" fill="#C11426"/>
<path d="M4.65984 3.68102H11.1998C11.3798 3.68102 11.5198 3.54102 11.5198 3.36102C11.5198 3.18102 11.3798 3.04102 11.1998 3.04102H4.65984C4.47984 3.04102 4.33984 3.18102 4.33984 3.36102C4.33984 3.54102 4.47984 3.68102 4.65984 3.68102Z" fill="#C11426"/>
<path d="M13.6598 7.72088C13.6598 7.54088 13.5198 7.40088 13.3398 7.40088H4.65984C4.47984 7.40088 4.33984 7.54088 4.33984 7.72088C4.33984 7.90088 4.47984 8.04088 4.65984 8.04088H13.3398C13.5198 8.06088 13.6598 7.90088 13.6598 7.72088Z" fill="#C11426"/>
<path d="M4.65984 5.88097H11.3998C11.5798 5.88097 11.7198 5.74097 11.7198 5.56097C11.7198 5.38097 11.5798 5.24097 11.3998 5.24097H4.65984C4.47984 5.24097 4.33984 5.38097 4.33984 5.56097C4.33984 5.74097 4.47984 5.88097 4.65984 5.88097Z" fill="#C11426"/>
</svg>
