<svg width="18" height="26" viewBox="0 0 18 26" fill="none" xmlns="http://www.w3.org/2000/svg">
<path class="mouse-circ" opacity="0.5" d="M8.66667 0C3.9 0 0 3.9 0 8.66667V17.3333C0 22.1 3.9 26 8.66667 26C13.4333 26 17.3333 22.1 17.3333 17.3333V8.66667C17.3333 3.9 13.4333 0 8.66667 0ZM16.0952 17.3333C16.0952 21.4191 12.7524 24.7619 8.66667 24.7619C4.58095 24.7619 1.2381 21.4191 1.2381 17.3333V8.66667C1.2381 4.58095 4.58095 1.2381 8.66667 1.2381C12.7524 1.2381 16.0952 4.58095 16.0952 8.66667V17.3333Z" />
<path d="M8.66641 5.57144C8.32593 5.57144 8.04736 5.85001 8.04736 6.19049V9.28573C8.04736 9.6262 8.32593 9.90478 8.66641 9.90478C9.00689 9.90478 9.28546 9.6262 9.28546 9.28573V6.19049C9.28546 5.85001 9.00689 5.57144 8.66641 5.57144Z" fill="#C11426"/>
</svg>
