<svg width="72" height="95" viewBox="0 0 72 95" fill="none" xmlns="http://www.w3.org/2000/svg">
<path d="M8.90607 46.3959C9.51476 46.3959 10.0083 46.8881 10.0083 47.4951C10.0083 48.13 9.44541 48.6677 8.80943 48.6329C8.21517 48.6004 7.74217 48.0879 7.75569 47.4984C7.76927 46.9066 8.27746 46.3959 8.90607 46.3959ZM44.5822 86.7224L51.9131 78.562C52.2316 78.2203 52.7682 78.1963 53.1168 78.5076L53.1292 78.5178L57.091 82.0574C57.4337 82.375 57.4578 82.9101 57.1456 83.2577L57.1354 83.2701L49.8248 91.4058C49.5084 91.7579 48.9641 91.788 48.6109 91.4725L44.6491 87.9328C44.296 87.6173 44.2657 87.0746 44.5822 86.7224ZM52.3201 78.9678L45.0099 87.104C44.9061 87.2195 44.9159 87.4028 45.0317 87.5063L48.9936 91.046C49.1094 91.1495 49.2932 91.1398 49.3971 91.0242L56.728 82.8638C56.8211 82.7475 56.8074 82.5734 56.696 82.4739L56.6836 82.4637L52.7218 78.924C52.6051 78.8312 52.4305 78.8448 52.3307 78.9559L52.3201 78.9678ZM31.6763 75.1918L37.7757 68.4032L31.8852 66.1562L27.2891 71.2717C27.1854 71.3872 27.1951 71.5705 27.311 71.674L31.2729 75.2137C31.3887 75.3172 31.5725 75.3075 31.6763 75.1918ZM38.4612 67.6403L62.1002 76.6578C62.4713 76.7994 62.8661 76.777 63.2031 76.6269C63.5401 76.4768 63.82 76.1991 63.9616 75.83L68.8646 63.0491C69.0065 62.6791 68.984 62.2855 68.8335 61.9494C68.6832 61.6137 68.4051 61.3348 68.0355 61.1935L56.3385 56.7315L50.8617 56.7315L51.4617 56.9601C51.9023 57.1281 52.1271 57.6282 51.9585 58.0678L48.0388 68.2857C47.8702 68.725 47.3687 68.9493 46.9279 68.7811L41.9595 66.8859C41.5393 66.7256 41.3122 66.2623 41.4436 65.8337L41.4627 65.7781L44.9332 56.7315L43.999 56.7315C42.9669 59.587 41.7579 63.2141 40.6294 65.4649C40.4589 65.9013 39.9594 66.1228 39.5204 65.9555C37.8694 65.3144 36.2074 64.6913 34.5521 64.0602C34.1318 63.8998 33.9047 63.4367 34.0361 63.008L36.4422 56.7315L35.4882 56.7315L33.2238 62.6343C33.0552 63.0737 32.5538 63.2979 32.1129 63.1297L27.1446 61.2345C26.704 61.0664 26.4792 60.5663 26.6478 60.1268C27.0284 59.1345 27.4445 57.9578 27.8799 56.7315L26.9967 56.7315L25.8163 59.8086C25.6478 60.248 25.1463 60.4722 24.7055 60.304L19.7371 58.4088C19.2966 58.2407 19.0717 57.7407 19.2403 57.3011C19.3108 57.1172 19.3826 56.9271 19.4554 56.7315L18.5053 56.7315L18.4088 56.9829C18.2481 57.402 17.7836 57.6285 17.3537 57.4974L17.348 57.4974C16.7363 57.2641 15.9823 57.0036 15.2163 56.7315L10.5862 56.7315L11.1243 57.2123L38.4612 67.6403ZM38.3496 68.6221L32.104 75.5734C31.7876 75.9255 31.2434 75.9557 30.8902 75.6402L26.9283 72.1005C26.5752 71.785 26.545 71.2423 26.8614 70.8901L31.3114 65.9373L30.4191 65.5969L26.1971 70.296C25.8807 70.6481 25.3364 70.6783 24.9832 70.3627L21.009 66.8129C20.6664 66.4953 20.6422 65.9602 20.9545 65.6127L20.9646 65.6003L23.3809 62.9121L22.489 62.5719L20.28 65.0309C19.9615 65.3725 19.4249 65.3967 19.0763 65.0853L19.064 65.0751L15.1021 61.5355C14.7595 61.2179 14.7353 60.6828 15.0475 60.3352L15.0577 60.3229L15.4504 59.8869L14.5581 59.5465L14.3832 59.7411C14.0669 60.0933 13.5226 60.1233 13.1694 59.8078L11.6243 58.4274L6.50161 56.4732L48.1674 93.6974C48.758 94.2057 49.6629 94.1492 50.1838 93.5695L50.2007 93.5489L50.2016 93.5498L59.3409 83.3777C59.8683 82.7907 59.8184 81.8724 59.2296 81.3463L49.9338 73.0411L44.8123 71.0874L45.2772 71.5026C45.6198 71.8201 45.644 72.3553 45.3318 72.7028L45.3216 72.7152L38.0109 80.8509C37.6945 81.203 37.1503 81.2332 36.7971 80.9176L32.8353 77.3779C32.4822 77.0625 32.4519 76.5197 32.7683 76.1675L39.2419 68.9625L38.3496 68.6221ZM23.9551 63.1311L21.3721 66.0066C21.279 66.123 21.2926 66.2969 21.404 66.3965L21.4164 66.4066L25.3659 69.9362C25.4818 70.0397 25.6655 70.03 25.7694 69.9144L29.8452 65.378L23.9551 63.1311ZM19.8731 64.6251L21.9147 62.3528L16.0249 60.106L15.4651 60.7291C15.3721 60.8455 15.3857 61.0195 15.4971 61.1191L15.5095 61.1292L19.4714 64.6689C19.5881 64.7617 19.7626 64.7481 19.8624 64.637L19.8731 64.6251ZM13.1252 58.9999L13.5521 59.3813C13.6679 59.4848 13.8517 59.4751 13.9555 59.3595L13.9842 59.3276L13.1252 58.9999ZM39.8157 69.1814L33.196 76.5491C33.0923 76.6646 33.102 76.8479 33.2179 76.9514L37.1798 80.4911C37.2956 80.5945 37.4794 80.5848 37.5832 80.4693L44.9142 72.3089C45.0073 72.1925 44.9936 72.0185 44.8822 71.919L44.8698 71.9089L43.3101 70.5144L39.8157 69.1814ZM43.4902 85.7467L50.8109 77.5987C50.9147 77.4832 50.9049 77.2999 50.7891 77.1964L46.8272 73.6567C46.7115 73.5533 46.5276 73.563 46.4238 73.6785L39.103 81.8266C38.9992 81.9421 39.0089 82.1253 39.1248 82.2289L43.0867 85.7685C43.2025 85.872 43.3863 85.8623 43.4902 85.7467ZM51.2386 77.9803L43.9178 86.1283C43.6015 86.4804 43.0572 86.5106 42.704 86.195L38.7422 82.6554C38.389 82.3399 38.3588 81.7972 38.6753 81.445L45.9961 73.2969C46.3125 72.9448 46.8567 72.9147 47.2099 73.2302L51.1718 76.7699C51.5248 77.0854 51.5551 77.6281 51.2386 77.9803ZM52.4352 73.9953L59.8674 80.6355C60.8518 81.5149 60.9358 83.032 60.0538 84.0137L50.8798 94.2261L50.8788 94.2252C49.9933 95.1892 48.4857 95.264 47.509 94.3914L47.4883 94.3746L47.4892 94.3737L3.3956 54.979C-1.30054 51.0289 -0.962749 43.8542 3.40416 40.0205L47.4984 0.626524L47.4975 0.625692L47.5182 0.608824C48.0104 0.169142 48.6371 -0.0299322 49.2503 0.00362944C49.8552 0.0367486 50.4485 0.296568 50.888 0.775098L50.889 0.774145L50.9059 0.794752L60.0628 10.9867C60.5038 11.4775 60.7034 12.1025 60.6697 12.7139C60.6361 13.3253 60.3689 13.9249 59.8764 14.3649L52.8044 20.6831L61.6593 17.2704C62.2761 17.0327 62.9328 17.0675 63.4939 17.3151C64.056 17.5631 64.5241 18.0246 64.7624 18.6397L69.7094 31.4037C69.9478 32.0188 69.9129 32.6737 69.6646 33.2331C69.4159 33.7936 68.9531 34.2605 68.3363 34.4981L58.5787 38.2587L69.093 38.2587C70.4146 38.2587 71.4941 39.3352 71.4941 40.653L71.4941 54.3371C71.4941 55.655 70.4146 56.7315 69.093 56.7315L59.0239 56.7315L68.3759 60.2989C69.5737 60.7558 70.204 62.0903 69.7931 63.3013L64.8583 76.1705C64.6224 76.7853 64.1555 77.2482 63.5933 77.4986C63.0313 77.7489 62.3745 77.7868 61.7588 77.552L52.4352 73.9953ZM3.20593 52.6592C4.66447 54.2687 7.00262 55.0389 9.12873 55.1553C11.2549 55.2716 13.4246 54.5845 15.1246 53.0657L59.2386 13.6541C59.5329 13.3911 59.6927 13.0305 59.713 12.6615C59.7334 12.2925 59.614 11.9165 59.35 11.6227L50.2108 1.45048L50.2099 1.45132L50.1931 1.43074C49.9294 1.13724 49.5678 0.977888 49.1977 0.957609C48.836 0.937811 48.4676 1.05119 48.176 1.30216L48.156 1.31968L4.04196 40.7313C0.637927 43.7726 -0.067344 49.2353 3.20593 52.6592ZM56.2777 71.4295L60.1975 61.2116C60.366 60.7723 60.8675 60.5481 61.3083 60.7162L66.2766 62.6114C66.6969 62.7718 66.9241 63.2349 66.7926 63.6636L62.8537 73.9371C62.6851 74.3765 62.1837 74.6006 61.7428 74.4325L56.7745 72.5373C56.3542 72.377 56.1271 71.9138 56.2585 71.4851L56.2777 71.4295ZM60.7354 61.4159L56.8157 71.6338C56.7598 71.7796 56.8321 71.944 56.9783 72.0004L61.9476 73.896C62.0942 73.9519 62.2595 73.8793 62.3157 73.7328L66.2355 63.5149C66.2914 63.3691 66.219 63.2047 66.0728 63.1483L61.1035 61.2527C60.9569 61.1968 60.7916 61.2695 60.7354 61.4159ZM40.0951 65.251L43.3633 56.7315L37.0581 56.7315L34.5933 63.1567C34.5373 63.3025 34.6097 63.4669 34.7559 63.5233C36.4083 64.1571 38.0673 64.8049 39.7259 65.4192C39.8724 65.4747 40.0372 65.4019 40.0932 65.2558L40.0951 65.251ZM28.5666 56.7315L27.1858 60.331C27.1297 60.4772 27.2026 60.642 27.3495 60.698L32.3178 62.5932C32.4644 62.6491 32.6296 62.5765 32.6858 62.43L34.8719 56.7315L28.5666 56.7315ZM25.2783 59.6043L26.3804 56.7315L20.0752 56.7315L19.7783 57.5053C19.7222 57.6515 19.7951 57.8163 19.942 57.8723L24.9103 59.7676C25.0569 59.8235 25.2221 59.7507 25.2783 59.6043ZM16.9514 56.7315L17.5028 56.9418C17.649 56.9976 17.8138 56.9255 17.8705 56.7797L17.8889 56.7315L16.9514 56.7315ZM54.9082 70.9071L58.828 60.6892C58.8841 60.543 58.8112 60.3783 58.6643 60.3222L53.696 58.427C53.5498 58.3712 53.3849 58.4434 53.3284 58.5892L49.4082 68.8081C49.3521 68.9543 49.425 69.1191 49.5719 69.1751L54.5402 71.0703C54.6862 71.126 54.8528 71.0536 54.9082 70.9071ZM59.366 60.8935L55.4462 71.1114C55.2854 71.5306 54.821 71.7569 54.3911 71.6259L49.367 69.7116C48.9265 69.5435 48.7016 69.0435 48.8702 68.6038L52.79 58.3859C52.9507 57.9668 53.4152 57.7403 53.8451 57.8714L58.8692 59.7857C59.3098 59.9538 59.5346 60.4539 59.366 60.8935ZM45.5496 56.7315L42.0008 65.9824C41.9448 66.1282 42.0172 66.2926 42.1634 66.349L47.1327 68.2446C47.2793 68.3006 47.4446 68.2279 47.5007 68.0814L51.4205 57.8635C51.4766 57.7174 51.4037 57.5525 51.2568 57.4965L49.2512 56.7315L45.5496 56.7315ZM6.41784 47.5143C6.42315 46.0942 7.49088 45.1294 8.89804 45.1294C9.6267 45.1294 10.2242 45.3639 10.7038 45.8977C11.1577 46.4029 11.3633 47.0434 11.3288 47.6705C11.2576 48.9632 10.2094 49.9589 8.93685 49.9909C7.54305 50.0259 6.41268 48.9029 6.41784 47.5143ZM10.7538 47.6553L10.7548 47.6391C10.7813 47.1576 10.6238 46.6663 10.2761 46.2793C9.92857 45.8925 9.45612 45.6827 8.97334 45.6562C7.89909 45.5975 7.01899 46.4231 7.01899 47.4951C7.01899 48.5344 7.86382 49.3768 8.90607 49.3768C9.88811 49.3768 10.6773 48.6221 10.7412 47.6422L10.7538 47.6553ZM51.9119 16.4259L44.5913 8.27772C44.4331 8.10167 44.3615 7.87774 44.3736 7.6589C44.3856 7.44004 44.4815 7.22521 44.6582 7.06731L48.6082 3.53834L48.6201 3.5277C48.7966 3.36999 49.0212 3.29859 49.2407 3.3106C49.4552 3.32234 49.6659 3.41396 49.8231 3.58269L49.8339 3.59444L57.1546 11.7426C57.3128 11.9186 57.3844 12.1426 57.3723 12.3614C57.3603 12.5803 57.2644 12.7951 57.0877 12.953L53.1258 16.4926C52.9492 16.6503 52.7247 16.7217 52.5052 16.7097C52.2857 16.6977 52.0703 16.6021 51.9119 16.4259ZM45.019 7.89612L52.3396 16.0443C52.3915 16.1019 52.4631 16.1333 52.5367 16.1373C52.6103 16.1414 52.6851 16.1179 52.7431 16.0661L56.705 12.5265C56.7628 12.4749 56.7943 12.4034 56.7983 12.33C56.8024 12.2566 56.7789 12.182 56.7269 12.1242L53.0719 8.05604L49.4169 3.98789L49.4062 3.97603C49.3544 3.91837 49.2828 3.88699 49.2092 3.88299C49.1406 3.87924 49.0711 3.89932 49.015 3.94392L49.0028 3.95423L45.0409 7.49382C44.983 7.54548 44.9516 7.61693 44.9475 7.69032C44.9435 7.76372 44.967 7.83824 45.019 7.89612ZM16.4699 48.09L9.14921 39.9418C8.99105 39.7658 8.91943 39.5418 8.93147 39.323C8.94353 39.1041 9.0394 38.8893 9.21611 38.7314L13.1662 35.2024L13.178 35.1918C13.3546 35.0341 13.5791 34.9627 13.7986 34.9747C14.0131 34.9864 14.2238 35.0781 14.3811 35.2468L14.3918 35.2585L21.7125 43.4067C21.8707 43.5827 21.9423 43.8066 21.9302 44.0255C21.9182 44.2444 21.8223 44.4592 21.6456 44.6171L17.6837 48.1567C17.5072 48.3144 17.2826 48.3858 17.0632 48.3738C16.8437 48.3618 16.6282 48.2662 16.4699 48.09ZM9.57689 39.5602L16.8976 47.7084C16.9494 47.766 17.021 47.7974 17.0947 47.8014C17.1683 47.8054 17.243 47.782 17.301 47.7302L21.2629 44.1906C21.3208 44.1389 21.3522 44.0675 21.3563 43.9941C21.3603 43.9206 21.3368 43.8461 21.2849 43.7883L13.9748 35.652L13.9641 35.6401C13.9124 35.5825 13.8407 35.5511 13.7671 35.5471C13.6985 35.5433 13.629 35.5634 13.5729 35.608L13.5607 35.6183L9.59879 39.1579C9.54093 39.2096 9.5095 39.281 9.50545 39.3544C9.50145 39.4278 9.52496 39.5024 9.57689 39.5602ZM50.7899 22.4829L46.6688 26.1647L46.8587 26.0915C47.301 25.9211 47.7997 26.141 47.9707 26.5821L51.9256 36.7865C52.0966 37.2276 51.876 37.7249 51.4336 37.8954L46.4719 39.8077C46.0295 39.9781 45.5309 39.7581 45.3599 39.317L41.9117 30.4147L41.1999 31.0506L44.5279 39.6376C44.6989 40.0786 44.4783 40.576 44.0359 40.7465L39.0741 42.6587C38.636 42.8275 38.1415 42.6134 37.9664 42.1788C37.1579 40.5664 36.3185 38.3125 35.5266 36.1192L34.8841 36.6932L37.1302 42.4886C37.3011 42.9297 37.0806 43.427 36.6382 43.5975L31.6765 45.5097C31.2341 45.6802 30.7354 45.4602 30.5644 45.0191L29.2785 41.7012L28.5683 42.3357L29.7325 45.3397C29.9034 45.7808 29.6829 46.2781 29.2405 46.4486L24.2788 48.3608C23.8365 48.5312 23.3377 48.3113 23.1667 47.8702L22.9627 47.3437L22.2525 47.9783L22.3348 48.1907C22.5057 48.6318 22.2852 49.1291 21.8428 49.2996L19.9623 50.0243L15.8412 53.7062L20.6594 51.8493L20.6594 51.8222C20.6986 51.8156 20.7455 51.8078 20.7958 51.7967L67.9911 33.6078C68.3597 33.4657 68.637 33.1852 68.7867 32.8478C68.9369 32.5093 68.959 32.1154 68.8165 31.7479L63.8695 18.9839C63.7271 18.6163 63.4458 18.3398 63.1074 18.1905C62.768 18.0407 62.373 18.0188 62.0044 18.1608L50.7899 22.4829ZM45.4601 27.2445L42.3675 30.0074L45.8956 39.1105C45.9515 39.2548 46.12 39.3292 46.2647 39.2734L51.2265 37.3612C51.3712 37.3055 51.4458 37.1373 51.3899 36.9931L47.435 26.7886C47.3791 26.6444 47.2105 26.57 47.0658 26.6257L45.4601 27.2445ZM40.7425 31.4592L36.0527 35.6491C36.8689 37.7529 37.6848 39.8567 38.4979 41.9616C38.5537 42.1056 38.7219 42.1801 38.8665 42.1247L43.8288 40.2122C43.9735 40.1565 44.0481 39.9884 43.9922 39.8441L40.7425 31.4592ZM34.4267 37.1018L29.7359 41.2926L31.1002 44.8126C31.1561 44.9568 31.3246 45.0313 31.4693 44.9755L36.4311 43.0633C36.5758 43.0075 36.6504 42.8394 36.5945 42.6951L34.4267 37.1018ZM28.1109 42.7444L23.4201 46.9351L23.7025 47.6636C23.7584 47.8079 23.927 47.8823 24.0716 47.8266L29.0334 45.9143C29.1781 45.8586 29.2527 45.6905 29.1968 45.5462L28.1109 42.7444ZM21.7951 48.3869L21.1711 48.9444L21.6357 48.7654C21.7803 48.7096 21.855 48.5416 21.7991 48.3973L21.7951 48.3869ZM50.8199 17.4015L43.4992 9.25336C43.4474 9.19568 43.3757 9.16434 43.3022 9.16033C43.2286 9.15632 43.1538 9.17972 43.0958 9.23157L39.1339 12.7711C39.076 12.8228 39.0446 12.8943 39.0405 12.9677C39.0365 13.0411 39.06 13.1156 39.112 13.1735L46.4327 21.3216C46.4844 21.3793 46.5561 21.4107 46.6297 21.4147C46.7033 21.4187 46.7781 21.3953 46.8361 21.3434L50.798 17.8038C50.8558 17.7522 50.8873 17.6807 50.8913 17.6073C50.8954 17.5339 50.8719 17.4594 50.8199 17.4015ZM43.9269 8.87178L51.2476 17.02C51.4057 17.1959 51.4774 17.4199 51.4653 17.6388C51.4533 17.8576 51.3574 18.0724 51.1807 18.2303L47.2188 21.7699C47.0423 21.9276 46.8177 21.9991 46.5982 21.9871C46.3787 21.975 46.1633 21.8794 46.005 21.7032L38.6843 13.5551C38.5261 13.379 38.4545 13.1551 38.4665 12.9363C38.4786 12.7174 38.5745 12.5025 38.7512 12.3446L42.7131 8.80506C42.8897 8.64734 43.1142 8.57593 43.3336 8.58793C43.5531 8.59994 43.7686 8.69555 43.9269 8.87178ZM40.0979 26.9806L32.7773 18.8324C32.6191 18.6564 32.5475 18.4325 32.5596 18.2136C32.5716 17.9947 32.6674 17.7799 32.8442 17.622L36.8061 14.0824C36.9826 13.9247 37.2072 13.8533 37.4267 13.8653C37.6461 13.8773 37.8615 13.9729 38.0199 14.1491L45.3299 22.2854L45.3406 22.2973C45.4987 22.4733 45.5704 22.6972 45.5583 22.9161C45.5465 23.1301 45.4546 23.3401 45.2854 23.4969L45.2737 23.5077L41.3117 27.0473C41.1352 27.205 40.9106 27.2764 40.6912 27.2644C40.4717 27.2524 40.2562 27.1568 40.0979 26.9806ZM33.205 18.4508L40.5256 26.599C40.5775 26.6567 40.6491 26.688 40.7227 26.692C40.7963 26.696 40.8711 26.6726 40.9291 26.6208L44.8791 23.0918L44.891 23.0812C44.9488 23.0295 44.9803 22.9581 44.9843 22.8847C44.9881 22.8163 44.968 22.747 44.9232 22.6911L44.9129 22.6789L37.5922 14.5307C37.5404 14.4731 37.4688 14.4417 37.3951 14.4377C37.3215 14.4337 37.2468 14.4571 37.1888 14.5089L33.2269 18.0485C33.169 18.1002 33.1376 18.1716 33.1335 18.245C33.1295 18.3184 33.153 18.393 33.205 18.4508ZM39.0059 27.9562L31.6958 19.8199L31.6852 19.808C31.6334 19.7504 31.5618 19.719 31.4882 19.715C31.4196 19.7112 31.3501 19.7313 31.294 19.7759L31.2818 19.7862L27.3199 23.3258C27.262 23.3775 27.2306 23.4489 27.2265 23.5224C27.2225 23.5958 27.246 23.6703 27.2979 23.7282L34.6186 31.8763C34.6704 31.934 34.7421 31.9653 34.8157 31.9694C34.8893 31.9734 34.9641 31.95 35.0221 31.8981L38.984 28.3585C39.0418 28.3069 39.0733 28.2354 39.0773 28.162C39.0813 28.0886 39.0579 28.0141 39.0059 27.9562ZM32.1129 19.4265L39.4336 27.5746C39.5917 27.7507 39.6634 27.9746 39.6513 28.1934C39.6392 28.4123 39.5434 28.6271 39.3667 28.785L35.4048 32.3246C35.2282 32.4823 35.0037 32.5538 34.7842 32.5417C34.5647 32.5297 34.3492 32.4341 34.1909 32.2579L26.8703 24.1098C26.7121 23.9337 26.6405 23.7098 26.6525 23.4909C26.6646 23.2721 26.7605 23.0572 26.9372 22.8993L30.8872 19.3704L30.8991 19.3597C31.0757 19.202 31.3002 19.1306 31.5197 19.1426C31.7342 19.1544 31.9449 19.246 32.1021 19.4147L32.1129 19.4265ZM28.2839 37.5353L20.9633 29.3871C20.8051 29.2111 20.7335 28.9871 20.7455 28.7683C20.7576 28.5494 20.8534 28.3346 21.0301 28.1767L24.9921 24.6371C25.1686 24.4794 25.3931 24.408 25.6126 24.42C25.8321 24.432 26.0475 24.5276 26.2059 24.7038L33.5266 32.852C33.6847 33.028 33.7563 33.2519 33.7443 33.4708C33.7323 33.6897 33.6364 33.9045 33.4596 34.0624L29.4977 37.602C29.3212 37.7597 29.0966 37.8311 28.8772 37.8191C28.6577 37.8071 28.4423 37.7115 28.2839 37.5353ZM21.391 29.0055L28.7116 37.1537C28.7634 37.2113 28.8351 37.2427 28.9087 37.2467C28.9823 37.2508 29.057 37.2273 29.115 37.1755L33.077 33.6359C33.1348 33.5842 33.1663 33.5128 33.1703 33.4394C33.1743 33.366 33.1508 33.2914 33.0989 33.2336L25.7782 25.0854C25.7264 25.0277 25.6547 24.9964 25.5811 24.9924C25.5075 24.9883 25.4328 25.0118 25.3747 25.0636L21.4128 28.6032C21.355 28.6549 21.3235 28.7263 21.3195 28.7997C21.3155 28.8731 21.339 28.9477 21.391 29.0055ZM27.1918 38.5109L19.8712 30.3628C19.8194 30.3051 19.7477 30.2737 19.6741 30.2697C19.6005 30.2657 19.5258 30.2891 19.4677 30.3409L15.5058 33.8805C15.448 33.9322 15.4165 34.0037 15.4125 34.0771C15.4084 34.1505 15.4319 34.225 15.4839 34.2829L22.8046 42.431C22.8564 42.4887 22.928 42.52 23.0016 42.5241C23.0753 42.5281 23.15 42.5047 23.208 42.4528L27.1581 38.9238L27.17 38.9132C27.2278 38.8616 27.2593 38.7901 27.2633 38.7167C27.267 38.6484 27.2469 38.579 27.2022 38.5231L27.1918 38.5109ZM20.2989 29.9812L27.6089 38.1175L27.6196 38.1293C27.7777 38.3054 27.8493 38.5293 27.8373 38.7481C27.8255 38.9621 27.7336 39.1722 27.5644 39.329L27.5526 39.3397L23.5907 42.8793C23.4142 43.037 23.1896 43.1085 22.9701 43.0965C22.7507 43.0844 22.5352 42.9888 22.3769 42.8126L15.0562 34.6645C14.8981 34.4884 14.8265 34.2645 14.8385 34.0456C14.8505 33.8268 14.9464 33.6119 15.1231 33.454L19.0851 29.9145C19.2616 29.7568 19.4861 29.6853 19.7056 29.6973C19.9251 29.7094 20.1405 29.8049 20.2989 29.9812ZM8.90923 46.8204C8.50196 46.7982 8.18799 47.0898 8.18799 47.4951C8.18799 47.8906 8.50941 48.2111 8.90607 48.2111C9.32943 48.2111 9.59677 47.8476 9.57516 47.4772C9.55423 47.1178 9.27333 46.8404 8.90923 46.8204ZM60.1552 33.6149L56.1801 23.352C56.0481 22.923 56.2722 22.4635 56.6923 22.3016L61.6541 20.3894C62.0964 20.2189 62.5951 20.4389 62.7661 20.88L66.721 31.0844C66.8919 31.5255 66.6714 32.0228 66.229 32.1933L61.2672 34.1055C60.8249 34.276 60.3262 34.056 60.1552 33.6149ZM56.7563 23.2563L60.691 33.4084C60.7469 33.5527 60.9154 33.6271 61.0601 33.5713L66.0219 31.6591C66.1665 31.6034 66.2412 31.4353 66.1853 31.291L62.2304 21.0865C62.1744 20.9423 62.0059 20.8678 61.8612 20.9236L56.8984 22.8362C56.7544 22.8924 56.6803 23.06 56.7361 23.204L56.7563 23.2563ZM56.0936 39.2164L51.0332 41.1667L52.0987 41.1667C52.5727 41.1667 52.9595 41.5524 52.9595 42.0251L52.9595 52.9651C52.9595 53.4377 52.5727 53.8234 52.0987 53.8234L46.7793 53.8234C46.3054 53.8234 45.9186 53.4377 45.9186 52.9651L45.9186 43.1379L45.0286 43.4809L45.0286 52.9651C45.0286 53.4377 44.6418 53.8234 44.1678 53.8234L38.8484 53.8234C38.3744 53.8234 37.9876 53.4377 37.9876 52.9651L37.9876 46.1944L37.0976 46.5374L37.0976 52.9651C37.0976 53.4377 36.7108 53.8234 36.2368 53.8234L30.9174 53.8234C30.4434 53.8234 30.0566 53.4377 30.0566 52.9651L30.0566 49.251L29.1666 49.594L29.1666 52.9651C29.1666 53.4377 28.7798 53.8234 28.3058 53.8234L22.9864 53.8234C22.5124 53.8234 22.1256 53.4377 22.1256 52.9651L22.1256 52.3076L21.2356 52.6506L21.2356 52.9651C21.2356 53.4377 20.8488 53.8234 20.3748 53.8234L18.1924 53.8234L13.1319 55.7737L69.093 55.7737C69.8844 55.7737 70.5337 55.1263 70.5337 54.3371L70.5337 40.653C70.5337 39.8639 69.8844 39.2164 69.093 39.2164L56.0936 39.2164ZM49.5421 41.7413L46.4948 42.9158L46.4948 52.9651C46.4948 53.1206 46.6234 53.2488 46.7793 53.2488L52.0987 53.2488C52.2547 53.2488 52.3833 53.1206 52.3833 52.9651L52.3833 42.0251C52.3833 41.8696 52.2547 41.7413 52.0987 41.7413L49.5421 41.7413ZM44.4523 43.703L38.5638 45.9723L38.5638 52.9651C38.5638 53.1206 38.6925 53.2488 38.8484 53.2488L44.1678 53.2488C44.3237 53.2488 44.4523 53.1206 44.4523 52.9651L44.4523 43.703ZM36.5213 46.7595L30.6328 49.0289L30.6328 52.9651C30.6328 53.1206 30.7615 53.2488 30.9174 53.2488L36.2368 53.2488C36.3927 53.2488 36.5213 53.1206 36.5213 52.9651L36.5213 46.7595ZM28.5903 49.8161L22.7019 52.0855L22.7019 52.9651C22.7019 53.1206 22.8305 53.2488 22.9864 53.2488L28.3058 53.2488C28.4617 53.2488 28.5903 53.1206 28.5903 52.9651L28.5903 49.8161ZM20.6594 52.8727L19.6834 53.2488L20.3748 53.2488C20.5308 53.2488 20.6594 53.1206 20.6594 52.9651L20.6594 52.8727ZM58.7876 34.142L54.8327 23.9376C54.7768 23.7933 54.6082 23.7189 54.4635 23.7747L49.5007 25.6873C49.3567 25.7434 49.2826 25.9111 49.3383 26.055L53.2933 36.2594C53.3492 36.4037 53.5178 36.4781 53.6625 36.4224L58.6242 34.5102C58.7689 34.4544 58.8435 34.2863 58.7876 34.142ZM55.3684 23.731L59.3233 33.9355C59.4943 34.3766 59.2737 34.8739 58.8313 35.0444L53.8696 36.9566C53.4272 37.127 52.9285 36.9071 52.7576 36.466L48.7823 26.2031C48.6504 25.7741 48.8745 25.3146 49.2946 25.1527L54.2564 23.2404C54.6987 23.07 55.1974 23.2899 55.3684 23.731ZM61.7805 52.9651L61.7805 42.0251C61.7805 41.5524 62.1673 41.1667 62.6413 41.1667L67.9607 41.1667C68.4346 41.1667 68.8215 41.5524 68.8215 42.0251L68.8215 52.9651C68.8215 53.4377 68.4346 53.8234 67.9607 53.8234L62.6413 53.8234C62.1673 53.8234 61.7805 53.4377 61.7805 52.9651ZM62.3567 42.0251L62.3567 52.9651C62.3567 53.1206 62.4853 53.2488 62.6413 53.2488L67.9607 53.2488C68.1166 53.2488 68.2452 53.1206 68.2452 52.9651L68.2452 42.0251C68.2452 41.8696 68.1166 41.7413 67.9607 41.7413L62.6413 41.7413C62.4853 41.7413 62.3567 41.8696 62.3567 42.0251ZM60.3142 52.9651L60.3142 42.0251C60.3142 41.8696 60.1856 41.7413 60.0297 41.7413L54.7103 41.7413C54.5544 41.7413 54.4258 41.8696 54.4258 42.0251L54.4258 52.9651C54.4258 53.1206 54.5544 53.2488 54.7103 53.2488L60.0297 53.2488C60.1856 53.2488 60.3142 53.1206 60.3142 52.9651ZM60.8905 42.0251L60.8905 52.9651C60.8905 53.4377 60.5037 53.8234 60.0297 53.8234L54.7103 53.8234C54.2363 53.8234 53.8495 53.4377 53.8495 52.9651L53.8495 42.0251C53.8495 41.5524 54.2363 41.1667 54.7103 41.1667L60.0297 41.1667C60.5037 41.1667 60.8905 41.5524 60.8905 42.0251Z" fill="#C11426"/>
</svg>
