<svg width="61" height="90" viewBox="0 0 61 90" fill="none" xmlns="http://www.w3.org/2000/svg">
<path d="M4.40772 89.2078H56.5925C57.7614 89.2078 58.8825 88.7434 59.7091 87.9169C60.5356 87.0903 61 85.9692 61 84.8003V4.4075C61 3.23856 60.5356 2.11749 59.7091 1.29093C58.8825 0.46436 57.7614 0 56.5925 0H4.40772C3.23878 0 2.11771 0.46436 1.29115 1.29093C0.464581 2.11749 0.000220397 3.23856 0.000220397 4.4075V84.7562C-0.00560489 85.3387 0.104099 85.9166 0.322987 86.4564C0.541875 86.9963 0.865606 87.4874 1.27546 87.9013C1.68532 88.3153 2.17316 88.6439 2.7108 88.8681C3.24844 89.0924 3.82519 89.2078 4.40772 89.2078ZM1.1021 4.36342C1.1021 3.48672 1.45036 2.64592 2.07029 2.02599C2.69021 1.40607 3.53101 1.0578 4.40772 1.0578H56.5925C57.4692 1.0578 58.31 1.40607 58.9299 2.02599C59.5499 2.64592 59.8981 3.48672 59.8981 4.36342V84.7562C59.8981 85.6329 59.5499 86.4737 58.9299 87.0936C58.31 87.7136 57.4692 88.0618 56.5925 88.0618H4.40772C3.53101 88.0618 2.69021 87.7136 2.07029 87.0936C1.45036 86.4737 1.1021 85.6329 1.1021 84.7562V4.36342Z" fill="#C11426"/>
<path d="M7.55895 27.3487H53.441C53.7815 27.3487 54.1186 27.2813 54.4328 27.1503C54.7471 27.0193 55.0323 26.8275 55.272 26.5857C55.5118 26.3439 55.7012 26.0571 55.8295 25.7417C55.9578 25.4263 56.0223 25.0887 56.0194 24.7482V10.3357C56.0194 9.99711 55.9527 9.66183 55.8231 9.34901C55.6936 9.03618 55.5036 8.75194 55.2642 8.51252C55.0248 8.27309 54.7405 8.08317 54.4277 7.95359C54.1149 7.82402 53.7796 7.75732 53.441 7.75732H7.55895C6.87512 7.75732 6.2193 8.02897 5.73575 8.51252C5.25221 8.99606 4.98056 9.65188 4.98056 10.3357V24.7482C4.97765 25.0887 5.0422 25.4263 5.17047 25.7417C5.29874 26.0571 5.4882 26.3439 5.72792 26.5857C5.96763 26.8275 6.25286 27.0193 6.56713 27.1503C6.8814 27.2813 7.21849 27.3487 7.55895 27.3487ZM6.08244 10.3357C6.08244 9.94412 6.238 9.56856 6.5149 9.29166C6.7918 9.01476 7.16735 8.8592 7.55895 8.8592H53.441C53.8326 8.8592 54.2082 9.01476 54.4851 9.29166C54.762 9.56856 54.9175 9.94412 54.9175 10.3357V24.7482C54.9175 25.1398 54.762 25.5154 54.4851 25.7923C54.2082 26.0692 53.8326 26.2247 53.441 26.2247H7.55895C7.16735 26.2247 6.7918 26.0692 6.5149 25.7923C6.238 25.5154 6.08244 25.1398 6.08244 24.7482V10.3357Z" fill="#C11426"/>
<path d="M18.9632 34.9294H8.37418C8.22806 34.9294 8.08793 34.9875 7.98461 35.0908C7.88129 35.1941 7.82324 35.3343 7.82324 35.4804V46.0804C7.82324 46.2265 7.88129 46.3667 7.98461 46.47C8.08793 46.5733 8.22806 46.6314 8.37418 46.6314H18.9632C19.1093 46.6314 19.2494 46.5733 19.3528 46.47C19.4561 46.3667 19.5141 46.2265 19.5141 46.0804V35.4804C19.5141 35.3343 19.4561 35.1941 19.3528 35.0908C19.2494 34.9875 19.1093 34.9294 18.9632 34.9294ZM18.3792 45.5295H8.92512V36.0313H18.3792V45.5295Z" fill="#C11426"/>
<path d="M17.1377 37H10.1683C10.0721 37 9.97987 37.0382 9.91187 37.1062C9.84387 37.1742 9.80566 37.2664 9.80566 37.3626V44.3393C9.80566 44.4355 9.84387 44.5277 9.91187 44.5957C9.97987 44.6637 10.0721 44.7019 10.1683 44.7019H17.1377C17.2339 44.7019 17.3261 44.6637 17.3941 44.5957C17.4621 44.5277 17.5003 44.4355 17.5003 44.3393V37.3626C17.5003 37.2664 17.4621 37.1742 17.3941 37.1062C17.3261 37.0382 17.2339 37 17.1377 37ZM16.7533 43.9767H10.5309V37.7252H16.7533V43.9767Z" fill="#C11426"/>
<path d="M17.1377 55H10.1683C10.0721 55 9.97987 55.0382 9.91187 55.1062C9.84387 55.1742 9.80566 55.2664 9.80566 55.3626V62.3393C9.80566 62.4355 9.84387 62.5277 9.91187 62.5957C9.97987 62.6637 10.0721 62.7019 10.1683 62.7019H17.1377C17.2339 62.7019 17.3261 62.6637 17.3941 62.5957C17.4621 62.5277 17.5003 62.4355 17.5003 62.3393V55.3626C17.5003 55.2664 17.4621 55.1742 17.3941 55.1062C17.3261 55.0382 17.2339 55 17.1377 55ZM16.7533 61.9767H10.5309V55.7252H16.7533V61.9767Z" fill="#C11426"/>
<path d="M17.1377 73.2981H10.1683C10.0721 73.2981 9.97987 73.3363 9.91187 73.4043C9.84387 73.4723 9.80566 73.5645 9.80566 73.6607V80.6374C9.80566 80.7336 9.84387 80.8258 9.91187 80.8938C9.97987 80.9618 10.0721 81 10.1683 81H17.1377C17.2339 81 17.3261 80.9618 17.3941 80.8938C17.4621 80.8258 17.5003 80.7336 17.5003 80.6374V73.6607C17.5003 73.5645 17.4621 73.4723 17.3941 73.4043C17.3261 73.3363 17.2339 73.2981 17.1377 73.2981ZM16.7533 80.2748H10.5309V74.0233H16.7533V80.2748Z" fill="#C11426"/>
<path d="M34.1373 73.2981H27.1678C27.0717 73.2981 26.9794 73.3363 26.9114 73.4043C26.8434 73.4723 26.8052 73.5645 26.8052 73.6607V80.6374C26.8052 80.7336 26.8434 80.8258 26.9114 80.8938C26.9794 80.9618 27.0717 81 27.1678 81H34.1373C34.2334 81 34.3257 80.9618 34.3937 80.8938C34.4617 80.8258 34.4999 80.7336 34.4999 80.6374V73.6607C34.4999 73.5645 34.4617 73.4723 34.3937 73.4043C34.3257 73.3363 34.2334 73.2981 34.1373 73.2981ZM33.7529 80.2748H27.5304V74.0233H33.7529V80.2748Z" fill="#C11426"/>
<path d="M34.1373 37H27.1678C27.0717 37 26.9794 37.0382 26.9114 37.1062C26.8434 37.1742 26.8052 37.2664 26.8052 37.3626V44.3393C26.8052 44.4355 26.8434 44.5277 26.9114 44.5957C26.9794 44.6637 27.0717 44.7019 27.1678 44.7019H34.1373C34.2334 44.7019 34.3257 44.6637 34.3937 44.5957C34.4617 44.5277 34.4999 44.4355 34.4999 44.3393V37.3626C34.4999 37.2664 34.4617 37.1742 34.3937 37.1062C34.3257 37.0382 34.2334 37 34.1373 37ZM33.7529 43.9767H27.5304V37.7252H33.7529V43.9767Z" fill="#C11426"/>
<path d="M34.1373 55H27.1678C27.0717 55 26.9794 55.0382 26.9114 55.1062C26.8434 55.1742 26.8052 55.2664 26.8052 55.3626V62.3393C26.8052 62.4355 26.8434 62.5277 26.9114 62.5957C26.9794 62.6637 27.0717 62.7019 27.1678 62.7019H34.1373C34.2334 62.7019 34.3257 62.6637 34.3937 62.5957C34.4617 62.5277 34.4999 62.4355 34.4999 62.3393V55.3626C34.4999 55.2664 34.4617 55.1742 34.3937 55.1062C34.3257 55.0382 34.2334 55 34.1373 55ZM33.7529 61.9767H27.5304V55.7252H33.7529V61.9767Z" fill="#C11426"/>
<path d="M50.9238 36.8618H43.9544C43.8582 36.8618 43.766 36.9 43.698 36.968C43.63 37.036 43.5918 37.1283 43.5918 37.2244V44.2011C43.5918 44.2973 43.63 44.3895 43.698 44.4575C43.766 44.5255 43.8582 44.5637 43.9544 44.5637H50.9238C51.02 44.5637 51.1122 44.5255 51.1802 44.4575C51.2482 44.3895 51.2865 44.2973 51.2865 44.2011V37.2244C51.2865 37.1283 51.2482 37.036 51.1802 36.968C51.1122 36.9 51.02 36.8618 50.9238 36.8618ZM50.5395 43.8385H44.317V37.587H50.5395V43.8385Z" fill="#C11426"/>
<path d="M18.9632 53.1104H8.37418C8.22806 53.1104 8.08793 53.1684 7.98461 53.2717C7.88129 53.375 7.82324 53.5152 7.82324 53.6613V64.2613C7.82324 64.4074 7.88129 64.5476 7.98461 64.6509C8.08793 64.7542 8.22806 64.8123 8.37418 64.8123H18.9632C19.1093 64.8123 19.2494 64.7542 19.3528 64.6509C19.4561 64.5476 19.5141 64.4074 19.5141 64.2613V53.6613C19.5141 53.5152 19.4561 53.375 19.3528 53.2717C19.2494 53.1684 19.1093 53.1104 18.9632 53.1104ZM18.3792 63.7104H8.92512V54.2122H18.3792V63.7104Z" fill="#C11426"/>
<path d="M18.9632 71.2913H8.37418C8.22806 71.2913 8.08793 71.3493 7.98461 71.4526C7.88129 71.5559 7.82324 71.6961 7.82324 71.8422V82.4422C7.82324 82.5884 7.88129 82.7285 7.98461 82.8318C8.08793 82.9351 8.22806 82.9932 8.37418 82.9932H18.9632C19.1093 82.9932 19.2494 82.9351 19.3528 82.8318C19.4561 82.7285 19.5141 82.5884 19.5141 82.4422V71.8422C19.5141 71.6961 19.4561 71.5559 19.3528 71.4526C19.2494 71.3493 19.1093 71.2913 18.9632 71.2913ZM18.3792 81.8913H8.92512V72.3931H18.3792V81.8913Z" fill="#C11426"/>
<path d="M35.7999 34.9294H25.1999C25.0546 34.9323 24.9161 34.9912 24.8134 35.0939C24.7107 35.1966 24.6517 35.3351 24.6489 35.4804V46.0804C24.6489 46.2265 24.707 46.3667 24.8103 46.47C24.9136 46.5733 25.0537 46.6314 25.1999 46.6314H35.7999C35.946 46.6314 36.0862 46.5733 36.1895 46.47C36.2928 46.3667 36.3508 46.2265 36.3508 46.0804V35.4804C36.348 35.3351 36.2891 35.1966 36.1863 35.0939C36.0836 34.9912 35.9451 34.9323 35.7999 34.9294ZM35.249 45.5295H25.7508V36.0313H35.249V45.5295Z" fill="#C11426"/>
<path d="M35.7999 53.1104H25.1999C25.0546 53.1132 24.9161 53.1721 24.8134 53.2748C24.7107 53.3776 24.6517 53.5161 24.6489 53.6613V64.2613C24.6489 64.4074 24.707 64.5476 24.8103 64.6509C24.9136 64.7542 25.0537 64.8123 25.1999 64.8123H35.7999C35.946 64.8123 36.0862 64.7542 36.1895 64.6509C36.2928 64.5476 36.3508 64.4074 36.3508 64.2613V53.6613C36.348 53.5161 36.2891 53.3776 36.1863 53.2748C36.0836 53.1721 35.9451 53.1132 35.7999 53.1104ZM35.249 63.7104H25.7508V54.2122H35.249V63.7104Z" fill="#C11426"/>
<path d="M35.7999 71.2913H25.1999C25.0546 71.2941 24.9161 71.353 24.8134 71.4558C24.7107 71.5585 24.6517 71.697 24.6489 71.8422V82.4422C24.6489 82.5884 24.707 82.7285 24.8103 82.8318C24.9136 82.9351 25.0537 82.9932 25.1999 82.9932H35.7999C35.946 82.9932 36.0862 82.9351 36.1895 82.8318C36.2928 82.7285 36.3508 82.5884 36.3508 82.4422V71.8422C36.348 71.697 36.2891 71.5585 36.1863 71.4558C36.0836 71.353 35.9451 71.2941 35.7999 71.2913ZM35.249 81.8913H25.7508V72.3931H35.249V81.8913Z" fill="#C11426"/>
<path d="M52.6258 34.9294H42.0368C41.8907 34.9294 41.7505 34.9875 41.6472 35.0908C41.5439 35.1941 41.4858 35.3343 41.4858 35.4804V46.0804C41.4858 46.2265 41.5439 46.3667 41.6472 46.47C41.7505 46.5733 41.8907 46.6314 42.0368 46.6314H52.6258C52.7719 46.6314 52.912 46.5733 53.0154 46.47C53.1187 46.3667 53.1767 46.2265 53.1767 46.0804V35.4804C53.1767 35.3343 53.1187 35.1941 53.0154 35.0908C52.912 34.9875 52.7719 34.9294 52.6258 34.9294ZM52.0749 45.5295H42.6208V36.0313H52.1079L52.0749 45.5295Z" fill="#C11426"/>
<path d="M52.6258 53.1104H42.0368C41.8907 53.1104 41.7505 53.1684 41.6472 53.2717C41.5439 53.375 41.4858 53.5152 41.4858 53.6613V82.4423C41.4858 82.5884 41.5439 82.7285 41.6472 82.8318C41.7505 82.9351 41.8907 82.9932 42.0368 82.9932H52.6258C52.7719 82.9932 52.912 82.9351 53.0154 82.8318C53.1187 82.7285 53.1767 82.5884 53.1767 82.4423V53.6613C53.1767 53.5152 53.1187 53.375 53.0154 53.2717C52.912 53.1684 52.7719 53.1104 52.6258 53.1104ZM52.0749 81.8913H42.6208V54.2122H52.1079V81.8913H52.0749Z" fill="#C11426"/>
<path d="M51.123 55H43.877C43.777 55 43.6811 55.0505 43.6104 55.1404C43.5397 55.2303 43.5 55.3522 43.5 55.4794V80.5206C43.5 80.6478 43.5397 80.7697 43.6104 80.8596C43.6811 80.9495 43.777 81 43.877 81H51.123C51.223 81 51.3189 80.9495 51.3896 80.8596C51.4603 80.7697 51.5 80.6478 51.5 80.5206V55.4794C51.5 55.3522 51.4603 55.2303 51.3896 55.1404C51.3189 55.0505 51.223 55 51.123 55ZM50.746 80.0413H44.2766V55.9587H50.7686V80.0413H50.746Z" fill="#C11426"/>
</svg>
