<svg width="78" height="96" viewBox="0 0 78 96" fill="none" xmlns="http://www.w3.org/2000/svg">
<path d="M39.201 10.0111C38.8034 9.47491 39.6188 8.87029 40.0166 9.40656C40.1716 9.61458 40.3017 9.88482 40.3879 10.208C41.1295 9.30283 42.4047 8.40773 43.298 7.53486C44.4982 6.3622 45.8155 4.90338 46.438 3.91982C46.7933 3.35551 47.6526 3.8964 47.2973 4.46074C46.8321 5.19565 45.9471 6.16821 45.1449 7.04988C44.5504 7.703 44.4395 7.72614 44.7159 8.65496C45.1319 10.0526 46.5649 11.7957 48.3319 13.3701C50.0196 14.8739 53.2998 17.2558 55.6204 17.481C57.4221 14.0148 62.1394 18.0237 58.2365 21.4849C57.4961 22.1416 56.6333 23.5256 55.978 23.9214C55.6914 26.3923 56.9055 29.8518 58.267 31.9605C59.3299 30.8677 59.6038 30.3477 59.4913 28.9216C59.2804 26.249 60.6661 22.1111 63.781 23.1003C64.3804 22.3072 64.7946 20.9354 64.922 19.96C63.5089 18.8745 63.5036 14.5257 63.1694 12.3877C62.163 5.94996 58.1007 0.425772 50.7122 1.06947C46.4759 1.43859 40.357 4.88806 38.8121 9.11806C38.4543 10.0977 38.4245 11.0498 38.8532 11.887C38.9545 12.0849 39.0825 12.2787 39.2388 12.4674C39.3318 12.1983 39.404 11.938 39.441 11.6941C39.5174 11.1891 39.521 10.4404 39.201 10.0111ZM44.2154 84.1435C43.9706 82.2531 44.2854 79.8797 44.9391 78.0701C43.716 77.178 43.6871 75.6755 42.6218 75.144L41.6683 75.9941L41.6385 76.018C39.7393 77.4648 40.2035 78.211 37.3417 77.789C34.8327 77.419 30.9688 76.2829 29.3391 75.924C27.7401 75.5717 27.7826 77.1012 29.063 77.5989C31.3488 78.433 33.9561 79.0697 36.3592 79.4287C36.7564 79.4867 36.6681 80.0905 36.2709 80.0324C33.8601 79.6723 31.2516 79.0342 28.9545 78.2072C28.6565 78.092 28.403 78.0529 28.1963 78.0674C27.4128 78.122 27.3004 78.9442 27.9795 79.2934C29.4526 80.0509 31.0799 80.4477 32.7007 80.785C33.666 80.9857 34.6408 81.163 35.5982 81.396C35.9875 81.4902 35.8444 82.082 35.455 81.9879C34.5094 81.7577 33.5475 81.5832 32.5947 81.3832C36.2725 82.8577 40.2412 83.9882 44.2154 84.1435ZM34.9573 83.3411C35.6242 87.0923 35.4707 91.1818 34.8204 94.923C34.7079 95.5822 33.7055 95.4111 33.818 94.7519C34.4776 90.9572 34.626 86.746 33.8483 82.9585C33.3915 82.7946 32.4701 82.3702 32.0472 82.3376C32.4819 86.0476 32.5968 90.5841 31.7105 94.2242C31.5536 94.8729 30.567 94.6344 30.724 93.9856C31.5938 90.4129 31.4582 85.8954 31.0155 82.2582L4.10445 80.1852L15.2023 66.4129L22.2435 67.0428C18.4746 64.0768 15.4443 60.0607 12.6892 56.409C11.4454 54.7603 9.96334 52.6232 8.47384 51.2363C7.78323 50.5933 7.14369 49.9977 7.17391 49.1948C7.23259 47.6365 8.82874 46.0901 10.0033 45.1522C5.70439 42.8344 2.47445 39.2023 0.187586 34.9291C-0.651337 33.3614 1.47134 30.9729 3.62271 32.4227C5.72231 33.8376 7.57047 36.2926 9.5452 37.9393C10.8293 39.0101 10.6084 38.3468 9.93687 37.4293C9.58764 36.9523 9.20852 36.4899 8.92726 35.8892C7.76515 33.4072 11.2308 33.0301 12.1797 34.8746L12.1975 34.9091C12.6723 35.8322 13.5551 37.5483 14.4311 38.4398C15.2542 39.2777 15.2263 40.1355 15.1972 41.0313C15.1832 41.463 15.1688 41.9059 15.2851 42.3295C16.4676 42.1001 16.6941 42.8125 17.354 43.667C17.7907 44.2327 18.3738 44.9879 19.0455 45.8524C19.0766 45.883 19.1064 45.9152 19.1345 45.9496C19.1595 45.9804 19.1803 46.0132 19.197 46.0474C20.8209 48.1357 22.9198 50.8068 24.7272 52.996C26.0776 54.6315 26.9871 55.5644 27.689 55.9516C28.1689 56.2164 28.5474 56.1689 28.9498 55.8936C29.1717 54.584 29.487 53.2471 29.8719 51.9147C31.6999 45.5859 35.1039 39.3142 37.4117 36.6386C38.575 35.2897 39.9678 35.0121 41.4947 34.7078C42.5082 34.5058 43.5871 34.2907 44.6569 33.707C43.701 32.7901 41.3841 32.6691 40.0274 32.0315C38.4927 31.3103 38.6236 30.3146 38.7605 29.2733C38.8226 28.8017 38.8864 28.3167 38.6867 27.9327C38.265 27.1219 38.5675 26.5671 38.7905 26.1972C38.6304 25.9374 38.5478 25.6861 38.5127 25.4092C38.4129 24.6239 38.8814 23.9343 38.0827 23.5479C37.1391 23.0915 36.8357 22.4653 37.0305 21.4252C37.2181 20.4229 37.7961 19.6545 38.2009 18.7494C39.0836 16.7756 37.0817 17.4583 38.819 13.5059C38.4463 13.1447 38.1593 12.7569 37.9502 12.3484C37.3424 11.1614 37.4301 9.90907 37.8729 8.7312C39.6011 4.13495 45.9865 0.459332 50.6247 0.0552428C58.5361 -0.633988 63.0491 5.22399 64.1629 12.1548C64.4813 14.1364 64.5157 16.8987 65.1921 18.5318C65.5617 19.4243 66.0978 19.1311 66.6951 18.5176C68.645 16.5144 70.7776 16.7353 72.3143 18.2022C71.6435 18.5224 70.6114 18.9127 70.4334 19.7039C70.3056 20.272 70.7157 20.8577 71.0832 21.2517C72.3502 22.6098 72.4496 24.334 71.0603 25.6295C70.7927 25.879 70.4722 26.0959 70.1772 26.3137C70.0156 25.3007 69.3592 24.2821 67.8539 24.2738C69.7079 27.0382 68.1921 30.5508 65.2705 31.3583C65.5715 29.4241 65.5149 25.6475 63.8317 24.2815C61.8579 22.6796 60.285 26.6744 60.7203 28.802C60.9668 30.0068 62.2396 31.6788 62.7528 33.1286C63.5774 34.856 64.9231 36.8994 68.9384 39.1187C73.8654 41.8418 74.6769 42.4829 75.2673 48.166C75.6582 51.9293 76.6944 51.7866 75.9732 56.2622C75.6694 58.1471 75.2854 60.3506 76.0552 62.1831C76.7852 63.9206 77.5681 69.4913 77.8454 74.5631C78.0726 78.7181 77.9527 82.5837 77.179 83.8519C75.6344 86.384 71.317 87.3698 68.544 87.7367C68.426 89.9438 68.5555 92.2208 69.0954 94.3695C69.2576 95.0182 68.2711 95.2648 68.1088 94.6161C67.5573 92.4209 67.4125 90.1097 67.5204 87.8536C61.9977 88.3853 53.4876 88.1457 48.1683 87.0258C46.1176 86.5941 44.7827 85.9754 44.4143 85.1651C41.2166 85.0719 37.9902 84.3448 34.9573 83.3411ZM30.4981 66.9866C30.4793 67.3868 29.8707 67.3582 29.8895 66.958C29.9693 65.3009 34.9063 65.7806 34.7808 67.4471C34.751 67.8472 34.1424 67.802 34.1722 67.4017C34.2376 66.5319 30.5349 66.2232 30.4981 66.9866ZM47.7565 85.8929C47.4567 84.879 47.4145 83.4246 47.5695 81.9202C47.7681 79.9921 48.2811 77.9404 48.9756 76.6418C48.0098 76.7069 47.178 76.8247 46.5393 77.0215C46.2878 77.099 45.9575 78.0662 45.8493 78.4158C45.3231 80.1172 44.9757 82.3136 45.2367 84.1175C45.2755 84.3859 45.2884 84.8208 45.5007 85.0186C45.8304 85.3257 46.6136 85.6196 47.7565 85.8929ZM50.1948 76.5873C49.3149 77.9656 48.852 79.382 48.5799 82.0237C48.393 83.8386 48.476 85.5133 48.9592 86.1466C52.1963 86.7447 60.6709 87.527 67.4217 86.797C71.585 86.3468 75.0926 85.3215 76.3118 83.3229C76.9676 82.248 77.0488 78.5977 76.831 74.6148C76.5592 69.6444 75.8091 64.2256 75.1164 62.5769C74.2592 60.5365 74.6307 58.2132 74.9707 56.1031C75.6566 51.847 74.639 51.9488 74.2569 48.2694C74.1192 46.9442 73.6129 43.0184 72.2334 42.6257C71.7085 42.4763 70.9962 42.4471 70.0925 42.615C67.1609 43.1594 64.7549 45.9942 63.215 49.7776C60.4215 56.6411 61.2284 64.2698 63.3725 71.1988C64.0418 73.3618 64.8456 75.0719 65.788 75.3931C66.5782 75.2062 67.3832 74.8985 68.0054 74.3664C68.5123 73.9327 69.1727 74.7043 68.6658 75.138C67.9723 75.731 66.7507 76.2849 65.848 76.42C61.3732 77.3915 55.034 76.4641 50.1948 76.5873ZM9.76684 51.0731C10.7615 48.8322 15.1168 45.7966 17.478 45.4878C17.1247 45.0313 16.8114 44.6255 16.5504 44.2875C15.8909 43.2962 15.8219 43.1445 15.052 43.4263C12.9514 44.0849 8.2687 47.095 8.1883 49.2306C8.17553 49.5702 8.65177 50.0137 9.16601 50.4925C9.36655 50.6793 9.57184 50.8705 9.76684 51.0731ZM18.2869 46.5307C16.8974 45.4097 10.1196 50.7685 10.6018 52.0503C11.6005 53.2726 12.5502 54.5366 13.5007 55.7964C16.5308 59.8127 19.8987 64.2767 24.1679 67.1979C24.1771 67.2041 24.1859 67.2106 24.1945 67.2173L27.0016 67.4684C26.9223 65.542 27.3359 64.6105 29.193 64.0737C28.5296 62.0627 28.4518 59.6589 28.7703 57.1089C28.2903 57.2414 27.7899 57.1681 27.1997 56.8425C26.3757 56.3879 25.38 55.3801 23.9436 53.6403C22.0803 51.3835 19.9251 48.6387 18.2869 46.5307ZM43.421 74.4314C44.5007 75.1535 44.4893 76.3134 45.3556 77.0973C45.6524 76.5186 45.9649 76.1361 46.241 76.051C50.5061 74.7367 59.2039 76.147 64.4131 75.6175C63.6004 74.7367 62.9414 73.2407 62.4019 71.4971C60.1883 64.3436 59.3895 56.4784 62.2722 49.3958C63.9365 45.3067 66.6014 42.231 69.9095 41.6166C70.4109 41.5235 70.868 41.4831 71.2803 41.4857C70.3661 40.9261 69.3817 40.525 68.4491 40.0096C65.5629 38.4144 63.9693 36.8961 62.966 35.5066C62.6623 37.8811 61.3338 39.6852 60.4295 41.7902C60.0617 42.6462 57.8403 42.6045 55.852 42.6325C54.8353 42.6468 54.8298 42.6425 55.5118 43.4344C55.7685 43.7324 56.0639 44.0523 56.3418 44.3571C56.8492 44.9136 57.3107 45.4197 57.5031 45.739C57.9444 46.4709 57.3371 47.2009 56.0261 47.991C54.8449 48.7029 53.0188 49.5442 50.8832 50.528C44.2709 53.5741 34.6315 58.0165 32.7335 63.8991C34.1776 64.1013 35.6167 64.6093 36.6258 65.4134C37.7683 66.3237 37.8572 67.0075 37.8617 68.4397L49.0218 69.4377L43.421 74.4314ZM50.0138 5.51227C49.6277 5.40402 49.7923 4.81693 50.1785 4.92521C57.5266 6.99095 56.4738 12.2607 61.2127 15.7443C61.5361 15.9813 61.1757 16.4729 60.8523 16.2359C56.1232 12.7595 57.0021 7.47684 50.0138 5.51227ZM52.3134 3.60619C51.9179 3.54343 52.0133 2.94203 52.4089 3.00479C56.8042 3.70048 59.8596 7.30523 61.1281 11.3931C61.2458 11.7761 60.6634 11.955 60.5457 11.5721C59.3477 7.71146 56.4728 4.26455 52.3134 3.60619ZM47.7554 7.75854C47.3928 7.58748 47.6529 7.0362 48.0156 7.20728C51.129 8.67318 52.0376 12.5919 55.3778 14.7311C55.7149 14.9474 55.3856 15.4605 55.0485 15.2442C51.7163 13.1102 50.6269 9.11051 47.7554 7.75854ZM64.6413 23.6433C65.9784 24.771 66.6328 27.7489 66.487 29.5208C68.2594 27.8595 67.7272 25.5942 66.4617 23.7987C67.408 23.1504 69.5614 23.1339 70.5426 24.7074C71.3508 23.7993 71.1304 22.7918 70.3393 21.9437C69.7184 21.278 69.2313 20.4214 69.4429 19.4812C69.5707 18.913 69.9292 18.4539 70.3804 18.1014C69.2624 17.7583 68.0842 18.5645 67.3416 19.3274C66.9129 19.7678 66.5585 20.1316 65.9146 20.1952C65.7494 21.3147 65.3072 22.7175 64.6413 23.6433ZM47.4256 58.0314C47.1352 57.7551 47.5553 57.3136 47.8457 57.5899C49.065 58.7544 52.344 58.5551 53.8705 58.2213C54.2629 58.1366 54.3918 58.7332 53.9994 58.8179C52.2431 59.2019 48.8232 59.3662 47.4256 58.0314ZM49.7712 31.2413C50.3624 30.93 50.8359 31.8289 50.2446 32.1402C48.9474 32.8264 47.0488 33.0741 45.5706 33.0828C47.8582 35.9673 44.9507 40.6562 43.6329 42.7765C42.931 43.9059 41.2799 46.5805 40.9018 48.2575C40.6917 49.1896 40.7508 49.4401 41.7182 49.0424C42.9342 48.5425 44.5318 47.272 45.0544 46.7677C49.5849 42.3668 53.2357 37.2792 57.5558 32.7211C57.5453 32.7082 57.5355 32.6947 57.5262 32.6806C55.7766 30.0271 55.0026 27.398 54.9742 24.2034C54.3784 24.1959 53.737 23.849 53.6697 23.202C53.6146 22.6631 54.3585 22.4253 54.5081 22.9697C54.6484 23.48 55.3089 23.2935 55.7299 22.9397C56.3703 22.4016 56.8987 21.5053 57.6864 20.8067C60.5318 18.2833 57.0143 15.2419 56.2455 18.6492C56.0837 19.2837 55.1219 19.098 55.2583 18.4591C52.728 18.0634 49.5267 15.797 47.6556 14.1298C45.6571 12.3491 44.0503 10.3106 43.6641 8.62579C42.4634 9.7652 41.0063 10.5614 40.3664 12.1843C39.9103 13.3413 39.4937 14.1966 39.146 15.142C38.478 16.9589 39.7383 17.0298 38.9844 19.092C38.5996 20.1448 37.1526 22.2749 38.5243 22.6331C39.9134 23.1403 39.3659 24.0748 39.5191 25.2819C39.5409 25.4535 39.6062 25.6127 39.7493 25.7988C40.011 26.1394 39.8733 26.3667 39.6832 26.6802C39.5767 26.8558 39.4136 27.1248 39.5897 27.4634C39.935 28.1273 39.8498 28.7749 39.767 29.4046C39.6794 30.0708 39.5956 30.7079 40.457 31.1127C41.7502 31.7205 43.7504 32.0214 45.3546 32.055C46.7267 32.0837 48.5738 31.8748 49.7712 31.2413ZM30.347 63.8514C30.2691 63.5035 30.2118 63.1459 30.174 62.7796C29.6718 57.9149 32.5872 51.329 36.065 45.8317C39.4745 40.4426 43.4773 36.06 45.3517 35.3484C45.3281 35.0535 45.2757 34.7959 45.1984 34.5699C43.9814 35.2501 42.8014 35.4853 41.6936 35.7061C40.344 35.9751 39.1129 36.2205 38.1795 37.3028C35.943 39.8958 32.6348 46.0058 30.8465 52.1971C30.4556 53.5506 30.1381 54.9058 29.9213 56.2256C29.9191 56.25 29.9151 56.2741 29.9094 56.298C29.4557 59.1056 29.4618 61.7491 30.1945 63.8697C30.245 63.8631 30.2959 63.857 30.347 63.8514ZM45.3457 36.4627C43.5418 37.4541 40.0279 41.467 36.9243 46.3727C33.5456 51.7132 30.7089 58.0698 31.1844 62.6762C31.2246 63.0652 31.2883 63.4403 31.3772 63.7995C31.4737 63.8 31.5706 63.802 31.6679 63.8054C31.7433 61.4602 32.9184 58.8928 34.532 56.561C36.3491 53.9352 38.737 51.5904 40.722 50.2113C40.2155 50.1065 39.8829 49.7698 39.82 49.1111C39.6462 47.2901 41.7848 43.8244 42.7697 42.2395C43.8216 40.547 45.2135 38.5004 45.3457 36.4627ZM36.8469 68.3489C36.8413 67.289 36.8329 66.8778 35.9933 66.2089C34.4461 64.9507 27.3631 63.4028 28.0191 67.5021L36.8469 68.3489ZM29.3809 81.1122C28.7409 80.8131 28.1175 80.5067 27.5141 80.1963C26.3771 79.6116 26.2346 77.9475 27.2596 77.241C26.6598 75.6571 27.8977 74.5639 29.5579 74.9296C31.08 75.2648 35.1611 76.4507 37.5464 76.798C39.826 77.1299 39.4011 76.4559 41.0002 75.2272L46.595 70.2388L15.6538 67.4714L6.10659 79.3194L29.3809 81.1122ZM61.8094 33.5111C61.3722 32.5817 61.0005 31.4939 60.3588 30.7C60.0501 31.5657 59.3068 32.3501 58.3049 33.4071C54.0166 37.9315 50.2156 43.3352 45.7039 47.5512C44.316 48.8935 43.0459 49.9766 42.0712 50.5487C40.0639 51.7269 37.3661 54.2496 35.3674 57.1377C34.6387 58.1908 34.0055 59.2891 33.5373 60.383C37.2244 55.7017 44.8877 52.1711 50.4575 49.6052C52.5617 48.6359 54.361 47.807 55.5009 47.12C57.0648 46.1775 56.8257 46.3966 55.5899 45.0412C54.7373 44.1061 53.7588 43.033 53.7229 42.4177C53.6738 41.5746 54.4339 41.6589 55.0132 41.6708C56.2629 41.6965 59.3353 41.7595 59.4947 41.3885C60.4907 39.0702 62.6626 36.0821 61.8094 33.5111ZM14.3104 42.6196C14.1485 42.0569 14.1659 41.5215 14.1828 40.9995C14.2047 40.3253 14.2257 39.6797 13.7071 39.1518C12.7216 38.1488 11.7936 36.3448 11.2944 35.3744L11.2767 35.34C10.9832 34.7694 9.26932 34.2275 9.84621 35.4597C10.2721 36.3692 10.9694 36.981 11.4066 37.8673C11.5841 38.227 11.6249 38.5378 11.5621 38.7906C11.4983 39.0478 11.3426 39.2344 11.1167 39.3503C10.9389 39.4415 10.7264 39.4788 10.4941 39.462C10.0434 39.4294 9.45114 39.1811 8.89677 38.7189C6.95569 37.1003 5.09356 34.6405 3.05384 33.2659C1.76001 32.3941 0.75177 33.8334 1.08266 34.4518C3.34968 38.688 6.58608 42.2784 10.9046 44.4799C11.9382 43.758 13.1299 43.0651 14.3104 42.6196Z" fill="#C11426"/>
</svg>
