<svg width="53" height="95" viewBox="0 0 53 95" fill="none" xmlns="http://www.w3.org/2000/svg">
<path d="M47.2336 9.06242C47.6583 8.55258 48.4357 9.19806 48.011 9.70787C46.9434 10.9881 45.4795 12.8953 44.8289 14.6511C43.9786 16.9456 43.6987 20.254 42.2348 23.5962C49.0222 29.0419 52.6747 37.4406 52.6747 46.0827C52.6747 48.3452 52.4212 50.6032 51.9133 52.8077C51.7866 53.3582 51.6619 53.7996 51.2206 54.2444C50.8606 55.5903 49.6273 56.646 48.471 57.3218L46.5332 83.71C45.4291 98.7513 7.4643 97.5574 6.71929 84.1498L4.75181 56.9849C2.3206 55.7569 0.917349 54.312 0.917349 52.7674L0.940123 50.4922C0.0238229 49.5147 -0.0107366 47.3191 0.00164421 46.0788C0.0464974 41.582 1.07468 37.3337 2.8638 33.5697C5.42918 28.1724 10.2202 22.9566 15.71 20.3945C15.9143 19.5504 16.2759 18.9411 16.6705 18.3149C15.7206 17.0401 14.9987 15.6991 14.2321 14.3172C13.8797 13.6819 13.8926 12.9936 14.1153 12.2961C14.9681 9.62504 18.6026 6.17776 21.0493 5.00011C23.2376 3.94682 25.8679 3.59066 28.3404 3.73655C29.1265 3.78294 29.9267 3.95085 30.7011 3.75222C32.1064 3.39175 33.1759 1.422 33.851 0.253854C34.1819 -0.320963 35.0584 0.18191 34.7276 0.756747C34.0497 1.92966 33.0089 3.72276 31.7894 4.39845C32.6116 4.70154 33.3313 5.09108 33.9592 5.52207C34.5063 5.89921 33.9313 6.73079 33.3841 6.35365C31.7921 5.26098 30.1921 4.86082 28.2966 4.75868C25.9685 4.63323 23.6206 4.88519 21.4896 5.9109C19.2071 7.00946 16.2301 9.90706 15.2042 12.2708C15.4466 12.1672 15.7097 12.1209 15.973 12.127C16.372 12.1348 16.3603 12.7406 15.9611 12.7329C15.2541 12.7164 14.7291 13.1278 15.1166 13.8262C16.0487 15.5064 16.9151 17.1051 18.1784 18.5833C21.3449 22.2885 24.2447 19.7901 22.7253 16.6545C21.8904 14.9315 21.3962 13.6421 19.86 12.3294C19.3546 11.8976 20.013 11.1294 20.5184 11.5612C21.2183 12.1593 21.7248 12.7474 22.1303 13.3413C22.6538 12.8697 23.166 12.222 23.297 11.5162C23.4169 10.8625 24.4124 11.0445 24.2925 11.6983C24.1055 12.7058 23.4302 13.569 22.6635 14.2186C22.8968 14.6468 23.1019 15.0819 23.3118 15.5294C24.2949 14.7166 25.7346 14.7193 26.8196 15.3278C28.373 14.7696 30.2444 12.927 30.7112 11.3352C30.8964 10.6972 31.8681 10.9783 31.6829 11.6164C31.2425 13.1183 29.9424 14.5691 28.6667 15.4681C30.1058 14.9327 31.5699 15.6419 32.243 16.93C32.2532 16.9151 32.2635 16.9003 32.274 16.8856C33.361 15.3679 35.7931 15.3781 36.8266 16.9968C37.2483 17.6574 37.4897 18.5172 37.6317 19.3897C37.7155 19.9044 37.7564 20.3327 37.7794 20.7201C39.0506 21.364 40.2631 22.1138 41.4077 22.9591C42.2981 20.8773 42.8445 18.7154 43.3286 16.4939C43.5118 15.6529 43.6451 15.1006 43.5093 14.2169C43.394 13.4669 43.1042 12.8125 42.6931 12.2657C42.294 11.7344 43.1032 11.1286 43.5022 11.6599C43.8622 12.1387 44.1469 12.6818 44.333 13.2836C45.092 11.7795 46.1583 10.3518 47.2336 9.06242ZM31.0593 89.19C30.6617 89.2338 30.5951 88.6303 30.9926 88.5865C33.2623 88.3301 36.4595 87.5451 38.3465 86.2217C38.6732 85.9923 39.023 86.4889 38.6963 86.7183C36.7219 88.103 33.4349 88.9216 31.0593 89.19ZM27.2809 91.5101C26.8817 91.5163 26.8723 90.9105 27.2714 90.9043C31.7955 90.8308 38.0123 89.8232 41.5174 86.7399C41.8175 86.4762 42.2196 86.9324 41.9195 87.1961C38.2939 90.3854 31.9639 91.4341 27.2809 91.5101ZM44.2964 79.2249C44.2846 79.3922 44.1392 79.5182 43.9716 79.5064C43.8041 79.4946 43.6778 79.3494 43.6896 79.1821L44.8376 62.1662C44.8658 61.7677 45.4726 61.8104 45.4445 62.2089L44.2964 79.2249ZM47.4139 57.8741C45.8501 58.608 43.8391 59.2364 41.49 59.7297C31.859 61.7522 17.8368 61.3802 8.47585 58.4544C7.50474 58.1509 6.61096 57.8235 5.80386 57.4753L7.73002 84.0786C8.17885 95.9322 44.5006 97.5505 45.5196 83.6692L47.4139 57.8741ZM8.77731 57.4882C17.9828 60.3655 31.8124 60.7287 41.2838 58.7397C43.8279 58.2054 48.2502 57.1004 49.8263 54.8227C48.736 54.7935 48.0931 53.8607 48.1269 52.8071C46.6431 53.9462 44.1825 54.9039 41.0484 55.5976C31.8927 57.624 18.3605 57.2721 9.4355 54.4826C6.24748 53.4862 3.93589 52.2165 2.8929 50.7962C2.55462 50.9291 2.23858 50.9927 1.94714 50.977L1.9327 52.7674C1.9327 55.0796 6.80875 56.8729 8.77731 57.4882ZM48.4181 51.0672C48.6076 49.9564 48.7631 48.8288 48.8633 47.706C47.0859 49.6372 43.2541 50.6982 40.6597 51.2469C31.3028 53.2256 17.8125 52.6606 9.43548 50.0423C6.60402 49.1573 4.46387 48.0567 3.2898 46.8266V49.0828C3.2898 50.6951 5.7536 52.2714 9.73693 53.5164C18.499 56.255 31.8414 56.6011 40.8303 54.6116C44.753 53.7433 47.5079 52.5015 48.4181 51.0672ZM2.34889 44.0504C2.46451 43.5828 2.71664 43.1335 3.09292 42.7061C3.58382 38.5248 5.06866 34.7084 7.24926 31.502C9.45577 28.2575 12.374 25.6389 15.6954 23.8993C15.5578 22.9859 15.5158 22.2377 15.5448 21.6052C10.4672 24.2492 6.22004 28.8679 3.78002 34.0013C2.05034 37.6403 1.0563 41.7449 1.01302 46.0867C1.00533 46.8589 0.861129 50.3448 2.41004 49.8904C2.32068 49.625 2.27445 49.3556 2.27445 49.0828C2.27445 47.9103 2.01477 45.4019 2.34889 44.0504ZM9.73691 49.0761C18.0104 51.662 31.4501 52.2071 40.638 50.2159C42.849 49.7366 48.6802 48.2298 48.7369 45.7281C48.7887 43.4412 43.9776 41.7872 42.2883 41.2593C33.3238 38.4574 18.2943 38.0514 9.17979 40.6717C0.648268 43.1244 1.87894 46.6201 9.73691 49.0761ZM48.8306 43.6113C48.2373 37.4175 45.3791 31.6099 40.6021 27.5776C40.1025 28.4063 39.5455 29.1734 38.9235 29.8468C37.7002 31.1712 36.3731 31.9775 34.4959 31.576C33.8299 31.4336 33.0221 31.2609 31.4105 32.0326C29.4118 32.9898 28.3562 31.1943 25.6858 31.9852C22.8831 32.8152 22.7677 31.1997 20.3631 30.8701C17.4037 30.4645 16.3906 27.4743 15.8811 24.9468C12.8222 26.6096 10.134 29.057 8.08611 32.0683C6.19148 34.8542 4.84434 38.1241 4.25747 41.7033C5.38937 40.9303 6.96939 40.2532 8.90215 39.6976C18.2046 37.0233 33.4443 37.4346 42.5897 40.293C45.4996 41.2025 47.6793 42.3397 48.8306 43.6113ZM39.903 41.7345C47.1427 43.6584 48.3347 47.071 40.367 49.0221C32.57 50.9314 19.8072 50.643 12.1222 48.6008C4.88255 46.677 3.69044 43.2643 11.6582 41.3132C19.4551 39.4039 32.2181 39.6923 39.903 41.7345ZM39.7483 42.3214C32.1602 40.3049 19.4964 40.0179 11.801 41.9025C4.44231 43.7044 5.67908 46.2607 12.2769 48.014C19.865 50.0305 32.5287 50.3174 40.2242 48.4329C47.5829 46.6309 46.3461 44.0746 39.7483 42.3214ZM50.905 52.6765C51.4105 50.5156 51.6594 48.302 51.6594 46.0827C51.6594 37.6198 48.0378 29.3905 41.3069 24.1526C41.3016 24.1486 41.2963 24.1445 41.2911 24.1403C40.1996 23.2923 39.0404 22.5366 37.8227 21.8835C37.8561 22.7285 37.8276 23.5729 37.8512 24.4178C45.5841 28.8545 49.9636 37.2733 49.9636 46.0827C49.9636 48.0813 49.5945 50.5082 49.1858 52.4663C48.8467 54.0911 50.512 54.3581 50.905 52.6765ZM38.0297 25.7045C38.1114 25.9224 38.2287 26.0882 38.3973 26.1944C38.96 26.5481 38.4206 27.4035 37.8579 27.0498C37.0403 26.5345 36.8731 25.6503 36.8402 24.4529C36.7952 22.8145 36.8978 21.1838 36.6322 19.552C36.5091 18.7954 36.3094 18.065 35.9738 17.5394C35.1703 16.2808 33.1723 16.6272 32.8033 18.1246C32.6706 18.6629 32.7398 19.2475 32.7634 19.8046C32.7984 20.6314 32.8612 22.1141 33.015 24.1027L33.2572 27.2317C33.3067 27.8958 32.2954 27.971 32.2458 27.3069L32.0037 24.1779C31.8531 22.2323 31.7882 20.6992 31.752 19.8442C31.7294 19.309 31.7253 18.7336 31.6173 18.1955C31.1866 16.048 28.6918 15.6353 28.1117 17.3231C27.3927 19.4149 27.8614 24.8964 28.0102 27.3513C28.0493 28.0154 27.0379 28.0748 26.9988 27.4107C26.8335 24.7593 26.3805 19.4092 27.1282 17.0669C26.6214 15.8564 24.6485 15.4851 23.7644 16.4994C24.4839 18.2587 24.0849 20.7637 22.0486 21.3838C21.9675 23.2739 22.3873 25.4132 22.7219 27.2559C22.8393 27.9096 21.8438 28.0878 21.7264 27.4341C21.3789 25.5269 20.9798 23.4349 21.0331 21.4929C20.6518 21.4655 20.2461 21.364 19.8229 21.1757C19.0748 21.4614 18.2608 21.5026 17.5849 21.016C17.261 20.7832 17.6155 20.2914 17.9395 20.5242C18.2765 20.7668 18.6665 20.8192 19.0674 20.756C18.5303 20.3984 17.9733 19.901 17.409 19.2407C16.2118 20.1781 16.5873 23.2529 16.8358 24.548C17.2357 26.6325 18.0126 29.5276 20.4979 29.8683C22.8339 30.1884 23.3754 31.6146 25.4002 31.015C28.0796 30.2215 29.6284 31.7663 30.9743 31.1219C32.8997 30.1998 33.8898 30.4115 34.7061 30.5861C36.1462 30.894 37.2487 30.1677 38.1779 29.1617C38.7802 28.5096 39.3203 27.7556 39.805 26.9356C39.234 26.4969 38.6418 26.0859 38.0297 25.7045ZM25.233 20.714C25.5738 20.5064 25.8902 21.0244 25.5495 21.2319C24.9397 21.6034 23.8909 21.5805 23.2695 21.25C22.9173 21.0625 23.2029 20.5279 23.555 20.7154C23.988 20.9456 24.8061 20.974 25.233 20.714ZM30.3687 20.5829C30.7032 20.3659 31.034 20.8744 30.6995 21.0913C30.0728 21.4989 29.0923 21.5624 28.4207 21.2377C28.0607 21.0642 28.3249 20.5177 28.6848 20.6912C29.1652 20.9234 29.9193 20.8751 30.3687 20.5829ZM35.6549 20.4127C35.9644 20.1614 36.3476 20.6318 36.0381 20.8831C35.3266 21.4621 34.3819 21.6342 33.5374 21.2404C33.176 21.0717 33.4328 20.5228 33.7944 20.6916C34.4244 20.9854 35.1269 20.8424 35.6549 20.4127ZM22.4972 18.5194C22.444 18.9147 21.842 18.834 21.8952 18.4386C22.0036 17.6332 21.1399 16.392 20.2823 16.277C19.5842 16.1833 18.3674 17.0765 18.746 17.8033C18.9307 18.1581 18.3905 18.4384 18.2058 18.0837C17.5732 16.8694 19.1774 15.5167 20.3632 15.6758C21.5538 15.8356 22.6508 17.3786 22.4972 18.5194Z" fill="#C11426"/>
</svg>
