<svg width="9" height="10" viewBox="0 0 9 10" fill="none" xmlns="http://www.w3.org/2000/svg">
<path d="M8.73504 2.94725C8.49446 2.3458 8.13359 1.80996 7.67431 1.35068C7.21502 0.89139 6.67919 0.541457 6.07774 0.289943C5.78248 0.169654 5.47629 0.0821703 5.1701 0.0165579C5.06075 -0.00531287 4.95139 0.0712349 4.92952 0.180589C4.90765 0.289943 4.9842 0.399297 5.09355 0.421168C5.37787 0.475845 5.66219 0.552393 5.92464 0.661747C6.47141 0.880455 6.96351 1.20852 7.37905 1.635C7.7946 2.05054 8.12266 2.54264 8.3523 3.08941C8.46165 3.36279 8.54914 3.63618 8.59288 3.9205C8.61475 4.01891 8.6913 4.08453 8.78972 4.08453C8.80065 4.08453 8.81159 4.08453 8.82252 4.08453C8.93188 4.06266 9.00843 3.9533 8.98655 3.84395C8.94281 3.54869 8.85533 3.2425 8.73504 2.94725Z" />
<path d="M7.09445 3.60331C7.18193 3.82201 7.24755 4.04072 7.28035 4.27037C7.29129 4.36878 7.37877 4.44533 7.47719 4.44533C7.48812 4.44533 7.49906 4.44533 7.51 4.44533C7.61935 4.42346 7.6959 4.32504 7.67403 4.21569C7.63029 3.95324 7.56467 3.70172 7.46625 3.45021C7.29129 3.02373 7.03977 2.63006 6.71171 2.30199C6.38365 1.97393 6.00091 1.71148 5.56349 1.54745C5.32292 1.44903 5.06047 1.37248 4.80895 1.33968C4.6996 1.31781 4.59024 1.39436 4.57931 1.50371C4.56837 1.61306 4.63399 1.72242 4.74334 1.73335C4.97298 1.76616 5.20263 1.83177 5.4104 1.91925C5.79314 2.07235 6.13214 2.30199 6.41646 2.58631C6.70078 2.87063 6.94135 3.2315 7.09445 3.60331Z" />
<path d="M4.2187 2.84893C4.20776 2.95828 4.29525 3.0567 4.4046 3.06763C4.80921 3.10044 5.18101 3.27541 5.46533 3.55973C5.74965 3.84405 5.92462 4.21585 5.95743 4.62046C5.96836 4.72981 6.05585 4.80636 6.1652 4.80636C6.17613 4.80636 6.17613 4.80636 6.18707 4.80636C6.29642 4.79543 6.38391 4.69701 6.37297 4.58765C6.32923 4.09556 6.12146 3.62534 5.76059 3.27541C5.41066 2.92547 4.94043 2.70677 4.44834 2.66302C4.32805 2.65209 4.22963 2.72864 4.2187 2.84893Z" />
<path d="M8.62546 6.6105C8.47237 6.49021 8.28647 6.40273 8.12243 6.33712C7.5866 6.11841 7.03983 5.97625 6.56961 5.8669C6.40558 5.83409 6.17593 5.76848 5.94629 5.85596C5.77132 5.92157 5.66197 6.0528 5.56355 6.17309C5.53075 6.21683 5.487 6.26057 5.4542 6.30431C5.36671 6.3918 5.12613 6.34805 4.83088 6.18402C4.49188 6.00906 4.08727 5.69193 3.70453 5.30919C3.33273 4.93739 3.00467 4.52184 2.8297 4.18284C2.66567 3.88759 2.62193 3.64701 2.70941 3.55953C2.74222 3.52672 2.78596 3.49391 2.84064 3.45017C2.96093 3.35175 3.09215 3.2424 3.15776 3.06743C3.24525 2.83779 3.19057 2.59721 3.14683 2.44412C3.03747 1.97389 2.89531 1.42712 2.67661 0.891289C2.61099 0.716322 2.52351 0.541356 2.40322 0.38826C2.25012 0.202358 2.06422 0.0711337 1.85645 0.0383275C1.57213 -0.0163495 1.255 0.0930045 0.937877 0.366389C0.697298 0.574162 0.489525 0.825676 0.33643 1.12093C0.183334 1.40525 0.0739802 1.71144 0.0302386 2.03951C-0.0791154 2.78311 0.106786 3.60327 0.609815 4.55465C1.0363 5.3748 1.58307 6.12934 2.23919 6.78547C2.89531 7.43066 3.64986 7.97743 4.47001 8.41484C5.24642 8.81945 5.93535 9.02723 6.56961 9.02723C6.71177 9.02723 6.85393 9.01629 6.98515 8.99442C7.30228 8.95068 7.60847 8.84132 7.90373 8.68823C8.18805 8.53513 8.43956 8.32736 8.65827 8.08678C8.93165 7.78059 9.04101 7.46346 8.98633 7.16821C8.94259 6.96044 8.81136 6.7636 8.62546 6.6105Z" />
</svg>
