<svg width="13" height="20" viewBox="0 0 13 20" fill="none" xmlns="http://www.w3.org/2000/svg">
<path d="M10.8899 0H1.75494C0.787229 0 0 0.787229 0 1.75494V18.2451C0 19.2128 0.78747 20 1.75494 20H10.8899C11.8576 20 12.6448 19.2125 12.6448 18.2451V1.75494C12.6448 0.787229 11.8576 0 10.8899 0ZM11.9219 18.2451C11.9219 18.814 11.4588 19.2771 10.8899 19.2771H1.75494C1.18602 19.2771 0.722892 18.814 0.722892 18.2451V17.4455H11.9222V18.2451H11.9219ZM11.9219 16.7219H0.722892V3.27783H11.9222V16.7219H11.9219ZM11.9219 2.55494H0.722892V1.75518C0.722892 1.18602 1.18602 0.723133 1.75494 0.723133H10.8899C11.4588 0.723133 11.9219 1.18602 11.9219 1.75518V2.55494Z" fill="#C11426"/>
<path d="M6.95746 18.261C6.95746 18.5011 6.7628 18.6957 6.52267 18.6957C6.28255 18.6957 6.08789 18.5011 6.08789 18.261C6.08789 18.0208 6.28255 17.8262 6.52267 17.8262C6.7628 17.8262 6.95746 18.0208 6.95746 18.261Z" fill="#C11426"/>
</svg>
