<svg width="12" height="12" viewBox="0 0 12 12" fill="none" xmlns="http://www.w3.org/2000/svg">
<path d="M6 0C2.68627 0 0 2.68627 0 6C0 9.31387 2.68627 12 6 12C9.31387 12 12 9.31387 12 6C12 2.68627 9.31387 0 6 0ZM5.99987 9.56667C5.55427 9.56667 5.19173 9.2044 5.19173 8.75907C5.19173 8.31293 5.55427 7.95027 5.99987 7.95027C6.4456 7.95027 6.80827 8.31333 6.80827 8.75907C6.8084 9.2044 6.4456 9.56667 5.99987 9.56667ZM8.16507 5.1744C8.00853 5.418 7.7924 5.70907 7.36133 6.0452C6.93293 6.37333 6.80333 6.54173 6.76427 6.61307C6.74213 6.65293 6.71067 6.7324 6.6856 6.88027C6.67693 6.93227 6.66973 6.98853 6.664 7.04893L6.63013 7.4108L5.32733 7.41387L5.34387 6.99693C5.34613 6.9436 5.35187 6.83893 5.36627 6.7412C5.40947 6.444 5.51093 6.18 5.66773 5.95693C5.81493 5.7472 6.10067 5.48187 6.54093 5.1464C6.86653 4.898 6.99373 4.756 7.0428 4.6808C7.10547 4.5852 7.13573 4.48453 7.13573 4.37347C7.13573 4.116 7.04173 3.91213 6.85653 3.76747C6.66 3.614 6.38747 3.53613 6.0468 3.53613C5.7448 3.53613 5.49 3.616 5.2892 3.7732C5.07667 3.9384 4.92747 4.16693 4.85653 4.43507L4.76853 4.76733L3.49347 4.62907L3.5836 4.19733C3.70093 3.63493 3.9656 3.2008 4.37053 2.90707C4.89507 2.5264 5.458 2.33333 6.04413 2.33333C6.6916 2.33333 7.2216 2.49987 7.71187 2.85747C8.16507 3.1884 8.42507 3.72307 8.42507 4.3244C8.42507 4.61893 8.34 4.89693 8.16507 5.1744Z" fill="#C11426"/>
</svg>
