<svg width="15" height="11" viewBox="0 0 15 11" fill="none" xmlns="http://www.w3.org/2000/svg">
<path d="M0.398966 9.11427C0.701299 10.2165 1.62619 10.4182 1.68789 10.4569C3.21005 10.8831 11.742 10.8843 13.287 10.4569C14.3452 10.1423 14.5395 9.17769 14.5759 9.11427C14.9788 6.91104 15.0054 4.03872 14.5574 1.53868L14.5759 1.66298C14.2736 0.56073 13.3487 0.359052 13.287 0.320366C11.7852 -0.0988446 3.23103 -0.1147 1.68789 0.320366C0.629726 0.635566 0.435369 1.59956 0.398966 1.66298C-0.032322 3.97847 -0.0539172 6.63516 0.398966 9.11427ZM6.00509 7.70443V3.07916L9.87125 5.39528L6.00509 7.70443Z" fill="#17315B"/>
</svg>
