<svg width="137" height="22" fill="none" xmlns="http://www.w3.org/2000/svg"><g clip-path="url(#clip0)"><path d="M2.78 18.172c0 .34-.146.63-.412.896a1.435 1.435 0 01-.966.388c-.387 0-.701-.121-.967-.388A1.147 1.147 0 010 18.172V6.687c0-.17.048-.339.12-.509.073-.17.194-.314.315-.46.12-.121.29-.242.483-.315.194-.073.387-.121.604-.121h5.365c.387 0 .701.121.967.388.266.266.411.557.411.896 0 .364-.145.654-.41.872-.267.243-.605.34-.968.34H2.78v3.198h3.722c.338 0 .652.121.942.363.29.243.435.533.435.897 0 .363-.12.654-.386.896a1.37 1.37 0 01-.967.364H2.779v4.676zm14.402-1.284c0 .145.024.266.048.339.024.072.073.145.145.17.049.048.121.072.218.072.072.024.169.049.241.073.315.121.46.363.46.75 0 .316-.097.558-.315.752-.217.194-.58.267-1.111.267-.363 0-.677-.049-.943-.17-.266-.121-.507-.34-.725-.654a3.657 3.657 0 01-1.184.678 4.605 4.605 0 01-1.474.218c-1.16 0-2.03-.29-2.634-.848-.604-.557-.894-1.332-.894-2.277v-.049c0-2.01 1.305-3.028 3.915-3.028a7.8 7.8 0 01.773.048c.266.024.508.073.773.17v-.63c0-.921-.507-1.357-1.498-1.357-.266 0-.508.024-.7.097-.194.048-.387.145-.58.218-.073.024-.17.072-.29.121a1.234 1.234 0 01-.46.073c-.217 0-.387-.025-.532-.097a1.407 1.407 0 01-.362-.267.84.84 0 01-.194-.387c-.048-.146-.048-.267-.048-.388 0-.29.097-.533.29-.751.193-.218.46-.388.773-.509a5.881 5.881 0 011.088-.29c.41-.05.797-.098 1.208-.098 1.426 0 2.465.34 3.094 1.042.628.703.942 1.72.942 3.053v3.659h-.024zm-4.108-1.77c-.29 0-.532.025-.701.098a.978.978 0 00-.411.242.667.667 0 00-.193.364c-.024.145-.049.29-.049.436v.048c0 .34.097.557.29.703.194.145.508.218.919.218a2.7 2.7 0 00.773-.097c.242-.073.508-.218.773-.412v-1.454a8.09 8.09 0 00-1.401-.145zm11.454-3.488c-.217-.024-.387-.024-.556-.024h-.459l-.435.072c-.145.025-.29.073-.46.146a.519.519 0 01.025.194v6.154c0 .34-.12.63-.387.872a1.37 1.37 0 01-.966.364c-.387 0-.701-.122-.967-.364a1.128 1.128 0 01-.387-.872v-5.985a2.86 2.86 0 00-.048-.533c-.024-.145-.097-.266-.169-.387a2.027 2.027 0 01-.193-.291.812.812 0 01-.073-.364c0-.363.145-.654.411-.872.266-.218.58-.315.942-.315.218 0 .411.049.58.17.17.121.339.266.484.436.459-.267.894-.46 1.329-.63.435-.145.797-.218 1.112-.218.628 0 1.039.121 1.28.34.242.241.339.508.339.847 0 .388-.145.703-.411.92-.29.243-.628.364-.99.34zm2.804-5.452c0-.315.12-.605.363-.848.241-.242.58-.363 1.014-.363.436 0 .774.121 1.015.363.242.243.363.533.363.848v3.49a3.75 3.75 0 01.967-.412 4.278 4.278 0 011.184-.146c.628 0 1.16.073 1.619.242.435.17.797.388 1.087.703.29.29.508.654.629 1.042.12.412.193.824.193 1.308v3.32c0 .508-.096.993-.266 1.453-.169.46-.435.848-.797 1.163-.339.34-.798.582-1.305.776-.532.194-1.136.29-1.837.29a5.783 5.783 0 01-1.788-.266 3.718 3.718 0 01-1.305-.703 2.943 2.943 0 01-.822-1.066 3.042 3.042 0 01-.29-1.308V6.178h-.024zm2.73 9.91c0 .364.146.654.412.872.265.218.628.315 1.087.315.508 0 .87-.12 1.112-.363.241-.242.362-.557.362-.993v-3.635c0-.363-.096-.63-.314-.824-.217-.193-.556-.29-1.039-.29-.652 0-1.184.194-1.595.557v4.361h-.024zm15.468.8c0 .145.024.266.048.339.024.072.072.145.145.17.048.048.12.072.217.072.073.024.17.049.242.073.314.121.46.363.46.75 0 .316-.097.558-.315.752-.217.194-.58.267-1.112.267-.362 0-.676-.049-.942-.17-.266-.121-.508-.34-.725-.654a3.656 3.656 0 01-1.184.678 4.605 4.605 0 01-1.474.218c-1.16 0-2.03-.29-2.635-.848-.604-.557-.894-1.332-.894-2.277v-.049c0-2.01 1.305-3.028 3.915-3.028.266 0 .532.024.774.048.266.024.507.073.773.17v-.63c0-.921-.508-1.357-1.498-1.357-.266 0-.508.024-.701.097-.194.048-.387.145-.58.218-.073.024-.17.072-.29.121a1.227 1.227 0 01-.46.073c-.217 0-.386-.025-.531-.097a1.407 1.407 0 01-.362-.267.84.84 0 01-.194-.387c-.048-.146-.048-.267-.048-.388 0-.29.096-.533.29-.751a1.96 1.96 0 01.773-.509 5.881 5.881 0 011.088-.29c.41-.05.797-.098 1.208-.098 1.426 0 2.465.34 3.093 1.042.629.703.943 1.72.943 3.053v3.659h-.024zm-4.133-1.77c-.29 0-.532.025-.7.098a.976.976 0 00-.412.242.667.667 0 00-.193.364c-.024.145-.048.29-.048.436v.048c0 .34.097.557.29.703.193.145.507.218.918.218.266 0 .532-.024.773-.097.242-.073.508-.218.774-.412v-1.454a7.866 7.866 0 00-1.402-.145zm18.39.098c0-.46-.096-.775-.266-.945a1.483 1.483 0 00-.531-.388c-.218-.097-.435-.17-.677-.266-.242-.097-.507-.17-.75-.267a33.949 33.949 0 01-1.45-.484 4.83 4.83 0 01-1.304-.703 3.03 3.03 0 01-.918-1.139c-.242-.46-.363-1.066-.363-1.769 0-.63.097-1.211.314-1.72.218-.509.532-.945.919-1.308.386-.364.87-.63 1.45-.824.555-.194 1.208-.266 1.885-.266.29 0 .652.024 1.111.072.46.049.894.146 1.305.267a3.26 3.26 0 011.088.533c.314.242.459.533.459.896 0 .34-.121.63-.363.872-.241.243-.58.388-1.015.388a1.45 1.45 0 01-.483-.073 12.167 12.167 0 00-.483-.145c-.194-.073-.387-.121-.629-.194-.241-.072-.531-.097-.87-.097-.241 0-.459.025-.7.073a1.51 1.51 0 00-.605.242 1.255 1.255 0 00-.41.46c-.097.195-.17.437-.17.728 0 .436.097.75.29.92.194.194.363.315.532.388.266.121.508.242.75.315.24.073.458.145.676.218.483.17.966.315 1.45.509.483.17.918.412 1.305.702.386.291.7.679.942 1.14.242.46.363 1.041.363 1.744 0 .678-.121 1.308-.387 1.841a4.082 4.082 0 01-1.015 1.357 4.548 4.548 0 01-1.547.848 6.37 6.37 0 01-1.957.29c-.362 0-.797-.024-1.28-.096a8.176 8.176 0 01-1.378-.315 3.28 3.28 0 01-1.112-.606c-.314-.242-.46-.533-.46-.872 0-.315.122-.606.388-.872.241-.267.555-.388.918-.388.145 0 .29.024.46.073.168.048.337.096.53.17.242.072.508.169.847.266.314.097.7.145 1.111.145.677 0 1.209-.145 1.547-.436.314-.29.483-.727.483-1.284zm8.725.266c-.266 0-.507 0-.749-.024s-.483-.048-.773-.097v.654a1 1 0 00.386.824c.266.194.653.291 1.185.291a3.6 3.6 0 00.894-.097c.266-.073.58-.17.894-.315a.864.864 0 01.193-.073 1.53 1.53 0 01.387-.048 2.1 2.1 0 01.604.097c.17.073.29.17.387.266a.693.693 0 01.193.34.944.944 0 01.049.363c0 .34-.146.63-.411.848a2.881 2.881 0 01-1.015.533 6.983 6.983 0 01-1.233.267c-.435.048-.822.072-1.136.072a5.47 5.47 0 01-1.74-.266c-.507-.17-.942-.412-1.28-.727a3.525 3.525 0 01-.798-1.09c-.193-.412-.266-.873-.266-1.357v-3.32c0-.508.097-.969.266-1.405.17-.436.435-.8.797-1.114.363-.315.798-.558 1.33-.752a5.944 5.944 0 011.812-.266c1.305 0 2.272.315 2.924.92.629.63.967 1.43.967 2.448 0 .945-.314 1.696-.918 2.229-.629.533-1.62.8-2.949.8zm1.112-3.15c0-.387-.097-.678-.314-.847-.194-.17-.508-.267-.87-.267-.483 0-.846.121-1.088.34a1.258 1.258 0 00-.386.944v.848c.314.024.604.049.87.049.266.024.459.024.555.024.387 0 .677-.073.895-.242.241-.121.338-.412.338-.848zm9.232-.702c-.217-.024-.386-.024-.556-.024h-.459l-.435.072a1.99 1.99 0 00-.459.146.54.54 0 01.024.194v6.154c0 .34-.12.63-.386.872a1.37 1.37 0 01-.967.364c-.387 0-.7-.122-.967-.364a1.128 1.128 0 01-.386-.872v-5.985a2.87 2.87 0 00-.049-.533 1.1 1.1 0 00-.169-.387 2.018 2.018 0 01-.193-.291.81.81 0 01-.073-.364c0-.363.145-.654.411-.872.266-.218.58-.315.943-.315.217 0 .41.049.58.17a2.7 2.7 0 01.483.436c.46-.267.894-.46 1.33-.63.434-.145.797-.218 1.11-.218.629 0 1.04.121 1.281.34.242.241.339.508.339.847 0 .388-.145.703-.411.92-.29.243-.604.364-.99.34zm6.234 1.696c.17.533.29 1.09.387 1.623.096.533.169 1.09.29 1.648.096-.557.193-1.09.29-1.648.096-.533.217-1.09.362-1.623l1.04-3.295c.096-.267.265-.46.507-.63a1.49 1.49 0 01.773-.218c.363 0 .677.097.943.315.266.218.41.509.41.872v.17a.45.45 0 01-.048.17l-2.706 7.51c-.17.412-.363.727-.58.92-.242.195-.556.292-.967.292-.435 0-.773-.097-1.015-.267-.242-.194-.435-.484-.58-.896L81.44 10.66c-.024-.073-.048-.121-.048-.17v-.17c0-.363.145-.654.41-.872.266-.218.58-.315.943-.315.266 0 .507.073.75.218.24.146.41.364.507.63l1.087 3.344zm9.619-6.808c0 .387-.145.702-.435.969-.29.266-.652.412-1.087.412-.435 0-.798-.146-1.088-.412a1.293 1.293 0 01-.435-.97c0-.387.145-.702.435-.969.29-.266.653-.411 1.088-.411.435 0 .797.145 1.087.411.29.267.435.582.435.97zm-.17 11.654c0 .339-.12.63-.386.872a1.37 1.37 0 01-.966.363c-.387 0-.701-.12-.967-.363a1.128 1.128 0 01-.387-.872V10.37c0-.34.121-.606.387-.848a1.37 1.37 0 01.967-.363c.386 0 .7.12.966.363.266.242.387.533.387.848v7.802zm2.344-5.234a4.2 4.2 0 01.242-1.478c.169-.46.41-.872.749-1.187a3.42 3.42 0 011.28-.8c.508-.193 1.136-.29 1.837-.29a8.3 8.3 0 011.015.073c.387.048.749.12 1.112.266.338.121.652.29.894.533.242.218.362.509.362.872 0 .243-.072.46-.241.679-.169.218-.484.315-.967.315-.097 0-.193 0-.29-.024-.097-.025-.217-.049-.362-.097-.218-.073-.411-.146-.605-.218-.193-.073-.435-.097-.749-.097-.556 0-.942.145-1.184.412-.242.266-.338.63-.338 1.09v2.665c0 .46.12.824.338 1.09.242.267.628.412 1.184.412.314 0 .556-.024.749-.097.194-.072.387-.145.605-.218.096-.048.193-.072.265-.097.073-.024.194-.024.339-.024.241 0 .459.024.628.097.169.048.29.145.387.242a.748.748 0 01.193.315c.024.122.048.243.048.364 0 .363-.12.654-.362.872a2.932 2.932 0 01-.894.533 5.342 5.342 0 01-1.112.267 8.653 8.653 0 01-1.039.072c-.701 0-1.305-.097-1.813-.29a3.5 3.5 0 01-1.256-.8 3.202 3.202 0 01-.75-1.187 4.34 4.34 0 01-.241-1.478v-2.787h-.024zm13.123 2.544c-.265 0-.507 0-.749-.024-.241-.024-.483-.048-.773-.097v.654a1 1 0 00.387.824c.265.194.652.291 1.184.291a3.6 3.6 0 00.894-.097c.266-.073.58-.17.894-.315a.819.819 0 01.193-.073 1.53 1.53 0 01.387-.048c.242 0 .435.048.604.097.169.073.29.17.387.266a.686.686 0 01.193.34.932.932 0 01.049.363c0 .34-.145.63-.411.848a2.88 2.88 0 01-1.015.533 6.99 6.99 0 01-1.233.267 10.65 10.65 0 01-1.136.072 5.474 5.474 0 01-1.74-.266c-.507-.17-.942-.412-1.28-.727a3.525 3.525 0 01-.798-1.09c-.193-.412-.266-.873-.266-1.357v-3.32c0-.508.097-.969.266-1.405.169-.436.435-.8.798-1.114.362-.315.797-.558 1.329-.752a5.94 5.94 0 011.812-.266c1.305 0 2.272.315 2.924.92.629.63.967 1.43.967 2.448 0 .945-.314 1.696-.918 2.229-.629.533-1.595.8-2.949.8zm1.136-3.15c0-.387-.096-.678-.314-.847-.193-.17-.507-.267-.87-.267-.483 0-.846.121-1.087.34a1.257 1.257 0 00-.387.944v.848c.314.024.604.049.87.049.266.024.459.024.556.024.386 0 .676-.073.894-.242.217-.121.338-.412.338-.848z" fill="#000"/><path d="M132.402 11.837v10.152h1.015V11.837h-1.015z" fill="#EC2227"/><path d="M133.423 20.982H0V22h133.423v-1.018zm-7.158-16.317l-.718.72 7.16 7.178.717-.72-7.159-7.178z" fill="#EC2227"/><path d="M126.258 4.655l-7.16 7.178.717.72 7.16-7.179-.717-.72zm-.004-4.654l-1.076 1.08 10.748 10.776 1.077-1.08L126.254.001z" fill="#EC2227"/><path d="M126.26.002L115.512 10.78l1.076 1.08 10.749-10.777-1.077-1.08zm-6.201 3.099l-3.045 3.029V2.06h3.045V3.1z" fill="#EC2227"/></g><defs><clipPath id="clip0"><path fill="#fff" d="M0 0h137v22H0z"/></clipPath></defs></svg>