<svg width="232" height="21" fill="none" xmlns="http://www.w3.org/2000/svg"><g clip-path="url(#clip0)"><path d="M12.432 15.656a7.658 7.658 0 01-.767 2.231 5.82 5.82 0 01-1.346 1.684 5.837 5.837 0 01-1.843 1.059 6.676 6.676 0 01-2.242.365 6.386 6.386 0 01-4.562-1.883 5.076 5.076 0 01-.947-1.287 5.707 5.707 0 01-.502-1.523 11.913 11.913 0 01-.187-1.976A79.256 79.256 0 010 11.657c0-1.032.01-1.924.026-2.67.015-.75.078-1.407.186-1.975A5.707 5.707 0 01.715 5.49c.227-.449.543-.876.947-1.288A6.387 6.387 0 016.23 2.315c1.657 0 3.029.474 4.111 1.418 1.087.949 1.781 2.252 2.087 3.92h-1.409c-.274-1.288-.833-2.299-1.677-3.034-.844-.73-1.885-1.095-3.112-1.095-.647 0-1.274.12-1.87.365-.6.245-1.128.6-1.589 1.064A4.11 4.11 0 002.004 6a4.89 4.89 0 00-.425 1.319 12.91 12.91 0 00-.181 1.814 70.24 70.24 0 00-.036 2.523c0 .986.01 1.825.036 2.524.026.698.083 1.303.181 1.814.093.51.233.949.425 1.319.186.37.445.72.766 1.048.46.464.99.818 1.59 1.063a4.97 4.97 0 001.869.365c1.232 0 2.278-.365 3.138-1.095.864-.73 1.429-1.74 1.703-3.034h1.362v-.005zm18.117-3.999c0 1.033-.01 1.924-.026 2.67-.016.75-.083 1.407-.192 1.975a5.716 5.716 0 01-.512 1.523 5.188 5.188 0 01-.964 1.288 6.231 6.231 0 01-2.076 1.392 6.385 6.385 0 01-2.485.49 6.385 6.385 0 01-4.562-1.883 5.42 5.42 0 01-.963-1.287 5.538 5.538 0 01-.512-1.523 11.871 11.871 0 01-.192-1.976c-.016-.75-.026-1.636-.026-2.669 0-1.032.01-1.924.026-2.67.015-.75.083-1.407.191-1.975.11-.568.28-1.074.513-1.522.233-.449.549-.876.963-1.288a6.386 6.386 0 014.562-1.887 6.386 6.386 0 014.561 1.882c.41.412.73.844.963 1.287.233.449.4.954.513 1.523.109.568.176 1.225.192 1.976.015.75.026 1.642.026 2.674zm-1.357 0c0-.985-.016-1.825-.041-2.523a12.888 12.888 0 00-.182-1.814A4.863 4.863 0 0028.545 6a4.26 4.26 0 00-.772-1.047 4.785 4.785 0 00-1.6-1.064 5.027 5.027 0 00-3.759 0c-.6.245-1.134.6-1.595 1.064A4.133 4.133 0 0020.049 6a4.75 4.75 0 00-.424 1.319 12.75 12.75 0 00-.182 1.814 70.23 70.23 0 00-.036 2.523c0 .986.01 1.825.036 2.524.026.698.088 1.303.181 1.814.094.51.239.949.425 1.319.192.37.445.72.772 1.048.465.464.994.818 1.594 1.063a5.028 5.028 0 003.76 0c.6-.24 1.133-.594 1.6-1.063.325-.329.584-.678.77-1.048.192-.37.332-.814.425-1.32.093-.51.156-1.11.181-1.813a68.88 68.88 0 00.042-2.524zm7.82-9.186h1.356v17.163h9.688v1.215H37.012V2.47zm27.316 9.186c0 1.032-.01 1.924-.026 2.67-.016.75-.083 1.407-.192 1.975a5.713 5.713 0 01-.512 1.523 5.185 5.185 0 01-.963 1.287 6.23 6.23 0 01-2.077 1.392 6.385 6.385 0 01-2.485.49 6.385 6.385 0 01-4.562-1.882 5.417 5.417 0 01-.963-1.287 5.538 5.538 0 01-.512-1.523 11.883 11.883 0 01-.192-1.976 132.98 132.98 0 010-5.339c.016-.75.083-1.407.192-1.975.109-.568.28-1.074.512-1.522.233-.449.55-.876.963-1.288a6.258 6.258 0 012.077-1.392 6.386 6.386 0 012.485-.49 6.386 6.386 0 014.562 1.882c.409.412.73.844.963 1.288.233.448.398.954.512 1.522.11.568.176 1.225.192 1.976.015.745.026 1.637.026 2.67zm-1.357 0c0-.985-.015-1.825-.041-2.523a12.887 12.887 0 00-.181-1.815A4.863 4.863 0 0062.324 6a4.262 4.262 0 00-.771-1.047 4.786 4.786 0 00-1.6-1.064 5.027 5.027 0 00-3.76 0 4.61 4.61 0 00-1.594 1.064A4.133 4.133 0 0053.827 6a4.75 4.75 0 00-.424 1.32c-.093.51-.156 1.115-.181 1.814a70.231 70.231 0 00-.037 2.523c0 .986.01 1.825.036 2.524.026.698.089 1.303.182 1.814.093.51.238.949.424 1.319.192.37.446.72.772 1.048.466.464.994.818 1.595 1.063a5.026 5.026 0 003.759 0c.6-.24 1.134-.594 1.6-1.063.326-.329.585-.678.771-1.048a4.75 4.75 0 00.425-1.32c.093-.51.155-1.11.18-1.813.027-.7.042-1.538.042-2.524zm14.224.725h-5.053v8.467h-1.357V2.47h6.944c.735 0 1.423.11 2.06.323a4.733 4.733 0 011.668.944c.47.412.838.928 1.102 1.548.264.62.4 1.324.4 2.117 0 1.392-.379 2.513-1.14 3.352-.761.845-1.781 1.377-3.065 1.6l4.432 8.488H81.57l-4.375-8.461zm4.407-4.958c0-1.283-.379-2.226-1.134-2.831-.756-.605-1.725-.907-2.91-.907h-5.411v7.481h5.41c1.186 0 2.155-.302 2.91-.907.757-.605 1.135-1.554 1.135-2.836zm70.743 8.494c0 1.564-.543 2.805-1.626 3.717-1.087.913-2.583 1.366-4.499 1.366-1.351 0-2.491-.187-3.423-.568-.932-.38-1.817-.99-2.651-1.83l.974-.98c.409.412.808.756 1.191 1.032s.782.5 1.191.673c.409.172.838.292 1.294.36.451.067.953.104 1.502.104 1.449 0 2.599-.334 3.433-.996.838-.662 1.258-1.6 1.258-2.81 0-1.158-.337-2.018-1.005-2.591a5.495 5.495 0 00-.486-.35 3.369 3.369 0 00-.529-.26 5.09 5.09 0 00-.683-.209 10.068 10.068 0 00-.953-.167l-2.133-.333c-1.388-.209-2.475-.652-3.262-1.34-.958-.808-1.434-1.934-1.434-3.378 0-1.549.502-2.774 1.512-3.676 1.009-.902 2.392-1.356 4.152-1.356 1.129 0 2.087.162 2.884.48.792.318 1.585.824 2.372 1.512l-.896.902a8.761 8.761 0 00-.844-.699 5.38 5.38 0 00-.963-.542 5.144 5.144 0 00-1.181-.35 8.216 8.216 0 00-1.449-.114c-1.331 0-2.372.334-3.112 1.006-.746.673-1.114 1.6-1.114 2.79 0 1.068.316 1.866.948 2.398.326.276.73.51 1.217.709a7.26 7.26 0 001.501.427l1.973.308c.854.12 1.517.271 1.988.454.472.182.891.432 1.269.76a4.25 4.25 0 011.165 1.539c.279.6.419 1.272.419 2.012zm10.609 4.926h-1.357V3.686h-5.431V2.471h12.251v1.215h-5.458v17.158h-.005zm22.86-5.959c0 .896-.155 1.715-.461 2.466a5.65 5.65 0 01-1.294 1.934 5.899 5.899 0 01-1.973 1.267c-.761.302-1.6.453-2.527.453-.921 0-1.765-.15-2.526-.453a5.899 5.899 0 01-1.973-1.267 5.7 5.7 0 01-1.294-1.934 6.461 6.461 0 01-.461-2.466V2.47h1.356v12.252c0 .756.114 1.45.347 2.08.233.631.565 1.163.994 1.6.43.439.943.783 1.548 1.023.601.24 1.269.36 2.009.36.741 0 1.409-.12 2.009-.36a4.47 4.47 0 001.549-1.022c.429-.438.761-.975.994-1.6a5.971 5.971 0 00.347-2.081V2.471h1.356v12.414zm19.354-3.483c0 .62-.005 1.288-.01 2.002-.01.714-.067 1.418-.181 2.117a10.175 10.175 0 01-.523 2.002 4.638 4.638 0 01-1.051 1.652c-1.108 1.121-2.626 1.68-4.552 1.68h-6.115V2.47h6.115c1.926 0 3.444.558 4.552 1.68.46.463.807.99 1.051 1.574.238.583.414 1.193.523 1.819.108.63.171 1.272.181 1.934.005.662.01 1.304.01 1.924zm-1.362 0c0-.516-.005-1.063-.01-1.642a14.431 14.431 0 00-.129-1.71 7.795 7.795 0 00-.399-1.606 3.796 3.796 0 00-.823-1.335c-.534-.552-1.134-.928-1.813-1.126a7.5 7.5 0 00-2.117-.297h-4.422v15.948h4.422a7.48 7.48 0 002.117-.297c.679-.198 1.279-.573 1.813-1.126.357-.38.631-.85.823-1.413a9.33 9.33 0 00.399-1.788c.077-.631.119-1.262.129-1.887.005-.631.01-1.205.01-1.721zm7.844-8.931h1.357v18.373h-1.357V2.47zM232 11.657c0 1.033-.011 1.924-.026 2.67a11.89 11.89 0 01-.192 1.976 5.716 5.716 0 01-.512 1.522 5.19 5.19 0 01-.963 1.288 6.238 6.238 0 01-2.077 1.392 6.384 6.384 0 01-2.485.49 6.399 6.399 0 01-4.562-1.882 5.42 5.42 0 01-.963-1.288 5.511 5.511 0 01-.512-1.522 11.38 11.38 0 01-.192-1.976 133.045 133.045 0 010-5.339c.016-.75.083-1.408.192-1.976a5.51 5.51 0 01.512-1.522c.233-.449.549-.876.963-1.288a6.267 6.267 0 012.077-1.392 6.384 6.384 0 012.485-.49 6.4 6.4 0 014.562 1.882c.409.412.73.845.963 1.288.233.448.398.954.512 1.522.109.568.176 1.225.192 1.976.015.746.026 1.637.026 2.67zm-1.357 0c0-.985-.015-1.824-.036-2.523a12.936 12.936 0 00-.181-1.814 4.905 4.905 0 00-.425-1.32 4.275 4.275 0 00-.771-1.047 4.794 4.794 0 00-1.6-1.064 5.03 5.03 0 00-3.759 0 4.613 4.613 0 00-1.595 1.064A4.155 4.155 0 00221.504 6a4.76 4.76 0 00-.424 1.319c-.093.51-.156 1.115-.181 1.814a69.788 69.788 0 00-.037 2.523c0 .986.011 1.825.037 2.524.025.698.088 1.303.181 1.814.093.511.238.949.424 1.32.192.37.446.718.772 1.047.466.464.994.819 1.595 1.064a5.022 5.022 0 003.759 0c.6-.24 1.134-.595 1.6-1.064.326-.328.585-.678.771-1.048.192-.37.331-.813.425-1.319.093-.51.155-1.11.181-1.814.021-.699.036-1.538.036-2.524z" fill="#000"/><path d="M123.33 20.327c-.13 0-.311 0-.456-.146-.15-.146-.15-.328-.15-.459v-4.43c0-.204.005-.293.072-.423a.483.483 0 01.441-.24c.191 0 .357.089.44.24.067.135.072.219.072.427v4.098h1.802c.186 0 .28.01.383.068.14.078.218.23.218.401a.456.456 0 01-.218.402c-.103.057-.197.067-.383.067h-2.221v-.005zm-28.664.032c-.192 0-.358-.089-.435-.24-.073-.13-.073-.22-.073-.428v-4.103h-.927c-.18 0-.274-.005-.383-.067a.446.446 0 01-.217-.402c0-.172.083-.323.217-.401.104-.058.202-.068.383-.068h2.874c.186 0 .28.01.383.068.14.078.218.229.218.401a.456.456 0 01-.218.402c-.103.057-.202.067-.383.067h-.927v4.103c0 .204-.005.292-.072.423a.481.481 0 01-.44.245zm3.365 0a.487.487 0 01-.44-.24c-.072-.13-.072-.22-.072-.428v-4.405c0-.204.005-.292.072-.422a.487.487 0 01.44-.24c.192 0 .357.088.435.24.073.135.073.218.073.427v4.405c0 .204-.005.292-.073.423-.078.151-.243.24-.435.24zm5.463 0c-.28 0-.399-.214-.497-.391l-1.29-2.29-.812.986v1.027c0 .204-.006.292-.073.423a.487.487 0 01-.44.24.487.487 0 01-.44-.24c-.073-.13-.073-.22-.073-.428v-4.405c0-.204.005-.292.073-.423a.488.488 0 01.44-.24.49.49 0 01.44.24c.073.136.073.22.073.428v1.924l1.884-2.3c.135-.161.254-.286.456-.286a.49.49 0 01.321.12.49.49 0 01.186.375c0 .146-.062.25-.207.422l-1.113 1.356 1.455 2.575c.098.167.14.256.145.386a.478.478 0 01-.249.433.569.569 0 01-.279.068zm5.058 0c-.279 0-.398-.214-.497-.391l-1.289-2.29-.813.986v1.027c0 .204 0 .292-.072.423a.488.488 0 01-.44.24.486.486 0 01-.44-.24c-.073-.13-.073-.22-.073-.428v-4.405c0-.204.005-.292.073-.423a.486.486 0 01.44-.24.49.49 0 01.44.24c.072.136.072.22.072.428v1.924l1.885-2.3c.135-.161.254-.286.456-.286a.5.5 0 01.321.12.485.485 0 01.181.375c0 .146-.062.25-.207.422l-1.114 1.356 1.455 2.575c.094.167.14.256.14.386a.48.48 0 01-.248.433.525.525 0 01-.27.068zm8.839-3.243c.507 0 .823-.287.823-.756 0-.475-.316-.772-.823-.772h-1.124v1.523h1.124v.005zm1.351 3.243c-.279 0-.398-.214-.497-.391l-1.108-1.95h-.875v1.673c0 .204-.005.292-.072.423a.488.488 0 01-.44.24.488.488 0 01-.441-.24c-.072-.136-.072-.22-.072-.428v-4.431c0-.13 0-.313.15-.46.145-.15.326-.15.456-.15h1.605c1.066 0 1.786.683 1.786 1.7 0 .719-.383 1.277-1.03 1.511l.911 1.606c.098.167.14.255.145.386a.48.48 0 01-.248.432.45.45 0 01-.27.079zm2.144 0a.487.487 0 01-.44-.24c-.068-.13-.073-.22-.073-.428v-4.405c0-.204.005-.292.073-.422a.487.487 0 01.44-.24c.191 0 .357.088.44.24.072.135.072.218.072.427v4.405c0 .204-.005.292-.072.423a.494.494 0 01-.44.24zm8.828-2.039l-.73-2.007-.73 2.007h1.46zm1.077 2.039a.45.45 0 01-.29-.105c-.098-.078-.14-.172-.207-.36l-.249-.667h-2.117l-.249.668c-.067.187-.109.276-.207.36a.45.45 0 01-.29.104.519.519 0 01-.373-.157c-.207-.219-.119-.459-.046-.652l1.667-4.462a.737.737 0 01.191-.323.488.488 0 01.368-.141c.15 0 .269.047.368.14.083.079.129.162.186.324l1.667 4.463c.073.192.161.437-.051.656a.515.515 0 01-.368.152zm-18.842.015c-1.186 0-2.045-.84-2.045-1.991v-3.097c0-.204.005-.292.072-.422a.488.488 0 01.44-.24c.192 0 .358.088.441.24.072.135.072.218.072.427v3.06c0 .673.394 1.095 1.025 1.095.632 0 1.025-.417 1.025-1.095v-3.06c0-.203.006-.292.073-.422a.487.487 0 01.44-.24c.192 0 .357.089.44.24.073.135.073.219.073.427v3.097c-.011 1.142-.87 1.981-2.056 1.981zm5.794-11.6l-.279 1.45a.68.68 0 01-.632.526h-9.745a.674.674 0 01-.631-.526l-.321-1.674 11.608.224zm-11.608-.224L104.592.626c.745-.329 1.6.192 1.703 1.032.031.26-.005.516-.093.745a1.52 1.52 0 011.631 1.34c.098.84-.492 1.6-1.325 1.705a1.127 1.127 0 01-.658-.104c0 .083.01.161.021.245.196 1.59 1.237 2.273 2.827 2.273 1.398 0 2.873-.886 2.873-2.487 0-.11 0-.219-.015-.323a1.531 1.531 0 01-.875.276 1.53 1.53 0 01-1.522-1.533c0-.823.647-1.496 1.455-1.527a1.564 1.564 0 01-.182-.725c0-.845.679-1.533 1.523-1.533a1.53 1.53 0 011.341 2.258 1.53 1.53 0 01-.063 3.06 1.5 1.5 0 01-.869-.276c-.011.11-.016.219-.016.328 0 1.606 1.414 2.487 2.884 2.487 1.595 0 2.625-.693 2.817-2.283.01-.079.021-.157.021-.235-.233.094-.389.13-.653.094a1.531 1.531 0 01-1.325-1.705 1.524 1.524 0 011.631-1.34 1.544 1.544 0 01-.094-.74c.104-.84.87-1.298 1.694-1.032l-1.58 8.148" fill="#ED1C24"/></g><defs><clipPath id="clip0"><path fill="#fff" d="M0 0h232v21H0z"/></clipPath></defs></svg>