<svg width="31" height="45" fill="none" xmlns="http://www.w3.org/2000/svg"><path d="M15.5 0c4.11 0 8.053 1.66 10.96 4.613A15.88 15.88 0 0131 15.75C31 27.563 15.5 45 15.5 45S0 27.562 0 15.75A15.88 15.88 0 014.54 4.613 15.376 15.376 0 0115.5 0z" fill="#17315B"/><g clip-path="url(#clip0)"><path d="M25 26.098H7v-18h18v18zm-17.714-.291h17.428V8.388H7.286v17.419z" fill="url(#paint0_linear)"/><path d="M24.716 16.942H7.283v4.187h17.433v-4.187z" fill="url(#paint1_linear)"/><path d="M24.716 13.708H7.283v1.744h17.433v-1.744z" fill="url(#paint2_linear)"/><path d="M24.716 8.098H7.283v4.266h17.433V8.098z" fill="url(#paint3_linear)"/><path d="M8.395 22.203h.55v1.126l.87-1.126h.624l-.876 1.11.993 1.512h-.651l-.687-1.063-.272.355v.71h-.551v-2.624zm3.556-.055c.95 0 1.377.748 1.377 1.366 0 .744-.554 1.366-1.377 1.366-.873 0-1.389-.642-1.389-1.366 0-.736.545-1.366 1.39-1.366zm-.003 2.22c.477 0 .808-.373.808-.854 0-.417-.28-.855-.808-.855-.47 0-.81.355-.81.855-.002.418.275.854.81.854zm1.847.458v-2.623h.551v2.11h.99v.512h-1.541v.001zm3.072-2.678c.95 0 1.377.748 1.377 1.366 0 .744-.554 1.366-1.377 1.366-.873 0-1.389-.642-1.389-1.366 0-.736.543-1.366 1.39-1.366zm-.004 2.22c.477 0 .807-.373.807-.854 0-.417-.279-.855-.807-.855-.47 0-.81.355-.81.855 0 .418.274.854.81.854zm2.397.458h-.55v-2.623h.781c.57.004.97.304.97.843 0 .417-.207.622-.52.724l.787 1.055h-.674l-.717-.961h-.073v.962h-.003zm0-1.474h.221c.268 0 .4-.094.4-.322 0-.157-.105-.316-.334-.316h-.286v.639zm1.787-1.149h.551v2.622h-.551v-2.622zm1.445.513h-.562v-.512h1.676v.512h-.563v2.11h-.55v-2.11z" opacity=".7" fill="#fff"/></g><defs><linearGradient id="paint0_linear" x1="7" y1="17.098" x2="25" y2="17.098" gradientUnits="userSpaceOnUse"><stop stop-color="#966B34"/><stop offset=".5" stop-color="#D1B173"/><stop offset="1" stop-color="#966B34"/></linearGradient><linearGradient id="paint1_linear" x1="7.283" y1="19.035" x2="24.716" y2="19.035" gradientUnits="userSpaceOnUse"><stop stop-color="#966B34"/><stop offset=".5" stop-color="#D1B173"/><stop offset="1" stop-color="#966B34"/></linearGradient><linearGradient id="paint2_linear" x1="7.283" y1="14.58" x2="24.716" y2="14.58" gradientUnits="userSpaceOnUse"><stop stop-color="#966B34"/><stop offset=".5" stop-color="#D1B173"/><stop offset="1" stop-color="#966B34"/></linearGradient><linearGradient id="paint3_linear" x1="7.283" y1="10.231" x2="24.716" y2="10.231" gradientUnits="userSpaceOnUse"><stop stop-color="#966B34"/><stop offset=".5" stop-color="#D1B173"/><stop offset="1" stop-color="#966B34"/></linearGradient><clipPath id="clip0"><path fill="#fff" transform="translate(7 8.098)" d="M0 0h18v18H0z"/></clipPath></defs></svg>