<svg width="16" height="23" viewBox="0 0 16 23" fill="none" xmlns="http://www.w3.org/2000/svg">
<path d="M7.84408 0.00660213C7.72427 0.0304484 7.61587 0.0936807 7.53614 0.186238C3.66602 4.45423 0 9.52205 0 14.3091C0 19.0766 3.53269 23 7.93819 23C12.3437 23 15.8764 19.0766 15.8764 14.3091C15.8764 9.52205 12.2103 4.45423 8.34025 0.186238C8.27938 0.116921 8.20198 0.0641034 8.11523 0.0326988C8.02849 0.00129415 7.93522 -0.00767961 7.84408 0.00660213ZM7.93819 1.40092C11.5752 5.49787 14.7815 10.2529 14.7815 14.3091C14.7815 18.5393 11.6916 21.9051 7.93819 21.9051C4.18477 21.9051 1.09492 18.5393 1.09492 14.3091C1.09492 10.2529 4.3011 5.49787 7.93819 1.40092ZM2.95971 13.3938C2.83374 13.4093 2.71709 13.4682 2.62971 13.5602C2.54233 13.6523 2.48965 13.7719 2.48068 13.8985C2.29184 15.9357 3.30993 18.2212 4.86726 19.3217C4.92604 19.3666 4.99331 19.3992 5.065 19.4173C5.13669 19.4355 5.21132 19.439 5.28439 19.4275C5.35745 19.4161 5.42744 19.3899 5.49013 19.3507C5.55282 19.3114 5.6069 19.2599 5.64912 19.1991C5.69134 19.1384 5.72082 19.0698 5.73578 18.9974C5.75073 18.9249 5.75086 18.8502 5.73615 18.7777C5.72144 18.7052 5.6922 18.6365 5.65019 18.5756C5.60818 18.5148 5.55427 18.463 5.49172 18.4236C4.37728 17.6361 3.43078 15.5635 3.57561 14.0011C3.58546 13.9182 3.57623 13.8342 3.54863 13.7554C3.52103 13.6767 3.47579 13.6053 3.41636 13.5466C3.35693 13.488 3.28489 13.4438 3.20575 13.4173C3.1266 13.3908 3.04245 13.3828 2.95971 13.3938Z" fill="#C11426"/>
</svg>
