<svg width="27" height="27" viewBox="0 0 27 27" fill="none" xmlns="http://www.w3.org/2000/svg">
<path fill-rule="evenodd" clip-rule="evenodd" d="M2.41377 5.31891C1.67617 8.03868 2.46745 11.1405 4.77113 12.9925C7.96439 15.5592 10.9291 18.5208 13.582 21.7964C15.4488 24.1012 18.5337 24.8951 21.2465 24.1607C18.6065 26.3533 14.3807 26.0812 12.1684 23.3482C9.47201 20.0199 6.45996 17.0089 3.21514 14.404C0.469331 12.1927 0.20947 7.95419 2.41377 5.31891ZM24.4749 22.3029C27.4471 19.3217 27.2441 14.0973 23.9509 11.4339C20.6726 8.78213 17.7079 5.82056 15.1417 2.62995C12.4671 -0.692445 7.23635 -0.869405 4.25353 2.11289L2.10768 4.25874C-0.875145 7.23731 -0.681712 12.4797 2.62368 15.1373C5.81695 17.703 8.7817 20.6645 11.4345 23.9407C14.1203 27.2557 19.3276 27.4475 22.3205 24.4567C23.0347 23.742 23.7739 23.0277 24.4749 22.3029ZM23.3568 12.1672C26.2222 14.481 26.3885 19.0597 23.7995 21.645C21.2115 24.233 16.6429 24.0805 14.3148 21.2034C11.6195 17.8767 8.60846 14.8663 5.361 12.2565C2.49083 9.95124 2.33991 5.35823 4.91992 2.77928C7.50684 0.193953 12.0919 0.344343 14.4041 3.22035C17.0154 6.46198 20.0259 9.47297 23.3568 12.1672Z" fill="#C11426"/>
</svg>
