<svg width="26" height="26" viewBox="0 0 26 26" fill="none" xmlns="http://www.w3.org/2000/svg">
<path d="M1.56 0C0.69992 0 0 0.69992 0 1.56V17.16V24.44C0 25.3001 0.69992 26 1.56 26H24.44C25.3001 26 26 25.3001 26 24.44V17.16C26 16.2999 25.3001 15.6 24.44 15.6H17.7531L23.9911 9.36406C24.5974 8.75566 24.5974 7.76652 23.9911 7.15812L18.8419 2.01094C18.2522 1.4223 17.2246 1.4223 16.6359 2.01094L10.4 8.24688V1.56C10.4 0.69992 9.70008 0 8.84 0H1.56ZM1.56 1.04H8.84C9.12704 1.04 9.36 1.274 9.36 1.56V8.32H1.04V1.56C1.04 1.274 1.27296 1.04 1.56 1.04ZM17.7389 2.59594C17.8722 2.59607 18.0052 2.64537 18.1066 2.74625L23.2537 7.89344C23.4565 8.09624 23.4565 8.42595 23.2537 8.62875L18.4742 13.4103L12.5917 7.52578L17.3712 2.74625C17.4732 2.64485 17.6057 2.59581 17.7389 2.59594ZM11.8564 8.26109L17.7389 14.1456L16.2825 15.6H8.89891L6.70719 13.4103L11.8564 8.26109ZM1.04 9.36H9.28688L3.04688 15.6H1.56C1.3936 15.6 1.23752 15.6334 1.08672 15.6813C1.07216 15.6865 1.05456 15.6842 1.04 15.6894V9.36ZM5.97187 14.1456L7.42828 15.6H4.5175L5.97187 14.1456ZM1.56 16.64H3.26219H8.32V24.96H1.56C1.27296 24.96 1.04 24.726 1.04 24.44V17.16C1.04 16.874 1.27296 16.64 1.56 16.64ZM9.36 16.64H16.4978H16.64V24.96H9.36V16.64ZM17.68 16.64H24.44C24.727 16.64 24.96 16.874 24.96 17.16V24.44C24.96 24.726 24.727 24.96 24.44 24.96H17.68V16.64Z" fill="#C11426"/>
</svg>
