<svg width="15" height="33" viewBox="0 0 15 33" fill="none" xmlns="http://www.w3.org/2000/svg">
<path d="M11.7288 5.55615C11.5587 5.55615 11.4453 5.44276 11.4453 5.27267V0.623627C11.4453 0.45354 11.5587 0.340149 11.7288 0.340149C11.8989 0.340149 12.0123 0.45354 12.0123 0.623627V5.27267C12.0123 5.38606 11.8989 5.55615 11.7288 5.55615Z" fill="#C11426"/>
<path d="M9.40457 4.42225C9.23449 4.42225 9.12109 4.30886 9.12109 4.13877V0.737031C9.12109 0.566944 9.23449 0.453552 9.40457 0.453552C9.57466 0.453552 9.68805 0.566944 9.68805 0.737031V4.13877C9.68805 4.25216 9.57466 4.42225 9.40457 4.42225Z" fill="#C11426"/>
<path d="M3.67606 5.55615C3.50597 5.55615 3.39258 5.44276 3.39258 5.27267V0.623627C3.39258 0.45354 3.50597 0.340149 3.67606 0.340149C3.84614 0.340149 3.95953 0.45354 3.95953 0.623627V5.27267C3.95953 5.38606 3.78945 5.55615 3.67606 5.55615Z" fill="#C11426"/>
<path d="M6.00223 4.42225C5.83214 4.42225 5.71875 4.30886 5.71875 4.13877V0.737031C5.71875 0.566944 5.83214 0.453552 6.00223 0.453552C6.17232 0.453552 6.28571 0.566944 6.28571 0.737031V4.13877C6.28571 4.25216 6.17232 4.42225 6.00223 4.42225Z" fill="#C11426"/>
<path d="M7.75905 32.6C6.85192 32.6 6.05818 32.2031 5.49123 31.4661C4.30062 29.992 3.96044 27.1572 4.64079 23.9823C5.03766 22.1113 5.49123 20.3537 5.8881 18.8797H3.45018C1.9194 18.8797 0.615399 17.6323 0.502007 16.1016L0.5 15.5L14.9027 15.4444V16.1016C14.7893 17.689 13.4853 18.8797 11.9545 18.8797H9.63001C10.0269 20.3537 10.4804 22.1113 10.8773 23.9823C11.5577 27.1572 11.2175 29.992 10.0269 31.4661C9.40323 32.2031 8.66618 32.6 7.75905 32.6ZM1.74931 16.6118C2.03279 17.2922 2.71314 17.7457 3.45018 17.7457H7.41888L7.1921 18.4828C6.73853 20.0136 6.17158 22.0546 5.71801 24.209C5.09436 27.0438 5.37783 29.5384 6.34166 30.7857C6.73853 31.2393 7.1921 31.4661 7.70236 31.4661C8.26932 31.4661 8.72288 31.2393 9.06306 30.7857C10.0269 29.5384 10.3104 27.0438 9.68671 24.209C9.23314 22.0546 8.72288 20.0136 8.21262 18.4828L7.98584 17.7457H11.8411C12.5782 17.7457 13.2585 17.2922 13.542 16.6118H1.74931Z" fill="#C11426"/>
<path d="M14.3357 16.4417H1.06891C0.728736 16.4417 0.501953 16.215 0.501953 15.8748V0.566957C0.501953 0.226783 0.728736 0 1.06891 0H14.3357C14.6759 0 14.9027 0.226783 14.9027 0.566957V15.8748C14.9027 16.215 14.6759 16.4417 14.3357 16.4417ZM1.63587 15.5H13.7687V1.13391H1.63587V15.5Z" fill="#C11426"/>
</svg>
