<svg width="64" height="64" fill="none" xmlns="http://www.w3.org/2000/svg"><path d="M7.265 47.054a.729.729 0 01-.246 1.013c-.344.207-.826.108-1.043-.236a.729.729 0 01.246-1.013.766.766 0 011.043.236zm8.062 7.139l-2.419 2.792-.403-.334 2.104-2.429-1.75-1.435-2.104 2.428-.403-.334 2.419-2.792 2.556 2.104zm1.12.757l2.557 1.504-.255.413-2.095-1.239-.57.915 1.966 1.16-.255.413-1.967-1.16-.61.983 2.125 1.258-.256.413-2.586-1.524 1.947-3.136zm2.665 5.614l-.491-.197 1.455-3.372 1.603.649c.855.344 1.14.836.845 1.514-.295.688-.855.816-1.71.472l-1.102-.452-.6 1.386zm.767-1.79l.915.374c.668.275 1.042.246 1.229-.187.206-.472-.04-.737-.679-1.002l-.944-.384-.52 1.2zm4.16-.285l2.9.708-.118.462-2.38-.59-.265 1.033 2.232.55-.118.463-2.232-.55-.295 1.12 2.419.59-.118.462-2.93-.718.904-3.53zm4.07.915l2.075.187c.737.069 1.11.442 1.052 1.022-.04.384-.266.63-.669.748.462.127.678.452.64.924-.07.727-.532 1.022-1.417.944l-2.035-.187.354-3.638zm.226 3.215l1.377.128c.6.059.904-.06.944-.462.039-.433-.197-.64-.758-.689l-1.455-.127-.108 1.15zm.157-1.642l1.328.118c.57.05.835-.04.875-.452.04-.374-.177-.541-.669-.59l-1.445-.128-.089 1.052zm4.985 2.34l-.53.01-.089-3.658.53-.01.09 3.658zm2.527-.167l-.52.069-.522-3.619 1.71-.236c.915-.127 1.417.158 1.525.885.108.738-.305 1.131-1.22 1.25l-1.18.166.207 1.485zm-.275-1.917l.983-.138c.718-.098 1.023-.305.964-.767-.07-.511-.413-.61-1.111-.521l-1.013.138.177 1.288zm3.412-2.301l2.861-.826.138.462-2.35.678.314 1.023 2.213-.639.137.462-2.212.64.334 1.11 2.39-.688.137.462-2.9.836-1.062-3.52zm5.093-.148l2.065-.953-.64-1.308.482-.226 1.613 3.303-.482.227-.757-1.564-2.065.964.767 1.563-.482.226-1.612-3.303.482-.227.629 1.298zm4.513-4.247c1.042-.718 2.124-.531 2.812.413.688.953.511 2.006-.54 2.733-1.043.718-2.125.531-2.813-.413-.688-.954-.511-2.015.54-2.733zm1.986 2.743c.777-.54.905-1.288.374-2.016-.531-.737-1.298-.865-2.075-.324-.777.54-.904 1.288-.374 2.016.531.727 1.298.865 2.075.324zm1.652-3.746l-.924-.983.452-.413.934.983.865 1.14-.226.207-1.101-.934zm1.19 1.268l.452-.413.423.453-.453.403-.422-.443zm4.03-7.826a.765.765 0 011.033-.236.736.736 0 01.246 1.013c-.216.344-.678.442-1.032.236a.727.727 0 01-.246-1.013zM.354 36.298l.806-.167.403 1.956 3.117-.619.197.954-3.923.786-.6-2.91zm3.707-3.451l.069.973-3.992.256-.07-.973 3.993-.256zM.393 26.603l3.982.384-.098.973-3.166-.305-.197 1.869 3.166.304-.098.974L0 30.418l.393-3.815zm3.953-6.45c1.2.394 1.7 1.505 1.229 2.862-.472 1.357-1.554 1.956-2.763 1.563-1.2-.393-1.7-1.504-1.229-2.871.472-1.347 1.563-1.947 2.763-1.554zm-1.18 3.412c.757.246 1.377-.069 1.632-.806.256-.737-.049-1.347-.806-1.593s-1.377.06-1.622.797c-.256.747.039 1.356.796 1.602zm1.101-7.413l.492-.807 4.375.453-.57.934-.914-.118-.905 1.485.55.717-.55.905-2.478-3.57zm2.498.363l-1.338-.157.797 1.052.54-.895zm3.45-7.767l2.901 2.674-.688.708-2.31-2.123-1.21 1.248 1.14 1.052c.748.688 1.033 1.357.384 2.026a3.186 3.186 0 01-.462.393l-.62-.57c.05-.03.138-.099.227-.187.314-.324.236-.54-.433-1.15L7.63 11.422l2.586-2.674zm5.172-3.795l.463.659-2.095 1.415.374.531L15.997 6.3l.462.659-1.868 1.258.492.698L17.177 7.5l.472.66-2.93 1.975-2.271-3.205 2.94-1.976zm2.39-1.288l2.182-.915c.866-.363 1.554-.098 1.888.65.335.756.05 1.445-.806 1.808l-1.258.521.491 1.121-.924.384-1.573-3.57zm1.681 1.337l.846-.354c.57-.236.796-.443.629-.836-.177-.413-.452-.403-.993-.167l-.905.384.423.973zm7.286-4.16l.177.778-2.006.432.678 3.029-.983.206-.855-3.805 2.989-.64zM32.742.41l.029.797-2.547.088.02.65 2.271-.08.03.797-2.271.078.03.846 2.546-.088.03.796-3.55.128-.128-3.884 3.54-.128zm3.53 1.77l1.897.325.256-1.426.983.167-.689 3.844-.983-.167.295-1.622-1.897-.325-.295 1.623-.993-.167.688-3.845.993.167-.256 1.426zm6.302 1.544l1.78.708.56-1.347.924.363-1.514 3.609-.924-.364.639-1.524-1.78-.708-.639 1.524-.924-.373 1.514-3.609.924.364-.56 1.357zm7.03 1.868l.796.53-.747 4.229-.914-.61.177-.885-1.456-.963-.776.491-.895-.59 3.815-2.202zm-.55 2.399l.255-1.288-1.13.708.874.58zm9.094 5.713l-.324.226.236.324c.55.738.924 1.858-.04 2.547-.865.61-1.79.177-2.497-.767l-.226-.305-.393.275-.59-.786.393-.276-.236-.314c-.708-.944-.826-1.937.03-2.547.973-.688 1.946.01 2.487.747l.246.325.324-.226.59.777zm-1.524-.138l-.177-.236c-.344-.472-.885-.816-1.367-.482-.452.324-.285.934.07 1.406l.166.226 1.308-.914zm-.718 1.72l.177.236c.345.472.885.816 1.337.502.482-.344.315-.954-.029-1.426l-.177-.236-1.308.925zm5.398 3.923l.364.866-2.999 3.146-.423-1.003.65-.639-.68-1.583-.923-.01-.413-.973 4.424.196zm-1.809 1.721l.934-.944-1.337-.01.403.954zm3.51 3.058l.443 2.271c.167.895-.236 1.505-1.062 1.652-.836.157-1.455-.256-1.632-1.16l-.246-1.308-1.23.226-.186-.963 3.913-.718zm-1.7 1.308l.166.885c.118.6.276.855.708.776.453-.078.502-.344.394-.914l-.187-.944-1.082.197zm2.575 8.16l-.826-.01.03-2.3-.669-.01-.02 1.396c-.01.826-.5 1.298-1.278 1.298-.767-.01-1.238-.482-1.229-1.307l.03-2.38 4.002.04-.04 3.273zm-3.156-2.33l-.01 1.052c-.01.482.079.669.443.679.364.01.423-.226.423-.718l.01-.993-.866-.02zm2.537 6.598l-.207.914-4.296.915.236-1.062.904-.177.374-1.682-.747-.51.226-1.023 3.51 2.625zm-2.488.413l1.318-.256-1.092-.747-.226 1.003z" fill="#9AB4C1"/><path fill-rule="evenodd" clip-rule="evenodd" d="M25.416 55c7.768 1.72 13.589.432 18.613-2.547 5.378-3.186 10.57-9.017 11.523-18.121.826-7.896-2.32-14.493-7.07-19.213-2.369-2.35-5.328-4.463-9.192-5.702-3.874-1.24-8.446-1.524-12.28-.738-6.716 1.367-12.596 5.811-15.968 11.819-4.12 7.344-3.619 16.803-.463 22.27a92.732 92.732 0 003.461-2.232 19.73 19.73 0 01-1.583-12.143c2.016-10.717 12.34-17.777 23.067-15.761 10.717 2.015 17.767 12.34 15.751 23.056-1.612 8.584-8.78 14.68-16.695 15.85l1.23-1.376c0-.01.009-.01.009-.01l.04-.04a21.45 21.45 0 004.817-8.927c1.327-5.123.157-9.833-1.74-13.608-2.016-4.022-5.556-7.207-10.658-9.203.088.973.58 1.858.747 2.91.167 1.042.206 2.281-.256 3.599-.708 2.045-2.055 3.687-2.723 5.87-2.006 6.568-.06 11.484 2.95 15.643 1.779-1.898 3.43-4.267 4.365-7.207 1.514-4.779.433-9.076-.452-12.32 1.514 1.573 2.251 3.697 2.654 5.939.394 2.172.531 4.876-.147 7.413-1.15 4.336-3.363 7.561-5.772 10.157L25.22 54.94l.196.06z" fill="#9AB4C1"/></svg>