<svg width="279" height="130" fill="none" xmlns="http://www.w3.org/2000/svg"><path d="M125.675 123.789a4.94 4.94 0 01-4.931 4.931H47.837V91.298h72.907a4.94 4.94 0 014.931 4.93v27.561zm-85.83-6.869s-1.454 1.333-1.99 1.713c-.64.433-2.232 1.402-4.983 1.817-.71.104-2.128.086-2.837 0-2.388-.277-7.769-1.869-7.769-1.869v-8.045h9.568c.57 0 1.02.467 1.02 1.038v1.436c0 .571-.466 1.021-1.02 1.021h-3.945s1.108 1.09 2.024 1.609c.589.329 1.904.692 2.578.744.468.035 1.436-.035 1.869-.208.57-.242 1.868-1.609 1.868-1.609l1.073-.986a.682.682 0 011.003.07l1.644 2.076c.294.346.242.882-.104 1.193zm-18.582 3.564h-3.495v-10.986h3.495v10.986zm7.301-17.041c.727-1.834 1.834-3.443 2.907-5.087.467-.709.813-.743 1.28-.017.64 1.004 2.681 4.429 2.958 5.19.623 1.748.121 3.495-1.263 4.533-1.384 1.021-3.339 1.004-4.723-.052-1.384-1.072-1.851-2.837-1.159-4.567zM120.744 90H16.211C12.786 90 10 92.785 10 96.228v27.561A6.206 6.206 0 0016.211 130h104.533a6.216 6.216 0 006.211-6.211v-27.56c0-3.444-2.785-6.229-6.211-6.229z" fill="#9AB4C1"/><path d="M58.164 97.353v4.343h-.986v-3.53h-1.54v3.53h-.986v-4.343h3.512zm1.819 2.024c.086.017.19.035.328.035.52 0 .848-.26.848-.71 0-.398-.277-.64-.761-.64a1.9 1.9 0 00-.416.035v1.28zm-.97-1.955a8.165 8.165 0 011.333-.087c.605 0 1.038.122 1.332.347.277.224.467.588.467 1.003 0 .433-.138.778-.398 1.038-.328.311-.83.45-1.418.45-.122 0-.243 0-.33-.017v1.557h-.968v-4.291h-.017zm4.568 2.111c0 .847.398 1.453 1.056 1.453.657 0 1.038-.64 1.038-1.47 0-.78-.38-1.454-1.056-1.454-.64 0-1.038.64-1.038 1.47zm3.15-.052c0 1.419-.866 2.284-2.129 2.284-1.28 0-2.042-.969-2.042-2.215 0-1.297.831-2.284 2.111-2.284 1.332.018 2.06 1.021 2.06 2.215zm2.005-.744c0 .502-.07.986-.19 1.436-.07.26-.19.519-.312.727h1.454v-2.751h-.952v.588zm1.938-1.384v3.564l.432.035-.052 1.851h-.744l-.052-1.107h-2.543l-.052 1.107h-.744l-.034-1.851.363-.035c.173-.311.311-.623.415-.969a5.36 5.36 0 00.173-1.436v-1.159h2.838zm1.609 0l.64 1.522c.121.312.207.571.294.83h.017c.052-.19.139-.484.243-.847l.467-1.523h1.038l-.813 2.111c-.26.675-.537 1.332-.865 1.73-.295.364-.64.571-1.16.571-.225 0-.363-.017-.484-.069l.07-.796c.068.018.172.035.328.035.294 0 .502-.208.588-.415.035-.07.017-.139-.017-.208l-1.47-2.993h1.124v.052zm4.067 0v1.8h.086l1.194-1.8h1.194l-1.523 1.92c.554.139.813.537 1.004 1.056.155.467.294.934.501 1.367h-1.055c-.156-.295-.225-.641-.329-.952-.155-.484-.346-.865-.882-.865h-.19v1.817h-.97v-4.343h.97zm3.872.83h-1.16v-.83h3.34v.83h-1.194v3.513h-.986v-3.513zm5.004-.83v1.678h1.61v-1.678h.986v4.343h-.987v-1.817h-1.609v1.817h-.986v-4.343h.986zm6.039 2.509h-1.591v1.038h1.782v.796h-2.769v-4.343h2.682v.813h-1.695v.9h1.591v.796zm5.845.173a54.78 54.78 0 01-.035-1.782h-.017a21.352 21.352 0 01-.485 1.678l-.536 1.695h-.761l-.468-1.678a20.422 20.422 0 01-.397-1.695h-.018c-.017.588-.052 1.263-.069 1.799l-.07 1.661h-.916l.277-4.343h1.315l.432 1.453c.139.502.277 1.039.363 1.558h.018c.12-.502.277-1.073.415-1.558l.467-1.435h1.28l.243 4.342h-.952l-.087-1.695zm2.769-2.682h-.986v4.343h.986v-4.343zm4.053 4.221c-.173.087-.588.191-1.107.191-1.505 0-2.284-.935-2.284-2.18 0-1.488 1.055-2.301 2.37-2.301.502 0 .9.103 1.073.19l-.208.778a2.145 2.145 0 00-.83-.155c-.779 0-1.384.467-1.384 1.436 0 .865.519 1.419 1.401 1.419.294 0 .623-.07.813-.139l.156.761zm1.604-3.391h-1.159v-.83h3.339v.83h-1.194v3.513h-.986v-3.513zm3.6-.83v1.297c0 .693-.017 1.385-.052 1.973h.035c.225-.502.519-1.09.779-1.54l.934-1.713h1.003v4.343h-.899v-1.28c0-.675.017-1.263.069-1.834h-.018c-.207.519-.484 1.09-.726 1.539l-.883 1.575h-1.124V97.37h.882v-.017zm4.392.83h-1.159v-.83h3.339v.83h-1.194v3.513h-.986v-3.513zm3.669 2.803c.104.017.225.017.364.017.484 0 .865-.224.865-.726s-.381-.71-.848-.71c-.138 0-.26.018-.381.018v1.401zm.018-3.633v1.505c.138-.017.346-.034.519-.034.934 0 1.73.45 1.73 1.418 0 .415-.139.727-.346.952-.415.432-1.142.553-1.834.553-.485 0-.848-.034-1.055-.069v-4.325h.986zM55.4 106.609h.225c.346 0 .554-.087.554-.294 0-.173-.138-.294-.484-.294-.121 0-.19.017-.294.017v.571zm0 1.176c.087.018.156.018.295.018.294 0 .588-.087.588-.346 0-.243-.225-.346-.623-.346h-.242v.674H55.4zm-.847-2.232a8.378 8.378 0 011.107-.069c.467 0 1.35.052 1.35.71 0 .346-.277.536-.554.588v.017c.415.069.675.294.675.675 0 .778-1.056.848-1.627.848-.38 0-.778-.018-.951-.052v-2.717zm4.585 1.419c-.45 0-.796.104-.796.433 0 .225.138.329.329.329.207 0 .38-.139.432-.312.017-.052.017-.086.017-.138v-.312h.018zm.086 1.298l-.052-.277h-.017c-.173.225-.467.329-.779.329-.553 0-.882-.398-.882-.848 0-.709.64-1.055 1.61-1.055v-.018c0-.138-.07-.346-.503-.346-.276 0-.57.087-.76.208l-.157-.554c.19-.103.571-.242 1.056-.242.917 0 1.21.536 1.21 1.177v.951c0 .26.018.519.035.658h-.76v.017zm2.001-2.734l.623 1.09h.086v-1.09h.83v1.09h.087l.623-1.09h.934l-.951 1.177c.311.052.519.363.64.692.104.311.207.605.328.865h-.847c-.087-.139-.139-.346-.243-.623-.103-.294-.276-.467-.501-.467h-.07v1.09h-.83v-1.09h-.07c-.241 0-.397.156-.518.467-.104.294-.156.484-.242.623h-.848c.138-.26.225-.554.329-.865.12-.346.328-.64.64-.71l-.934-1.159h.934zm4.381 0v1.09h.104l.692-1.09h1.003l-1.003 1.177c.329.069.536.363.692.761.087.225.19.554.329.813h-.883c-.069-.121-.138-.311-.242-.605-.12-.312-.294-.485-.57-.485h-.087v1.09h-.848v-2.751h.813zm2.926 0v.831c0 .432-.017.744-.052 1.124h.017c.139-.311.208-.519.312-.778l.553-1.177H70.4v2.734h-.813v-.831c0-.432.018-.605.052-1.193h-.017a7.44 7.44 0 01-.294.744c-.173.38-.38.865-.571 1.28h-1.038v-2.734h.813zm3.198 0l.26.45c.07.139.156.277.225.415h.017c.07-.138.139-.294.208-.415l.242-.45h.934l-.9 1.298.918 1.436h-.97l-.276-.485-.208-.415h-.017l-.207.415-.26.485h-.934l.934-1.402-.917-1.332h.952zm3.474 0h1.09l.294 1.038c.052.156.121.45.173.692h.017c.052-.19.139-.484.225-.744l.312-.986h1.072l.173 2.734h-.796l-.051-1.09c0-.242-.018-.64-.035-.952h-.017c-.104.364-.121.45-.26.9l-.363 1.107h-.606l-.328-1.09c-.07-.259-.156-.657-.225-.917h-.018c-.017.346-.017.727-.034.952l-.052 1.09h-.761l.19-2.734zm5.576 1.056c0-.208-.087-.554-.485-.554-.363 0-.502.329-.519.554h1.004zm-1.004.588c.035.346.38.519.779.519.294 0 .519-.035.76-.104l.105.571c-.277.121-.623.173-.987.173-.934 0-1.47-.536-1.47-1.401 0-.692.432-1.471 1.384-1.471.882 0 1.228.692 1.228 1.367 0 .138-.017.277-.034.329h-1.765v.017zm4.429-1.644v.64h-.796v2.094h-.865v-2.094h-.796v-.64h2.457zm1.802 1.436c-.45 0-.796.104-.796.433 0 .225.139.329.329.329.208 0 .38-.139.45-.312.017-.052.017-.086.017-.138v-.312zm.104 1.298l-.052-.277h-.017c-.173.225-.45.329-.779.329-.553 0-.882-.398-.882-.848 0-.709.64-1.055 1.609-1.055v-.018c0-.138-.07-.346-.502-.346-.277 0-.57.087-.761.208l-.156-.554a2.33 2.33 0 011.073-.242c.917 0 1.21.536 1.21 1.177v.951c0 .26.018.519.035.658h-.778v.017zm3.803-2.734v2.734h-.848v-2.094h-.588v.502c0 .658-.087 1.125-.38 1.384-.174.191-.416.26-.797.26l-.086-.658c.121-.017.242-.069.294-.155.156-.156.173-.416.173-.883v-1.09h2.232zm.676 0h.848v2.734h-.847v-2.734zm.883-.761c0 .242-.173.433-.467.433-.26 0-.45-.191-.433-.433 0-.242.173-.432.45-.432.26 0 .433.19.45.432zm1.487 1.834h.224c.346 0 .554-.087.554-.294 0-.173-.139-.294-.485-.294-.12 0-.19.017-.294.017v.571zm0 1.176c.086.018.155.018.293.018.294 0 .588-.087.588-.346 0-.243-.224-.346-.622-.346h-.243v.674h-.017zm-.849-2.232a8.378 8.378 0 011.108-.069c.467 0 1.35.052 1.35.71 0 .346-.295.536-.555.588v.017c.416.069.675.294.675.675 0 .778-1.055.848-1.626.848-.38 0-.779-.018-.952-.052v-2.717zm2.768 3.392c.173-.502.329-1.09.398-1.592l.865-.052c-.19.571-.433 1.159-.71 1.592l-.553.052zm4.981-1.177c.414-.086.605-.432.605-.865 0-.432-.191-.761-.606-.847v1.712zm-.762-1.73c-.415.104-.606.45-.606.865 0 .45.19.762.606.865v-1.73zm.761-1.747v1.194c.796.069 1.453.536 1.453 1.418 0 .883-.674 1.35-1.453 1.402v1.072h-.761v-1.055c-.761-.069-1.454-.519-1.454-1.401 0-.9.658-1.35 1.454-1.436v-1.194h.761zm3.635 2.301c0-.208-.086-.554-.484-.554-.363 0-.502.329-.519.554h1.003zm-1.003.588c.034.346.381.519.778.519.295 0 .519-.035.762-.104l.103.571c-.276.121-.622.173-.986.173-.934 0-1.47-.536-1.47-1.401 0-.692.432-1.471 1.384-1.471.882 0 1.228.692 1.228 1.367 0 .138-.017.277-.034.329h-1.765v.017zm3.148-1.644v.986h.865v-.986h.865v2.734h-.865v-1.09h-.865v1.09h-.848v-2.734h.848zm3.132 1.367c0 .467.19.831.553.831.329 0 .537-.329.537-.831 0-.415-.156-.83-.537-.83-.415 0-.553.432-.553.83zm1.972-.035c0 1.004-.709 1.471-1.453 1.471-.796 0-1.419-.536-1.419-1.419 0-.882.588-1.453 1.471-1.453.847 0 1.401.588 1.401 1.401zm2.925-1.332v2.734h-.848v-2.094h-.588v.502c0 .658-.087 1.125-.381 1.384-.173.191-.415.26-.796.26l-.086-.658c.121-.017.242-.069.294-.155.156-.156.173-.416.173-.883v-1.09h2.232zm.677 0h.847v2.734h-.847v-2.734zm.882-.761c0 .242-.173.433-.467.433-.26 0-.45-.191-.433-.433 0-.242.173-.432.45-.432s.433.19.45.432zm1.486 1.834h.225c.346 0 .554-.087.554-.294 0-.173-.139-.294-.485-.294-.121 0-.19.017-.294.017v.571zm-.017 1.176c.086.018.155.018.294.018.294 0 .588-.087.588-.346 0-.243-.225-.346-.623-.346h-.242v.674h-.017zm-.831-2.232a8.389 8.389 0 011.108-.069c.467 0 1.366.052 1.366.71 0 .346-.294.536-.553.588v.017c.415.069.674.294.674.675 0 .778-1.055.848-1.626.848-.381 0-.778-.018-.951-.052v-2.717h-.018zm2.772 3.392a9 9 0 00.398-1.592l.865-.052c-.191.571-.433 1.159-.71 1.592l-.553.052zm-62.614 4.757c-.45 0-.796.104-.796.433 0 .225.138.329.329.329.207 0 .38-.139.432-.312.017-.052.017-.086.017-.138v-.312h.018zm.104 1.298l-.052-.277h-.018c-.173.225-.467.329-.778.329-.554 0-.883-.398-.883-.831 0-.709.64-1.055 1.61-1.055v-.035c0-.138-.07-.346-.502-.346-.277 0-.571.087-.761.208l-.156-.554c.19-.103.57-.242 1.055-.242.917 0 1.211.537 1.211 1.177v.951c0 .26.017.519.035.658h-.761V115zm3.787-2.733V115h-.848v-2.093h-.588v.502c0 .657-.087 1.124-.38 1.384-.174.19-.416.259-.797.259l-.086-.657a.491.491 0 00.311-.156c.156-.156.173-.415.173-.882v-1.108h2.215v.018zm1.536 0v1.09h.104l.692-1.09h1.003l-1.003 1.176c.328.069.519.363.692.761.086.225.19.554.328.796h-.882c-.07-.121-.138-.311-.242-.605-.121-.312-.294-.485-.571-.485h-.087V115h-.847v-2.733h.813zm2.113-.001h.848V115h-.848v-2.734zm.883-.778c0 .242-.173.432-.468.432-.259 0-.45-.19-.432-.432 0-.242.173-.433.45-.433s.45.191.45.433zm3.046.779V115h-.848v-2.093h-.588v.502c0 .657-.087 1.124-.38 1.384-.174.19-.416.259-.797.259l-.086-.657c.121-.018.242-.069.294-.156.156-.156.173-.415.173-.882v-1.108h2.232v.018zm2.732 2.214c.415-.087.606-.433.606-.865 0-.433-.19-.761-.606-.848v1.713zm-.761-1.713c-.415.104-.606.45-.606.865 0 .45.19.761.606.865v-1.73zm.761-1.747v1.193c.779.07 1.453.537 1.453 1.419 0 .883-.674 1.35-1.453 1.402v1.072h-.779v-1.055c-.76-.069-1.453-.519-1.453-1.402 0-.899.658-1.366 1.453-1.436v-1.193h.779zm3.636 2.301c0-.208-.087-.554-.485-.554-.363 0-.502.329-.519.554h1.004zm-1.004.571c.035.363.38.519.779.519.294 0 .519-.035.76-.104l.105.571a2.861 2.861 0 01-.986.173c-.935 0-1.471-.536-1.471-1.401 0-.692.432-1.471 1.384-1.471.882 0 1.228.692 1.228 1.367 0 .138-.017.277-.034.329h-1.765v.017zm3.15-1.626v.986h.865v-.986h.865V115h-.865v-1.09h-.865V115h-.848v-2.733h.848zm3.13 1.349c0 .467.19.83.554.83.329 0 .536-.328.536-.83 0-.415-.156-.831-.536-.831-.415.018-.554.433-.554.831zm1.973-.017c0 1.003-.71 1.47-1.436 1.47-.796 0-1.42-.536-1.42-1.419 0-.882.59-1.453 1.472-1.453.83 0 1.384.571 1.384 1.402zm2.904-1.332V115h-.847v-2.093h-.589v.502c0 .657-.086 1.124-.38 1.384-.173.19-.415.259-.796.259l-.087-.657c.122-.018.243-.069.295-.156.155-.156.173-.415.173-.882v-1.108h2.231v.018zm2.349 1.055c0-.208-.087-.554-.485-.554-.363 0-.502.329-.519.554h1.004zm-1.004.571c.035.363.38.519.779.519.294 0 .519-.035.76-.104l.105.571a2.862 2.862 0 01-.986.173c-.935 0-1.471-.536-1.471-1.401 0-.692.432-1.471 1.384-1.471.882 0 1.228.692 1.228 1.367 0 .138-.017.277-.034.329h-1.765v.017zm4.437-1.626v.64h-.796V115h-.865v-2.093h-.796v-.64h2.457zm1.052 1.349c0 .467.19.83.554.83.329 0 .536-.328.536-.83 0-.415-.156-.831-.536-.831-.398.018-.554.433-.554.831zm1.973-.017c0 1.003-.71 1.47-1.436 1.47-.796 0-1.42-.536-1.42-1.419 0-.882.59-1.453 1.471-1.453.83 0 1.385.571 1.385 1.402zm1.384-1.332v1.09h.104l.692-1.09h1.003L95 113.443c.328.069.519.363.692.761.086.225.19.554.328.796h-.882c-.07-.121-.138-.311-.242-.605-.121-.312-.294-.485-.571-.485h-.087V115h-.847v-2.733h.813zm4.156 2.664c-.157.069-.433.121-.762.121-.882 0-1.454-.536-1.454-1.402 0-.795.554-1.453 1.575-1.453.225 0 .467.035.657.104l-.138.64c-.104-.052-.26-.086-.484-.086-.45 0-.744.311-.727.761 0 .502.329.778.744.778.207 0 .363-.034.484-.086l.104.623zm1.26-2.664v.83c0 .433-.018.744-.052 1.107h.017c.121-.311.208-.519.311-.778l.537-1.177h1.038v2.734h-.813v-.83c0-.433.017-.606.051-1.194h-.017a7.538 7.538 0 01-.294.744c-.173.38-.381.847-.57 1.28h-1.039v-2.734h.83v.018zm4.944 0V115h-.848v-2.093h-.588v.502c0 .657-.086 1.124-.38 1.384-.173.19-.416.259-.796.259l-.087-.657a.495.495 0 00.312-.156c.155-.156.173-.415.173-.882v-1.108h2.214v.018zm2.135 1.435c-.45 0-.796.104-.796.433 0 .225.138.329.328.329a.493.493 0 00.45-.312.365.365 0 00.018-.138v-.312zm.103 1.298l-.052-.277h-.017c-.173.225-.45.329-.778.329-.554 0-.883-.398-.883-.831 0-.709.64-1.055 1.609-1.055v-.035c0-.138-.069-.346-.501-.346-.277 0-.571.087-.762.208l-.155-.554a2.33 2.33 0 011.072-.242c.917 0 1.211.537 1.211 1.177v.951c0 .26.018.519.035.658h-.779V115zm3.508-2.733v.64h-.796V115h-.865v-2.093h-.795v-.64h2.456zm.379-.001h.848V115h-.848v-2.734zm.882-.778c0 .242-.173.432-.467.432-.277 0-.45-.19-.45-.432s.173-.433.45-.433.45.191.467.433zm1.491 1.834h.225c.346 0 .554-.087.554-.294 0-.173-.139-.294-.485-.294-.121 0-.19.017-.294.017v.571zm0 1.194c.087.017.156.017.294.017.295 0 .589-.087.589-.363 0-.225-.225-.346-.623-.346h-.242v.692h-.018zm-.847-2.232a8.189 8.189 0 011.107-.069c.467 0 1.349.052 1.349.692 0 .346-.277.536-.553.588v.017c.415.069.674.294.674.675 0 .779-1.055.848-1.626.848-.38 0-.778-.035-.969-.052v-2.699h.018zm2.785 3.373c.173-.501.329-1.09.398-1.591l.865-.052c-.19.571-.433 1.159-.709 1.591l-.554.052zm-58.977 4.776c-.45 0-.796.103-.796.432 0 .225.138.329.329.329.207 0 .38-.139.432-.312.017-.052.017-.086.017-.138v-.311h.018zm.104 1.297l-.052-.277h-.018c-.173.225-.467.346-.778.346-.554 0-.883-.398-.883-.847 0-.71.64-1.056 1.61-1.056v-.034c0-.139-.07-.346-.502-.346-.277 0-.571.086-.761.207l-.156-.553c.19-.104.57-.243 1.055-.243.917 0 1.211.537 1.211 1.177v.951c0 .26.017.519.035.658h-.761v.017zm1.487-2.751h1.09l.294 1.038c.052.156.121.45.173.692h.017c.052-.19.139-.484.225-.743l.312-.969h1.072l.173 2.733h-.796l-.051-1.09c0-.242-.018-.64-.035-.951h-.017c-.104.363-.121.45-.26.899l-.363 1.125h-.623l-.329-1.09c-.069-.26-.156-.657-.225-.917h-.017c-.017.346-.017.727-.035.952l-.052 1.09h-.76l.207-2.769zm3.926 0h.848v2.734h-.848v-2.734zm.882-.761c0 .242-.173.433-.467.433-.277 0-.45-.191-.432-.433 0-.242.173-.432.45-.432.276 0 .45.19.45.432zm2.11 2.215c-.45 0-.795.103-.795.432 0 .225.155.329.328.329a.453.453 0 00.433-.312c.017-.052.017-.086.017-.138v-.311h.017zm.104 1.297l-.052-.277h-.017c-.173.225-.467.346-.778.346-.554 0-.883-.398-.883-.847 0-.71.64-1.056 1.61-1.056v-.034c0-.139-.087-.346-.503-.346-.276 0-.57.086-.76.207l-.156-.553c.19-.104.57-.243 1.055-.243.917 0 1.211.537 1.211 1.177v.951c0 .26.017.519.035.658h-.762v.017zm2.251-2.751v1.09h.104l.692-1.09h1.003l-1.003 1.177c.328.069.519.363.692.761.086.225.19.554.328.796h-.916c-.07-.121-.139-.311-.243-.606-.12-.311-.294-.484-.57-.484h-.087v1.09h-.848v-2.734h.848zm2.838 0l.415 1.35c.052.156.104.363.139.502h.017c.034-.139.086-.364.121-.502l.329-1.35h.917l-.64 1.8c-.398 1.09-.658 1.522-.97 1.799-.293.26-.605.346-.83.381l-.173-.727c.104-.017.243-.069.364-.138a.957.957 0 00.346-.346.189.189 0 00.051-.122c0-.034 0-.069-.034-.138l-1.004-2.509h.952zm1.865 2.284c0-.294.207-.519.502-.519.294 0 .501.208.501.519 0 .294-.207.519-.501.519-.294 0-.502-.225-.502-.519zm40.444-78.307l.187-.105c.105-.059.245 0 .315.128l1.249 2.136.571-.339-1.073-1.844c-.07-.128-.047-.28.047-.338l.186-.105c.105-.058.245 0 .327.117l1.074 1.843.583-.338-1.249-2.136c-.07-.128-.046-.268.047-.338l.187-.117c.105-.058.245-.011.327.129l1.657 2.824c.07.128.046.28-.059.338l-2.45 1.436c-.105.058-.245 0-.315-.129l-1.658-2.836c-.07-.116-.058-.256.047-.326zm1.995-3.046c.046.14-.012.28-.117.326l-2.684.899c-.117.035-.245-.047-.292-.187l-.163-.513c-.047-.14.011-.28.116-.327l1.039-.35-.198-.584c-.105-.315-.304-.501-.689-.618l-.735-.222a.539.539 0 01-.339-.315l-.21-.63c-.046-.14.035-.199.175-.152l1.051.304c.245.07.513.186.712.536-.047-.28.128-.642.268-.863l.63-.957c.082-.128.187-.117.234.023l.21.619c.046.14.023.35-.059.478l-.443.677c-.199.292-.304.56-.187.91l.187.584 1.05-.35c.105-.035.233.046.28.186l.164.526zm-3.162-5.462c.7-.082 1.039-.467.945-1.33-.093-.876-.513-1.167-1.213-1.097-.7.081-1.039.466-.945 1.33.093.875.513 1.179 1.213 1.097zm-1.832-1.015c-.163-1.447.233-2.334 1.435-2.463 1.202-.128 1.786.642 1.949 2.09.164 1.446-.233 2.333-1.435 2.462-1.202.128-1.786-.642-1.949-2.09zm3.492-7.713l-.058.536c-.012.14-.117.257-.245.245l-2.393-.257-.07.689c-.035.362.105.677.374.794l1.867.863c.117.058.187.21.175.362l-.058.572c-.012.128-.117.21-.21.163l-2.101-.957c-.688-.315-.77-1.155-.677-1.972l.152-1.412c.012-.128.128-.222.233-.21l2.824.303c.129.012.211.14.187.28zm-.905-3.175c.665.221 1.144.023 1.424-.806.28-.828.023-1.283-.642-1.505-.665-.222-1.144-.023-1.424.805-.28.829-.023 1.272.642 1.506zm-1.225-1.704c.467-1.377 1.202-2.007 2.357-1.622 1.144.385 1.342 1.342.875 2.719-.466 1.377-1.202 2.019-2.357 1.622-1.144-.397-1.342-1.342-.875-2.72zm1.941-3.91c-.105-.058-.128-.21-.047-.338l1.389-2.38c.082-.13.21-.188.315-.13l.187.106c.105.058.128.21.047.338l-.981 1.68 2.077 1.226c.106.058.117.21.047.338l-.268.467c-.07.129-.21.187-.315.129l-2.451-1.436zm2.789-4.305c-.094-.07-.094-.234 0-.339l.338-.42c.093-.117.245-.152.339-.082l2.217 1.774c.093.07.093.234 0 .35l-.327.409c-.093.116-.245.151-.327.081l-2.24-1.773zm1.972-2.393c-.082-.093-.058-.245.058-.35l.397-.35c.117-.105.269-.117.35-.024l.514.572c.245.269.548.245.875-.046l.817-.736-.887-.968c-.082-.094-.058-.245.058-.339l.397-.35c.117-.105.269-.116.35-.023l1.902 2.1c.082.082.047.246-.058.339l-.397.35c-.105.093-.256.117-.338.023l-.595-.653-.817.735c-.759.689-1.552.91-2.112.292l-.514-.572zm8.233-4.061l-1.703.969.583 1.015c.058.105 0 .245-.128.315l-.467.269c-.128.07-.28.046-.339-.047l-1.412-2.474c-.058-.105 0-.245.129-.327l.467-.256c.128-.07.28-.059.338.046l.513.887 1.704-.968-.513-.887c-.059-.105 0-.245.128-.315l.467-.257c.128-.082.28-.059.35.046l1.412 2.463c.058.105 0 .245-.128.327l-.455.268c-.129.07-.28.047-.339-.047l-.607-1.027zm6.354-.969c-.14.047-.292-.012-.315-.128l-.618-2.02-.806 2.451a.55.55 0 01-.338.327l-.899.28c-.14.047-.291-.012-.315-.128l-.828-2.72c-.035-.116.046-.233.198-.28l.478-.151c.141-.047.281.012.316.128l.665 2.183.887-2.65c.046-.128.175-.28.315-.315l.805-.245c.14-.046.28.012.315.129l.829 2.719c.035.116-.059.245-.199.28l-.49.14zm4.483-4.878c.035-.07.093-.128.186-.128l.234-.023c.105-.012.163.023.163.105.024.42-.338.7-.91.735-.572.046-.969-.187-1.004-.607 0-.082.047-.117.152-.128l.233-.012c.094 0 .164.035.211.105.058.093.175.152.373.14.21-.012.315-.082.362-.187zm1.237 4.12c-.152.011-.269-.082-.28-.199l-.152-2.112-1.33 2.217a.572.572 0 01-.397.245l-.945.07c-.152.012-.281-.081-.281-.198l-.198-2.824c-.012-.128.105-.222.257-.233l.502-.035c.14-.012.268.07.28.186l.163 2.276 1.459-2.38a.55.55 0 01.373-.246l.84-.058c.141-.012.269.081.281.198l.198 2.824c.012.117-.105.222-.257.234l-.513.035zm8.073-2.265l.618.164c.759.21 1.494.759 1.319 1.4-.058.199-.28.187-.35.164l-.338-.093c-.152-.047-.269-.14-.327-.35-.07-.246-.245-.444-.584-.537l-.49-.129c-.817-.221-1.097-.046-1.295.689-.198.735-.047 1.027.77 1.249l.549.151c.338.094.583.012.77-.163.152-.152.303-.175.455-.14l.327.093c.07.024.268.117.221.315-.175.642-1.085.747-1.843.537l-.666-.187c-1.342-.361-1.902-1.05-1.61-2.147.292-1.074 1.12-1.389 2.474-1.015zm7.459 3.362l-.093.187c-.058.105-.21.14-.338.07l-2.206-1.132-.303.583 1.902.98c.128.07.198.21.14.315l-.094.187c-.058.105-.21.128-.338.07l-1.902-.98-.304.595 2.194 1.132c.129.07.187.198.14.303l-.105.199c-.058.105-.198.14-.338.07l-2.906-1.506c-.14-.07-.198-.21-.14-.315l1.295-2.52c.059-.105.21-.129.339-.059l2.917 1.506c.129.07.187.21.14.315zm2.228 2.124l-.794.968.805.654c.432.35.817.548 1.156.128.338-.408.07-.747-.362-1.097l-.805-.653zm1.458.361c.84.689 1.086 1.39.537 2.066-.56.677-1.295.584-2.136-.105l-1.061-.852-.327.397c-.07.093-.222.093-.339 0l-.42-.339c-.116-.093-.151-.245-.07-.338l1.786-2.194c.081-.093.221-.093.338 0l1.692 1.365zm4.959 5.298c.094.117.094.269 0 .339l-.163.14c-.094.082-.245.047-.339-.07l-.805-.98-1.867 1.517c-.093.07-.245.035-.338-.07l-.339-.42c-.093-.117-.093-.269 0-.339l1.867-1.517-.805-.992c-.093-.117-.093-.268 0-.338l.163-.14c.094-.082.246-.047.339.07l2.287 2.8zm-.113 6.372c-.07-.128-.035-.28.07-.338l1.891-.957-2.556-.362a.584.584 0 01-.374-.268l-.431-.84c-.07-.14-.035-.28.07-.339l2.532-1.284c.105-.058.245 0 .315.14l.234.444c.07.128.046.28-.059.338l-2.03 1.04 2.765.407c.14.024.304.129.374.246l.385.746c.07.129.035.28-.07.327l-2.532 1.284c-.106.047-.246-.012-.316-.14l-.268-.444zm2.493 4.773c.152.63.467 1.004.957.875.49-.116.607-.583.455-1.213l-1.412.338zm1.167-1.319c-.152-.63-.467-.991-.957-.875-.49.117-.607.584-.455 1.214l1.412-.338zm1.202.502c.035.152-.023.292-.152.315l-.222.047c.281 1.167.152 2.147-.805 2.38-.957.234-1.517-.583-1.797-1.75l-.222.059c-.116.023-.233-.07-.268-.21l-.117-.514c-.035-.152.035-.292.152-.315l.222-.047c-.28-1.167-.152-2.147.805-2.38.957-.234 1.517.583 1.797 1.75l.222-.047c.117-.035.233.07.268.21l.117.502zm.305 4.377c.116-.012.222.105.233.256l.035.537c.012.152-.082.28-.198.292l-2.836.163c-.117.012-.222-.116-.233-.268l-.024-.525c-.011-.152.082-.28.199-.28l2.824-.175zm-2.94 3.232c.012-.152.129-.257.245-.245l2.813.292c.116.011.21.14.186.291l-.058.537c-.012.14-.128.257-.245.245l-1.085-.116-.059.607c-.035.326.07.583.374.84l.583.502c.14.116.187.28.175.431l-.07.654c-.011.152-.105.163-.221.058l-.829-.712c-.198-.163-.397-.385-.42-.782-.07.28-.385.537-.607.677l-.98.619c-.129.082-.222.023-.199-.129l.07-.653a.625.625 0 01.257-.409l.689-.431c.291-.187.513-.385.548-.747l.059-.607-1.097-.117c-.117-.011-.199-.14-.187-.291l.058-.514zm.288 6.698l-.572 1.716 1.132.374.257-.77c.117-.35.047-.69-.198-.864l-.619-.455zm1.144-.443c.607.455.502 1.284.245 2.077l-.478 1.46c-.047.128-.175.198-.281.163l-2.695-.899c-.117-.035-.164-.187-.117-.327l.175-.513c.047-.14.175-.222.292-.187l.537.187.641-1.926-.49-.361a.336.336 0 01-.093-.386l.175-.536c.047-.14.163-.199.257-.117l1.832 1.365zm-3.093 8.916c-.082.129-.222.187-.315.117l-.187-.105c-.105-.059-.129-.21-.047-.339l.642-1.097-2.077-1.225c-.105-.058-.117-.21-.047-.338l.268-.467c.07-.129.222-.187.316-.129l2.077 1.226.642-1.097c.07-.129.21-.187.315-.117l.186.105c.105.059.129.21.047.339l-1.82 3.127zm-37.678 5.788l.408.246c.502.315.887.91.572 1.423-.105.164-.256.117-.303.082l-.21-.128c-.105-.059-.164-.164-.14-.35a.56.56 0 00-.28-.56l-.327-.2c-.537-.326-.805-.22-1.167.363-.362.595-.338.875.198 1.202l.362.221c.222.14.432.117.619 0 .163-.105.28-.105.385-.035l.221.129c.047.035.164.152.07.315-.315.513-1.015.443-1.528.14l-.444-.269c-.887-.548-1.097-1.225-.56-2.112.537-.898 1.237-1.015 2.124-.467zm1.657 2.649c-.257.584-.163 1.016.432 1.284s.98.047 1.237-.537c.257-.583.163-1.015-.432-1.283-.595-.269-.98-.059-1.237.536zm1.471-1.061c1.003.443 1.388 1.108.945 2.123-.444 1.016-1.202 1.167-2.206.736-1.003-.444-1.389-1.109-.945-2.124.455-1.016 1.202-1.179 2.206-.735zm1.609 3.232c.117.035.21.105.339.14l.035.012c.268.082.513-.035.712-.35l-.175-.047c-.712-.21-.946-.595-1.039-1.26l-.105-.817c-.012-.117.07-.187.175-.152l.432.129a.31.31 0 01.221.256l.07.63c.035.339.176.572.537.677l.245.07.666-.922c.081-.105.21-.14.315-.105l.42.129c.105.035.14.128.07.221l-1.226 1.67c-.315.431-.735.664-1.447.454l-.49-.151a.21.21 0 01-.14-.245l.07-.222a.192.192 0 01.245-.129l.07.012zm5.032.28c-.07.642.151 1.016.805 1.086.653.07.945-.257 1.015-.899.07-.63-.152-1.015-.805-1.085-.654-.059-.945.268-1.015.898zm1.073-1.447c1.086.117 1.657.63 1.552 1.727-.116 1.109-.782 1.482-1.867 1.377-1.085-.116-1.669-.63-1.552-1.727.117-1.108.782-1.493 1.867-1.377zm4.864.362v.198a.196.196 0 01-.198.199l-1.879.035.011.607 1.623-.035c.105 0 .21.081.21.186v.199a.205.205 0 01-.199.198l-1.622.035.012.619 1.879-.047c.105 0 .198.081.198.187v.198a.197.197 0 01-.198.198l-2.486.059c-.117 0-.21-.082-.21-.199l-.059-2.59c0-.105.082-.199.199-.199l2.497-.058c.129.011.222.093.222.21zm2.508 2.462c-.105.023-.233-.047-.292-.14l-1.085-1.89.338 2.007c.024.105-.058.21-.163.233l-.385.059c-.117.023-.222-.047-.233-.164l-.432-2.556c-.012-.105.047-.21.163-.233l.864-.152c.116-.023.233.047.292.152l.921 1.657.339-1.867c.023-.105.117-.222.222-.233l.875-.152a.216.216 0 01.233.163l.432 2.556c.023.105-.058.21-.175.233l-.385.059c-.117.023-.222-.047-.234-.164l-.338-2.007-.42 2.147a.317.317 0 01-.233.234l-.304.058zm4.53-2.684c.257.654.665.735 1.085.572.421-.163.677-.49.421-1.155-.257-.654-.666-.736-1.086-.572-.42.163-.677.502-.42 1.155zm.269-1.727c.793-.315 1.563-.222 1.983.852.421 1.073-.093 1.657-.886 1.96l-.14.059c-.794.303-1.564.221-1.984-.852-.42-1.074.093-1.657.887-1.96l.14-.06zm2.488-1.109c.105-.047.222-.012.269.082l1.167 2.322a.2.2 0 01-.094.268l-.35.175c-.105.047-.221.012-.268-.081l-.91-1.797-.14.268c-.035.058-.117.082-.187.058l-.234-.105c-.093-.046-.07-.116-.046-.187l.268-.63a.561.561 0 01.234-.233l.291-.14zm2.947-.268l-.128-.222c-.187-.303-.373-.28-.665-.105l-.269.163c-.291.175-.385.339-.245.56.14.234.327.199.619.024l.688-.42zm-.455.98c-.665.409-1.178.455-1.552-.14-.362-.595-.105-1.038.56-1.447l.397-.245c.654-.408 1.179-.455 1.587.222l.49.782c.444.7.175 1.155-.478 1.563l-.444.28c-.536.339-1.12.327-1.342-.023-.105-.163.012-.28.07-.315l.21-.14c.105-.058.199-.058.351.012.116.058.28.035.466-.082l.339-.21c.28-.175.373-.339.163-.677l-.047-.07-.77.49zm-31.139-33.422a18.406 18.406 0 013.116-5.625 17.73 17.73 0 014.527-3.98c-2.24 1.144-4.282 2.79-6.009 4.913a19.775 19.775 0 00-2.381 3.735l.747.957zm-.677 2.509c.047-.269-.327-.386-.537-.76-.222-.407-.268-1.05-.338-.863-2.859 7.633-1.039 16.677 5.123 22.348.14.129.222.175.373.304 0 0 1.027-.584 1.471-.887.443-.304 1.307-.946 1.307-.946a17.87 17.87 0 01-1.821-1.458c-4.913-4.528-6.838-11.39-5.578-17.739zm30.582 14.867c.327.082.794.187 1.191.245.326.047.676.047.956.024 3.385-6.675 2.871-14.88-1.283-21.018 3.676 6.325 3.489 14.6-.864 20.75zm-.537 2.451s-1.109-.432-1.319-.222c-5.018 5.17-12.23 6.547-18.462 3.71 0 0-.7.584-1.377 1.18a39.662 39.662 0 01-1.365 1.155c7.515 4.353 17.108 2.696 22.919-4.481.409-.502.794-1.027 1.144-1.564.117-.175-1.54.222-1.54.222z" fill="#9AB4C1"/><path d="M157.332 37.366c-.397.537-1.19 1.715-2.404 2.649-1.19.922-3.699 2.777-7.235 2.964-1.552.035-1.587-.117-2.416-.222-.49-.105-3.688-.828-7.037-2.847-1.867-.91-3.688-.724-4.131-.245-.665.735-1.225 1.272-1.576 1.668-1.377 1.494-8.845 7.41-10.094 8.52.128-.176.945-1.868 1.249-4.424 3.757-2.24 6.488-4.364 8.507-6.383.222-.21.49-.723.245-1.132-.28-1.447-1.412-2.59-3.197-3.303-3.501-1.388-6.477-3.185-8.041-5.706-.992-1.517-1.785-3.14-2.229-5.03-1.389-5.87.058-8.39.374-8.997-.362 2.765.618 4.738 2.053 6.22 1.447 1.482 3.07 2.404 4.913 3.197 2.953 1.272 4.668 3.338 5.789 5.707 1.12 2.38 1.307 5.135 1.307 5.135-.339-.887-.981-2.44-1.681-3.571-.782-1.272-2.614-3.256-4.539-4.447-1.704-1.05-3.233-1.575-4.377-2.52-1.668-1.366-2.905-3.244-3.571-4.995.047 1.074 1.051 2.754 1.564 3.606 1.949 2.65 3.151 2.824 5.789 4.551 2.193 1.436 3.944 3.466 4.843 4.785.898 1.319 1.972 3.933 1.785 5.438 3.408-3.92 4.47-7.702 5.076-10.748.969-4.925 1.483-7.2 2.708-8.927.618-.934 1.015-1.6 1.879-2.346.431-.373.618-.607 1.108-.805.374-.152 1.307-.455 2.579.011 1.728.164 4.388.28 6.699.747l-3.209-.035c-1.132 0-3.058.257-3.688.339-1.902.152-3.221 1.19-4.26 2.847-1.061 1.61-1.633 3.723-2.602 8.636a24.117 24.117 0 01-4.411 10.713s2.719-1.599 4.785-1.424c2.065.175 5.216 1.47 5.216 1.47 3.128 1.483 4.586 1.541 5.8 1.576 1.214.035 2.871-.502 3.431-.758a9.9 9.9 0 01-5.252.198c-2.1-.49-4.796-2.1-5.998-2.532-3.828-1.284-5.66-.432-5.66-.432s1.296-.992 2.789-1.482c2.813-.864 4.365.046 6.279 1.108 1.82 1.016 3.512 1.88 5.415 2.218 1.867.35 3.465-.164 5.426-.992zm-35.568 27.867c.386 0 .549-.198.549-.607v-1.61c0-.105.093-.199.198-.199h.385c.105 0 .199.082.199.199v1.61c0 .759-.444 1.202-1.319 1.202h-.373c-.876 0-1.319-.443-1.319-1.202v-1.61c0-.105.093-.199.198-.199h.385c.106 0 .199.082.199.199v1.61c0 .409.175.607.548.607h.35zm2.652-.735h1.331v-1.085h-.595a.551.551 0 00-.549.42l-.187.665zm-.571-.864c.175-.653.77-.805 1.388-.805h1.121c.105 0 .175.094.175.187v2.602a.205.205 0 01-.199.199h-.396a.197.197 0 01-.199-.199v-.525h-1.482l-.14.525c-.035.105-.14.199-.245.199h-.408c-.117 0-.176-.082-.152-.199l.537-1.984zm3.159 1.786c0-.175.105-.28.28-.28h.257c.175 0 .28.105.28.28v.129c0 .175-.105.28-.28.28h-.257c-.175 0-.28-.105-.28-.28v-.129zm1.905-1.097c0 .7.35.922.782.922.443 0 .782-.222.782-.922 0-.712-.35-.922-.782-.922-.444 0-.782.21-.782.922zm.852-1.517c.828 0 1.493.362 1.493 1.517 0 1.144-.665 1.505-1.493 1.505h-.14c-.829 0-1.494-.362-1.494-1.505 0-1.155.665-1.517 1.494-1.517h.14zm3.128.595c-.327 0-.49.07-.49.303 0 .234.163.304.49.304h.21c.327 0 .49-.082.49-.304 0-.233-.163-.303-.49-.303h-.21zm.315 1.832c.327 0 .502-.07.502-.327 0-.256-.164-.326-.502-.326h-.409c-.326 0-.49.081-.49.326s.164.327.49.327h.409zm0-2.427c.618 0 1.167.233 1.167.863 0 .222-.07.386-.28.549.28.152.397.408.397.688 0 .607-.526.91-1.191.91h-.595c-.665 0-1.19-.303-1.19-.91 0-.28.116-.536.396-.688-.21-.175-.28-.339-.28-.549 0-.63.549-.863 1.167-.863h.409zm1.587 2.614c0-.175.105-.28.28-.28h.257c.175 0 .28.105.28.28v.129c0 .175-.105.28-.28.28h-.257c-.175 0-.28-.105-.28-.28v-.129zm1.909-1.097c0 .7.35.922.782.922.443 0 .782-.222.782-.922 0-.712-.351-.922-.782-.922-.432 0-.782.21-.782.922zm.852-1.517c.828 0 1.493.362 1.493 1.517 0 1.144-.665 1.505-1.493 1.505h-.152c-.829 0-1.494-.362-1.494-1.505 0-1.155.665-1.517 1.494-1.517h.152zm2.538 1.517c0 .7.351.922.782.922.444 0 .782-.222.782-.922 0-.712-.35-.922-.782-.922-.431 0-.782.21-.782.922zm.864-1.517c.829 0 1.494.362 1.494 1.517 0 1.144-.665 1.505-1.494 1.505h-.152c-.828 0-1.493-.362-1.493-1.505 0-1.155.665-1.517 1.493-1.517h.152zm3.712.992c0-.316-.163-.409-.525-.409h-.152c-.257 0-.432.07-.525.257-.07.14-.163.198-.28.198h-.245c-.059 0-.21-.035-.21-.233 0-.502.618-.817 1.202-.817h.28c.688 0 1.248.21 1.248.992 0 1.202-1.948.945-1.948 1.424h1.727c.105 0 .198.081.198.198v.198a.204.204 0 01-.198.199h-2.311a.196.196 0 01-.198-.199v-.303c-.024-1.284 1.937-.922 1.937-1.505zm1.084 1.622c0-.175.105-.28.28-.28h.257c.175 0 .28.105.28.28v.129c0 .175-.105.28-.28.28h-.257c-.175 0-.28-.105-.28-.28v-.129zm2.424-2.019c-.257 0-.443.07-.537.257-.07.14-.163.198-.28.198h-.245c-.058 0-.21-.035-.21-.233 0-.502.619-.817 1.202-.817h.28c.7 0 1.26.21 1.26.91a.74.74 0 01-.291.595c.245.152.326.35.326.595 0 .677-.455.91-1.202.91h-.443c-.583 0-1.202-.315-1.202-.828 0-.198.163-.233.21-.233h.245c.117 0 .222.046.304.233.07.152.256.245.513.245h.292c.327 0 .49-.07.49-.327 0-.245-.163-.315-.49-.315h-.374a.196.196 0 01-.198-.198v-.175c0-.105.082-.199.187-.199h.303c.362 0 .525-.081.525-.326 0-.234-.163-.315-.525-.315h-.14v.023zm3.092 0c-.257 0-.432.07-.525.257-.07.14-.164.198-.28.198h-.245c-.059 0-.21-.035-.21-.233 0-.502.618-.817 1.202-.817h.28c.7 0 1.26.21 1.26.91a.738.738 0 01-.292.595.64.64 0 01.327.595c0 .677-.455.91-1.214.91h-.443c-.584 0-1.202-.315-1.202-.828 0-.198.152-.233.21-.233h.245c.117 0 .222.046.303.233.07.152.257.245.514.245h.303c.327 0 .49-.07.49-.327 0-.245-.163-.315-.49-.315h-.373a.197.197 0 01-.199-.198v-.175c0-.105.082-.199.187-.199h.304c.361 0 .525-.081.525-.326 0-.234-.164-.315-.525-.315h-.152v.023zm3.082 0c-.257 0-.432.07-.525.257-.07.14-.164.198-.28.198h-.245c-.059 0-.21-.035-.21-.233 0-.502.618-.817 1.202-.817h.291c.701 0 1.261.21 1.261.91a.74.74 0 01-.292.595.64.64 0 01.327.595c0 .677-.455.91-1.214.91h-.443c-.584 0-1.202-.315-1.202-.828 0-.198.163-.233.21-.233h.245c.116 0 .221.046.303.233.07.152.257.245.514.245h.291c.327 0 .49-.07.49-.327 0-.245-.163-.315-.49-.315h-.373a.196.196 0 01-.198-.198v-.175c0-.105.081-.199.186-.199h.304c.373 0 .525-.081.525-.326 0-.234-.164-.315-.525-.315h-.152v.023zM7.265 48.054a.729.729 0 01-.246 1.013c-.344.207-.826.108-1.043-.236a.729.729 0 01.246-1.013.766.766 0 011.043.236zm8.062 7.139l-2.419 2.792-.403-.334 2.104-2.429-1.75-1.435-2.104 2.428-.403-.334 2.419-2.792 2.556 2.104zm1.12.757l2.557 1.504-.255.413-2.095-1.239-.57.915 1.966 1.16-.255.413-1.967-1.16-.61.983 2.125 1.258-.256.413-2.586-1.524 1.947-3.136zm2.665 5.614l-.491-.197 1.455-3.372 1.603.649c.855.344 1.14.836.845 1.514-.295.688-.855.816-1.71.472l-1.102-.452-.6 1.386zm.767-1.79l.915.374c.668.275 1.042.246 1.229-.187.206-.472-.04-.737-.679-1.002l-.944-.384-.52 1.2zm4.16-.285l2.9.708-.118.462-2.38-.59-.265 1.033 2.232.55-.118.463-2.232-.55-.295 1.12 2.419.59-.118.462-2.93-.718.904-3.53zm4.07.915l2.075.187c.737.069 1.11.442 1.052 1.022-.04.384-.266.63-.669.748.462.127.678.452.64.924-.07.727-.532 1.022-1.417.944l-2.035-.187.354-3.638zm.226 3.215l1.377.128c.6.059.904-.06.944-.462.039-.433-.197-.64-.758-.689l-1.455-.127-.108 1.15zm.157-1.642l1.328.118c.57.05.835-.04.875-.452.04-.374-.177-.541-.669-.59l-1.445-.128-.089 1.052zm4.985 2.34l-.53.01-.089-3.658.53-.01.09 3.658zm2.527-.167l-.52.069-.522-3.618 1.71-.236c.915-.128 1.417.157 1.525.884.108.738-.305 1.131-1.22 1.25l-1.18.166.207 1.485zm-.275-1.917l.983-.138c.718-.098 1.023-.305.964-.767-.07-.511-.413-.61-1.111-.521l-1.013.138.177 1.288zm3.412-2.301l2.861-.826.138.462-2.35.678.314 1.023 2.213-.639.137.462-2.212.64.334 1.11 2.39-.688.137.462-2.9.836-1.062-3.52zm5.093-.148l2.065-.953-.64-1.308.482-.226 1.613 3.303-.482.227-.757-1.564-2.065.964.767 1.563-.482.226-1.612-3.303.482-.227.629 1.298zm4.513-4.247c1.042-.718 2.124-.531 2.812.413.688.953.511 2.006-.54 2.733-1.043.718-2.125.531-2.813-.413-.688-.954-.511-2.015.54-2.733zm1.986 2.743c.777-.54.905-1.288.374-2.016-.531-.737-1.298-.865-2.075-.324-.777.54-.904 1.288-.374 2.016.531.727 1.298.865 2.075.324zm1.652-3.746l-.924-.983.452-.413.934.983.865 1.14-.226.207-1.101-.934zm1.19 1.268l.452-.413.423.453-.453.403-.422-.443zm4.03-7.826a.765.765 0 011.033-.236.736.736 0 01.246 1.013c-.216.344-.678.442-1.032.236a.727.727 0 01-.246-1.013zM.354 37.298l.806-.167.403 1.956 3.117-.619.197.954-3.923.786-.6-2.91zm3.707-3.451l.069.973-3.992.256-.07-.973 3.993-.256zM.393 27.603l3.982.384-.098.973-3.166-.305-.197 1.869 3.166.304-.098.974L0 31.418l.393-3.815zm3.953-6.45c1.2.394 1.7 1.505 1.229 2.862-.472 1.357-1.554 1.956-2.763 1.563-1.2-.393-1.7-1.504-1.229-2.871.472-1.347 1.563-1.947 2.763-1.554zm-1.18 3.412c.757.246 1.377-.069 1.632-.806.256-.737-.049-1.347-.806-1.593s-1.377.06-1.622.797c-.256.747.039 1.356.796 1.602zm1.101-7.413l.492-.806 4.375.452-.57.934-.914-.118-.905 1.485.55.717-.55.905-2.478-3.57zm2.498.363l-1.338-.157.797 1.052.54-.895zm3.45-7.767l2.901 2.674-.688.708-2.31-2.123-1.21 1.248 1.14 1.052c.748.688 1.033 1.357.384 2.026a3.186 3.186 0 01-.462.393l-.62-.57c.05-.03.138-.099.227-.187.314-.324.236-.54-.433-1.15L7.63 12.422l2.586-2.674zm5.172-3.795l.463.659-2.095 1.415.374.531L15.997 7.3l.462.659-1.868 1.258.492.698L17.177 8.5l.472.66-2.93 1.975-2.271-3.205 2.94-1.976zm2.39-1.288l2.182-.915c.866-.363 1.554-.098 1.888.65.335.756.05 1.445-.806 1.808l-1.258.521.491 1.121-.924.384-1.573-3.57zm1.681 1.337l.846-.354c.57-.236.796-.443.629-.836-.177-.413-.452-.403-.993-.167l-.905.384.423.973zm7.286-4.16l.177.778-2.006.432.678 3.029-.983.206-.855-3.805 2.989-.64zm5.998-.432l.029.797-2.547.088.02.649 2.271-.079.03.797-2.271.078.03.846 2.546-.088.03.796-3.55.128-.128-3.884 3.54-.128zm3.53 1.77l1.897.325.256-1.426.983.167-.689 3.844-.983-.167.295-1.622-1.897-.325-.295 1.623-.993-.167.688-3.845.993.167-.256 1.426zm6.302 1.544l1.78.708.56-1.347.924.363-1.514 3.609-.924-.364.639-1.524-1.78-.708-.639 1.524-.924-.373 1.514-3.609.924.364-.56 1.357zm7.03 1.868l.796.53-.747 4.229-.914-.61.177-.885-1.456-.963-.776.491-.895-.59 3.815-2.202zm-.55 2.399l.255-1.288-1.13.708.874.58zm9.094 5.713l-.324.226.236.324c.55.738.924 1.858-.04 2.547-.865.61-1.79.177-2.497-.767l-.226-.305-.393.275-.59-.786.393-.276-.236-.314c-.708-.944-.826-1.937.03-2.547.973-.688 1.946.01 2.487.747l.246.325.324-.226.59.777zm-1.524-.138l-.177-.236c-.344-.472-.885-.816-1.367-.482-.452.324-.285.934.07 1.406l.166.226 1.308-.914zm-.718 1.72l.177.236c.345.472.885.817 1.337.502.482-.344.315-.954-.029-1.426l-.177-.236-1.308.925zm5.398 3.923l.364.866-2.999 3.146-.423-1.003.65-.639-.68-1.583-.923-.01-.413-.973 4.424.196zm-1.809 1.721l.934-.944-1.337-.01.403.954zm3.51 3.058l.443 2.271c.167.895-.236 1.505-1.062 1.652-.836.157-1.455-.256-1.632-1.16l-.246-1.308-1.23.226-.186-.963 3.913-.718zm-1.7 1.308l.166.885c.118.6.276.855.708.776.453-.078.502-.344.394-.914l-.187-.944-1.082.197zm2.575 8.16l-.826-.01.03-2.3-.669-.01-.02 1.396c-.01.826-.5 1.298-1.278 1.298-.767-.01-1.238-.482-1.229-1.307l.03-2.38 4.002.04-.04 3.273zm-3.156-2.33l-.01 1.052c-.01.482.079.669.443.679.364.01.423-.226.423-.718l.01-.993-.866-.02zm2.537 6.598l-.207.914-4.296.915.236-1.062.904-.177.374-1.682-.747-.51.226-1.023 3.51 2.625zm-2.488.413l1.318-.256-1.092-.747-.226 1.003z" fill="#9AB4C1"/><path fill-rule="evenodd" clip-rule="evenodd" d="M25.416 56c7.768 1.72 13.589.432 18.613-2.547 5.378-3.186 10.57-9.017 11.523-18.121.826-7.896-2.32-14.493-7.07-19.213-2.369-2.35-5.328-4.463-9.192-5.702-3.874-1.24-8.446-1.524-12.28-.738-6.716 1.367-12.596 5.811-15.968 11.819-4.12 7.344-3.619 16.803-.463 22.27a92.732 92.732 0 003.461-2.232 19.73 19.73 0 01-1.583-12.143c2.016-10.717 12.34-17.777 23.067-15.761 10.717 2.015 17.767 12.34 15.751 23.056-1.612 8.584-8.78 14.68-16.695 15.85l1.23-1.376c0-.01.009-.01.009-.01l.04-.04a21.45 21.45 0 004.817-8.927c1.327-5.123.157-9.833-1.74-13.608-2.016-4.022-5.556-7.207-10.658-9.203.088.973.58 1.858.747 2.91.167 1.042.206 2.281-.256 3.599-.708 2.045-2.055 3.687-2.723 5.87-2.006 6.568-.06 11.484 2.95 15.643 1.779-1.898 3.43-4.267 4.365-7.207 1.514-4.779.433-9.076-.452-12.32 1.514 1.573 2.251 3.697 2.654 5.939.394 2.172.531 4.876-.147 7.413-1.15 4.336-3.363 7.561-5.772 10.157L25.22 55.94l.196.06z" fill="#9AB4C1"/><path d="M234.66 103.645l1.632 4.431h-1.049l-.35-.933h-1.865l-.35.933h-1.049l1.632-4.431h1.399zm-.7.699l-.699 2.099h1.399l-.7-2.099zm3.846 3.732l-1.632-4.431h1.166l1.165 3.498 1.166-3.498h1.166l-1.632 4.431h-1.399zm5.946-4.431l1.632 4.431h-1.049l-.35-.933h-1.865l-.35.933h-1.049l1.632-4.431h1.399zm-.7.699l-.699 2.099h1.399l-.7-2.099zm5.713.117H247.6v3.615h-1.049v-3.615h-1.166v-.816h3.497v.816h-.117zm1.749 3.615h-1.049v-4.431h1.049v4.431zm5.36 0h-1.165l-2.099-3.149v3.032h-.932v-4.431h1.165l2.099 3.148v-3.148h.932v4.548zm4.198-3.615h-1.166v3.615h-1.049v-3.615h-1.166v-.816h3.498v.816h-.117zm-29.727 8.163h-1.165v3.615h-1.049v-3.615h-1.166v-.816h3.497v.816h-.117zm1.749 3.615h-1.049v-4.431h1.049v4.431zm1.165-4.431h1.049v1.982l.35-.233 1.399-1.749h1.166l-1.749 2.099 1.865 2.332h-1.165l-1.516-1.749-.466.233v1.516h-1.049v-4.431h.116zm4.897 0h1.049v1.982l.35-.233 1.398-1.749h1.166l-1.748 2.099 1.865 2.332h-1.166l-1.515-1.749-.467.233v1.516h-1.049v-4.431h.117zm4.662 2.799v-2.799h1.05v2.566c0 .583.233 1.049.932 1.049.7 0 .933-.35.933-1.049v-2.566h1.049v2.799c0 .933-.583 1.749-1.982 1.749s-1.982-.816-1.982-1.749zm8.509-1.283c0 .7-.35 1.05-.816 1.283l1.049 1.632h-1.166l-.933-1.399h-.466v1.399h-.933v-4.431h1.516c1.166 0 1.749.466 1.749 1.516zm-2.332-.7v1.516h.466c.583 0 .933-.233.933-.816 0-.467-.35-.7-.933-.7h-.466zm4.433 3.615h-1.049v-4.431h1.049v4.431zm4.313 0h-3.147v-4.431h1.049v3.615h2.098v.816zm3.499-4.431l1.632 4.431h-1.049l-.35-.933h-1.865l-.35.933h-1.049l1.632-4.431h1.399zm-.7.7l-.699 2.099h1.399l-.7-2.099zm-97.924 2.332c-.35 0-.583.233-.583.699v3.732c0 .467.233.7.583.7s.583-.233.583-.7v-3.732c-.117-.583-.35-.699-.583-.699zm16.438-14.228a.89.89 0 00-.583.234c-.233.233-.233.466-.233.816v5.714c0 .35.117.7.233.816a.89.89 0 00.583.234.888.888 0 00.583-.234c.117-.116.233-.466.233-.816v-5.714c0-.35-.116-.7-.233-.816a.888.888 0 00-.583-.234zm.584 14.344h-.466v2.332h.466c.35 0 .583-.116.583-.699v-1.05c-.117-.466-.233-.583-.583-.583zm-4.2-.116c-.349 0-.583.233-.583.699v3.732c0 .467.234.7.583.7.35 0 .583-.233.583-.7v-3.732c0-.583-.233-.699-.583-.699zm-4.079 2.565h-.466v2.333h.466c.35 0 .583-.117.583-.7v-1.05c0-.349-.233-.583-.583-.583zm1.867-16.793a.89.89 0 00-.583.234c-.116.116-.233.466-.233.816v5.714c0 .35.117.7.233.816a.89.89 0 00.583.234.89.89 0 00.583-.234c.117-.116.233-.466.233-.816v-5.714c0-.35-.116-.7-.233-.816a.89.89 0 00-.583-.234zm11.658 0a.885.885 0 00-.582.234c-.234.233-.234.466-.234.816v5.714c0 .35.117.7.234.816a.885.885 0 00.582.234.886.886 0 00.583-.234c.117-.116.233-.466.233-.816v-5.714c0-.35-.116-.7-.233-.816a.886.886 0 00-.583-.234z" fill="#9AB4C1"/><path d="M191.875 90h-40.451v40h119.139V90h-78.688zm-29.26 11.778c0-.816.233-1.516.699-1.982.467-.467 1.05-.7 1.866-.7.816 0 1.399.233 1.865.7.466.466.699 1.166.699 1.982v5.481c0 .817-.233 1.517-.699 1.983-.466.466-1.049.7-1.865.7-.816 0-1.399-.234-1.866-.7-.466-.466-.699-1.166-.699-1.983v-5.481zm-5.829 4.665h1.632v.933c0 .35.117.7.233.816.117.234.35.234.583.234.35 0 .467 0 .7-.234.116-.116.233-.466.233-.816v-2.332c0-.35-.117-.7-.233-.817a.895.895 0 00-.583-.233.895.895 0 00-.583.233c-.233.234-.35.467-.35.817v.35h-1.632l.35-6.181h4.43v1.516h-2.915l-.116 2.565c.35-.466.816-.816 1.399-.816a1.93 1.93 0 011.399.583c.349.467.466 1.05.466 1.749v2.333c0 .816-.233 1.516-.583 1.982-.466.467-1.049.7-1.865.7-.816 0-1.399-.233-1.865-.7-.467-.466-.583-1.166-.583-1.982v-.7h-.117zm3.614 14.344h-1.166l-1.049-2.682-.35.583v2.099h-1.049v-6.764h1.049v2.916l1.399-2.916h1.049l-1.515 3.032 1.632 3.732zm3.73-1.632c0 1.049-.582 1.749-1.632 1.749-1.049 0-1.632-.583-1.632-1.749v-3.499c0-1.05.583-1.749 1.632-1.749 1.05 0 1.632.583 1.632 1.749v3.499zm4.663 1.632h-1.049v-5.831h-.932l-.117 4.082c0 1.283-.466 1.749-1.515 1.749h-.117v-.933c.466 0 .583-.116.699-.699l.117-5.132h3.031v6.764h-.117zm4.197-1.749c0 1.049-.583 1.633-1.632 1.633h-1.515v-6.764h1.049v2.565h.466c1.049 0 1.632.583 1.632 1.633v.933zm-1.632-9.796c-.466-.466-.699-1.166-.699-1.983v-5.481c0-.816.233-1.516.699-1.982.466-.467 1.049-.7 1.865-.7.816 0 1.399.233 1.865.7.467.466.7 1.166.7 1.982v5.481c0 .817-.233 1.517-.7 1.983-.466.466-1.049.7-1.865.7-.816 0-1.515-.234-1.865-.7zm5.712 9.913c0 1.049-.583 1.749-1.632 1.749s-1.632-.583-1.632-1.749v-3.499c0-1.05.583-1.749 1.632-1.749s1.632.583 1.632 1.749v3.499zm4.08-2.683c0 1.05-.583 1.633-1.632 1.633h-.466v2.566h-1.049v-6.764h1.515c1.049 0 1.632.583 1.632 1.632v.933zm.467-9.213c0 .817-.234 1.517-.7 1.983-.466.466-1.049.7-1.865.7-.816 0-1.399-.234-1.865-.7-.466-.466-.7-1.166-.7-1.983v-5.481c0-.816.234-1.516.7-1.982.466-.467 1.049-.7 1.865-.7.816 0 1.399.233 1.865.7.466.466.7 1.166.7 1.982v5.481zm1.515 13.528h-1.049v-6.764h1.049v6.764zm4.197-1.632c0 1.049-.583 1.632-1.632 1.632h-1.632v-6.764h1.632c1.165 0 1.632.467 1.632 1.516v.234c0 .699-.233 1.166-.7 1.399.583.233.816.7.816 1.516v.467h-.116zm.116-11.896c0 .817-.233 1.517-.699 1.983-.466.466-1.049.7-1.865.7-.816 0-1.399-.234-1.865-.7-.467-.466-.7-1.166-.7-1.983v-5.481c0-.816.233-1.516.7-1.982.466-.467 1.049-.7 1.865-.7.816 0 1.399.233 1.865.7.466.466.699 1.166.699 1.982v5.481zm81.952 21.691h-76.473v-37.9h76.473v37.9z" fill="#9AB4C1"/><path d="M165.179 108.426a.888.888 0 00.583-.234c.117-.116.233-.466.233-.816v-5.714c0-.35-.116-.7-.233-.816a.888.888 0 00-.583-.234.89.89 0 00-.583.234c-.116.116-.233.466-.233.816v5.714c0 .35.117.7.233.816.117.234.234.234.583.234zm20.985 7.58v-.35c0-.467-.116-.7-.582-.7h-.467v1.749h.467c.349 0 .582-.233.582-.699zm-.582 1.632h-.467v2.1h.583c.35 0 .583-.117.583-.7v-.583c0-.583-.233-.817-.699-.817zm21.216-17.492c0-.583-.466-1.05-1.049-1.05h-5.13c-.582 0-1.049.467-1.049 1.05v19.592c0 .583.467 1.049 1.049 1.049h19.585c.583 0 1.049-.466 1.049-1.049v-5.132c0-.583-.466-1.049-1.049-1.049h-3.497l3.031-1.749c.233-.117.466-.35.466-.7.117-.233 0-.583-.117-.816l-2.564-4.432c-.117-.233-.35-.466-.7-.466-.233-.117-.583 0-.816.116l-3.031 1.749 1.749-3.032c.117-.233.233-.583.117-.816-.117-.233-.234-.466-.467-.7l-4.313-2.449c-.233-.116-.583-.233-.816-.116-.233.116-.466.233-.699.466l-1.749 3.032v-3.498zm0 19.125l3.614-2.099v2.915h-3.731c0-.116.117-.233.117-.349v-.467zm.117-14.227l5.012 2.915-2.215 3.849-2.914-1.633.117-5.131zm5.479 3.498l2.914 5.015-3.731 2.216-1.632-2.916 2.449-4.315zm3.147 5.831v5.831h-4.313v-3.265l.466-.233 3.847-2.333zm-8.743 4.082v-.233l2.681-4.549 1.399 2.566-4.08 2.216zm0-1.749v-5.831l2.565 1.399-.117.35-2.448 4.082zm-6.528-2.333v-4.315h5.828v4.315h-5.828zm0-5.131v-4.315h5.828v4.315h-5.828zm12.007-1.866l-5.013-2.915 1.982-3.499c0-.117.117-.117.233-.117h.233l4.43 2.566c.117 0 .117.117.117.233v.234l-1.982 3.498zm3.73 5.831l-2.914-5.015 3.497-1.982c.117 0 .233-.117.233 0 .117 0 .117.117.233.117l2.565 4.431c0 .117.117.233 0 .233 0 .117-.116.117-.116.233l-3.498 1.983zm4.663 6.531c0 .233-.116.349-.349.349h-3.964v-5.83h3.847c.233 0 .35.116.35.349v5.132h.116zm-19.934.349c-.233 0-.35-.116-.35-.349v-4.665h5.829v4.665c0 .233-.117.349-.35.349h-5.129zm5.013-20.291c.233 0 .349.116.349.35v3.965h-5.828v-3.965c0-.234.116-.35.349-.35h5.13z" fill="#9AB4C1"/><path d="M204.702 117.638c0-.816-.699-1.399-1.399-1.399-.816 0-1.399.7-1.399 1.399 0 .7.7 1.4 1.399 1.4.7 0 1.399-.583 1.399-1.4zm-2.215 0c0-.349.35-.699.7-.699.349 0 .699.35.699.699 0 .35-.35.7-.699.7-.35 0-.7-.35-.7-.7zM269.053 6.793c-2.341 0-4.323 1.982-4.323 4.325 0 2.342 1.982 4.325 4.323 4.325 2.342 0 4.323-1.983 4.323-4.325 0-2.343-1.981-4.325-4.323-4.325zM222.045 22.47l1.621.54c1.801-5.225 5.043-9.73 9.366-13.153 4.864-3.604 10.448-5.586 16.572-5.586 3.962 0 7.925.9 11.528 2.522l.72-1.441c-3.783-1.802-7.925-2.703-12.248-2.703-6.485 0-12.429 1.982-17.472 5.946-4.683 3.424-8.286 8.289-10.087 13.875zm36.381 35.137l.54 1.622c5.584-1.802 10.447-5.406 13.87-10.091 3.782-5.045 5.944-11.172 5.944-17.478 0-4.686-1.261-9.55-3.423-13.695l-1.441.901c2.162 3.964 3.243 8.289 3.243 12.794 0 5.946-1.982 11.712-5.584 16.577-3.423 4.325-8.106 7.568-13.149 9.37zM222.045 41.03c1.441 4.144 3.783 8.108 7.025 11.351 3.242 3.244 7.024 5.586 11.347 7.028l.541-1.622c-3.963-1.261-7.565-3.604-10.627-6.667-3.063-3.063-5.224-6.667-6.665-10.631l-1.621.54zm27.557 14.415c-2.341 0-4.323 1.982-4.323 4.324 0 2.343 1.982 4.325 4.323 4.325 2.342 0 4.323-1.982 4.323-4.325 0-2.342-1.801-4.324-4.323-4.324zm-28.279-28.11c-2.342 0-4.323 1.982-4.323 4.325 0 2.342 1.981 4.324 4.323 4.324 2.342 0 4.323-1.982 4.323-4.325.18-2.342-1.801-4.324-4.323-4.324zm19.273 6.487h2.521l-1.26-8.108-1.261 8.108z" fill="#9AB4C1"/><path d="M269.234 23.371c-4.323-10.631-16.391-15.496-27.018-11.172-10.627 4.325-15.491 16.398-11.168 27.029 4.323 10.63 16.391 15.496 27.019 11.172 10.447-4.325 15.49-16.578 11.167-27.029zm-25.397 15.677l-.36-2.884h-3.062l-.361 2.883h-2.341l2.521-16.217h3.783l2.522 16.218h-2.702zm11.167-10.812h-2.341v-1.802c0-.54-.18-1.08-.36-1.261-.18-.18-.541-.36-.901-.36s-.72.18-.901.36c-.18.18-.36.72-.36 1.261v8.83c0 .54.18 1.08.36 1.26.181.181.541.361.901.361s.721-.18.901-.36c.18-.18.36-.72.36-1.261V32.2h-1.081v-2.342h3.603v5.225c0 1.262-.361 2.343-.901 3.064-.72.72-1.621 1.08-2.882 1.08-1.261 0-2.161-.36-2.882-1.08-.72-.721-.901-1.802-.901-3.064v-8.469c0-1.26.361-2.342.901-3.063.721-.72 1.621-1.081 2.882-1.081 1.261 0 2.162.36 2.882 1.081.72.72.901 1.802.901 3.063v1.622h-.181zm9.367 3.604h-3.062v3.243h-1.801V31.84h-3.063v-1.802h3.063v-3.063h1.801v3.063h3.062v1.802z" fill="#9AB4C1"/></svg>