<svg width="117" height="40" fill="none" xmlns="http://www.w3.org/2000/svg"><path d="M115.675 33.789a4.94 4.94 0 01-4.931 4.93H37.837V1.299h72.907a4.94 4.94 0 014.931 4.93v27.56zm-85.83-6.869s-1.454 1.333-1.99 1.713c-.64.433-2.232 1.402-4.983 1.817-.71.104-2.128.086-2.837 0-2.388-.277-7.769-1.869-7.769-1.869v-8.045h9.568c.57 0 1.02.467 1.02 1.038v1.436c0 .571-.466 1.021-1.02 1.021h-3.945s1.108 1.09 2.024 1.61c.589.328 1.904.691 2.578.743.468.035 1.436-.035 1.869-.207.57-.243 1.868-1.61 1.868-1.61l1.073-.986a.682.682 0 011.004.07l1.643 2.076c.294.346.242.882-.104 1.193zm-18.582 3.564H7.768V19.498h3.495v10.986zm7.301-17.041c.727-1.834 1.834-3.443 2.907-5.087.467-.709.813-.744 1.28-.017.64 1.004 2.681 4.43 2.958 5.19.623 1.748.122 3.495-1.263 4.533-1.384 1.021-3.339 1.004-4.723-.052-1.384-1.072-1.851-2.837-1.159-4.567zM110.744 0H6.211C2.785 0 0 2.785 0 6.228v27.56A6.206 6.206 0 006.211 40h104.533a6.217 6.217 0 006.211-6.211V6.229c0-3.444-2.785-6.229-6.211-6.229z" fill="#9AB4C1"/><path d="M48.164 7.353v4.342h-.986V8.166h-1.54v3.53h-.986V7.352h3.512zm1.819 2.024c.086.017.19.035.328.035.52 0 .848-.26.848-.71 0-.398-.277-.64-.761-.64-.208 0-.346.017-.416.035v1.28zm-.97-1.955c.312-.052.727-.086 1.333-.086.605 0 1.038.12 1.332.346.277.224.467.588.467 1.003 0 .433-.138.779-.398 1.038-.328.311-.83.45-1.418.45-.122 0-.243 0-.33-.017v1.557h-.968V7.422h-.017zm4.568 2.111c0 .848.398 1.453 1.056 1.453.657 0 1.038-.64 1.038-1.47 0-.78-.38-1.454-1.056-1.454-.64 0-1.038.64-1.038 1.47zm3.15-.052c0 1.418-.866 2.284-2.129 2.284-1.28 0-2.041-.97-2.041-2.215 0-1.298.83-2.284 2.11-2.284 1.333.018 2.06 1.021 2.06 2.215zm2.005-.744c0 .502-.07.986-.19 1.436-.07.26-.19.52-.312.727h1.453V8.149h-.951v.588zm1.938-1.384v3.564l.432.035-.052 1.85h-.744l-.052-1.107h-2.543l-.052 1.108h-.744l-.034-1.851.363-.035a4.81 4.81 0 00.415-.969 5.36 5.36 0 00.173-1.436V7.353h2.838zm1.609 0l.64 1.522c.121.312.207.571.294.83h.017c.052-.19.139-.484.242-.847l.468-1.522h1.038l-.813 2.11c-.26.675-.537 1.332-.865 1.73-.295.364-.64.571-1.16.571-.225 0-.363-.017-.484-.069l.07-.796c.068.018.172.035.328.035.294 0 .502-.208.588-.415.035-.07.017-.139-.017-.208l-1.47-2.993h1.124v.052zm4.067 0v1.8h.086l1.194-1.8h1.194L67.3 9.273c.554.139.813.537 1.004 1.056.155.467.294.934.501 1.366H67.75c-.156-.294-.225-.64-.329-.951-.155-.484-.346-.865-.882-.865h-.19v1.816h-.97V7.353h.97zm3.872.83h-1.16v-.83h3.34v.83h-1.194v3.512h-.986V8.183zm5.004-.83v1.678h1.61V7.353h.986v4.342h-.987V9.88h-1.609v1.816h-.986V7.353h.986zm6.039 2.509h-1.591V10.9h1.782v.795h-2.769V7.353h2.682v.813h-1.695v.9h1.591v.796zm5.845.173a54.732 54.732 0 01-.035-1.782h-.017a21.352 21.352 0 01-.485 1.678l-.536 1.695h-.761l-.468-1.678a20.422 20.422 0 01-.397-1.695h-.018c-.017.588-.052 1.263-.069 1.799l-.07 1.66h-.916l.277-4.342h1.315l.432 1.454c.139.501.277 1.038.363 1.557h.018c.12-.502.277-1.073.415-1.557l.467-1.436h1.28l.243 4.342h-.952l-.087-1.695zm2.769-2.682h-.986v4.342h.986V7.353zm4.053 4.221c-.173.087-.588.19-1.107.19-1.505 0-2.284-.934-2.284-2.18 0-1.487 1.055-2.3 2.37-2.3.502 0 .9.103 1.073.19l-.208.779a2.15 2.15 0 00-.83-.156c-.779 0-1.384.467-1.384 1.436 0 .865.519 1.418 1.401 1.418.294 0 .623-.069.813-.138l.156.761zm1.604-3.391h-1.159v-.83h3.34v.83h-1.195v3.512h-.986V8.183zm3.6-.83v1.298c0 .692-.017 1.384-.052 1.972h.035c.225-.502.519-1.09.778-1.54l.935-1.713h1.003v4.343h-.899v-1.28c0-.675.017-1.263.069-1.834h-.018c-.207.519-.484 1.09-.726 1.54l-.882 1.574h-1.125V7.37h.882v-.017zm4.392.83h-1.159v-.83h3.339v.83h-1.194v3.512h-.986V8.183zm3.669 2.803c.104.018.225.018.364.018.484 0 .865-.225.865-.727s-.381-.71-.848-.71c-.138 0-.26.018-.381.018v1.401zm.018-3.633v1.505c.138-.017.346-.034.519-.034.934 0 1.73.45 1.73 1.418 0 .415-.139.727-.346.952-.415.432-1.142.553-1.834.553-.485 0-.848-.034-1.055-.069V7.353h.986zM45.4 16.609h.225c.346 0 .554-.087.554-.294 0-.173-.138-.294-.484-.294-.121 0-.19.017-.294.017v.57zm0 1.176c.087.018.156.018.295.018.294 0 .588-.087.588-.346 0-.243-.225-.346-.623-.346h-.242v.674H45.4zm-.847-2.232a8.371 8.371 0 011.107-.069c.467 0 1.35.052 1.35.71 0 .346-.277.536-.554.588v.017c.415.07.675.294.675.675 0 .778-1.056.848-1.627.848-.38 0-.778-.018-.951-.052v-2.716zm4.585 1.419c-.45 0-.796.104-.796.433 0 .225.138.328.329.328.207 0 .38-.138.432-.31.017-.053.017-.087.017-.14v-.31h.018zm.086 1.298l-.052-.277h-.017c-.173.225-.467.329-.779.329-.553 0-.882-.398-.882-.848 0-.71.64-1.055 1.61-1.055V16.4c0-.138-.07-.346-.503-.346-.276 0-.57.087-.76.208l-.157-.554c.19-.104.571-.242 1.056-.242.917 0 1.21.536 1.21 1.177v.951c0 .26.018.52.035.658h-.76v.017zm2.001-2.734l.623 1.09h.086v-1.09h.83v1.09h.087l.623-1.09h.934l-.951 1.177c.311.052.519.363.64.692.103.311.207.605.328.865h-.847c-.087-.139-.139-.346-.243-.623-.103-.294-.276-.467-.501-.467h-.07v1.09h-.83v-1.09h-.07c-.241 0-.397.156-.518.467-.104.294-.156.485-.242.623h-.848c.138-.26.225-.554.329-.865.12-.346.328-.64.64-.71l-.934-1.159h.934zm4.381 0v1.09h.104l.692-1.09h1.003l-1.003 1.177c.329.069.536.363.692.761.087.225.19.554.329.813h-.883c-.069-.12-.138-.311-.242-.605-.12-.312-.294-.485-.57-.485h-.087v1.09h-.848v-2.75h.813zm2.926 0v.83c0 .433-.017.745-.052 1.125h.017c.139-.311.208-.519.312-.778l.553-1.177H60.4v2.734h-.813v-.83c0-.433.018-.606.052-1.194h-.017a7.38 7.38 0 01-.294.744c-.173.38-.38.865-.571 1.28h-1.038v-2.734h.813zm3.198 0l.26.45c.07.139.156.277.225.415h.017c.07-.138.139-.294.208-.415l.242-.45h.934l-.9 1.298.918 1.436h-.97l-.276-.485-.208-.415h-.017l-.207.415-.26.485h-.934l.934-1.401-.917-1.333h.952zm3.474 0h1.09l.294 1.038c.052.156.121.45.173.692h.017c.052-.19.139-.484.225-.743l.312-.987h1.072l.173 2.734h-.796l-.051-1.09c0-.242-.018-.64-.035-.952h-.017c-.104.364-.121.45-.26.9l-.363 1.107h-.606l-.328-1.09c-.07-.26-.156-.657-.225-.917h-.018c-.017.346-.017.727-.034.952l-.052 1.09h-.761l.19-2.734zm5.576 1.056c0-.208-.087-.554-.485-.554-.363 0-.502.329-.519.554h1.004zm-1.004.588c.035.346.38.519.779.519.294 0 .519-.035.76-.104l.105.571c-.277.121-.623.173-.987.173-.934 0-1.47-.536-1.47-1.401 0-.692.432-1.47 1.384-1.47.882 0 1.228.691 1.228 1.366 0 .138-.017.277-.034.329h-1.765v.017zm4.429-1.644v.64h-.796v2.094h-.865v-2.093h-.796v-.64h2.457zm1.802 1.436c-.45 0-.796.104-.796.433 0 .225.139.328.329.328.208 0 .38-.138.45-.31.017-.053.017-.087.017-.14v-.31zm.104 1.298l-.052-.277h-.017c-.173.225-.45.329-.779.329-.553 0-.882-.398-.882-.848 0-.71.64-1.055 1.609-1.055V16.4c0-.138-.07-.346-.502-.346-.277 0-.57.087-.761.208l-.156-.554a2.32 2.32 0 011.073-.242c.917 0 1.21.536 1.21 1.177v.951c0 .26.018.52.035.658h-.778v.017zm3.803-2.734v2.734h-.848v-2.093h-.588v.501c0 .658-.087 1.125-.38 1.384-.174.19-.416.26-.797.26l-.086-.658c.121-.017.242-.069.294-.155.156-.156.173-.416.173-.883v-1.09h2.232zm.676 0h.848v2.734h-.847v-2.734zm.883-.76c0 .241-.173.432-.467.432-.26 0-.45-.19-.433-.433 0-.242.173-.432.45-.432.26 0 .433.19.45.432zm1.487 1.833h.224c.346 0 .554-.087.554-.294 0-.173-.139-.294-.485-.294-.12 0-.19.017-.294.017v.57zm0 1.176c.086.018.155.018.293.018.294 0 .588-.087.588-.346 0-.243-.224-.346-.622-.346h-.243v.674h-.017zm-.849-2.232a8.389 8.389 0 011.108-.069c.467 0 1.35.052 1.35.71 0 .346-.295.536-.555.588v.017c.416.07.675.294.675.675 0 .778-1.055.848-1.626.848-.38 0-.779-.018-.952-.052v-2.716zm2.768 3.392c.173-.502.329-1.09.398-1.592l.865-.052c-.19.57-.433 1.16-.71 1.592l-.553.052zm4.981-1.177c.414-.086.605-.432.605-.865 0-.432-.19-.76-.606-.847v1.712zm-.762-1.73c-.415.104-.606.45-.606.865 0 .45.19.762.606.866v-1.73zm.761-1.747v1.194c.796.069 1.453.536 1.453 1.418 0 .883-.674 1.35-1.453 1.402v1.073h-.761v-1.056c-.761-.07-1.454-.519-1.454-1.401 0-.9.658-1.35 1.454-1.436V14.29h.761zm3.635 2.301c0-.208-.086-.554-.484-.554-.363 0-.502.329-.52.554h1.004zm-1.003.588c.034.346.38.519.778.519.294 0 .52-.035.762-.104l.103.571c-.276.121-.622.173-.986.173-.934 0-1.47-.536-1.47-1.401 0-.692.432-1.47 1.384-1.47.882 0 1.228.691 1.228 1.366 0 .138-.017.277-.034.329H92.49v.017zm3.148-1.644v.987h.865v-.987h.865v2.734h-.865v-1.09h-.865v1.09h-.848v-2.734h.848zm3.131 1.367c0 .467.191.83.554.83.33 0 .537-.328.537-.83 0-.415-.156-.83-.537-.83-.415 0-.553.432-.553.83zm1.973-.034c0 1.003-.709 1.47-1.453 1.47-.796 0-1.419-.536-1.419-1.419 0-.882.588-1.453 1.47-1.453.848 0 1.402.588 1.402 1.402zm2.925-1.333v2.734h-.848v-2.093h-.588v.501c0 .658-.087 1.125-.381 1.384-.173.19-.415.26-.796.26l-.086-.658c.121-.017.242-.069.294-.155.156-.156.173-.416.173-.883v-1.09h2.232zm.677 0h.847v2.734h-.847v-2.734zm.882-.76c0 .241-.173.432-.467.432-.26 0-.45-.19-.433-.433 0-.242.173-.432.45-.432s.433.19.45.432zm1.486 1.833h.225c.346 0 .554-.087.554-.294 0-.173-.139-.294-.485-.294-.121 0-.19.017-.294.017v.57zm-.017 1.176c.086.018.155.018.294.018.294 0 .588-.087.588-.346 0-.243-.225-.346-.623-.346h-.242v.674h-.017zm-.831-2.232a8.389 8.389 0 011.108-.069c.467 0 1.366.052 1.366.71 0 .346-.294.536-.553.588v.017c.415.07.674.294.674.675 0 .778-1.055.848-1.626.848-.381 0-.778-.018-.951-.052v-2.716h-.018zm2.772 3.392a9 9 0 00.398-1.592l.865-.052c-.191.57-.433 1.16-.71 1.592l-.553.052zm-62.614 4.757c-.45 0-.796.104-.796.433 0 .225.138.329.329.329.207 0 .38-.139.432-.312.017-.052.017-.086.017-.138v-.312h.018zM46.127 25l-.052-.277h-.018c-.173.225-.467.329-.778.329-.554 0-.883-.398-.883-.83 0-.71.64-1.056 1.61-1.056v-.035c0-.138-.07-.346-.502-.346-.277 0-.571.087-.761.208l-.156-.554c.19-.103.57-.242 1.055-.242.917 0 1.211.537 1.211 1.177v.951c0 .26.017.52.035.658h-.761V25zm3.787-2.733V25h-.848v-2.093h-.588v.502c0 .657-.087 1.124-.38 1.384-.174.19-.416.26-.797.26l-.086-.658a.49.49 0 00.311-.156c.156-.156.173-.415.173-.882V22.25h2.215v.017zm1.536 0v1.09h.104l.692-1.09h1.003l-1.003 1.176c.328.07.519.363.692.761.086.225.19.554.328.796h-.882c-.07-.12-.138-.311-.242-.605-.121-.312-.294-.485-.571-.485h-.087V25h-.847v-2.733h.813zm2.113 0h.848V25h-.848v-2.733zm.883-.78c0 .243-.173.434-.468.434-.259 0-.45-.19-.432-.433 0-.242.173-.433.45-.433s.45.19.45.433zm3.046.78V25h-.848v-2.093h-.588v.502c0 .657-.087 1.124-.38 1.384-.174.19-.416.26-.797.26l-.086-.658c.121-.017.242-.07.294-.156.156-.156.173-.415.173-.882V22.25h2.232v.017zm2.732 2.213c.415-.086.606-.432.606-.864 0-.433-.19-.761-.606-.848v1.713zm-.761-1.712c-.416.104-.606.45-.606.865 0 .45.19.761.606.865v-1.73zm.761-1.747v1.194c.779.069 1.453.536 1.453 1.418 0 .883-.674 1.35-1.453 1.402v1.072h-.778v-1.055c-.762-.07-1.454-.52-1.454-1.401 0-.9.658-1.367 1.454-1.436V21.02h.778zm3.636 2.301c0-.208-.087-.554-.485-.554-.363 0-.502.33-.519.554h1.004zm-1.004.571c.035.363.38.519.779.519.294 0 .519-.035.76-.104l.105.571a2.864 2.864 0 01-.986.173c-.935 0-1.471-.536-1.471-1.401 0-.692.432-1.47 1.384-1.47.882 0 1.228.691 1.228 1.366 0 .138-.017.277-.034.329h-1.765v.017zm3.15-1.626v.986h.865v-.986h.865V25h-.865v-1.09h-.865V25h-.848v-2.733h.848zm3.13 1.349c0 .467.19.83.554.83.329 0 .536-.328.536-.83 0-.415-.156-.83-.536-.83-.415.017-.554.432-.554.83zm1.973-.017c0 1.003-.71 1.47-1.436 1.47-.796 0-1.42-.536-1.42-1.418 0-.883.59-1.454 1.472-1.454.83 0 1.384.571 1.384 1.402zm2.904-1.332V25h-.847v-2.093h-.589v.502c0 .657-.086 1.124-.38 1.384-.173.19-.415.26-.796.26l-.087-.658c.122-.017.243-.07.295-.156.155-.156.173-.415.173-.882V22.25h2.231v.017zm2.349 1.055c0-.208-.087-.554-.485-.554-.363 0-.502.33-.519.554h1.004zm-1.004.571c.035.363.38.519.779.519.294 0 .519-.035.76-.104l.105.571a2.865 2.865 0 01-.986.173c-.935 0-1.471-.536-1.471-1.401 0-.692.432-1.47 1.384-1.47.882 0 1.228.691 1.228 1.366 0 .138-.017.277-.034.329h-1.765v.017zm4.437-1.626v.64h-.796V25h-.865v-2.093h-.796v-.64h2.457zm1.052 1.349c0 .467.19.83.554.83.329 0 .536-.328.536-.83 0-.415-.156-.83-.536-.83-.398.017-.554.432-.554.83zm1.973-.017c0 1.003-.71 1.47-1.436 1.47-.796 0-1.42-.536-1.42-1.418 0-.883.59-1.454 1.471-1.454.83 0 1.385.571 1.385 1.402zm1.384-1.332v1.09h.104l.692-1.09h1.003L85 23.443c.328.07.519.363.692.761.086.225.19.554.328.796h-.882c-.07-.12-.138-.311-.242-.605-.121-.312-.294-.485-.571-.485h-.087V25h-.847v-2.733h.813zm4.156 2.663c-.157.07-.433.122-.762.122-.882 0-1.454-.536-1.454-1.401 0-.796.554-1.454 1.575-1.454.225 0 .467.035.657.104l-.138.64c-.104-.052-.26-.086-.484-.086-.45 0-.744.311-.727.76 0 .503.329.78.744.78.207 0 .363-.035.484-.087l.104.623zm1.26-2.663v.83c0 .433-.018.744-.052 1.107h.017c.121-.31.208-.519.311-.778l.537-1.176h1.038v2.733h-.813v-.83c0-.433.017-.606.052-1.194h-.018a7.405 7.405 0 01-.294.744c-.173.38-.38.848-.57 1.28h-1.039V22.25h.83v.017zm4.944 0V25h-.848v-2.093h-.588v.502c0 .657-.086 1.124-.38 1.384-.173.19-.416.26-.796.26l-.087-.658a.49.49 0 00.312-.156c.155-.156.173-.415.173-.882V22.25h2.214v.017zm2.135 1.435c-.45 0-.796.104-.796.433 0 .225.138.329.328.329a.493.493 0 00.45-.312c.018-.052.018-.086.018-.138v-.312zM96.802 25l-.052-.277h-.017c-.173.225-.45.329-.778.329-.554 0-.883-.398-.883-.83 0-.71.64-1.056 1.61-1.056v-.035c0-.138-.07-.346-.502-.346-.277 0-.571.087-.762.208l-.155-.554a2.32 2.32 0 011.072-.242c.917 0 1.211.537 1.211 1.177v.951c0 .26.018.52.035.658h-.779V25zm3.508-2.733v.64h-.796V25h-.865v-2.093h-.796v-.64h2.457zm.379 0h.848V25h-.848v-2.733zm.882-.78c0 .243-.173.434-.467.434-.277 0-.45-.19-.45-.433 0-.242.173-.433.45-.433s.45.19.467.433zm1.491 1.835h.225c.346 0 .554-.087.554-.294 0-.173-.139-.294-.485-.294-.121 0-.19.017-.294.017v.57zm0 1.194c.087.017.156.017.294.017.295 0 .589-.087.589-.363 0-.225-.225-.346-.623-.346h-.242v.692h-.018zm-.847-2.232a8.25 8.25 0 011.107-.07c.467 0 1.349.053 1.349.693 0 .346-.277.536-.553.588v.017c.415.07.674.294.674.675 0 .778-1.055.848-1.626.848-.38 0-.778-.035-.969-.052v-2.7h.018zM105 25.657a8.91 8.91 0 00.398-1.591l.865-.052c-.19.57-.433 1.159-.709 1.591l-.554.052zm-58.977 4.776c-.45 0-.796.103-.796.432 0 .225.138.329.329.329.207 0 .38-.139.432-.312.017-.052.017-.086.017-.138v-.311h.018zm.104 1.297l-.052-.277h-.018c-.173.225-.467.346-.778.346-.554 0-.883-.398-.883-.847 0-.71.64-1.056 1.61-1.056v-.034c0-.139-.07-.346-.502-.346-.277 0-.571.086-.761.207l-.156-.553c.19-.104.57-.243 1.055-.243.917 0 1.211.537 1.211 1.177v.951a6 6 0 00.035.658h-.761v.017zm1.487-2.75h1.09l.294 1.037c.052.156.121.45.173.692h.017c.052-.19.139-.484.225-.744l.312-.968h1.072l.173 2.733h-.796l-.051-1.09c0-.242-.018-.64-.035-.951h-.017c-.104.363-.121.45-.26.9l-.363 1.124h-.623l-.329-1.09c-.069-.26-.156-.658-.225-.917h-.017c-.017.346-.017.727-.035.952l-.052 1.09h-.76l.207-2.769zm3.926 0h.848v2.733h-.848v-2.734zm.882-.762c0 .242-.173.433-.467.433-.277 0-.45-.19-.432-.433 0-.242.173-.432.45-.432.276 0 .45.19.45.432zm2.11 2.215c-.45 0-.795.103-.795.432 0 .225.155.329.328.329a.453.453 0 00.433-.312c.017-.052.017-.086.017-.138v-.311h.017zm.104 1.297l-.052-.277h-.017c-.173.225-.467.346-.778.346-.554 0-.883-.398-.883-.847 0-.71.64-1.056 1.61-1.056v-.034c0-.139-.087-.346-.502-.346-.277 0-.571.086-.762.207l-.155-.553c.19-.104.57-.243 1.055-.243.917 0 1.211.537 1.211 1.177v.951a6 6 0 00.035.658h-.762v.017zm2.251-2.75v1.09h.104l.692-1.09h1.003l-1.003 1.176c.328.069.519.363.692.761.086.225.19.554.328.796h-.917c-.069-.121-.138-.312-.242-.606-.12-.311-.294-.484-.57-.484h-.087v1.09h-.848v-2.734h.848zm2.838 0l.415 1.349c.052.156.104.363.139.502h.017c.035-.139.086-.364.121-.502l.329-1.35h.917l-.64 1.8c-.398 1.09-.658 1.522-.97 1.799-.293.26-.605.346-.83.38l-.173-.726c.104-.017.242-.07.364-.138a.947.947 0 00.346-.347.187.187 0 00.052-.12c0-.035 0-.07-.035-.139l-1.004-2.509h.952zm1.865 2.283c0-.294.207-.52.502-.52.294 0 .501.209.501.52 0 .294-.207.519-.501.519-.294 0-.502-.225-.502-.52z" fill="#9AB4C1"/></svg>