<svg width="8" height="8" viewBox="0 0 8 8" fill="none" xmlns="http://www.w3.org/2000/svg">
<path d="M4 0C1.79084 0 0 1.79084 0 4C0 6.20924 1.79084 8 4 8C6.20924 8 8 6.20924 8 4C8 1.79084 6.20924 0 4 0ZM3.99991 6.37778C3.70284 6.37778 3.46116 6.13627 3.46116 5.83938C3.46116 5.54196 3.70284 5.30018 3.99991 5.30018C4.29707 5.30018 4.53884 5.54222 4.53884 5.83938C4.53893 6.13627 4.29707 6.37778 3.99991 6.37778ZM5.44338 3.4496C5.33902 3.612 5.19493 3.80604 4.90756 4.03013C4.62196 4.24889 4.53556 4.36116 4.50951 4.40871C4.49476 4.43529 4.47378 4.48827 4.45707 4.58684C4.45129 4.62151 4.44649 4.65902 4.44267 4.69929L4.42009 4.94053L3.55156 4.94258L3.56258 4.66462C3.56409 4.62907 3.56791 4.55929 3.57751 4.49413C3.60631 4.296 3.67396 4.12 3.77849 3.97129C3.87662 3.83147 4.06711 3.65458 4.36062 3.43093C4.57769 3.26533 4.66249 3.17067 4.6952 3.12053C4.73698 3.0568 4.75716 2.98969 4.75716 2.91564C4.75716 2.744 4.69449 2.60809 4.57102 2.51164C4.44 2.40933 4.25831 2.35742 4.0312 2.35742C3.82987 2.35742 3.66 2.41067 3.52613 2.51547C3.38444 2.6256 3.28498 2.77796 3.23769 2.95671L3.17902 3.17822L2.32898 3.08604L2.38907 2.79822C2.46729 2.42329 2.64373 2.13387 2.91369 1.93804C3.26338 1.68427 3.63867 1.55556 4.02942 1.55556C4.46107 1.55556 4.8144 1.66658 5.14124 1.90498C5.44338 2.1256 5.61671 2.48204 5.61671 2.88293C5.61671 3.07929 5.56 3.26462 5.44338 3.4496Z" fill="#9AB4C1"/>
</svg>
