<svg width="215" height="73" fill="none" xmlns="http://www.w3.org/2000/svg"><path d="M150.208 24.708l2.945 7.997h-1.893l-.631-1.683h-3.366l-.631 1.683h-1.894l2.945-7.997h2.525zm-1.262 1.263l-1.263 3.788h2.525l-1.262-3.788zm6.942 6.734l-2.946-7.997h2.104l2.104 6.314 2.104-6.314h2.103l-2.945 7.997h-2.524zm10.73-7.997l2.945 7.997h-1.893l-.631-1.683h-3.366l-.631 1.683h-1.894l2.946-7.997h2.524zm-1.262 1.263l-1.262 3.788h2.524l-1.262-3.788zm10.308.21h-2.103v6.524h-1.894v-6.524h-2.104v-1.473h6.312v1.473h-.211zm3.155 6.524h-1.893v-7.997h1.893v7.997zm9.675 0h-2.103l-3.787-5.682v5.471h-1.683v-7.996h2.104l3.786 5.682v-5.682h1.683v8.207zm7.575-6.524h-2.104v6.524h-1.894v-6.524h-2.103v-1.473h6.311v1.473h-.21zm-53.645 14.732h-2.104v6.524h-1.893v-6.524h-2.104V39.44h6.311v1.473h-.21zm3.156 6.524h-1.893V39.44h1.893v7.997zm2.105-7.997h1.893v3.577l.631-.42 2.525-3.157h2.104l-3.156 3.788 3.366 4.209h-2.104l-2.735-3.157-.841.42v2.737h-1.893V39.44h.21zm8.834 0h1.893v3.577l.631-.42 2.525-3.157h2.104l-3.156 3.788 3.366 4.209h-2.104l-2.735-3.157-.841.42v2.737h-1.893V39.44h.21zm8.414 5.05v-5.05h1.893v4.63c0 1.052.421 1.893 1.683 1.893s1.683-.63 1.683-1.894v-4.63h1.893v5.051c0 1.684-1.052 3.157-3.576 3.157-2.525 0-3.576-1.473-3.576-3.157zm15.357-2.315c0 1.263-.631 1.894-1.473 2.315l1.894 2.947h-2.104l-1.683-2.526h-.842v2.526h-1.683V39.44h2.735c2.104 0 3.156.841 3.156 2.735zm-4.208-1.262v2.736h.842c1.052 0 1.683-.421 1.683-1.474 0-.841-.631-1.262-1.683-1.262h-.842zm7.997 6.524h-1.893V39.44h1.893v7.997zm7.781 0h-5.68V39.44h1.893v6.523h3.787v1.474zm6.314-7.997l2.945 7.997h-1.893l-.631-1.684h-3.366l-.632 1.684h-1.893l2.945-7.997h2.525zm-1.262 1.262l-1.263 3.788h2.525l-1.262-3.788zM20.195 44.91c-.63 0-1.051.422-1.051 1.263v6.735c0 .842.42 1.262 1.051 1.262s1.052-.42 1.052-1.262v-6.735c-.21-1.052-.63-1.262-1.052-1.262zm29.663-25.674c-.42 0-.841.21-1.051.42-.421.422-.421.843-.421 1.474v10.312c0 .631.21 1.263.42 1.473.21.21.632.421 1.052.421.421 0 .842-.21 1.052-.42.21-.211.42-.843.42-1.474V21.13c0-.631-.21-1.263-.42-1.473-.21-.21-.63-.421-1.052-.421zm1.054 25.884h-.842v4.21h.842c.63 0 1.052-.21 1.052-1.263v-1.894c-.21-.842-.421-1.052-1.052-1.052zm-7.576-.21c-.631 0-1.052.422-1.052 1.263v6.735c0 .842.42 1.262 1.052 1.262.631 0 1.052-.42 1.052-1.262v-6.735c0-1.052-.42-1.262-1.052-1.262zm-7.364 4.63h-.841v4.21h.841c.631 0 1.052-.21 1.052-1.263v-1.894c0-.632-.42-1.053-1.052-1.053zm3.368-30.304c-.42 0-.84.21-1.051.42-.21.211-.42.843-.42 1.474v10.312c0 .631.21 1.263.42 1.473.21.21.631.421 1.052.421.42 0 .841-.21 1.052-.42.21-.211.42-.843.42-1.474V21.13c0-.631-.21-1.263-.42-1.473a1.61 1.61 0 00-1.052-.421zm21.037 0c-.42 0-.842.21-1.052.42-.42.422-.42.843-.42 1.474v10.312c0 .631.21 1.263.42 1.473.21.21.631.421 1.052.421.42 0 .841-.21 1.052-.42.21-.211.42-.843.42-1.474V21.13c0-.631-.21-1.263-.42-1.473a1.608 1.608 0 00-1.052-.421z" fill="#586386"/><path d="M72.999.085H0v72.184h215V.085H72.999zM20.196 21.34c0-1.473.42-2.735 1.262-3.577.841-.842 1.893-1.263 3.366-1.263s2.524.421 3.366 1.263c.841.842 1.262 2.104 1.262 3.577v9.892c0 1.473-.42 2.736-1.262 3.577-.842.842-1.893 1.263-3.366 1.263s-2.525-.42-3.366-1.263c-.842-.841-1.262-2.104-1.262-3.577V21.34zM9.677 29.76h2.945v1.683c0 .631.21 1.263.421 1.473.21.421.631.421 1.052.421.631 0 .841 0 1.262-.42.21-.211.42-.843.42-1.474v-4.209c0-.631-.21-1.263-.42-1.473a1.608 1.608 0 00-1.052-.421c-.42 0-.841.21-1.052.42-.42.422-.63.843-.63 1.474v.631H9.676l.631-11.154h7.994v2.736h-5.259l-.21 4.63c.63-.841 1.472-1.473 2.524-1.473s1.893.421 2.525 1.052c.63.842.841 1.894.841 3.157v4.21c0 1.472-.42 2.735-1.052 3.577-.841.842-1.893 1.263-3.366 1.263-1.472 0-2.524-.421-3.366-1.263-.841-.842-1.052-2.105-1.052-3.578V29.76h-.21zM16.2 55.644h-2.104l-1.893-4.84-.632 1.052v3.788H9.677V43.438h1.893v5.261l2.525-5.261h1.893l-2.735 5.471 2.946 6.735zm6.731-2.947c0 1.895-1.051 3.157-2.945 3.157-1.893 0-2.945-1.052-2.945-3.157v-6.313c0-1.894 1.052-3.157 2.945-3.157 1.894 0 2.945 1.053 2.945 3.157v6.313zm8.415 2.947h-1.893V45.12H27.77l-.21 7.366c0 2.315-.842 3.157-2.735 3.157h-.21V53.96c.841 0 1.051-.21 1.262-1.263l.21-9.26h5.47v12.207h-.21zm7.574-3.157c0 1.894-1.052 2.946-2.945 2.946H33.24V43.227h1.893v4.63h.842c1.893 0 2.945 1.053 2.945 2.947v1.683zM35.974 34.81c-.842-.841-1.263-2.104-1.263-3.577V21.34c0-1.473.421-2.735 1.263-3.577.841-.842 1.893-1.263 3.366-1.263 1.472 0 2.524.421 3.365 1.263.842.842 1.263 2.104 1.263 3.577v9.892c0 1.473-.421 2.736-1.263 3.577-.841.842-1.893 1.263-3.365 1.263-1.473 0-2.735-.42-3.366-1.263zm10.308 17.889c0 1.894-1.052 3.156-2.945 3.156-1.894 0-2.946-1.052-2.946-3.157v-6.313c0-1.894 1.052-3.157 2.946-3.157 1.893 0 2.945 1.053 2.945 3.157v6.313zm7.363-4.84c0 1.893-1.052 2.946-2.945 2.946h-.842v4.63h-1.893V43.226H50.7c1.893 0 2.945 1.053 2.945 2.947v1.683zm.841-16.626c0 1.473-.42 2.736-1.262 3.577-.841.842-1.893 1.263-3.366 1.263-1.472 0-2.524-.42-3.366-1.263-.841-.841-1.262-2.104-1.262-3.577V21.34c0-1.473.42-2.735 1.262-3.577.842-.842 1.894-1.263 3.366-1.263 1.473 0 2.525.421 3.366 1.263.842.842 1.262 2.104 1.262 3.577v9.892zm2.735 24.412h-1.893V43.438h1.893v12.206zm7.574-2.947c0 1.895-1.052 2.947-2.946 2.947h-2.945V43.438h2.945c2.104 0 2.946.841 2.946 2.736v.42c0 1.263-.421 2.105-1.263 2.526 1.052.42 1.473 1.263 1.473 2.736v.841h-.21zm.21-21.465c0 1.473-.42 2.736-1.262 3.577-.842.842-1.894 1.263-3.366 1.263-1.473 0-2.525-.42-3.366-1.263-.842-.841-1.263-2.104-1.263-3.577V21.34c0-1.473.421-2.735 1.263-3.577.841-.842 1.893-1.263 3.366-1.263 1.472 0 2.524.421 3.366 1.263.841.842 1.262 2.104 1.262 3.577v9.892zm147.891 39.143H74.892V1.98h138.004v68.396z" fill="#586386"/><path d="M24.823 33.336c.42 0 .842-.21 1.052-.42.21-.211.42-.843.42-1.474V21.13c0-.631-.21-1.263-.42-1.473a1.608 1.608 0 00-1.052-.421c-.42 0-.841.21-1.052.42-.21.211-.42.843-.42 1.474v10.312c0 .631.21 1.263.42 1.473.21.421.421.421 1.052.421zm37.869 13.679v-.632c0-.842-.21-1.262-1.052-1.262h-.84v3.156h.841c.631 0 1.052-.42 1.052-1.262zm-1.052 2.946h-.84v3.788h1.052c.63 0 1.052-.21 1.052-1.262v-1.052c0-1.053-.421-1.474-1.263-1.474zm38.288-31.566a1.886 1.886 0 00-1.894-1.895h-9.256a1.886 1.886 0 00-1.893 1.895V53.75c0 1.053.841 1.894 1.893 1.894h35.343a1.886 1.886 0 001.893-1.894v-9.26a1.886 1.886 0 00-1.893-1.894h-6.312l5.47-3.156c.421-.21.842-.632.842-1.263.21-.421 0-1.052-.211-1.473l-4.628-7.997c-.21-.421-.631-.842-1.262-.842-.421-.21-1.052 0-1.473.21l-5.469 3.157 3.155-5.472c.21-.42.421-1.052.21-1.473-.21-.42-.42-.842-.841-1.263l-7.784-4.419c-.421-.21-1.052-.42-1.472-.21-.421.21-.842.42-1.263.841l-3.155 5.472v-6.313zm0 34.513l6.521-3.788v5.262h-6.731c0-.21.21-.421.21-.632v-.842zm.21-25.675l9.046 5.262-3.997 6.945-5.26-2.947.211-9.26zm9.888 6.314l5.259 9.05-6.732 3.998-2.945-5.261 4.418-7.787zm5.68 10.523v10.522h-7.784v-5.893l.841-.42 6.943-4.21zm-15.778 7.365v-.42l4.838-8.208 2.525 4.63-7.363 3.998zm0-3.157V37.757l4.628 2.525-.21.632-4.418 7.366zM88.147 44.07v-7.786h10.519v7.786H88.147zm0-9.26v-7.786h10.519v7.787H88.147zm21.668-3.366l-9.046-5.262 3.577-6.313c0-.21.21-.21.42-.21h.421l7.994 4.63c.211 0 .211.21.211.42v.421l-3.577 6.313zm6.732 10.522l-5.259-9.05 6.311-3.577c.21 0 .421-.21.421 0 .21 0 .21.21.421.21l4.628 7.997c0 .211.21.421 0 .421 0 .21-.211.21-.211.421l-6.311 3.578zm8.415 11.785c0 .421-.21.632-.631.632h-7.153V43.859h6.943c.42 0 .631.21.631.631v9.26h.21zm-35.974.632c-.42 0-.63-.21-.63-.632v-8.418h10.518v8.418c0 .421-.21.632-.631.632h-9.257zm9.046-36.619c.421 0 .632.21.632.631v7.156H88.147v-7.155c0-.421.21-.632.631-.632h9.256z" fill="#586386"/><path d="M96.142 49.962c0-1.473-1.263-2.526-2.525-2.526-1.472 0-2.524 1.263-2.524 2.526s1.262 2.525 2.524 2.525 2.525-1.052 2.525-2.525zm-3.997 0c0-.631.63-1.263 1.262-1.263.631 0 1.262.632 1.262 1.263 0 .631-.631 1.263-1.262 1.263s-1.262-.632-1.262-1.263z" fill="#586386"/></svg>