<svg width="60" height="60" fill="none" xmlns="http://www.w3.org/2000/svg"><circle cx="30" cy="30" r="22" fill="#F0F1F8"/><circle cx="30" cy="30" r="29.835" stroke="#9AB4C1" stroke-width=".33"/><path d="M37.933 40.45l-5.294-10.553v-7.872h.378a.382.382 0 00.378-.378v-2.269a.382.382 0 00-.378-.378h-6.05a.381.381 0 00-.378.378v2.269c0 .206.172.378.378.378h.378v7.872L22.052 40.45c-.07.103-.07.24 0 .378.103.103.206.172.343.172h15.16c.137 0 .24-.069.31-.172.102-.103.102-.275.068-.378zM27.345 19.756h5.294v1.513h-5.294v-1.513zm-4.33 20.488l5.052-10.072c.035-.069.035-.103.035-.172v-7.975h3.78V30c0 .069 0 .103.035.172l5.053 10.072H23.014z" fill="#000C31"/><path d="M29.235 22.781a.382.382 0 00-.378.378v5.294c0 .206.172.378.378.378a.382.382 0 00.379-.378V23.16a.382.382 0 00-.379-.378z" fill="#000C31"/></svg>