<svg width="60" height="60" fill="none" xmlns="http://www.w3.org/2000/svg"><circle cx="30" cy="30" r="22" fill="#F0F1F8"/><circle cx="30" cy="30" r="29.835" stroke="#9AB4C1" stroke-width=".33"/><path d="M40.653 41H24.748a.482.482 0 010-.964H40.17v-9.64H24.748a.482.482 0 010-.964h15.905c.266 0 .482.216.482.482v10.604a.482.482 0 01-.482.482z" fill="#000C31"/><path d="M25.23 41h-6.748a.48.48 0 01-.479-.533l1.928-18.316a.482.482 0 01.48-.432h2.891c.247 0 .454.186.48.432l1.927 18.316a.486.486 0 01-.12.373.476.476 0 01-.359.16zm-6.213-.964h5.678l-1.827-17.352h-2.024l-1.827 17.352zM32.614 22.8c-1.459 0-2.7-.455-3.904-.896-1.3-.476-2.51-.922-3.906-.76a.48.48 0 01-.514-.329.48.48 0 01.221-.569C26 19.408 27.368 19 28.692 19c1.339 0 2.446.406 3.517.798 1.015.372 1.973.723 3.086.723.603 0 1.201-.102 1.831-.312a.481.481 0 01.424.855c-1.719 1.168-3.333 1.736-4.935 1.736zm-5.861-2.51c.797.163 1.55.438 2.289.708 1.175.43 2.286.837 3.572.837.69 0 1.39-.124 2.11-.377-1.041-.094-1.956-.43-2.845-.756-1.04-.381-2.018-.74-3.186-.74a6.32 6.32 0 00-1.94.329zm11.009 15.89h-3.856a.483.483 0 01-.482-.482v-3.856c0-.266.217-.482.482-.482h3.856c.265 0 .482.216.482.482v3.856a.482.482 0 01-.482.482zm-3.374-.964h2.892v-2.892h-2.892v2.892zm-3.373.964h-3.856a.482.482 0 01-.482-.482v-3.856c0-.266.216-.482.482-.482h3.856c.265 0 .482.216.482.482v3.856a.482.482 0 01-.482.482zm-3.374-.964h2.892v-2.892H27.64v2.892z" fill="#000C31"/></svg>