<svg width="60" height="60" fill="none" xmlns="http://www.w3.org/2000/svg"><circle cx="30" cy="30" r="22" fill="#F0F1F8"/><circle cx="30" cy="30" r="29.835" stroke="#9AB4C1" stroke-width=".33"/><path d="M38.231 32.283V27.74C39.245 27.53 40 26.65 40 25.607c0-1.206-.99-2.18-2.217-2.18a2.26 2.26 0 00-1.65.72l-3.963-2.25c.07-.231.141-.463.141-.718 0-1.205-.99-2.179-2.217-2.179-1.226 0-2.217.974-2.217 2.18 0 .208.047.416.095.625l-4.104 2.341a2.224 2.224 0 00-1.651-.718c-1.226 0-2.217.973-2.217 2.179 0 1.043.755 1.924 1.769 2.133v4.543c-1.014.21-1.769 1.09-1.769 2.133 0 1.206.99 2.18 2.217 2.18a2.26 2.26 0 001.65-.72l4.01 2.273c-.07.208-.118.44-.118.672 0 1.205.991 2.179 2.217 2.179 1.227 0 2.217-.974 2.217-2.18 0-.231-.047-.463-.117-.671l4.056-2.272c.401.44.99.718 1.651.718 1.226 0 2.217-.973 2.217-2.179 0-1.043-.755-1.924-1.769-2.133zm-2.123.696L32.1 30.707c.07-.209.118-.44.118-.695a2.12 2.12 0 00-.118-.673l4.033-2.272c.307.325.708.58 1.18.673v4.543a2.178 2.178 0 00-1.203.696zM30 31.287c-.707 0-1.297-.58-1.297-1.275 0-.696.59-1.275 1.297-1.275s1.297.58 1.297 1.275-.59 1.275-1.297 1.275zm-7.311.996V27.74a2.208 2.208 0 001.155-.65l4.033 2.273a1.98 1.98 0 00-.118.649c0 .231.048.463.118.672l-4.01 2.272a2.222 2.222 0 00-1.178-.673zm15.094-7.951c.708 0 1.297.58 1.297 1.275s-.59 1.275-1.297 1.275c-.708 0-1.297-.58-1.297-1.275s.566-1.275 1.297-1.275zm-2.123.603c-.07.208-.117.44-.117.672 0 .232.047.464.117.672l-4.01 2.272a2.144 2.144 0 00-1.202-.672v-4.544c.495-.07.944-.325 1.25-.649l3.962 2.249zm-5.59-5.03c.708 0 1.298.579 1.298 1.274 0 .696-.59 1.275-1.297 1.275-.708 0-1.297-.58-1.297-1.275.023-.695.59-1.275 1.297-1.275zm-1.65 2.711c.283.325.66.557 1.108.673v4.59a2.115 2.115 0 00-1.179.695l-4.01-2.272c.071-.208.119-.44.119-.695 0-.232-.048-.464-.118-.672l4.08-2.319zm-7.5 2.991c0-.695.59-1.275 1.297-1.275s1.297.58 1.297 1.275-.59 1.275-1.297 1.275c-.708 0-1.297-.58-1.297-1.275zm1.297 10.084c-.708 0-1.297-.58-1.297-1.275s.59-1.275 1.297-1.275 1.297.58 1.297 1.275c0 .719-.566 1.275-1.297 1.275zm2.123-.602c.07-.21.117-.44.117-.673a2.12 2.12 0 00-.117-.672l4.01-2.272c.306.325.707.556 1.155.672v4.567c-.448.093-.85.348-1.156.673l-4.01-2.295zm5.66 5.03c-.707 0-1.297-.58-1.297-1.275s.59-1.275 1.297-1.275 1.297.58 1.297 1.275-.59 1.275-1.297 1.275zm1.65-2.735a2.144 2.144 0 00-1.202-.673v-4.567a2.082 2.082 0 001.18-.672l4.032 2.318a1.98 1.98 0 00-.117.65c0 .231.047.463.117.672l-4.01 2.272zm6.133-1.693c-.708 0-1.297-.58-1.297-1.275s.59-1.275 1.297-1.275c.708 0 1.297.58 1.297 1.275 0 .719-.59 1.275-1.297 1.275z" fill="#000C31"/></svg>