<svg width="1156" height="208" fill="none" xmlns="http://www.w3.org/2000/svg"><path d="M0 4.195h41.88v85.582l66.027-85.582h47.427L88.762 88.563l75.492 114.845H114.76l-52.213-80.723-20.668 26.945v53.889H0V4.195zM270.213 0c72.228 0 104.644 56.87 104.644 103.803 0 56.539-42.097 103.802-104.644 103.802-66.354 0-105.514-48.809-105.514-103.802C164.699 47.926 206.035 0 270.213 0zm-.217 168.735c36.223 0 61.35-28.38 61.35-64.932 0-31.693-21.211-64.932-61.35-64.932-35.679 0-61.568 26.944-61.568 64.932-.109 31.803 20.885 64.932 61.568 64.932zm140.303 34.784V4.195h41.879v160.342h75.165v38.871H410.299v.111zM643.743 0c72.228 0 104.644 56.87 104.644 103.803 0 56.539-42.097 103.802-104.644 103.802-66.354 0-105.514-48.809-105.514-103.802C538.229 47.926 579.456 0 643.743 0zm-.326 168.735c36.223 0 61.35-28.38 61.35-64.932 0-31.693-21.211-64.932-61.35-64.932-35.679 0-61.568 26.944-61.568 64.932 0 31.803 20.885 64.932 61.568 64.932zm182.207 34.784h-41.77V4.195h59.283c43.294.332 73.642 23.08 73.642 64.049 0 31.693-15.663 47.263-39.486 54.993l59.828 80.171h-51.234l-54.498-72.993h-5.547v73.104h-.218zm0-111.975h16.752c20.341 0 30.349-7.178 30.349-24.515 0-11.926-7.941-23.963-25.346-23.963h-21.755v48.478zM961.365 4.195h41.875v199.213h-41.875V4.195zm109.885 38.986h-42.75V4.311h127.37v38.87h-42.75v160.342h-41.87V43.181z" opacity=".6" fill="#fff"/></svg>