<svg width="80" height="79" fill="none" xmlns="http://www.w3.org/2000/svg"><path d="M9.033 57.992a.906.906 0 01-.306 1.259c-.428.257-1.027.134-1.296-.294a.906.906 0 01.306-1.259.952.952 0 011.296.294zm10.024 8.875l-3.008 3.471-.5-.415 2.615-3.02-2.176-1.785-2.616 3.02-.5-.416 3.006-3.471 3.178 2.615zm1.393.94l3.178 1.871-.317.514-2.604-1.54-.71 1.136 2.446 1.443-.318.513-2.445-1.442-.758 1.222 2.64 1.565-.317.513-3.215-1.895 2.42-3.9zm3.313 6.98l-.611-.244 1.809-4.193 1.992.807c1.064.428 1.418 1.04 1.052 1.883-.367.855-1.064 1.014-2.127.586l-1.37-.562-.745 1.724zm.953-2.224l1.137.465c.831.342 1.296.305 1.528-.233.257-.587-.049-.916-.843-1.247l-1.174-.476-.648 1.491zm5.171-.355l3.606.88-.146.575-2.959-.733-.33 1.283 2.775.685-.146.574-2.775-.684-.367 1.393 3.007.734-.147.574-3.642-.892 1.124-4.388zm5.061 1.137l2.58.233c.916.085 1.38.55 1.307 1.27-.049.478-.33.783-.83.93.574.159.842.562.794 1.15-.086.904-.66 1.27-1.76 1.173l-2.531-.233.44-4.523zm.281 3.998l1.712.159c.745.073 1.124-.074 1.173-.575.049-.538-.244-.795-.941-.856l-1.81-.159-.134 1.43zm.196-2.042l1.65.147c.709.061 1.04-.049 1.088-.562.049-.465-.22-.673-.831-.734l-1.797-.159-.11 1.308zm6.197 2.91l-.66.012-.11-4.548.66-.012.11 4.548zm3.142-.208l-.648.085-.648-4.498 2.127-.294c1.137-.158 1.76.196 1.895 1.1.134.918-.379 1.406-1.516 1.553l-1.467.208.257 1.846zm-.342-2.384l1.222-.171c.893-.122 1.272-.379 1.198-.954-.085-.635-.513-.757-1.381-.647l-1.26.17.22 1.602zm4.242-2.86l3.557-1.027.171.574-2.922.844.392 1.271 2.75-.795.171.575-2.75.795.415 1.381 2.97-.856.172.575-3.606 1.039-1.32-4.376zm6.332-.184l2.567-1.186-.795-1.625.6-.281 2.004 4.107-.599.281-.941-1.944-2.567 1.198.953 1.944-.599.281-2.005-4.107.6-.281.782 1.613zm5.61-5.28c1.296-.893 2.641-.66 3.497.513.856 1.185.635 2.493-.672 3.398-1.296.892-2.641.66-3.497-.513-.855-1.186-.635-2.506.673-3.399zm2.47 3.41c.966-.672 1.125-1.601.465-2.506-.66-.917-1.614-1.076-2.58-.403-.966.672-1.124 1.601-.464 2.505.66.905 1.613 1.076 2.579.404zm2.054-4.657l-1.15-1.223.563-.513 1.161 1.222 1.076 1.418-.281.257-1.37-1.162zm1.479 1.576l.562-.513.526.562-.563.501-.525-.55zm5.012-9.73a.951.951 0 011.283-.293.914.914 0 01.306 1.259c-.27.428-.844.55-1.284.293a.904.904 0 01-.305-1.26zM.44 44.618l1.002-.207.502 2.432 3.875-.77.244 1.186-4.877.978-.746-3.619zm4.609-4.29l.085 1.21-4.963.318-.085-1.21 4.963-.318zm-4.56-7.763l4.95.477-.121 1.21-3.937-.379-.244 2.323 3.936.379-.122 1.21L0 37.308l.489-4.743zm4.914-8.019c1.491.49 2.115 1.87 1.528 3.558C6.344 29.79 5 30.535 3.496 30.047c-1.491-.489-2.115-1.87-1.528-3.57.587-1.674 1.944-2.42 3.435-1.93zm-1.467 4.242c.941.306 1.712-.085 2.03-1.002.317-.917-.062-1.675-1.003-1.98-.941-.306-1.711.073-2.017.99-.318.928.049 1.686.99 1.992zm1.37-9.217l.61-1.002 5.44.562-.709 1.161-1.137-.147-1.124 1.846.684.893-.684 1.124-3.08-4.437zm3.104.452l-1.662-.195.99 1.308.672-1.113zm4.291-9.657l3.606 3.325-.856.88-2.872-2.64-1.504 1.552 1.418 1.308c.93.856 1.284 1.687.477 2.518a3.962 3.962 0 01-.575.49l-.77-.71c.061-.036.171-.122.281-.232.392-.403.294-.672-.538-1.43l-1.882-1.736 3.215-3.325zm6.43-4.718l.574.819-2.603 1.76.464.66 2.323-1.565.574.82-2.322 1.564.611.868 2.604-1.76.586.819L18.3 12.09l-2.824-3.985 3.655-2.457zm2.97-1.602l2.714-1.137c1.076-.452 1.932-.122 2.347.807.416.941.061 1.797-1.002 2.25l-1.565.647.611 1.394-1.149.477-1.956-4.438zm2.09 1.663l1.052-.44c.709-.294.99-.55.782-1.04-.22-.513-.562-.5-1.234-.207l-1.125.477.526 1.21zM33.25.538l.22.966-2.494.537.844 3.766-1.223.256-1.063-4.73L33.25.537zM40.707 0l.036.99-3.166.11.025.807 2.824-.098.036.99-2.824.098.037 1.051 3.166-.11.037.99-4.413.16-.16-4.83L40.708 0zm4.388 2.2l2.36.404.317-1.773 1.223.208-.856 4.78-1.222-.208.366-2.017-2.359-.403-.367 2.017L43.323 5l.855-4.78 1.235.208-.318 1.772zm7.836 1.92l2.213.88.696-1.675 1.15.452-1.883 4.487-1.15-.453.795-1.894-2.212-.88-.795 1.894-1.149-.464L52.48 1.98l1.149.453-.697 1.687zm8.74 2.322l.99.66-.929 5.257-1.136-.758.22-1.1-1.81-1.198-.965.61-1.113-.733 4.743-2.738zm-.684 2.983l.317-1.601-1.405.88 1.088.72zm11.307 7.102l-.403.281.293.404c.685.916 1.15 2.31-.049 3.166-1.076.758-2.225.22-3.105-.954l-.281-.379-.489.343-.733-.978.489-.343-.294-.39c-.88-1.174-1.027-2.409.037-3.167 1.21-.855 2.42.012 3.093.93l.305.403.404-.282.733.966zm-1.895-.171l-.22-.293c-.428-.587-1.1-1.015-1.699-.6-.562.404-.354 1.162.086 1.749l.207.28 1.626-1.136zm-.892 2.14l.22.293c.428.586 1.1 1.014 1.662.623.6-.428.392-1.186-.036-1.772l-.22-.294-1.626 1.15zm6.711 4.877l.452 1.075-3.728 3.912-.526-1.247.807-.794-.843-1.968-1.15-.013-.513-1.21 5.501.245zm-2.25 2.139l1.162-1.174-1.662-.012.5 1.186zm4.365 3.802l.55 2.824c.208 1.112-.293 1.87-1.32 2.053-1.04.196-1.81-.318-2.03-1.442l-.305-1.626-1.528.281-.232-1.198 4.865-.892zm-2.115 1.625l.208 1.1c.147.746.342 1.064.88.966.562-.097.623-.427.489-1.136l-.232-1.174-1.345.244zm3.203 10.147l-1.027-.013.037-2.86-.832-.012-.024 1.736c-.012 1.026-.624 1.613-1.59 1.613-.953-.012-1.54-.599-1.527-1.626l.036-2.958 4.976.049-.05 4.07zm-3.924-2.898l-.012 1.308c-.013.6.097.832.55.844.452.012.525-.281.525-.892l.013-1.235-1.076-.025zm3.154 8.203l-.257 1.137-5.342 1.137.293-1.32 1.125-.22.465-2.091-.93-.636.282-1.27 4.364 3.263zm-3.093.513l1.638-.318-1.357-.928-.281 1.246z" fill="#586386"/><path fill-rule="evenodd" clip-rule="evenodd" d="M31.6 67.869c9.656 2.14 16.893.538 23.14-3.166 6.686-3.96 13.14-11.21 14.326-22.53 1.027-9.815-2.885-18.018-8.789-23.886-2.946-2.921-6.625-5.55-11.43-7.09-4.816-1.54-10.5-1.894-15.267-.916-8.35 1.699-15.66 7.224-19.853 14.693-5.122 9.132-4.498 20.891-.574 27.688 1.65-1.027 2.811-1.76 4.303-2.775a24.529 24.529 0 01-1.968-15.097c2.506-13.324 15.341-22.101 28.678-19.595C57.49 17.7 66.255 30.536 63.749 43.86c-2.005 10.671-10.916 18.25-20.757 19.705l1.528-1.711c0-.013.012-.013.012-.013l.05-.048a26.668 26.668 0 005.99-11.1c1.65-6.369.195-12.224-2.165-16.918-2.505-5-6.906-8.96-13.25-11.442.11 1.21.72 2.31.929 3.618.207 1.296.256 2.836-.318 4.474-.88 2.543-2.555 4.584-3.386 7.298-2.494 8.166-.074 14.278 3.667 19.449 2.212-2.36 4.266-5.306 5.427-8.96 1.883-5.941.538-11.284-.562-15.318 1.883 1.956 2.8 4.597 3.3 7.384.49 2.701.66 6.063-.183 9.217-1.43 5.39-4.18 9.4-7.175 12.628l-5.501 5.672.244.073z" fill="#586386"/></svg>