<svg width="70" height="79" fill="none" xmlns="http://www.w3.org/2000/svg"><path d="M3.7 51.17l.223-.126c.125-.07.293 0 .377.153l1.493 2.554.684-.404-1.284-2.206c-.084-.153-.056-.334.056-.404l.223-.126c.126-.07.293 0 .39.14l1.285 2.205.698-.405-1.494-2.554c-.083-.154-.056-.321.056-.405l.223-.14c.126-.07.293-.013.391.154l1.982 3.378c.084.153.056.335-.07.405l-2.93 1.716c-.126.07-.294 0-.378-.153L3.644 51.56c-.084-.14-.07-.307.055-.39zm2.387-3.644c.056.168-.014.335-.14.391l-3.21 1.075c-.14.042-.293-.056-.349-.223l-.195-.614c-.056-.168.014-.335.14-.391l1.242-.419-.238-.698c-.125-.377-.362-.6-.823-.74l-.88-.265a.643.643 0 01-.404-.377l-.251-.753c-.056-.168.042-.237.209-.182l1.256.363c.293.084.614.224.852.642-.056-.335.153-.767.32-1.033l.754-1.144c.098-.154.224-.14.28.028l.25.74a.748.748 0 01-.07.572l-.53.81c-.237.348-.362.67-.223 1.088l.223.698 1.257-.419c.125-.042.279.056.335.223l.195.628zm-3.783-6.531c.838-.098 1.243-.559 1.13-1.591-.11-1.047-.613-1.396-1.45-1.313-.838.098-1.243.559-1.131 1.592.112 1.046.614 1.41 1.451 1.312zM.114 39.78c-.196-1.73.278-2.791 1.716-2.945 1.437-.153 2.135.768 2.33 2.499.196 1.73-.278 2.791-1.716 2.945-1.438.153-2.135-.768-2.33-2.499zm4.172-9.225l-.07.642c-.014.168-.14.307-.293.293l-2.861-.307-.084.824c-.042.432.126.809.447.949l2.233 1.032c.14.07.223.252.21.433l-.07.684c-.015.154-.14.251-.252.195l-2.512-1.144c-.824-.377-.921-1.382-.81-2.359l.182-1.689c.014-.153.153-.265.279-.25l3.378.362c.153.014.25.168.223.335zm-1.074-3.797c.796.265 1.368.028 1.703-.963.335-.99.028-1.535-.768-1.8-.795-.265-1.368-.028-1.703.963-.335.99-.027 1.521.768 1.8zm-1.465-2.037c.558-1.647 1.437-2.401 2.819-1.94 1.368.46 1.605 1.605 1.047 3.252-.559 1.646-1.438 2.414-2.82 1.94-1.367-.475-1.605-1.605-1.046-3.252zm2.317-4.676c-.126-.07-.154-.252-.056-.405l1.66-2.847c.099-.154.252-.224.378-.154l.223.126c.126.07.154.251.056.404l-1.173 2.01 2.485 1.466c.125.07.14.251.056.405l-.321.558c-.084.153-.252.223-.377.153l-2.931-1.716zm3.336-5.15c-.112-.083-.112-.279 0-.404l.404-.503c.112-.14.293-.181.405-.098l2.652 2.122c.111.084.111.279 0 .419l-.391.488c-.112.14-.293.181-.391.098l-2.68-2.122zm2.357-2.861c-.098-.112-.07-.293.07-.42l.474-.418c.14-.125.321-.14.42-.028l.613.684c.293.321.656.293 1.047-.056l.977-.879-1.06-1.158c-.098-.112-.07-.293.069-.405l.475-.419c.14-.125.32-.14.418-.028l2.275 2.512c.098.098.056.294-.07.405l-.474.419c-.126.112-.307.14-.405.028l-.712-.782-.977.88c-.907.823-1.856 1.088-2.526.348l-.614-.683zm9.855-4.857l-2.038 1.158.698 1.215c.07.125 0 .293-.154.377l-.558.32c-.153.084-.335.056-.405-.055l-1.688-2.96c-.07-.125 0-.292.153-.39l.558-.307c.154-.084.335-.07.405.056l.614 1.06 2.038-1.158-.614-1.06c-.07-.126 0-.294.153-.377l.559-.308c.153-.097.335-.07.418.056l1.69 2.945c.069.126 0 .293-.154.391l-.545.321c-.153.084-.335.056-.404-.056l-.726-1.228zm7.592-1.159c-.168.056-.349-.014-.377-.154l-.74-2.414-.963 2.93a.66.66 0 01-.404.391l-1.075.335c-.168.056-.349-.013-.377-.153l-.99-3.252c-.043-.14.055-.28.237-.335l.572-.181c.167-.056.335.014.377.153l.795 2.61 1.06-3.168c.057-.154.21-.335.378-.377l.963-.293c.167-.056.335.014.377.153l.99 3.252c.042.14-.07.293-.237.335l-.586.168zm5.36-5.834c.042-.084.112-.153.223-.153l.28-.028c.125-.014.195.028.195.125.028.503-.405.838-1.089.88-.684.055-1.158-.224-1.2-.726 0-.098.056-.14.181-.154l.28-.014a.28.28 0 01.25.126c.07.112.21.181.448.167.25-.014.376-.097.432-.223zm1.48 4.927c-.182.014-.321-.098-.335-.237l-.182-2.527L31.937 5a.685.685 0 01-.476.293l-1.13.084c-.181.014-.335-.098-.335-.237l-.237-3.378c-.014-.153.125-.265.307-.279l.6-.042c.168-.014.321.084.335.224l.195 2.721 1.745-2.847c.084-.14.28-.28.447-.293l1.005-.07c.167-.014.32.098.334.237l.238 3.378c.014.14-.126.265-.307.279l-.614.042zM43.7 2.403l.739.196c.907.251 1.786.907 1.577 1.675-.07.237-.335.223-.419.195l-.404-.112c-.182-.055-.321-.167-.391-.418-.084-.293-.293-.53-.698-.642l-.586-.154c-.977-.265-1.312-.056-1.55.824-.237.879-.055 1.228.922 1.493l.656.181c.404.112.698.014.921-.195.181-.181.363-.21.544-.167l.391.111c.084.028.321.14.265.377-.21.768-1.298.893-2.205.642l-.796-.223c-1.605-.433-2.274-1.256-1.926-2.568.35-1.284 1.34-1.661 2.96-1.215zm8.919 4.02l-.112.223c-.07.126-.25.168-.404.084l-2.638-1.354-.363.698 2.275 1.173c.153.083.237.25.167.376l-.111.224c-.07.125-.252.153-.405.084l-2.275-1.173-.363.712 2.624 1.354c.153.084.223.237.167.363l-.125.237c-.07.126-.237.167-.405.084l-3.475-1.8c-.168-.085-.238-.252-.168-.378l1.55-3.014c.07-.126.25-.154.404-.07l3.49 1.8c.153.084.223.252.167.377zm2.668 2.54l-.95 1.159.964.781c.516.419.977.656 1.381.154.405-.489.084-.893-.432-1.312l-.963-.782zm1.744.433c1.005.823 1.298 1.66.642 2.47-.67.81-1.549.698-2.554-.125l-1.27-1.02-.39.475c-.085.112-.266.112-.406 0l-.502-.404c-.14-.112-.181-.293-.084-.405l2.136-2.624c.097-.112.265-.112.404 0l2.024 1.633zm5.931 6.336c.112.14.112.321 0 .405l-.195.168c-.112.097-.294.055-.405-.084l-.963-1.173-2.233 1.815c-.112.084-.293.042-.405-.084l-.405-.502c-.111-.14-.111-.321 0-.405l2.233-1.815-.963-1.186c-.111-.14-.111-.32 0-.405l.196-.167c.111-.098.293-.056.404.084l2.736 3.35zm-.14 7.621c-.084-.154-.042-.335.084-.405l2.26-1.144-3.056-.433a.696.696 0 01-.447-.321l-.516-1.005c-.084-.168-.042-.335.084-.405l3.029-1.535c.125-.07.293 0 .376.168l.28.53c.083.153.055.335-.07.405l-2.429 1.242 3.308.488a.709.709 0 01.447.293l.46.894c.084.153.042.335-.084.39l-3.028 1.536c-.126.056-.293-.014-.377-.168l-.321-.53zm2.987 5.708c.181.754.558 1.2 1.145 1.047.586-.14.725-.698.544-1.452l-1.689.405zm1.396-1.577c-.182-.754-.559-1.186-1.145-1.047-.586.14-.725.698-.544 1.452l1.689-.405zm1.437.6c.042.181-.028.349-.181.377l-.265.056c.335 1.395.181 2.568-.963 2.847-1.145.28-1.815-.698-2.15-2.094l-.265.07c-.14.028-.28-.084-.32-.251l-.14-.614c-.042-.182.041-.35.18-.377l.266-.056c-.335-1.396-.181-2.568.963-2.847 1.145-.28 1.815.698 2.15 2.093l.265-.055c.14-.042.279.083.32.25l.14.601zm.364 5.234c.14-.014.265.126.279.307l.042.642c.014.181-.098.335-.238.349l-3.391.195c-.14.014-.265-.14-.28-.32l-.027-.629c-.014-.181.097-.335.237-.335l3.378-.21zm-3.517 3.866c.014-.182.153-.307.293-.293l3.363.349c.14.014.252.167.224.349l-.07.642c-.014.167-.154.307-.293.293l-1.298-.14-.07.726c-.042.39.084.698.447 1.005l.697.6c.168.14.224.335.21.516l-.084.782c-.014.181-.126.195-.265.07l-.991-.852c-.237-.195-.475-.46-.502-.935-.084.335-.461.642-.726.81l-1.173.74c-.153.097-.265.027-.237-.154l.084-.782a.743.743 0 01.307-.488l.823-.517c.35-.223.614-.46.656-.893l.07-.726-1.312-.14c-.14-.013-.237-.167-.223-.348l.07-.614zm.347 8.011l-.683 2.052 1.353.447.307-.922c.14-.418.056-.823-.237-1.032l-.74-.545zm1.368-.53c.726.544.6 1.535.293 2.484l-.572 1.745c-.056.153-.21.237-.335.195l-3.224-1.074c-.14-.042-.195-.224-.14-.391l.21-.614c.056-.168.21-.265.349-.224l.642.224.767-2.303-.586-.433a.401.401 0 01-.111-.46l.209-.642c.056-.168.195-.238.307-.14l2.191 1.633zm-3.698 10.663c-.098.154-.266.224-.377.14l-.223-.126c-.126-.07-.154-.25-.056-.404l.767-1.312-2.484-1.466c-.126-.07-.14-.25-.056-.404l.321-.559c.084-.153.265-.223.377-.153l2.484 1.465.768-1.312c.084-.153.251-.223.377-.14l.223.126c.126.07.154.252.056.405l-2.177 3.74zM18.44 62.251l.488.293c.6.377 1.06 1.089.683 1.703-.125.195-.307.14-.362.098l-.252-.154c-.125-.07-.195-.195-.167-.419.028-.265-.07-.502-.335-.67l-.39-.237c-.643-.39-.964-.265-1.397.433-.432.712-.404 1.047.238 1.438l.432.265a.65.65 0 00.74 0c.196-.126.335-.126.46-.042l.266.153c.056.042.195.182.084.377-.377.614-1.215.53-1.829.168l-.53-.321c-1.06-.656-1.312-1.466-.67-2.527.642-1.074 1.48-1.214 2.54-.558zm1.98 3.169c-.307.697-.195 1.213.517 1.534.712.322 1.172.056 1.48-.642.306-.697.195-1.214-.517-1.535-.712-.32-1.172-.07-1.48.642zm1.76-1.27c1.2.53 1.66 1.325 1.13 2.54-.53 1.213-1.438 1.395-2.638.879-1.2-.53-1.661-1.326-1.13-2.54.543-1.215 1.437-1.41 2.637-.88zm1.926 3.865c.14.042.252.126.405.168l.042.014c.321.097.614-.042.851-.419l-.209-.056c-.851-.251-1.13-.712-1.242-1.507l-.126-.977c-.014-.14.084-.223.21-.181l.516.153a.371.371 0 01.265.307l.084.754c.042.404.21.684.642.81l.293.083.796-1.103a.344.344 0 01.376-.125l.503.153c.125.042.167.154.084.266L26.13 68.35c-.377.517-.88.796-1.73.545l-.587-.182a.25.25 0 01-.167-.293l.084-.265a.23.23 0 01.293-.154l.083.014zm6.015.335c-.084.768.181 1.215.963 1.299.782.083 1.13-.308 1.214-1.075.084-.754-.181-1.214-.963-1.298-.781-.07-1.13.32-1.214 1.075zm1.284-1.73c1.298.14 1.982.754 1.856 2.066-.14 1.325-.935 1.772-2.233 1.646-1.298-.14-1.996-.753-1.856-2.065.14-1.326.935-1.787 2.233-1.647zm5.82.432v.237c0 .14-.112.238-.238.238l-2.247.042.014.725 1.94-.041c.126 0 .252.097.252.223v.237a.245.245 0 01-.238.237l-1.94.042.014.74 2.247-.056c.126 0 .237.098.237.224v.237a.235.235 0 01-.237.237l-2.973.07c-.14 0-.25-.098-.25-.237l-.07-3.099c0-.126.097-.237.237-.237l2.986-.07c.154.014.266.112.266.251zm3.001 2.945c-.126.028-.28-.056-.35-.167l-1.297-2.261.405 2.4c.027.126-.07.252-.196.28l-.46.07c-.14.027-.266-.057-.28-.196l-.516-3.057c-.014-.125.056-.251.195-.279l1.033-.181c.14-.028.28.055.35.181l1.102 1.982.404-2.233c.028-.126.14-.265.266-.28l1.047-.18a.26.26 0 01.279.195l.516 3.056c.028.126-.07.252-.21.28l-.46.07c-.14.027-.265-.057-.279-.196l-.405-2.4-.502 2.567a.378.378 0 01-.28.28l-.362.07zm5.414-3.21c.308.782.796.88 1.299.684.502-.195.81-.586.502-1.382-.307-.781-.795-.879-1.298-.684-.502.196-.81.6-.502 1.382zm.322-2.065c.949-.377 1.87-.266 2.372 1.018.503 1.285-.111 1.982-1.06 2.345l-.168.07c-.949.363-1.87.265-2.373-1.019-.502-1.284.112-1.982 1.061-2.345l.168-.07zm2.973-1.327c.126-.056.265-.014.321.098l1.396 2.777a.238.238 0 01-.112.321l-.419.21c-.125.056-.265.014-.32-.098l-1.09-2.15-.167.322c-.042.07-.14.097-.223.07l-.28-.126c-.11-.056-.083-.14-.055-.224l.32-.753c.057-.126.168-.21.28-.28l.349-.167zm3.53-.32l-.153-.266c-.223-.363-.447-.335-.796-.125l-.32.195c-.35.21-.461.405-.294.67.168.28.391.237.74.028l.823-.502zm-.544 1.172c-.795.488-1.41.544-1.856-.168-.433-.711-.126-1.242.67-1.73l.474-.293c.782-.489 1.41-.545 1.898.265l.587.935c.53.837.209 1.382-.573 1.87l-.53.335c-.642.405-1.34.39-1.605-.028-.126-.195.014-.335.084-.377l.25-.167c.127-.07.238-.07.42.014.14.07.335.042.558-.098l.405-.251c.335-.21.446-.405.195-.81l-.056-.083-.92.586zM14.67 24.274a22.036 22.036 0 013.726-6.727c1.591-1.954 3.42-3.545 5.415-4.76-2.68 1.368-5.122 3.336-7.187 5.876a23.684 23.684 0 00-2.848 4.466l.894 1.145zm-.808 3.001c.056-.321-.391-.46-.642-.907-.266-.489-.321-1.257-.405-1.033-3.42 9.128-1.242 19.944 6.127 26.727.168.154.265.21.447.363 0 0 1.228-.698 1.758-1.06.53-.363 1.564-1.131 1.564-1.131a21.269 21.269 0 01-2.178-1.745c-5.876-5.415-8.179-13.622-6.671-21.214zm36.58 17.781c.391.098.95.224 1.424.293a5.3 5.3 0 001.145.028c4.047-7.983 3.433-17.795-1.536-25.136 4.397 7.564 4.173 17.46-1.033 24.815zm-.642 2.931s-1.327-.517-1.578-.265c-6.001 6.183-14.627 7.83-22.08 4.438 0 0-.837.698-1.647 1.41-.781.698-1.633 1.382-1.633 1.382 8.989 5.205 20.461 3.224 27.412-5.36.488-.6.949-1.228 1.368-1.87.14-.21-1.843.265-1.843.265z" fill="#586386"/><path d="M57.882 44.484c-.475.642-1.424 2.051-2.875 3.168-1.424 1.103-4.425 3.322-8.654 3.545-1.856.042-1.898-.14-2.889-.265-.586-.126-4.41-.991-8.416-3.406-2.233-1.088-4.41-.865-4.94-.293-.796.88-1.466 1.522-1.885 1.996-1.647 1.787-10.58 8.863-12.073 10.189.154-.21 1.13-2.233 1.494-5.29 4.494-2.68 7.76-5.22 10.175-7.634.265-.252.586-.866.293-1.354-.335-1.73-1.69-3.099-3.825-3.95-4.187-1.661-7.746-3.81-9.616-6.825-1.186-1.815-2.135-3.755-2.666-6.016-1.66-7.02.07-10.035.447-10.76-.433 3.307.74 5.666 2.456 7.439 1.73 1.772 3.67 2.875 5.876 3.824 3.531 1.521 5.583 3.992 6.923 6.825 1.34 2.847 1.563 6.141 1.563 6.141-.405-1.06-1.172-2.917-2.01-4.27-.935-1.522-3.126-3.895-5.43-5.319-2.037-1.256-3.865-1.884-5.233-3.014-1.996-1.633-3.475-3.88-4.27-5.974.055 1.284 1.255 3.294 1.87 4.313 2.33 3.168 3.768 3.378 6.922 5.443 2.624 1.717 4.718 4.145 5.792 5.722 1.075 1.578 2.359 4.704 2.136 6.505 4.075-4.69 5.345-9.212 6.071-12.855 1.158-5.89 1.773-8.611 3.238-10.677.74-1.117 1.214-1.912 2.247-2.805.517-.447.74-.726 1.326-.963.447-.182 1.563-.545 3.084.014 2.066.195 5.248.335 8.012.893l-3.838-.042c-1.354 0-3.657.307-4.41.405-2.276.181-3.853 1.423-5.095 3.405-1.27 1.926-1.954 4.453-3.113 10.328a28.845 28.845 0 01-5.275 12.813s3.252-1.912 5.722-1.703c2.47.21 6.239 1.759 6.239 1.759 3.74 1.772 5.485 1.842 6.936 1.884 1.452.042 3.434-.6 4.104-.907-1.745.544-3.88.795-6.28.237-2.513-.586-5.737-2.512-7.175-3.029-4.578-1.535-6.769-.516-6.769-.516s1.55-1.186 3.336-1.773c3.364-1.032 5.22.056 7.509 1.326 2.177 1.215 4.2 2.247 6.476 2.652 2.233.419 4.145-.195 6.49-1.186zM15.339 77.813c.46 0 .656-.238.656-.726V75.16c0-.126.112-.237.237-.237h.46c.126 0 .238.097.238.237v1.926c0 .907-.53 1.438-1.577 1.438h-.447c-1.046 0-1.577-.53-1.577-1.438V75.16c0-.126.112-.237.237-.237h.461c.126 0 .237.097.237.237v1.926c0 .488.21.726.656.726h.419zm3.169-.879h1.59v-1.298h-.71a.66.66 0 00-.657.502l-.223.796zm-.684-1.033c.21-.782.921-.963 1.66-.963h1.34c.126 0 .21.111.21.223v3.112a.245.245 0 01-.237.238h-.475a.235.235 0 01-.237-.237v-.629h-1.773l-.167.629c-.042.125-.168.237-.293.237h-.489c-.14 0-.21-.098-.181-.237l.642-2.373zm3.783 2.136c0-.21.126-.335.335-.335h.307c.21 0 .335.125.335.335v.153c0 .21-.125.335-.335.335h-.307c-.209 0-.335-.126-.335-.335v-.153zm2.275-1.313c0 .837.42 1.103.935 1.103.53 0 .936-.266.936-1.103 0-.851-.42-1.103-.936-1.103-.53 0-.935.252-.935 1.103zm1.02-1.814c.99 0 1.786.432 1.786 1.814 0 1.368-.796 1.8-1.787 1.8h-.167c-.991 0-1.787-.432-1.787-1.8 0-1.382.796-1.814 1.787-1.814h.167zm3.739.711c-.39 0-.586.084-.586.363 0 .28.195.363.586.363h.251c.391 0 .587-.097.587-.363 0-.279-.196-.362-.587-.362h-.25zm.377 2.192c.39 0 .6-.084.6-.391s-.195-.39-.6-.39h-.489c-.39 0-.586.097-.586.39 0 .293.196.39.586.39h.489zm0-2.903c.74 0 1.396.279 1.396 1.032 0 .266-.084.461-.335.657.335.18.474.488.474.823 0 .726-.628 1.089-1.423 1.089h-.712c-.796 0-1.424-.363-1.424-1.09 0-.334.14-.641.475-.823-.252-.209-.335-.404-.335-.656 0-.753.656-1.032 1.395-1.032h.489zm1.897 3.127c0-.21.126-.335.335-.335h.307c.21 0 .335.125.335.335v.153c0 .21-.126.335-.335.335h-.307c-.21 0-.335-.126-.335-.335v-.153zm2.276-1.313c0 .837.419 1.103.935 1.103.53 0 .936-.266.936-1.103 0-.851-.42-1.103-.936-1.103s-.935.252-.935 1.103zm1.02-1.814c.99 0 1.786.432 1.786 1.814 0 1.368-.796 1.8-1.787 1.8h-.181c-.991 0-1.787-.432-1.787-1.8 0-1.382.796-1.814 1.787-1.814h.181zm3.041 1.814c0 .837.418 1.103.935 1.103.53 0 .935-.266.935-1.103 0-.851-.419-1.103-.935-1.103-.517 0-.935.252-.935 1.103zm1.032-1.814c.991 0 1.787.432 1.787 1.814 0 1.368-.796 1.8-1.787 1.8h-.181c-.991 0-1.787-.432-1.787-1.8 0-1.382.796-1.814 1.787-1.814h.181zm4.439 1.186c0-.377-.195-.488-.628-.488h-.181c-.307 0-.517.083-.628.307-.084.167-.196.237-.335.237h-.293c-.07 0-.252-.042-.252-.28 0-.6.74-.976 1.438-.976h.335c.823 0 1.493.251 1.493 1.186 0 1.438-2.33 1.13-2.33 1.703h2.065c.126 0 .238.098.238.237v.237a.245.245 0 01-.238.238h-2.763a.235.235 0 01-.237-.238v-.362c-.028-1.536 2.316-1.103 2.316-1.8zm1.299 1.941c0-.21.125-.335.334-.335h.307c.21 0 .336.125.336.335v.153c0 .21-.126.335-.336.335h-.306c-.21 0-.335-.126-.335-.335v-.153zm2.903-2.416c-.307 0-.53.084-.642.308-.083.167-.195.237-.335.237h-.293c-.07 0-.25-.042-.25-.28 0-.6.739-.976 1.437-.976h.335c.837 0 1.507.25 1.507 1.088 0 .265-.112.53-.349.712.293.182.39.419.39.712 0 .81-.544 1.089-1.437 1.089h-.53c-.698 0-1.438-.377-1.438-.991a.26.26 0 01.252-.28h.293c.14 0 .265.056.362.28.084.181.308.293.615.293h.349c.39 0 .586-.084.586-.391 0-.293-.196-.377-.586-.377h-.447a.235.235 0 01-.237-.237v-.21c0-.125.097-.237.223-.237h.363c.432 0 .628-.098.628-.39 0-.28-.195-.377-.628-.377h-.168v.028zm3.7 0c-.307 0-.517.084-.629.308-.083.167-.195.237-.334.237h-.294c-.07 0-.25-.042-.25-.28 0-.6.739-.976 1.437-.976h.335c.837 0 1.507.25 1.507 1.088 0 .265-.111.53-.349.712.293.182.391.419.391.712 0 .81-.544 1.089-1.452 1.089h-.53c-.698 0-1.438-.377-1.438-.991 0-.238.182-.28.252-.28h.293c.14 0 .265.056.363.28.084.181.307.293.614.293h.363c.39 0 .586-.084.586-.391 0-.293-.196-.377-.586-.377h-.447a.235.235 0 01-.237-.237v-.21c0-.125.098-.237.223-.237h.363c.433 0 .628-.098.628-.39 0-.28-.195-.377-.628-.377h-.181v.028zm3.683 0c-.307 0-.517.084-.628.308-.084.167-.196.237-.335.237h-.293c-.07 0-.252-.042-.252-.28 0-.6.74-.976 1.438-.976h.349c.837 0 1.507.25 1.507 1.088 0 .265-.111.53-.349.712.294.182.391.419.391.712 0 .81-.544 1.089-1.451 1.089h-.53c-.699 0-1.438-.377-1.438-.991a.26.26 0 01.251-.28h.293c.14 0 .265.056.363.28.084.181.307.293.614.293h.349c.39 0 .586-.084.586-.391 0-.293-.195-.377-.586-.377h-.447a.235.235 0 01-.237-.237v-.21c0-.125.098-.237.224-.237h.362c.447 0 .628-.098.628-.39 0-.28-.195-.377-.628-.377h-.181v.028z" fill="#586386"/></svg>