<svg width="154" height="53" fill="none" xmlns="http://www.w3.org/2000/svg"><path d="M152.323 44.523c0 3.56-2.903 6.462-6.462 6.462h-95.54V1.945h95.54c3.559 0 6.462 2.902 6.462 6.462v36.116zm-112.476-9s-1.905 1.745-2.608 2.244c-.839.567-2.924 1.836-6.53 2.38-.929.137-2.788.114-3.718 0-3.128-.362-10.18-2.448-10.18-2.448V27.157H29.35c.749 0 1.338.612 1.338 1.36v1.882a1.34 1.34 0 01-1.338 1.337h-5.17s1.451 1.429 2.653 2.109c.77.43 2.494.907 3.378.975.612.045 1.882-.046 2.449-.272.748-.318 2.448-2.109 2.448-2.109l1.406-1.292a.893.893 0 011.315.09l2.154 2.721c.385.454.317 1.157-.136 1.565zm-24.35 4.67h-4.58V25.796h4.58v14.397zm9.567-22.332c.953-2.403 2.404-4.512 3.81-6.666.611-.93 1.065-.974 1.677-.022.839 1.315 3.514 5.804 3.877 6.801.816 2.29.159 4.58-1.655 5.94-1.814 1.338-4.376 1.316-6.19-.068-1.813-1.405-2.425-3.718-1.519-5.985zM145.861.245H8.877c-4.49 0-8.14 3.65-8.14 8.162v36.116c0 4.512 3.65 8.14 8.14 8.14H145.86c4.489 0 8.139-3.65 8.139-8.14V8.407c0-4.512-3.65-8.162-8.139-8.162z" fill="#586386"/><path d="M63.855 9.88v5.691h-1.292v-4.625h-2.018v4.625h-1.292v-5.69h4.602zm2.381 2.653c.114.023.25.045.431.045.68 0 1.111-.34 1.111-.93 0-.52-.363-.838-.997-.838-.273 0-.454.023-.545.045v1.678zm-1.27-2.562c.409-.068.953-.113 1.747-.113.793 0 1.36.158 1.745.453.363.295.612.771.612 1.315 0 .567-.18 1.02-.521 1.36-.43.409-1.088.59-1.86.59-.158 0-.316 0-.43-.023v2.04h-1.27V9.972h-.022zm5.986 2.766c0 1.111.521 1.905 1.383 1.905.861 0 1.36-.84 1.36-1.928 0-1.02-.499-1.904-1.383-1.904-.839 0-1.36.839-1.36 1.927zm4.126-.068c0 1.86-1.133 2.993-2.788 2.993-1.678 0-2.676-1.27-2.676-2.902 0-1.7 1.088-2.993 2.766-2.993 1.746.023 2.698 1.338 2.698 2.902zm2.629-.975a7.2 7.2 0 01-.25 1.882c-.09.34-.249.68-.407.952h1.904v-3.605h-1.247v.771zm2.54-1.814v4.67l.566.046-.068 2.426h-.975l-.068-1.45H76.37l-.069 1.45h-.974l-.046-2.426.476-.045c.227-.408.408-.816.544-1.27.16-.567.227-1.201.227-1.882V9.88h3.718zm2.108 0l.838 1.995c.16.409.273.749.386 1.089h.023c.067-.25.18-.635.317-1.111l.612-1.995h1.36l-1.065 2.766c-.34.884-.703 1.745-1.134 2.267-.385.476-.839.748-1.519.748-.295 0-.476-.023-.635-.09l.091-1.044c.09.023.227.046.43.046.386 0 .658-.272.772-.544.045-.091.022-.182-.023-.272l-1.927-3.923h1.474v.068zm5.329 0v2.358h.113l1.564-2.358h1.565l-1.995 2.517c.725.181 1.065.703 1.315 1.383.204.612.385 1.224.657 1.791H89.52c-.204-.385-.295-.839-.43-1.247-.205-.635-.454-1.133-1.157-1.133h-.25v2.38h-1.269v-5.69h1.27zm5.078 1.089h-1.519V9.88h4.376v1.089h-1.564v4.602h-1.293V10.97zm6.553-1.089v2.2h2.108v-2.2h1.293v5.691h-1.293v-2.38h-2.108v2.38h-1.293v-5.69h1.293zm7.914 3.288h-2.086v1.36h2.335v1.043h-3.627v-5.69h3.514v1.065h-2.222v1.179h2.086v1.043zm7.663.227a70.75 70.75 0 01-.046-2.336h-.022a28.114 28.114 0 01-.635 2.2l-.703 2.221h-.998l-.612-2.199a26.91 26.91 0 01-.521-2.222h-.023c-.022.771-.068 1.655-.09 2.358l-.091 2.177h-1.202l.363-5.69h1.723l.567 1.903c.181.658.363 1.36.476 2.041h.023c.158-.658.362-1.406.544-2.04l.612-1.882h1.678l.317 5.69h-1.247l-.113-2.221zm3.626-3.515h-1.292v5.691h1.292v-5.69zm5.306 5.532c-.227.114-.771.25-1.451.25-1.973 0-2.993-1.225-2.993-2.857 0-1.95 1.383-3.015 3.106-3.015.657 0 1.179.136 1.406.25l-.272 1.02a2.824 2.824 0 00-1.089-.205c-1.02 0-1.813.612-1.813 1.882 0 1.134.68 1.86 1.836 1.86.385 0 .816-.091 1.066-.182l.204.997zm2.107-4.443h-1.519V9.88h4.376v1.089h-1.565v4.602h-1.292V10.97zm4.716-1.089v1.7c0 .908-.022 1.815-.068 2.585h.046c.295-.657.68-1.428 1.02-2.017l1.224-2.245h1.315v5.69h-1.179v-1.677c0-.884.023-1.655.091-2.403h-.023a20.68 20.68 0 01-.952 2.018l-1.156 2.063h-1.474v-5.69h1.156V9.88zm5.759 1.089h-1.519V9.88h4.375v1.089h-1.564v4.602h-1.292V10.97zm4.808 3.673c.136.022.295.022.476.022.635 0 1.134-.295 1.134-.952s-.499-.93-1.111-.93c-.182 0-.34.023-.499.023v1.837zm.023-4.762v1.973c.181-.023.453-.046.68-.046 1.224 0 2.267.59 2.267 1.86 0 .544-.181.952-.453 1.247-.545.566-1.497.725-2.404.725a8.959 8.959 0 01-1.383-.09V9.88h1.293zM60.23 22.01h.294c.453 0 .725-.114.725-.386 0-.226-.181-.385-.635-.385-.158 0-.249.023-.385.023v.748zm0 1.541c.113.023.203.023.385.023.385 0 .77-.113.77-.453 0-.318-.294-.454-.816-.454h-.317v.884h-.023zm-1.112-2.924c.272-.046.884-.09 1.451-.09.612 0 1.769.067 1.769.929 0 .453-.363.703-.726.77v.023c.544.09.884.386.884.884 0 1.02-1.383 1.111-2.13 1.111-.5 0-1.021-.022-1.248-.068v-3.56zm6.008 1.859c-.59 0-1.043.136-1.043.567 0 .295.181.43.43.43a.593.593 0 00.567-.407c.023-.068.023-.114.023-.182v-.408h.023zm.113 1.7l-.068-.362h-.023c-.227.294-.612.43-1.02.43-.726 0-1.156-.52-1.156-1.11 0-.93.838-1.383 2.108-1.383v-.023c0-.181-.09-.453-.657-.453-.363 0-.748.113-.998.272l-.204-.726c.25-.136.748-.317 1.383-.317 1.202 0 1.587.703 1.587 1.541v1.247c0 .34.023.68.045.862h-.997v.022zm2.629-3.582l.817 1.429h.113v-1.429h1.088v1.429H70l.817-1.429h1.224l-1.247 1.542c.408.068.68.476.839.907.136.408.272.793.43 1.133h-1.11c-.114-.18-.182-.453-.318-.816-.136-.385-.362-.612-.657-.612h-.09v1.428h-1.09v-1.428h-.09c-.317 0-.521.204-.68.612-.136.386-.204.635-.317.816H66.6c.181-.34.294-.725.43-1.133.16-.454.431-.839.84-.93l-1.225-1.519h1.224zm5.736 0v1.429h.136l.907-1.429h1.315l-1.315 1.542c.43.09.702.476.906.997.114.295.25.726.431 1.066h-1.156c-.09-.159-.181-.408-.317-.793-.16-.409-.386-.635-.749-.635h-.113v1.428h-1.11v-3.605h1.065zm3.834 0v1.088c0 .567-.023.975-.068 1.474h.022c.182-.408.272-.68.408-1.02l.726-1.542h1.36v3.582h-1.065v-1.088c0-.567.022-.793.068-1.564h-.023a9.702 9.702 0 01-.385.975c-.227.498-.5 1.133-.749 1.677h-1.36v-3.582h1.066zm4.193 0l.34.59c.09.181.204.363.295.544h.022c.091-.181.182-.386.273-.544l.317-.59h1.224l-1.179 1.7 1.202 1.882h-1.27l-.362-.634-.273-.544h-.022l-.272.544-.34.634H80.36l1.225-1.836-1.202-1.746h1.247zm4.555 0h1.428l.386 1.36c.068.205.158.59.226.908h.023c.068-.25.181-.635.295-.975l.408-1.293h1.406l.226 3.582h-1.043l-.068-1.428c0-.317-.022-.839-.045-1.247h-.023c-.136.476-.158.59-.34 1.18l-.476 1.45h-.793l-.431-1.428c-.09-.34-.204-.862-.295-1.202h-.023c-.022.454-.022.952-.045 1.247l-.068 1.428h-.998l.25-3.582zm7.301 1.383c0-.272-.113-.725-.635-.725-.476 0-.657.43-.68.725h1.315zm-1.315.771c.045.454.499.68 1.02.68.386 0 .68-.045.998-.136l.136.748c-.363.16-.816.227-1.292.227-1.225 0-1.928-.703-1.928-1.836 0-.907.567-1.927 1.814-1.927 1.156 0 1.61.907 1.61 1.79 0 .182-.023.364-.045.431h-2.313v.023zm5.803-2.154v.84h-1.043v2.742H95.8v-2.743h-1.043v-.839h3.22zm2.361 1.882c-.59 0-1.043.136-1.043.567 0 .295.182.43.431.43a.647.647 0 00.59-.407c.022-.068.022-.114.022-.182v-.408zm.136 1.7l-.068-.362h-.022c-.227.294-.59.43-1.02.43-.726 0-1.157-.52-1.157-1.11 0-.93.839-1.383 2.109-1.383v-.023c0-.181-.091-.453-.658-.453-.363 0-.748.113-.998.272l-.204-.726c.25-.136.749-.317 1.406-.317 1.202 0 1.587.703 1.587 1.541v1.247c0 .34.023.68.046.862h-1.021v.022zm4.987-3.582v3.582h-1.111v-2.743h-.771v.658c0 .861-.113 1.473-.499 1.813-.227.25-.544.34-1.043.34l-.113-.861c.159-.023.317-.09.385-.204.204-.204.227-.544.227-1.156v-1.429h2.925zm.883 0h1.111v3.583h-1.111v-3.583zm1.157-.997c0 .317-.227.567-.612.567-.34 0-.59-.25-.567-.567 0-.318.227-.567.589-.567.34 0 .567.25.59.567zm1.95 2.403h.295c.453 0 .725-.114.725-.386 0-.226-.181-.385-.635-.385-.158 0-.249.023-.385.023v.748zm0 1.541c.113.023.204.023.385.023.386 0 .771-.113.771-.453 0-.318-.295-.454-.816-.454h-.318v.884h-.022zm-1.111-2.924c.272-.046.884-.09 1.451-.09.612 0 1.768.067 1.768.929 0 .453-.385.703-.725.77v.023c.544.09.884.386.884.884 0 1.02-1.383 1.111-2.131 1.111-.499 0-1.02-.022-1.247-.068v-3.56zm3.627 4.443c.227-.657.431-1.428.521-2.085l1.134-.068c-.249.748-.567 1.519-.93 2.086l-.725.068zm6.531-1.54c.544-.114.793-.568.793-1.134 0-.567-.249-.998-.793-1.111v2.244zm-.998-2.268c-.544.136-.793.59-.793 1.134 0 .59.249.997.793 1.133v-2.267zm.998-2.29v1.564c1.043.091 1.904.703 1.904 1.86 0 1.156-.884 1.768-1.904 1.836v1.406h-.998v-1.383c-.997-.09-1.904-.68-1.904-1.837 0-1.179.861-1.768 1.904-1.881v-1.565h.998zm4.761 3.015c0-.272-.114-.725-.635-.725-.476 0-.658.43-.68.725h1.315zm-1.315.771c.045.454.498.68 1.02.68.385 0 .68-.045.997-.136l.136.748c-.362.16-.816.227-1.292.227-1.224 0-1.927-.703-1.927-1.836 0-.907.567-1.927 1.814-1.927 1.156 0 1.609.907 1.609 1.79 0 .182-.022.364-.045.431h-2.312v.023zm4.126-2.154v1.293h1.134v-1.293h1.133v3.582h-1.133v-1.428h-1.134v1.428h-1.111v-3.582h1.111zm4.104 1.791c0 .613.25 1.089.726 1.089.43 0 .702-.431.702-1.089 0-.544-.204-1.088-.702-1.088-.545 0-.726.567-.726 1.088zm2.585-.045c0 1.315-.93 1.927-1.905 1.927-1.043 0-1.859-.703-1.859-1.859 0-1.156.771-1.904 1.927-1.904 1.111 0 1.837.77 1.837 1.836zm3.831-1.746v3.582h-1.111v-2.743h-.771v.658c0 .861-.114 1.473-.499 1.813-.227.25-.544.34-1.043.34l-.113-.861c.158-.023.317-.09.385-.204.204-.204.227-.544.227-1.156v-1.429h2.925zm.884 0h1.111v3.583h-1.111v-3.583zm1.157-.997c0 .317-.227.567-.613.567-.34 0-.589-.25-.566-.567 0-.318.226-.567.589-.567s.567.25.59.567zm1.95 2.403h.294c.454 0 .726-.114.726-.386 0-.226-.181-.385-.635-.385-.159 0-.249.023-.385.023v.748zm-.023 1.541c.113.023.204.023.385.023.386 0 .771-.113.771-.453 0-.318-.294-.454-.816-.454h-.317v.884h-.023zm-1.088-2.924c.272-.046.884-.09 1.451-.09.612 0 1.791.067 1.791.929 0 .453-.386.703-.726.77v.023c.544.09.885.386.885.884 0 1.02-1.383 1.111-2.132 1.111-.498 0-1.02-.022-1.247-.068v-3.56h-.022zm3.628 4.443c.226-.657.43-1.428.521-2.085l1.134-.068c-.25.748-.567 1.519-.93 2.086l-.725.068zm-82.051 6.235c-.59 0-1.043.137-1.043.567 0 .295.182.431.431.431a.593.593 0 00.567-.408c.023-.068.023-.113.023-.181v-.409h.022zm.136 1.7l-.068-.362h-.022c-.227.295-.613.43-1.02.43-.726 0-1.157-.52-1.157-1.087 0-.93.839-1.383 2.109-1.383v-.046c0-.181-.091-.453-.658-.453-.363 0-.748.113-.998.272l-.203-.726c.249-.136.748-.317 1.382-.317 1.202 0 1.587.703 1.587 1.542v1.247c0 .34.023.68.046.861h-.998v.023zm4.965-3.581v3.582h-1.11v-2.743h-.772v.657c0 .862-.113 1.474-.498 1.814-.227.25-.544.34-1.043.34l-.114-.861c.16-.023.318-.091.408-.204.204-.204.227-.544.227-1.157v-1.45h2.902v.022zm2.016 0v1.428h.136l.907-1.428h1.315l-1.315 1.542c.43.09.68.476.907.997.113.295.25.726.43 1.043h-1.155c-.091-.158-.182-.408-.318-.793-.159-.408-.385-.635-.748-.635h-.113v1.428h-1.111v-3.582h1.065zm2.768 0h1.11v3.582h-1.11v-3.582zm1.156-1.02c0 .317-.227.567-.612.567-.34 0-.59-.25-.567-.567 0-.318.226-.567.59-.567.362 0 .589.25.589.567zm3.989 1.02v3.582h-1.111v-2.743h-.77v.657c0 .862-.114 1.474-.5 1.814-.226.25-.544.34-1.043.34l-.113-.861c.159-.023.318-.091.386-.204.204-.204.226-.544.226-1.157v-1.45h2.925v.022zm3.583 2.902c.544-.114.794-.567.794-1.134s-.25-.997-.794-1.11v2.244zm-.998-2.245c-.544.136-.793.59-.793 1.134 0 .59.25.997.793 1.133v-2.267zm.998-2.29v1.565c1.02.09 1.904.702 1.904 1.859 0 1.156-.884 1.768-1.904 1.836v1.406h-1.02v-1.383c-.998-.09-1.905-.68-1.905-1.837 0-1.178.862-1.79 1.905-1.881V27.79h1.02zm4.762 3.016c0-.272-.114-.726-.635-.726-.476 0-.658.431-.68.726h1.315zm-1.315.748c.045.476.498.68 1.02.68.385 0 .68-.045.998-.136l.135.748a3.757 3.757 0 01-1.292.227c-1.224 0-1.927-.703-1.927-1.836 0-.907.567-1.927 1.814-1.927 1.156 0 1.61.906 1.61 1.79 0 .182-.023.363-.046.431h-2.312v.023zm4.126-2.131v1.292h1.134v-1.292h1.133v3.582h-1.133v-1.428H87.23v1.428h-1.11v-3.582h1.11zm4.103 1.768c0 .612.25 1.088.725 1.088.431 0 .703-.43.703-1.088 0-.544-.204-1.088-.703-1.088-.544.023-.725.567-.725 1.088zm2.585-.023c0 1.315-.93 1.928-1.882 1.928-1.043 0-1.86-.703-1.86-1.86 0-1.156.772-1.904 1.928-1.904 1.088 0 1.814.748 1.814 1.837zm3.807-1.745v3.582h-1.11v-2.743h-.772v.657c0 .862-.113 1.474-.498 1.814-.227.25-.544.34-1.043.34l-.114-.861c.16-.023.318-.091.386-.204.204-.204.227-.544.227-1.157v-1.45h2.924v.022zm3.085 1.383c0-.272-.113-.726-.635-.726-.476 0-.657.431-.68.726h1.315zm-1.315.748c.046.476.499.68 1.02.68.386 0 .681-.045.998-.136l.136.748a3.756 3.756 0 01-1.292.227c-1.225 0-1.927-.703-1.927-1.836 0-.907.567-1.927 1.813-1.927 1.157 0 1.61.906 1.61 1.79 0 .182-.023.363-.045.431h-2.313v.023zm5.804-2.131v.839h-1.042v2.743h-1.134v-2.743h-1.043v-.839h3.219zm1.384 1.768c0 .612.249 1.088.725 1.088.431 0 .703-.43.703-1.088 0-.544-.204-1.088-.703-1.088-.521.023-.725.567-.725 1.088zm2.584-.023c0 1.315-.929 1.928-1.882 1.928-1.042 0-1.859-.703-1.859-1.86 0-1.156.771-1.904 1.927-1.904 1.089 0 1.814.748 1.814 1.837zm1.813-1.745v1.428h.136l.907-1.428h1.315l-1.315 1.542c.431.09.68.476.907.997.113.295.249.726.431 1.043h-1.157c-.09-.158-.181-.408-.317-.793-.159-.408-.385-.635-.748-.635h-.113v1.428h-1.111v-3.582h1.065zm5.442 3.491c-.204.09-.567.159-.997.159-1.157 0-1.905-.703-1.905-1.836 0-1.043.726-1.905 2.063-1.905.295 0 .612.045.862.136l-.182.839c-.136-.068-.34-.113-.634-.113-.59 0-.975.408-.953.997 0 .658.431 1.02.975 1.02.272 0 .476-.045.635-.113l.136.816zm1.657-3.491v1.088c0 .567-.023.975-.068 1.451h.023c.158-.408.272-.68.408-1.02l.703-1.542h1.36v3.583h-1.066v-1.089c0-.567.023-.793.068-1.564h-.022a9.62 9.62 0 01-.386.975c-.226.499-.498 1.11-.748 1.678h-1.36V29.4h1.088v.023zm6.48 0v3.582h-1.111v-2.743h-.771v.657c0 .862-.113 1.474-.499 1.814-.226.25-.544.34-1.043.34l-.113-.861c.159-.023.317-.091.408-.204.204-.204.227-.544.227-1.157v-1.45h2.902v.022zm2.791 1.881c-.589 0-1.042.137-1.042.567 0 .295.181.431.43.431a.647.647 0 00.59-.408.514.514 0 00.022-.181v-.409zm.137 1.7l-.069-.362h-.022c-.227.295-.59.43-1.02.43-.726 0-1.157-.52-1.157-1.087 0-.93.839-1.383 2.109-1.383v-.046c0-.181-.091-.453-.658-.453-.362 0-.748.113-.997.272l-.204-.726c.249-.136.748-.317 1.405-.317 1.202 0 1.587.703 1.587 1.542v1.247c0 .34.023.68.046.861h-1.02v.023zm4.599-3.581v.839h-1.043v2.743h-1.133v-2.743h-1.043v-.839h3.219zm.5 0h1.111v3.582h-1.111v-3.582zm1.156-1.02c0 .317-.227.567-.612.567-.363 0-.589-.25-.589-.567 0-.318.226-.567.589-.567s.59.25.612.567zm1.952 2.403h.294c.454 0 .726-.113.726-.385 0-.227-.181-.386-.635-.386-.159 0-.249.023-.385.023v.748zm0 1.564c.113.023.204.023.385.023.386 0 .771-.113.771-.476 0-.295-.295-.453-.816-.453h-.318v.906h-.022zm-1.111-2.924c.272-.046.884-.091 1.451-.091.612 0 1.768.068 1.768.907 0 .453-.363.703-.725.77v.023c.544.091.884.386.884.885 0 1.02-1.383 1.11-2.131 1.11-.499 0-1.02-.045-1.27-.068v-3.536h.023zm3.65 4.42c.227-.657.431-1.428.521-2.086l1.134-.068c-.249.749-.567 1.52-.93 2.086l-.725.068zm-77.289 6.258c-.59 0-1.043.136-1.043.567 0 .295.182.43.431.43a.592.592 0 00.567-.407c.023-.069.023-.114.023-.182v-.408h.022zm.136 1.7l-.068-.362h-.022c-.227.294-.613.453-1.02.453-.726 0-1.157-.521-1.157-1.11 0-.93.839-1.384 2.109-1.384v-.045c0-.181-.091-.454-.658-.454-.363 0-.748.114-.998.273l-.203-.726c.249-.136.748-.317 1.382-.317 1.202 0 1.587.702 1.587 1.541v1.247c0 .34.023.68.046.862h-.998v.023zm1.949-3.605h1.428l.385 1.361c.068.204.159.59.227.907h.023c.068-.25.181-.635.294-.975l.409-1.27H67.3l.227 3.583h-1.043l-.068-1.429c0-.317-.023-.839-.045-1.247h-.023c-.136.476-.159.59-.34 1.18l-.476 1.473h-.817l-.43-1.428c-.09-.34-.204-.862-.295-1.202h-.023c-.022.453-.022.952-.045 1.247l-.068 1.428h-.998l.273-3.627zm5.147 0h1.111v3.583h-1.11V38.22zm1.156-.997c0 .318-.226.567-.612.567-.362 0-.59-.25-.567-.567 0-.317.227-.567.59-.567s.59.25.59.567zm2.767 2.902c-.59 0-1.043.136-1.043.567 0 .295.204.43.43.43a.592.592 0 00.567-.407c.023-.069.023-.114.023-.182v-.408h.022zm.136 1.7l-.069-.362h-.022c-.227.294-.612.453-1.02.453-.726 0-1.157-.521-1.157-1.11 0-.93.84-1.384 2.109-1.384v-.045c0-.181-.114-.454-.658-.454-.362 0-.748.114-.997.273l-.204-.726c.25-.136.748-.317 1.383-.317 1.201 0 1.587.702 1.587 1.541v1.247c0 .34.023.68.045.862h-.997v.023zm2.946-3.605v1.43h.136l.907-1.43h1.315l-1.315 1.542c.43.091.68.477.907.998.113.295.249.726.43 1.043h-1.201c-.09-.159-.182-.408-.318-.794-.158-.408-.385-.634-.748-.634h-.113v1.428H74.17V38.22h1.11zm3.718 0l.544 1.77c.068.203.136.475.181.657h.023c.045-.182.113-.477.159-.658l.43-1.768h1.202l-.839 2.358c-.521 1.428-.861 1.995-1.27 2.358-.385.34-.793.453-1.088.498l-.226-.952c.136-.023.317-.09.476-.181.159-.091.362-.272.453-.454a.244.244 0 00.068-.158c0-.046 0-.091-.045-.182l-1.315-3.287H79zm2.448 2.993c0-.385.272-.68.658-.68.385 0 .657.272.657.68 0 .386-.272.68-.657.68-.386 0-.658-.294-.658-.68z" fill="#586386"/></svg>