<svg width="60" height="60" fill="none" xmlns="http://www.w3.org/2000/svg"><circle cx="30" cy="30" r="22" fill="#F0F1F8"/><circle cx="30" cy="30" r="29.835" stroke="#9AB4C1" stroke-width=".33"/><path d="M40.812 37.597s-2.162-2.346-2.56-8.917c-.455-6.805-3.072-9.68-8.59-9.68-.113 0-8.93.117-8.93 10.97 0 5.222-.966 6.865-1.535 7.393-.285.234-.455.234-.512.234-.284-.058-.512.059-.626.294a.639.639 0 00.114.704c.114.058 2.161 1.877 7.963 2.405h.057a.558.558 0 00.569-.47c.114-.527.17-1.349 0-2.229 0-.117-.057-.176-.114-.293a5.742 5.742 0 01-.682-.88c.625.293 1.422.47 2.218.528.227.41.626.704 1.08.704.683 0 1.252-.587 1.252-1.29 0-.705-.569-1.291-1.251-1.291-.455 0-.854.293-1.081.645-1.82-.176-3.3-1.115-3.527-2.288v-.293c0-.059 0-.118-.056-.235 0 0 0-.059-.057-.059 0-.058-.057-.058-.057-.117l-.057-.059c-.057-.058-.057-.058-.114-.058 0 0-.057 0-.057-.059h-.057c-.284-.117-.682-.293-.853-.587-.114-.234-.057-.469 0-.645 2.105-1.819 2.958-3.99 3.242-5.632 2.332 3.755 6.997 4.928 8.646 5.045.228.176.512.47.569.822 0 .352-.341.704-.683.938-.056.059-.113.118-.17.235a1.21 1.21 0 00-.17.645c.113 1.467-1.31 3.344-2.105 3.931a.54.54 0 00-.228.47c0 .703.057 1.407.17 1.935.058.294.342.47.626.47 5.745-.528 7.622-2.406 7.68-2.464.113-.235.113-.587-.114-.822zM33.53 39.71c-.057-.293-.057-.586-.057-.938.967-.822 2.446-2.816 2.332-4.694.683-.528 1.024-1.173 1.024-1.818-.057-1.115-1.08-1.76-1.195-1.878-.056-.058-.17-.058-.284-.058-1.422-.059-7.508-1.526-8.76-6.63-.057-.293-.341-.469-.682-.41a.537.537 0 00-.455.645c0 .176.625 4.283-3.015 7.333a.8.8 0 00-.17.235 2.121 2.121 0 00-.057 1.76c.17.352.454.763 1.137 1.115.17 1.701 1.252 3.226 2.162 4.341.056.41.056.763.056 1.056-2.957-.352-4.777-.997-5.801-1.525 1.308-1.056 1.99-3.872 1.99-8.331 0-9.68 7.509-9.797 7.793-9.797 4.096 0 6.996 1.466 7.452 8.624.34 5.338 1.763 8.096 2.502 9.152-.625.469-2.446 1.408-5.972 1.818z" fill="#17315B"/></svg>