<svg width="60" height="60" fill="none" xmlns="http://www.w3.org/2000/svg"><circle cx="30" cy="30" r="22" fill="#F0F1F8"/><circle cx="30" cy="30" r="29.835" stroke="#9AB4C1" stroke-width=".33"/><path d="M42.305 28.81c-.007-.02-.02-.036-.029-.054-.013-.025-.023-.051-.04-.073l-3.666-4.64a.487.487 0 00-.382-.185h-4.323v-3.371a.487.487 0 00-.487-.487H18.487a.487.487 0 00-.487.487v14.28c0 .269.218.487.487.487h2.56A2.238 2.238 0 0023.227 37a2.235 2.235 0 002.176-1.746h10.035A2.238 2.238 0 0037.618 37a2.235 2.235 0 002.176-1.746h2.06a.487.487 0 00.487-.487v-5.783a.48.48 0 00-.036-.175zm-4.353-3.979l2.897 3.667h-6.984V24.83h4.087zm-18.978-3.857h13.918v9.147H18.974v-9.147zm0 10.122h13.918v3.184h-7.489a2.236 2.236 0 00-2.176-1.75 2.239 2.239 0 00-2.18 1.75h-2.073v-3.184zm4.253 4.93a1.263 1.263 0 01-1.264-1.26c0-.696.567-1.263 1.264-1.263.692 0 1.255.564 1.259 1.258l-.002.006.001.006a1.26 1.26 0 01-1.258 1.253zm14.391 0a1.263 1.263 0 01-1.264-1.26c0-.696.567-1.263 1.264-1.263a1.261 1.261 0 010 2.524zm2.177-1.746a2.236 2.236 0 00-2.177-1.75 2.239 2.239 0 00-2.18 1.75h-1.573v-4.809h7.502v4.81h-1.572z" fill="#000C31"/><path d="M36.256 30.43h-.822a.487.487 0 000 .973h.822a.487.487 0 000-.973z" fill="#000C31"/></svg>