<svg width="60" height="60" fill="none" xmlns="http://www.w3.org/2000/svg"><circle cx="30" cy="30" r="22" fill="#F0F1F8"/><path d="M36.783 21.51a.528.528 0 00-.519-.51H21.52a.528.528 0 00-.519.51v3.2c0 .273.242.511.52.511h.242V36.49c0 .273.242.511.519.511h13.222a.527.527 0 00.519-.51V34.55c.346-.136.658-.272.935-.477 2.803-1.94 2.7-6.876-.174-11.064v-1.497zm-1.8 12.256c-2.388.409-5.537-1.328-7.753-4.46a11.846 11.846 0 01-1.903-4.085h9.657v8.545zM22.039 24.2v-2.179h13.707V24.2H25.153c-.034-.238-.034-.477-.069-.715 0-.272-.242-.476-.553-.476a.488.488 0 00-.485.544c0 .238.035.443.07.681h-2.079V24.2zm12.946 11.779H22.8V25.22h1.454c.346 1.566 1.073 3.166 2.111 4.664 2.18 3.098 5.33 4.936 7.961 4.936.208 0 .45 0 .658-.034v1.192zm1.384-2.758c-.104.068-.242.136-.346.205v-8.17h.242a.52.52 0 00.485-.341c1.765 3.37 1.696 6.877-.38 8.306z" fill="#000C31"/><circle cx="30" cy="30" r="29.835" stroke="#9AB4C1" stroke-width=".33"/></svg>