<svg width="102" height="99" viewBox="0 0 102 99" fill="none" xmlns="http://www.w3.org/2000/svg">
<path d="M51.0026 3.03198C24.5875 3.03198 3.17969 24.5124 3.17969 50.8549C3.17969 77.1974 24.6601 98.6778 51.0026 98.6778C77.3451 98.6778 98.8256 77.1974 98.8256 50.8549C98.8256 24.5124 77.3451 3.03198 51.0026 3.03198Z" fill="#93AEB6"/>
<path d="M51.0015 3.03198C24.5864 3.03198 3.17852 24.5124 3.17852 50.8549C3.17852 54.5559 3.4688 57.6764 4.26706 61.0871C3.83164 59.9986 2.08999 59.4906 2.23513 59.926C2.3077 60.3614 5.13788 64.3527 5.21045 64.7881C11.016 84.672 29.2308 98.6778 51.0015 98.6778C72.119 98.6778 90.1161 84.8897 96.4296 65.8041C96.7925 64.7881 99.6952 61.2323 99.9129 60.1437C100.203 59.0552 97.8084 60.5066 98.0261 59.418C98.5341 56.5879 98.8244 53.7577 98.8244 50.7823C98.8244 24.5124 77.344 3.03198 51.0015 3.03198Z" fill="#93AEB6"/>
<path d="M96.7927 59.7809C97.3732 56.8781 97.6635 53.9028 97.6635 50.9275C97.6635 25.1655 76.7636 4.26562 51.0017 4.26562C25.2397 4.26562 4.33984 25.0929 4.33984 50.8549C4.33984 53.6851 4.63012 56.5153 5.06553 59.2003C5.06553 59.2003 4.9204 59.6357 8.04086 61.0145C11.1613 62.3933 16.9668 65.151 18.9988 67.1103C16.604 62.1756 15.1526 56.6604 15.1526 50.8549C15.1526 31.1161 31.1904 15.0784 50.9291 15.0784C70.6679 15.0784 86.7056 31.1161 86.7056 50.8549C86.7056 56.9507 85.1816 62.7562 82.424 67.7634C82.424 67.7634 85.5445 65.3687 89.0278 63.627C92.5837 61.9579 96.6475 60.434 96.7927 59.7809Z" fill="#C1D6DB"/>
<path d="M65.4424 71.3918L67.4018 74.0043L70.5223 72.9158L68.6355 75.6008L70.6674 78.2133L67.4744 77.2699L65.6601 80.0275L65.515 76.6894L62.3945 75.746L65.515 74.6574L65.4424 71.3918Z" fill="#C1D6DB"/>
<path d="M74.7286 59.9985L76.6154 62.3933L79.4456 61.3773L77.704 63.9173L79.5907 66.312L76.688 65.4412L74.9463 67.9811L74.8738 64.9332L71.8984 64.0624L74.8012 63.0464L74.7286 59.9985Z" fill="#C1D6DB"/>
<path d="M77.3417 46.0654L78.8657 48.0974L81.333 47.2265L79.8816 49.331L81.4056 51.363L78.9383 50.6373L77.4869 52.7418L77.4143 50.2019L75.0195 49.4762L77.4143 48.6053L77.3417 46.0654Z" fill="#C1D6DB"/>
<path d="M72.769 32.8579L73.9301 34.3819L75.7443 33.8013L74.6558 35.3253L75.8169 36.8492L74.0027 36.3412L72.9141 37.9377L72.8416 35.9784L71.0273 35.4704L72.8416 34.8173L72.769 32.8579Z" fill="#C1D6DB"/>
<path d="M61.8872 23.6416L62.9032 24.9478L64.4997 24.4399L63.5563 25.8187L64.5723 27.1249L62.9758 26.6895L62.0324 28.0683L61.9598 26.3992L60.3633 25.8912L61.9598 25.3107L61.8872 23.6416Z" fill="#C1D6DB"/>
<path d="M73.1347 29.1567C73.1347 29.1567 73.1347 29.1567 72.5541 28.6487C71.9736 28.1407 71.7559 27.5602 71.7559 27.5602L72.5541 27.6327C72.5541 27.6327 72.5541 27.3425 72.5541 26.3991C72.5541 25.4557 71.4656 25.3831 71.3205 24.8025C72.6993 24.5848 72.3364 23.8591 71.7559 23.206C70.9576 22.2626 69.8691 22.2626 69.8691 22.2626C69.8691 22.2626 69.8691 22.2626 69.8691 21.6821C68.9983 21.6821 69.0708 21.3918 69.0708 21.3918C69.0708 21.3918 68.3451 22.0449 67.6195 22.8432C66.8938 23.6414 66.3858 23.7866 66.3858 23.7866C66.3858 23.7866 66.3132 24.6574 66.0955 25.3831C65.8778 26.1813 65.6601 26.8345 65.6601 28.1407C65.6601 29.447 66.3858 29.6647 66.3858 29.6647C66.3858 29.6647 66.0229 30.1001 64.9344 31.0435C63.8459 31.9869 62.2494 33.4382 61.0883 34.1639C59.9272 34.8896 59.6369 35.1073 58.8386 35.1073C59.5643 35.1799 59.8546 34.1639 59.6369 34.0188C59.4192 33.8011 58.9112 33.8011 56.9518 33.4382C54.9925 33.0754 55.1376 30.9709 55.1376 30.9709L52.9605 30.5355L52.6703 29.5921C52.6703 29.5921 52.38 29.7372 51.9446 29.3018C51.6543 28.8664 52.8154 28.8664 52.8154 28.8664L52.888 29.2292C52.888 29.2292 53.3959 29.3018 53.7588 29.5195C54.3393 29.5921 54.557 28.7938 54.6296 27.9956C54.7022 27.1973 54.7748 27.2699 55.4279 27.1973C55.6456 26.1088 54.7748 25.4557 53.9765 25.1654C53.1782 24.8751 52.0171 24.6574 51.5092 24.4397C51.4366 24.0043 51.2189 23.5689 51.2189 23.5689C51.2189 23.5689 53.8314 22.9883 54.2668 23.5689C54.4845 24.0043 54.557 23.9317 55.2102 24.0043C56.0084 24.1494 56.2261 23.7866 56.2987 23.206C56.3713 22.6255 56.589 19.9404 56.589 19.9404C56.589 19.9404 56.589 19.9404 56.0084 19.8678C55.6456 19.5776 52.5977 18.2713 52.1623 17.9811C51.7269 17.6908 49.1869 15.804 46.8647 15.5137C44.6151 15.2234 44.9054 17.1828 44.9054 17.1828C44.9054 17.1828 44.1071 17.1102 43.1637 17.1828C43.0912 18.1262 42.7283 18.6342 42.0026 20.1581C41.2769 21.6821 40.6964 22.5529 40.7689 23.4963C40.8415 24.4397 42.2203 24.73 42.2203 24.73C42.2203 24.73 42.2929 25.8185 42.2929 27.3425C42.2203 28.8664 42.1478 30.3178 41.7849 30.4629C41.4221 30.6806 41.4946 30.7532 41.4946 31.6966C41.5672 32.7851 41.7849 32.7851 42.0026 32.4948C42.2929 33.2931 42.946 32.2771 42.946 32.7126C42.7283 33.4382 43.454 33.7285 43.454 33.7285C43.454 33.7285 43.0912 34.0914 42.6557 35.2525C42.2203 36.4136 43.454 36.4136 43.454 36.4136C43.454 36.4136 43.3814 37.2118 43.1637 37.1393C42.5106 36.9941 42.2203 37.357 42.438 37.8649C43.5266 38.1552 43.2363 39.3163 42.6557 40.9128C41.2044 44.0333 39.753 44.8316 38.8096 44.9767C38.6644 46.4281 37.2856 47.5166 36.2697 48.2423C35.2537 48.968 34.4555 49.4034 33.8023 50.4919C32.351 50.7097 31.843 53.2496 30.8996 54.1204C30.5367 54.7735 30.0287 54.9912 30.0287 54.9912C30.0287 54.9912 29.811 54.7009 30.0287 52.9593C30.2465 51.2176 31.4076 51.4353 31.4076 51.4353C31.4076 51.4353 31.335 49.5485 32.7864 48.0972C34.2377 46.7184 34.6006 45.5573 34.7457 44.5413C36.56 44.6864 37.8662 39.8969 38.0839 37.8649C39.6078 38.9535 40.0433 32.9303 40.0433 31.4063C40.0433 29.8824 40.0433 22.6255 40.0433 22.6255C40.0433 22.6255 38.3742 20.3758 37.2856 19.2873C35.6166 18.489 35.4714 18.8519 35.3263 19.7953C33.7298 19.6501 33.6572 20.0856 33.4395 20.8838C33.2218 21.6821 32.4235 21.5369 32.4235 21.5369C32.4235 21.5369 32.4235 22.2626 32.4235 23.6414C32.4235 25.0202 32.6412 27.3425 32.7864 29.2292C32.9315 32.2771 32.4235 33.9462 32.4235 33.9462C32.4235 33.9462 32.9315 34.0914 34.02 34.1639C36.1245 34.3816 35.9068 32.5674 35.9068 32.5674C35.9068 32.5674 36.5599 32.64 36.9954 32.3497C37.5759 31.7692 37.4308 29.5921 37.2856 28.7938C37.1405 27.9956 36.4148 25.6734 35.9794 24.5123C35.4714 24.4397 35.544 24.0043 35.6166 23.7866C35.6891 23.5689 36.7777 22.1175 36.7777 22.1175C36.7777 22.1175 37.3582 22.5529 37.5759 23.5689C37.8662 24.5848 37.7936 26.8345 37.7211 28.3584C37.6485 29.8824 37.7936 30.8258 38.229 31.3337C38.0113 33.9462 37.0679 33.8737 37.0679 33.8737C37.0679 33.8737 36.8502 34.7445 36.3422 36.341C35.2537 39.0986 34.6006 39.9694 34.1652 40.9128C33.9475 40.55 33.0766 40.1872 31.7704 40.1872C29.8836 40.1872 29.3756 40.8403 29.1579 41.9288C27.7791 41.6385 27.2711 43.9607 27.3437 46.1378C27.4163 48.3149 27.9242 49.0406 28.4322 48.8229C28.6499 49.0406 29.0128 49.1857 29.0854 48.8229C29.3756 48.1697 29.811 48.46 29.811 48.46C29.811 48.46 28.4322 50.7822 27.8517 52.5239C27.2711 54.2655 27.126 55.4992 27.634 55.9346C27.9242 58.402 29.3756 59.2728 30.3916 59.3454C30.3916 59.9259 30.1739 60.6516 29.8836 61.3047C29.5933 61.9578 28.0694 64.28 27.9968 66.0217C26.0375 65.8766 25.6746 66.312 25.3843 67.6182C25.0941 68.997 26.11 71.7546 26.0375 73.0609C27.634 72.9883 26.7631 76.9796 26.618 78.6487C26.6906 80.6081 27.4888 80.8258 28.3597 81.0435C28.142 83.0028 29.3031 83.0028 29.8836 83.0754C30.2465 83.0754 29.7385 82.2046 30.1013 82.0594C30.6819 82.4948 32.0607 82.8577 33.0766 82.9303C34.1652 83.148 35.9794 83.0754 36.3422 82.64C36.7777 82.4223 37.0679 82.2046 36.7777 81.7691C36.56 81.1886 37.5033 81.4789 38.1565 81.1886C38.737 80.7532 38.229 80.1726 37.8662 79.9549C37.5759 79.7372 38.3016 79.2292 38.8096 79.0841C39.0273 79.0841 38.8822 78.5036 38.229 78.1407C37.3582 77.7053 34.4555 77.415 33.2943 77.1247C32.2058 76.8345 32.0607 76.1813 31.9155 75.4557C31.7704 74.73 31.4076 71.3192 31.335 69.8678C31.9155 70.0856 33.4395 69.8678 33.9475 69.7227C34.3829 69.1422 35.036 68.7067 35.3988 68.997C36.1971 69.6501 36.8502 69.0696 37.5033 69.0696C37.3582 71.8998 38.3016 72.9883 39.245 73.8591C40.1884 74.73 40.1158 74.8751 40.3335 76.2539C40.5512 77.6327 40.1884 79.6646 40.1884 79.6646H40.6238C40.6238 79.6646 41.1318 79.9549 41.5672 79.8098C42.0026 80.1001 42.6557 80.1726 43.3089 80.0275C43.5991 80.5355 45.2682 80.8983 45.9213 81.0435C46.4293 81.116 47.3727 80.3903 48.0258 80.3903C48.679 80.3903 49.4772 80.6806 49.4772 80.6806C49.4772 80.6806 50.4206 79.7372 51.2914 79.3018C50.856 79.3018 50.4206 78.939 50.4206 78.939C50.4206 78.939 49.7675 79.0115 49.1144 78.939C49.4772 78.2133 49.8401 78.3584 51.0012 77.9956C52.1623 77.7053 52.0897 77.0522 51.7269 76.8345C51.1463 76.6168 51.0737 76.2539 50.7835 75.9636C50.4932 75.6734 50.2029 75.9636 49.7675 76.1813C49.4047 75.3831 50.2029 75.6008 50.4932 75.2379C50.7835 74.8751 50.2029 74.4397 49.1144 74.0768C48.0258 73.7866 47.5179 74.3671 47.5179 74.3671C47.5179 74.3671 46.5745 74.4397 45.5585 74.3671C45.1231 74.0768 43.5266 73.9317 43.5266 73.9317C43.5266 73.9317 43.5991 73.3512 43.7443 72.6255C43.8894 71.8998 44.1797 70.8838 44.1071 70.013C44.3974 70.013 44.5425 69.5776 45.1957 67.0377C46.4293 62.8287 46.1391 61.5224 45.5585 60.7967C44.9779 60.071 43.8168 59.4179 43.8168 59.4179L43.8894 58.3294C43.8894 58.3294 42.946 57.9665 41.4221 57.6763C39.8981 57.386 39.6804 57.9665 39.6804 58.6197C39.0273 58.6922 38.737 58.1117 39.3901 57.386C42.946 54.4107 47.3727 54.5558 48.8241 54.4832C48.8967 53.2496 49.4047 52.3062 49.4047 52.3062C49.4047 52.3062 50.2029 52.9593 50.6383 53.177C50.856 53.2496 50.9286 52.3062 50.9286 52.3062C50.9286 52.3062 54.5571 52.0885 56.0084 52.0885C57.3872 52.0885 56.9518 52.9593 56.9518 52.9593C56.9518 52.9593 58.1855 53.3221 59.4192 54.1204C60.8705 55.2089 60.5077 55.862 60.5077 55.862C60.5077 55.862 61.0883 56.0798 61.5962 56.1523C62.7573 56.1523 62.6848 56.37 63.3379 56.37C63.991 56.37 69.724 56.37 69.724 56.37C69.724 56.37 68.8531 55.2815 68.6354 54.9186C68.4177 54.6284 68.9257 53.685 68.9983 53.3221C69.0708 52.9593 68.4903 51.4353 68.3451 51.2176C68.2 50.9274 69.216 50.1291 69.216 50.1291C69.216 50.1291 69.0708 49.8388 68.5629 49.5485C68.0549 49.2583 67.3292 48.5326 66.4584 48.3874C65.515 48.2423 65.007 48.6777 64.6441 49.3308C64.5716 49.6211 64.1361 49.6937 64.1361 49.6937L62.9025 49.476C62.9025 49.476 62.6122 48.7503 62.2494 48.46C61.8865 48.1697 60.5077 47.7343 60.0723 47.5892C59.6369 47.3715 59.6369 46.9361 59.9271 46.5007C60.0723 45.6298 60.3626 43.5979 60.5077 42.2917C61.306 42.3642 62.3945 42.2191 62.975 41.9288C63.7733 41.3483 63.8459 40.9854 63.991 40.1872C64.4264 40.2597 64.7167 40.042 65.4424 39.2438C66.2407 38.4455 67.0389 37.2844 67.0389 37.2844C67.0389 37.2844 67.4743 36.9941 67.6195 37.5021C67.8372 37.1393 68.4177 36.9216 68.4177 36.9216L68.1274 36.1233L68.9257 36.1959L69.1434 34.8896L69.8691 34.8171L70.5948 34.1639C70.5948 34.1639 70.5222 33.4382 70.5222 31.8417C70.5222 30.2452 70.8851 30.2452 71.3205 30.2452C71.7559 30.2452 72.409 30.6806 72.409 30.6806C72.409 30.6806 72.4816 30.1726 72.1187 29.7372C72.9896 29.8824 73.1347 29.1567 73.1347 29.1567ZM30.1013 43.8882C30.0287 43.2351 30.827 42.3642 32.0607 42.6545C32.351 41.9288 32.6412 42.0739 32.6412 42.0739V42.5819L33.0041 42.7996C33.0041 42.7996 32.5687 44.5413 32.0607 45.267C31.5527 45.9927 31.0447 47.5166 30.1013 47.8795C30.1013 47.952 30.1739 44.5413 30.1013 43.8882Z" fill="#C1D6DB"/>
<path d="M100.421 57.0232C100.639 54.9913 100.784 52.9594 100.784 50.8549C100.784 23.2787 78.4327 1 50.9291 1C23.4255 1 1.07422 23.3512 1.07422 50.8549C1.07422 52.9594 1.21936 54.9913 1.43706 57.0232" stroke="#93AEB6" stroke-width="0.25" stroke-miterlimit="10"/>
<path d="M69.3594 91.1307C69.3594 91.1307 71.3187 82.2773 81.4058 76.4718C87.1388 73.4239 92.0735 71.5371 94.6859 69.7954C94.1054 72.1902 91.0575 79.5196 84.3811 83.1481C77.7048 86.7765 73.0604 87.8651 69.3594 91.1307Z" fill="#93AEB6" stroke="#93AEB6" stroke-width="2" stroke-miterlimit="10" stroke-linecap="round" stroke-linejoin="round"/>
<path d="M80.5321 76.399C80.5321 76.399 76.2505 79.5195 74.9443 80.7532C74.8717 80.8257 74.7266 80.7532 74.7266 80.6806C75.2345 78.2858 77.4842 73.2786 81.6206 69.1421C85.8296 64.9331 96.207 61.2321 100.634 58.1116C100.779 57.9665 100.997 58.1116 100.997 58.3294C100.416 61.3047 96.8601 68.9244 91.1271 71.4643C94.4653 68.7067 96.8601 67.5456 100.489 58.8373C96.207 61.6675 87.1359 65.2234 82.8543 68.6341C78.6453 72.0449 76.6134 77.1973 75.4523 79.8098C76.9762 78.2132 80.5321 76.399 80.5321 76.399Z" fill="#93AEB6" stroke="#93AEB6" stroke-width="2" stroke-miterlimit="10" stroke-linecap="round" stroke-linejoin="round"/>
<path d="M69.3594 91.1307C69.3594 91.1307 71.3187 82.2773 81.4058 76.4718C87.1388 73.4239 92.0735 71.5371 94.6859 69.7954C94.1054 72.1902 91.0575 79.5196 84.3811 83.1481C77.7048 86.7765 73.0604 87.8651 69.3594 91.1307Z" fill="#C1D6DB"/>
<path d="M80.5321 76.399C80.5321 76.399 76.2505 79.5195 74.9443 80.7532C74.8717 80.8257 74.7266 80.7532 74.7266 80.6806C75.2345 78.2858 77.4842 73.2786 81.6206 69.1421C85.8296 64.9331 96.207 61.2321 100.634 58.1116C100.779 57.9665 100.997 58.1116 100.997 58.3294C100.416 61.3047 96.8601 68.9244 91.1271 71.4643C94.4653 68.7067 96.8601 67.5456 100.489 58.8373C96.207 61.6675 87.1359 65.2234 82.8543 68.6341C78.6453 72.0449 76.6134 77.1973 75.4523 79.8098C76.9762 78.2132 80.5321 76.399 80.5321 76.399Z" fill="#C1D6DB"/>
<path d="M32.6391 91.1307C32.6391 91.1307 30.6797 82.2773 20.5926 76.4718C14.8597 73.4239 9.92498 71.5371 7.3125 69.7954C7.89305 72.1902 10.9409 79.5196 17.6173 83.1481C24.2936 86.7765 28.8655 87.8651 32.6391 91.1307Z" fill="#93AEB6" stroke="#93AEB6" stroke-width="2" stroke-miterlimit="10" stroke-linecap="round" stroke-linejoin="round"/>
<path d="M21.4644 76.3993C21.4644 76.3993 25.746 79.5198 27.0523 80.7535C27.1248 80.826 27.27 80.7535 27.27 80.6809C26.762 78.2861 24.5123 73.2789 20.3759 69.1424C16.1669 64.8609 5.78955 61.2324 1.36284 58.0394C1.21771 57.8942 1 58.0394 1 58.2571C1.58055 61.2324 5.13643 68.8522 10.8694 71.3921C7.53121 68.5619 5.13643 67.4733 1.50798 58.7651C5.78955 61.5953 14.8607 65.1511 19.1422 68.5619C23.4238 71.9726 25.3832 77.125 26.5443 79.7375C24.9478 78.2135 21.4644 76.3993 21.4644 76.3993Z" fill="#93AEB6" stroke="#93AEB6" stroke-width="2" stroke-miterlimit="10" stroke-linecap="round" stroke-linejoin="round"/>
<path d="M32.6391 91.1307C32.6391 91.1307 30.6797 82.2773 20.5926 76.4718C14.8597 73.4239 9.92498 71.5371 7.3125 69.7954C7.89305 72.1902 10.9409 79.5196 17.6173 83.1481C24.2936 86.7765 28.8655 87.8651 32.6391 91.1307Z" fill="#C1D6DB"/>
<path d="M21.4644 76.3993C21.4644 76.3993 25.746 79.5198 27.0523 80.7535C27.1248 80.826 27.27 80.7535 27.27 80.6809C26.762 78.2861 24.5123 73.2789 20.3759 69.1424C16.1669 64.8609 5.78955 61.2324 1.36284 58.0394C1.21771 57.8942 1 58.0394 1 58.2571C1.58055 61.2324 5.13643 68.8522 10.8694 71.3921C7.53121 68.5619 5.13643 67.4733 1.50798 58.7651C5.78955 61.5953 14.8607 65.1511 19.1422 68.5619C23.4238 71.9726 25.3832 77.125 26.5443 79.7375C24.9478 78.2135 21.4644 76.3993 21.4644 76.3993Z" fill="#C1D6DB"/>
<path d="M33.8017 81.8418C33.8017 81.8418 54.7016 95.6299 76.2546 76.4717C60.5797 92.5094 40.8409 88.0101 32.6406 82.2772C33.584 80.6081 33.8017 81.8418 33.8017 81.8418Z" fill="#C1D6DB"/>
<path fill-rule="evenodd" clip-rule="evenodd" d="M48.8227 6.22485C49.0404 6.66026 49.113 10.6516 48.8953 11.3772L48.7501 11.9578H49.3307H49.9112L49.8387 10.7967C49.8387 10.1436 49.8387 9.34531 49.8387 8.98247L49.9112 8.32934L51.1449 9.99843C52.0883 11.2321 52.5237 11.7401 53.1043 11.9578L53.83 12.2481L53.9025 9.34531C53.9751 7.74879 54.0477 6.36998 54.1202 6.22485C54.1928 6.07971 54.0477 6.00714 53.6123 6.00714H52.9591L53.0317 7.82136L53.1043 9.63559L52.814 9.20017C52.6689 8.98247 52.0157 8.11164 51.4352 7.38595C50.3467 5.93457 50.3467 5.93457 49.5484 5.93457C48.7501 5.93457 48.7501 5.93457 48.8227 6.22485ZM48.4599 6.73283C48.4599 6.87797 48.5324 7.16824 48.605 7.38595C48.7501 7.67622 48.7501 7.60366 48.7501 7.16824C48.7501 6.87797 48.6776 6.58769 48.605 6.51512C48.4599 6.44255 48.3873 6.58769 48.4599 6.73283ZM52.6689 6.73283C52.5963 6.8054 52.6689 7.09567 52.7414 7.31338C52.8866 7.67622 52.8866 7.67622 52.8866 7.16824C52.9591 6.58769 52.8866 6.51512 52.6689 6.73283ZM54.2654 8.18421C54.2654 9.05503 54.3379 9.63559 54.3379 9.56302C54.4831 9.20017 54.5556 6.66026 54.4105 6.66026C54.3379 6.58769 54.2654 7.31338 54.2654 8.18421ZM41.9287 7.0231C41.8561 7.0231 41.5658 7.09567 41.3481 7.16824C40.9853 7.24081 40.9127 7.31338 40.9853 8.11164C41.0578 8.98247 40.6224 12.4658 40.4047 13.1915C40.3321 13.5543 40.3321 13.5543 41.0578 13.4092C41.9287 13.1915 41.9287 13.1915 41.711 12.8286C41.6384 12.6835 41.5658 12.2481 41.6384 11.8852C41.711 11.3772 41.7835 11.3047 42.3641 11.1595C42.7269 11.087 43.0898 11.0144 43.2349 10.9418C43.5252 10.7967 44.1057 11.5949 44.1057 12.1755C44.1057 12.6109 44.3234 12.6835 45.3394 12.3932C46.5005 12.1029 46.4279 12.1029 46.0651 11.6675C45.8474 11.4498 45.0491 10.2887 44.3234 9.05503C42.8721 6.95053 42.6544 6.8054 41.9287 7.0231ZM40.5499 8.03907C40.5499 8.25678 40.6224 8.47448 40.695 8.47448C40.7676 8.47448 40.8401 8.32934 40.8401 8.18421C40.8401 8.03907 40.7676 7.82136 40.695 7.74879C40.6224 7.60366 40.5499 7.74879 40.5499 8.03907ZM62.7559 7.67622C62.6834 7.67622 62.3931 7.74879 62.1754 7.82136C61.5223 7.9665 60.724 8.69219 60.3612 9.41788C59.9983 10.1436 59.9258 11.5224 60.216 12.1029C60.6514 12.9012 61.4497 13.5543 62.3205 13.8446C62.8285 13.9897 63.1914 14.1349 63.1914 14.28C63.1914 14.5703 64.2073 15.6588 64.7153 15.8765C65.0056 16.0217 65.441 16.0942 65.8038 16.0217C66.457 15.8765 66.5295 15.7314 65.949 15.4411C65.7313 15.296 65.3684 14.9331 65.0781 14.5703L64.6427 13.9172L65.2233 13.5543C65.8764 13.1189 66.3844 12.2481 66.5295 11.3772C66.7472 10.1436 66.0215 8.76476 64.7879 8.18421C64.2799 7.82136 63.1188 7.60366 62.7559 7.67622ZM62.8285 8.83733C62.0303 9.27274 61.74 9.92586 61.74 11.1595C61.74 12.2481 61.8125 12.3932 62.1754 12.7561C63.4091 13.8446 64.7879 12.6835 64.7879 10.579C64.7879 9.85329 64.7153 9.56302 64.425 9.27274C63.9896 8.69219 63.4091 8.54705 62.8285 8.83733ZM41.8561 9.63559C41.8561 10.5064 41.8561 10.5064 42.2915 10.3613C42.9446 10.2161 42.9446 10.1436 42.5092 9.49045C42.0738 8.61962 41.8561 8.61962 41.8561 9.63559ZM33.5107 9.63559C32.2044 10.2161 32.1319 10.2887 32.3496 10.579C32.4947 10.7241 32.7124 11.1595 32.8575 11.4498C33.0027 11.8127 33.3655 12.5383 33.6558 13.1915C33.9461 13.8446 34.3089 14.6428 34.3815 15.0783L34.5992 15.8039L36.3409 15.0057C37.7197 14.3526 38.0825 14.2074 38.0825 13.9172C38.0825 13.3366 37.8648 13.0463 37.5745 13.4092C37.3568 13.6994 36.4134 14.1349 36.0506 14.1349C35.978 14.1349 35.6877 13.772 35.5426 13.3366C35.2523 12.6109 35.2523 12.5383 35.47 12.3206C35.6152 12.1755 35.9054 12.1029 36.0506 12.1029C36.3409 12.1029 36.3409 12.0304 36.1231 11.6675C35.9054 11.2321 35.9054 11.2321 34.962 11.5224C34.6718 11.5949 34.0186 10.5064 34.2364 10.2161C34.3089 10.1436 34.5992 9.99843 34.962 9.92586C35.6152 9.85329 35.6152 9.78072 35.3975 9.34531C35.3249 9.05503 35.1072 8.83733 35.0346 8.83733C34.962 8.83733 34.3089 9.27274 33.5107 9.63559ZM62.6834 9.20017C62.4657 9.34531 62.1754 9.85329 62.0303 10.2887C61.74 11.3772 61.74 11.8852 62.0303 11.0144C62.248 10.3613 62.9736 9.56302 63.3365 9.56302C63.6993 9.56302 64.425 10.2161 64.4976 10.579C64.5702 10.8693 64.5702 10.8693 64.5702 10.4338C64.5702 10.1436 64.425 9.70815 64.2799 9.41788C63.9896 8.9099 63.3365 8.76476 62.6834 9.20017ZM50.0564 9.63559C50.0564 9.78072 50.2015 10.1436 50.4192 10.3613C50.6369 10.579 51.0723 11.1595 51.5078 11.6675C52.1609 12.5383 52.814 12.9738 53.83 13.264C54.2654 13.3366 54.2654 13.3366 54.2654 12.9012C54.2654 12.6109 54.1928 12.4658 54.1928 12.5383C54.0477 12.6835 52.7414 12.1755 52.2334 11.6675C51.9432 11.4498 51.4352 10.7967 51.0723 10.2161C50.3467 9.27274 50.0564 9.05503 50.0564 9.63559ZM42.2189 9.85329C42.2189 9.99843 42.2915 10.1436 42.3641 10.1436C42.4366 10.1436 42.5092 10.071 42.5092 9.99843C42.5092 9.92586 42.4366 9.78072 42.3641 9.70816C42.2915 9.63559 42.2189 9.70815 42.2189 9.85329ZM34.8169 10.2887C34.3815 10.5064 34.5992 10.9418 35.1797 10.9418C35.7603 10.9418 36.1231 10.7241 35.978 10.4338C35.8329 10.1436 35.1797 10.071 34.8169 10.2887ZM50.1289 10.7967C50.1289 11.087 50.129 11.2321 50.2015 11.087C50.2741 10.9418 50.2741 10.6516 50.2015 10.5064C50.129 10.3613 50.1289 10.5064 50.1289 10.7967ZM31.8416 10.8693C31.8416 11.0144 31.9141 11.3047 32.0593 11.4498C32.2044 11.5949 32.6398 12.6109 33.1478 13.6269C33.5832 14.7154 34.0912 15.5862 34.1638 15.5862C34.4541 15.6588 34.2364 15.0057 33.2204 12.7561C32.277 10.8693 31.8416 10.2161 31.8416 10.8693ZM71.3916 11.1595C71.3916 11.3047 70.9562 12.2481 70.3757 13.1915C69.142 15.296 68.9969 15.8039 69.2146 16.4571C69.4323 17.1102 70.5934 17.6907 71.2465 17.5456C71.6094 17.473 71.6819 17.473 71.6094 17.7633C71.5368 17.981 71.7545 18.1987 72.1899 18.4164C72.9156 18.8518 73.2059 18.9244 73.0607 18.6341C72.9882 18.489 75.1652 14.4977 75.6732 13.9897L76.0361 13.6269L75.1652 13.1189L74.2944 12.6109L74.0767 13.1189C73.859 13.6994 72.5527 16.0217 72.1899 16.4571C71.8271 16.8925 71.0288 16.8199 70.8111 16.3845C70.666 16.0942 70.7385 15.8039 71.2465 14.8605C72.1173 13.1915 72.843 12.1029 73.0607 12.1029C73.351 12.1029 73.0607 11.8852 72.1173 11.3772C71.6094 11.0144 71.3916 11.0144 71.3916 11.1595ZM66.7472 11.8852C66.6021 12.3932 66.3118 12.9738 65.8038 13.4092C65.2959 13.9897 65.1507 14.2074 65.2959 14.3526C65.7313 14.788 67.1101 12.5383 66.9649 11.4498C66.9649 11.1595 66.8924 11.2321 66.7472 11.8852ZM42.5092 11.5224C41.9287 11.6675 41.8561 11.7401 41.9287 12.3206C41.9287 12.6835 42.0012 12.8286 42.0012 12.6835C42.0738 12.3206 43.1623 12.1029 43.5252 12.3932C43.888 12.6835 44.0332 12.3932 43.7429 11.9578C43.4526 11.3047 43.3075 11.3047 42.5092 11.5224ZM59.6355 12.0304C59.5629 13.1189 60.6514 14.4977 61.9577 14.8605C62.3931 15.0057 62.9011 15.3685 63.4816 16.0217C64.4976 17.1828 65.0781 17.4005 66.457 16.965C67.2552 16.6748 67.3278 16.6748 67.1101 16.4571C66.8924 16.3119 66.5295 16.2394 65.8038 16.3119C64.6427 16.3845 63.917 16.0942 63.2639 15.0783C62.9736 14.5703 62.6108 14.3526 61.9577 14.1349C60.9417 13.772 60.0709 12.9738 59.7806 12.1029L59.6355 11.5949V12.0304ZM35.978 12.4658C35.3975 12.6109 35.47 13.0463 36.0506 13.1189C36.3409 13.1189 36.5586 13.0463 36.6311 12.9012C36.7763 12.5383 36.486 12.3206 35.978 12.4658ZM48.3873 12.4658C48.3873 12.9738 49.8387 13.3366 50.2015 12.9738C50.6369 12.5383 50.4192 12.3206 49.4033 12.3206C48.8953 12.3206 48.3873 12.3932 48.3873 12.4658ZM73.1333 12.4658C72.9156 12.6109 71.0288 15.8765 71.0288 16.1668C71.0288 16.6748 71.3191 16.3119 72.0448 15.0057C72.4802 14.28 72.9156 13.4817 73.0607 13.3366C73.6413 12.7561 73.6413 12.1029 73.1333 12.4658ZM45.3394 12.7561C44.904 12.9012 44.3234 12.9738 44.1057 12.9012C43.8155 12.8286 43.7429 12.9012 43.7429 13.1189C43.7429 13.772 43.9606 13.8446 45.3394 13.4817C46.4279 13.1915 46.6456 13.1189 46.7182 12.8286C46.7908 12.3932 46.5731 12.3932 45.3394 12.7561ZM27.9954 12.7561C27.8503 12.8286 27.1246 13.1915 26.3989 13.6269C25.2378 14.3526 24.875 14.6428 25.2378 14.6428C25.3104 14.6428 25.7458 15.2234 26.1812 15.9491C26.6166 16.6748 27.2697 17.6182 27.56 18.0536C27.8503 18.489 28.1406 18.997 28.1406 19.2147C28.1406 19.5775 28.1406 19.5775 29.1565 18.997C29.8822 18.5616 29.9548 18.4164 29.7371 18.2713C29.5919 18.1987 28.9388 17.2553 28.2857 16.1668C27.1246 14.28 26.9795 13.9172 27.7777 14.0623C28.2857 14.2074 28.6485 14.788 28.6485 15.4411C28.6485 15.8039 28.7211 16.0942 28.7937 16.0942C29.084 16.0942 29.9548 14.8605 29.9548 14.4251C29.9548 13.6994 29.4468 12.9738 28.8663 12.7561C28.3583 12.6109 28.3583 12.6109 27.9954 12.7561ZM40.9127 13.772C40.1144 13.9897 39.8242 14.1349 39.7516 14.3526C39.679 14.5703 39.679 14.7154 39.679 14.788C39.679 14.788 40.2596 14.7154 40.9127 14.5703C41.8561 14.3526 42.0738 14.2074 42.1464 13.9172C42.2189 13.4092 42.2915 13.4092 40.9127 13.772ZM75.8909 14.28C75.5281 14.7154 73.5687 18.2713 73.4236 18.6341C73.351 18.8518 73.2784 19.0695 73.2059 19.1421C72.9882 19.2873 71.2465 18.2713 71.2465 18.0536C71.2465 17.981 71.0288 17.9084 70.8111 17.9084C70.2305 17.9084 69.2871 17.2553 68.9969 16.6022C68.7792 16.1668 68.7792 16.1668 68.8517 16.8199C68.9243 17.6182 69.5774 18.3439 70.4482 18.6341C70.7385 18.7067 71.4642 19.0695 71.9722 19.4324C72.9882 20.0129 73.6413 20.0855 73.6413 19.505C73.6413 19.1421 75.3829 16.0217 76.0361 15.2234C76.4715 14.6428 76.6892 14.0623 76.3989 14.0623C76.1812 13.9897 76.0361 14.1349 75.8909 14.28ZM27.6326 14.4251C27.6326 14.6428 28.3583 15.6588 28.4308 15.5862C28.576 15.4411 28.2857 14.6428 27.9954 14.4977C27.7777 14.3526 27.6326 14.3526 27.6326 14.4251ZM36.3409 15.296C35.0346 15.8765 34.5266 16.0217 34.3815 15.9491C34.2364 15.8039 34.1638 15.8765 34.1638 16.1668C34.1638 16.3845 34.3089 16.6748 34.3815 16.6748C34.6718 16.8199 38.4454 15.2234 38.3728 14.9331C38.3002 14.4977 38.3002 14.4251 38.1551 14.4251C38.1551 14.4977 37.2842 14.8605 36.3409 15.296ZM24.8024 15.1508C24.8024 15.296 24.875 15.5137 25.0201 15.5862C25.3104 15.7314 27.7777 19.6501 27.8503 20.0855C27.8503 20.2307 28.068 20.4484 28.2131 20.4484C28.6485 20.5209 30.3176 19.4324 30.3176 19.0695C30.3176 18.6341 30.0274 18.7067 29.1565 19.2873C28.7211 19.5775 28.3583 19.7952 28.2857 19.7952C28.2131 19.7952 28.068 19.5775 27.9954 19.3598C27.7051 18.5616 25.2378 14.788 25.0201 14.788C24.875 14.788 24.8024 14.9331 24.8024 15.1508ZM30.0274 15.1508C29.9548 15.3685 29.6645 15.7314 29.3742 15.9491C29.0114 16.3119 28.8662 16.5296 29.0114 16.7473C29.084 17.0376 29.2291 16.965 29.7371 16.4571C30.0999 16.0217 30.3176 15.6588 30.3176 15.296C30.3176 14.7154 30.1725 14.6428 30.0274 15.1508ZM80.5353 17.7633C80.4628 17.9084 79.2291 18.6341 77.8503 19.3598L75.3104 20.6661L75.8909 21.174C76.3989 21.682 76.4715 21.682 76.544 21.3918C76.6166 21.2466 76.9069 20.9563 77.2697 20.8112L77.8503 20.5209L78.5034 21.174C79.1565 21.8272 79.1565 21.8272 78.8662 22.3352C78.7211 22.6254 78.4308 22.9157 78.2857 23.0608C77.9954 23.206 78.068 23.3511 78.7937 24.0042C79.5194 24.6574 79.6645 24.7299 79.7371 24.4396C79.8096 24.2945 80.3902 22.9157 80.9707 21.4643L82.0593 18.7793L81.3336 18.1262C80.9707 17.7633 80.6079 17.473 80.6079 17.473C80.6805 17.473 80.6079 17.6182 80.5353 17.7633ZM20.0854 18.9244C18.7792 19.6501 17.9083 21.2466 18.126 22.6254C18.3438 23.9317 19.9403 25.2379 21.2465 25.2379C22.5528 25.2379 24.0041 24.0768 24.4395 22.7706C24.7298 21.8272 24.5847 20.5935 24.0041 19.8678C22.9156 18.5616 21.4642 18.1987 20.0854 18.9244ZM79.3017 19.6501L78.576 20.0855L79.0114 20.4484C79.2291 20.6661 79.4468 20.8112 79.5194 20.8112C79.5919 20.8112 80.1725 19.2873 80.0999 19.2147C80.0273 19.2873 79.6645 19.4324 79.3017 19.6501ZM82.0593 19.7227C80.5353 23.3511 80.0999 24.3671 80.0999 24.6574C80.0999 25.2379 79.5919 25.1653 78.7211 24.2945C78.068 23.6414 77.8503 23.4963 77.7051 23.714C77.56 23.8591 77.7051 24.1494 78.5034 24.9476C79.4468 25.891 79.5919 25.9636 79.8822 25.7459C80.0999 25.6733 80.245 25.383 80.245 25.2379C80.245 25.0202 80.6805 23.9317 81.1885 22.698C81.6964 21.4643 82.2044 20.2307 82.3496 19.9404C82.4947 19.5775 82.4947 19.3598 82.4221 19.2873C82.3495 19.2147 82.2044 19.4324 82.0593 19.7227ZM20.158 20.0129C19.142 20.4484 19.2146 22.1174 20.2305 22.9883C20.9562 23.5688 21.2465 23.714 21.8996 23.714C23.2059 23.714 23.7864 22.5529 23.0607 21.3918C22.4802 20.4484 20.9562 19.7227 20.158 20.0129ZM79.3017 20.0129C79.1565 20.0855 79.1565 20.1581 79.2291 20.2307C79.3017 20.3032 79.4468 20.2307 79.5194 20.1581C79.6645 19.9404 79.5194 19.8678 79.3017 20.0129ZM19.9403 20.5209C19.7226 20.7386 19.5774 21.0289 19.5774 21.3192V21.7546L19.9403 21.3192C20.158 21.0289 20.4483 20.9563 20.7385 20.9563C21.3191 20.9563 22.2625 21.6095 22.6979 22.19C22.9156 22.4803 23.0607 22.5529 23.1333 22.4803C23.2784 22.19 23.1333 21.682 22.6253 21.2466C21.5368 20.1581 20.5208 19.9404 19.9403 20.5209ZM75.2378 21.8272L76.1812 22.7706L76.7617 22.2626C77.4874 21.6095 77.7051 21.6095 78.1406 22.0449C78.4308 22.3351 78.4308 22.3351 78.576 22.1174C78.7211 21.8997 78.576 21.682 78.2857 21.3918C77.7051 20.8112 77.56 20.8112 76.9069 21.3918C76.6166 21.682 76.3263 21.8997 76.2538 21.8997C76.1812 21.8997 75.8909 21.682 75.6006 21.3918C75.3104 21.1015 74.9475 20.8838 74.6572 20.8838C74.367 20.8838 74.367 20.9563 75.2378 21.8272ZM24.8024 22.698C24.5847 23.4237 23.4961 24.7299 22.7705 25.0928C20.8111 26.1087 18.5615 24.9476 17.9083 22.698C17.7632 22.3352 17.7632 22.3351 17.7632 22.8431C17.7632 24.0042 18.634 25.383 19.8677 25.891C22.0448 26.907 24.6573 25.3105 25.0927 22.698C25.1652 21.8272 25.0201 21.8272 24.8024 22.698ZM86.0506 24.0042C85.8329 24.3671 82.1319 26.9796 81.769 27.0521C81.4787 27.1247 81.6239 27.3424 82.5673 28.6486C83.1478 29.5195 83.7284 30.1726 83.7284 30.1726C83.7284 30.1726 84.0186 30.1 84.3089 30.0275L84.8169 29.8098L84.1638 29.1566C83.0752 28.1407 83.0752 28.1407 86.2683 25.9636C86.7763 25.6008 87.2117 25.3105 87.3568 25.3105C87.5019 25.2379 87.3568 24.9476 86.994 24.4396C86.7037 24.0042 86.4134 23.6414 86.3408 23.6414C86.2683 23.714 86.1231 23.8591 86.0506 24.0042ZM87.4294 25.6733C86.9214 25.7459 83.8009 28.0681 83.8009 28.3584C83.8009 28.5035 83.8735 28.5761 83.9461 28.6486C84.0912 28.7212 86.1231 27.3424 87.7197 26.1813C88.1551 25.891 87.9374 25.6008 87.4294 25.6733ZM13.9896 26.6893C13.6993 26.9796 12.0303 29.4469 12.0303 29.592C12.0303 29.6646 12.1754 29.7372 12.4657 29.8098C12.9737 29.9549 16.3844 31.9868 16.8198 32.4222C17.1101 32.7125 17.1827 32.7125 17.6906 31.8417C18.1986 30.9709 18.1986 30.9709 17.8358 30.8257C17.6181 30.7532 17.1101 30.5354 16.7472 30.3177L16.0215 29.8823H17.3278C18.0535 29.8823 18.7792 29.8098 18.8517 29.7372C19.0694 29.592 19.7226 28.5035 19.7226 28.2858C19.7226 28.2132 18.9969 28.2132 18.0535 28.2858L16.3844 28.4309V27.9955C16.3844 27.7778 16.3118 27.3424 16.1667 27.1247C15.8764 26.399 14.5702 26.1087 13.9896 26.6893ZM81.1885 27.7778C81.1159 27.923 81.4062 28.4309 81.769 29.0115C82.1319 29.5195 82.7124 30.3177 83.0027 30.6806L83.5107 31.4063L84.3089 31.116C84.8895 30.8983 85.1072 30.7532 85.1072 30.4629C85.1072 30.0275 85.0346 30.0275 84.3089 30.3177C83.9461 30.4629 83.6558 30.5354 83.6558 30.5354C83.6558 30.5354 83.1478 29.8823 82.5673 29.0115C81.9867 28.2132 81.4787 27.4875 81.4062 27.4875C81.261 27.5601 81.1885 27.7053 81.1885 27.7778ZM13.9896 28.0681C13.8445 28.1407 13.6993 28.2858 13.6993 28.3584C13.6993 28.5035 15.2959 29.5195 15.441 29.5195C15.5136 29.5195 15.5136 29.3018 15.5136 29.0115C15.5861 28.3584 14.6427 27.7053 13.9896 28.0681ZM14.2073 28.4309C14.2073 28.5035 14.425 28.7212 14.7153 28.8664C15.0782 29.0841 15.2233 29.0841 15.2233 28.9389C15.2233 28.7938 15.1507 28.6486 15.0056 28.5035C14.7879 28.2132 14.2073 28.1407 14.2073 28.4309ZM19.65 29.2292C19.2872 29.9549 18.7792 30.2452 17.9083 30.2452H17.1827L17.9083 30.608C18.3438 30.7531 18.7792 30.8983 18.9969 30.8257C19.5049 30.6806 20.5934 28.7212 20.158 28.7212C20.0128 28.7212 19.7951 28.9389 19.65 29.2292ZM11.74 30.2452C11.74 30.4629 11.9577 30.6806 12.1028 30.6806C12.4657 30.7531 15.5861 32.5674 16.5295 33.2931C16.8198 33.5108 17.1827 33.7285 17.2552 33.7285C17.5455 33.7285 18.634 31.6965 18.4163 31.5514C18.2712 31.4063 18.0535 31.6965 17.7632 32.2045C17.4729 32.6399 17.1827 33.0754 17.1827 33.0754C17.1101 33.0754 16.9649 32.9302 16.7472 32.7125C16.2393 32.2045 12.8285 30.1726 12.1754 30.0275C11.74 29.8823 11.6674 29.8823 11.74 30.2452ZM89.8967 30.3177C89.679 30.5354 88.5179 31.1886 87.3568 31.7691C86.1231 32.3497 85.1797 32.9302 85.1797 32.9302C85.1797 33.0028 85.3249 33.3656 85.6152 33.801C86.0506 34.5267 86.0506 34.5267 86.3408 34.309C86.7037 33.9462 90.2596 32.0594 90.7675 31.9143C90.9853 31.8417 91.203 31.8417 91.2755 31.9868C91.3481 32.0594 91.2755 32.132 91.1304 32.132C90.7675 32.132 87.0665 34.0913 86.5586 34.5267C86.0506 35.0347 85.7603 34.8896 85.3249 34.0913C84.962 33.3656 84.5992 33.0754 84.5992 33.5108C84.5992 33.8736 85.6877 35.6878 85.8329 35.6878C85.9054 35.6878 86.2683 35.5427 86.486 35.325C87.1391 34.817 90.5498 33.0028 90.9853 32.9302C91.4932 32.8576 91.7109 32.4222 91.4207 32.0594C91.2755 31.9143 90.9853 31.3337 90.695 30.8983C90.4773 30.3903 90.2596 30.0275 90.187 30.0275C90.2596 29.9549 90.1144 30.1 89.8967 30.3177ZM9.92576 33.9462C9.70805 34.5993 9.34521 35.6153 9.34521 35.6878C9.34521 35.6878 9.49034 35.7604 9.63548 35.7604C10.216 35.7604 13.4091 36.9215 13.7719 37.2844C14.2073 37.7198 13.9896 38.4455 13.4816 38.5906C13.0462 38.7357 9.63548 37.6472 9.20007 37.2118C8.98236 36.9941 8.90979 37.0666 8.61952 37.8649C8.25667 38.9534 8.25667 38.9534 8.61952 38.9534C8.76466 38.9534 9.78062 39.2437 10.8692 39.6066C11.9577 39.9694 12.9737 40.2597 13.1914 40.2597C14.3525 40.2597 15.1507 39.026 14.7879 37.7923C14.6427 37.2844 14.6427 37.2118 14.8604 37.2844C15.0782 37.3569 15.2233 37.2118 15.441 36.5587L15.7313 35.6878H15.3684C14.8604 35.6878 10.6514 34.1639 10.3612 33.8736C10.0709 33.801 9.99833 33.801 9.92576 33.9462ZM92.0012 36.4135C92.1464 36.7764 92.2915 37.0666 92.2189 37.1392C92.0738 37.2844 89.0259 38.2277 88.0825 38.3729C87.3568 38.518 87.3568 38.4455 87.7197 39.4614C87.8648 39.9694 88.0099 40.1871 88.1551 40.1145C88.3002 40.1145 89.3162 39.7517 90.4773 39.3889C91.6384 39.026 92.6543 38.7357 92.6543 38.7357C92.872 38.7357 93.0172 39.7517 92.7995 39.9694C92.6543 40.1145 92.5818 39.9694 92.5818 39.6066C92.5818 39.1711 92.5092 39.0986 92.2915 39.1711C92.1464 39.2437 91.2755 39.4614 90.4047 39.6791C89.5339 39.8968 88.663 40.2597 88.4453 40.4048C87.8648 40.7677 87.6471 40.6225 87.4294 39.7517C87.3568 39.3163 87.1391 38.9534 87.0665 38.9534C86.994 38.9534 87.0665 39.4614 87.2117 40.1145C87.3568 40.7677 87.5019 41.2756 87.5019 41.2756C87.5019 41.4208 88.3002 41.2756 88.4453 41.1305C88.7356 40.8402 92.2189 39.8968 92.3641 40.042C92.4366 40.1145 92.5092 40.4048 92.5818 40.6225C92.6543 40.9854 92.7269 41.0579 93.5977 41.0579C94.6137 41.1305 94.7588 40.9854 94.396 40.4048C94.2509 40.2597 94.0331 40.1871 93.4526 40.2597C93.0172 40.3323 92.6543 40.3322 92.6543 40.1871C92.6543 40.1145 92.8721 40.042 93.2349 40.042C93.5252 40.042 93.8154 39.9694 93.888 39.9694C93.9606 39.8968 93.6703 38.9534 93.38 37.7923L92.7995 35.6878H92.1464H91.7109L92.0012 36.4135ZM9.05493 36.341C9.1275 36.6312 9.27264 36.7038 9.78062 36.7764C10.3612 36.8489 11.8851 37.4295 13.4091 38.01C13.6993 38.0826 13.6993 38.0826 13.6268 37.7198C13.5542 37.3569 13.3365 37.2118 12.0303 36.7764C11.232 36.4861 10.1435 36.1232 9.70805 36.1232C9.05493 35.9781 8.98236 36.0507 9.05493 36.341ZM91.4207 36.341C91.3481 36.5587 91.4207 36.7764 91.5658 36.9215C91.9287 37.2844 92.0738 37.0666 91.7835 36.4861C91.5658 36.0507 91.4932 36.0507 91.4207 36.341ZM15.6587 36.8489C15.5136 37.2118 15.441 37.5021 15.441 37.6472C15.441 37.7198 15.3684 37.8649 15.2233 37.8649C15.0782 37.9375 15.0782 38.01 15.2233 38.3003C15.3684 38.6632 15.441 38.5906 15.8038 37.5746C16.0941 36.341 16.0941 35.833 15.6587 36.8489ZM15.0056 39.1711C14.7879 39.8968 14.2073 40.4774 13.6268 40.6225C13.1914 40.6951 12.5382 40.55 11.0143 40.042C8.47438 39.2437 8.11154 39.1711 7.9664 39.4614C7.89383 39.7517 8.11153 39.9694 8.54695 39.9694C8.69209 39.9694 9.70805 40.2597 10.7966 40.6225C12.9737 41.3482 13.4816 41.4208 14.2073 41.0579C14.7153 40.7677 15.2959 39.6066 15.1507 39.026C15.1507 38.8083 15.0782 38.8083 15.0056 39.1711ZM93.0898 43.6704C91.5658 44.759 91.5658 44.8315 90.2596 44.9041L88.9533 45.0492L89.0259 45.6298C89.0985 45.9926 89.0985 46.3555 89.0985 46.5732C89.0985 46.7909 89.171 46.8635 89.3887 46.7909C89.5339 46.7183 90.1144 46.6457 90.695 46.5006C91.7109 46.3555 91.8561 46.3555 93.4526 46.936C94.396 47.2263 95.1943 47.5166 95.2668 47.5166C95.3394 47.5166 95.3394 46.7909 95.1943 46.3555C95.1217 46.0652 95.0491 45.9926 94.904 46.1378C94.6863 46.3555 93.2349 46.0652 93.0898 45.7749C93.0172 45.7024 93.3075 45.4846 93.6703 45.2669C94.904 44.5412 95.0491 44.3961 94.904 43.3801C94.8314 42.9447 94.7588 42.5093 94.6863 42.5093C94.6137 42.5819 93.9606 43.0899 93.0898 43.6704ZM7.31328 44.4687C7.24071 45.0492 7.16814 45.7749 7.09557 46.1378C7.023 46.7909 7.023 46.7909 7.38585 46.7183C7.74869 46.6457 11.9577 47.2263 12.6834 47.444C13.0462 47.5166 13.0462 47.444 13.2639 45.7024C13.4816 43.9607 13.4816 43.8881 13.1914 43.6704C12.6108 43.3076 12.5382 43.4527 12.5382 44.4687C12.5382 45.0492 12.4657 45.4846 12.4657 45.5572C12.3931 45.6298 11.9577 45.6298 11.5223 45.5572C10.724 45.4846 10.6514 45.4121 10.6514 44.9767C10.6514 44.6864 10.724 44.4687 10.8692 44.3961C11.0143 44.3235 10.9417 44.251 10.5789 44.1784C9.92576 44.0333 9.85319 44.1058 9.85319 44.6864C9.85319 45.1944 9.85319 45.1944 9.1275 45.1944C8.40181 45.1944 8.40181 45.1944 8.40181 44.6138C8.40181 44.3235 8.47438 43.9607 8.54695 43.9607C8.90979 43.743 8.69209 43.5253 8.1841 43.5253H7.60355L7.31328 44.4687ZM8.47438 44.3961C8.32924 44.8315 8.40181 44.9767 8.69209 44.759C8.90979 44.6138 8.90979 44.0333 8.69209 44.0333C8.61952 43.9607 8.47438 44.1784 8.47438 44.3961ZM12.0303 44.251C12.0303 44.3961 12.1028 44.4687 12.1754 44.3961C12.248 44.3235 12.3205 44.251 12.3205 44.1058C12.3205 43.9607 12.248 43.9607 12.1754 43.9607C12.1028 43.9607 12.0303 44.1058 12.0303 44.251ZM13.6993 44.251C13.6993 44.759 13.1914 47.7343 13.1188 47.8069C13.0462 47.8794 12.7559 47.8068 12.4657 47.7343C11.9577 47.5166 8.76466 47.0812 7.38585 47.0086C6.73273 46.936 6.66016 47.0086 6.66016 47.2989C6.66016 47.6617 7.023 47.8794 7.38585 47.8069C7.53098 47.7343 8.61952 47.8794 9.92576 48.0971C11.232 48.3148 12.4657 48.46 12.7559 48.5325L13.2639 48.6051L13.5542 46.5006C13.6993 45.3395 13.7719 44.3235 13.7719 44.251C13.7719 44.1784 13.6993 44.1784 13.6993 44.251ZM10.7966 44.8315C10.724 45.0492 10.7966 45.1944 10.8692 45.1944C10.9417 45.1944 11.0143 45.0492 11.0143 44.8315C11.0143 44.6138 11.0143 44.4687 10.9417 44.4687C10.9417 44.4687 10.8692 44.6138 10.7966 44.8315ZM94.396 45.1218C93.5977 45.6298 93.5252 45.8475 94.1057 45.8475C94.6863 45.8475 95.3394 45.4121 95.3394 44.9767C95.3394 44.6138 95.2668 44.6138 94.396 45.1218ZM88.6631 45.7749C88.6631 45.9926 88.6631 46.5006 88.7356 47.0086L88.8082 47.8794L89.4613 47.7343C91.6384 47.3714 91.7109 47.3714 93.6703 48.0246C94.7588 48.3874 95.6297 48.6051 95.7022 48.6051C95.7748 48.5325 95.7022 48.3874 95.7022 48.2423C95.6297 48.0246 95.0491 47.7343 93.6703 47.2989C91.6384 46.6457 90.9853 46.5732 89.6064 47.0812C89.3162 47.1537 89.0259 47.2263 88.9533 47.1537C88.8808 47.0812 88.8082 46.7183 88.7356 46.2103C88.7356 45.7749 88.6631 45.5572 88.6631 45.7749Z" fill="#93AEB6"/>
</svg>
