<svg width="100" height="138" viewBox="0 0 100 138" fill="none" xmlns="http://www.w3.org/2000/svg">
<path d="M49.9669 110.751C74.8618 110.751 95.0431 90.4747 95.0431 65.4629C95.0431 40.4511 74.8618 20.175 49.9669 20.175C25.0719 20.175 4.89062 40.4511 4.89062 65.4629C4.89062 90.4747 25.0719 110.751 49.9669 110.751Z" fill="#93AEB6"/>
<path d="M49.9669 110.751C74.8618 110.751 95.0431 90.4747 95.0431 65.4629C95.0431 40.4511 74.8618 20.175 49.9669 20.175C25.0719 20.175 4.89062 40.4511 4.89062 65.4629C4.89062 90.4747 25.0719 110.751 49.9669 110.751Z" fill="#93AEB6"/>
<path d="M49.9669 110.751C74.8618 110.751 95.0431 90.4747 95.0431 65.4629C95.0431 40.4511 74.8618 20.175 49.9669 20.175C25.0719 20.175 4.89062 40.4511 4.89062 65.4629C4.89062 90.4747 25.0719 110.751 49.9669 110.751Z" fill="#93AEB6"/>
<path d="M49.9669 110.751C74.8618 110.751 95.0431 90.4747 95.0431 65.4629C95.0431 40.4511 74.8618 20.175 49.9669 20.175C25.0719 20.175 4.89062 40.4511 4.89062 65.4629C4.89062 90.4747 25.0719 110.751 49.9669 110.751Z" fill="#93AEB6"/>
<path d="M49.9669 110.751C74.8618 110.751 95.0431 90.4747 95.0431 65.4629C95.0431 40.4511 74.8618 20.175 49.9669 20.175C25.0719 20.175 4.89062 40.4511 4.89062 65.4629C4.89062 90.4747 25.0719 110.751 49.9669 110.751Z" fill="#93AEB6"/>
<path d="M50.0322 18.5526C50.8503 18.5526 51.5135 17.8894 51.5135 17.0712C51.5135 16.2531 50.8503 15.5898 50.0322 15.5898C49.214 15.5898 48.5508 16.2531 48.5508 17.0712C48.5508 17.8894 49.214 18.5526 50.0322 18.5526Z" fill="#93AEB6"/>
<path d="M49.9658 115.054C50.7839 115.054 51.4471 114.39 51.4471 113.572C51.4471 112.754 50.7839 112.091 49.9658 112.091C49.1476 112.091 48.4844 112.754 48.4844 113.572C48.4844 114.39 49.1476 115.054 49.9658 115.054Z" fill="#93AEB6"/>
<path d="M16.3175 31.3205C16.1764 30.615 15.7531 28.5693 15.7531 28.5693C15.7531 28.5693 13.6369 30.5445 13.3547 32.2375C13.0725 33.9305 14.2717 35.2708 14.9772 35.3414C13.6369 34.1421 13.5663 32.2375 14.4834 31.2499C14.4834 31.2499 14.0601 32.4491 14.9772 35.3414C16.9523 34.0011 16.4585 32.0259 16.3175 31.3205Z" fill="#93AEB6"/>
<path d="M12.8597 35.2709C12.648 34.5655 12.0131 32.5903 12.0131 32.5903C12.0131 32.5903 10.1085 34.7771 10.038 36.4701C9.96743 38.1631 11.2372 39.3623 11.9426 39.4329C10.5318 38.3748 10.1791 36.5407 11.0256 35.412C11.0256 35.412 10.6729 36.6818 11.9426 39.4329C13.7767 37.881 13.0713 35.9763 12.8597 35.2709Z" fill="#93AEB6"/>
<path d="M9.82749 39.5739C9.54533 38.8685 8.69883 36.9639 8.69883 36.9639C8.69883 36.9639 7.00582 39.3623 7.07636 41.0553C7.14691 42.7483 8.55774 43.877 9.26316 43.8064C7.71124 42.8894 7.21745 41.0553 7.99341 39.9266C7.99341 39.9266 7.78178 41.1964 9.26316 43.8064C10.9562 42.0429 10.1097 40.2088 9.82749 39.5739Z" fill="#93AEB6"/>
<path d="M7.28776 44.2297C6.93505 43.5948 5.87692 41.7607 5.87692 41.7607C5.87692 41.7607 4.46608 44.3002 4.74825 45.9933C5.03042 47.6863 6.51179 48.6033 7.21721 48.4622C5.59475 47.7568 4.88933 45.9933 5.52421 44.7235C5.52421 44.7235 5.45367 45.9933 7.21721 48.4622C8.69859 46.5576 7.64046 44.8646 7.28776 44.2297Z" fill="#93AEB6"/>
<path d="M5.23948 48.8855C4.81623 48.2506 3.54648 46.6282 3.54648 46.6282C3.54648 46.6282 2.41781 49.3088 2.84106 50.9312C3.33485 52.6242 4.95732 53.3296 5.66273 53.118C3.96973 52.5537 3.12323 50.9312 3.54648 49.5909C3.54648 49.5909 3.61702 50.8607 5.66273 53.118C6.93249 51.0723 5.66274 49.5204 5.23948 48.8855Z" fill="#93AEB6"/>
<path d="M3.61799 53.8235C3.1242 53.2592 1.71336 51.7778 1.71336 51.7778C1.71336 51.7778 0.86686 54.5995 1.50174 56.1514C2.13661 57.7033 3.82962 58.2677 4.46449 57.9855C2.70095 57.6328 1.64282 56.0809 1.99553 54.7406C1.99553 54.7406 2.20715 56.0103 4.46449 57.9855C5.52262 55.7987 4.11178 54.3879 3.61799 53.8235Z" fill="#93AEB6"/>
<path d="M2.70115 58.973C2.13681 58.4792 0.584894 57.1389 0.584894 57.1389C0.584894 57.1389 0.0205592 59.9606 0.796519 61.442C1.57248 62.9939 3.33603 63.3466 3.9709 62.9939C2.20736 62.7823 1.00814 61.3714 1.14923 60.0311C1.14923 60.0311 1.50194 61.3009 3.9709 62.9939C4.74686 60.7365 3.19494 59.4668 2.70115 58.973Z" fill="#93AEB6"/>
<path d="M2.34898 64.1933C1.71411 63.77 0.0211039 62.5708 0.0211039 62.5708C0.0211039 62.5708 -0.190522 65.463 0.726522 66.8739C1.64357 68.2847 3.40711 68.4963 4.04199 68.0731C2.27844 68.0731 0.938148 66.8033 0.938148 65.3925C0.938148 65.3925 1.43194 66.5917 4.04199 68.0731C4.60632 65.7452 2.91332 64.6165 2.34898 64.1933Z" fill="#93AEB6"/>
<path d="M2.55881 69.625C1.92393 69.2723 0.0898438 68.2847 0.0898438 68.2847C0.0898438 68.2847 0.230927 71.1769 1.28905 72.5172C2.34718 73.7869 4.18127 73.7869 4.67506 73.2931C2.91152 73.5048 1.43014 72.3761 1.28905 71.0358C1.28905 71.0358 1.92393 72.1645 4.67506 73.2931C4.95723 70.8947 3.19368 69.9777 2.55881 69.625Z" fill="#93AEB6"/>
<path d="M3.12567 74.6333C2.42025 74.3512 0.515625 73.5752 0.515625 73.5752C0.515625 73.5752 1.00942 76.4674 2.20863 77.5961C3.47838 78.7247 5.24193 78.5131 5.66518 77.9488C3.97217 78.372 2.34971 77.455 1.997 76.1147C1.997 76.1147 2.77296 77.1728 5.66518 77.9488C5.66518 75.5504 3.76055 74.9155 3.12567 74.6333Z" fill="#93AEB6"/>
<path d="M4.39543 79.7828C3.69002 79.5712 1.71484 79.0068 1.71484 79.0068C1.71484 79.0068 2.4908 81.8285 3.8311 82.8161C5.17139 83.8037 6.93494 83.451 7.35819 82.8161C5.66519 83.451 3.97218 82.675 3.54893 81.4053C3.54893 81.4053 4.39543 82.3928 7.35819 82.8866C7.07602 80.4177 5.10085 79.9944 4.39543 79.7828Z" fill="#93AEB6"/>
<path d="M6.22769 84.6503C5.52228 84.5092 3.47656 84.1565 3.47656 84.1565C3.47656 84.1565 4.53469 86.9076 5.94553 87.7541C7.35636 88.6712 9.04937 88.0363 9.40208 87.4014C7.77961 88.1774 6.01607 87.5425 5.45173 86.3433C5.45173 86.3433 6.43932 87.1898 9.40208 87.4014C8.90828 85.0735 6.93311 84.7914 6.22769 84.6503Z" fill="#93AEB6"/>
<path d="M8.69667 89.447C7.99126 89.3764 5.875 89.2354 5.875 89.2354C5.875 89.2354 7.21529 91.8454 8.76722 92.5508C10.3191 93.2562 11.9416 92.4803 12.2238 91.8454C10.7424 92.7624 8.9083 92.4097 8.20288 91.2105C8.20288 91.2105 9.26101 91.9865 12.2238 91.8454C11.4478 89.5881 9.47263 89.5175 8.69667 89.447Z" fill="#93AEB6"/>
<path d="M11.4506 93.75C10.7452 93.75 8.62891 93.75 8.62891 93.75C8.62891 93.75 10.1103 96.219 11.7327 96.8539C13.2847 97.4888 14.8366 96.5717 15.1188 95.8663C13.7079 96.9244 11.8033 96.6422 11.0273 95.5136C11.0273 95.5136 12.156 96.219 15.1188 95.8663C14.2017 93.6089 12.2265 93.75 11.4506 93.75Z" fill="#93AEB6"/>
<path d="M14.9738 97.8416C14.2684 97.9121 12.2227 98.2648 12.2227 98.2648C12.2227 98.2648 14.0567 100.522 15.7497 100.875C17.3722 101.228 18.783 100.099 18.9241 99.3935C17.6544 100.663 15.8203 100.663 14.8327 99.6757C14.8327 99.6757 16.0319 100.169 18.9241 99.3935C17.6544 97.3478 15.6792 97.7005 14.9738 97.8416Z" fill="#93AEB6"/>
<path d="M18.6457 101.51C17.9402 101.651 15.8945 102.215 15.8945 102.215C15.8945 102.215 17.9402 104.261 19.6332 104.473C21.3263 104.684 22.596 103.414 22.6665 102.709C21.5379 104.049 19.7038 104.261 18.6457 103.344C18.6457 103.344 19.8449 103.767 22.6665 102.709C21.3263 100.734 19.4216 101.298 18.6457 101.51Z" fill="#93AEB6"/>
<path d="M22.8054 104.684C22.0999 104.966 20.1953 105.742 20.1953 105.742C20.1953 105.742 22.5232 107.506 24.2162 107.435C25.9092 107.435 27.0379 106.024 26.9673 105.319C26.0503 106.8 24.2162 107.294 23.0875 106.518C23.0875 106.518 24.3573 106.73 26.9673 105.319C25.2743 103.555 23.5108 104.402 22.8054 104.684Z" fill="#93AEB6"/>
<path d="M27.1799 107.435C26.545 107.788 24.7109 108.705 24.7109 108.705C24.7109 108.705 27.1799 110.257 28.8729 110.045C30.5659 109.834 31.5535 108.352 31.4124 107.647C30.6365 109.199 28.8729 109.834 27.6032 109.199C27.6032 109.199 28.8729 109.34 31.4124 107.647C29.5783 106.095 27.8148 107.082 27.1799 107.435Z" fill="#93AEB6"/>
<path d="M31.7654 109.763C31.1305 110.186 29.4375 111.386 29.4375 111.386C29.4375 111.386 32.0475 112.585 33.7406 112.162C35.363 111.738 36.2095 110.186 35.9979 109.481C35.4336 111.174 33.7406 112.02 32.4708 111.527C32.4708 111.527 33.7406 111.456 35.9979 109.481C33.9522 108.141 32.4003 109.34 31.7654 109.763Z" fill="#93AEB6"/>
<path d="M36.9837 111.386C36.4193 111.809 34.7969 113.149 34.7969 113.149C34.7969 113.149 37.548 114.137 39.0999 113.643C40.7224 113.149 41.3573 111.456 41.1456 110.751C40.6518 112.444 39.0999 113.431 37.7596 113.008C37.7596 113.008 39.0294 112.867 41.1456 110.751C39.0294 109.622 37.548 110.962 36.9837 111.386Z" fill="#93AEB6"/>
<path d="M41.9205 112.514C41.4267 113.008 39.9453 114.56 39.9453 114.56C39.9453 114.56 42.767 115.195 44.3189 114.489C45.8708 113.784 46.2941 112.02 46.0119 111.386C45.7297 113.149 44.2484 114.278 42.9081 114.066C42.9081 114.066 44.1778 113.784 46.0119 111.386C43.7546 110.539 42.4143 112.02 41.9205 112.514Z" fill="#93AEB6"/>
<path d="M20.1967 28.0756C20.1967 27.3702 20.0556 25.2539 20.0556 25.2539C20.0556 25.2539 17.6572 26.8764 17.1634 28.4988C16.6696 30.1213 17.5867 31.6027 18.2921 31.8143C17.1634 30.4035 17.3045 28.5694 18.4332 27.7229C18.4332 27.7229 17.7983 28.8515 18.2921 31.8143C20.4083 30.8267 20.1967 28.8515 20.1967 28.0756Z" fill="#93AEB6"/>
<path d="M24.3586 24.9718C24.4291 24.2664 24.4997 22.1501 24.4997 22.1501C24.4997 22.1501 21.9602 23.561 21.3253 25.1129C20.6199 26.6648 21.4664 28.2873 22.1013 28.5695C21.1137 27.0881 21.4664 25.254 22.5951 24.478C22.5951 24.478 21.8896 25.5362 22.1013 28.5695C24.3586 27.6524 24.3586 25.6772 24.3586 24.9718Z" fill="#93AEB6"/>
<path d="M29.0157 22.2914C29.1568 21.586 29.439 19.4697 29.439 19.4697C29.439 19.4697 26.7584 20.5984 25.9119 22.0798C25.0654 23.5612 25.7003 25.2542 26.3352 25.5363C25.5592 23.9844 26.053 22.1503 27.3227 21.586C27.3227 21.586 26.4762 22.5736 26.3352 25.5363C28.7336 24.972 28.9452 22.9968 29.0157 22.2914Z" fill="#93AEB6"/>
<path d="M33.6686 20.2455C33.8802 19.5401 34.374 17.4944 34.374 17.4944C34.374 17.4944 31.6229 18.3409 30.6353 19.7517C29.6477 21.1626 30.1415 22.8556 30.7058 23.2788C30.071 21.6564 30.7764 19.8928 32.0461 19.399C32.0461 19.399 31.1291 20.3161 30.7058 23.2788C33.1043 22.9261 33.5275 20.9509 33.6686 20.2455Z" fill="#93AEB6"/>
<path d="M38.6801 18.7641C38.9623 18.0587 39.6677 16.0835 39.6677 16.0835C39.6677 16.0835 36.846 16.6478 35.7174 17.9176C34.5887 19.1873 34.8709 20.9509 35.4352 21.4447C34.9414 19.7517 35.8585 18.0587 37.1987 17.706C37.1987 17.706 36.1406 18.4819 35.4352 21.4447C37.8336 21.3741 38.4685 19.4695 38.6801 18.7641Z" fill="#93AEB6"/>
<path d="M44.3933 17.5649C44.7461 16.93 45.522 15.0254 45.522 15.0254C45.522 15.0254 42.6298 15.3781 41.4306 16.5773C40.2314 17.7765 40.3725 19.5401 40.9368 20.0339C40.5841 18.2703 41.5717 16.7184 42.912 16.4362C42.912 16.4362 41.8538 17.1416 40.9368 20.0339C43.3352 20.1044 44.1112 18.2703 44.3933 17.5649Z" fill="#93AEB6"/>
<path d="M83.6834 31.3205C83.8245 30.615 84.2478 28.5693 84.2478 28.5693C84.2478 28.5693 86.364 30.5445 86.6462 32.2375C86.9284 33.9305 85.7291 35.2708 85.0237 35.3414C86.364 34.1421 86.4346 32.2375 85.5175 31.2499C85.5175 31.2499 85.9408 32.4491 85.0237 35.3414C83.1191 34.0011 83.6129 32.0259 83.6834 31.3205Z" fill="#93AEB6"/>
<path d="M87.1376 35.2709C87.3493 34.5655 87.9841 32.5903 87.9841 32.5903C87.9841 32.5903 89.8888 34.7771 89.9593 36.4701C90.0299 38.1631 88.7601 39.3623 88.0547 39.4329C89.4655 38.3748 89.8182 36.5407 88.9717 35.412C88.9717 35.412 89.3244 36.6818 88.0547 39.4329C86.2911 37.881 86.926 35.9763 87.1376 35.2709Z" fill="#93AEB6"/>
<path d="M90.2404 39.5739C90.5226 38.8685 91.3691 36.9639 91.3691 36.9639C91.3691 36.9639 93.0621 39.3623 92.9916 41.0553C92.921 42.7483 91.5102 43.877 90.8048 43.8064C92.3567 42.8894 92.8505 41.0553 92.0745 39.9266C92.0745 39.9266 92.2861 41.1964 90.8048 43.8064C89.0412 42.0429 89.9583 40.2088 90.2404 39.5739Z" fill="#93AEB6"/>
<path d="M92.7823 44.2297C93.135 43.5948 94.1932 41.7607 94.1932 41.7607C94.1932 41.7607 95.604 44.3002 95.3218 45.9933C95.0397 47.6863 93.5583 48.6033 92.8529 48.4622C94.4753 47.7568 95.1808 45.9933 94.5459 44.7235C94.5459 44.7235 94.6164 45.9933 92.8529 48.4622C91.3715 46.5576 92.4296 44.8646 92.7823 44.2297Z" fill="#93AEB6"/>
<path d="M94.7557 48.8855C95.179 48.2506 96.4487 46.6282 96.4487 46.6282C96.4487 46.6282 97.5774 49.3088 97.1541 50.9312C96.7309 52.5537 95.1084 53.3296 94.403 53.118C96.096 52.5537 96.9425 50.9312 96.5193 49.5909C96.5193 49.5909 96.4487 50.8607 94.403 53.118C93.1333 51.0723 94.3325 49.5204 94.7557 48.8855Z" fill="#93AEB6"/>
<path d="M96.3791 53.8235C96.8729 53.2592 98.2837 51.7778 98.2837 51.7778C98.2837 51.7778 99.1302 54.5995 98.4954 56.1514C97.8605 57.7033 96.1675 58.2677 95.5326 57.9855C97.2961 57.6328 98.3543 56.0809 98.0016 54.7406C98.0016 54.7406 97.7899 56.0103 95.5326 57.9855C94.4745 55.7987 95.8853 54.3879 96.3791 53.8235Z" fill="#93AEB6"/>
<path d="M97.3658 58.9728C97.9301 58.479 99.482 57.1387 99.482 57.1387C99.482 57.1387 99.9758 60.0309 99.1999 61.5123C98.4239 62.9936 96.6604 63.4169 96.0255 63.0642C97.789 62.8526 98.9882 61.4417 98.8472 60.1014C98.8472 60.1014 98.4944 61.3712 96.0255 63.0642C95.2495 60.7363 96.8014 59.4666 97.3658 58.9728Z" fill="#93AEB6"/>
<path d="M97.7207 64.193C98.285 63.7698 99.978 62.5706 99.978 62.5706C99.978 62.5706 100.19 65.4628 99.2726 66.8736C98.3556 68.2844 96.592 68.4961 95.9571 68.0728C97.7207 68.0728 99.061 66.8031 99.061 65.3922C99.061 65.3922 98.5672 66.5914 95.9571 68.0728C95.3928 65.7449 97.0858 64.6163 97.7207 64.193Z" fill="#93AEB6"/>
<path d="M97.5085 69.6247C98.1434 69.272 99.9775 68.2844 99.9775 68.2844C99.9775 68.2844 99.8364 71.1766 98.7783 72.5169C97.7202 73.7867 95.8861 73.7867 95.3923 73.2929C97.1558 73.5045 98.6372 72.3759 98.7783 71.0356C98.7783 71.0356 98.1434 72.1642 95.3923 73.2929C95.0396 70.8945 96.8737 69.9774 97.5085 69.6247Z" fill="#93AEB6"/>
<path d="M96.9438 74.6333C97.6492 74.3512 99.5538 73.5752 99.5538 73.5752C99.5538 73.5752 99.06 76.4674 97.8608 77.5961C96.591 78.7247 94.8275 78.5131 94.4043 77.9488C96.0973 78.372 97.7197 77.455 98.0724 76.1147C98.0724 76.1147 97.2965 77.1728 94.4043 77.9488C94.3337 75.5504 96.2383 74.9155 96.9438 74.6333Z" fill="#93AEB6"/>
<path d="M95.6034 79.7828C96.3088 79.5712 98.284 79.0068 98.284 79.0068C98.284 79.0068 97.508 81.8285 96.1677 82.8161C94.8274 83.8037 93.0639 83.451 92.6406 82.8161C94.3336 83.451 96.0266 82.675 96.4499 81.3347C96.4499 81.3347 95.6034 82.3223 92.6406 82.8161C92.9933 80.4177 94.898 79.9944 95.6034 79.7828Z" fill="#93AEB6"/>
<path d="M93.7681 84.65C94.4736 84.509 96.5193 84.1562 96.5193 84.1562C96.5193 84.1562 95.4611 86.9074 94.0503 87.7539C92.6395 88.6709 90.9465 88.0361 90.5938 87.4012C92.2162 88.1771 93.9798 87.5423 94.5441 86.343C94.5441 86.343 93.5565 87.1895 90.5938 87.4012C91.0875 85.0733 93.0627 84.7911 93.7681 84.65Z" fill="#93AEB6"/>
<path d="M91.3005 89.447C92.0059 89.3764 94.1222 89.2354 94.1222 89.2354C94.1222 89.2354 92.7819 91.8454 91.23 92.5508C89.6781 93.2562 88.0556 92.4803 87.7734 91.8454C89.2548 92.7624 91.0889 92.4097 91.7943 91.2105C91.7943 91.2105 90.7362 91.9865 87.7734 91.8454C88.5494 89.5881 90.5951 89.5175 91.3005 89.447Z" fill="#93AEB6"/>
<path d="M88.551 93.75C89.2564 93.75 91.3727 93.75 91.3727 93.75C91.3727 93.75 89.8913 96.219 88.2688 96.8539C86.7169 97.4888 85.165 96.5717 84.8828 95.8663C86.2936 96.9244 88.1983 96.6422 88.9742 95.5136C88.9742 95.5136 87.8456 96.219 84.8828 95.8663C85.7999 93.6089 87.8456 93.75 88.551 93.75Z" fill="#93AEB6"/>
<path d="M85.0207 97.8416C85.7261 97.9121 87.7718 98.2648 87.7718 98.2648C87.7718 98.2648 85.9377 100.522 84.2447 100.875C82.6222 101.228 81.2114 100.099 81.0703 99.3935C82.3401 100.663 84.1742 100.663 85.1617 99.6757C85.1617 99.6757 83.9625 100.169 81.0703 99.3935C82.3401 97.3478 84.3152 97.7005 85.0207 97.8416Z" fill="#93AEB6"/>
<path d="M81.3568 101.51C82.0622 101.651 84.108 102.215 84.108 102.215C84.108 102.215 82.0622 104.261 80.3692 104.473C78.6762 104.684 77.4065 103.414 77.3359 102.709C78.4646 104.049 80.2987 104.261 81.3568 103.344C81.3568 103.344 80.1576 103.767 77.3359 102.709C78.7468 100.734 80.6514 101.298 81.3568 101.51Z" fill="#93AEB6"/>
<path d="M77.1924 104.684C77.8979 104.966 79.8025 105.742 79.8025 105.742C79.8025 105.742 77.4746 107.506 75.7816 107.435C74.0886 107.435 72.9599 106.024 73.0305 105.319C73.9475 106.8 75.7816 107.294 76.9103 106.518C76.9103 106.518 75.6405 106.73 73.0305 105.319C74.7235 103.555 76.5576 104.402 77.1924 104.684Z" fill="#93AEB6"/>
<path d="M72.8162 107.435C73.451 107.788 75.2851 108.705 75.2851 108.705C75.2851 108.705 72.8162 110.257 71.1232 110.045C69.4302 109.834 68.4426 108.352 68.5836 107.647C69.3596 109.199 71.1232 109.834 72.3929 109.199C72.3929 109.199 71.1232 109.34 68.5836 107.647C70.4177 106.095 72.1813 107.082 72.8162 107.435Z" fill="#93AEB6"/>
<path d="M68.2333 109.763C68.8682 110.186 70.5612 111.386 70.5612 111.386C70.5612 111.386 67.9511 112.585 66.2581 112.162C64.6357 111.738 63.7892 110.186 64.0008 109.481C64.5651 111.174 66.2581 112.02 67.5279 111.527C67.5279 111.527 66.2581 111.456 64.0008 109.481C66.0465 108.141 67.669 109.34 68.2333 109.763Z" fill="#93AEB6"/>
<path d="M63.0139 111.385C63.5782 111.809 65.2007 113.149 65.2007 113.149C65.2007 113.149 62.4495 114.137 60.8976 113.643C59.2752 113.149 58.6403 111.456 58.8519 110.751C59.3457 112.444 60.8976 113.431 62.2379 113.008C62.2379 113.008 60.9682 112.867 58.8519 110.751C60.9682 109.622 62.4495 110.962 63.0139 111.385Z" fill="#93AEB6"/>
<path d="M58.1456 112.514C58.6394 113.008 60.1208 114.56 60.1208 114.56C60.1208 114.56 57.2991 115.195 55.7472 114.489C54.1953 113.784 53.772 112.02 54.0542 111.386C54.3364 113.149 55.8177 114.278 57.158 114.066C57.158 114.066 55.8883 113.784 54.0542 111.386C56.241 110.539 57.5813 112.02 58.1456 112.514Z" fill="#93AEB6"/>
<path d="M79.7988 28.0756C79.7988 27.3702 79.9399 25.2539 79.9399 25.2539C79.9399 25.2539 82.3384 26.8764 82.8321 28.4988C83.3259 30.1213 82.4089 31.6027 81.7035 31.8143C82.8321 30.4035 82.6911 28.5694 81.5624 27.7229C81.5624 27.7229 82.1973 28.8515 81.7035 31.8143C79.5872 30.8267 79.7988 28.8515 79.7988 28.0756Z" fill="#93AEB6"/>
<path d="M75.6411 24.9718C75.5705 24.2664 75.5 22.1501 75.5 22.1501C75.5 22.1501 78.0395 23.561 78.6744 25.1129C79.3798 26.6648 78.5333 28.2873 77.8984 28.5695C78.886 27.0881 78.5333 25.254 77.4046 24.478C77.4046 24.478 78.11 25.5362 77.8984 28.5695C75.7116 27.6524 75.7116 25.6772 75.6411 24.9718Z" fill="#93AEB6"/>
<path d="M70.9857 22.2914C70.8447 21.586 70.5625 19.4697 70.5625 19.4697C70.5625 19.4697 73.2431 20.5984 74.0896 22.0798C74.9361 23.5612 74.3012 25.2542 73.6663 25.5363C74.4423 23.9844 73.9485 22.1503 72.6788 21.586C72.6788 21.586 73.5253 22.5736 73.6663 25.5363C71.3385 24.972 71.1268 22.9968 70.9857 22.2914Z" fill="#93AEB6"/>
<path d="M66.3304 20.2455C66.1188 19.5401 65.625 17.4944 65.625 17.4944C65.625 17.4944 68.3761 18.3409 69.3637 19.7517C70.3513 21.1626 69.8575 22.8556 69.2932 23.2788C69.9281 21.6564 69.2226 19.8928 67.9529 19.399C67.9529 19.399 68.8699 20.3161 69.2932 23.2788C66.8948 22.9261 66.542 20.9509 66.3304 20.2455Z" fill="#93AEB6"/>
<path d="M61.3196 18.7641C61.0375 18.0587 60.332 16.0835 60.332 16.0835C60.332 16.0835 63.1537 16.6478 64.2824 17.9176C65.411 19.1873 65.1289 20.9509 64.5645 21.4447C65.0583 19.7517 64.1413 18.0587 62.801 17.706C62.801 17.706 63.8591 18.4819 64.5645 21.4447C62.1661 21.3741 61.6018 19.4695 61.3196 18.7641Z" fill="#93AEB6"/>
<path d="M55.6052 17.5649C55.3231 16.93 54.4766 15.0254 54.4766 15.0254C54.4766 15.0254 57.3688 15.3781 58.568 16.5773C59.7672 17.7765 59.6261 19.5401 59.0618 20.0339C59.4145 18.2703 58.4269 16.7184 57.0866 16.4362C57.0866 16.4362 58.1447 17.1416 59.0618 20.0339C56.6634 20.1044 55.9579 18.2703 55.6052 17.5649Z" fill="#93AEB6"/>
<path d="M68.1637 47.1219C66.894 40.8436 51.4453 38.6568 33.6688 42.325C15.8922 45.9932 2.48929 54.1055 3.75905 60.3837C5.0288 66.662 20.4775 68.8488 38.254 65.1806C56.0306 61.5124 69.4335 53.4001 68.1637 47.1219ZM37.478 55.2342C25.8386 57.6326 15.8922 56.645 15.1163 53.1179C14.4109 49.5203 23.2286 44.7234 34.7975 42.325C46.4369 39.9266 56.3833 40.9142 57.1592 44.4413C57.9352 48.0389 49.1175 52.9063 37.478 55.2342Z" fill="#C1D6DB"/>
<path d="M22.9496 123.871C22.9496 123.871 17.8 90.0819 18.8581 72.3053C22.4558 88.1067 33.2487 96.7833 55.7515 60.2427C47.2865 101.58 27.5348 137.768 27.5348 137.768L22.9496 123.871Z" fill="#C1D6DB"/>
<path d="M37.2682 71.1769C39.5961 72.6583 40.3015 76.1854 37.2682 79.6419C34.2349 83.0985 31.766 81.6876 30.7784 81.1233C29.7908 80.4884 28.0978 77.0319 30.7784 72.5172C33.0357 69.0606 37.2682 71.1769 37.2682 71.1769Z" fill="#C1D6DB"/>
<path d="M28.657 41.9724C28.657 41.9724 14.4781 36.9639 27.4578 12.6975C29.8563 15.237 34.512 20.9509 29.2919 30.7562C26.823 36.1879 28.657 41.9724 28.657 41.9724Z" fill="#C1D6DB"/>
<path d="M36.4206 51.6366C36.4206 51.6366 29.3664 46.7692 30.4246 35.6236C31.4827 24.478 47.7073 0 47.7073 0C47.7073 0 45.0267 10.5813 44.8856 14.3905C44.7446 18.1998 45.3089 25.1129 44.4624 25.8183C46.5081 23.2083 47.5662 23.4199 48.7654 12.7681C48.5538 19.9633 51.2344 27.0881 48.5538 31.6733C45.8027 36.2585 41.0058 40.4205 40.9353 45.57C39.3834 44.2297 37.902 40.9848 37.6904 39.1507C36.1385 41.9019 35.6447 46.6987 36.4206 51.6366Z" fill="#C1D6DB"/>
<path d="M53.5634 53.8235V63.3466H52.2936V54.8816H49.1192V57.7738C49.1192 59.8195 49.0487 62.1474 47.7084 63.0645C47.3557 63.2761 46.7914 63.4877 46.227 63.4877L46.0859 62.5001C46.4386 62.4296 46.8619 62.218 47.0735 62.0063C47.8495 61.2304 47.92 59.3963 47.92 57.9149V53.8235H53.5634Z" fill="#445456"/>
<path d="M56.668 53.8235V63.3466H55.4688V53.8235H56.668Z" fill="#445456"/>
<path d="M65.0592 53.8235V62.359H65.9057L65.8352 65.604H64.8476L64.7771 63.3466H58.781L58.7105 65.604H57.7229L57.6523 62.359H58.3578C58.7105 61.7242 59.0632 61.0188 59.2748 60.2428C59.6275 59.1141 59.6981 57.8444 59.6981 56.2219V53.8235H65.0592ZM60.8267 56.6452C60.8267 58.1971 60.6856 59.4668 60.3329 60.525C60.1213 61.1598 59.8391 61.7947 59.557 62.359H63.7895V54.8816H60.8267V56.6452Z" fill="#445456"/>
<path d="M72.0473 58.9025H68.3791V62.2885H72.4706V63.3466H67.1094V53.8235H72.2589V54.8816H68.3791V57.9149H72.0473V58.9025Z" fill="#445456"/>
<path d="M73.8086 53.9646C74.3729 53.894 75.1489 53.7529 76.1365 53.7529C77.3357 53.7529 78.2527 54.0351 78.8171 54.5289C79.3109 54.9521 79.6636 55.6576 79.6636 56.5041C79.6636 57.3506 79.3814 58.056 78.9582 58.5498C78.3233 59.2552 77.2651 59.6079 76.0659 59.6079C75.7132 59.6079 75.3605 59.6079 75.0783 59.5374V63.3466H73.8791V53.9646H73.8086ZM75.0078 58.5498C75.29 58.6203 75.6427 58.6203 75.9954 58.6203C77.4768 58.6203 78.3938 57.9149 78.3938 56.5746C78.3938 55.3049 77.4768 54.7405 76.1365 54.7405C75.5721 54.7405 75.2194 54.8111 75.0078 54.8111V58.5498Z" fill="#445456"/>
<path d="M46.1562 67.7907C46.7206 67.7202 47.4965 67.5791 48.4841 67.5791C49.6833 67.5791 50.6004 67.8613 51.1647 68.3551C51.6585 68.7783 52.0112 69.4837 52.0112 70.3302C52.0112 71.1767 51.7291 71.8822 51.3058 72.3759C50.6709 73.0814 49.6128 73.4341 48.4136 73.4341C48.0609 73.4341 47.7082 73.4341 47.426 73.3635V77.1728H46.2268V67.7907H46.1562ZM47.3555 72.3759C47.6376 72.4465 47.9903 72.4465 48.343 72.4465C49.8244 72.4465 50.7415 71.7411 50.7415 70.4008C50.7415 69.131 49.8244 68.5667 48.4841 68.5667C47.9198 68.5667 47.5671 68.6372 47.3555 68.6372V72.3759Z" fill="#445456"/>
<path d="M61.3917 72.3759C61.3917 75.6209 59.4165 77.3844 56.9476 77.3844C54.4081 77.3844 52.6445 75.4092 52.6445 72.5876C52.6445 69.5543 54.5492 67.5791 57.0887 67.5791C59.6987 67.5791 61.3917 69.5543 61.3917 72.3759ZM53.9848 72.517C53.9848 74.5627 55.1135 76.3968 57.0181 76.3968C58.9933 76.3968 60.0514 74.6333 60.0514 72.4465C60.0514 70.5419 59.0638 68.5667 57.0181 68.5667C55.043 68.5667 53.9848 70.4008 53.9848 72.517Z" fill="#445456"/>
<path d="M63.9299 67.7202V71.9527H64.2826L67.5275 67.7202H69.0089L65.4113 72.0938C66.9632 72.3054 67.5981 73.293 68.0919 74.5628C68.4446 75.5504 68.7268 76.3969 69.15 77.2434H67.8097C67.457 76.6085 67.1748 75.762 66.9632 74.986C66.54 73.7163 65.9051 72.8698 64.2826 72.8698H63.8594V77.2434H62.6602V67.7202H63.9299Z" fill="#445456"/>
<path d="M70.7043 67.7202L72.6089 71.8116C72.8205 72.376 73.1027 72.9403 73.3143 73.5046C73.4554 73.0109 73.667 72.4465 73.8786 71.8116L75.36 67.7908H76.6298L74.6546 72.6581C74.1608 73.9279 73.5259 75.4093 72.8911 76.2558C72.2562 77.0317 71.5508 77.455 70.7043 77.455C70.4221 77.455 70.1399 77.455 69.9988 77.3844L70.1399 76.3969C70.2105 76.3969 70.3516 76.4674 70.5632 76.4674C71.5508 76.4674 72.1151 75.5504 72.3973 74.8449C72.4678 74.6333 72.4678 74.4922 72.3267 74.2806L69.1523 67.8613H70.7043V67.7202Z" fill="#445456"/>
<path d="M46.5793 81.4053V81.9696H47.1436V81.4053H47.4963V82.9572H47.1436V82.3223H46.5793V82.9572H46.2266V81.4053H46.5793Z" fill="#445456"/>
<path d="M48.2711 82.5339L48.1301 82.9572H47.7773L48.2711 81.4053H48.6944L49.1882 82.9572H48.8355L48.6944 82.5339H48.2711ZM48.6944 82.2518L48.6238 81.8991C48.6238 81.8285 48.5533 81.6874 48.5533 81.6169C48.5533 81.6874 48.4828 81.8285 48.4828 81.8991L48.4122 82.2518H48.6944Z" fill="#445456"/>
<path d="M49.966 81.4053V82.675H50.5303V81.4053H50.8125V82.675H50.9536V83.3099H50.6714V82.9572H49.6133V81.4053H49.966Z" fill="#445456"/>
<path d="M51.6574 81.4053V82.9572H51.3047V81.4053H51.6574Z" fill="#445456"/>
<path d="M53.5634 82.1095C53.5634 82.6032 53.2812 82.8854 52.7874 82.8854C52.3642 82.8854 52.082 82.5327 52.082 82.1095C52.082 81.6862 52.3642 81.3335 52.858 81.3335C53.2812 81.3335 53.5634 81.6862 53.5634 82.1095ZM52.4347 82.18C52.4347 82.4622 52.5758 82.6738 52.7874 82.6738C52.9991 82.6738 53.1402 82.4622 53.1402 82.18C53.1402 81.8978 52.9991 81.6862 52.7874 81.6862C52.5758 81.6157 52.4347 81.8273 52.4347 82.18Z" fill="#445456"/>
<path d="M54.2668 81.4053V81.9696H54.8311V81.4053H55.1838V82.9572H54.8311V82.3223H54.2668V82.9572H53.9141V81.4053H54.2668Z" fill="#445456"/>
<path d="M56.0329 82.5339L55.8918 82.9572H55.5391L56.0329 81.4053H56.4561L56.9499 82.9572H56.5972L56.4561 82.5339H56.0329ZM56.3856 82.2518L56.315 81.8991C56.315 81.8285 56.2445 81.6874 56.2445 81.6169C56.2445 81.6874 56.1739 81.8285 56.1739 81.8991L56.1034 82.2518H56.3856Z" fill="#445456"/>
<path d="M58.5005 81.4053V82.9572H58.1477V81.6874H57.795V82.0402C57.795 82.4634 57.7245 82.7456 57.5129 82.8867C57.4423 82.9572 57.3012 82.9572 57.2307 82.9572L57.1602 82.675C57.2307 82.675 57.3012 82.6045 57.3012 82.6045C57.3718 82.5339 57.4423 82.3223 57.4423 82.1107V81.4758H58.5005V81.4053Z" fill="#445456"/>
<path d="M59.2783 81.4053V81.9696C59.3488 81.9696 59.4193 81.9696 59.4899 81.9696C59.8426 81.9696 60.1248 82.1107 60.1248 82.4634C60.1248 82.6045 60.0542 82.7456 59.9837 82.8161C59.8426 82.9572 59.5604 83.0277 59.3488 83.0277C59.2077 83.0277 59.0666 83.0277 58.9961 83.0277V81.4758H59.2783V81.4053ZM59.2783 82.675C59.3488 82.675 59.3488 82.675 59.4193 82.675C59.5604 82.675 59.7015 82.6045 59.7015 82.3929C59.7015 82.2518 59.5604 82.1812 59.4193 82.1812C59.3488 82.1812 59.3488 82.1812 59.2783 82.1812V82.675Z" fill="#445456"/>
<path d="M60.8293 81.4053V81.9696H61.3936V81.4053H61.7463V82.9572H61.3936V82.3223H60.8293V82.9572H60.4766V81.4053H60.8293Z" fill="#445456"/>
<path d="M63.579 82.1095C63.579 82.6032 63.2969 82.8854 62.8031 82.8854C62.3798 82.8854 62.0977 82.5327 62.0977 82.1095C62.0977 81.6862 62.3798 81.3335 62.8736 81.3335C63.3674 81.3335 63.579 81.6862 63.579 82.1095ZM62.5209 82.18C62.5209 82.4622 62.662 82.6738 62.8736 82.6738C63.0852 82.6738 63.2263 82.4622 63.2263 82.18C63.2263 81.8978 63.0852 81.6862 62.8736 81.6862C62.662 81.6157 62.5209 81.8273 62.5209 82.18Z" fill="#445456"/>
<path d="M64.921 81.4053V81.6874H64.3566V82.9572H64.0039V81.4053H64.921Z" fill="#445456"/>
<path d="M66.5439 82.1095C66.5439 82.6032 66.2617 82.8854 65.7679 82.8854C65.3447 82.8854 65.0625 82.5327 65.0625 82.1095C65.0625 81.6862 65.3447 81.3335 65.8385 81.3335C66.3323 81.3335 66.5439 81.6862 66.5439 82.1095ZM65.4858 82.18C65.4858 82.4622 65.6268 82.6738 65.8385 82.6738C66.0501 82.6738 66.1912 82.4622 66.1912 82.18C66.1912 81.8978 66.0501 81.6862 65.8385 81.6862C65.6268 81.6157 65.4858 81.8273 65.4858 82.18Z" fill="#445456"/>
<path d="M68.5891 81.4053V81.6874H67.9543V81.9696C68.0248 81.9696 68.0954 81.9696 68.1659 81.9696C68.307 81.9696 68.4481 82.0401 68.5891 82.1107C68.7302 82.1812 68.7302 82.3223 68.7302 82.4634C68.7302 82.6045 68.6597 82.7456 68.5891 82.8161C68.4481 82.9572 68.2364 82.9572 67.9543 82.9572C67.8132 82.9572 67.6721 82.9572 67.6016 82.9572V81.4053H68.5891ZM67.9543 82.675C68.0248 82.675 68.0248 82.675 68.0954 82.675C68.1659 82.675 68.2364 82.675 68.307 82.6045C68.3775 82.5339 68.3775 82.5339 68.3775 82.4634C68.3775 82.3929 68.3775 82.3223 68.307 82.3223C68.2364 82.2518 68.1659 82.2518 68.0954 82.2518C68.0248 82.2518 68.0248 82.2518 67.9543 82.2518V82.675Z" fill="#445456"/>
<path d="M69.4347 81.4053V82.9572H69.082V81.4053H69.4347Z" fill="#445456"/>
<path d="M69.8594 81.4746C70.0005 81.404 70.1415 81.3335 70.3532 81.3335C70.7059 81.3335 70.9175 81.4746 70.9175 81.7567C70.9175 81.9684 70.7764 82.0389 70.6353 82.1095C70.847 82.1095 70.988 82.2505 70.988 82.4622C70.988 82.8149 70.6353 82.8854 70.3532 82.8854C70.2121 82.8854 70.0005 82.8854 69.9299 82.7443L70.0005 82.4622C70.071 82.5327 70.2121 82.5327 70.3532 82.5327C70.4942 82.5327 70.6353 82.4622 70.6353 82.3211C70.6353 82.18 70.4943 82.1095 70.2826 82.1095H70.1415V81.8273H70.2826C70.4237 81.8273 70.5648 81.7567 70.5648 81.6157C70.5648 81.5451 70.4942 81.4746 70.3532 81.4746C70.2121 81.4746 70.071 81.5451 70.0005 81.5451L69.8594 81.4746Z" fill="#445456"/>
<path d="M71.6926 81.4053V81.9696H72.2569V81.4053H72.6096V82.9572H72.2569V82.3223H71.6926V82.9572H71.3398V81.4053H71.6926Z" fill="#445456"/>
<path d="M73.9483 82.2505H73.384V82.6033H74.0188V82.8854H73.0312V81.3335H73.9483V81.6157H73.384V81.8978H73.9483V82.2505Z" fill="#445456"/>
<path d="M75.5039 82.8867C75.4334 82.8867 75.2923 82.9572 75.0806 82.9572C74.5869 82.9572 74.3047 82.6045 74.3047 82.1812C74.3047 81.6874 74.6574 81.4053 75.1512 81.4053C75.3628 81.4053 75.4334 81.4758 75.5039 81.4758L75.4334 81.758C75.3628 81.758 75.2923 81.6874 75.1512 81.6874C74.869 81.6874 74.6574 81.8285 74.6574 82.1812C74.6574 82.4634 74.869 82.675 75.1512 82.675C75.2217 82.675 75.3628 82.675 75.4334 82.6045L75.5039 82.8867Z" fill="#445456"/>
<path d="M76.4198 82.04V82.2517H75.8555V82.04H76.4198Z" fill="#445456"/>
<path d="M76.8398 81.4053C76.9809 81.4053 77.122 81.4053 77.3336 81.4053C77.5453 81.4053 77.6863 81.4758 77.8274 81.5464C77.898 81.6169 77.9685 81.758 77.9685 81.8991C77.9685 82.0402 77.898 82.1812 77.8274 82.2518C77.6863 82.3929 77.5453 82.3929 77.3336 82.3929C77.2631 82.3929 77.2631 82.3929 77.1926 82.3929V82.9572H76.8398V81.4053ZM77.1926 82.1107C77.1926 82.1107 77.2631 82.1107 77.3336 82.1107C77.5453 82.1107 77.6158 82.0401 77.6158 81.8285C77.6158 81.6874 77.5453 81.6169 77.3336 81.6169C77.2631 81.6169 77.1926 81.6169 77.1926 81.6169V82.1107Z" fill="#445456"/>
<path d="M79.2413 82.2505H78.6769V82.6033H79.3118V82.8854H78.3242V81.3335H79.2413V81.6157H78.6769V81.8978H79.2413V82.2505Z" fill="#445456"/>
<path d="M80.0165 81.4052V81.8284C80.0165 82.0401 80.0165 82.3222 80.0165 82.5339C80.0871 82.3222 80.2282 82.1812 80.2987 81.9695L80.6514 81.4052H81.0041V82.9571H80.722V82.5339C80.722 82.3222 80.722 82.1106 80.722 81.899C80.6514 82.1106 80.5809 82.2517 80.4398 82.4633L80.1576 83.0277H79.7344V81.4757L80.0165 81.4052ZM80.2282 81.0525C80.2282 81.123 80.2282 81.1936 80.2987 81.1936C80.3693 81.1936 80.3693 81.123 80.4398 81.0525H80.6514C80.6514 81.2641 80.5103 81.3347 80.2987 81.3347C80.0871 81.3347 80.0165 81.2641 79.946 81.0525H80.2282Z" fill="#445456"/>
<path d="M81.7084 81.6874H81.2852V81.4053H82.4844V81.6874H82.0611V82.9572H81.7084V81.6874Z" fill="#445456"/>
<path d="M83.1181 81.4053V81.8285C83.1181 82.0401 83.1181 82.3223 83.1181 82.5339C83.1886 82.3223 83.3297 82.1812 83.4003 81.9696L83.753 81.4053H84.1057V82.9572H83.8235V82.5339C83.8235 82.3223 83.8235 82.1107 83.8235 81.8991C83.753 82.1107 83.6824 82.2518 83.5414 82.4634L83.2592 83.0277H82.8359V81.4758L83.1181 81.4053Z" fill="#445456"/>
<path d="M84.884 81.4053V81.9696H85.4483V81.4053H85.801V82.9572H85.4483V82.3223H84.884V82.9572H84.5312V81.4053H84.884Z" fill="#445456"/>
<path d="M87.1397 81.4053V81.6874H86.5754V82.9572H86.2227V81.4053H87.1397Z" fill="#445456"/>
<path d="M87.8449 81.4053L88.0565 81.9696C88.1271 82.1107 88.1271 82.1812 88.1976 82.2518C88.1976 82.1812 88.2681 82.1107 88.2681 81.9696L88.4092 81.4053H88.7619L88.4798 82.1107C88.4092 82.3223 88.2681 82.6045 88.1976 82.7456C88.1271 82.8867 87.986 82.9572 87.7744 82.9572C87.7038 82.9572 87.6333 82.9572 87.6333 82.9572V82.675C87.6333 82.675 87.7038 82.675 87.7744 82.675C87.9154 82.675 87.986 82.6045 87.986 82.5339V82.4634L87.4922 81.4053C87.4922 81.4053 87.8449 81.4053 87.8449 81.4053Z" fill="#445456"/>
<path d="M51.4446 96.7129V97.9826H44.4609C44.4609 97.7004 44.5315 97.3477 44.602 97.0656C44.8136 96.5718 45.0958 96.1485 45.4485 95.6547C45.8718 95.1609 46.4361 94.6671 47.1415 94.0323C48.2702 93.1152 49.0462 92.3393 49.4694 91.7749C49.8927 91.2106 50.1043 90.7168 50.1043 90.223C50.1043 89.7292 49.8927 89.306 49.5399 88.8827C49.1872 88.53 48.6934 88.3184 48.1291 88.3184C47.4942 88.3184 47.0004 88.53 46.6477 88.8827C46.295 89.2354 46.0834 89.7998 46.0834 90.4346L44.7431 90.2935C44.8136 89.306 45.1664 88.53 45.8012 88.0362C46.3656 87.5424 47.2121 87.2603 48.1997 87.2603C49.1872 87.2603 50.0337 87.5424 50.5981 88.1068C51.1624 88.6711 51.5151 89.3765 51.5151 90.223C51.5151 90.6463 51.4446 91.0695 51.233 91.4928C51.0213 91.916 50.7392 92.3393 50.3865 92.7625C49.9632 93.1858 49.3283 93.8206 48.4113 94.5966C47.6353 95.2315 47.1415 95.7253 46.9299 95.9369C46.7183 96.1485 46.5066 96.4307 46.3656 96.6423L51.4446 96.7129Z" fill="#445456"/>
<path d="M52.5742 92.692C52.5742 91.4222 52.7153 90.4346 52.9269 89.6587C53.2091 88.8827 53.5618 88.3184 54.0556 87.8951C54.5494 87.4719 55.1843 87.2603 55.9602 87.2603C56.5246 87.2603 57.0184 87.4013 57.4416 87.613C57.8649 87.8246 58.2176 88.1773 58.4997 88.6005C58.7819 89.0238 58.9935 89.5881 59.1346 90.1525C59.2757 90.7873 59.3462 91.6338 59.3462 92.692C59.3462 93.9617 59.2052 94.9493 58.9935 95.7253C58.7114 96.5012 58.3586 97.0656 57.8649 97.4888C57.3711 97.9121 56.7362 98.1237 55.9602 98.1237C54.9021 98.1237 54.1261 97.771 53.5618 96.995C52.9269 96.1485 52.5742 94.7377 52.5742 92.692ZM53.9145 92.692C53.9145 94.4555 54.1261 95.5842 54.5494 96.1485C54.9726 96.7129 55.4664 96.995 56.0308 96.995C56.5951 96.995 57.1594 96.7129 57.5121 96.1485C57.9354 95.5842 58.147 94.385 58.147 92.692C58.147 90.9284 57.9354 89.7998 57.5121 89.2354C57.0889 88.6711 56.5951 88.3889 55.9602 88.3889C55.3959 88.3889 54.9021 88.6711 54.5494 89.1649C54.1261 89.7998 53.9145 90.999 53.9145 92.692Z" fill="#445456"/>
<path d="M65.4108 97.9826H64.1411V89.6587C63.8589 89.9409 63.4356 90.223 62.9419 90.5757C62.4481 90.8579 61.9543 91.0695 61.6016 91.2812V90.0114C62.307 89.6587 62.9419 89.2354 63.5062 88.7416C64.0705 88.2479 64.4232 87.7541 64.6349 87.3308H65.4814L65.4108 97.9826Z" fill="#445456"/>
<path d="M68.5156 88.7417V87.4719H75.3582V88.4595C74.6528 89.1649 74.0179 90.1525 73.383 91.3517C72.7481 92.5509 72.1838 93.7502 71.8311 95.0199C71.5489 95.9369 71.4078 96.854 71.3373 97.9121H69.997C69.997 97.0656 70.2086 96.078 70.4908 94.8788C70.773 93.6796 71.2668 92.5509 71.8311 91.4928C72.3954 90.3641 73.0303 89.4471 73.7357 88.7417H68.5156Z" fill="#445456"/>
<path d="M53.4225 53.6118V63.135H52.1528V54.6699H48.9784V57.5622C48.9784 59.6079 48.9078 61.9358 47.5675 62.8528C47.2148 63.0644 46.6505 63.276 46.0862 63.276L46.0156 62.2885C46.3683 62.2179 46.7916 62.0063 47.0032 61.7947C47.7792 61.0187 47.8497 59.1846 47.8497 57.7032V53.6824H53.4225V53.6118Z" fill="#70888E"/>
<path d="M56.457 53.6118V63.135H55.2578V53.6118H56.457Z" fill="#70888E"/>
<path d="M64.8483 53.6118V62.1474H65.6948L65.6243 65.3923H64.6367L64.5661 63.135H58.5701L58.4995 65.3923H57.5119L57.4414 62.1474H58.1468C58.4995 61.5125 58.8522 60.8071 59.0639 60.0311C59.4166 58.9025 59.4871 57.6327 59.4871 56.0102V53.6118H64.8483ZM60.6863 56.4335C60.6863 57.9854 60.5452 59.2552 60.1925 60.3133C59.9809 60.9482 59.6987 61.583 59.4166 62.1474H63.6491V54.6699H60.6863V56.4335Z" fill="#70888E"/>
<path d="M71.9028 58.6908H68.2346V62.1474H72.326V63.2055H66.9648V53.6118H72.1144V54.6699H68.2346V57.7032H71.9028V58.6908Z" fill="#70888E"/>
<path d="M73.5977 53.7529C74.162 53.6823 74.9379 53.5413 75.9255 53.5413C77.1247 53.5413 78.0418 53.8234 78.6061 54.3172C79.0999 54.7405 79.4526 55.4459 79.4526 56.2924C79.4526 57.1389 79.1705 57.8443 78.7472 58.3381C78.1123 59.0435 77.0542 59.3962 75.855 59.3962C75.5023 59.3962 75.1496 59.3962 74.8674 59.3257V63.1349H73.6682V53.7529H73.5977ZM74.8674 58.3381C75.1496 58.4086 75.5023 58.4086 75.855 58.4086C77.3364 58.4086 78.2534 57.7032 78.2534 56.3629C78.2534 55.0932 77.3364 54.5288 75.9961 54.5288C75.4317 54.5288 75.079 54.5994 74.8674 54.5994V58.3381Z" fill="#70888E"/>
<path d="M45.9453 67.5791C46.5096 67.5085 47.2856 67.3674 48.2732 67.3674C49.4724 67.3674 50.3894 67.6496 50.9538 68.1434C51.4476 68.5666 51.8003 69.2721 51.8003 70.1186C51.8003 70.9651 51.5181 71.6705 51.0949 72.1643C50.46 72.8697 49.4019 73.2224 48.2027 73.2224C47.8499 73.2224 47.4972 73.2224 47.2151 73.1519V76.9611H46.0159V67.5791H45.9453ZM47.2151 72.1643C47.4972 72.2348 47.8499 72.2348 48.2027 72.2348C49.684 72.2348 50.6011 71.5294 50.6011 70.1891C50.6011 68.9194 49.684 68.355 48.3437 68.355C47.7794 68.355 47.4267 68.4256 47.2151 68.4256V72.1643Z" fill="#70888E"/>
<path d="M61.1808 72.1643C61.1808 75.4092 59.2056 77.1727 56.7366 77.1727C54.1971 77.1727 52.4336 75.1976 52.4336 72.3759C52.4336 69.3426 54.3382 67.3674 56.8777 67.3674C59.4878 67.3674 61.1808 69.3426 61.1808 72.1643ZM53.8444 72.3054C53.8444 74.3511 54.9731 76.1852 56.8777 76.1852C58.8529 76.1852 59.911 74.4216 59.911 72.2348C59.911 70.3302 58.9234 68.355 56.8777 68.355C54.832 68.355 53.8444 70.1891 53.8444 72.3054Z" fill="#70888E"/>
<path d="M63.719 67.5083V71.7408H64.0717L67.3166 67.5083H68.798L65.2004 71.8819C66.7523 72.0935 67.3871 73.0811 67.8809 74.3509C68.2336 75.3384 68.5158 76.1849 68.9391 77.0314H67.5988C67.2461 76.3966 66.9639 75.5501 66.7523 74.7741C66.329 73.5044 65.6941 72.6579 64.0717 72.6579H63.6484V77.0314H62.4492V67.5083H63.719Z" fill="#70888E"/>
<path d="M70.4933 67.5083L72.398 71.5997C72.6096 72.1641 72.8918 72.7284 73.1034 73.2927C73.2445 72.7989 73.4561 72.2346 73.6677 71.5997L75.1491 67.5788H76.4188L74.4437 72.4462C73.9499 73.716 73.315 75.1974 72.6801 76.0439C72.0452 76.8198 71.3398 77.2431 70.4933 77.2431C70.2112 77.2431 69.929 77.2431 69.7879 77.1725L69.929 76.1849C69.9995 76.1849 70.1406 76.2555 70.3522 76.2555C71.3398 76.2555 71.9042 75.3384 72.1863 74.633C72.2569 74.4214 72.2569 74.2803 72.1158 74.0687L68.9414 67.6494H70.4933V67.5083Z" fill="#70888E"/>
<path d="M46.4426 81.2629V81.8273H47.0069V81.2629H47.3596V82.7443H47.0069V82.1094H46.4426V82.7443H46.0898V81.1924L46.4426 81.2629Z" fill="#70888E"/>
<path d="M48.2047 82.3916L48.0636 82.7443H47.7109L48.2047 81.1924H48.628L49.1218 82.7443H48.7691L48.628 82.3211L48.2047 82.3916ZM48.5574 82.1094L48.4869 81.7567C48.4869 81.6862 48.4164 81.5451 48.4164 81.4745C48.4164 81.5451 48.3458 81.6862 48.3458 81.7567L48.2753 82.1094H48.5574Z" fill="#70888E"/>
<path d="M49.829 81.2642V82.5339H50.3934V81.2642H50.7461V82.5339H50.8872V83.1688H50.605V82.8161H49.5469V81.2642C49.5469 81.2642 49.829 81.2642 49.829 81.2642Z" fill="#70888E"/>
<path d="M51.591 81.2629V82.7443H51.2383V81.1924L51.591 81.2629Z" fill="#70888E"/>
<path d="M53.4267 81.9683C53.4267 82.4621 53.1445 82.7443 52.6507 82.7443C52.2275 82.7443 51.9453 82.3916 51.9453 81.9683C51.9453 81.5451 52.2275 81.1924 52.7213 81.1924C53.1445 81.1924 53.4267 81.5451 53.4267 81.9683ZM52.298 82.0389C52.298 82.3211 52.4391 82.5327 52.6507 82.5327C52.8624 82.5327 53.0034 82.3211 53.0034 82.0389C53.0034 81.7567 52.8624 81.5451 52.6507 81.5451C52.4391 81.4746 52.298 81.6862 52.298 82.0389Z" fill="#70888E"/>
<path d="M54.1301 81.2629V81.8273H54.6944V81.2629H55.0471V82.7443H54.6944V82.1094H54.1301V82.7443H53.7773V81.1924L54.1301 81.2629Z" fill="#70888E"/>
<path d="M55.8961 82.3916L55.7551 82.7443H55.4023L55.8961 81.1924H56.3194L56.8132 82.7443H56.4605L56.3194 82.3211L55.8961 82.3916ZM56.2488 82.1094L56.1783 81.7567C56.1783 81.6862 56.1078 81.5451 56.1078 81.4745C56.1078 81.5451 56.0372 81.6862 56.0372 81.7567L55.9667 82.1094H56.2488Z" fill="#70888E"/>
<path d="M58.3637 81.2642V82.7455H58.011V81.4758H57.6583V81.8285C57.6583 82.2517 57.5878 82.5339 57.3761 82.675C57.3056 82.7455 57.1645 82.7455 57.094 82.7455L57.0234 82.4634C57.094 82.4634 57.1645 82.3928 57.1645 82.3928C57.2351 82.3223 57.3056 82.1107 57.3056 81.899V81.2642C57.3056 81.2642 58.3637 81.2642 58.3637 81.2642Z" fill="#70888E"/>
<path d="M59.2119 81.2642V81.8285C59.2824 81.8285 59.3529 81.8285 59.4235 81.8285C59.7762 81.8285 60.0584 81.9696 60.0584 82.3223C60.0584 82.4634 59.9878 82.6045 59.9173 82.675C59.7762 82.8161 59.494 82.8866 59.2824 82.8866C59.1413 82.8866 59.0002 82.8866 58.9297 82.8866V81.3347H59.2119V81.2642ZM59.2119 82.5339C59.2824 82.5339 59.2824 82.5339 59.3529 82.5339C59.494 82.5339 59.6351 82.4634 59.6351 82.2517C59.6351 82.1107 59.494 82.0401 59.3529 82.0401C59.2824 82.0401 59.2824 82.0401 59.2119 82.0401V82.5339Z" fill="#70888E"/>
<path d="M60.6926 81.2629V81.8273H61.2569V81.2629H61.6096V82.7443H61.2569V82.1094H60.6926V82.7443H60.3398V81.1924L60.6926 81.2629Z" fill="#70888E"/>
<path d="M63.5165 81.9683C63.5165 82.4621 63.2344 82.7443 62.7406 82.7443C62.3173 82.7443 62.0352 82.3916 62.0352 81.9683C62.0352 81.5451 62.3173 81.1924 62.8111 81.1924C63.2344 81.1924 63.5165 81.5451 63.5165 81.9683ZM62.3879 82.0389C62.3879 82.3211 62.5289 82.5327 62.7406 82.5327C62.9522 82.5327 63.0933 82.3211 63.0933 82.0389C63.0933 81.7567 62.9522 81.5451 62.7406 81.5451C62.5289 81.4746 62.3879 81.6862 62.3879 82.0389Z" fill="#70888E"/>
<path d="M64.7842 81.2629V81.5451H64.2199V82.7443H63.8672V81.1924L64.7842 81.2629Z" fill="#70888E"/>
<path d="M66.4775 81.9683C66.4775 82.4621 66.1953 82.7443 65.7015 82.7443C65.2783 82.7443 64.9961 82.3916 64.9961 81.9683C64.9961 81.5451 65.2783 81.1924 65.7721 81.1924C66.1953 81.1924 66.4775 81.5451 66.4775 81.9683ZM65.3488 82.0389C65.3488 82.3211 65.4899 82.5327 65.7015 82.5327C65.9131 82.5327 66.0542 82.3211 66.0542 82.0389C66.0542 81.7567 65.9131 81.5451 65.7015 81.5451C65.4899 81.4746 65.3488 81.6862 65.3488 82.0389Z" fill="#70888E"/>
<path d="M68.5227 81.2642V81.5463H67.8879V81.8285C67.9584 81.8285 68.029 81.8285 68.0995 81.8285C68.2406 81.8285 68.3817 81.899 68.5227 81.9696C68.6638 82.0401 68.6638 82.1812 68.6638 82.3223C68.6638 82.4634 68.5933 82.6045 68.5227 82.675C68.3817 82.8161 68.17 82.8161 67.8879 82.8161C67.7468 82.8161 67.6057 82.8161 67.5352 82.8161V81.2642H68.5227ZM67.8173 82.5339C67.8879 82.5339 67.8879 82.5339 67.9584 82.5339C68.029 82.5339 68.0995 82.5339 68.17 82.4634C68.2406 82.3928 68.2406 82.3928 68.2406 82.3223C68.2406 82.2517 68.2406 82.1812 68.17 82.1812C68.0995 82.0401 68.029 82.0401 67.9584 82.0401C67.8879 82.0401 67.8879 82.0401 67.8173 82.0401V82.5339Z" fill="#70888E"/>
<path d="M69.3683 81.2629V82.7443H69.0156V81.1924L69.3683 81.2629Z" fill="#70888E"/>
<path d="M69.793 81.3335C69.9341 81.2629 70.0751 81.1924 70.2868 81.1924C70.6395 81.1924 70.8511 81.3335 70.8511 81.6156C70.8511 81.8273 70.71 81.8978 70.5689 81.9683C70.7806 81.9683 70.9216 82.1094 70.9216 82.3211C70.9216 82.6738 70.5689 82.7443 70.2868 82.7443C70.1457 82.7443 69.9341 82.7443 69.8635 82.6032L69.9341 82.3211C70.0046 82.3916 70.1457 82.3916 70.2868 82.3916C70.4278 82.3916 70.5689 82.321 70.5689 82.18C70.5689 82.0389 70.4278 81.9683 70.2162 81.9683H70.0751V81.6862H70.2162C70.3573 81.6862 70.4984 81.6156 70.4984 81.4745C70.4984 81.404 70.4278 81.3335 70.2868 81.3335C70.1457 81.3335 70.0046 81.404 69.9341 81.404L69.793 81.3335Z" fill="#70888E"/>
<path d="M71.5558 81.2629V81.8273H72.1202V81.2629H72.4729V82.7443H72.1202V82.1094H71.5558V82.7443H71.2031V81.1924L71.5558 81.2629Z" fill="#70888E"/>
<path d="M73.8116 82.1094H73.2472V82.4621H73.8821V82.7443H72.8945V81.1924H73.8116V81.4745H73.2472V81.7567H73.8116V82.1094Z" fill="#70888E"/>
<path d="M75.4336 82.7455C75.363 82.7455 75.222 82.8161 75.0103 82.8161C74.5165 82.8161 74.2344 82.4634 74.2344 82.0401C74.2344 81.5463 74.5871 81.2642 75.0809 81.2642C75.2925 81.2642 75.363 81.3347 75.4336 81.3347L75.363 81.6169C75.2925 81.6169 75.222 81.5463 75.0809 81.5463C74.7987 81.5463 74.5871 81.6874 74.5871 82.0401C74.5871 82.3223 74.7987 82.5339 75.0809 82.5339C75.1514 82.5339 75.2925 82.5339 75.363 82.4634L75.4336 82.7455Z" fill="#70888E"/>
<path d="M76.3534 81.8989V82.1105H75.7891V81.8989H76.3534Z" fill="#70888E"/>
<path d="M76.7031 81.2642C76.8442 81.2642 76.9853 81.2642 77.1969 81.2642C77.4085 81.2642 77.5496 81.3347 77.6907 81.4052C77.7613 81.4758 77.8318 81.6169 77.8318 81.758C77.8318 81.899 77.7613 82.0401 77.6907 82.1107C77.5496 82.2517 77.4085 82.2517 77.1969 82.2517C77.1264 82.2517 77.1264 82.2517 77.0558 82.2517V82.7455H76.7031V81.2642ZM77.0558 81.9696C77.0558 81.9696 77.1264 81.9696 77.1969 81.9696C77.4085 81.9696 77.4791 81.899 77.4791 81.6874C77.4791 81.5463 77.4085 81.4758 77.1969 81.4758C77.1264 81.4758 77.0558 81.4758 77.0558 81.4758V81.9696Z" fill="#70888E"/>
<path d="M79.1045 82.1094H78.5402V82.4621H79.1751V82.7443H78.1875V81.1924H79.1045V81.4745H78.5402V81.7567H79.1045V82.1094Z" fill="#70888E"/>
<path d="M79.8798 81.2641V81.6873C79.8798 81.899 79.8798 82.1811 79.8798 82.3928C79.9504 82.1811 80.0914 82.04 80.162 81.8284L80.5147 81.2641H80.8674V82.7455H80.5852V82.3222C80.5852 82.1106 80.5852 81.899 80.5852 81.6873C80.5147 81.899 80.4442 82.04 80.3031 82.2517L80.0209 82.816H79.5977V81.2641H79.8798ZM80.0914 80.9114C80.0914 80.9819 80.0914 81.0525 80.162 81.0525C80.2325 81.0525 80.2325 80.9819 80.3031 80.9114H80.5147C80.5147 81.123 80.3736 81.1935 80.162 81.1935C79.9504 81.1935 79.8798 81.123 79.8093 80.9114H80.0914Z" fill="#70888E"/>
<path d="M81.5717 81.5463H81.1484V81.2642H82.3476V81.5463H81.9244V82.7455H81.5717V81.5463Z" fill="#70888E"/>
<path d="M82.9814 81.2642V81.6874C82.9814 81.899 82.9814 82.1812 82.9814 82.3928C83.0519 82.1812 83.193 82.0401 83.2636 81.8285L83.6163 81.2642H83.969V82.7455H83.6868V82.3223C83.6868 82.1107 83.6868 81.899 83.6868 81.6874C83.6163 81.899 83.5457 82.0401 83.4046 82.2517L83.1225 82.8161H82.6992V81.2642C82.6992 81.2642 82.9814 81.2642 82.9814 81.2642Z" fill="#70888E"/>
<path d="M84.7472 81.2629V81.8273H85.3116V81.2629H85.6643V82.7443H85.3116V82.1094H84.7472V82.7443H84.3945V81.1924L84.7472 81.2629Z" fill="#70888E"/>
<path d="M87.0733 81.2629V81.5451H86.509V82.7443H86.1562V81.1924L87.0733 81.2629Z" fill="#70888E"/>
<path d="M87.7082 81.2642L87.9198 81.8285C87.9903 81.9696 87.9903 82.0401 88.0609 82.1107C88.0609 82.0401 88.1314 81.9696 88.1314 81.8285L88.2725 81.2642H88.6252L88.3431 81.9696C88.2725 82.1812 88.1314 82.4634 88.0609 82.6045C87.9903 82.7455 87.8493 82.8161 87.6376 82.8161C87.5671 82.8161 87.4966 82.8161 87.4966 82.8161V82.5339C87.4966 82.5339 87.5671 82.5339 87.6376 82.5339C87.7787 82.5339 87.8493 82.4634 87.8493 82.3928V82.3223L87.3555 81.2642C87.3555 81.2642 87.7082 81.2642 87.7082 81.2642Z" fill="#70888E"/>
<path d="M51.2375 96.5009V97.7707H44.2539C44.2539 97.4885 44.3244 97.1358 44.395 96.8537C44.6066 96.3599 44.8888 95.9366 45.2415 95.4428C45.6647 94.949 46.2291 94.4552 46.9345 93.8204C48.0632 92.9033 48.8391 92.1274 49.2624 91.563C49.6856 90.9987 49.8973 90.5049 49.8973 90.0111C49.8973 89.5173 49.6856 89.0941 49.3329 88.6708C48.9802 88.3181 48.4864 88.1065 47.9221 88.1065C47.2872 88.1065 46.7934 88.3181 46.4407 88.6708C46.088 89.0235 45.8764 89.5878 45.8764 90.2227L44.5361 90.0816C44.6066 89.0941 44.9593 88.3181 45.5942 87.8243C46.1585 87.3305 47.005 87.0483 47.9926 87.0483C48.9802 87.0483 49.8267 87.3305 50.391 87.8948C50.9554 88.4592 51.3081 89.1646 51.3081 90.0111C51.3081 90.4344 51.2376 90.8576 51.0259 91.2808C50.8143 91.7041 50.5321 92.1274 50.1794 92.5506C49.7562 92.9739 49.1213 93.6087 48.2043 94.3847C47.4283 95.0196 46.9345 95.5134 46.7229 95.725C46.5112 95.9366 46.2996 96.2188 46.1585 96.4304L51.2375 96.5009Z" fill="#70888E"/>
<path d="M52.3672 92.4801C52.3672 91.2103 52.5083 90.2227 52.7199 89.4468C53.0021 88.6708 53.3548 88.1065 53.8486 87.6832C54.3424 87.26 54.9772 87.0483 55.7532 87.0483C56.3175 87.0483 56.8113 87.1894 57.2346 87.401C57.6578 87.6127 58.0105 87.9654 58.2927 88.3886C58.5749 88.8119 58.7865 89.3762 58.9276 89.9406C59.0687 90.5754 59.1392 91.4219 59.1392 92.4801C59.1392 93.7498 58.9981 94.7374 58.7865 95.5134C58.5043 96.2893 58.1516 96.8537 57.6578 97.2769C57.164 97.7002 56.5292 97.9118 55.7532 97.9118C54.6951 97.9118 53.9191 97.5591 53.3548 96.7831C52.7199 95.9366 52.3672 94.5258 52.3672 92.4801ZM53.7075 92.4801C53.7075 94.2436 53.9191 95.3723 54.3424 95.9366C54.7656 96.5009 55.2594 96.7831 55.8237 96.7831C56.3881 96.7831 56.9524 96.5009 57.3051 95.9366C57.7284 95.3723 57.94 94.1731 57.94 92.4801C57.94 90.7165 57.7284 89.5878 57.3051 89.0235C56.8819 88.4592 56.3881 88.177 55.7532 88.177C55.1889 88.177 54.6951 88.4592 54.3424 88.953C53.9191 89.5878 53.7075 90.7871 53.7075 92.4801Z" fill="#70888E"/>
<path d="M65.2038 97.7707H63.934V89.4468C63.6519 89.7289 63.2286 90.0111 62.7348 90.3638C62.241 90.646 61.7472 90.8576 61.3945 91.0692V89.7995C62.0999 89.4468 62.7348 89.0235 63.2992 88.5297C63.8635 88.0359 64.2162 87.5421 64.4278 87.1189H65.2743L65.2038 97.7707Z" fill="#70888E"/>
<path d="M68.3086 88.5298V87.26H75.1512V88.2476C74.4457 88.953 73.8109 89.9406 73.176 91.1398C72.5411 92.339 71.9768 93.5382 71.6241 94.808C71.3419 95.725 71.2008 96.6421 71.1303 97.7002H69.79C69.79 96.8537 70.0016 95.8661 70.2838 94.6669C70.5659 93.4677 71.0597 92.339 71.6241 91.2809C72.1884 90.1522 72.8233 89.2352 73.5287 88.5298H68.3086Z" fill="#70888E"/>
</svg>
