<svg width="100" height="100" viewBox="0 0 100 100" fill="none" xmlns="http://www.w3.org/2000/svg">
<path d="M50.0351 0C22.41 0 0.0703125 22.3397 0.0703125 49.9648C0.0703125 77.5899 22.41 99.9295 50.0351 99.9295C77.6602 99.9295 99.9998 77.5899 99.9998 49.9648C99.9998 22.3397 77.5897 0 50.0351 0Z" fill="#93AEB6"/>
<path d="M87.1065 78.8582L86.7541 78.5763L87.8817 77.0259L86.8951 76.3212C86.8246 76.4621 86.6836 76.6736 86.6132 76.744C86.3313 77.0964 86.0494 77.3783 85.697 77.5192C85.3447 77.6602 84.9218 77.6602 84.499 77.3078C84.1466 77.0964 84.0057 76.744 83.9352 76.4621C83.8648 75.9688 84.0762 75.4051 84.499 74.9118C84.7104 74.5594 84.9218 74.348 85.0628 74.207L88.5864 76.8145L87.1065 78.8582ZM85.0628 74.9822C84.9923 75.0527 84.8514 75.1936 84.7809 75.3346C84.5695 75.6165 84.4285 75.9688 84.499 76.3212C84.5695 76.5326 84.64 76.744 84.8514 76.885C85.1333 77.0964 85.4151 77.0964 85.6266 77.0259C85.9085 76.9554 86.1199 76.744 86.3313 76.4621C86.4018 76.3917 86.4722 76.1802 86.6132 76.1098L85.0628 74.9822Z" fill="#C1D6DB"/>
<path d="M86.1139 80.0563C85.973 80.2678 85.7616 80.6201 85.4797 80.9725C85.1273 81.3953 84.7045 81.6067 84.3521 81.6772C83.9998 81.7477 83.7179 81.6067 83.3655 81.3249C83.0836 81.043 82.8722 80.7611 82.8722 80.4792C82.8017 80.0563 83.0132 79.563 83.3655 79.1402C83.5065 78.9993 83.5769 78.9288 83.7179 78.7879L82.3789 77.5898L82.7313 77.167L86.1139 80.0563ZM84.1407 79.0697C83.9998 79.1402 83.9293 79.2812 83.7883 79.4221C83.3655 79.9154 83.295 80.4792 83.7883 80.902C84.2112 81.2544 84.7045 81.1839 85.1273 80.6906C85.2683 80.4792 85.4092 80.3382 85.4797 80.2678L84.1407 79.0697Z" fill="#C1D6DB"/>
<path d="M80.2693 82.8752L81.5378 81.6772L80.4102 80.5496L79.0008 81.8886L78.6484 81.5362L80.4102 79.7744L83.511 82.9457L81.8197 84.637L81.4673 84.2846L82.7358 83.0161L81.7492 82.0295L80.5512 83.2276L80.2693 82.8752Z" fill="#C1D6DB"/>
<path d="M80.476 85.8348L79.278 84.4254L77.5867 85.7643L78.7847 87.1738L78.3619 87.5261L75.543 84.073L75.9658 83.7206L77.3048 85.3415L78.9961 84.0025L77.6571 82.3817L78.08 82.0293L80.8989 85.4824L80.476 85.8348Z" fill="#C1D6DB"/>
<path d="M74.6286 90.1337L72.444 86.8215L72.0916 87.0329L71.3164 85.7644L71.6688 85.553L72.303 86.3986L74.6286 84.8483L74.0648 83.9321L74.4172 83.7207L75.2629 84.9892L74.981 85.2006C74.981 85.553 75.0514 85.9053 75.1219 86.2577C75.2628 86.751 75.5447 87.3148 75.9676 87.949L76.6018 88.8652L74.6286 90.1337ZM75.5447 87.949C75.1219 87.3853 74.9105 86.8215 74.7695 86.3282C74.6991 86.0463 74.6286 85.6939 74.6286 85.412L73.0077 86.4691L74.9105 89.3585L76.038 88.5833L75.5447 87.949Z" fill="#C1D6DB"/>
<path d="M71.7417 91.6842C71.5303 91.8252 71.1779 92.0366 70.8256 92.248C70.3323 92.5299 69.9094 92.5299 69.5571 92.4594C69.2752 92.389 68.9933 92.1775 68.7819 91.8252C68.6409 91.4728 68.5705 91.1205 68.6409 90.8386C68.7819 90.4157 69.1342 90.0634 69.6275 89.7815C69.7685 89.711 69.9094 89.6405 70.0504 89.6405L69.2752 88.0197L69.7685 87.7378L71.7417 91.6842ZM70.3323 89.9929C70.1913 89.9929 70.0504 90.0634 69.9094 90.1338C69.2752 90.4157 69.0638 90.909 69.3456 91.4728C69.6275 91.9661 70.1208 92.0366 70.6846 91.8252C70.896 91.6842 71.037 91.6138 71.1779 91.5433L70.3323 89.9929Z" fill="#C1D6DB"/>
<path d="M63.9175 92.6708C63.3537 91.2613 63.988 90.1338 65.045 89.7814C66.1726 89.3586 67.2297 89.9223 67.723 91.1908C68.2163 92.5298 67.723 93.6574 66.5954 94.0802C65.4679 94.503 64.4108 93.9393 63.9175 92.6708ZM67.1592 91.4023C66.8068 90.4861 66.0316 89.9223 65.186 90.2042C64.3403 90.5566 64.1289 91.4727 64.4813 92.3889C64.7631 93.2345 65.5383 93.9393 66.4545 93.5869C67.3706 93.305 67.5116 92.3184 67.1592 91.4023Z" fill="#C1D6DB"/>
<path d="M63.0038 95.2077L62.5105 93.305L62.3695 93.3755L61.4534 95.701L60.8191 95.9125L61.8762 93.5164C61.1715 93.5869 60.7486 93.2345 60.3963 92.7412C60.1144 92.3184 59.903 91.966 59.6211 91.6841L60.1849 91.5432C60.3963 91.8251 60.6077 92.107 60.8191 92.4593C61.1715 92.9526 61.5238 93.305 62.299 93.0936L62.5105 93.0231L61.9467 91.0499L62.5105 90.9089L63.638 95.2077H63.0038Z" fill="#C1D6DB"/>
<path d="M59.4084 96.1239L58.2104 94.4326C58.0694 94.2212 57.9285 93.9393 57.7876 93.7279C57.7171 93.9393 57.7171 94.2212 57.6466 94.5735L57.2942 96.5467L56.7305 96.6877L57.2238 94.2916C57.3647 93.6574 57.5057 92.9527 57.7171 92.4594C57.9285 92.0365 58.2104 91.8251 58.6332 91.7546C58.7742 91.7546 58.9151 91.7546 58.9856 91.7546V92.2479C58.9151 92.2479 58.8446 92.2479 58.7742 92.2479C58.3513 92.3184 58.1399 92.8117 58.0694 93.1641C58.0694 93.2346 58.0694 93.305 58.1399 93.446L60.1131 96.1239H59.4084Z" fill="#C1D6DB"/>
<path d="M34.3197 94.3621C34.0379 94.2916 33.6855 94.2212 33.3331 94.0802C32.7694 93.8688 32.4875 93.6574 32.3465 93.3755C32.2056 93.1641 32.1351 92.8117 32.276 92.5298C32.417 92.107 32.8398 91.8956 33.3331 91.8956C32.9808 91.6137 32.6284 91.1204 32.9103 90.5566C33.0512 90.2043 33.2627 89.9928 33.5445 89.8519C33.9674 89.7109 34.4607 89.7814 35.0949 89.9928C35.4473 90.1338 35.7292 90.2747 35.8701 90.3452L34.3197 94.3621ZM34.4607 92.4594L33.9674 92.2479C33.4036 92.0365 32.9808 92.1775 32.8398 92.6003C32.6284 93.0936 32.9808 93.446 33.4741 93.6574C33.6855 93.7279 33.8969 93.7983 33.9674 93.7983L34.4607 92.4594ZM35.2359 90.4861C35.1654 90.4157 34.954 90.3452 34.813 90.2747C34.2493 90.0633 33.6855 90.0633 33.4741 90.6976C33.2627 91.2613 33.6855 91.6842 34.2493 91.8956L34.6721 92.0365L35.2359 90.4861Z" fill="#C1D6DB"/>
<path d="M30.6557 92.8819C30.3738 92.8115 29.951 92.6705 29.5986 92.4591C29.0348 92.1772 28.7529 91.8953 28.612 91.543C28.471 91.2611 28.5415 90.9087 28.6825 90.6268C28.9643 90.1335 29.4576 89.9221 29.951 89.9926C29.6691 89.7107 29.6691 89.3583 29.7395 88.9355C29.8805 88.3012 29.951 87.8784 29.951 87.667L30.5147 87.9489C30.5147 88.0898 30.4443 88.5127 30.3033 89.006C30.1624 89.6402 30.3033 89.9221 30.7261 90.1335L31.2195 90.3449L32.0651 88.6536L32.5584 88.9355L30.6557 92.8819ZM31.008 90.8382L30.5147 90.5563C29.951 90.2745 29.4576 90.4154 29.2462 90.9087C28.9643 91.402 29.2462 91.8248 29.81 92.1067C30.0919 92.2477 30.2328 92.3182 30.3738 92.3182L31.008 90.8382Z" fill="#C1D6DB"/>
<path d="M27.9784 88.1604L29.106 87.1738L29.5993 87.4557L26.0052 90.486L25.4414 90.1337L26.428 85.553L26.9213 85.8349L26.6394 87.2443L27.9784 88.1604ZM26.4985 87.8081L26.2166 89.1471C26.1461 89.4289 26.0757 89.7108 26.0052 89.9927C26.2166 89.7813 26.428 89.6404 26.6394 89.4289L27.6965 88.5833L26.4985 87.8081Z" fill="#C1D6DB"/>
<path d="M25.8635 85.2008L23.2561 88.7244L22.7628 88.372L22.9742 85.7645C23.0446 85.1303 23.1151 84.637 23.1856 84.1437C22.9037 84.637 22.5513 85.0598 22.1285 85.6236L21.001 87.1035L20.5781 86.7511L23.1856 83.2275L23.6789 83.5799L23.4675 86.1874C23.397 86.7512 23.3265 87.3149 23.2561 87.8787C23.538 87.3854 23.8903 86.9626 24.3131 86.3988L25.4407 84.8484L25.8635 85.2008Z" fill="#C1D6DB"/>
<path d="M19.3769 85.7644C19.095 85.553 18.7427 85.3416 18.3903 84.9892C17.756 84.4255 17.4742 83.9322 17.4742 83.3684C17.4037 82.8046 17.6151 82.3113 18.1084 81.7475C18.6017 81.1837 19.1655 80.9019 19.7293 80.9019C20.293 80.9019 20.9978 81.1837 21.632 81.7475C21.9139 82.0294 22.1958 82.2408 22.3367 82.4522L19.3769 85.7644ZM21.632 82.5227C21.5615 82.3818 21.4206 82.2408 21.2092 82.0999C20.293 81.2542 19.3769 81.3247 18.5312 82.2408C17.8265 83.016 17.8265 83.8617 18.6722 84.7073C18.8836 84.9188 19.095 85.0597 19.236 85.1302L21.632 82.5227Z" fill="#C1D6DB"/>
<path d="M13.9512 76.9553C15.1493 75.9687 16.3473 76.1801 17.052 77.0962C17.8272 78.0124 17.6158 79.2104 16.5587 80.0561C15.5016 80.9722 14.2331 80.8313 13.4579 79.9151C12.7532 78.999 12.9646 77.8009 13.9512 76.9553ZM16.2064 79.5628C16.9111 78.9285 17.2634 78.0124 16.6997 77.3076C16.1359 76.6029 15.1493 76.7439 14.3741 77.3781C13.6694 77.9419 13.2465 78.858 13.8808 79.6332C14.4445 80.3379 15.4312 80.197 16.2064 79.5628Z" fill="#C1D6DB"/>
<path d="M11.5577 77.3078L10.2188 75.3346L10.6416 75.0527L11.6282 76.5326L12.8262 75.6869L11.9101 74.2775L12.3329 73.9956L13.2491 75.405L14.8699 74.2775L15.2223 74.7708L11.5577 77.3078Z" fill="#C1D6DB"/>
<path d="M8.94835 72.1635L9.5826 73.3615L9.15976 73.5729L7.60938 70.6836L8.03221 70.4721L8.66646 71.6702L12.1196 69.8379L12.4015 70.3312L8.94835 72.1635Z" fill="#C1D6DB"/>
<path d="M6.97505 69.274L8.66638 68.5693L7.82072 66.596L6.12939 67.3008L5.91797 66.737L10.0054 65.0457L10.2168 65.6094L8.31402 66.3846L9.15969 68.3578L11.0624 67.5827L11.2739 68.076L7.18647 69.7673L6.97505 69.274Z" fill="#C1D6DB"/>
<path d="M6.97386 62.5088L7.46716 64.1297L9.01755 63.6364L8.45377 61.8746L8.87661 61.7336L9.6518 64.1297L5.42347 65.4687L4.71875 63.2136L5.14158 63.0726L5.70536 64.8344L7.04433 64.4116L6.55103 62.7907L6.97386 62.5088Z" fill="#C1D6DB"/>
<path d="M8.17492 58.7739L6.34264 59.1262L4.08753 60.9585L3.94659 60.3243L5.00367 59.4786C5.28556 59.2672 5.56745 59.0558 5.84934 58.8443C5.56745 58.7739 5.21509 58.7034 4.86273 58.5625L3.52376 58.1396L3.38281 57.5054L6.13123 58.492L7.9635 58.1396L8.17492 58.7739Z" fill="#C1D6DB"/>
<path d="M5.35683 54.193L5.56825 55.8843L7.11864 55.6729L6.90722 53.7702L7.40052 53.6997L7.68241 56.1662L3.31314 56.73L3.03125 54.334H3.52456L3.73597 56.1662L5.14542 56.0253L4.934 54.2635L5.35683 54.193Z" fill="#C1D6DB"/>
<path d="M5.91718 52.2902L7.32662 52.713V53.2768L2.81641 51.9378V51.2331L7.18568 49.5417V50.176L5.84671 50.6693L5.91718 52.2902ZM5.42388 50.8102L4.15538 51.3036C3.87349 51.4445 3.5916 51.515 3.38018 51.5854C3.66207 51.6559 3.94396 51.7264 4.15538 51.7969L5.49435 52.1492L5.42388 50.8102Z" fill="#C1D6DB"/>
<path d="M2.88879 48.6255C2.81832 48.3436 2.81832 47.9208 2.88879 47.4979C2.88879 46.8637 3.02974 46.5113 3.31162 46.2294C3.52304 46.018 3.80493 45.8771 4.15729 45.9475C4.72107 45.9475 5.07343 46.3704 5.21437 46.8637C5.35532 46.5113 5.70768 46.3704 6.13051 46.2999C6.76476 46.1589 7.18759 46.0885 7.32854 46.018V46.5818C7.18759 46.6523 6.83523 46.7227 6.27146 46.7932C5.63721 46.8637 5.42579 47.1456 5.35532 47.6389V48.2026L7.25807 48.2731V48.8369L2.88879 48.6255ZM4.93248 48.1322V47.5684C4.93248 46.9341 4.6506 46.5818 4.15729 46.5113C3.59351 46.5113 3.31162 46.8637 3.24115 47.4979C3.24115 47.7798 3.24115 47.9912 3.24115 48.0617L4.93248 48.1322Z" fill="#C1D6DB"/>
<path d="M10.7804 23.6785L11.2032 23.9604L10.1461 25.5812L11.1327 26.2155C11.2032 26.0745 11.3442 25.8631 11.4146 25.7222C11.626 25.3698 11.9079 25.0879 12.2603 24.947C12.6127 24.806 13.0355 24.806 13.4583 25.0174C13.8107 25.2289 14.0221 25.5107 14.0926 25.8631C14.2335 26.3564 14.0221 26.9202 13.6697 27.4135C13.4583 27.7659 13.2469 27.9773 13.1764 28.1182L9.44141 25.7926L10.7804 23.6785ZM13.1764 27.484C13.2469 27.4135 13.3878 27.2725 13.4583 27.1316C13.6697 26.8497 13.7402 26.4974 13.6697 26.145C13.5993 25.9336 13.4583 25.7222 13.2469 25.5812C12.965 25.3698 12.6831 25.3698 12.4012 25.4403C12.1193 25.5812 11.9079 25.7926 11.767 26.0041C11.6965 26.145 11.626 26.2859 11.5556 26.4269L13.1764 27.484Z" fill="#C1D6DB"/>
<path d="M11.6992 22.4804C11.8402 22.1985 12.0516 21.9166 12.263 21.5643C12.6154 21.1415 12.9677 20.8596 13.3201 20.7891C13.602 20.7186 13.9543 20.7891 14.3067 21.071C14.659 21.2824 14.8 21.5643 14.8705 21.9166C14.9409 22.3395 14.8 22.8328 14.4476 23.2556C14.3772 23.3966 14.2362 23.5375 14.1657 23.608L15.5752 24.6651L15.2228 25.0879L11.6992 22.4804ZM13.7429 23.3261C13.8134 23.2556 13.9543 23.1147 14.0953 22.9737C14.5181 22.4099 14.5181 21.9166 14.0248 21.4938C13.5315 21.1415 13.0382 21.3529 12.6858 21.8462C12.5449 22.0576 12.4039 22.1985 12.4039 22.269L13.7429 23.3261Z" fill="#C1D6DB"/>
<path d="M17.3355 19.2388L16.2079 20.5073L17.4059 21.5644L18.6744 20.1549L19.0268 20.4368L17.4059 22.2691L14.0938 19.3797L15.7146 17.6179L16.067 17.9703L14.7985 19.2388L15.8556 20.1549L16.9831 18.8864L17.3355 19.2388Z" fill="#C1D6DB"/>
<path d="M16.9814 16.279L18.2499 17.6179L19.8003 16.138L18.5318 14.7991L18.9546 14.3762L21.985 17.6179L21.5621 18.0408L20.1527 16.5609L18.6023 18.0408L20.0117 19.5207L19.5889 19.9435L16.5586 16.7018L16.9814 16.279Z" fill="#C1D6DB"/>
<path d="M22.4807 11.6279L24.8768 14.7992L25.1587 14.5878L26.0748 15.7858L25.7224 16.0677L25.0177 15.222L22.9035 16.9133L23.5378 17.759L23.1854 18.0409L22.2693 16.8429L22.5512 16.6315C22.4807 16.2791 22.4102 15.9267 22.3398 15.5744C22.1284 15.0811 21.8465 14.5878 21.3532 13.9535L20.6484 13.0374L22.4807 11.6279ZM21.776 13.8126C22.1988 14.3763 22.5512 14.8696 22.6921 15.363C22.8331 15.6448 22.9035 15.9972 22.9035 16.2791L24.4539 15.0811L22.3398 12.3327L21.2827 13.1783L21.776 13.8126Z" fill="#C1D6DB"/>
<path d="M25.2305 9.86587C25.4419 9.65446 25.7238 9.44304 26.1466 9.23162C26.6399 8.94973 27.0627 8.87926 27.4151 8.94973C27.697 9.02021 28.0494 9.23162 28.1903 9.58398C28.4017 9.93634 28.4722 10.2887 28.4017 10.5706C28.3312 10.9934 27.9789 11.4163 27.4856 11.6981C27.3446 11.7686 27.2037 11.8391 27.0627 11.9096L27.9789 13.46L27.4856 13.7418L25.2305 9.86587ZM26.7809 11.4163C26.9218 11.4163 27.0627 11.3458 27.2037 11.2048C27.7675 10.8525 27.9789 10.3592 27.697 9.7954C27.4151 9.30209 26.9218 9.23162 26.358 9.58398C26.1466 9.72493 26.0057 9.7954 25.9352 9.86587L26.7809 11.4163Z" fill="#C1D6DB"/>
<path d="M32.9798 8.2451C33.614 9.65454 33.1207 10.7821 32.0637 11.2049C31.0066 11.6982 29.879 11.2049 29.3152 10.0069C28.7515 8.7384 29.1038 7.54038 30.2314 7.04707C31.2885 6.55377 32.416 7.04707 32.9798 8.2451ZM29.879 9.79548C30.3019 10.6412 31.077 11.2049 31.9227 10.8526C32.7684 10.5002 32.8389 9.5136 32.416 8.59746C32.0637 7.82226 31.218 7.18801 30.3723 7.54038C29.5267 7.89274 29.4562 8.87935 29.879 9.79548Z" fill="#C1D6DB"/>
<path d="M33.7553 5.70806L34.3896 7.54033L34.5305 7.46986L35.3057 5.14428L36.0105 4.93286L35.0943 7.39939C35.799 7.25844 36.2219 7.6108 36.6447 8.10411C36.9266 8.45647 37.2085 8.80883 37.4904 9.16119L36.9266 9.37261C36.6447 9.16119 36.4333 8.80883 36.2219 8.52694C35.8695 8.03364 35.4467 7.75175 34.742 8.03364L34.5305 7.96316L35.1648 9.86591L34.601 10.0773L33.1211 5.91947L33.7553 5.70806Z" fill="#C1D6DB"/>
<path d="M37.2788 4.58054L38.6178 6.2014C38.7587 6.41282 38.9701 6.62423 39.1111 6.90612C39.1111 6.6947 39.1815 6.41282 39.1815 6.06045L39.3929 4.08723L39.9567 3.94629L39.6748 6.34234C39.6044 6.97659 39.4634 7.68131 39.252 8.17462C39.0406 8.59745 38.8292 8.87934 38.4063 8.94981C38.2654 9.02028 38.1949 9.02029 38.054 9.02029V8.45651C38.1244 8.45651 38.1949 8.45651 38.2654 8.45651C38.6882 8.31556 38.8292 7.82226 38.8996 7.54037C38.8996 7.39943 38.8996 7.39943 38.8292 7.25848L36.6445 4.72148L37.2788 4.58054Z" fill="#C1D6DB"/>
<path d="M62.366 4.51025C62.6479 4.51025 63.0002 4.58073 63.4231 4.72167C63.9869 4.86261 64.2687 5.07403 64.4802 5.35592C64.6211 5.56734 64.6916 5.84923 64.6211 6.20159C64.4802 6.62442 64.1278 6.90631 63.6345 6.90631C63.9869 7.11772 64.4097 7.61103 64.1983 8.24528C64.0573 8.59764 63.8459 8.80906 63.564 8.95C63.2117 9.16142 62.6479 9.09095 62.0136 8.87953C61.6613 8.73858 61.3794 8.66811 61.168 8.59764L62.366 4.51025ZM61.8022 8.4567C61.8727 8.52717 62.0841 8.52717 62.2251 8.59764C62.7888 8.73858 63.3526 8.73858 63.564 8.10433C63.705 7.54056 63.2821 7.11772 62.7184 6.97678L62.2955 6.83584L61.8022 8.4567ZM62.4365 6.413L62.9298 6.55395C63.4936 6.69489 63.9164 6.55395 64.0573 6.13111C64.1983 5.63781 63.9164 5.35592 63.3526 5.1445C63.0707 5.07403 62.9298 5.07403 62.8593 5.00356L62.4365 6.413Z" fill="#C1D6DB"/>
<path d="M66.1716 5.77856C66.4535 5.84904 66.8764 5.91951 67.2287 6.13093C67.7925 6.34234 68.1449 6.62423 68.2858 6.97659C68.4268 7.25848 68.4268 7.54037 68.2858 7.89273C68.0744 8.45651 67.5811 8.66792 67.0878 8.59745C67.3697 8.80887 67.4401 9.2317 67.3697 9.65453C67.2992 10.2888 67.2287 10.7116 67.2287 10.923L66.6649 10.7116C66.6649 10.5707 66.6649 10.1478 66.8059 9.65453C66.8764 9.02028 66.8059 8.7384 66.3126 8.52698L65.8193 8.31556L65.1146 10.0774L64.5508 9.86595L66.1716 5.77856ZM65.9602 7.82226L66.524 8.03367C67.0878 8.24509 67.5811 8.10415 67.7925 7.61084C68.0039 7.04706 67.722 6.6947 67.1583 6.48329C66.8764 6.41281 66.6649 6.34234 66.5945 6.34234L65.9602 7.82226Z" fill="#C1D6DB"/>
<path d="M69.2027 10.2888L68.1456 11.3459L67.6523 11.064L71.035 7.82227L71.6693 8.10415L71.035 12.7553L70.4712 12.4734L70.6826 10.9935L69.2027 10.2888ZM70.6826 10.5707L70.8941 9.23171C70.9645 8.94982 70.9645 8.66793 71.035 8.38604C70.8236 8.59746 70.6826 8.80888 70.4712 9.02029L69.4846 9.93643L70.6826 10.5707Z" fill="#C1D6DB"/>
<path d="M71.5312 13.1076L73.9273 9.37256L74.4206 9.72492V12.4029C74.4206 13.0371 74.3501 13.5304 74.2797 14.0237C74.5616 13.5304 74.8434 13.0371 75.1958 12.4733L76.1824 10.9229L76.6052 11.2048L74.2092 14.9399L73.7159 14.658V11.98C73.7159 11.4163 73.7159 10.782 73.7864 10.2887C73.5045 10.782 73.2226 11.2048 72.8702 11.8391L71.8836 13.4599L71.5312 13.1076Z" fill="#C1D6DB"/>
<path d="M77.8733 12.0505C78.1551 12.1915 78.5075 12.4734 78.8599 12.7553C79.4941 13.2486 79.8465 13.7419 79.917 14.3056C79.9874 14.799 79.8465 15.3627 79.4236 15.9265C79.0008 16.4903 78.437 16.8426 77.8733 16.9131C77.3095 16.9836 76.6048 16.7017 75.9705 16.2084C75.6181 15.9265 75.4067 15.7151 75.1953 15.5037L77.8733 12.0505ZM75.9 15.5037C75.9705 15.6446 76.1819 15.7151 76.3229 15.856C77.3095 16.6312 78.2256 16.4903 78.9303 15.5741C79.5646 14.7285 79.5646 13.8828 78.578 13.1076C78.3666 12.8962 78.1551 12.8257 78.0142 12.7553L75.9 15.5037Z" fill="#C1D6DB"/>
<path d="M83.9318 20.5072C82.8043 21.5642 81.6062 21.4233 80.831 20.6481C80.0558 19.8024 80.1263 18.6044 81.1129 17.6883C82.0995 16.7017 83.368 16.7017 84.2137 17.5473C85.0594 18.393 84.9184 19.591 83.9318 20.5072ZM81.5358 18.0406C80.831 18.6749 80.6196 19.6615 81.1834 20.2958C81.8176 20.93 82.7338 20.7186 83.509 20.0843C84.1432 19.4501 84.4956 18.5339 83.8613 17.8292C83.1566 17.1245 82.2405 17.3359 81.5358 18.0406Z" fill="#C1D6DB"/>
<path d="M86.2577 19.9434L87.7376 21.8461L87.3852 22.128L86.2577 20.7186L85.1301 21.6347L86.1872 22.9737L85.8348 23.2556L84.7778 21.9166L83.2274 23.1851L82.875 22.7622L86.2577 19.9434Z" fill="#C1D6DB"/>
<path d="M89.2886 24.8765L88.5839 23.7489L89.0067 23.467L90.7685 26.2155L90.3457 26.4973L89.641 25.3698L86.3288 27.484L86.0469 26.9906L89.2886 24.8765Z" fill="#C1D6DB"/>
<path d="M91.4705 27.6249L89.8497 28.4706L90.8363 30.3733L92.4571 29.5276L92.739 30.0209L88.7926 31.9942L88.5107 31.5009L90.343 30.5847L89.3564 28.682L87.5241 29.5981L87.2422 29.1048L91.1886 27.1316L91.4705 27.6249Z" fill="#C1D6DB"/>
<path d="M91.8929 34.3902L91.2587 32.7693L89.7788 33.3331L90.4835 35.0949L90.0607 35.3063L89.1445 32.9807L93.2319 31.3599L94.1481 33.5445L93.7252 33.7559L93.0205 32.0646L91.752 32.5579L92.3863 34.1788L91.8929 34.3902Z" fill="#C1D6DB"/>
<path d="M90.9805 38.1957L92.8127 37.7024L94.9269 35.6587L95.0678 36.2929L94.0812 37.2091C93.7994 37.491 93.5879 37.6319 93.306 37.8433C93.5879 37.9138 93.9403 37.9843 94.2927 38.0547L95.6316 38.3366L95.7726 38.9709L92.9537 38.1957L91.1214 38.689L90.9805 38.1957Z" fill="#C1D6DB"/>
<path d="M94.08 42.5651L93.7276 40.8737L92.1772 41.1556L92.5296 43.0584L92.0363 43.1288L91.543 40.6623L95.9123 39.8167L96.3351 42.1422L95.8418 42.2127L95.4894 40.4509L94.1504 40.7328L94.5028 42.4241L94.08 42.5651Z" fill="#C1D6DB"/>
<path d="M93.6557 44.5383L92.2462 44.2564L92.1758 43.6926L96.7565 44.7497L96.8269 45.4544L92.5986 47.4277L92.5281 46.7934L93.8671 46.1592L93.6557 44.5383ZM94.2899 45.9477L95.488 45.384C95.7699 45.243 96.0518 45.1725 96.2632 45.1021C95.9813 45.0316 95.6994 45.0316 95.4175 44.9611L94.0785 44.6792L94.2899 45.9477Z" fill="#C1D6DB"/>
<path d="M96.9668 47.9209C97.0372 48.2028 97.0372 48.6256 97.1077 49.0485C97.1077 49.6827 97.0372 50.0351 96.7554 50.317C96.5439 50.5284 96.2621 50.6693 95.9097 50.6693C95.3459 50.6693 94.9231 50.317 94.7821 49.8236C94.6412 50.176 94.3593 50.3874 93.866 50.4579C93.2317 50.5988 92.8089 50.7398 92.668 50.8103V50.2465C92.8089 50.176 93.1613 50.0351 93.7251 49.9646C94.3593 49.8236 94.5707 49.6122 94.5707 49.0485V48.4847H92.668V47.9209H96.9668ZM94.9936 48.5551V49.1189C94.9936 49.7532 95.3459 50.1055 95.8392 50.1055C96.403 50.1055 96.6849 49.6827 96.6144 49.0485C96.6144 48.7666 96.6144 48.5552 96.5439 48.4847L94.9936 48.5551Z" fill="#C1D6DB"/>
<path d="M49.9648 1.47992C76.6737 1.47992 98.4496 23.2558 98.4496 49.9648C98.4496 76.6737 76.6737 98.4496 49.9648 98.4496C23.2558 98.4496 1.47992 76.6737 1.47992 49.9648C1.47992 23.2558 23.1853 1.47992 49.9648 1.47992ZM49.9648 0C22.3397 0 0 22.3397 0 49.9648C0 77.5899 22.3397 99.9295 49.9648 99.9295C77.5899 99.9295 99.9295 77.5899 99.9295 49.9648C99.9295 22.3397 77.5194 0 49.9648 0Z" fill="#C1D6DB"/>
<path d="M49.9674 6.2014C50.5901 6.2014 51.095 5.69657 51.095 5.07384C51.095 4.45111 50.5901 3.94629 49.9674 3.94629C49.3447 3.94629 48.8398 4.45111 48.8398 5.07384C48.8398 5.69657 49.3447 6.2014 49.9674 6.2014Z" fill="#C1D6DB"/>
<path d="M49.9674 95.9123C50.5901 95.9123 51.095 95.4075 51.095 94.7848C51.095 94.1621 50.5901 93.6572 49.9674 93.6572C49.3447 93.6572 48.8398 94.1621 48.8398 94.7848C48.8398 95.4075 49.3447 95.9123 49.9674 95.9123Z" fill="#C1D6DB"/>
<path d="M6.69396 38.9709C7.31669 38.9709 7.82152 38.4661 7.82152 37.8434C7.82152 37.2206 7.31669 36.7158 6.69396 36.7158C6.07123 36.7158 5.56641 37.2206 5.56641 37.8434C5.56641 38.4661 6.07123 38.9709 6.69396 38.9709Z" fill="#C1D6DB"/>
<path d="M93.1627 63.1428C93.7854 63.1428 94.2903 62.638 94.2903 62.0152C94.2903 61.3925 93.7854 60.8877 93.1627 60.8877C92.54 60.8877 92.0352 61.3925 92.0352 62.0152C92.0352 62.638 92.54 63.1428 93.1627 63.1428Z" fill="#C1D6DB"/>
<path d="M29.1753 28.5411C30.9657 28.5411 32.417 27.0897 32.417 25.2993C32.417 23.509 30.9657 22.0576 29.1753 22.0576C27.385 22.0576 25.9336 23.509 25.9336 25.2993C25.9336 27.0897 27.385 28.5411 29.1753 28.5411Z" fill="#445456"/>
<path d="M35.5172 66.1025H22.7617V78.858H35.5172V66.1025Z" fill="#445456"/>
<path d="M37.0672 57.0822L29.1743 67.794L21.2109 57.0822C25.2983 52.572 27.5534 24.5945 27.5534 24.5945L29.1743 46.0181L30.7247 24.2422C30.6542 24.2422 33.3321 49.0484 37.0672 57.0822Z" fill="#445456"/>
<path d="M40.1719 35.5886V26.2158H45.1049V27.9776H42.0042V29.8099H42.427C43.2022 29.8099 43.8364 29.8804 44.4002 30.0918C44.8935 30.2327 45.3163 30.5851 45.6687 31.0784C46.0211 31.5717 46.162 32.1355 46.162 32.7697C46.162 33.404 46.0211 33.9678 45.8096 34.3201C45.5278 34.743 45.1754 35.0248 44.7526 35.3067C44.3297 35.5886 43.6955 35.6591 42.9203 35.6591H40.1719V35.5886ZM41.9337 31.3603V33.8973H42.3565C43.2022 33.8973 43.6955 33.7563 43.9069 33.5449C44.1183 33.3335 44.2593 33.0516 44.2593 32.6993C44.2593 31.7831 43.625 31.3603 42.286 31.3603H41.9337Z" fill="#445456"/>
<path d="M47.6445 26.2158H49.5473C50.6044 26.2158 51.3091 26.2863 51.8024 26.4977C52.2252 26.7091 52.6481 26.991 52.8595 27.4138C53.1414 27.8367 53.2823 28.33 53.2823 28.9642C53.2823 29.5985 53.1414 30.1623 52.789 30.5851C52.4366 31.0079 51.9433 31.2898 51.3796 31.5012C51.0272 31.5717 50.3929 31.6422 49.4768 31.6422V35.6591H47.715L47.6445 26.2158ZM49.4063 29.8804H49.9701C50.3929 29.8804 50.7453 29.8804 50.8863 29.8099C51.0272 29.7394 51.1681 29.669 51.3091 29.4575C51.3796 29.3166 51.45 29.1052 51.45 28.8938C51.45 28.5414 51.3091 28.2595 51.0272 28.1186C50.8158 27.9776 50.4634 27.9072 49.8996 27.9072H49.4063V29.8804Z" fill="#445456"/>
<path d="M54.9727 26.2158H60.1171V27.9776H56.7345V29.669H60.1171V31.3603H56.7345V33.8268H60.1171V35.5886H54.9727V26.2158Z" fill="#445456"/>
<path d="M61.8047 26.2158H63.637V29.7394H66.7377V26.2158H68.57V35.6591H66.7377V31.5012H63.5665V35.6591H61.8047V26.2158Z" fill="#445456"/>
<path d="M73.7866 26.2158H75.6189L78.6492 33.9678H79.7063V37.0685H77.9445V35.6591H71.461V37.0685H69.6992V33.9678H70.7563L73.7866 26.2158ZM74.7027 28.6823L72.659 33.8973H76.8169L74.7027 28.6823Z" fill="#445456"/>
<path d="M40.168 71.3885V68.2173H40.6613C40.9432 68.2173 41.1546 68.2173 41.2955 68.2878C41.5069 68.3582 41.6479 68.4287 41.7184 68.5696C41.8593 68.7106 41.8593 68.8515 41.8593 69.0629C41.8593 69.2039 41.8593 69.2744 41.7888 69.4153C41.7184 69.4858 41.6479 69.6267 41.5069 69.6972C41.7184 69.7677 41.8593 69.9086 41.9298 70.0496C42.0002 70.1905 42.0707 70.3314 42.0707 70.5429C42.0707 70.7543 42.0002 70.8952 41.9298 71.0362C41.8593 71.1771 41.7184 71.3181 41.5774 71.3885C41.4365 71.459 41.2251 71.5295 41.0136 71.5295H40.168V71.3885ZM40.7317 68.8515V69.4858H40.8727C41.0136 69.4858 41.1546 69.4858 41.2251 69.4153C41.2955 69.3448 41.366 69.2744 41.366 69.1334C41.366 69.0629 41.366 68.922 41.2955 68.922C41.2251 68.8515 41.1546 68.8515 41.0136 68.8515H40.7317ZM40.7317 70.0496V70.8248H40.8727C41.1546 70.8248 41.2955 70.8248 41.366 70.7543C41.4365 70.6838 41.5069 70.6133 41.5069 70.4724C41.5069 70.3314 41.4365 70.261 41.366 70.12C41.2955 69.9791 41.0841 69.9791 40.8727 69.9791L40.7317 70.0496Z" fill="#445456"/>
<path d="M42.8477 68.2878H43.4819C43.8343 68.2878 44.0457 68.2878 44.2571 68.3583C44.398 68.4288 44.539 68.4993 44.6095 68.6402C44.6799 68.7811 44.7504 68.9221 44.7504 69.1335C44.7504 69.3449 44.6799 69.4859 44.6095 69.6268C44.539 69.7678 44.3276 69.8382 44.1866 69.9087L44.9618 71.3181H44.3276L43.6229 69.9792H43.5524V71.3181H42.9886V68.2878H42.8477ZM43.4819 69.4859H43.6933C43.9047 69.4859 44.0457 69.4859 44.1162 69.4154C44.1866 69.3449 44.2571 69.2744 44.2571 69.1335C44.2571 69.063 44.2571 68.9926 44.1866 68.9221C44.1162 68.8516 44.1162 68.8516 44.0457 68.7811C43.9752 68.7811 43.9047 68.7811 43.6933 68.7811H43.5524L43.4819 69.4859Z" fill="#445456"/>
<path d="M45.5234 68.2878H47.2148V68.8516H46.1577V69.4154H47.2852V69.9792H46.1577V70.8248H47.2852V71.3886H45.5939L45.5234 68.2878Z" fill="#445456"/>
<path d="M47.9219 68.2878H48.4857L49.8246 70.3315V68.2878H50.3884V71.4591H49.8246L48.4857 69.4154V71.4591H47.9219V68.2878Z" fill="#445456"/>
<path d="M51.3752 68.2878H52.0799C52.5027 68.2878 52.8551 68.3583 53.0665 68.4288C53.2779 68.4993 53.4893 68.7107 53.6303 68.9926C53.7712 69.2745 53.8417 69.5563 53.8417 69.9087C53.8417 70.1201 53.7712 70.402 53.7007 70.5429C53.6303 70.7544 53.4893 70.8953 53.3484 71.0363C53.2074 71.1772 53.0665 71.2477 52.8551 71.3181C52.7141 71.3886 52.4322 71.3886 52.0094 71.3886H51.3047L51.3752 68.2878ZM51.9389 68.8516V70.8248H52.2208C52.5027 70.8248 52.7141 70.8248 52.7846 70.7544C52.9255 70.6839 52.996 70.6134 53.0665 70.4725C53.137 70.3315 53.2074 70.1201 53.2074 69.9087C53.2074 69.5563 53.137 69.3449 52.9255 69.1335C52.7846 68.9926 52.5027 68.8516 52.1504 68.8516H51.9389Z" fill="#445456"/>
<path d="M41.6484 73.2913C42.0712 73.2913 42.494 73.4322 42.7759 73.7846C43.1283 74.1369 43.2692 74.4893 43.2692 74.9826C43.2692 75.4759 43.1283 75.8283 42.7759 76.1806C42.4236 76.533 42.0712 76.6739 41.6484 76.6739C41.1551 76.6739 40.8027 76.533 40.4503 76.1806C40.1684 75.8283 39.957 75.4759 39.957 75.0531C39.957 74.7712 40.0275 74.4893 40.1684 74.2074C40.3094 73.9255 40.5208 73.7846 40.8027 73.5731C41.0846 73.3617 41.3665 73.2913 41.6484 73.2913ZM41.6484 73.855C41.3665 73.855 41.0846 73.9255 40.9436 74.1369C40.7322 74.3483 40.6618 74.6302 40.6618 74.9121C40.6618 75.2645 40.8027 75.5464 41.0141 75.7578C41.2255 75.8987 41.4369 75.9692 41.6484 75.9692C41.9303 75.9692 42.1417 75.8987 42.3531 75.6873C42.5645 75.4759 42.635 75.2645 42.635 74.9121C42.635 74.6302 42.5645 74.3483 42.3531 74.1369C42.1417 73.9255 41.9303 73.855 41.6484 73.855Z" fill="#445456"/>
<path d="M43.9727 73.3618H45.523V73.9256H44.5364V74.4894H45.523V75.0531H44.5364V76.4626H43.9727V73.3618Z" fill="#445456"/>
<path d="M47.2852 73.3618H49.047V73.9256H48.4832V76.4626H47.8489V73.9256H47.2852V73.3618Z" fill="#445456"/>
<path d="M49.6094 73.3618H50.2436V74.5598H51.3007V73.3618H51.935V76.5331H51.3007V75.1236H50.2436V76.5331H49.6094V73.3618Z" fill="#445456"/>
<path d="M52.7148 73.3618H54.4062V73.9256H53.2786V74.4894H54.4062V75.0531H53.2786V75.8988H54.4062V76.4626H52.7148V73.3618Z" fill="#445456"/>
<path d="M56.3047 73.3618H56.9389L57.5027 74.4894L58.0665 73.3618H58.7007L57.7846 75.1236V76.4626H57.1504V75.1236L56.3047 73.3618Z" fill="#445456"/>
<path d="M59.4102 73.3618H61.1015V73.9256H59.9739V74.4894H61.1015V75.0531H59.9739V75.8988H61.1015V76.4626H59.4102V73.3618Z" fill="#445456"/>
<path d="M62.7215 73.3618H63.3557L64.5537 76.5331H63.9195L63.7081 75.8988H62.4396L62.1577 76.5331H61.5234L62.7215 73.3618ZM63.0738 74.2075L62.651 75.2646H63.4967L63.0738 74.2075Z" fill="#445456"/>
<path d="M65.1875 73.3618H65.8218C66.1741 73.3618 66.3855 73.3618 66.5969 73.4323C66.7379 73.5028 66.8788 73.5732 66.9493 73.7142C67.0198 73.8551 67.0902 73.9961 67.0902 74.2075C67.0902 74.4189 67.0198 74.5598 66.9493 74.7008C66.8788 74.8417 66.6674 74.9122 66.5265 74.9827L67.3017 76.3921H66.5969L65.8922 75.0531H65.8218V76.3921H65.1875V73.3618ZM65.8218 74.6303H66.0332C66.2446 74.6303 66.3855 74.6303 66.456 74.5598C66.5265 74.4894 66.5969 74.4189 66.5969 74.278C66.5969 74.2075 66.5969 74.137 66.5265 74.0665C66.456 73.9961 66.456 73.9961 66.3855 73.9256C66.3151 73.9256 66.2446 73.9256 66.0332 73.9256H65.8922V74.6303H65.8218Z" fill="#445456"/>
<path d="M40.1719 40.3091H42.0746C43.1317 40.3091 43.8364 40.3796 44.3297 40.591C44.7526 40.8024 45.1754 41.0843 45.3868 41.5071C45.6687 41.9299 45.8096 42.4232 45.8096 43.0575C45.8096 43.6917 45.6687 44.2555 45.3163 44.6784C44.964 45.1012 44.4707 45.3831 43.9069 45.5945C43.5545 45.665 42.9203 45.7354 42.0042 45.7354V49.7524H40.2423V40.3091H40.1719ZM41.9337 43.9736H42.4975C42.9203 43.9736 43.2726 43.9736 43.4136 43.9032C43.5545 43.8327 43.6955 43.7622 43.8364 43.5508C43.9774 43.3394 43.9774 43.1984 43.9774 42.987C43.9774 42.6347 43.8364 42.3528 43.5545 42.2118C43.3431 42.0709 42.9908 42.0004 42.427 42.0004H41.9337V43.9736Z" fill="#445456"/>
<path d="M51.9409 40.0283C53.2798 40.0283 54.4074 40.5216 55.394 41.5082C56.3806 42.4948 56.8034 43.6224 56.8034 45.0318C56.8034 46.4413 56.3101 47.5688 55.394 48.5555C54.4779 49.5421 53.2798 49.9649 51.9409 49.9649C50.5314 49.9649 49.3334 49.4716 48.4173 48.485C47.5011 47.4984 47.0078 46.3708 47.0078 45.0318C47.0078 44.1157 47.2192 43.27 47.6421 42.5653C48.0649 41.7901 48.6991 41.2263 49.4743 40.733C50.2495 40.2397 51.0952 40.0283 51.9409 40.0283ZM51.9409 41.7901C51.0952 41.7901 50.32 42.072 49.7562 42.7063C49.1925 43.3405 48.8401 44.1157 48.8401 45.0318C48.8401 46.0889 49.1925 46.8641 49.9676 47.4984C50.5314 47.9917 51.2361 48.2031 51.9409 48.2031C52.7865 48.2031 53.4913 47.9212 54.1255 47.287C54.6893 46.6527 55.0416 45.948 55.0416 45.0318C55.0416 44.1157 54.7598 43.3405 54.1255 42.7767C53.5617 42.1425 52.7865 41.7901 51.9409 41.7901Z" fill="#445456"/>
<path d="M58.5664 40.3091H60.3987V43.5508L62.9357 40.3091H65.1203L61.8081 44.5374L65.4022 49.7524H63.288L60.3987 45.5945V49.7524H58.5664V40.3091Z" fill="#445456"/>
<path d="M69.2777 47.5677L65.895 40.3091H67.9387L70.1938 45.5945L72.0261 40.3091H73.8584L71.3214 47.0744C70.8985 48.202 70.4052 48.9772 69.9119 49.4C69.4186 49.8228 68.8548 49.9638 68.2911 49.9638C67.3749 49.9638 66.5293 49.5409 65.6836 48.6248L66.8816 47.4268C67.3749 47.9905 67.7978 48.2724 68.2911 48.2724C68.5025 48.2724 68.6434 48.202 68.7844 48.1315C68.9958 47.9201 69.1367 47.7791 69.2777 47.5677Z" fill="#445456"/>
<path d="M41.7927 55.8142H40.3128C40.3833 54.9685 40.5947 54.3343 41.088 53.841C41.5813 53.3476 42.2156 53.1362 42.9908 53.1362C43.4841 53.1362 43.9069 53.2067 44.2593 53.4181C44.6116 53.6295 44.8935 53.9114 45.1049 54.2638C45.3163 54.6161 45.4573 55.039 45.4573 55.3913C45.4573 55.8846 45.3163 56.3779 45.0345 56.8713C44.7526 57.435 44.2593 58.0693 43.5545 58.774L42.7793 59.7606H45.5982V61.1701H40.1719V60.4653L42.5679 57.9988C43.1317 57.435 43.5545 56.9417 43.766 56.5894C43.9774 56.237 44.0478 55.8846 44.0478 55.6028C44.0478 55.3209 43.9774 55.039 43.766 54.8276C43.5545 54.6161 43.2727 54.5457 42.9908 54.5457C42.6384 54.5457 42.427 54.6866 42.2156 54.898C41.9337 55.1095 41.7927 55.4618 41.7927 55.8142Z" fill="#445456"/>
<path d="M49.0492 53.1362C49.613 53.1362 50.1063 53.2772 50.5291 53.5591C50.9519 53.841 51.2338 54.2638 51.5157 54.8276C51.7271 55.3913 51.8681 56.237 51.8681 57.2236C51.8681 58.2807 51.7271 59.0559 51.5157 59.6901C51.3043 60.2539 50.9519 60.6768 50.5996 60.9586C50.1768 61.2405 49.7539 61.3815 49.1197 61.3815C48.4854 61.3815 48.0626 61.2405 47.6398 60.9586C47.2169 60.6768 46.935 60.2539 46.7236 59.6901C46.5122 59.1264 46.3008 58.3512 46.3008 57.2941C46.3008 55.8846 46.5122 54.8276 46.935 54.1933C47.4988 53.4886 48.2035 53.1362 49.0492 53.1362ZM49.1197 54.5457C48.8378 54.5457 48.6264 54.6161 48.4149 54.7571C48.2035 54.898 48.0626 55.1799 47.9921 55.6028C47.9216 56.0256 47.8512 56.5894 47.8512 57.3646C47.8512 58.3512 47.9921 59.0559 48.2035 59.4083C48.4149 59.7606 48.7673 59.972 49.1197 59.972C49.472 59.972 49.7539 59.7606 49.9653 59.4083C50.2472 58.9854 50.3882 58.2807 50.3882 57.2236C50.3882 56.1665 50.2472 55.4618 50.0358 55.1094C49.7539 54.7571 49.472 54.5457 49.1197 54.5457Z" fill="#445456"/>
<path d="M53.9864 53.2771H56.1711V61.17H54.6912V54.6865H53.0703L53.9864 53.2771Z" fill="#445456"/>
<path d="M60.3982 55.2504H58.9888C59.0592 54.6866 59.2706 54.1933 59.623 53.841C60.1163 53.3476 60.6801 53.1362 61.4553 53.1362C62.0895 53.1362 62.6533 53.3476 63.0761 53.7705C63.499 54.1933 63.7104 54.6866 63.7104 55.2504C63.7104 55.6028 63.6399 55.8846 63.4285 56.237C63.2171 56.5189 62.9352 56.7303 62.5828 56.9417C63.0761 57.0827 63.4285 57.3646 63.7104 57.7169C63.9923 58.0693 64.1332 58.4921 64.1332 58.9854C64.1332 59.6901 63.8513 60.2539 63.358 60.7472C62.8647 61.2405 62.16 61.4519 61.3848 61.4519C60.6096 61.4519 59.9754 61.2405 59.5525 60.7472C59.0592 60.2539 58.7773 59.6901 58.7773 58.8445H60.2573C60.3277 59.2673 60.4687 59.5492 60.6801 59.7606C60.8915 59.972 61.1734 60.0425 61.5258 60.0425C61.8781 60.0425 62.16 59.9016 62.3714 59.6901C62.5828 59.4787 62.7238 59.1968 62.7238 58.8445C62.7238 58.4921 62.5828 58.2102 62.2305 57.9283C61.9486 57.7169 61.4553 57.576 60.8915 57.576V56.3075C61.2439 56.3075 61.5258 56.237 61.6667 56.1665C61.8076 56.0961 61.9486 55.9551 62.0895 55.8142C62.16 55.6732 62.2305 55.5323 62.2305 55.3209C62.2305 55.1094 62.16 54.898 62.0191 54.7571C61.8781 54.6161 61.6667 54.5457 61.4553 54.5457C61.2439 54.5457 61.0325 54.6161 60.8915 54.7571C60.5391 54.898 60.3982 55.039 60.3982 55.2504Z" fill="#445456"/>
<path d="M39.6758 35.3066V25.9338H44.6088V27.6956H41.5081V29.5279H41.9309C42.7061 29.5279 43.3403 29.5984 43.9041 29.8098C44.3974 29.9508 44.8202 30.3031 45.1726 30.7964C45.525 31.2897 45.6659 31.8535 45.6659 32.4877C45.6659 33.122 45.525 33.6858 45.3136 34.0381C45.0317 34.461 44.6793 34.7429 44.2565 35.0247C43.8336 35.3066 43.1994 35.3771 42.4242 35.3771H39.6758V35.3066ZM41.4376 31.0783V33.6153H41.8604C42.7061 33.6153 43.1994 33.4744 43.4108 33.2629C43.6222 33.0515 43.7632 32.7696 43.7632 32.4173C43.7632 31.5011 43.1289 31.0783 41.7899 31.0783H41.4376Z" fill="#C1D6DB"/>
<path d="M47.1484 25.9338H49.0512C50.1083 25.9338 50.813 26.0043 51.3063 26.2157C51.7291 26.4271 52.152 26.709 52.3634 27.1319C52.6453 27.5547 52.7862 28.048 52.7862 28.6823C52.7862 29.3165 52.6453 29.8803 52.2929 30.3031C51.9405 30.7259 51.4472 31.0078 50.8835 31.2193C50.5311 31.2897 49.8969 31.3602 48.9807 31.3602V35.3771H47.2189L47.1484 25.9338ZM48.9102 29.5984H49.474C49.8968 29.5984 50.2492 29.5984 50.3902 29.5279C50.5311 29.4574 50.672 29.387 50.813 29.1756C50.8835 29.0346 50.9539 28.8232 50.9539 28.6118C50.9539 28.2594 50.813 27.9775 50.5311 27.8366C50.3197 27.6956 49.9673 27.6252 49.4035 27.6252H48.9102V29.5984Z" fill="#C1D6DB"/>
<path d="M54.4766 25.9338H59.621V27.6956H56.2384V29.387H59.621V31.0783H56.2384V33.5448H59.621V35.3066H54.4766V25.9338Z" fill="#C1D6DB"/>
<path d="M61.3125 25.9338H63.1448V29.4574H66.2456V25.9338H68.0778V35.3771H66.2456V31.2193H63.0743V35.3771H61.3125V25.9338Z" fill="#C1D6DB"/>
<path d="M73.2905 25.9338H75.1228L78.1531 33.6858H79.2102V36.7866H77.4484V35.3771H70.9649V36.7866H69.2031V33.6858H70.2602L73.2905 25.9338ZM74.2067 28.4004L72.163 33.6153H76.3208L74.2067 28.4004Z" fill="#C1D6DB"/>
<path d="M39.8164 71.1769V68.0056H40.3097C40.5916 68.0056 40.803 68.0056 40.944 68.0761C41.1554 68.1466 41.2963 68.217 41.3668 68.358C41.5077 68.4989 41.5077 68.6399 41.5077 68.8513C41.5077 68.9922 41.5077 69.0627 41.4373 69.2036C41.3668 69.2741 41.2963 69.4151 41.1554 69.4855C41.3668 69.556 41.5077 69.6969 41.5782 69.8379C41.6487 69.9788 41.7192 70.1198 41.7192 70.3312C41.7192 70.5426 41.6487 70.6836 41.5782 70.8245C41.5077 70.9654 41.3668 71.1064 41.2258 71.1769C41.0849 71.2473 40.8735 71.3178 40.6621 71.3178H39.8164V71.1769ZM40.3802 68.6399V69.2741H40.5211C40.6621 69.2741 40.803 69.2741 40.8735 69.2036C40.944 69.1332 41.0144 69.0627 41.0144 68.9218C41.0144 68.8513 41.0144 68.7103 40.944 68.7103C40.8735 68.6399 40.803 68.6399 40.6621 68.6399H40.3802ZM40.3802 69.8379V70.6131H40.5211C40.803 70.6131 40.944 70.6131 41.0144 70.5426C41.0849 70.4721 41.1554 70.4017 41.1554 70.2607C41.1554 70.1198 41.0849 70.0493 41.0144 69.9084C40.944 69.7674 40.7325 69.7674 40.5211 69.7674L40.3802 69.8379Z" fill="#C1D6DB"/>
<path d="M42.4961 68.0762H43.1303C43.4827 68.0762 43.6941 68.0762 43.9055 68.1466C44.0465 68.2171 44.1874 68.2876 44.2579 68.4285C44.3284 68.5695 44.3988 68.7104 44.3988 68.9218C44.3988 69.1333 44.3284 69.2742 44.2579 69.4151C44.1874 69.5561 43.976 69.6266 43.8351 69.697L44.6103 71.1065H43.976L43.2713 69.7675H43.2008V71.1065H42.637V68.0762H42.4961ZM43.1303 69.2742H43.3418C43.5532 69.2742 43.6941 69.2742 43.7646 69.2037C43.8351 69.1333 43.9055 69.0628 43.9055 68.9218C43.9055 68.8514 43.9055 68.7809 43.8351 68.7104C43.7646 68.64 43.7646 68.64 43.6941 68.5695C43.6236 68.5695 43.5532 68.5695 43.3418 68.5695H43.2008L43.1303 69.2742Z" fill="#C1D6DB"/>
<path d="M45.1719 68.0762H46.8632V68.64H45.8061V69.2037H46.9337V69.7675H45.8061V70.6132H46.9337V71.1769H45.2423L45.1719 68.0762Z" fill="#C1D6DB"/>
<path d="M47.5703 68.0762H48.1341L49.4731 70.1199V68.0762H50.0368V71.2474H49.4731L48.1341 69.2037V71.2474H47.5703V68.0762Z" fill="#C1D6DB"/>
<path d="M51.0236 68.0762H51.7283C52.1512 68.0762 52.5035 68.1466 52.7149 68.2171C52.9263 68.2876 53.1378 68.499 53.2787 68.7809C53.4196 69.0628 53.4901 69.3447 53.4901 69.697C53.4901 69.9085 53.4196 70.1903 53.3492 70.3313C53.2787 70.5427 53.1378 70.6836 52.9968 70.8246C52.8559 70.9655 52.7149 71.036 52.5035 71.1065C52.3626 71.1769 52.0807 71.1769 51.6578 71.1769H50.9531L51.0236 68.0762ZM51.5874 68.64V70.6132H51.8693C52.1511 70.6132 52.3626 70.6132 52.433 70.5427C52.574 70.4722 52.6445 70.4018 52.7149 70.2608C52.7854 70.1199 52.8559 69.9085 52.8559 69.697C52.8559 69.3447 52.7854 69.1333 52.574 68.9218C52.433 68.7809 52.1511 68.64 51.7988 68.64H51.5874Z" fill="#C1D6DB"/>
<path d="M41.2968 73.0796C41.7196 73.0796 42.1425 73.2205 42.4244 73.5729C42.7767 73.9253 42.9177 74.2776 42.9177 74.7709C42.9177 75.2642 42.7767 75.6166 42.4244 75.969C42.072 76.3213 41.7196 76.4623 41.2968 76.4623C40.8035 76.4623 40.4511 76.3213 40.0988 75.969C39.8169 75.6166 39.6055 75.2642 39.6055 74.8414C39.6055 74.5595 39.6759 74.2776 39.8169 73.9957C39.9578 73.7138 40.1692 73.5729 40.4511 73.3615C40.733 73.1501 41.0149 73.0796 41.2968 73.0796ZM41.2968 73.6434C41.0149 73.6434 40.733 73.7138 40.5921 73.9253C40.3807 74.1367 40.3102 74.4186 40.3102 74.7005C40.3102 75.0528 40.4511 75.3347 40.6626 75.5461C40.874 75.6871 41.0854 75.7575 41.2968 75.7575C41.5787 75.7575 41.7901 75.6871 42.0015 75.4756C42.2129 75.2642 42.2834 75.0528 42.2834 74.7005C42.2834 74.4186 42.2129 74.1367 42.0015 73.9253C41.7901 73.7138 41.5787 73.6434 41.2968 73.6434Z" fill="#C1D6DB"/>
<path d="M43.6211 73.1501H45.1715V73.7139H44.1849V74.2777H45.1715V74.8415H44.1849V76.2509H43.6211V73.1501Z" fill="#C1D6DB"/>
<path d="M46.9336 73.1501H48.6954V73.7139H48.1316V76.2509H47.4974V73.7139H46.9336V73.1501Z" fill="#C1D6DB"/>
<path d="M49.2578 73.1501H49.8921V74.3482H50.9491V73.1501H51.5834V76.3214H50.9491V74.912H49.8921V76.3214H49.2578V73.1501Z" fill="#C1D6DB"/>
<path d="M52.3633 73.1501H54.0546V73.7139H52.9271V74.2777H54.0546V74.8415H52.9271V75.6871H54.0546V76.2509H52.3633V73.1501Z" fill="#C1D6DB"/>
<path d="M55.9531 73.1501H56.5874L57.1511 74.2777L57.7149 73.1501H58.3492L57.433 74.912V76.2509H56.7988V74.912L55.9531 73.1501Z" fill="#C1D6DB"/>
<path d="M59.0586 73.1501H60.7499V73.7139H59.6224V74.2777H60.7499V74.8415H59.6224V75.6871H60.7499V76.2509H59.0586V73.1501Z" fill="#C1D6DB"/>
<path d="M62.3699 73.1501H63.0042L64.2022 76.3214H63.5679L63.3565 75.6871H62.088L61.8061 76.3214H61.1719L62.3699 73.1501ZM62.7223 73.9958L62.2994 75.0529H63.1451L62.7223 73.9958Z" fill="#C1D6DB"/>
<path d="M64.8359 73.1501H65.4702C65.8225 73.1501 66.034 73.1501 66.2454 73.2206C66.3863 73.2911 66.5273 73.3616 66.5977 73.5025C66.6682 73.6435 66.7387 73.7844 66.7387 73.9958C66.7387 74.2072 66.6682 74.3482 66.5977 74.4891C66.5273 74.6301 66.3159 74.7005 66.1749 74.771L66.9501 76.1804H66.2454L65.5407 74.8415H65.4702V76.1804H64.8359V73.1501ZM65.4702 74.4186H65.6816C65.893 74.4186 66.034 74.4186 66.1044 74.3482C66.1749 74.2777 66.2454 74.2072 66.2454 74.0663C66.2454 73.9958 66.2454 73.9253 66.1749 73.8549C66.1044 73.7844 66.1044 73.7844 66.034 73.7139C65.9635 73.7139 65.893 73.7139 65.6816 73.7139H65.5407V74.4186H65.4702Z" fill="#C1D6DB"/>
<path d="M39.6758 40.0283H41.5785C42.6356 40.0283 43.3403 40.0988 43.8336 40.3102C44.2565 40.5216 44.6793 40.8035 44.8907 41.2263C45.1726 41.6492 45.3136 42.1425 45.3136 42.7767C45.3136 43.411 45.1726 43.9748 44.8202 44.3976C44.4679 44.8204 43.9746 45.1023 43.4108 45.3137C43.0584 45.3842 42.4242 45.4547 41.5081 45.4547V49.4716H39.7463V40.0283H39.6758ZM41.4376 43.6929H42.0014C42.4242 43.6929 42.7766 43.6929 42.9175 43.6224C43.0584 43.5519 43.1994 43.4815 43.3403 43.27C43.4813 43.0586 43.4813 42.9177 43.4813 42.7063C43.4813 42.3539 43.3403 42.072 43.0584 41.9311C42.847 41.7901 42.4947 41.7197 41.9309 41.7197H41.4376V43.6929Z" fill="#C1D6DB"/>
<path d="M51.4448 39.7463C52.7837 39.7463 53.9113 40.2396 54.8979 41.2263C55.8845 42.2129 56.3074 43.3404 56.3074 44.7499C56.3074 46.1593 55.814 47.2869 54.8979 48.2735C53.9818 49.2601 52.7837 49.6829 51.4448 49.6829C50.0353 49.6829 48.8373 49.1896 47.9212 48.203C47.005 47.2164 46.5117 46.0888 46.5117 44.7499C46.5117 43.8337 46.7231 42.9881 47.146 42.2833C47.5688 41.5081 48.2031 40.9444 48.9782 40.4511C49.7534 39.9578 50.5991 39.7463 51.4448 39.7463ZM51.4448 41.5081C50.5991 41.5081 49.8239 41.79 49.2601 42.4243C48.6964 43.0585 48.344 43.8337 48.344 44.7499C48.344 45.8069 48.6964 46.5821 49.4715 47.2164C50.0353 47.7097 50.74 47.9211 51.4448 47.9211C52.2904 47.9211 52.9952 47.6392 53.6294 47.005C54.1932 46.3707 54.5455 45.666 54.5455 44.7499C54.5455 43.8337 54.2637 43.0585 53.6294 42.4948C53.0656 41.8605 52.2904 41.5081 51.4448 41.5081Z" fill="#C1D6DB"/>
<path d="M58.0703 40.0283H59.9026V43.27L62.4396 40.0283H64.6242L61.312 44.2567L64.9061 49.4716H62.7919L59.9026 45.3137V49.4716H58.0703V40.0283Z" fill="#C1D6DB"/>
<path d="M68.7816 47.287L65.3989 40.0283H67.4426L69.6977 45.3137L71.53 40.0283H73.3623L70.8253 46.7936C70.4024 47.9212 69.9091 48.6964 69.4158 49.1192C68.9225 49.5421 68.3587 49.683 67.795 49.683C66.8788 49.683 66.0332 49.2602 65.1875 48.344L66.3855 47.146C66.8788 47.7098 67.3017 47.9917 67.795 47.9917C68.0064 47.9917 68.1473 47.9212 68.2883 47.8507C68.4997 47.6393 68.6406 47.4984 68.7816 47.287Z" fill="#C1D6DB"/>
<path d="M41.2966 55.5319H39.8167C39.8872 54.6863 40.0986 54.052 40.5919 53.5587C41.0852 53.0654 41.7195 52.854 42.4947 52.854C42.988 52.854 43.4108 52.9245 43.7632 53.1359C44.1155 53.3473 44.3974 53.6292 44.6088 53.9816C44.8202 54.3339 44.9612 54.7568 44.9612 55.1091C44.9612 55.6024 44.8203 56.0957 44.5384 56.589C44.2565 57.1528 43.7632 57.7871 43.0584 58.4918L42.2833 59.4784H45.1021V60.8878H39.6758V60.1831L42.0718 57.7166C42.6356 57.1528 43.0584 56.6595 43.2699 56.3071C43.4813 55.9548 43.5518 55.6024 43.5518 55.3205C43.5518 55.0386 43.4813 54.7568 43.2699 54.5453C43.0584 54.3339 42.7766 54.2634 42.4947 54.2634C42.1423 54.2634 41.9309 54.4044 41.7195 54.6158C41.4376 54.8272 41.2966 55.1796 41.2966 55.5319Z" fill="#C1D6DB"/>
<path d="M48.557 52.854C49.1208 52.854 49.6141 52.9949 50.0369 53.2768C50.4598 53.5587 50.7416 53.9816 51.0235 54.5453C51.235 55.1091 51.3759 55.9548 51.3759 56.9414C51.3759 57.9985 51.235 58.7737 51.0235 59.4079C50.8121 59.9717 50.4598 60.3945 50.1074 60.6764C49.6846 60.9583 49.2617 61.0992 48.6275 61.0992C47.9932 61.0992 47.5704 60.9583 47.1476 60.6764C46.7247 60.3945 46.4428 59.9717 46.2314 59.4079C46.02 58.8441 45.8086 58.0689 45.8086 57.0119C45.8086 55.6024 46.02 54.5453 46.4428 53.9111C47.0066 53.2064 47.7113 52.854 48.557 52.854ZM48.6275 54.2634C48.3456 54.2634 48.1342 54.3339 47.9228 54.4749C47.7113 54.6158 47.5704 54.8977 47.4999 55.3205C47.4295 55.7434 47.359 56.3071 47.359 57.0823C47.359 58.0689 47.4999 58.7737 47.7113 59.126C47.9228 59.4784 48.2751 59.6898 48.6275 59.6898C48.9798 59.6898 49.2617 59.4784 49.4731 59.126C49.755 58.7032 49.896 57.9985 49.896 56.9414C49.896 55.8843 49.755 55.1796 49.5436 54.8272C49.2617 54.4749 48.9798 54.2634 48.6275 54.2634Z" fill="#C1D6DB"/>
<path d="M53.4904 52.9949H55.675V60.8878H54.1951V54.4043H52.5742L53.4904 52.9949Z" fill="#C1D6DB"/>
<path d="M59.9021 54.9682H58.4927C58.5631 54.4044 58.7746 53.9111 59.1269 53.5587C59.6202 53.0654 60.184 52.854 60.9592 52.854C61.5934 52.854 62.1572 53.0654 62.5801 53.4883C63.0029 53.9111 63.2143 54.4044 63.2143 54.9682C63.2143 55.3205 63.1438 55.6024 62.9324 55.9548C62.721 56.2367 62.4391 56.4481 62.0867 56.6595C62.5801 56.8004 62.9324 57.0823 63.2143 57.4347C63.4962 57.7871 63.6371 58.2099 63.6371 58.7032C63.6371 59.4079 63.3552 59.9717 62.8619 60.465C62.3686 60.9583 61.6639 61.1697 60.8887 61.1697C60.1135 61.1697 59.4793 60.9583 59.0564 60.465C58.5631 59.9717 58.2812 59.4079 58.2812 58.5622H59.7612C59.8316 58.9851 59.9726 59.267 60.184 59.4784C60.3954 59.6898 60.6773 59.7603 61.0297 59.7603C61.382 59.7603 61.6639 59.6193 61.8753 59.4079C62.0868 59.1965 62.2277 58.9146 62.2277 58.5622C62.2277 58.2099 62.0867 57.928 61.7344 57.6461C61.4525 57.4347 60.9592 57.2938 60.3954 57.2938V56.0253C60.7478 56.0253 61.0297 55.9548 61.1706 55.8843C61.3116 55.8138 61.4525 55.6729 61.5934 55.5319C61.6639 55.391 61.7344 55.2501 61.7344 55.0386C61.7344 54.8272 61.6639 54.6158 61.523 54.4749C61.382 54.3339 61.1706 54.2634 60.9592 54.2634C60.7478 54.2634 60.5364 54.3339 60.3954 54.4749C60.0431 54.6158 59.9021 54.7568 59.9021 54.9682Z" fill="#C1D6DB"/>
<path d="M28.6792 28.0479C30.4696 28.0479 31.9209 26.5965 31.9209 24.8062C31.9209 23.0158 30.4696 21.5645 28.6792 21.5645C26.8889 21.5645 25.4375 23.0158 25.4375 24.8062C25.4375 26.5965 26.8889 28.0479 28.6792 28.0479Z" fill="#C1D6DB"/>
<path d="M35.0211 65.6096H22.2656V78.3651H35.0211V65.6096Z" fill="#C1D6DB"/>
<path d="M36.5711 56.5891L28.6782 67.3008L20.7148 56.5891C24.8022 52.0788 27.0573 24.1014 27.0573 24.1014L28.6782 45.5249L30.2286 23.749C30.1581 23.749 32.8361 48.5552 36.5711 56.5891Z" fill="#C1D6DB"/>
<path d="M49.964 10.3593C71.8104 10.3593 89.5694 28.1183 89.5694 49.9647C89.5694 71.811 71.8104 89.57 49.964 89.57C28.1176 89.57 10.3587 71.811 10.3587 49.9647C10.3587 28.1183 28.1176 10.3593 49.964 10.3593ZM49.964 8.87939C27.272 8.87939 8.94922 27.2726 8.94922 49.8942C8.94922 72.5158 27.3425 90.909 49.964 90.909C72.5856 90.909 90.9788 72.5158 90.9788 49.8942C90.9788 27.2726 72.5856 8.87939 49.964 8.87939Z" fill="#C1D6DB"/>
</svg>
