<svg width="100" height="100" viewBox="0 0 100 100" fill="none" xmlns="http://www.w3.org/2000/svg">
<path d="M50 1.41044C76.7983 1.41044 98.5896 23.2017 98.5896 50C98.5896 76.7983 76.7983 98.5896 50 98.5896C23.2017 98.5896 1.41044 76.7278 1.41044 50C1.41044 23.2722 23.2017 1.41044 50 1.41044ZM50 0C22.3554 0 0 22.3554 0 50C0 77.6446 22.3554 100 50 100C77.6446 100 100 77.6446 100 50C100 22.3554 77.5741 0 50 0Z" fill="#93AEB6"/>
<path d="M49.9988 3.73769C75.4572 3.73769 96.1906 24.4711 96.1906 49.9295C96.1906 75.3879 75.4572 96.1213 49.9988 96.1213C24.5404 96.1213 3.73647 75.4584 3.73647 50C3.73647 24.5416 24.4699 3.73769 49.9988 3.73769ZM49.9988 3.03247C24.0468 3.03247 3.03125 24.048 3.03125 50C3.03125 75.9521 24.0468 96.8971 49.9283 96.8971C75.8098 96.8971 96.8253 75.8816 96.8253 50C96.8253 24.1185 75.8803 3.03247 49.9988 3.03247Z" fill="#93AEB6"/>
<path d="M17.8375 26.5869L19.1774 30.8182H23.5498L20.0237 33.357L21.3636 37.5178L17.8375 34.979L14.2409 37.5178L15.6513 33.357L12.0547 30.8182H16.427L17.8375 26.5869Z" fill="#93AEB6"/>
<path d="M30.814 11.7773L32.154 15.9381H36.5263L33.0002 18.5474L34.3401 22.7082L30.814 20.0989L27.2879 22.7082L28.6279 18.5474L25.0312 15.9381H29.4741L30.814 11.7773Z" fill="#93AEB6"/>
<path d="M49.9937 7.40503L51.3336 11.5658H55.706L52.1799 14.1046L53.5198 18.3359L49.9937 15.7266L46.3971 18.3359L47.8076 14.1046L44.2109 11.5658H48.6538L49.9937 7.40503Z" fill="#93AEB6"/>
<path d="M82.1576 26.5869L83.568 30.8182H87.9404L84.3438 33.357L85.7542 37.5178L82.1576 34.979L78.6315 37.5178L79.9714 33.357L76.4453 30.8182H80.8177L82.1576 26.5869Z" fill="#93AEB6"/>
<path d="M86.6695 44.7815L88.0094 48.9423H92.3818L88.8557 51.5516L90.1956 55.7124L86.6695 53.1031L83.0729 55.7124L84.4833 51.5516L80.8867 48.9423H85.2591L86.6695 44.7815Z" fill="#93AEB6"/>
<path d="M81.8023 62.9761L83.1422 67.2074H87.5146L83.9885 69.7462L85.3284 73.907L81.8023 71.3682L78.2762 73.907L79.6161 69.7462L76.0195 67.2074H80.4624L81.8023 62.9761Z" fill="#93AEB6"/>
<path d="M67.6969 76.1636L69.0368 80.3244H73.4091L69.883 82.8631L71.2229 87.0945L67.6969 84.4851L64.1002 87.0945L65.4402 82.8631L61.9141 80.3244H66.2864L67.6969 76.1636Z" fill="#93AEB6"/>
<path d="M49.9937 81.594L51.3336 85.7548H55.706L52.1799 88.3641L53.5198 92.5249L49.9937 89.9861L46.3971 92.5249L47.8076 88.3641L44.2109 85.7548H48.6538L49.9937 81.594Z" fill="#93AEB6"/>
<path d="M32.3687 75.9524L33.7086 80.1132H38.081L34.5549 82.7225L35.8948 86.8833L32.3687 84.274L28.7721 86.8833L30.1826 82.7225L26.5859 80.1132H31.0288L32.3687 75.9524Z" fill="#93AEB6"/>
<path d="M18.3334 62.7649L19.6733 66.9962H24.1162L20.5195 69.535L21.93 73.6958L18.3334 71.157L14.8073 73.6958L16.1472 69.535L12.6211 66.9962H16.9935L18.3334 62.7649Z" fill="#93AEB6"/>
<path d="M13.4664 44.7112L14.8063 48.9425H19.1787L15.6526 51.4813L16.9925 55.6421L13.4664 53.1033L9.86977 55.6421L11.2802 51.4813L7.68359 48.9425H12.1265L13.4664 44.7112Z" fill="#93AEB6"/>
<path d="M69.1771 11.7773L70.517 16.0087H74.9599L71.3633 18.5474L72.7737 22.7082L69.1771 20.1694L65.651 22.7082L66.9909 18.5474L63.4648 16.0087H67.8372L69.1771 11.7773Z" fill="#93AEB6"/>
<path d="M41.0363 35.9663V39.2103H40.7542L37.9333 35.9663H35.3945V43.5121H37.9333V39.9155L41.0363 43.5121H43.5751V35.9663H41.0363Z" fill="#93AEB6"/>
<path d="M49.3574 41.0437H44.7734V41.89H49.3574V41.0437Z" fill="#93AEB6"/>
<path d="M47.1005 36.6011C45.8311 36.6011 44.8438 37.3768 44.8438 38.3641C44.8438 39.3514 45.8311 40.1272 47.1005 40.1272C48.3698 40.1272 49.3571 39.3514 49.3571 38.3641C49.3571 37.3768 48.2993 36.6011 47.1005 36.6011ZM47.1005 39.422C46.6773 39.422 46.2542 38.9283 46.2542 38.3641C46.2542 37.7999 46.6068 37.3063 47.1005 37.3063C47.5941 37.3063 47.9467 37.7999 47.9467 38.3641C47.9467 38.9283 47.5236 39.422 47.1005 39.422Z" fill="#93AEB6"/>
<path d="M51.7601 26.3755L51.478 26.9397C50.9844 27.927 49.9971 28.5617 48.8687 28.5617H47.0352V30.9594H50.3497V43.5123H57.2608V26.3755H51.7601Z" fill="#93AEB6"/>
<path d="M43.8576 48.2375L40.4726 53.033V48.2375H37.8633V56.7707H40.4726L43.8576 51.9752V56.7707H46.5375V48.2375H43.8576Z" fill="#93AEB6"/>
<path d="M60.9962 48.2375H58.3164V56.7707H60.9962V48.2375Z" fill="#93AEB6"/>
<path d="M68.4024 48.2375H65.7931H65.0879H63.1133V56.7707H65.7931V54.0203H68.4024C69.8834 54.0203 71.1528 52.8215 71.1528 51.27V50.9879C71.1528 49.4364 69.9539 48.2375 68.4024 48.2375ZM67.5562 52.2573H65.7931V49.9301H67.5562C68.1909 49.9301 68.6845 50.4237 68.6845 51.0584C68.6845 51.6931 68.1909 52.2573 67.5562 52.2573Z" fill="#93AEB6"/>
<path d="M34.6915 59.3796H32.0822H31.377H29.4023V67.9128H32.0822V65.1624H34.6915C36.1724 65.1624 37.4418 63.9636 37.4418 62.4121V62.13C37.3713 60.5785 36.1724 59.3796 34.6915 59.3796ZM33.8452 63.3994H32.0822V61.0722H33.8452C34.4799 61.0722 34.9736 61.5658 34.9736 62.2005C34.9736 62.8352 34.4799 63.3994 33.8452 63.3994Z" fill="#93AEB6"/>
<path d="M54.012 51.3405H51.4732V49.7185H55.775V48.2375H51.4732H49.9923H48.6523V56.7707H49.9923H51.4732H54.012C55.493 56.7707 56.6213 55.5718 56.6213 54.1614V54.0203C56.6918 52.5394 55.493 51.3405 54.012 51.3405ZM53.3068 54.8666H52.39H51.4732V53.033H52.39H53.3068C53.8004 53.033 54.2236 53.4562 54.2236 53.9498C54.2236 54.4435 53.8004 54.8666 53.3068 54.8666Z" fill="#93AEB6"/>
<path d="M34.6911 52.3278H34.409C35.1848 52.0457 35.89 51.3405 35.89 50.4942V50.3532C35.89 49.1543 34.9027 48.2375 33.7744 48.2375H30.8124H30.1072H28.2031V56.7707H29.8251H30.8124H33.4923C34.8322 56.7707 36.2426 55.7834 36.2426 54.4435V53.8088C36.1016 53.033 35.4669 52.3278 34.6911 52.3278ZM30.7419 50.0006H31.5882H32.646C33.0691 50.0006 33.4217 50.3532 33.4217 50.7763C33.4217 51.1995 33.0691 51.5521 32.646 51.5521H31.5882H30.7419V50.0006ZM32.787 54.7256H31.6587H30.7419V53.033H31.6587H32.787C33.2807 53.033 33.6333 53.3856 33.6333 53.8793C33.6333 54.3024 33.2102 54.7256 32.787 54.7256Z" fill="#93AEB6"/>
<path d="M55.7053 68.0537H59.0198L55.2822 62.6235L58.5262 59.5205H55.4232L52.8139 62.2709H52.3908V59.5205H49.7109V68.0537H52.3908V65.4443L53.5191 64.3865L55.7053 68.0537Z" fill="#93AEB6"/>
<path d="M62.9697 64.951L60.0078 59.5913H62.8992L64.5212 63.2584L66.1432 59.5913H68.9641L65.579 66.5025C65.0854 67.4192 64.1686 68.0539 63.1108 68.0539H61.7003V66.3614H62.335C62.9697 66.4319 63.3929 65.7972 62.9697 64.951Z" fill="#93AEB6"/>
<path d="M43.5062 59.3796C40.4738 59.3796 38.7812 61.3543 38.7812 63.8225C38.7812 66.2908 40.4033 68.2654 43.5062 68.2654C46.5387 68.2654 48.2312 66.2908 48.2312 63.8225C48.2312 61.3543 46.5387 59.3796 43.5062 59.3796ZM43.5062 66.3613C42.1663 66.3613 41.6021 65.233 41.6021 63.8225C41.6021 62.4121 42.1663 61.2837 43.5062 61.2837C44.9167 61.2837 45.4103 62.4121 45.4103 63.8225C45.4103 65.233 44.9167 66.3613 43.5062 66.3613Z" fill="#93AEB6"/>
<path d="M55.7794 75.9523V77.0101H51.125C51.125 77.0101 51.125 76.8691 51.125 76.4459C51.125 76.0933 51.6187 75.7407 52.1123 75.3176C52.6765 74.8945 53.5933 74.1187 53.8754 73.9072C54.228 73.5546 54.4395 72.4262 53.3817 72.4262C52.3239 72.4262 52.4649 73.5546 52.4649 73.5546H51.1955C51.1955 73.5546 51.1955 73.2725 51.1955 72.8493C51.1955 72.4262 51.7597 71.2979 53.5933 71.2979C55.4268 71.2979 55.7089 72.9199 55.7089 73.1314C55.7089 73.343 55.6384 74.0482 54.6511 74.7534C53.6638 75.4586 52.9586 75.8818 53.0996 76.0228C53.5933 76.0228 55.7794 75.9523 55.7794 75.9523Z" fill="#93AEB6"/>
<path d="M44.9162 75.9523V77.0101H40.2617C40.2617 77.0101 40.2617 76.8691 40.2617 76.4459C40.2617 76.0933 40.7554 75.7407 41.249 75.3176C41.8132 74.8945 42.73 74.1187 43.0121 73.9072C43.3647 73.5546 43.5762 72.4262 42.5184 72.4262C41.4606 72.4262 41.6016 73.5546 41.6016 73.5546H40.3322C40.3322 73.5546 40.3322 73.2725 40.3322 72.8493C40.3322 72.4262 40.8964 71.2979 42.73 71.2979C44.5636 71.2979 44.8456 72.9199 44.8456 73.1314C44.8456 73.343 44.7751 74.0482 43.7878 74.7534C42.8005 75.4586 42.0953 75.8818 42.2363 76.0228C42.6595 76.0228 44.9162 75.9523 44.9162 75.9523Z" fill="#93AEB6"/>
<path d="M47.8778 71.2271C46.4674 71.2271 45.6211 72.4259 45.6211 74.189C45.6211 76.0931 46.4674 77.1509 47.8778 77.1509C49.4293 77.1509 50.1345 76.2341 50.1345 74.189C50.1345 72.4259 49.4998 71.2271 47.8778 71.2271ZM47.8778 76.0931C47.2431 76.0931 46.961 75.3878 46.961 74.189C46.961 73.0606 47.3136 72.2849 47.8778 72.2849C48.5125 72.2849 48.7946 73.0606 48.7946 74.189C48.8651 75.5289 48.583 76.0931 47.8778 76.0931Z" fill="#93AEB6"/>
<path d="M58.8817 71.2271C57.4713 71.2271 56.625 72.4259 56.625 74.189C56.625 76.0931 57.4713 77.1509 58.8817 77.1509C60.4332 77.1509 61.1384 76.2341 61.1384 74.189C61.1384 72.4259 60.4332 71.2271 58.8817 71.2271ZM58.8817 76.0931C58.247 76.0931 57.9649 75.3878 57.9649 74.189C57.9649 73.0606 58.3175 72.2849 58.8817 72.2849C59.5164 72.2849 59.7985 73.0606 59.7985 74.189C59.7985 75.5289 59.5164 76.0931 58.8817 76.0931Z" fill="#93AEB6"/>
</svg>
