<svg width="100" height="88" viewBox="0 0 100 88" fill="none" xmlns="http://www.w3.org/2000/svg">
<path d="M20.8906 17.3605C20.8906 17.3605 24.0663 12.7028 29.2181 14.2553C27.1009 18.7719 22.0198 17.7839 20.8906 17.3605Z" fill="#93AEB6"/>
<path d="M16.1602 20.5361C16.1602 20.5361 16.0897 15.9489 20.3945 13.9729C20.324 17.3603 18.9831 19.5481 16.1602 20.5361Z" fill="#93AEB6"/>
<path d="M16.1602 23.2179C16.1602 23.2179 18.4184 18.6308 23.9936 20.2539C21.1002 23.9236 18.983 24.2059 16.1602 23.2179Z" fill="#93AEB6"/>
<path d="M12.7039 18.772C12.7039 18.772 16.7265 23.0768 13.4097 28.3697C11.5748 25.9703 11.0102 22.23 12.7039 18.772Z" fill="#93AEB6"/>
<path d="M11.7148 32.0394C11.7148 32.0394 14.326 25.9703 19.8306 26.8171C18.6309 31.9689 13.1968 32.604 11.7148 32.0394Z" fill="#93AEB6"/>
<path d="M8.81886 36.8381C8.81886 36.8381 4.58456 30.9807 8.25428 25.335C10.936 28.793 11.3594 33.9447 8.81886 36.8381Z" fill="#93AEB6"/>
<path d="M8.67969 40.5786C8.67969 40.5786 9.94998 34.2271 16.3014 33.8743C14.7488 39.5906 11.6437 40.2257 8.67969 40.5786Z" fill="#93AEB6"/>
<path d="M8.32804 45.0245C8.32804 45.0245 1.83545 41.7782 2.89402 35.4268C6.56375 36.9793 8.82204 39.8022 8.32804 45.0245Z" fill="#93AEB6"/>
<path d="M8.96094 50.4586C8.96094 50.4586 9.8078 41.8489 15.383 40.5786C15.7358 45.1658 12.3484 49.7529 8.96094 50.4586Z" fill="#93AEB6"/>
<path d="M8.68033 55.0456C8.68033 55.0456 1.34088 53.0696 1.05859 45.0244C7.33947 46.7181 8.11576 50.7407 8.68033 55.0456Z" fill="#93AEB6"/>
<path d="M11.3622 60.4091C11.3622 60.4091 9.0333 53.0696 15.3847 48.2002C17.3608 54.4105 13.691 59.7739 11.3622 60.4091Z" fill="#93AEB6"/>
<path d="M10.9386 62.4559C10.9386 62.4559 7.76288 55.1164 0 57.0219C2.75229 63.8673 10.9386 62.4559 10.9386 62.4559Z" fill="#93AEB6"/>
<path d="M17.0088 69.4423C17.0088 69.4423 12.5628 61.5383 17.8557 54.6929C21.4548 60.1269 19.9728 66.9018 17.0088 69.4423Z" fill="#93AEB6"/>
<path d="M15.9469 70.7125C15.9469 70.7125 13.8298 62.6673 3.80859 64.4316C7.33718 70.7831 11.5715 70.7125 15.9469 70.7125Z" fill="#93AEB6"/>
<path d="M24.2054 74.5237C24.2054 74.5237 19.8299 65.6316 25.1934 59.7036C28.1574 66.1962 27.8751 70.5716 24.2054 74.5237Z" fill="#93AEB6"/>
<path d="M21.3104 76.9934C21.3104 76.9934 16.0881 71.136 8.04297 77.8403C11.6421 81.4395 17.8524 80.2397 21.3104 76.9934Z" fill="#93AEB6"/>
<path d="M31.1905 77.3462C31.1905 77.3462 26.674 68.0308 32.108 62.1733C34.5074 66.3371 35.2837 72.9002 31.1905 77.3462Z" fill="#93AEB6"/>
<path d="M30.912 81.6513C30.912 81.6513 24.6311 87.9322 17.6445 82.7099C21.3143 78.6873 27.1011 78.3344 30.912 81.6513Z" fill="#93AEB6"/>
<path d="M32.4608 78.6872C26.7445 76.8524 21.5222 73.5355 17.3585 68.8072C4.37332 53.9872 6.56104 30.7691 22.2985 16.9371C22.3691 16.8665 22.5102 16.7959 22.5808 16.6548C22.0162 17.0782 21.4517 17.5016 20.9576 17.9956C5.29075 31.8277 3.45588 55.328 16.7939 70.5009C20.9576 75.2292 26.1094 78.6167 31.7551 80.5927L32.4608 78.6872Z" fill="#93AEB6"/>
<path d="M79.1087 17.3605C79.1087 17.3605 75.933 12.7028 70.7812 14.2553C72.969 18.7719 77.9796 17.7839 79.1087 17.3605Z" fill="#93AEB6"/>
<path d="M83.9062 20.5361C83.9062 20.5361 83.9767 15.9489 79.6719 13.9729C79.6719 17.3603 81.0127 19.5481 83.9062 20.5361Z" fill="#93AEB6"/>
<path d="M83.9077 23.2179C83.9077 23.2179 81.6494 18.6308 76.0742 20.2539C78.8971 23.9236 81.0142 24.2059 83.9077 23.2179Z" fill="#93AEB6"/>
<path d="M87.2941 18.772C87.2941 18.772 83.2716 23.0768 86.5884 28.3697C88.4233 25.9703 88.9879 22.23 87.2941 18.772Z" fill="#93AEB6"/>
<path d="M88.2798 32.0394C88.2798 32.0394 85.6686 25.9703 80.1641 26.8171C81.3638 31.9689 86.7978 32.604 88.2798 32.0394Z" fill="#93AEB6"/>
<path d="M91.1779 36.8381C91.1779 36.8381 95.4122 30.9807 91.7425 25.335C89.0608 28.793 88.6373 33.9447 91.1779 36.8381Z" fill="#93AEB6"/>
<path d="M91.3874 40.5786C91.3874 40.5786 90.1171 34.2271 83.7656 33.8743C85.2476 39.5906 88.4234 40.2257 91.3874 40.5786Z" fill="#93AEB6"/>
<path d="M91.7384 45.0245C91.7384 45.0245 98.231 41.7782 97.1724 35.4268C93.4321 36.9793 91.1738 39.8022 91.7384 45.0245Z" fill="#93AEB6"/>
<path d="M91.1064 50.4586C91.1064 50.4586 90.2596 41.8489 84.6844 40.5786C84.261 45.1658 87.6484 49.7529 91.1064 50.4586Z" fill="#93AEB6"/>
<path d="M91.3867 55.0456C91.3867 55.0456 98.7262 53.0696 99.0085 45.0244C92.7276 46.7181 91.8807 50.7407 91.3867 55.0456Z" fill="#93AEB6"/>
<path d="M88.6374 60.4091C88.6374 60.4091 90.9662 53.0696 84.6148 48.2002C82.6388 54.4105 86.3085 59.7739 88.6374 60.4091Z" fill="#93AEB6"/>
<path d="M89.0586 62.4559C89.0586 62.4559 92.2343 55.1164 99.9972 57.0219C97.3155 63.8673 89.0586 62.4559 89.0586 62.4559Z" fill="#93AEB6"/>
<path d="M82.991 69.4423C82.991 69.4423 87.437 61.5383 82.1441 54.6929C78.545 60.1269 80.027 66.9018 82.991 69.4423Z" fill="#93AEB6"/>
<path d="M84.0469 70.7127C84.0469 70.7127 86.164 62.6676 96.1852 64.4318C92.7272 70.7833 88.4929 70.7127 84.0469 70.7127Z" fill="#93AEB6"/>
<path d="M75.8599 74.5237C75.8599 74.5237 80.2354 65.6316 74.8719 59.7036C71.9079 66.1962 72.1902 70.5716 75.8599 74.5237Z" fill="#93AEB6"/>
<path d="M78.6836 76.9934C78.6836 76.9934 83.9059 71.136 91.9511 77.8403C88.3519 81.4395 82.2122 80.2397 78.6836 76.9934Z" fill="#93AEB6"/>
<path d="M68.8039 77.3462C68.8039 77.3462 73.3205 68.0308 67.8864 62.1733C65.487 66.3371 64.7107 72.9002 68.8039 77.3462Z" fill="#93AEB6"/>
<path d="M69.0859 81.6513C69.0859 81.6513 75.3668 87.9322 82.3534 82.7099C78.6837 78.6873 72.9674 78.3344 69.0859 81.6513Z" fill="#93AEB6"/>
<path d="M67.5352 78.6872C73.2515 76.8524 78.4738 73.5355 82.6375 68.8072C95.6932 53.9872 93.5055 30.7691 77.768 16.9371C77.6975 16.8665 77.5563 16.7959 77.4858 16.6548C78.0503 17.0782 78.6149 17.5016 79.1089 17.9956C94.7758 31.7571 96.6107 55.2575 83.2726 70.4304C79.1089 75.1587 73.9572 78.5461 68.3114 80.5221L67.5352 78.6872Z" fill="#93AEB6"/>
<path d="M34.9351 38.1794C35.6408 38.3205 36.0642 38.5323 36.3465 38.744C36.7699 39.0263 36.9111 39.4497 36.9111 39.9437C36.9111 40.5083 36.6994 40.9317 36.2759 41.2846C35.7819 41.708 35.0056 41.9197 33.9471 41.9197H30.3479V41.708C30.7008 41.708 30.9125 41.708 30.9831 41.6374C31.0536 41.5668 31.1948 41.4963 31.1948 41.4257C31.2653 41.3551 31.2653 41.0728 31.2653 40.72V36.1328C31.2653 35.78 31.2653 35.4977 31.1948 35.4271C31.1242 35.3565 31.0536 35.2154 30.9125 35.2154C30.7713 35.2154 30.5596 35.1448 30.2773 35.1448V34.9331H33.6648C34.5116 34.9331 35.0762 35.0037 35.3585 35.1448C35.7114 35.286 35.9936 35.4977 36.1348 35.78C36.3465 36.0623 36.4171 36.3445 36.4171 36.6974C36.4171 37.0503 36.2759 37.3325 36.0642 37.6148C35.9936 37.8265 35.4996 38.0383 34.9351 38.1794ZM33.0296 38.4617V40.72V41.0023C33.0296 41.214 33.1002 41.3551 33.1708 41.4257C33.2414 41.4963 33.3825 41.5668 33.5942 41.5668C33.8765 41.5668 34.1588 41.4963 34.3705 41.3551C34.5822 41.214 34.7939 41.0728 34.9351 40.7906C35.0762 40.5083 35.1468 40.2965 35.1468 40.0143C35.1468 39.6614 35.0762 39.3791 34.9351 39.0968C34.7939 38.8145 34.5822 38.6734 34.2999 38.5323C33.9471 38.4617 33.5236 38.4617 33.0296 38.4617ZM33.0296 38.0383C33.5236 38.0383 33.8765 37.9677 34.1588 37.8971C34.3705 37.756 34.5822 37.6148 34.7234 37.4031C34.8645 37.1914 34.9351 36.9091 34.9351 36.6268C34.9351 36.3445 34.8645 36.0623 34.7234 35.8505C34.5822 35.6388 34.4411 35.4977 34.1588 35.4271C33.9471 35.3565 33.5942 35.286 33.0296 35.286V38.0383Z" fill="#93AEB6"/>
<path d="M43.9687 35.9915C43.9687 35.6386 43.8981 35.3563 43.8275 35.2152C43.7569 35.0741 43.5452 35.0035 43.1924 35.0035H42.9807V34.7918H46.7915V35.0035H46.5798C46.2269 35.0035 46.0152 35.0741 45.9447 35.2152C45.8035 35.3563 45.8035 35.6386 45.8035 36.0621V40.7198C45.8035 41.1432 45.8741 41.4255 45.9447 41.5666C46.0858 41.7078 46.2975 41.7784 46.5798 41.7784H46.7915V41.9901H42.9807V41.7784H43.1924C43.5452 41.7784 43.7569 41.7078 43.8275 41.5666C43.8981 41.4255 43.9687 41.1432 43.9687 40.7198V36.8383L41.4986 40.7904C41.4986 41.1432 41.5692 41.3549 41.6398 41.4961C41.7104 41.6372 41.9221 41.7078 42.3455 41.7078H42.5572V41.9195H38.7464V41.7078H38.9581C39.3109 41.7078 39.5226 41.6372 39.5932 41.4961C39.6638 41.3549 39.7344 41.0726 39.7344 40.6492V35.9915C39.7344 35.5681 39.6638 35.2858 39.5932 35.1446C39.5226 35.0035 39.3109 34.9329 38.8875 34.9329H38.6758V34.7212H42.4867V34.9329H42.2749C41.9221 34.9329 41.7104 35.0035 41.6398 35.1446C41.4986 35.2858 41.4986 35.5681 41.4986 35.9209V39.8023L43.9687 35.9915Z" fill="#93AEB6"/>
<path d="M48.4141 34.8623H54.5538V36.7677H54.3421C54.2715 36.4149 54.1304 36.1326 53.9892 35.9209C53.8481 35.7092 53.6364 35.568 53.4246 35.4269C53.2129 35.2857 52.8601 35.2857 52.4366 35.2857H51.1664V38.038H52.0838C53.0718 38.038 53.8481 38.2497 54.2715 38.6026C54.6949 38.9555 54.9772 39.4495 54.9772 40.014C54.9772 40.4375 54.8361 40.7903 54.6244 41.0726C54.4127 41.3549 54.1304 41.5666 53.7775 41.7078C53.4246 41.8489 52.9306 41.9195 52.2249 41.9195H48.4141V41.7078C48.8375 41.7078 49.1198 41.6372 49.2609 41.5666C49.4021 41.4255 49.4726 41.2138 49.4726 40.8609V35.9914C49.4726 35.568 49.4021 35.3563 49.2609 35.2152C49.1198 35.074 48.8375 35.0034 48.4141 35.0034V34.8623ZM51.0958 38.532V40.6492C51.0958 41.002 51.1664 41.2137 51.2369 41.3549C51.3075 41.496 51.5192 41.5666 51.7309 41.5666C52.1544 41.5666 52.4366 41.4255 52.6484 41.1432C52.8601 40.8609 52.9306 40.508 52.9306 40.0846C52.9306 39.6612 52.8601 39.3789 52.6484 39.0966C52.4366 38.8143 52.2249 38.6732 52.0132 38.6026C51.8721 38.532 51.5192 38.532 51.0958 38.532Z" fill="#93AEB6"/>
<path d="M60.4825 41.7078V41.9195H56.7422V41.7078H56.9539C57.1656 41.7078 57.3068 41.6372 57.4479 41.5666C57.5185 41.4961 57.589 41.4255 57.6596 41.2843C57.7302 41.2138 57.7302 41.0021 57.7302 40.6492V35.9915C57.7302 35.6386 57.7302 35.4269 57.6596 35.2858C57.589 35.2152 57.5185 35.1446 57.4479 35.074C57.3773 35.0035 57.1656 35.0035 56.9539 35.0035H56.7422V34.7917H60.4825V35.0035H60.2708C60.0591 35.0035 59.9179 35.074 59.7768 35.1446C59.7062 35.2152 59.6356 35.2858 59.5651 35.4269C59.4945 35.4975 59.4945 35.7092 59.4945 36.062V40.7198C59.4945 41.0726 59.4945 41.2843 59.5651 41.4255C59.6356 41.4961 59.7062 41.5666 59.7768 41.6372C59.9179 41.7078 60.0591 41.7078 60.2708 41.7078H60.4825Z" fill="#93AEB6"/>
<path d="M64.9278 38.744V40.72C64.9278 41.0728 64.9278 41.3551 64.9984 41.4257C65.069 41.4963 65.1395 41.6374 65.2807 41.6374C65.4218 41.708 65.6335 41.708 65.9158 41.708V41.9197H62.3167V41.708C62.6695 41.708 62.8812 41.708 62.9518 41.6374C63.093 41.5668 63.1635 41.4963 63.1635 41.4257C63.1635 41.3551 63.2341 41.0728 63.2341 40.72V36.1328C63.2341 35.78 63.2341 35.4977 63.1635 35.4271C63.093 35.3565 63.0224 35.2154 62.8812 35.2154C62.7401 35.2154 62.5284 35.1448 62.2461 35.1448V34.9331H65.3512C66.3392 34.9331 67.1155 35.1448 67.539 35.4977C67.9624 35.8505 68.1741 36.3445 68.1741 36.8385C68.1741 37.3325 68.033 37.6854 67.7507 38.0383C67.4684 38.3911 67.045 38.6028 66.551 38.6734C66.3393 38.6734 65.7747 38.744 64.9278 38.744ZM64.9278 35.2154V38.25C65.069 38.25 65.1395 38.25 65.2101 38.25C65.6335 38.25 65.9864 38.1088 66.1981 37.8971C66.4098 37.6148 66.551 37.262 66.551 36.6974C66.551 36.2034 66.4098 35.78 66.1981 35.5683C65.9864 35.3565 65.6335 35.2154 65.1395 35.2154H64.9278Z" fill="#93AEB6"/>
<path d="M26.1835 47.2122H28.5829V47.4239C28.3712 47.4239 28.1595 47.565 28.0184 47.7062C27.8772 47.8473 27.6655 48.2002 27.3832 48.6942L25.1249 52.9285C24.7721 53.6342 24.4898 54.0576 24.2075 54.1988C23.9252 54.3399 23.6429 54.4105 23.2901 54.4105C22.9372 54.4105 22.6549 54.3399 22.4432 54.1282C22.2315 53.9165 22.1609 53.7048 22.1609 53.4225C22.1609 53.2108 22.2315 53.0696 22.3726 52.9285C22.5138 52.7873 22.6549 52.7168 22.8666 52.7168C23.0783 52.7168 23.2195 52.7873 23.2901 52.8579C23.3606 52.9285 23.4312 53.1402 23.5018 53.3519C23.5723 53.6342 23.6429 53.7753 23.8546 53.7753C24.0663 53.7753 24.3486 53.5636 24.5603 53.0696L24.7015 52.9285L22.1609 48.3413C21.9492 47.9885 21.7375 47.7062 21.5963 47.565C21.4552 47.4239 21.1729 47.3533 20.8906 47.3533V47.1416H24.4192V47.3533H24.2781C23.8546 47.3533 23.6429 47.4239 23.6429 47.6356C23.6429 47.7062 23.7135 47.8473 23.7841 47.9885L25.5484 51.2348L26.8892 48.6236C27.1009 48.2707 27.1715 47.9885 27.1715 47.8473C27.1715 47.7062 27.1009 47.6356 27.0304 47.565C26.8892 47.4945 26.6775 47.4239 26.1835 47.4239V47.2122Z" fill="#93AEB6"/>
<path d="M30.2073 47.2122H33.877V47.4239H33.7359C33.383 47.4239 33.1713 47.4945 33.0302 47.6356C32.889 47.7767 32.889 47.9885 32.889 48.3413V50.4585C33.383 50.4585 33.6653 50.4585 33.8064 50.3879C33.9476 50.3173 34.0887 50.2468 34.2299 50.1056C34.371 49.9645 34.4416 49.6116 34.5827 49.1882C34.7239 48.6236 34.865 48.2707 35.0062 47.9885C35.1473 47.7062 35.2884 47.4945 35.5002 47.3533C35.7119 47.2122 35.9942 47.1416 36.347 47.1416C36.6999 47.1416 36.9822 47.2122 37.1233 47.4239C37.2645 47.6356 37.4056 47.8473 37.4056 48.1296C37.4056 48.3413 37.335 48.4825 37.1939 48.6236C37.0527 48.7647 36.9116 48.8353 36.6999 48.8353C36.2765 48.8353 36.0647 48.6236 36.0647 48.1296C36.0647 47.9179 35.9942 47.7767 35.853 47.7767C35.7119 47.7767 35.5707 47.8473 35.4296 48.059C35.2884 48.2707 35.2179 48.553 35.0767 49.047C34.9356 49.4705 34.865 49.8233 34.7239 50.035C34.6533 50.2468 34.5122 50.4585 34.371 50.5996C34.5827 50.6702 34.7944 50.7408 34.865 50.8113C35.0062 50.8819 35.0767 51.023 35.2179 51.1642C35.359 51.3053 35.5002 51.6582 35.853 52.2933L36.5587 53.5636C36.6999 53.7753 36.7705 53.9165 36.9822 53.987C37.1939 54.0576 37.335 54.1282 37.5467 54.1282V54.3399H35.1473L33.6653 51.5876C33.5242 51.3053 33.383 51.0936 33.3124 51.023C33.2419 50.9525 33.1007 50.9525 32.8184 50.8819V53.2813C32.8184 53.6342 32.889 53.8459 33.0302 53.9165C33.1713 53.987 33.4536 54.0576 33.8064 54.0576V54.2693H30.1367V54.0576C30.5601 54.0576 30.8424 53.987 30.913 53.8459C31.0541 53.7048 31.1247 53.493 31.1247 53.1402V48.4119C31.1247 47.9885 31.0542 47.7062 30.9836 47.565C30.913 47.4239 30.6307 47.3533 30.2779 47.3533H30.1367V47.2122H30.2073Z" fill="#93AEB6"/>
<path d="M41.92 51.0938V53.0698C41.92 53.4227 41.92 53.705 41.9906 53.7755C42.0611 53.8461 42.1317 53.9873 42.2729 53.9873C42.414 53.9873 42.6257 54.0578 42.908 54.0578V54.2696H39.3089V54.0578C39.6617 54.0578 39.8734 54.0578 39.944 53.9873C40.0851 53.9167 40.1557 53.8461 40.1557 53.7755C40.2263 53.705 40.2263 53.4227 40.2263 53.0698V48.4827C40.2263 48.1298 40.2263 47.8475 40.1557 47.777C40.0851 47.7064 40.0146 47.5652 39.8734 47.5652C39.7323 47.5652 39.5206 47.4947 39.2383 47.4947V47.283H42.3434C43.3314 47.283 44.1077 47.4947 44.5312 47.8475C44.9546 48.2004 45.1663 48.6944 45.1663 49.1884C45.1663 49.6824 45.0252 50.0353 44.7429 50.3881C44.4606 50.741 44.0372 50.9527 43.5432 51.0233C43.2609 51.0233 42.6963 51.0938 41.92 51.0938ZM41.92 47.5652V50.5998C42.0611 50.5998 42.1317 50.5998 42.2023 50.5998C42.6257 50.5998 42.9786 50.4587 43.1903 50.247C43.402 49.9647 43.5432 49.6118 43.5432 49.0472C43.5432 48.5532 43.402 48.1298 43.1903 47.9181C42.9786 47.7064 42.6257 47.5652 42.1317 47.5652H41.92Z" fill="#93AEB6"/>
<path d="M49.9689 52.2933H47.4989L47.2166 52.999C47.1461 53.2108 47.0755 53.4225 47.0755 53.5636C47.0755 53.7753 47.1461 53.9165 47.2872 53.987C47.3578 54.0576 47.6401 54.0576 47.9929 54.1282V54.3399H45.6641V54.1282C45.9463 54.0576 46.1581 53.987 46.2992 53.8459C46.4404 53.7048 46.6521 53.3519 46.9344 52.7873L49.4749 47.1416H49.4044L51.9449 52.9285C52.1567 53.493 52.3684 53.8459 52.5801 53.987C52.7212 54.1282 52.8624 54.1282 53.0741 54.1988V54.4105H49.6161V54.1988H49.7572C50.0395 54.1988 50.2512 54.1282 50.3218 54.0576C50.3924 53.987 50.4629 53.9165 50.4629 53.8459C50.4629 53.7753 50.4629 53.7048 50.4629 53.6342C50.4629 53.6342 50.3924 53.493 50.3218 53.2108L49.9689 52.2933ZM49.7572 51.8699L48.6986 49.3999L47.6401 51.8699H49.7572Z" fill="#93AEB6"/>
<path d="M58.4317 54.0578V54.2695H54.6914V54.0578H54.9031C55.1148 54.0578 55.256 53.9872 55.3971 53.9167C55.4677 53.8461 55.5383 53.7755 55.6088 53.6344C55.6794 53.5638 55.6794 53.3521 55.6794 52.9992V48.3415C55.6794 47.9887 55.6794 47.7769 55.6088 47.6358C55.5383 47.5652 55.4677 47.4946 55.3971 47.4241C55.3266 47.3535 55.1148 47.3535 54.9031 47.3535H54.6914V47.1418H58.4317V47.3535H58.22C58.0083 47.3535 57.8671 47.4241 57.726 47.4947C57.6554 47.5652 57.5848 47.6358 57.5143 47.7769C57.4437 47.8475 57.4437 48.0592 57.4437 48.4121V53.0698C57.4437 53.4227 57.4437 53.6344 57.5143 53.7755C57.5848 53.8461 57.6554 53.9167 57.726 53.9872C57.8671 54.0578 58.0083 54.0578 58.22 54.0578H58.4317ZM55.6088 45.0952C55.8206 45.0952 55.9617 45.1658 56.1028 45.3069C56.244 45.4481 56.3146 45.5892 56.3146 45.8009C56.3146 46.0126 56.244 46.1538 56.1028 46.2949C55.9617 46.4361 55.8206 46.5066 55.6088 46.5066C55.3971 46.5066 55.256 46.4361 55.1148 46.2949C54.9737 46.1538 54.9031 46.0126 54.9031 45.8009C54.9031 45.5892 54.9737 45.4481 55.1148 45.3069C55.256 45.1658 55.3971 45.0952 55.6088 45.0952ZM57.5848 45.0952C57.7966 45.0952 57.9377 45.1658 58.0788 45.3069C58.22 45.4481 58.2906 45.5892 58.2906 45.8009C58.2906 46.0126 58.22 46.1538 58.0788 46.2949C57.9377 46.4361 57.7966 46.5066 57.5848 46.5066C57.3731 46.5066 57.232 46.4361 57.0908 46.2949C56.9497 46.1538 56.8791 46.0126 56.8791 45.8009C56.8791 45.5892 56.9497 45.4481 57.0908 45.3069C57.232 45.1658 57.3731 45.0952 57.5848 45.0952Z" fill="#93AEB6"/>
<path d="M62.8812 50.8819V53.0696C62.8812 53.4225 62.8812 53.6342 62.9518 53.7753C63.0223 53.8459 63.0929 53.9165 63.1635 53.987C63.3046 54.0576 63.4458 54.0576 63.6575 54.0576H63.8692V54.2693H60.1289V54.0576H60.3406C60.5523 54.0576 60.6935 53.987 60.8346 53.9165C60.9052 53.8459 60.9758 53.7753 61.0463 53.6342C61.1169 53.5636 61.1169 53.3519 61.1169 52.999V48.3413C61.1169 47.9885 61.1169 47.7767 61.0463 47.6356C60.9758 47.565 60.9052 47.4945 60.8346 47.4239C60.6935 47.3533 60.5523 47.3533 60.3406 47.3533H60.1289V47.1416H63.8692V47.3533H63.6575C63.4458 47.3533 63.3046 47.4239 63.1635 47.4945C63.0929 47.565 63.0223 47.6356 62.9518 47.7767C62.8812 47.8473 62.8812 48.059 62.8812 48.4119V50.3879H65.3512V48.4119C65.3512 48.059 65.3512 47.8473 65.2806 47.7062C65.2101 47.6356 65.1395 47.565 65.0689 47.4945C64.9983 47.4239 64.7866 47.4239 64.5749 47.4239H64.3632V47.2122H68.0329V47.4239H67.8212C67.6095 47.4239 67.4684 47.4945 67.3272 47.565C67.2566 47.6356 67.1861 47.7062 67.1155 47.8473C67.0449 47.9179 67.0449 48.1296 67.0449 48.4825V53.1402C67.0449 53.493 67.0449 53.7048 67.1155 53.8459C67.1861 53.9165 67.2566 53.987 67.3272 54.0576C67.4684 54.1282 67.6095 54.1282 67.8212 54.1282H68.0329V54.3399H64.3632V54.1282H64.5749C64.7866 54.1282 64.9278 54.0576 65.0689 53.987C65.1395 53.9165 65.2101 53.8459 65.2806 53.7048C65.3512 53.6342 65.3512 53.4225 65.3512 53.0696V50.8819H62.8812Z" fill="#93AEB6"/>
<path d="M75.0194 48.3416C75.0194 47.9887 74.9489 47.7064 74.8783 47.5653C74.8077 47.4242 74.596 47.3536 74.2431 47.3536H74.0314V47.1419H77.8423V47.3536H77.6306C77.2777 47.3536 77.066 47.4242 76.9954 47.5653C76.8543 47.7064 76.8543 47.9887 76.8543 48.4122V53.0699C76.8543 53.4933 76.9249 53.7756 76.9954 53.9167C77.1366 54.0579 77.3483 54.1285 77.6306 54.1285H77.8423V54.3402H74.0314V54.1285H74.2431C74.596 54.1285 74.8077 54.0579 74.8783 53.9167C74.9489 53.7756 75.0194 53.4933 75.0194 53.0699V49.1884L72.5494 53.1405C72.5494 53.4933 72.62 53.705 72.6906 53.8462C72.7611 53.9873 72.9729 54.0579 73.3963 54.0579H73.608V54.2696H69.7971V54.0579H70.0088C70.3617 54.0579 70.5734 53.9873 70.644 53.8462C70.7146 53.705 70.7851 53.4227 70.7851 52.9993V48.3416C70.7851 47.9182 70.7146 47.6359 70.644 47.4947C70.5734 47.3536 70.3617 47.283 69.9383 47.283H69.7266V47.0713H73.5374V47.283H73.3257C72.9729 47.283 72.7611 47.3536 72.6906 47.4947C72.5494 47.6359 72.5494 47.9182 72.5494 48.271V52.1524L75.0194 48.3416Z" fill="#93AEB6"/>
<path d="M50.0377 61.6089L50.9551 64.4318H53.8486L51.4491 66.196L52.3666 68.9483L50.0377 67.2546L47.6383 68.9483L48.5557 66.196L46.1562 64.4318H49.1203L50.0377 61.6089Z" fill="#93AEB6"/>
<path d="M59.7773 63.3027L60.2713 64.8553H61.8239L60.5536 65.7727L61.0476 67.2548L59.7773 66.3373L58.4364 67.2548L58.9304 65.7727L57.6602 64.8553H59.2833L59.7773 63.3027Z" fill="#93AEB6"/>
<path d="M40.2968 63.3027L40.7908 64.8553H42.3434L41.0731 65.7727L41.5671 67.2548L40.2968 66.3373L38.956 67.2548L39.45 65.7727L38.1797 64.8553H39.8028L40.2968 63.3027Z" fill="#93AEB6"/>
<path d="M44.1758 3.59918V17.5724H47.4221C47.4221 17.5724 47.7044 19.5484 49.6098 20.9598C49.6098 20.9598 49.8215 21.1715 49.9627 21.3832C50.1038 21.1715 50.3155 20.9598 50.3155 20.9598C52.221 19.5484 52.5032 17.5724 52.5032 17.5724H55.7495V3.59918C52.9972 5.01061 52.6444 8.11576 52.6444 8.11576L52.2209 12.2795C52.9972 12.2089 53.2795 12.8441 53.2795 12.8441C53.703 14.2555 52.0092 14.3261 52.0092 14.3261C50.8095 12.2795 50.5978 10.5858 50.5978 10.5858C50.3155 9.38605 50.6684 5.08118 50.6684 5.08118C50.9507 3.10518 49.9627 2.18774 49.9627 2.18774C49.9627 2.18774 48.9747 3.10518 49.2569 5.08118C49.2569 5.08118 49.6098 9.45662 49.3275 10.5858C49.3275 10.5858 49.1158 12.2795 47.9161 14.3261C47.9161 14.3261 46.2224 14.2555 46.6458 12.8441C46.6458 12.8441 46.9281 12.2089 47.7044 12.2795L47.2104 8.18633C47.3515 8.11576 46.9986 5.01061 44.1758 3.59918ZM54.8321 12.7735H54.2675C54.2675 12.7735 54.197 11.9972 53.2795 11.5032L53.6324 8.39805C53.6324 8.39805 53.9147 6.63376 54.8321 5.64575V12.7735ZM52.4327 15.2435C52.4327 15.2435 54.0558 15.1729 54.2675 13.6909H54.7615V16.5844H52.6444C52.6444 16.5844 52.6444 15.8081 52.4327 15.2435ZM50.5272 17.5724H51.5858C51.5858 17.5724 51.3035 18.8426 50.5272 19.5484V17.5724ZM50.5272 16.5844C50.6684 15.5258 51.4447 15.4552 51.4447 15.4552C51.6564 15.8081 51.7269 16.5844 51.7269 16.5844H50.5272ZM48.9747 14.5378C48.9747 14.5378 49.3981 13.8321 50.0332 12.1383C50.6684 13.8321 51.0918 14.5378 51.0918 14.5378C50.4567 14.6789 50.0332 15.1729 50.0332 15.1729C50.0332 15.1729 49.6098 14.6789 48.9747 14.5378ZM48.4806 17.5724H49.5392V19.5484C48.6924 18.8426 48.4806 17.5724 48.4806 17.5724ZM48.2689 16.5844C48.2689 16.5844 48.3395 15.7375 48.5512 15.4552C48.5512 15.4552 49.3275 15.5258 49.4687 16.5844H48.2689ZM45.2344 13.6909H45.7284C45.9401 15.1729 47.5632 15.2435 47.5632 15.2435C47.3515 15.8081 47.3515 16.5844 47.3515 16.5844H45.2344V13.6909ZM45.2344 5.64575C46.1518 6.63376 46.4341 8.39805 46.4341 8.39805L46.7869 11.5032C45.8695 11.9266 45.7989 12.7735 45.7989 12.7735H45.2344V5.64575Z" fill="#93AEB6"/>
<path d="M57.5143 1.62315V19.2661C57.5143 19.9012 57.1614 20.4658 56.5968 20.7481L50.1748 23.8532C50.1043 23.8532 50.1043 23.8532 50.0337 23.8532C49.9631 23.8532 49.9631 23.8532 49.8925 23.8532L43.4705 20.7481C42.906 20.4658 42.5531 19.9012 42.5531 19.2661V1.62315H57.5143ZM59.1374 0H40.8594V19.2661C40.8594 20.5363 41.5651 21.6655 42.6942 22.2301L49.1163 25.3352C49.3985 25.4764 49.6808 25.5469 49.9631 25.5469C50.2454 25.5469 50.5277 25.4764 50.81 25.3352L57.232 22.2301C58.3611 21.6655 59.0669 20.5363 59.0669 19.2661V0H59.1374Z" fill="#93AEB6"/>
<path d="M41.1413 84.5449C40.859 85.4623 40.5767 86.662 40.365 87.3678H33.5195V86.9443C34.437 86.0975 35.425 85.0389 36.2718 84.1215C37.5421 82.71 38.1067 81.5809 38.1067 80.24C38.1067 79.0403 37.5421 78.264 36.3424 78.264C35.3544 78.264 34.5781 78.9697 34.0135 79.746L33.5195 79.3226L34.5781 77.6994C35.1427 76.9937 36.1307 76.6409 37.1893 76.6409C38.883 76.6409 40.2944 77.77 40.2944 79.6755C40.2944 81.0163 39.8004 81.9337 38.0361 83.5569C37.401 84.192 36.413 85.0389 35.8484 85.6035C35.919 85.6035 38.6007 85.6035 38.6713 85.6035C39.7298 85.6035 39.9415 85.5329 40.5767 84.4743L41.1413 84.5449Z" fill="#93AEB6"/>
<path d="M45.8688 76.6409C48.7623 76.6409 49.6797 79.6755 49.6797 82.1455C49.6797 84.6155 48.7623 87.65 45.8688 87.65C42.9754 87.65 42.058 84.6155 42.058 82.1455C41.9874 79.6049 43.046 76.6409 45.8688 76.6409ZM45.7983 77.3466C44.6691 77.3466 44.3868 79.8166 44.3868 82.0043C44.3868 84.2626 44.7397 86.8032 45.8688 86.8032C46.998 86.8032 47.2803 84.3332 47.2803 82.0043C47.2803 79.6754 46.9274 77.3466 45.7983 77.3466Z" fill="#93AEB6"/>
<path d="M51.5156 87.3678V86.7326C53.2799 86.662 53.3505 86.4503 53.3505 85.2506V79.1109C53.3505 78.264 53.0682 78.1934 52.3625 78.1229L51.8685 78.0523V77.4877C53.1388 77.3466 54.6208 76.9937 55.6088 76.6409V85.2506C55.6088 86.5209 55.6794 86.662 57.4436 86.7326V87.3678H51.5156Z" fill="#93AEB6"/>
<path d="M63.2294 76.6409C65.1348 76.6409 66.3345 77.77 66.3345 79.252C66.3345 79.746 66.1934 80.1695 65.7699 80.5223C65.4876 80.734 65.1348 81.0163 64.4996 81.3692C65.6994 82.0043 66.7579 82.7806 66.7579 84.2626C66.7579 86.3798 64.6408 87.5089 62.9471 87.5089C60.6888 87.5089 59.2773 86.3798 59.2773 84.6155C59.2773 83.7686 59.7008 83.3452 59.9831 83.0629C60.3359 82.7806 61.0416 82.3572 61.5356 82.0749C60.5476 81.5103 59.7008 80.6635 59.7008 79.4637C59.7008 77.9817 61.1828 76.6409 63.2294 76.6409ZM63.2294 86.8738C64.1468 86.8738 64.7819 86.3092 64.7114 85.18C64.7114 83.9803 63.9351 83.4157 62.2414 82.5689C61.7473 82.9217 61.3239 83.6275 61.3239 84.5449C61.3239 86.0975 62.2414 86.8738 63.2294 86.8738ZM62.9471 77.3466C62.1002 77.3466 61.6768 77.9817 61.6768 78.8286C61.6768 79.9577 62.5236 80.5223 63.8645 81.0869C64.2879 80.734 64.4996 80.24 64.4996 79.3226C64.4996 77.77 63.6528 77.3466 62.9471 77.3466Z" fill="#93AEB6"/>
</svg>
