<svg width="100" height="114" viewBox="0 0 100 114" fill="none" xmlns="http://www.w3.org/2000/svg">
<path d="M5.17163 73.8781L5.49145 73.7182C5.65135 73.6382 5.89122 73.7182 6.05113 73.958L8.2099 77.6359L9.16935 77.0763L7.3304 73.8781C7.17049 73.6382 7.25044 73.3984 7.41035 73.3184L7.73017 73.1585C7.89008 73.0785 8.12994 73.1585 8.28985 73.3984L10.1288 76.5965L11.0883 76.0368L8.92949 72.3589C8.76958 72.1191 8.84953 71.8792 9.00944 71.7993L9.32926 71.6394C9.48917 71.5594 9.72903 71.6394 9.88894 71.8792L12.7673 76.7564C12.9272 76.9963 12.8473 77.2362 12.6873 77.3161L8.44976 79.7947C8.28985 79.8747 8.04999 79.7947 7.89008 79.5548L5.01172 74.6776C5.01172 74.1979 5.01172 73.958 5.17163 73.8781Z" fill="#586386"/>
<path d="M8.68189 68.601C8.76185 68.8409 8.68189 69.0807 8.44203 69.1607L3.80467 70.6798C3.64477 70.7598 3.4049 70.5999 3.32495 70.36L3.00513 69.4805C2.92518 69.2407 3.00513 69.0008 3.24499 68.9208L5.00399 68.3612L4.68417 67.3218C4.52426 66.7621 4.12449 66.4423 3.48486 66.2823L2.20559 65.8826C1.88577 65.8026 1.72586 65.5628 1.6459 65.3229L1.32609 64.2035C1.16618 64.0436 1.32609 63.9637 1.56595 64.0436L3.4049 64.6033C3.80467 64.7632 4.2844 64.9231 4.60422 65.5628C4.52426 65.083 4.84408 64.4434 5.08394 64.0436L6.20331 62.3646C6.36322 62.1247 6.52312 62.1247 6.60308 62.4445L6.9229 63.4839C7.00285 63.7238 6.9229 64.1236 6.84294 64.2835L6.0434 65.4828C5.72358 65.9625 5.48372 66.4423 5.72358 67.0819L6.0434 67.9614L7.88235 67.3218C8.04226 67.2418 8.28212 67.4017 8.36208 67.6416L8.68189 68.601Z" fill="#586386"/>
<path d="M0.0477288 57.4072C-0.192134 54.9286 0.447501 53.4095 2.52632 53.1696C4.60513 52.9298 5.56458 54.209 5.8844 56.7676C6.12426 59.2462 5.48463 60.7653 3.40581 61.0052C1.327 61.245 0.287592 59.8858 0.0477288 57.4072ZM3.16595 59.1662C4.36527 59.0063 5.0049 58.3667 4.76504 56.8475C4.60513 55.3284 3.88554 54.8487 2.68622 54.9286C1.48691 55.0885 0.847273 55.7282 1.08714 57.2473C1.24705 58.7664 1.96663 59.3261 3.16595 59.1662Z" fill="#586386"/>
<path d="M6.04267 44.0549L5.96272 45.0144C5.96272 45.2542 5.72285 45.4941 5.56295 45.4141L1.40532 44.9344L1.24541 46.1337C1.16545 46.7734 1.40532 47.333 1.88504 47.4929L5.08322 49.0121C5.32308 49.092 5.40304 49.4118 5.40304 49.6517L5.32308 50.6112C5.32308 50.851 5.16317 51.0109 4.92331 50.931L1.32536 49.2519C0.126046 48.6923 -0.0338631 47.2531 0.126046 45.8139L0.365909 43.3353C0.365909 43.0955 0.605772 42.9355 0.765681 42.9355L5.6429 43.4952C5.96272 43.6551 6.04267 43.815 6.04267 44.0549Z" fill="#586386"/>
<path d="M2.37058 35.6597C3.17013 33.2611 4.4494 32.2217 6.44826 32.8613C8.44712 33.5809 8.76694 35.18 7.96739 37.5786C7.16785 39.9772 5.88858 41.0166 3.88972 40.377C1.89086 39.6574 1.57104 38.0583 2.37058 35.6597ZM4.52935 38.618C5.64871 39.0178 6.52821 38.698 7.00794 37.2588C7.48767 35.8196 7.08789 35.0201 5.88858 34.7002C4.76922 34.3005 3.88972 34.6203 3.40999 36.0595C2.93026 37.4187 3.33004 38.2182 4.52935 38.618Z" fill="#586386"/>
<path d="M5.73352 28.9435C5.57362 28.7835 5.49366 28.5437 5.65357 28.3038L8.0522 24.2261C8.21211 23.9863 8.45197 23.9063 8.61188 23.9863L8.9317 24.1462C9.09161 24.2261 9.17156 24.546 9.01165 24.7059L7.33261 27.5842L10.9306 29.663C11.0905 29.743 11.1704 30.0628 11.0105 30.2227L10.5308 31.0223C10.3709 31.2621 10.131 31.3421 9.97111 31.2621L5.73352 28.9435Z" fill="#586386"/>
<path d="M10.5106 21.5077C10.3506 21.3478 10.3506 21.108 10.5106 20.9481L11.0702 20.2285C11.2301 19.9886 11.47 19.9886 11.6299 20.0686L15.4677 23.1068C15.6276 23.2667 15.6276 23.5066 15.4677 23.7465L14.9081 24.4661C14.7481 24.626 14.5083 24.7059 14.3484 24.626L10.5106 21.5077Z" fill="#586386"/>
<path d="M13.9583 17.3502C13.7983 17.1902 13.8783 16.9504 14.0382 16.7905L14.6778 16.1508C14.8378 15.9909 15.1576 15.9909 15.2375 16.1508L16.117 17.1103C16.5168 17.59 17.0765 17.5101 17.6362 17.0303L19.0753 15.7511L17.5562 14.072C17.3963 13.9121 17.4763 13.6723 17.6362 13.5123L18.2758 12.8727C18.4357 12.7128 18.7555 12.7128 18.9154 12.7928L22.1936 16.3907C22.3535 16.5506 22.2735 16.7905 22.1136 16.9504L21.474 17.59C21.3141 17.7499 20.9942 17.7499 20.9143 17.67L19.8749 16.5506L18.4357 17.8299C17.1564 19.0292 15.7972 19.429 14.8378 18.3096L13.9583 17.3502Z" fill="#586386"/>
<path d="M28.1888 10.3141L25.2305 11.9932L26.2699 13.7522C26.3498 13.9121 26.2699 14.152 26.03 14.3119L25.2305 14.7916C24.9906 14.9515 24.7508 14.8715 24.6708 14.7116L22.2722 10.4741C22.1922 10.3141 22.2722 10.0743 22.512 9.91437L23.3116 9.43464C23.5514 9.27473 23.7913 9.35469 23.8713 9.5146L24.7508 11.0337L27.7091 9.35469L26.8296 7.83556C26.7496 7.67565 26.8296 7.43578 27.0694 7.27587L27.869 6.79615C28.1088 6.63624 28.3487 6.71619 28.4287 6.8761L30.8273 11.1137C30.9072 11.2736 30.8273 11.5135 30.5874 11.6734L29.7879 12.1531C29.548 12.313 29.3082 12.233 29.2282 12.0731L28.1888 10.3141Z" fill="#586386"/>
<path d="M39.1485 8.63509C38.9086 8.71505 38.6687 8.63509 38.5888 8.39523L37.5494 4.87723L36.1901 9.11482C36.1102 9.35468 35.8703 9.59455 35.6305 9.6745L34.0314 10.1542C33.7915 10.2342 33.5517 10.1542 33.4717 9.91436L32.0325 5.19705C31.9526 5.03714 32.1125 4.79728 32.3523 4.71733L33.1519 4.47746C33.3917 4.39751 33.6316 4.47746 33.7116 4.71733L34.8309 8.47518L36.3501 3.99774C36.43 3.75787 36.6699 3.51801 36.9097 3.43806L38.3489 3.03828C38.5888 2.95833 38.8286 3.03828 38.9086 3.27815L40.3478 7.99546C40.4277 8.15537 40.2678 8.39523 40.028 8.47518L39.1485 8.63509Z" fill="#586386"/>
<path d="M48.9807 7.35581C48.7408 7.35581 48.501 7.1959 48.501 7.03599L48.2611 3.35809L45.9424 7.1959C45.7825 7.43576 45.5427 7.59567 45.2229 7.59567L43.6238 7.67562C43.3839 7.67562 43.144 7.51571 43.144 7.35581L42.8242 2.47859C42.8242 2.23872 42.9841 2.07881 43.224 2.07881L44.1035 1.99886C44.3434 1.99886 44.5832 2.15877 44.5832 2.31868L44.8231 6.23644L47.3017 2.15877C47.4616 1.91891 47.7014 1.759 47.9413 1.759L49.3805 1.67904C49.6203 1.67904 49.8602 1.83895 49.8602 1.99886L50.18 6.87608C50.18 7.11594 50.0201 7.27585 49.7803 7.27585L48.9807 7.35581ZM46.8219 0.239863C46.9019 0.159909 46.9819 0 47.1418 0H47.5415C47.7014 0 47.7814 0 47.8614 0.159909C47.9413 0.879498 47.3017 1.35922 46.2623 1.43918C45.3028 1.51913 44.5832 1.11936 44.5033 0.399772C44.5033 0.239863 44.5832 0.159909 44.7431 0.159909H45.1429C45.3028 0.159909 45.4627 0.239863 45.4627 0.319818C45.5427 0.479726 45.7825 0.559681 46.1024 0.559681C46.5821 0.559681 46.742 0.399772 46.8219 0.239863Z" fill="#586386"/>
<path d="M62.8792 3.43796L63.9186 3.75778C65.1979 4.15755 66.4772 5.03705 66.1574 6.15641C66.0774 6.47623 65.6776 6.47623 65.5177 6.47623L64.9581 6.31632C64.7182 6.23636 64.4783 6.07645 64.3984 5.67668C64.3184 5.27691 63.9986 4.95709 63.359 4.79718L62.4795 4.55732C61.1202 4.15755 60.5606 4.47737 60.2408 5.75664C59.9209 7.03591 60.1608 7.51563 61.6 7.9154L62.5594 8.15527C63.1191 8.31518 63.5988 8.15527 63.9186 7.83545C64.1585 7.59559 64.4783 7.51563 64.7182 7.59559L65.2779 7.7555C65.4378 7.7555 65.7576 7.99536 65.6776 8.31518C65.3578 9.43454 63.8387 9.59445 62.4795 9.27463L61.3601 8.95481C59.0414 8.31518 58.082 7.11586 58.5617 5.27691C59.1214 3.358 60.5606 2.79832 62.8792 3.43796Z" fill="#586386"/>
<path d="M75.7655 9.27472L75.6056 9.59454C75.5257 9.75445 75.2858 9.8344 75.0459 9.67449L71.2081 7.67563L70.7284 8.795L74.0065 10.474C74.2464 10.554 74.3263 10.8738 74.2464 11.0337L74.0865 11.3535C74.0065 11.5134 73.7667 11.5934 73.5268 11.4335L70.2487 9.75445L69.689 10.7939L73.4469 12.7128C73.6867 12.7927 73.7667 13.0326 73.6867 13.2724L73.5268 13.5923C73.4468 13.7522 73.207 13.8321 72.9671 13.6722L67.93 11.1137C67.6901 10.9538 67.6102 10.7139 67.6901 10.554L69.9289 6.23645C70.0088 6.07655 70.2487 5.99659 70.4885 6.1565L75.5257 8.71504C75.7655 8.87495 75.8455 9.11481 75.7655 9.27472Z" fill="#586386"/>
<path d="M82.1579 13.5923C83.5971 14.7916 83.9969 15.9909 83.1174 17.1902C82.1579 18.3896 80.8787 18.2297 79.4395 17.0303L77.6005 15.5112L77.0409 16.2308C76.881 16.3907 76.6411 16.3907 76.4812 16.2308L75.7616 15.6711C75.6017 15.5112 75.5217 15.2713 75.6017 15.1114L78.7199 11.3536C78.8798 11.1937 79.1197 11.1937 79.2796 11.3536L82.1579 13.5923ZM79.5994 12.9527L78.2402 14.6317L79.5994 15.7511C80.319 16.3907 81.0386 16.7105 81.5983 15.9909C82.1579 15.2713 81.7582 14.7117 80.9586 14.072L79.5994 12.9527Z" fill="#586386"/>
<path d="M90.7309 22.7069C90.8908 22.9467 90.8908 23.1866 90.7309 23.2666L90.4111 23.5064C90.2511 23.6663 90.0113 23.5864 89.8514 23.3465L88.4921 21.6675L85.294 24.306C85.1341 24.4659 84.8942 24.3859 84.7343 24.1461L84.1746 23.4265C84.0147 23.2666 84.0147 22.9467 84.1746 22.8668L87.3728 20.2283L86.0136 18.5492C85.8537 18.3094 85.8537 18.0695 86.0136 17.9896L86.3334 17.7497C86.4933 17.5898 86.7332 17.6697 86.8931 17.9096L90.7309 22.7069Z" fill="#586386"/>
<path d="M90.5548 33.7409C90.4748 33.501 90.4748 33.2612 90.7147 33.1812L93.9928 31.5022L89.5953 30.8625C89.3555 30.8625 89.0357 30.6227 88.9557 30.3828L88.2361 28.9436C88.1562 28.7038 88.1562 28.4639 88.3161 28.3839L92.7135 26.1452C92.8735 26.0653 93.1133 26.1452 93.2732 26.3851L93.673 27.1846C93.753 27.4245 93.753 27.6644 93.593 27.7443L90.0751 29.5033L94.8723 30.2229C95.1122 30.2229 95.432 30.4628 95.5119 30.6227L96.1516 31.9019C96.2315 32.1418 96.2315 32.3817 95.9917 32.4616L91.5942 34.7003C91.4343 34.7803 91.1944 34.7003 91.0345 34.4605L90.5548 33.7409Z" fill="#586386"/>
<path d="M98.9491 40.5369C99.0291 40.7768 98.8692 41.0167 98.7092 41.0966L98.3095 41.1766C98.7892 43.1754 98.5493 44.8545 96.9503 45.2542C95.2712 45.654 94.3118 44.2148 93.832 42.216L93.4323 42.2959C93.2724 42.3759 93.0325 42.216 92.9525 41.8962L92.7127 41.0167C92.6327 40.7768 92.7926 40.5369 92.9525 40.457L93.3523 40.377C92.8726 38.3782 93.1124 36.6991 94.7115 36.2993C96.3906 35.8996 97.35 37.3388 97.8298 39.3376L98.2295 39.2577C98.4694 39.1777 98.6293 39.3376 98.7092 39.6574L98.9491 40.5369ZM96.8703 39.6574C96.6304 38.5381 96.0708 37.8984 95.1913 38.1383C94.3917 38.2982 94.1518 39.1777 94.3917 40.2171L96.8703 39.6574ZM94.7915 41.9761C95.0313 43.0955 95.591 43.7351 96.4705 43.4952C97.2701 43.2554 97.5099 42.4558 97.2701 41.4164L94.7915 41.9761Z" fill="#586386"/>
<path d="M99.4353 48.0527C99.6752 48.0527 99.8351 48.2126 99.8351 48.4525L99.9151 49.332C99.9151 49.5719 99.7551 49.8117 99.5952 49.8117L94.718 50.0516C94.4781 50.0516 94.3182 49.8917 94.3182 49.5719L94.2383 48.6924C94.2383 48.4525 94.3982 48.2126 94.5581 48.2126L99.4353 48.0527Z" fill="#586386"/>
<path d="M94.4029 53.6493C94.4029 53.4095 94.6427 53.1696 94.8026 53.2496L99.6798 53.7293C99.9197 53.7293 99.9997 53.9692 99.9997 54.209L99.9197 55.1685C99.9197 55.4083 99.6799 55.6482 99.5199 55.5683L97.681 55.4083L97.601 56.4477C97.5211 57.0074 97.7609 57.4872 98.2407 57.8869L99.2801 58.7664C99.5199 59.0063 99.5999 59.2462 99.5999 59.486L99.5199 60.6054C99.5199 60.8452 99.36 60.9252 99.1202 60.6853L97.681 59.486C97.3612 59.1662 97.0414 58.8464 96.9614 58.1268C96.8015 58.6065 96.3218 59.0862 95.922 59.3261L94.243 60.3655C94.0031 60.5254 93.8432 60.4455 93.9231 60.1257L94.0031 59.0063C94.0031 58.7664 94.243 58.4466 94.4828 58.2867L95.6821 57.5671C96.1619 57.2473 96.5616 56.9275 96.6416 56.2878L96.7215 55.2484L94.8026 55.0885C94.5628 55.0885 94.4828 54.8487 94.4828 54.6088L94.4029 53.6493Z" fill="#586386"/>
<path d="M96.8722 64.443C97.9116 65.2426 97.7517 66.6817 97.272 68.041L96.4724 70.5196C96.3925 70.7594 96.1526 70.8394 95.9927 70.8394L91.3553 69.3202C91.1954 69.2403 91.1155 69.0004 91.1954 68.7606L91.5152 67.8811C91.5952 67.6412 91.8351 67.4813 91.995 67.5613L92.9544 67.8811L94.0738 64.6029L93.2742 63.9633C93.1143 63.8034 93.0344 63.5635 93.1143 63.3237L93.4342 62.4442C93.5141 62.2043 93.754 62.1243 93.9139 62.2043L96.8722 64.443ZM94.8733 65.2426L93.9139 68.2009L95.8328 68.8405L96.2326 67.4813C96.4724 66.8417 96.3125 66.282 95.9127 65.9622L94.8733 65.2426Z" fill="#586386"/>
<path d="M91.527 79.8745C91.3671 80.1143 91.1273 80.1943 90.9674 80.1143L90.6475 79.9544C90.4876 79.8745 90.4077 79.5546 90.5676 79.3947L91.6869 77.4758L88.089 75.397C87.9291 75.3171 87.8491 74.9972 88.009 74.8373L88.4888 74.0378C88.6487 73.7979 88.8885 73.718 89.0484 73.7979L92.6464 75.8767L93.7658 73.9578C93.9257 73.718 94.1655 73.638 94.3254 73.718L94.6453 73.8779C94.8052 73.9578 94.8851 74.2777 94.7252 74.4376L91.527 79.8745Z" fill="#586386"/>
<path d="M26.5092 89.789L27.2288 90.1887C28.1083 90.7484 28.7479 91.7878 28.1882 92.6673C28.0283 92.9871 27.7085 92.8272 27.6285 92.8272L27.2288 92.5874C27.0689 92.5074 26.9889 92.2675 26.9889 91.9477C26.9889 91.5479 26.9089 91.2281 26.5092 90.9883L25.9495 90.6684C24.99 90.1088 24.5903 90.2687 23.9506 91.3081C23.311 92.3475 23.391 92.8272 24.2704 93.3869L24.9101 93.7867C25.3099 94.0265 25.6297 93.9466 25.9495 93.7867C26.1894 93.6268 26.4292 93.6268 26.5891 93.7067L26.9889 93.9466C27.0689 94.0265 27.3087 94.1864 27.0689 94.5063C26.5092 95.3858 25.3099 95.3058 24.4304 94.7461L23.6308 94.2664C22.1117 93.3069 21.7119 92.1076 22.6714 90.5885C23.7108 89.0694 24.9101 88.9095 26.5092 89.789Z" fill="#586386"/>
<path d="M31.8774 92.5876C33.6364 93.3872 34.276 94.5065 33.4765 96.2655C32.6769 98.0245 31.3976 98.2644 29.6386 97.5448C27.8796 96.7453 27.24 95.6259 28.0396 93.8669C28.8391 92.1079 30.1184 91.7881 31.8774 92.5876ZM29.3188 94.4266C28.8391 95.466 28.999 96.1856 30.0384 96.6653C31.0778 97.145 31.7175 96.7453 32.1972 95.7058C32.6769 94.6664 32.517 93.9468 31.4776 93.4671C30.4382 92.9874 29.7986 93.3872 29.3188 94.4266Z" fill="#586386"/>
<path d="M34.6591 98.1043C34.819 98.1843 35.0588 98.2643 35.2188 98.3442H35.2987C35.7784 98.5041 36.1782 98.2643 36.498 97.7046L36.1782 97.6246C34.9789 97.2248 34.5791 96.5852 34.4192 95.4659L34.2593 94.0267C34.2593 93.7868 34.3393 93.7069 34.5791 93.7868L35.2987 94.0267C35.5386 94.1066 35.6185 94.2665 35.6985 94.5064L35.7784 95.6258C35.8584 96.1854 36.0983 96.5852 36.7379 96.8251L37.1377 96.985L38.337 95.3859C38.4969 95.226 38.6568 95.146 38.8967 95.226L39.6162 95.4659C39.7762 95.5458 39.8561 95.7057 39.7762 95.8656L37.6973 98.744C37.1377 99.4636 36.4181 99.8633 35.2188 99.5435L34.3393 99.3037C34.1793 99.2237 34.0194 99.0638 34.0994 98.9039L34.1793 98.5041C34.2593 98.3442 34.4192 98.1843 34.5791 98.2643L34.6591 98.1043Z" fill="#586386"/>
<path d="M45.2284 96.1056C47.0674 96.2655 48.1068 97.2249 47.8669 99.0639C47.707 100.983 46.5077 101.622 44.6687 101.463C42.8298 101.303 41.7904 100.423 42.0302 98.5042C42.1901 96.5853 43.3095 95.9456 45.2284 96.1056ZM43.3095 98.6641C43.2295 99.7835 43.5494 100.423 44.6687 100.503C45.7881 100.583 46.2678 100.023 46.4277 98.9839C46.5077 97.8646 46.1879 97.2249 45.0685 97.145C43.9491 96.9851 43.4694 97.5447 43.3095 98.6641Z" fill="#586386"/>
<path d="M53.6249 96.7449V97.0647C53.6249 97.2246 53.465 97.3845 53.3051 97.3845L50.0269 97.4645V98.5039L52.8254 98.4239C52.9853 98.4239 53.1452 98.5838 53.1452 98.7437V99.0635C53.1452 99.2234 52.9853 99.3834 52.8254 99.3834L50.0269 99.4633V100.503L53.2251 100.423C53.385 100.423 53.5449 100.583 53.5449 100.743V101.062C53.5449 101.222 53.385 101.382 53.2251 101.382L48.9076 101.462C48.7477 101.462 48.5878 101.302 48.5878 101.142L48.5078 96.6649C48.5078 96.505 48.6677 96.3451 48.8276 96.3451L53.1452 96.2651C53.385 96.425 53.5449 96.585 53.6249 96.7449Z" fill="#586386"/>
<path d="M57.9217 100.982C57.7618 100.982 57.5219 100.902 57.4419 100.743L55.523 97.4644L56.0827 100.902C56.0827 101.062 56.0028 101.302 55.7629 101.302L55.1233 101.382C54.9634 101.382 54.7235 101.302 54.7235 101.062L54.0039 96.6649C54.0039 96.505 54.0839 96.2651 54.3237 96.2651L55.8429 96.0253C56.0028 96.0253 56.2426 96.1052 56.3226 96.2651L57.9217 99.1435L58.4814 95.9453C58.4814 95.7854 58.6413 95.5455 58.8811 95.5455L60.4003 95.3057C60.5602 95.3057 60.8 95.3856 60.8 95.6255L61.5196 100.023C61.5196 100.183 61.4397 100.423 61.1998 100.423L60.5602 100.503C60.4003 100.503 60.1604 100.423 60.1604 100.183L59.6007 96.7448L58.8811 100.423C58.8012 100.583 58.6413 100.823 58.4814 100.823L57.9217 100.982Z" fill="#586386"/>
<path d="M66.1688 93.3868C67.528 92.8272 68.8872 92.9871 69.6068 94.826C70.3264 96.665 69.4469 97.7044 68.0877 98.1841L67.8478 98.2641C66.4886 98.8237 65.1293 98.6638 64.4098 96.8249C63.6902 94.9859 64.5697 93.9465 65.9289 93.4668L66.1688 93.3868ZM65.689 96.3452C66.0888 97.4645 66.8084 97.6244 67.528 97.3046C68.2476 96.9848 68.6473 96.4251 68.2476 95.3057C67.7678 94.1864 67.1282 94.0265 66.4086 94.3463C65.689 94.6661 65.2893 95.2258 65.689 96.3452Z" fill="#586386"/>
<path d="M70.4956 91.4679C70.6555 91.3879 70.8954 91.4679 70.9753 91.6278L72.9742 95.6255C73.0541 95.7854 72.9742 96.0253 72.8143 96.1052L72.1746 96.4251C72.0147 96.505 71.7749 96.4251 71.6949 96.2652L70.0958 93.1469L69.856 93.6267C69.776 93.7066 69.6161 93.7866 69.5361 93.7066L69.1364 93.5467C68.9765 93.4667 68.9765 93.3068 69.0564 93.2269L69.5361 92.1075C69.6161 91.9476 69.776 91.7877 69.9359 91.7077L70.4956 91.4679Z" fill="#586386"/>
<path d="M74.8117 92.6674C73.6923 93.387 72.8128 93.4669 72.1732 92.4275C71.5336 91.3881 72.0133 90.6685 73.1327 89.9489L73.8523 89.5492C74.9716 88.8296 75.8511 88.7496 76.5707 89.9489L77.4502 91.3082C78.1698 92.5075 77.77 93.307 76.6507 94.0266L75.8511 94.5063C74.8917 95.066 73.9322 95.066 73.5324 94.5063C73.3725 94.2665 73.5324 94.0266 73.6124 93.9467L74.0122 93.7068C74.1721 93.6268 74.332 93.6268 74.6518 93.7068C74.8117 93.7867 75.1315 93.7867 75.4513 93.5469L76.011 93.1471C76.4907 92.8273 76.6507 92.5874 76.3308 91.9478L76.2509 91.8678L74.8117 92.6674ZM75.6112 90.9883L75.3714 90.5886C75.0516 90.0289 74.7318 90.1088 74.252 90.4287L73.7723 90.7485C73.2926 91.0683 73.1327 91.3082 73.3725 91.7079C73.6124 92.1077 73.9322 92.0278 74.4119 91.7879L75.6112 90.9883Z" fill="#586386"/>
<path fill-rule="evenodd" clip-rule="evenodd" d="M21.0801 35.0198C22.2794 31.5818 24.0384 28.3036 26.437 25.3453C28.7557 22.5469 31.3942 20.2282 34.2725 18.4692C30.4347 20.4681 26.8368 23.2665 23.8785 26.9444C22.2794 28.9433 20.8402 31.102 19.8008 33.4207L21.0801 35.0198Z" fill="#586386"/>
<path fill-rule="evenodd" clip-rule="evenodd" d="M19.8839 39.3375C19.9639 38.8577 19.3243 38.6978 19.0044 38.0582C18.6047 37.3386 18.5247 36.2192 18.4448 36.5391C13.4876 49.7315 16.6058 65.3226 27.3197 75.0771C27.5596 75.3169 27.7195 75.3969 27.9593 75.6367C27.9593 75.6367 29.7183 74.5973 30.5179 74.1176C31.2375 73.5579 32.7566 72.5185 32.7566 72.5185C31.6372 71.7989 30.5978 70.9194 29.6384 70.0399C21.0033 62.1245 17.6452 50.2912 19.8839 39.3375Z" fill="#586386"/>
<path fill-rule="evenodd" clip-rule="evenodd" d="M72.6484 65.0027C73.2081 65.1626 74.0077 65.3225 74.7273 65.4024C75.2869 65.4824 75.9266 65.4824 76.4063 65.4824C82.243 53.969 81.3635 39.817 74.1676 29.1831C80.484 40.1369 80.1642 54.3687 72.6484 65.0027Z" fill="#586386"/>
<path fill-rule="evenodd" clip-rule="evenodd" d="M71.6899 69.2403C71.6899 69.2403 69.771 68.5207 69.4512 68.8405C60.8161 77.7954 48.3432 80.1141 37.6293 75.2368C37.6293 75.2368 36.43 76.2762 35.2307 77.2357C34.1113 78.2751 32.832 79.2346 32.832 79.2346C45.7846 86.7503 62.3352 83.8719 72.4095 71.479C73.1291 70.5995 73.7687 69.72 74.4083 68.7605C74.5682 68.6006 71.6899 69.2403 71.6899 69.2403Z" fill="#586386"/>
<path fill-rule="evenodd" clip-rule="evenodd" d="M83.3663 64.2033C82.7266 65.1627 81.2874 67.1616 79.2086 68.7607C77.1298 70.3598 72.8123 73.5579 66.7357 73.8778C64.0972 73.9577 64.0173 73.6379 62.5781 73.478C61.6986 73.3181 56.1818 72.0388 50.425 68.6008C47.2269 67.0017 44.0287 67.3215 43.3091 68.201C42.1897 69.4803 41.1503 70.4397 40.5907 71.0793C38.192 73.6379 25.3194 83.8721 23.1606 85.791C23.4005 85.4711 24.7597 82.5928 25.3194 78.1953C31.7957 74.3575 36.513 70.6796 40.031 67.1616C40.4307 66.7618 40.9105 65.8823 40.4307 65.2427C39.951 62.7641 38.0321 60.7652 34.9139 59.5659C28.8374 57.1673 23.7203 54.0491 21.0018 49.7315C19.3228 47.093 17.8836 44.2946 17.164 41.0165C14.7654 30.8623 17.244 26.5447 17.8037 25.5053C17.164 30.3026 18.8431 33.6607 21.3216 36.2192C23.8002 38.7778 26.5986 40.3769 29.7968 41.7361C34.9139 43.9748 37.8722 47.4928 39.7911 51.5705C41.71 55.6481 42.0298 60.4454 42.0298 60.4454C41.4702 58.9263 40.3508 56.2078 39.1515 54.2889C37.7923 52.1302 34.674 48.6921 31.3159 46.6133C28.3576 44.7743 25.7191 43.8949 23.8002 42.2958C20.9219 39.9771 18.7631 36.699 17.6437 33.6607C17.7237 35.4996 19.4827 38.378 20.3622 39.8971C23.7203 44.4545 25.7991 44.7744 30.3565 47.7327C34.1143 50.2112 37.1526 53.7292 38.6718 55.968C40.1909 58.2067 42.0298 62.7641 41.71 65.3226C47.5467 58.5265 49.3856 52.0502 50.425 46.7732C52.1041 38.298 52.9836 34.3803 55.1424 31.342C56.1818 29.7429 56.9014 28.5436 58.4205 27.2643C59.1401 26.6247 59.4599 26.2249 60.3394 25.9051C60.979 25.6653 62.5781 25.1056 64.8168 25.9051C67.7752 26.145 72.4125 26.3848 76.4102 27.1844L70.8934 27.1044C68.8945 27.1044 65.6164 27.5042 64.497 27.6641C61.2189 27.904 58.9002 29.7429 57.1412 32.5413C55.3023 35.3397 54.3428 38.9377 52.6638 47.4128C51.3845 55.8081 47.7866 62.1245 45.0681 65.8823C45.0681 65.8823 49.7854 63.0839 53.3034 63.4037C56.8214 63.7235 62.3382 65.9623 62.3382 65.9623C67.7752 68.5208 70.2537 68.6008 72.3326 68.6807C74.4114 68.7607 77.2897 67.8012 78.2492 67.4014C75.6906 68.201 72.6524 68.5208 69.2143 67.7213C65.6164 66.9217 60.979 64.1233 58.9002 63.3238C52.264 61.085 49.1458 62.6042 49.1458 62.6042C49.1458 62.6042 51.3845 60.9251 53.943 60.0456C58.8203 58.5265 61.4588 60.1256 64.8168 61.9645C67.9351 63.7235 70.8934 65.2427 74.1715 65.8024C77.2897 66.5219 80.0082 65.6424 83.3663 64.2033Z" fill="#586386"/>
<path d="M21.9429 112.336C22.5826 112.336 22.9024 112.016 22.9024 111.297V108.498C22.9024 108.338 23.0623 108.178 23.2222 108.178H23.9418C24.1017 108.178 24.2616 108.338 24.2616 108.498V111.297C24.2616 112.576 23.4621 113.375 22.0229 113.375H21.3833C19.8641 113.375 19.1445 112.576 19.1445 111.297V108.498C19.1445 108.338 19.3044 108.178 19.4643 108.178H20.104C20.2639 108.178 20.4238 108.338 20.4238 108.498V111.297C20.4238 112.016 20.7436 112.336 21.3833 112.336H21.9429Z" fill="#586386"/>
<path d="M25.563 109.538C25.8828 108.418 26.9222 108.178 27.9616 108.178H29.8805C30.0404 108.178 30.2004 108.338 30.2004 108.498V112.976C30.2004 113.136 30.0404 113.296 29.8805 113.296H29.2409C29.081 113.296 28.9211 113.136 28.9211 112.976V112.096H26.3625L26.1227 112.976C26.0427 113.136 25.8828 113.296 25.7229 113.296H25.0033C24.8434 113.296 24.6835 113.136 24.7635 112.976L25.563 109.538ZM26.6024 111.057H28.9211V109.218H27.8817C27.402 109.218 27.0821 109.458 26.9222 109.937L26.6024 111.057Z" fill="#586386"/>
<path d="M30.9805 112.576C30.9805 112.256 31.1404 112.096 31.4602 112.096H31.9399C32.2597 112.096 32.4196 112.256 32.4196 112.576V112.816C32.4196 113.136 32.2597 113.296 31.9399 113.296H31.4602C31.1404 113.296 30.9805 113.136 30.9805 112.816V112.576Z" fill="#586386"/>
<path d="M35.7711 108.098C37.2102 108.098 38.3296 108.738 38.3296 110.737C38.3296 112.736 37.2102 113.375 35.7711 113.375H35.5312C34.092 113.375 32.9727 112.736 32.9727 110.737C32.9727 108.738 34.092 108.098 35.5312 108.098H35.7711ZM34.3319 110.737C34.3319 111.936 34.8916 112.336 35.6911 112.336C36.4907 112.336 37.0503 111.936 37.0503 110.737C37.0503 109.538 36.4907 109.138 35.6911 109.138C34.8916 109.138 34.3319 109.458 34.3319 110.737Z" fill="#586386"/>
<path d="M41.7005 108.098C42.7399 108.098 43.6994 108.498 43.6994 109.618C43.6994 110.017 43.5395 110.257 43.2196 110.577C43.6994 110.817 43.9392 111.297 43.9392 111.776C43.9392 112.816 43.0597 113.375 41.8604 113.375H40.821C39.7016 113.375 38.7422 112.816 38.7422 111.776C38.7422 111.297 38.9821 110.817 39.4618 110.577C39.062 110.257 38.9821 110.017 38.9821 109.618C38.9821 108.498 39.9415 108.098 40.9809 108.098H41.7005ZM41.7005 112.336C42.2602 112.336 42.58 112.176 42.58 111.776C42.58 111.377 42.2602 111.217 41.7005 111.217H40.9809C40.4212 111.217 40.1014 111.377 40.1014 111.776C40.1014 112.176 40.4212 112.336 40.9809 112.336H41.7005ZM41.2208 109.138C40.6611 109.138 40.3413 109.298 40.3413 109.697C40.3413 110.097 40.6611 110.257 41.2208 110.257H41.5406C42.1003 110.257 42.4201 110.097 42.4201 109.697C42.4201 109.298 42.1003 109.138 41.5406 109.138H41.2208Z" fill="#586386"/>
<path d="M44.4922 112.576C44.4922 112.256 44.6521 112.096 44.9719 112.096H45.4516C45.7715 112.096 45.9314 112.256 45.9314 112.576V112.816C45.9314 113.136 45.7715 113.296 45.4516 113.296H44.9719C44.6521 113.296 44.4922 113.136 44.4922 112.816V112.576Z" fill="#586386"/>
<path d="M49.2203 108.098C50.6595 108.098 51.7788 108.738 51.7788 110.737C51.7788 112.736 50.6595 113.375 49.2203 113.375H48.9804C47.5412 113.375 46.4219 112.736 46.4219 110.737C46.4219 108.738 47.5412 108.098 48.9804 108.098H49.2203ZM47.7811 110.737C47.7811 111.936 48.3408 112.336 49.1403 112.336C49.9399 112.336 50.4996 111.936 50.4996 110.737C50.4996 109.538 49.9399 109.138 49.1403 109.138C48.3408 109.138 47.7811 109.458 47.7811 110.737Z" fill="#586386"/>
<path d="M55.1343 108.098C56.5735 108.098 57.6929 108.738 57.6929 110.737C57.6929 112.736 56.5735 113.375 55.1343 113.375H54.8945C53.4553 113.375 52.3359 112.736 52.3359 110.737C52.3359 108.738 53.4553 108.098 54.8945 108.098H55.1343ZM53.6152 110.737C53.6152 111.936 54.1749 112.336 54.9744 112.336C55.774 112.336 56.3337 111.936 56.3337 110.737C56.3337 109.538 55.774 109.138 54.9744 109.138C54.1749 109.138 53.6152 109.458 53.6152 110.737Z" fill="#586386"/>
<path d="M61.5414 109.778C61.5414 109.218 61.3015 109.058 60.6619 109.058H60.422C59.9423 109.058 59.7024 109.138 59.5425 109.538C59.4625 109.778 59.3026 109.857 59.0628 109.857H58.663C58.583 109.857 58.2632 109.778 58.2632 109.458C58.2632 108.578 59.3026 108.019 60.342 108.019H60.8218C62.0211 108.019 62.9805 108.338 62.9805 109.698C62.9805 111.776 59.6224 111.297 59.6224 112.176H62.5808C62.7407 112.176 62.9006 112.336 62.9006 112.496V112.816C62.9006 112.976 62.7407 113.136 62.5808 113.136H58.583C58.4231 113.136 58.2632 112.976 58.2632 112.816V112.256C58.1033 110.177 61.5414 110.817 61.5414 109.778Z" fill="#586386"/>
<path d="M63.3555 112.576C63.3555 112.256 63.5154 112.096 63.8352 112.096H64.3149C64.6347 112.096 64.7946 112.256 64.7946 112.576V112.816C64.7946 113.136 64.6347 113.296 64.3149 113.296H63.8352C63.5154 113.296 63.3555 113.136 63.3555 112.816V112.576Z" fill="#586386"/>
<path d="M67.6057 109.138C67.1259 109.138 66.8861 109.218 66.7262 109.618C66.6462 109.857 66.4863 109.937 66.2464 109.937H65.8467C65.7667 109.937 65.4469 109.857 65.4469 109.538C65.4469 108.658 66.4863 108.098 67.5257 108.098H67.9255C69.1248 108.098 70.0843 108.418 70.0843 109.697C70.0843 110.097 69.9243 110.497 69.6045 110.737C70.0043 110.977 70.1642 111.297 70.1642 111.776C70.1642 112.896 69.3647 113.375 68.0854 113.375H67.2858C66.2464 113.375 65.207 112.816 65.207 111.936C65.207 111.616 65.4469 111.536 65.6068 111.536H66.0066C66.2464 111.536 66.4063 111.616 66.4863 111.936C66.6462 112.176 66.8861 112.336 67.3658 112.336H67.8455C68.4052 112.336 68.725 112.176 68.725 111.776C68.725 111.377 68.4052 111.217 67.8455 111.217H67.2059C67.046 111.217 66.8861 111.057 66.8861 110.897V110.577C66.8861 110.417 67.046 110.257 67.2059 110.257H67.7656C68.4052 110.257 68.6451 110.097 68.6451 109.697C68.6451 109.298 68.4052 109.138 67.7656 109.138H67.6057Z" fill="#586386"/>
<path d="M72.889 109.138C72.4093 109.138 72.1694 109.218 72.0095 109.618C71.9295 109.857 71.7696 109.937 71.5298 109.937H71.13C71.05 109.937 70.7302 109.857 70.7302 109.538C70.7302 108.658 71.7696 108.098 72.809 108.098H73.2888C74.4881 108.098 75.4475 108.418 75.4475 109.697C75.4475 110.097 75.2876 110.497 74.9678 110.737C75.3676 110.977 75.5275 111.297 75.5275 111.776C75.5275 112.896 74.7279 113.375 73.4487 113.375H72.6491C71.6097 113.375 70.5703 112.816 70.5703 111.936C70.5703 111.616 70.8102 111.536 70.9701 111.536H71.3699C71.6097 111.536 71.7696 111.616 71.8496 111.936C72.0095 112.176 72.3293 112.336 72.7291 112.336H73.2088C73.7685 112.336 74.0883 112.176 74.0883 111.776C74.0883 111.377 73.7685 111.217 73.2088 111.217H72.5692C72.4093 111.217 72.2494 111.057 72.2494 110.897V110.577C72.2494 110.417 72.4093 110.257 72.5692 110.257H73.1289C73.7685 110.257 74.0084 110.097 74.0084 109.697C74.0084 109.298 73.6885 109.138 73.1289 109.138H72.889Z" fill="#586386"/>
<path d="M78.2406 109.138C77.7608 109.138 77.521 109.218 77.3611 109.618C77.2811 109.857 77.1212 109.937 76.8813 109.937H76.4816C76.4016 109.937 76.0818 109.857 76.0818 109.538C76.0818 108.658 77.1212 108.098 78.1606 108.098H78.6403C79.8396 108.098 80.7991 108.418 80.7991 109.697C80.7991 110.097 80.6392 110.497 80.3194 110.737C80.7191 110.977 80.879 111.297 80.879 111.776C80.879 112.896 80.0795 113.375 78.8002 113.375H78.0007C76.9613 113.375 75.9219 112.816 75.9219 111.936C75.9219 111.616 76.1617 111.536 76.3216 111.536H76.7214C76.9613 111.536 77.1212 111.616 77.2011 111.936C77.3611 112.176 77.6009 112.336 78.0806 112.336H78.5604C79.1201 112.336 79.4399 112.176 79.4399 111.776C79.4399 111.377 79.1201 111.217 78.5604 111.217H77.9207C77.7608 111.217 77.6009 111.057 77.6009 110.897V110.577C77.6009 110.417 77.7608 110.257 77.9207 110.257H78.4804C79.12 110.257 79.3599 110.097 79.3599 109.697C79.3599 109.298 79.12 109.138 78.4804 109.138H78.2406Z" fill="#586386"/>
</svg>
