<svg width="100" height="35" viewBox="0 0 100 35" fill="none" xmlns="http://www.w3.org/2000/svg">
<path d="M49.9579 34.0354H5.22325C4.2123 34.1196 3.20135 33.7826 2.44313 33.1929C1.60067 32.6874 0.84246 31.845 0.42123 30.9183C0.168492 30.4128 0.084246 29.9073 0 29.3176V4.71778C0 3.87532 0.336984 3.03286 0.926706 2.35889C1.0952 2.1904 1.17944 2.10615 1.17944 2.0219C1.17944 1.76917 1.34794 1.60067 1.51643 1.51643C1.93766 1.26369 2.35889 1.01095 2.69587 0.673968C3.1171 0.42123 3.53833 0.252738 4.04381 0.168492C4.46504 0.084246 4.97051 0 5.39174 0H94.4398C95.198 0 95.9562 0.084246 96.7144 0.336984C97.6411 0.673968 98.3993 1.26369 98.989 2.10615C99.4103 2.69587 99.663 3.28559 99.9157 3.95956C100 4.12805 100 4.38079 100 4.54928V28.7279C99.9157 29.4019 99.8315 30.1601 99.5788 30.834C99.4945 31.0868 99.326 31.2553 99.1575 31.4238C98.9048 31.845 98.6521 32.182 98.3151 32.519C97.3884 33.3614 96.2932 33.8669 95.0295 33.9511H71.4406C64.3639 34.0354 57.1188 34.0354 49.9579 34.0354ZM32.4347 32.6874C32.6874 32.7717 32.8559 32.7717 33.1087 32.7717H95.0295C95.7877 32.7717 96.5459 32.519 97.1356 31.9292C98.1466 31.0868 98.7363 29.9073 98.7363 28.5594V5.56024C98.7363 5.05476 98.6521 4.46504 98.4836 3.95956C98.3993 3.70682 98.2308 3.45409 98.0623 3.20135C97.8096 2.69587 97.4726 2.27464 96.9671 2.0219C96.1247 1.43218 95.1137 1.17944 94.1028 1.17944H32.9402C32.7717 1.17944 32.519 1.0952 32.3505 1.26369C32.4347 11.7944 32.4347 22.2409 32.4347 32.6874ZM10.6992 17.5232C10.615 17.6917 10.615 17.8602 10.615 18.0286V23.7574C10.615 24.1786 10.6992 24.3471 11.1205 24.4313C11.5417 24.5156 11.7944 24.5998 12.2157 24.6841C14.4903 25.1053 16.765 25.7793 19.1238 25.695C20.3033 25.695 21.4827 25.4423 22.5779 24.9368C23.6731 24.4313 24.4313 23.5046 25.4423 22.9149C25.695 22.6622 25.7793 22.4094 25.695 22.0725C25.2738 21.3985 24.7683 20.8088 24.2628 20.219C24.0101 19.8821 23.7574 19.8821 23.4204 20.1348C22.4094 20.893 21.6512 22.1567 20.3033 22.4094C18.7026 22.5779 17.1019 22.0725 15.9225 20.9773C15.754 20.8088 15.5855 20.6403 15.8382 20.3875H18.7026C19.0396 20.3875 19.3766 20.219 19.5451 19.8821C19.8821 19.2081 19.8821 18.5341 19.5451 17.8602C19.5451 17.7759 19.4608 17.7759 19.3766 17.6917C19.1238 17.5232 18.8711 17.4389 18.5341 17.4389H11.5417C11.289 17.5232 10.952 17.5232 10.6992 17.5232ZM22.1567 12.8054C22.1567 12.4684 22.0725 12.0472 21.9882 11.7102C21.7355 11.1205 21.3985 10.5308 21.0615 9.94103C20.556 9.01432 19.9663 8.08762 19.3766 7.16091C19.1238 6.73968 18.8711 6.82393 18.6184 7.16091C18.3656 7.49789 18.0286 8.08762 17.6917 8.50885C17.1862 9.35131 16.6807 10.1938 16.2595 11.0362C16.0067 11.5417 15.8382 12.0472 15.754 12.6369C15.754 13.5636 16.091 14.4061 16.765 15.08C17.0177 15.2485 17.2704 15.417 17.6074 15.5855C18.0286 15.754 18.4499 15.9225 18.8711 15.9225C19.9663 16.0067 20.9773 15.5013 21.567 14.5746C21.9882 14.0691 22.1567 13.4794 22.1567 12.8054ZM6.73968 16.6807C6.73968 16.765 6.73968 16.765 6.73968 16.6807L6.65543 25.5265C6.65543 25.695 6.65543 25.7793 6.82393 25.8635C7.66639 25.7793 8.4246 25.7793 9.26706 25.8635C9.5198 25.8635 9.60404 25.7793 9.60404 25.6108V17.1019C9.60404 16.9334 9.68829 16.765 9.5198 16.6807H6.73968Z" fill="#586386"/>
<path d="M59.2231 6.40254C59.3074 6.57103 59.3074 6.65528 59.2231 6.82377H58.0437V10.5306H57.2855V6.90802C56.8642 6.90802 56.3588 6.82377 55.9375 6.73952C55.5163 7.245 55.1793 7.75048 54.7581 8.3402C55.8533 8.59294 55.769 9.68813 56.2745 10.4463C56.0218 10.6148 55.769 10.5306 55.5163 10.5306C55.2636 10.1936 55.1793 9.85663 55.0951 9.51964C55.0108 9.09841 54.5896 8.76143 54.1684 8.67718C54.0841 9.2669 54.1684 9.85663 54.0841 10.4463H53.4102V6.40254C53.6629 6.31829 53.9156 6.31829 54.1684 6.40254V8.08746C54.4211 7.75048 54.5896 7.58198 54.7581 7.32925C55.3478 6.40254 55.3478 6.40254 56.5273 6.40254H59.2231Z" fill="#586386"/>
<path d="M86.3524 8.34031C85.8469 7.75058 85.4257 7.16086 85.0887 6.48689C85.6784 6.3184 85.7626 6.3184 86.0996 6.73963C86.4366 7.16086 86.6893 7.58209 86.9421 8.08757V6.48689C87.1948 6.3184 87.4476 6.40265 87.7003 6.40265V8.00332H87.7845C88.0373 7.58209 88.29 7.24511 88.5428 6.82388C88.7955 6.40265 88.8797 6.3184 89.638 6.40265C89.301 7.07662 88.7955 7.58209 88.3743 8.25606C89.3852 8.59304 89.3852 9.604 89.7222 10.4465C89.4695 10.6149 89.2167 10.5307 88.964 10.5307C88.5428 9.94098 88.627 8.93003 87.7003 8.76154V10.5307C87.4476 10.6992 87.1948 10.6149 86.9421 10.6149C86.8578 10.0252 86.9421 9.4355 86.8578 8.93003C86.3524 8.93003 86.1839 9.09852 86.0154 9.604C85.9311 9.94098 85.7626 10.278 85.5942 10.6149H84.8359C85.2572 9.68824 85.3414 8.67729 86.3524 8.34031Z" fill="#586386"/>
<path d="M93.2599 10.5309H92.5017V7.91926H92.4175C91.912 8.76172 91.4065 9.68843 90.8168 10.5309H90.0586V6.48708C90.3113 6.31859 90.4798 6.48708 90.8168 6.40283V9.18295C91.3223 8.42474 91.7435 7.75077 92.1647 6.99255C92.5017 6.40283 92.5017 6.40283 93.2599 6.48708V10.5309Z" fill="#586386"/>
<path d="M49.79 11.3733C49.6215 11.4576 49.3688 11.4576 49.2003 11.3733C49.1161 11.1206 49.2003 10.8679 49.1161 10.5309H47.0099C46.8414 10.7836 47.0099 11.0364 46.9257 11.3733C46.7572 11.4576 46.5887 11.3733 46.3359 11.3733V10.2781C46.3359 10.1939 46.3359 10.1097 46.4202 10.1097C46.9257 9.60418 47.1784 8.93021 47.1784 8.172V6.40283H49.5373C49.7058 6.48708 49.6215 6.65557 49.6215 6.82406V9.60418C49.6215 9.77267 49.5373 10.0254 49.8743 10.1097C50.0428 10.1097 49.9585 10.2781 49.9585 10.3624C49.79 10.6994 49.79 11.0364 49.79 11.3733ZM48.6106 10.1097V6.90831H47.5996C47.6839 8.00351 47.5154 9.0987 47.1784 10.1097H48.6106Z" fill="#586386"/>
<path d="M76.3302 6.40283H78.6891C78.8576 6.57132 78.7733 6.65557 78.7733 6.82406V9.68843C78.7733 9.85692 78.6891 10.1097 79.0261 10.1097C79.1946 10.1097 79.1103 10.2781 79.1103 10.3624V11.2891C78.9418 11.4576 78.6891 11.3733 78.5206 11.3733C78.3521 11.1206 78.5206 10.7836 78.4364 10.5309H76.3302C76.1617 10.7836 76.3302 11.0364 76.246 11.3733C76.0775 11.4576 75.909 11.3733 75.6562 11.3733V10.2781C75.6562 10.1939 75.6562 10.1097 75.7405 10.1097C75.9932 10.1097 76.0775 9.94116 76.1617 9.68843C76.3302 9.18295 76.4987 8.67747 76.4987 8.172C76.3302 7.58228 76.3302 6.99255 76.3302 6.40283ZM76.583 10.1097H77.9309V6.90831C77.5939 6.82406 77.3412 6.82406 77.0042 6.90831C77.0884 7.41378 77.0884 8.00351 77.0042 8.50898C76.9199 9.0987 76.8357 9.60418 76.583 10.1097Z" fill="#586386"/>
<path d="M63.8593 10.5307H63.1011V8.67725C62.5956 8.593 62.0059 8.593 61.5004 8.67725V10.5307C61.2477 10.5307 60.9949 10.5307 60.7422 10.5307V6.40261C60.9949 6.31836 61.2477 6.31836 61.5004 6.40261V8.08753C62.0059 8.17177 62.5114 8.17177 63.0168 8.08753C63.1011 7.4978 63.0168 6.90808 63.1011 6.31836H63.8593V10.5307Z" fill="#586386"/>
<path d="M38.8358 10.5309H38.0776V6.90831H36.477V10.4466C36.2242 10.6151 35.9715 10.5309 35.7188 10.5309V6.40283H38.7516C38.8359 7.75077 38.8358 9.18295 38.8358 10.5309Z" fill="#586386"/>
<path d="M42.375 8.42474C42.375 8.00351 42.5435 7.49803 42.7962 7.16105C43.2175 6.65557 43.8914 6.40283 44.5654 6.40283C45.1551 6.40283 45.6606 6.82406 45.9133 7.32954C46.1661 7.83501 46.2503 8.42474 46.0818 9.01446C45.9133 9.94116 45.0709 10.6151 44.0599 10.5309C43.9757 10.5309 43.8914 10.5309 43.8072 10.4466C42.7962 10.2781 42.375 9.60418 42.375 8.42474ZM45.4079 8.50898C45.4079 8.00351 45.2394 7.49803 44.8181 7.16105C44.5654 6.82406 44.1442 6.82406 43.8072 7.0768L43.7229 7.16105C42.9647 7.91926 42.9647 9.18295 43.7229 9.94116C43.9757 10.1939 44.3969 10.1939 44.7339 9.94116C45.1551 9.60418 45.4079 9.0987 45.4079 8.50898Z" fill="#586386"/>
<path d="M75.5701 8.50891C75.6544 8.76164 75.4859 9.09863 75.4016 9.35137C75.0647 10.1938 74.2222 10.6993 73.2955 10.5308C72.7058 10.5308 72.2003 10.1096 71.9476 9.6041C71.6948 9.09863 71.6106 8.50891 71.7791 7.91918C71.9476 6.90823 72.9585 6.23426 73.9695 6.40276C74.8119 6.57125 75.4859 7.32946 75.4859 8.25617C75.5701 8.34041 75.5701 8.42466 75.5701 8.50891ZM74.7277 8.50891C74.7277 8.00343 74.5592 7.49795 74.138 7.16097C73.8852 6.90823 73.3797 6.90823 73.127 7.16097C72.3688 7.91918 72.2845 9.09863 72.9585 9.85684C72.9585 9.94109 73.0428 9.94109 73.127 10.0253C73.3797 10.2781 73.801 10.2781 74.0537 10.0253C74.5592 9.68835 74.8119 9.09863 74.7277 8.50891Z" fill="#586386"/>
<path d="M40.3559 9.09851V10.5307C40.1031 10.6149 39.8504 10.6149 39.5977 10.6149V6.65537C40.1874 6.40264 40.9456 6.40264 41.5353 6.65537C41.9565 6.82387 42.2935 7.16085 42.2935 7.66633C42.3778 8.1718 42.125 8.59303 41.7038 8.84577C41.4511 9.01426 41.1983 9.09851 40.8613 9.09851C40.6929 9.01426 40.5244 8.93002 40.3559 9.09851ZM40.3559 6.90811C40.2716 7.41359 40.3559 8.00331 40.4401 8.50879C40.8613 8.67728 41.3668 8.42454 41.5353 8.00331C41.5353 7.91906 41.6196 7.75057 41.5353 7.58208C41.3668 7.0766 40.8613 6.73962 40.3559 6.90811Z" fill="#586386"/>
<path d="M83.1488 9.01444V10.5309C82.8961 10.6151 82.6434 10.6151 82.3906 10.5309V6.5713C82.9803 6.31857 83.5701 6.31857 84.1598 6.48706C84.6653 6.5713 85.0022 6.99253 85.0865 7.49801C85.1707 8.00349 84.918 8.59321 84.4125 8.7617C83.9913 9.01444 83.5701 9.09868 83.1488 9.01444ZM83.2331 6.90829V8.50896C83.9071 8.59321 84.3283 8.25622 84.3283 7.75075C84.3283 7.24527 83.9071 6.90829 83.2331 6.90829Z" fill="#586386"/>
<path d="M49.2827 29.2333C48.693 29.0648 48.1875 28.7278 48.1875 28.0538C48.1875 27.3798 48.6087 26.7901 49.2827 26.6216V25.6107C49.4512 25.4422 49.6197 25.5264 49.7882 25.5264V26.5374C50.5464 26.6216 51.0519 27.2114 51.0519 27.9696C51.0519 28.7278 50.5464 29.0648 49.8724 29.2333C49.7882 29.5702 49.8724 29.9072 49.7882 30.16C49.6197 30.2442 49.4512 30.2442 49.2827 30.2442C49.3669 29.9072 49.3669 29.5702 49.2827 29.2333ZM49.9567 27.0429C49.8724 27.5483 49.8724 28.1381 49.9567 28.6435C50.7149 28.1381 50.7149 27.5483 49.9567 27.0429ZM49.2827 28.6435V27.0429C48.5245 27.6326 48.5245 28.1381 49.2827 28.6435Z" fill="#586386"/>
<path d="M59.6459 24.6842V25.6109C59.4774 25.7794 59.3089 25.6951 59.1404 25.6951C59.0561 25.4424 59.1404 25.1054 59.0561 24.7684C58.4664 24.5157 57.9609 24.2629 57.9609 23.5047C57.9609 22.8308 58.3822 22.241 59.0561 22.1568V21.1458C59.2246 20.9773 59.3931 21.0616 59.5616 21.0616C59.6459 21.3986 59.5616 21.7356 59.6459 22.1568C60.3198 22.241 60.8253 22.8308 60.8253 23.5047C60.8253 24.1787 60.3198 24.6842 59.6459 24.6842C59.7301 24.6842 59.6459 24.6842 59.6459 24.6842ZM59.7301 22.578C59.6459 23.0835 59.6459 23.6732 59.7301 24.1787C60.4883 23.6732 60.4883 23.0835 59.7301 22.578ZM59.0561 22.578C58.2979 23.252 58.2979 23.7575 59.0561 24.1787V22.578Z" fill="#586386"/>
<path d="M53.5823 13.6478V15.6697C53.4138 15.7539 53.2453 15.7539 53.0768 15.7539V13.732C52.8241 13.6478 52.5714 13.732 52.3186 13.6478C52.2344 13.5635 52.2344 13.3951 52.2344 13.3108C52.5714 13.2266 52.9083 13.3108 53.2453 13.2266H54.509C54.7618 13.2266 55.0145 13.3951 55.0987 13.6478C55.2672 14.069 55.3515 14.4903 55.52 14.9115C55.6885 14.4903 55.857 14.069 56.0254 13.6478C56.1939 13.2266 56.1939 13.2266 56.7837 13.3108C56.5309 14.069 56.2782 14.743 55.9412 15.417C55.857 15.7539 55.6885 16.0067 55.52 16.2594C55.3515 16.5122 55.0987 16.7649 54.7618 16.7649C54.5933 16.6806 54.509 16.5122 54.509 16.3437C54.5933 16.2594 54.6775 16.1752 54.7618 16.1752C55.2672 15.8382 55.3515 15.5855 55.0987 14.9957C54.846 14.4903 54.6775 13.9848 54.509 13.4793C54.2563 13.732 53.9193 13.4793 53.5823 13.6478Z" fill="#586386"/>
<path d="M50.2142 10.5309C50.13 10.3624 50.13 10.2781 50.13 10.1097C50.2984 10.0254 50.5512 10.0254 50.7197 9.85692C51.1409 9.43569 51.1409 9.35144 50.8882 8.84597C50.4669 8.08775 50.13 7.24529 49.793 6.48708C49.9615 6.40283 50.13 6.40283 50.2984 6.40283C50.5512 6.40283 50.6354 6.48708 50.8039 6.73982L51.5621 8.50898C51.8149 7.75077 52.0676 7.0768 52.3203 6.40283H53.0786L52.3203 8.42474C52.1519 8.76172 51.9834 9.18295 51.8149 9.60418C51.5621 10.2781 50.8882 10.6151 50.2142 10.5309Z" fill="#586386"/>
<path d="M66.894 10.1094C67.0625 10.2779 66.9783 10.3621 66.9783 10.5306H64.5352V6.48682H66.8098C66.894 6.65531 66.894 6.73955 66.8098 6.90805C66.3043 6.99229 65.7988 6.90805 65.2934 6.99229V8.25598C65.7146 8.42447 66.2201 8.25598 66.6413 8.34023C66.7256 8.50872 66.7256 8.59297 66.7256 8.76146H65.3776C65.2934 9.26693 65.2934 9.68816 65.2934 10.1936C65.7988 10.1094 66.3886 10.1094 66.894 10.1094Z" fill="#586386"/>
<path d="M79.5273 6.40283H81.7177C81.8862 6.48708 81.802 6.65557 81.802 6.82406C81.2965 6.90831 80.791 6.90831 80.2856 6.90831C80.2856 7.32954 80.2856 7.75077 80.2856 8.172H81.6335C81.802 8.34049 81.7177 8.42474 81.7177 8.59323H80.3698V10.0254C80.8753 10.1097 81.465 10.0254 81.9705 10.1097C82.0547 10.1939 82.0547 10.2781 82.0547 10.3624C82.0547 10.4466 82.0547 10.4466 81.9705 10.5309H79.6116C79.5273 9.18295 79.5273 7.83501 79.5273 6.40283Z" fill="#586386"/>
<path d="M71.4364 9.8567C71.5207 10.0252 71.5207 10.2779 71.6049 10.4464C71.0152 10.5307 70.4255 10.6149 69.8357 10.5307C68.9933 10.2779 68.4878 9.94094 68.4035 9.01424C68.2351 8.25602 68.4878 7.49781 68.9933 6.99234C69.4987 6.57111 70.257 6.31837 70.9309 6.48686C71.1837 6.48686 71.3522 6.57111 71.6049 6.65535C71.5207 6.82384 71.5207 6.99234 71.4364 7.16083C70.9309 7.07658 70.4255 6.82384 69.92 7.16083C69.6672 7.32932 69.4987 7.49781 69.3303 7.75055C68.9933 8.34027 69.0775 9.09848 69.4987 9.60396C70.0042 10.1094 70.8467 10.2779 71.4364 9.8567Z" fill="#586386"/>
<path d="M76.3283 19.2081V20.0505C76.1598 20.219 75.9913 20.1348 75.8228 20.1348C75.7386 19.7978 75.8228 19.5451 75.7386 19.2081C75.4016 19.2081 75.2331 19.4608 75.0646 19.7978C74.8961 20.1348 74.8119 20.3033 74.3906 20.1348C74.5591 19.6293 74.6434 19.0396 75.3173 18.7868C74.9803 18.4499 74.6434 18.1129 74.3906 17.6917C74.5591 17.6074 74.8119 17.5232 74.9803 17.6074C75.2331 17.9444 75.4858 18.2814 75.7386 18.6184V17.7759C75.9071 17.6074 76.0755 17.6917 76.244 17.6917C76.3283 17.9444 76.244 18.2814 76.3283 18.7026C76.4968 18.4499 76.6653 18.1971 76.8338 18.0286C77.0022 17.6917 77.255 17.6074 77.6762 17.7759C77.4235 18.1971 77.0865 18.5341 76.7495 18.8711C77.4235 19.1238 77.5077 19.6293 77.6762 20.219C77.1707 20.3033 77.1707 20.3033 77.0022 19.882C76.8338 19.4608 76.7495 19.2081 76.3283 19.2081Z" fill="#586386"/>
<path d="M36.9847 23.7574C37.1531 23.3362 37.2374 22.9992 37.4059 22.578C37.5744 22.1568 37.6586 22.0725 38.2483 22.1568C38.3326 22.3252 38.3326 22.4095 38.3326 22.578C38.3326 23.0835 38.3326 23.5047 38.4168 24.0102C38.5011 24.1787 38.4168 24.4314 38.4168 24.5999C38.2483 24.7684 38.0799 24.6841 37.9114 24.6841V22.9992H37.8271C37.6586 23.5047 37.4901 23.9259 37.3216 24.4314C37.2374 24.6841 37.2374 24.6841 36.8162 24.6841C36.6477 24.1787 36.4792 23.5889 36.3107 23.0835H36.2264V24.5999C36.0579 24.7684 35.8895 24.6841 35.721 24.6841C35.721 24.5999 35.6367 24.5999 35.6367 24.5156C35.721 23.8417 35.721 23.1677 35.721 22.4937C35.721 22.3252 35.8052 22.0725 36.0579 22.0725C36.3107 22.0725 36.4792 22.0725 36.5634 22.4095C36.6477 22.7465 36.8162 23.252 36.9847 23.7574Z" fill="#586386"/>
<path d="M81.7186 24.5997C81.5501 24.684 81.3816 24.684 81.2132 24.5997C81.1289 24.4312 81.1289 24.2627 81.1289 24.0942C81.2132 23.5888 81.2974 23.0833 81.2132 22.5778C81.2132 22.2408 81.2974 22.0723 81.5501 22.0723C81.8029 22.0723 81.8871 22.0723 81.9714 22.3251C82.1399 22.7463 82.3083 23.2518 82.4768 23.673C82.6453 23.2518 82.7296 22.9148 82.8981 22.4936C83.0666 22.0723 83.1508 21.9881 83.7405 22.0723C83.7405 22.8305 83.7405 23.673 83.909 24.4312C83.7405 24.5997 83.572 24.5155 83.4035 24.5155C83.3193 23.9257 83.4035 23.336 83.3193 22.7463C83.1508 23.2518 82.9823 23.673 82.8138 24.1785C82.7296 24.5155 82.5611 24.5997 82.3083 24.5155C82.1399 24.01 81.9714 23.4203 81.8029 22.9148H81.7186V24.5997Z" fill="#586386"/>
<path d="M87.2784 24.5999C87.0257 24.7684 86.9414 24.6842 86.6887 24.6842C86.6045 24.0944 86.6887 23.5047 86.6045 22.8307C86.436 23.4205 86.1832 23.9259 86.099 24.3472C86.0147 24.7684 85.8462 24.6842 85.5935 24.5999C85.425 24.0944 85.2565 23.5047 85.088 22.9992H85.0038V24.5157C84.8353 24.6842 84.6668 24.5999 84.4983 24.5999C84.4983 24.5157 84.4141 24.5157 84.4141 24.4314C84.4983 23.7574 84.4983 23.0835 84.4983 22.4095C84.4983 22.241 84.6668 22.0725 84.8353 21.9883C85.088 21.9883 85.2565 21.9883 85.3408 22.3253C85.425 22.6622 85.6778 23.1677 85.8462 23.6732C86.0147 23.252 86.099 22.915 86.2675 22.4938C86.436 22.0725 86.5202 21.9883 87.1099 22.0725C87.1099 22.915 87.1099 23.7574 87.2784 24.5999Z" fill="#586386"/>
<path d="M94.6113 6.82406H93.4319C93.3477 6.65557 93.3477 6.57132 93.3477 6.40283H96.4648C96.6332 6.48708 96.549 6.65557 96.549 6.82406H95.3696V10.4466C95.1168 10.6151 94.8641 10.5309 94.6113 10.5309V6.82406Z" fill="#586386"/>
<path d="M68.4062 13.1423C68.659 13.058 68.8275 13.1423 68.8275 13.395C69.5014 12.9738 70.0069 12.9738 70.4282 13.395C70.7651 13.9005 70.8494 14.5745 70.5124 15.1642C70.1754 15.6697 69.7542 15.7539 68.996 15.5012V16.5964C68.8275 16.7649 68.659 16.6806 68.4905 16.6806C68.4063 15.5012 68.4062 14.406 68.4062 13.1423ZM68.9117 14.5745C68.8275 14.9115 69.0802 15.0799 69.333 15.2484C69.5015 15.3327 69.7542 15.2484 69.9227 15.1642C70.0912 14.9957 70.2597 14.743 70.1754 14.4902C70.2597 14.069 70.0069 13.6478 69.5857 13.5635C69.1645 13.5635 68.9117 13.9005 68.9117 14.3217V14.5745Z" fill="#586386"/>
<path d="M50.9664 20.0505V21.1457C50.7979 21.2299 50.6294 21.2299 50.4609 21.1457V17.6916C50.7137 17.6074 50.8822 17.5231 50.8822 17.9443C51.1349 17.6916 51.4719 17.5231 51.8089 17.6074C52.0616 17.6916 52.3143 17.7759 52.3986 17.9443C52.7356 18.4498 52.7356 19.208 52.3986 19.7135C52.2301 20.219 51.8089 20.3032 50.9664 20.0505ZM52.2301 18.9553C52.2301 18.6183 52.0616 18.3656 51.8089 18.1971C51.5561 18.0286 51.3876 18.1971 51.2191 18.2813C50.9664 18.6183 50.8822 19.0395 51.0507 19.4608C51.2191 19.6293 51.3034 19.882 51.5561 19.7978C51.8089 19.7978 51.9774 19.6293 52.0616 19.4608C52.1459 19.2923 52.3143 19.0395 52.2301 18.9553Z" fill="#586386"/>
<path d="M36.3102 20.0505V21.2299C36.1417 21.3142 35.9732 21.3142 35.8047 21.2299V17.6916C36.0574 17.6074 36.3102 17.5231 36.2259 17.9443C36.5629 17.6916 36.8156 17.5231 37.1526 17.6074C37.4054 17.6916 37.6581 17.7759 37.8266 17.9443C38.2478 18.4498 38.2478 19.208 37.9108 19.7135C37.4896 20.219 37.0684 20.3032 36.3102 20.0505ZM36.3102 18.9553C36.2259 19.2923 36.3944 19.4608 36.6471 19.6293C36.8999 19.7978 37.0684 19.6293 37.2369 19.545C37.4054 19.4608 37.4896 19.208 37.4896 19.0395C37.5739 18.7026 37.5739 18.3656 37.2369 18.1971C37.1526 18.0286 36.8999 17.9443 36.6471 18.1128C36.3944 18.2813 36.2259 18.6183 36.3102 18.9553Z" fill="#586386"/>
<path d="M44.6515 27.5485C44.3145 28.1382 43.9775 28.6437 43.6405 29.1492C43.472 29.2334 43.3035 29.1492 43.0508 29.1492V26.6218C43.2193 26.5375 43.3878 26.5375 43.5563 26.6218V28.054C43.8932 27.5485 44.146 27.043 44.483 26.6218C44.6515 26.5375 44.8199 26.6218 45.0727 26.6218V29.0649C44.9042 29.2334 44.7357 29.1492 44.5672 29.1492C44.6515 28.6437 44.6515 28.054 44.6515 27.5485Z" fill="#586386"/>
<path d="M60.1522 13.2267V14.8274C60.4892 14.2377 60.8262 13.7322 61.0789 13.2267C61.2474 13.1425 61.5002 13.1425 61.6686 13.2267V15.7541C61.5002 15.8383 61.3317 15.8383 61.1632 15.7541V14.2377C60.8262 14.7431 60.4892 15.3329 60.1522 15.8383C59.9837 15.9226 59.8152 15.8383 59.5625 15.8383V13.3952C59.8152 13.0582 59.9837 13.1425 60.1522 13.2267Z" fill="#586386"/>
<path d="M89.2179 24.5998V22.9991C88.9651 23.5889 88.6281 24.1786 88.2069 24.6841H87.6172V22.2409C87.7857 22.1567 87.9542 22.1567 88.1227 22.2409C88.2069 22.7464 88.1227 23.2519 88.2069 23.7573C88.3754 23.4204 88.6281 22.9991 88.8809 22.6621C89.0494 22.3252 89.3021 22.0724 89.7233 22.2409V24.7683C89.5548 24.6841 89.3864 24.7683 89.2179 24.5998Z" fill="#586386"/>
<path d="M67.3952 20.1348C67.2267 20.219 67.0582 20.219 66.8897 20.1348V18.6183C66.5528 19.208 66.2158 19.7135 65.8788 20.219C65.7103 20.3032 65.5418 20.219 65.2891 20.219V17.6916C65.4576 17.6074 65.626 17.6916 65.7945 17.6074V19.208C66.1315 18.6183 66.4685 18.1129 66.7212 17.6074C66.8897 17.5231 67.1425 17.5231 67.311 17.6074C67.3952 18.4498 67.3952 19.2923 67.3952 20.1348Z" fill="#586386"/>
<path d="M53.8319 19.2082C54.0004 18.8713 54.2531 18.45 54.5059 18.113C54.6744 17.7761 54.9271 17.5233 55.3483 17.6918V20.1349C55.1798 20.2192 55.0114 20.1349 54.8429 20.2192V18.5343C54.5059 19.124 54.1689 19.7137 53.8319 20.2192H53.2422V17.7761C53.3264 17.6918 53.4949 17.6918 53.7477 17.6918C53.8319 18.113 53.7477 18.6185 53.8319 19.2082Z" fill="#586386"/>
<path d="M79.6944 14.069C79.3574 14.6587 79.0205 15.1642 78.6835 15.6697C78.515 15.7539 78.3465 15.6697 78.0938 15.6697V13.1423C78.2622 13.0581 78.4307 13.1423 78.5992 13.0581V14.6587C78.9362 14.069 79.2732 13.5635 79.5259 13.0581C79.6944 12.9738 79.9472 12.9738 80.1157 13.0581V15.5854C79.9472 15.6697 79.7787 15.5854 79.6102 15.6697C79.6944 15.1642 79.6944 14.5745 79.6944 14.069Z" fill="#586386"/>
<path d="M73.293 29.1491V26.706C73.4615 26.6218 73.63 26.6218 73.7984 26.706V28.1382H73.8827C74.1354 27.6327 74.4724 27.1272 74.8094 26.706C74.9779 26.6218 75.2306 26.6218 75.3991 26.706V29.1491C75.2306 29.2334 75.0621 29.2334 74.8936 29.1491V27.5485C74.5567 28.1382 74.2197 28.6437 73.8827 29.1491C73.7984 29.2334 73.5457 29.1491 73.293 29.1491Z" fill="#586386"/>
<path d="M91.993 13.1423H92.5827V15.6697C92.4142 15.754 92.2457 15.754 92.0772 15.6697V14.1533C91.7403 14.6588 91.4033 15.1642 91.0663 15.754C90.8978 15.8382 90.7293 15.754 90.4766 15.754V13.3108C90.6451 13.2266 90.8135 13.3108 90.982 13.2266V14.8273C91.4033 14.1533 91.656 13.6478 91.993 13.1423Z" fill="#586386"/>
<path d="M46.7586 18.7868C47.0956 18.8711 47.2641 19.2081 47.1798 19.545C47.0956 19.7978 46.8429 20.0505 46.5901 20.1348C46.5059 20.1348 46.4216 20.219 46.3374 20.219H45.2422V17.9444C45.2422 17.8601 45.3264 17.6916 45.4107 17.6916C45.4107 17.6916 45.4107 17.6916 45.4949 17.6916C45.9162 17.6074 46.2531 17.6916 46.6744 17.7759C47.1798 18.0286 47.1798 18.3656 46.7586 18.7868ZM45.7477 19.1238C45.6634 19.2923 45.6634 19.545 45.7477 19.7135C46.0846 19.7978 46.4216 19.7135 46.5901 19.3766C46.4216 19.0396 46.0846 19.0396 45.7477 19.1238ZM45.7477 18.6183C45.9162 18.7026 46.1689 18.7026 46.3374 18.5341C46.4216 18.4498 46.5059 18.4498 46.5059 18.3656C46.5059 18.2814 46.3374 18.1971 46.2531 18.1129C46.0846 18.0286 45.8319 18.0286 45.7477 18.1971C45.7477 18.2814 45.6634 18.4498 45.7477 18.6183Z" fill="#586386"/>
<path d="M55.0985 23.3361C55.4354 23.4204 55.6039 23.7574 55.5197 24.0944C55.4354 24.3471 55.1827 24.5998 54.93 24.6841C54.8457 24.6841 54.7615 24.7683 54.6772 24.7683H53.582V22.4937C53.582 22.4094 53.6663 22.241 53.7505 22.241C53.7505 22.241 53.7505 22.241 53.8348 22.241C54.256 22.1567 54.593 22.241 55.0142 22.3252C55.4354 22.4937 55.5197 22.8307 55.0985 23.3361ZM54.0875 24.1786C54.4245 24.2629 54.7615 24.1786 54.93 23.9259C54.7615 23.5046 54.4245 23.5046 54.0875 23.5889C54.0033 23.7574 54.0033 24.0101 54.0875 24.1786ZM54.0875 23.0834C54.3402 23.0834 54.6772 23.1677 54.7615 22.8307C54.8457 22.7464 54.6772 22.6622 54.593 22.5779C54.4245 22.4937 54.1718 22.4937 54.0033 22.5779C54.0033 22.7464 54.0033 22.9149 54.0875 23.0834Z" fill="#586386"/>
<path d="M75.907 23.3361C76.244 23.4204 76.4125 23.7574 76.3283 24.0944C76.244 24.3471 75.9913 24.5998 75.7386 24.6841C75.6543 24.6841 75.5701 24.7683 75.4858 24.7683H74.3906V22.4937C74.3906 22.4094 74.4749 22.241 74.5591 22.241C74.5591 22.241 74.5591 22.241 74.6434 22.241C75.0646 22.1567 75.4016 22.241 75.8228 22.3252C76.244 22.4937 76.3283 22.8307 75.907 23.3361ZM74.8961 24.1786C75.2331 24.2629 75.5701 24.1786 75.7386 23.9259C75.5701 23.5046 75.2331 23.5046 74.8961 23.5889C74.8119 23.7574 74.8119 24.0101 74.8961 24.1786ZM74.8961 23.0834C75.1488 23.0834 75.4858 23.1677 75.5701 22.8307C75.6543 22.7464 75.4858 22.6622 75.4016 22.5779C75.2331 22.4937 74.9803 22.4937 74.8119 22.5779C74.8119 22.7464 74.8119 22.9149 74.8961 23.0834Z" fill="#586386"/>
<path d="M72.453 18.9554C72.2003 18.7869 71.9475 18.6184 72.0318 18.1971C72.116 17.8602 72.453 17.6074 72.8742 17.6074H73.9694V20.1348C73.8009 20.219 73.6324 20.219 73.464 20.1348C73.3797 19.7978 73.464 19.5451 73.3797 19.2081C72.8742 19.2081 72.7057 19.2923 72.5372 19.7978C72.3688 20.3033 72.3688 20.219 71.8633 20.1348C72.0318 19.7136 72.2845 19.3766 72.453 18.9554ZM73.5482 18.7026V18.1129C72.9585 18.0287 72.9585 18.0287 72.7057 18.4499C73.0427 18.7869 73.0427 18.7869 73.5482 18.7026Z" fill="#586386"/>
<path d="M73.122 13.6479C73.0377 13.4794 73.2062 13.2266 73.3747 13.1424C73.459 13.1424 73.459 13.1424 73.5432 13.1424C74.2172 13.0581 74.9754 13.3109 74.8912 14.2376V15.6698C74.6384 15.6698 74.4699 15.6698 74.3014 15.5013C74.2172 15.5855 74.0487 15.6698 73.8802 15.6698C73.459 15.8383 73.0377 15.5855 72.8693 15.2485C72.7008 14.8273 72.8693 14.4061 73.2905 14.2376C73.459 14.1533 73.6275 14.1533 73.7117 14.0691C73.796 13.9849 74.0487 14.0691 74.2172 13.9849C74.0487 13.3109 73.5432 13.7321 73.122 13.6479ZM73.3747 14.9116C73.5432 15.08 73.6275 15.3328 73.9645 15.1643C74.3014 14.9958 74.3014 14.9116 74.3014 14.4903C73.796 14.4903 73.796 14.4903 73.3747 14.9116Z" fill="#586386"/>
<path d="M84.1607 27.4641C83.9079 26.7059 83.3182 27.2956 82.9812 27.1271C82.9812 26.8744 83.0655 26.7059 83.3182 26.6216H83.4025C84.0764 26.5374 84.8347 26.7901 84.7504 27.7168V29.0648L84.6662 29.149C84.2449 28.9805 83.9079 28.9805 83.4867 29.149C83.1497 29.2333 82.8127 28.9805 82.7285 28.6435C82.6443 28.3066 82.8127 27.8853 83.1497 27.7168C83.4867 27.5483 83.8237 27.4641 84.1607 27.4641ZM83.234 28.3908C83.4025 28.5593 83.4867 28.812 83.8237 28.6435C84.1607 28.475 84.1607 28.3908 84.1607 27.9696C83.6552 27.9696 83.6552 27.9696 83.234 28.3908Z" fill="#586386"/>
<path d="M80.4535 29.0649C80.1165 29.3176 80.0323 28.8964 79.7796 28.9806C79.6111 29.0649 79.3583 29.1491 79.1898 29.1491C78.8529 29.1491 78.5159 28.8964 78.4316 28.5594C78.3474 28.2224 78.5159 27.8012 78.8529 27.6327C79.1898 27.4642 79.5268 27.3799 79.8638 27.3799C79.6111 26.6217 79.0213 27.2114 78.6844 27.043C78.6001 26.706 78.8529 26.6217 79.1056 26.5375C79.7796 26.4532 80.5378 26.6217 80.4535 27.5484V29.0649ZM79.0214 28.3909C79.2741 28.8121 79.3583 28.8121 79.5268 28.6436C79.6953 28.4751 79.8638 28.3909 79.7796 27.9697C79.3583 27.9697 79.3583 27.9697 79.0214 28.3909Z" fill="#586386"/>
<path d="M44.4827 22.9991C44.2299 22.2409 43.6402 22.8306 43.3032 22.6621C43.219 22.3251 43.4717 22.2409 43.7245 22.1566C44.3984 22.0724 45.1567 22.2409 45.0724 23.1676V24.5998C44.9882 24.5998 44.9882 24.5997 44.9882 24.684C44.7354 24.8525 44.6512 24.4313 44.4827 24.5155C44.3142 24.5998 44.1457 24.684 43.9772 24.684C43.556 24.7682 43.219 24.5155 43.1347 24.0943C43.0505 23.7573 43.219 23.4203 43.556 23.2518C43.8087 23.0833 44.1457 22.9991 44.4827 22.9991ZM43.556 23.9258C43.7245 24.0943 43.8087 24.347 44.1457 24.1785C44.3984 24.0943 44.4827 23.7573 44.3984 23.5046C44.0615 23.4203 43.8087 23.5888 43.556 23.9258Z" fill="#586386"/>
<path d="M35.8055 27.1272C35.7212 26.7902 35.9739 26.7059 36.2267 26.6217C36.9007 26.5375 37.6589 26.7059 37.5746 27.6327V29.0648C37.3219 29.3176 37.1534 29.0648 36.9849 28.9806C36.8164 29.0648 36.5637 29.1491 36.3952 29.2333C36.0582 29.2333 35.7212 29.0648 35.5527 28.7279C35.4685 28.3909 35.637 27.9696 35.9739 27.8011C36.3109 27.6327 36.6479 27.5484 36.9849 27.5484C36.9007 27.2114 36.7322 27.1272 36.4794 27.1272C36.2267 27.1272 36.0582 27.2957 35.8055 27.1272ZM36.0582 28.3909C36.2267 28.6436 36.3952 28.8121 36.6479 28.6436C36.9007 28.4751 36.9849 28.2224 36.9007 27.9696C36.5637 27.8854 36.3109 28.0539 36.0582 28.3909Z" fill="#586386"/>
<path d="M96.9686 24.5998C96.7159 24.684 96.5474 24.684 96.4631 24.4313C96.2946 24.5155 96.2104 24.5998 96.0419 24.5998C95.6207 24.684 95.1994 24.5155 95.0309 24.1785C94.8625 23.8416 95.0309 23.3361 95.3679 23.1676C95.3679 23.1676 95.3679 23.1676 95.4522 23.1676C95.7892 22.9991 96.1261 22.9148 96.4631 22.9148C96.3789 22.5779 96.2104 22.4936 95.9576 22.4936C95.7049 22.4936 95.5364 22.7464 95.2837 22.5779C95.1994 22.2409 95.4522 22.1566 95.7049 22.0724C96.3789 21.9881 97.1371 22.1566 97.0528 23.0833C96.9686 23.5888 96.9686 24.0943 96.9686 24.5998ZM95.5364 23.9258C95.7049 24.1785 95.8734 24.347 96.1261 24.1785C96.3789 24.01 96.4631 23.7573 96.3789 23.5046C96.0419 23.4203 95.7049 23.5888 95.5364 23.9258Z" fill="#586386"/>
<path d="M39.7624 18.45C39.5096 17.6918 38.9199 18.1972 38.5829 18.113C38.4987 17.9445 38.4987 17.776 38.6672 17.6918C39.0042 17.439 39.5096 17.439 39.8466 17.6918C40.1836 17.8602 40.3521 18.1972 40.2678 18.5342V20.0506C40.0151 20.2191 39.8466 20.1349 39.7624 19.8821C39.5939 19.9664 39.5096 20.0506 39.3411 20.0506C38.9199 20.2191 38.4987 19.9664 38.3302 19.6294C38.1617 19.2082 38.3302 18.7869 38.7514 18.6185C39.0884 18.5342 39.4254 18.5342 39.7624 18.45ZM38.8357 19.4609C39.0042 19.6294 39.0884 19.8821 39.4254 19.7979C39.7624 19.7137 39.7624 19.5452 39.7624 19.0397C39.4254 18.9554 39.0042 19.1239 38.8357 19.4609Z" fill="#586386"/>
<path d="M91.5725 22.9991C91.3198 22.2409 90.7301 22.7463 90.3931 22.6621C90.3088 22.2409 90.5616 22.1566 90.8143 22.1566C91.4883 22.0724 92.2465 22.2409 92.1623 23.1676V24.5998C92.078 24.5998 92.078 24.5997 92.078 24.684C91.8253 24.8525 91.741 24.4313 91.5725 24.5155C91.404 24.5998 91.2355 24.684 91.0671 24.684C90.6458 24.7682 90.3088 24.5155 90.2246 24.0943C90.1403 23.7573 90.3088 23.4203 90.6458 23.2518C90.8986 23.0833 91.2355 22.9991 91.5725 22.9991ZM91.5725 23.5046C91.2355 23.4203 90.8986 23.5888 90.7301 23.9258C91.0671 24.2628 91.0671 24.347 91.2355 24.2628C91.404 24.1785 91.5725 23.9258 91.5725 23.5046Z" fill="#586386"/>
<path d="M80.7069 24.5998C80.4541 24.684 80.2857 24.684 80.2014 24.4313C80.0329 24.5155 79.9487 24.5998 79.7802 24.5998C79.3589 24.684 78.9377 24.5155 78.7692 24.1785C78.6007 23.8416 78.7692 23.3361 79.1062 23.1676C79.1062 23.1676 79.1062 23.1676 79.1905 23.1676C79.5274 22.9991 79.8644 22.9148 80.2014 22.9148C80.1172 22.5779 79.9487 22.4936 79.6959 22.4936C79.4432 22.4936 79.2747 22.7464 79.022 22.5779C78.9377 22.2409 79.1905 22.1566 79.4432 22.0724C80.1172 21.9881 80.8754 22.1566 80.7911 23.0833C80.7069 23.5888 80.7069 24.0943 80.7069 24.5998ZM80.1172 23.5046C79.7802 23.4203 79.4432 23.5888 79.2747 23.9258C79.6117 24.2628 79.6117 24.347 79.7802 24.2628C79.9487 24.1785 80.1172 23.9258 80.1172 23.5046Z" fill="#586386"/>
<path d="M58.9707 27.8855C59.055 28.5595 58.5495 29.065 57.8755 29.1492H57.7913C57.1173 29.1492 56.5276 28.6437 56.5276 27.9698C56.5276 27.9698 56.5276 27.9698 56.5276 27.8855C56.4433 27.2116 57.0331 26.6218 57.707 26.5376H57.7913C58.4652 26.6218 58.9707 27.2116 58.9707 27.8855ZM58.381 27.8855C58.381 27.5485 58.044 27.0431 57.707 27.0431C57.2858 27.1273 57.0331 27.4643 57.0331 27.8855C57.0331 28.2225 57.37 28.728 57.707 28.728C58.1283 28.6437 58.381 28.3068 58.381 27.8855Z" fill="#586386"/>
<path d="M47.2618 14.406C47.2618 15.08 46.672 15.6697 45.9981 15.6697C45.3241 15.6697 44.7344 15.08 44.7344 14.406C44.7344 13.7321 45.3241 13.1423 45.9981 13.1423C46.672 13.1423 47.2618 13.7321 47.2618 14.406ZM46.7563 14.406C46.7563 14.069 46.4193 13.5636 46.0823 13.5636C45.6611 13.6478 45.4083 13.9848 45.4083 14.406C45.4083 14.743 45.7453 15.2485 46.0823 15.2485C46.5035 15.1642 46.7563 14.8273 46.7563 14.406Z" fill="#586386"/>
<path d="M68.4925 27.8855C68.4925 28.5595 67.9027 29.1492 67.2288 29.1492C66.5548 29.1492 65.9651 28.5595 65.9651 27.8855C65.8808 27.2116 66.4706 26.6218 67.1445 26.5376H67.2288C67.987 26.5376 68.4925 27.1273 68.4925 27.8855ZM66.5548 27.8013C66.5548 28.1383 66.7233 28.5595 67.0603 28.728C67.1445 28.8122 67.313 28.8122 67.3973 28.728C67.65 28.5595 67.9027 28.3068 67.9027 27.9698C67.9027 27.6328 67.7342 27.2958 67.3973 27.1273C67.313 27.1273 67.1445 27.0431 67.0603 27.1273C66.8075 27.2958 66.5548 27.5485 66.5548 27.8013Z" fill="#586386"/>
<path d="M53.1594 23.3362C53.2436 24.0102 52.6539 24.5999 51.9799 24.6841H51.8957C51.306 24.6841 50.7163 24.2629 50.7163 23.5889C50.7163 23.5047 50.7163 23.4204 50.7163 23.4204C50.632 22.7465 51.1375 22.1568 51.7272 22.0725C51.8114 22.0725 51.8114 22.0725 51.8957 22.0725C52.5697 22.0725 53.1594 22.578 53.1594 23.3362ZM51.2217 23.4204C51.2217 23.7574 51.4745 24.0102 51.7272 24.1787C51.8114 24.2629 51.9799 24.2629 52.0642 24.1787C52.3169 24.0102 52.5697 23.7574 52.5697 23.4204C52.5697 23.0835 52.4012 22.7465 52.0642 22.578C51.9799 22.578 51.8114 22.4937 51.7272 22.578C51.4745 22.7465 51.306 23.0835 51.2217 23.4204Z" fill="#586386"/>
<path d="M68.7461 23.4204C68.7461 24.0944 68.1564 24.6841 67.4824 24.6841C66.8085 24.6841 66.2188 24.0944 66.2188 23.4204C66.2188 22.7465 66.8085 22.1567 67.4824 22.1567C68.1564 22.1567 68.7461 22.7465 68.7461 23.4204ZM68.1564 23.4204C68.1564 23.0834 67.8194 22.578 67.4824 22.578C67.0612 22.6622 66.8085 22.9992 66.8085 23.4204C66.8085 23.7574 67.1455 24.2629 67.4824 24.2629C67.8194 24.2629 68.1564 23.7574 68.1564 23.4204Z" fill="#586386"/>
<path d="M68.0684 14.406C68.1526 15.08 67.6471 15.5855 66.9732 15.6697H66.8889C66.215 15.6697 65.6252 15.1643 65.6252 14.4903C65.6252 14.4903 65.6252 14.4903 65.6252 14.406C65.541 13.7321 66.1307 13.1424 66.8047 13.0581H66.8889C67.5629 13.1424 68.0684 13.7321 68.0684 14.406ZM67.4786 14.4903C67.4786 14.1533 67.1417 13.6478 66.8047 13.6478C66.3835 13.7321 66.1307 14.0691 66.1307 14.4903C66.1307 14.8273 66.4677 15.3327 66.8047 15.3327C67.1417 15.1643 67.3944 14.8273 67.4786 14.4903Z" fill="#586386"/>
<path d="M49.9549 18.8711C50.0391 19.5451 49.4494 20.1348 48.7754 20.219H48.6912C48.1014 20.219 47.5117 19.7978 47.5117 19.1238C47.5117 19.0396 47.5117 18.9553 47.5117 18.9553C47.5117 18.2814 48.0172 17.6917 48.6912 17.6917C49.3651 17.6917 49.9549 18.1971 49.9549 18.8711ZM49.4494 18.9553C49.4494 18.6184 49.1966 18.3656 48.9439 18.1971C48.7754 18.1129 48.6912 18.1129 48.5227 18.1971C48.1014 18.3656 47.9329 18.8711 48.1014 19.2923C48.1857 19.4608 48.3542 19.6293 48.5227 19.7136C48.6912 19.7978 48.7754 19.7978 48.9439 19.7136C49.1966 19.5451 49.4494 19.2923 49.4494 18.9553Z" fill="#586386"/>
<path d="M73.9668 23.4204C74.0511 24.0944 73.5456 24.5999 72.8716 24.6841H72.7874C72.1134 24.6841 71.5237 24.1787 71.5237 23.5047C71.5237 23.5047 71.5237 23.5047 71.5237 23.4204C71.4394 22.7465 72.0292 22.1568 72.7031 22.0725H72.7874C73.4613 22.1568 73.9668 22.7465 73.9668 23.4204ZM72.1134 23.4204C72.1134 23.7574 72.3661 24.0102 72.6189 24.1787C72.7031 24.2629 72.8716 24.2629 72.9559 24.1787C73.2086 24.0102 73.4613 23.7574 73.4613 23.4204C73.4613 23.0835 73.2928 22.7465 72.9559 22.578C72.8716 22.578 72.7031 22.4937 72.6189 22.578C72.2819 22.7465 72.1134 23.0835 72.1134 23.4204Z" fill="#586386"/>
<path d="M56.0202 29.149C55.8517 29.149 55.6832 29.2333 55.5147 29.149V28.1381C55.1778 28.0538 54.8408 28.0538 54.5038 28.0538C54.4195 28.3908 54.5038 28.7278 54.4195 29.0648C54.251 29.2333 54.0826 29.149 53.9141 29.149V26.6217C54.0826 26.5374 54.251 26.5374 54.4195 26.6217V27.4641C54.7565 27.5484 55.0935 27.5484 55.4305 27.5484C55.5147 27.2114 55.4305 26.9586 55.5147 26.6217C55.6832 26.4532 55.8517 26.5374 56.0202 26.5374V29.149Z" fill="#586386"/>
<path d="M75.9876 14.1532H76.9986C77.0828 13.8163 76.9986 13.5635 77.0828 13.2265C77.2513 13.058 77.4198 13.1423 77.5883 13.1423V15.6697C77.4198 15.7539 77.2513 15.7539 77.0828 15.6697V14.6587C76.7459 14.5745 76.4089 14.5745 76.0719 14.5745V15.5854C75.9034 15.7539 75.7349 15.6697 75.5664 15.6697V13.1423C75.7349 13.058 75.9034 13.058 76.0719 13.1423C75.9876 13.4793 75.9876 13.8163 75.9876 14.1532Z" fill="#586386"/>
<path d="M65.2078 24.5999V23.5889C64.8709 23.5047 64.6181 23.5047 64.2811 23.5047C64.1969 23.8416 64.2811 24.2629 64.1969 24.5156C64.0284 24.5999 63.8599 24.5999 63.6914 24.5156V21.9882C63.8599 21.904 64.0284 21.904 64.1969 21.9882C64.2811 22.241 64.1969 22.578 64.2811 22.9149C64.5339 22.9992 64.8709 22.9149 65.2078 22.9992C65.2921 22.6622 65.2078 22.3252 65.2921 22.0725C65.4606 21.9882 65.6291 21.9882 65.7976 21.9882V24.5156C65.6291 24.7684 65.4606 24.6841 65.2078 24.5999Z" fill="#586386"/>
<path d="M85.4259 14.5744H83.8252C83.9937 15.2484 84.2464 15.3326 85.1731 15.1641C85.2574 15.2484 85.3416 15.3326 85.3416 15.5011C85.3416 15.5854 85.3416 15.5854 85.2574 15.5854C84.9204 15.7539 84.4149 15.7539 84.0779 15.5854C83.4882 15.3326 83.1512 14.7429 83.2355 14.1532C83.404 13.395 83.9094 12.9737 84.4992 13.058C85.0889 13.1422 85.3416 13.4792 85.4259 14.0689C85.5944 14.1532 85.5944 14.4059 85.4259 14.5744ZM83.9094 14.1532H85.0046C85.0046 13.8162 84.7519 13.6477 84.4149 13.6477C84.0779 13.6477 83.9937 13.8162 83.9094 14.1532Z" fill="#586386"/>
<path d="M52.2342 14.5745H50.6335C50.802 15.2485 51.139 15.3327 51.8972 15.1643C51.9815 15.1643 51.9815 15.2485 52.0657 15.3327C52.15 15.417 52.15 15.417 52.15 15.5012C52.15 15.5855 51.9815 15.5855 51.8972 15.5855C51.3918 15.8382 50.7178 15.6697 50.3808 15.1643C50.0438 14.743 49.9596 14.1533 50.2966 13.6478C50.5493 13.2266 50.9705 13.0581 51.3918 13.0581C51.8972 13.0581 52.3185 13.4793 52.3185 14.0691C52.3185 14.2376 52.4027 14.406 52.2342 14.5745ZM51.813 14.1533C51.6445 13.8163 51.476 13.5636 51.2233 13.6478C50.9705 13.6478 50.802 13.9006 50.802 14.1533H51.813Z" fill="#586386"/>
<path d="M40.1843 15.5854C39.763 15.7539 39.3418 15.8381 38.9206 15.6697C38.4151 15.5012 38.0781 14.9957 38.0781 14.406C38.2466 13.5635 38.4151 13.3108 39.1733 13.1423C39.9315 12.9738 40.1 13.4793 40.2685 14.1532V14.5745C39.6788 14.6587 39.1733 14.6587 38.5836 14.6587C38.7521 15.2484 39.0891 15.4169 39.5946 15.2484C40.1 15.0799 40.1 15.2484 40.1843 15.5854ZM38.6678 14.1532C39.0891 14.069 39.4261 14.1532 39.763 14.069C39.763 13.8162 39.5946 13.5635 39.2576 13.5635C38.9206 13.5635 38.7521 13.8162 38.6678 14.1532Z" fill="#586386"/>
<path d="M53.5812 28.0539H51.9805C52.0648 28.7279 52.4017 28.8122 53.2442 28.6437C53.3285 28.6437 53.3285 28.7279 53.4127 28.8122C53.4969 28.8964 53.4969 28.8964 53.4969 28.9806C53.2442 29.1491 52.9072 29.2334 52.5702 29.1491C51.9805 29.1491 51.5593 28.7279 51.3908 28.2224C51.3066 27.6327 51.5593 26.9587 52.149 26.706C52.9915 26.369 53.4127 26.8745 53.5812 27.6327V28.0539ZM51.8963 27.6327C52.2333 27.717 52.6545 27.6327 52.9915 27.5485C52.9915 27.2115 52.7387 27.043 52.4017 27.043C52.149 27.043 51.9805 27.2957 51.8963 27.6327Z" fill="#586386"/>
<path d="M79.9493 19.1239H78.3486C78.5171 19.7978 78.7699 19.8821 79.6966 19.7136C79.7808 19.7978 79.8651 19.8821 79.8651 20.0506C79.8651 20.1348 79.865 20.1348 79.7808 20.1348C79.4438 20.3033 78.9383 20.3033 78.6014 20.1348C78.0116 19.9663 77.6747 19.3766 77.7589 18.7869C77.8432 18.1129 78.4329 17.6074 79.1068 17.6074C79.6123 17.6074 79.8651 18.0287 80.0335 18.6184C80.0335 18.7869 80.0335 18.9554 79.9493 19.1239ZM79.4438 18.6184C79.4438 18.3656 79.2753 18.1129 78.9383 18.1129C78.6014 18.1129 78.5171 18.3656 78.4329 18.6184H79.4438Z" fill="#586386"/>
<path d="M64.9532 19.1239H63.3525C63.521 19.7978 63.6895 19.8821 64.7005 19.7136C64.7847 19.7978 64.869 19.8821 64.869 20.0506C64.869 20.1348 64.869 20.1348 64.7847 20.1348C64.4477 20.3033 63.9423 20.3033 63.6053 20.1348C63.0155 19.9663 62.6786 19.3766 62.7628 18.7869C62.8471 18.1129 63.4368 17.6074 64.1107 17.6074C64.6162 17.6074 64.869 18.0287 65.0375 18.6184C65.0375 18.7869 65.0375 18.9554 64.9532 19.1239ZM64.4477 18.6184C64.3635 18.1971 64.195 18.0287 63.858 18.1129C63.521 18.1971 63.4368 18.3656 63.4368 18.6184H64.4477Z" fill="#586386"/>
<path d="M63.3529 23.5888H61.7523C61.8365 24.2628 62.1735 24.3471 63.016 24.1786C63.1002 24.2628 63.1844 24.3471 63.1844 24.5156C62.9317 24.684 62.5947 24.7683 62.2577 24.684C61.668 24.684 61.2468 24.2628 61.0783 23.7573C60.9941 23.1676 61.2468 22.4937 61.8365 22.2409C62.5947 21.9039 63.1002 22.4094 63.2687 23.1676C63.3529 23.2519 63.3529 23.3361 63.3529 23.5888ZM62.7632 23.0834C62.7632 22.7464 62.5105 22.5779 62.1735 22.5779C61.8365 22.5779 61.7523 22.8306 61.668 23.0834C62.005 23.1676 62.4262 23.1676 62.7632 23.0834Z" fill="#586386"/>
<path d="M59.8998 19.0398H58.2991C58.3834 19.7137 58.7204 19.798 59.5628 19.6295C59.6471 19.7137 59.7313 19.798 59.7313 19.9665C59.4786 20.135 59.1416 20.2192 58.8046 20.135C58.2149 20.135 57.7937 19.7137 57.6252 19.2083C57.5409 18.6185 57.7937 17.9446 58.3834 17.6918C59.1416 17.3549 59.6471 17.8603 59.8156 18.6185C59.8998 18.787 59.8998 18.8713 59.8998 19.0398ZM59.3101 18.6185C59.3101 18.2816 59.0573 18.1131 58.7204 18.1131C58.3834 18.1131 58.2991 18.3658 58.2149 18.6185H59.3101Z" fill="#586386"/>
<path d="M40.9425 23.5888H39.3418C39.5103 24.2628 39.763 24.347 40.6898 24.1785C40.774 24.2628 40.8582 24.347 40.8582 24.5155C40.8582 24.5998 40.8582 24.5998 40.774 24.5998C40.437 24.7683 39.9315 24.7683 39.5946 24.5998C39.0048 24.4313 38.6678 23.7573 38.8363 23.1676C39.0048 22.4094 39.5103 21.9882 40.1 22.0724C40.6898 22.1566 40.9425 22.4936 41.0267 23.0833C41.0267 23.2518 41.0267 23.4203 40.9425 23.5888ZM39.3418 23.0833H40.437C40.3528 22.7464 40.1843 22.5779 39.9315 22.5779C39.6788 22.5779 39.4261 22.8306 39.3418 23.0833Z" fill="#586386"/>
<path d="M92.8398 22.1567C93.0083 22.0724 93.1768 22.0724 93.3453 22.1567C93.4296 22.4094 93.3453 22.7464 93.4296 23.1676C93.6823 22.8307 93.935 22.4937 94.272 22.1567H94.946C94.609 22.5779 94.272 22.9149 93.935 23.2519C94.5248 23.5046 94.6933 24.0943 94.946 24.5998C94.7775 24.6841 94.5248 24.6841 94.3563 24.6841C94.1035 24.3471 94.0193 23.7574 93.4296 23.6731C93.2611 24.0101 93.4296 24.3471 93.3453 24.5998C93.1768 24.6841 93.0083 24.5998 92.8398 24.5998V22.1567Z" fill="#586386"/>
<path d="M69.3336 29.1491C69.1651 29.2334 68.9966 29.2334 68.8281 29.2334V26.706C68.9966 26.6218 69.1651 26.6218 69.3336 26.706V27.6327C69.6706 27.5485 69.8391 27.1272 70.0076 26.9587C70.2603 26.6218 70.5973 26.6218 71.0185 26.706C70.5131 27.043 70.3446 27.4642 69.9233 27.8012C70.5973 28.0539 70.6815 28.6437 70.9343 29.1491C70.6815 29.2334 70.513 29.2334 70.2603 29.2334C70.0076 28.8122 69.9233 28.3067 69.3336 28.2224C69.4179 28.5594 69.4179 28.8122 69.3336 29.1491Z" fill="#586386"/>
<path d="M88.7125 13.2265V14.1532C89.0495 13.8162 89.3865 13.4792 89.6392 13.1422C89.892 13.058 90.1447 13.1422 90.3132 13.2265C89.892 13.5635 89.7235 13.9847 89.3022 14.3217C89.892 14.5744 90.0604 15.1641 90.3132 15.6696C90.1447 15.7538 89.892 15.7538 89.7235 15.7538C89.4707 15.3326 89.3865 14.8271 88.7968 14.7429C88.7125 15.0799 88.7968 15.3326 88.7125 15.6696C88.544 15.8381 88.3755 15.7538 88.207 15.7538V13.2265C88.3755 13.058 88.544 13.058 88.7125 13.2265Z" fill="#586386"/>
<path d="M44.0611 13.1423C44.3138 13.0581 44.5666 13.1423 44.7351 13.2266C44.3138 13.5635 44.1453 13.9848 43.7241 14.3218C44.3981 14.5745 44.4823 15.1642 44.7351 15.6697C44.5666 15.7539 44.3138 15.8382 44.1453 15.7539C43.8926 15.3327 43.8084 14.8272 43.2186 14.743C43.1344 15.08 43.2186 15.3327 43.1344 15.6697C42.9659 15.8382 42.7974 15.7539 42.6289 15.7539V13.2266C42.7974 13.1423 42.9659 13.1423 43.1344 13.2266V14.1533C43.4714 13.8163 43.8084 13.4793 44.0611 13.1423Z" fill="#586386"/>
<path d="M42.7959 29.149C42.5431 29.2332 42.3746 29.2332 42.1219 29.149C41.9534 28.7277 41.7849 28.2223 41.1952 28.138C41.1109 28.475 41.1952 28.812 41.1109 29.0647C41.0267 29.3175 40.774 29.149 40.6055 29.149V26.6216C40.774 26.5373 40.9425 26.5373 41.1109 26.6216V27.5483C41.5322 27.2956 41.7007 26.8743 42.0377 26.5373C42.2904 26.4531 42.5431 26.5373 42.7116 26.6216C42.2904 26.9586 42.1219 27.3798 41.7007 27.7168C42.4589 28.0538 42.5431 28.5592 42.7959 29.149Z" fill="#586386"/>
<path d="M45.4081 29.1492C45.3238 28.9807 45.408 28.728 45.5765 28.6437C45.8293 28.4752 45.8293 28.1382 45.8293 27.8855V26.7061C46.419 26.7061 47.0087 26.7061 47.5984 26.7061V29.2334C47.43 29.3177 47.2615 29.3177 47.093 29.2334C47.0087 28.5595 47.093 27.8855 47.0087 27.2115C46.8402 27.1273 46.5875 27.1273 46.419 27.1273C46.3348 27.4643 46.2505 27.717 46.3348 28.054C46.3348 28.4752 46.1663 28.8964 45.8293 29.1492C45.745 29.1492 45.5765 29.2334 45.4081 29.1492Z" fill="#586386"/>
<path d="M49.5348 15.6697C49.3663 15.754 49.1978 15.754 49.0293 15.6697V13.6478C48.7766 13.5636 48.6081 13.5636 48.3554 13.5636V14.5745C48.3554 14.9957 48.1869 15.3327 47.8499 15.5855C47.6814 15.6697 47.5129 15.754 47.3444 15.6697C47.2602 15.5012 47.2602 15.2485 47.4286 15.1642C47.6814 14.9115 47.7656 14.5745 47.7656 14.2375V13.1423H49.5348V15.6697Z" fill="#586386"/>
<path d="M78.0114 26.6216V29.0648C77.8429 29.149 77.6744 29.149 77.5059 29.0648V27.0428C77.2531 26.9586 77.0847 26.9586 76.8319 26.9586V27.8853C76.8319 28.3065 76.6634 28.6435 76.3264 28.8963C76.1579 29.0648 76.0737 29.0648 75.821 28.9805C75.7367 28.812 75.7367 28.5593 75.9052 28.475C76.1579 28.2223 76.2422 27.8853 76.2422 27.5483V26.4531C76.8319 26.6216 77.4216 26.6216 78.0114 26.6216Z" fill="#586386"/>
<path d="M37.8288 29.149C37.7445 28.9805 37.7445 28.7277 37.913 28.6435C38.1658 28.3907 38.25 28.138 38.25 27.801V26.6216C38.8397 26.6216 39.4294 26.6216 40.0192 26.6216V29.149C39.8507 29.3175 39.6822 29.2332 39.5137 29.2332V27.2113C39.261 27.0428 39.0925 27.1271 38.8397 27.1271C38.7555 27.464 38.7555 27.7168 38.7555 28.0538C38.7555 28.475 38.587 28.8962 38.25 29.149C38.0815 29.2332 37.9973 29.2332 37.8288 29.149Z" fill="#586386"/>
<path d="M35.4694 15.6697C35.3852 15.5012 35.3852 15.2485 35.5536 15.1642C35.8064 14.9115 35.9749 14.4903 35.8906 14.1533V13.1423H37.6598V15.6697C37.4913 15.754 37.3228 15.6697 37.1543 15.754V13.7321C36.9016 13.5636 36.7331 13.6478 36.4804 13.6478C36.3961 13.9848 36.4804 14.3218 36.3961 14.5745C36.3961 14.9957 36.2276 15.417 35.8906 15.6697C35.7221 15.754 35.6379 15.754 35.4694 15.6697Z" fill="#586386"/>
<path d="M59.476 26.6216H61.2452V29.0647C61.0767 29.2332 60.9082 29.149 60.7397 29.149C60.6555 28.475 60.7397 27.7168 60.6555 27.1271C60.487 27.0428 60.2342 27.0428 60.0658 27.0428C59.9815 27.3798 59.9815 27.6325 59.9815 27.9695C59.9815 28.3907 59.813 28.812 59.476 29.0647C59.3075 29.149 59.139 29.2332 58.9706 29.149C58.8863 28.9805 58.9705 28.7277 59.139 28.6435C59.3918 28.475 59.3918 28.138 59.3918 27.8853C59.476 27.464 59.476 27.0428 59.476 26.6216Z" fill="#586386"/>
<path d="M60.4883 17.6917H62.2575V20.1348C62.1732 20.3033 62.0047 20.219 61.752 20.219V18.1971C61.4992 18.1129 61.3307 18.1129 61.078 18.1971V19.1238C61.078 19.5451 60.9095 19.882 60.5725 20.1348C60.404 20.219 60.2355 20.3033 60.0671 20.219C59.9828 20.0505 59.9828 19.7978 60.1513 19.7136C60.404 19.4608 60.4883 19.1238 60.4883 18.7868V17.6917Z" fill="#586386"/>
<path d="M71.0192 22.1567V24.5999C70.8507 24.7684 70.6822 24.6841 70.5137 24.6841V22.6622C70.261 22.578 70.0925 22.578 69.8397 22.578V23.5889C69.8397 24.0102 69.6712 24.3471 69.3343 24.5999C69.1658 24.7684 69.0815 24.7684 68.8288 24.6841C68.7445 24.5156 68.7445 24.2629 68.913 24.1786C69.1658 23.9259 69.25 23.5889 69.25 23.2519V22.1567H71.0192Z" fill="#586386"/>
<path d="M81.8887 18.1129C81.636 18.0287 81.4675 18.0287 81.2147 18.1129V19.0396C81.2147 19.4608 81.0462 19.7978 80.7093 20.0506C80.5408 20.1348 80.3723 20.219 80.2038 20.1348C80.1195 19.9663 80.1195 19.7136 80.288 19.6293C80.5408 19.3766 80.625 19.0396 80.625 18.7026V17.6074H82.3942V20.0506C82.3099 20.219 82.1414 20.1348 81.8887 20.1348V18.1129Z" fill="#586386"/>
<path d="M48.2734 22.1567H50.0426V24.6841C49.8741 24.7684 49.7056 24.7684 49.5371 24.6841V22.6622C49.2844 22.4937 49.1159 22.578 48.8632 22.578V23.5047C48.8632 23.9259 48.6947 24.2629 48.3577 24.5156C48.1892 24.6841 48.1049 24.6841 47.8522 24.5999C47.768 24.4314 47.768 24.1786 47.9365 24.0944C48.1892 23.8417 48.3577 23.5047 48.2734 23.1677V22.1567Z" fill="#586386"/>
<path d="M45.4108 24.6841C45.3266 24.5156 45.3266 24.2629 45.4951 24.1786C45.7478 23.9259 45.832 23.5889 45.832 23.2519V22.1567H47.6012V24.5999C47.4327 24.6841 47.2642 24.6841 47.0957 24.5999V22.578C46.843 22.4937 46.6745 22.4937 46.4218 22.4937V23.4204C46.4218 23.8417 46.2533 24.1786 45.9163 24.4314C45.7478 24.6841 45.6635 24.6841 45.4108 24.6841Z" fill="#586386"/>
<path d="M87.6146 17.6074H88.2043C87.9516 18.0287 87.6989 18.4499 87.3619 18.7869L88.1201 20.0506C87.9516 20.2191 87.6989 20.1348 87.5304 20.1348C87.3619 19.8821 87.2776 19.5451 87.0249 19.3766C86.6879 19.6293 86.6879 20.3876 85.9297 20.0506C86.1824 19.6293 86.4352 19.2081 86.7721 18.7869C86.5194 18.3657 86.2667 17.9444 85.9297 17.6074C86.0982 17.5232 86.3509 17.5232 86.5194 17.5232C86.7721 17.7759 86.8564 18.1129 87.1091 18.2814C87.2776 18.1129 87.5304 17.8602 87.6146 17.6074Z" fill="#586386"/>
<path d="M62.0898 13.2266C62.2583 13.1423 62.5111 13.1423 62.6796 13.1423C62.9323 13.3951 63.0166 13.7321 63.2693 13.9005C63.4378 13.7321 63.6063 13.4793 63.6905 13.2266C63.859 13.1423 64.1118 13.2266 64.3645 13.2266C64.1118 13.6478 63.7748 13.9848 63.522 14.406L64.2802 15.6697C64.1118 15.8382 63.859 15.754 63.6905 15.754C63.522 15.5012 63.4378 15.1642 63.185 14.9957C62.8481 15.2485 62.8481 16.0067 62.0898 15.6697C62.3426 15.2485 62.5953 14.8273 62.9323 14.406C62.5953 13.9848 62.3426 13.5636 62.0898 13.2266Z" fill="#586386"/>
<path d="M95.2825 13.2267C95.0297 13.648 94.777 13.9849 94.5242 14.4062C94.777 14.8274 95.0297 15.2486 95.3667 15.6699C95.114 15.7541 94.9455 15.7541 94.6927 15.7541C94.5242 15.5014 94.3557 15.2486 94.1873 14.9959C93.766 15.1644 93.8503 16.0068 93.0921 15.7541C93.2605 15.3329 93.6818 14.9116 93.8503 14.4904C93.5975 14.0692 93.3448 13.7322 93.0078 13.3952C93.1763 13.2267 93.429 13.311 93.5975 13.311C93.8503 13.5637 93.9345 13.9007 94.1873 14.0692C94.44 13.9007 94.5242 13.5637 94.6927 13.311C94.8612 13.1425 95.114 13.1425 95.2825 13.2267Z" fill="#586386"/>
<path d="M82.9805 17.6917C83.149 17.6917 83.3175 17.6075 83.4859 17.6917C83.5702 17.9445 83.4859 18.1972 83.5702 18.45C83.8229 18.6184 84.1599 18.45 84.4969 18.6184C84.7496 18.7027 85.0024 18.9554 85.0024 19.2924C85.0024 19.6294 84.7496 19.8821 84.4969 20.0506C83.9914 20.2191 83.4859 20.2191 82.9805 20.1349V17.6917ZM83.5702 19.0397C83.4859 19.2924 83.4859 19.5452 83.5702 19.7979C83.8229 19.8821 84.0757 19.7979 84.2442 19.6294C84.4127 19.4609 84.4127 19.2924 84.2442 19.2082C84.0757 18.9554 83.8229 18.9554 83.5702 19.0397Z" fill="#586386"/>
<path d="M61.8374 28.6438C62.6798 28.8123 62.9326 28.8123 63.1853 28.2225H62.0901C61.9216 28.054 62.0058 27.9698 62.0058 27.8013C62.3428 27.7171 62.7641 27.8013 63.1853 27.7171C62.9326 27.1273 62.7641 27.0431 61.8374 27.1273C61.7531 27.0431 61.7531 26.8746 61.8374 26.7903C62.1743 26.6219 62.5956 26.5376 62.9325 26.7061C63.5223 26.8746 63.9435 27.4643 63.8593 28.1383C63.775 28.728 63.2695 29.2335 62.6798 29.2335H62.0901C61.8374 29.065 61.6689 28.8965 61.8374 28.6438Z" fill="#586386"/>
<path d="M80.7891 13.2265C80.9576 13.1423 81.126 13.1423 81.2945 13.1423C81.3788 13.395 81.3788 13.5635 81.3788 13.8163C81.3788 14.4902 81.6315 14.6587 82.3055 14.2375V13.1423C82.474 13.058 82.6425 13.058 82.811 13.1423V15.5854C82.6425 15.6697 82.474 15.6697 82.3055 15.5854C82.137 15.3327 82.3055 14.9957 82.2212 14.743C81.9685 14.8272 81.8 14.8272 81.5473 14.8272C81.126 14.8272 80.7891 14.4902 80.7891 14.069C80.7891 14.069 80.7891 13.2265 80.7891 13.2265Z" fill="#586386"/>
<path d="M57.0352 13.2266C57.2036 13.1423 57.3721 13.1423 57.5406 13.1423C57.5406 13.2266 57.6249 13.2266 57.6249 13.3108V13.8163C57.6249 14.4903 57.8776 14.6588 58.5516 14.3218V13.2266C58.7201 13.1423 58.8886 13.1423 59.0571 13.2266V15.6697C58.8886 15.8382 58.7201 15.754 58.5516 15.754C58.3831 15.5012 58.5516 15.1642 58.4673 14.9115C58.2989 14.9957 58.0461 14.9957 57.8776 14.9957C57.4564 14.9957 57.1194 14.6588 57.1194 14.2375C57.0352 13.9005 57.0352 13.5636 57.0352 13.2266Z" fill="#586386"/>
<path d="M42.7967 17.776C42.7967 17.9444 42.7125 18.0287 42.6282 18.1129C42.2912 17.9444 41.7858 18.0287 41.533 18.3657C41.2803 18.6184 41.2803 19.1239 41.533 19.3766C41.7858 19.7136 42.0385 19.7979 42.6282 19.6294C42.7125 19.6294 42.7125 19.7136 42.7967 19.7979C42.881 19.8821 42.881 19.8821 42.881 19.9664C42.881 20.0506 42.6282 20.1348 42.544 20.2191C41.87 20.3876 41.1118 20.0506 40.8591 19.2924C40.6906 18.8712 40.8591 18.3657 41.1961 18.0287C41.6173 17.6075 42.2913 17.5232 42.7967 17.776Z" fill="#586386"/>
<path d="M87.7805 13.3109C87.7805 13.4794 87.6962 13.5636 87.612 13.6479C87.1908 13.4794 86.7695 13.5636 86.5168 13.9848C86.3483 14.2376 86.3483 14.6588 86.5168 14.9115C86.7695 15.3328 87.0223 15.3328 87.612 15.1643C87.6962 15.2485 87.6962 15.3328 87.7805 15.417V15.5013C87.1908 15.8382 86.4325 15.754 86.0113 15.2485C85.5901 14.743 85.6743 13.9848 86.0956 13.5636C86.5168 13.1424 87.1908 13.0581 87.7805 13.3109Z" fill="#586386"/>
<path d="M72.8698 28.6435C72.954 28.7278 73.0383 28.812 73.0383 28.9805C72.4486 29.3175 71.6904 29.2332 71.2691 28.7278C70.8479 28.2223 70.9321 27.4641 71.3534 27.0429C71.7746 26.6216 72.4486 26.5374 73.0383 26.7901C73.0383 26.9586 72.954 27.0429 72.8698 27.1271C72.4486 26.9586 72.0273 27.0429 71.7746 27.4641C71.6061 27.7168 71.6061 28.1381 71.7746 28.3908C72.0273 28.7278 72.2801 28.812 72.8698 28.6435Z" fill="#586386"/>
<path d="M41.0273 22.4937V22.1567H43.0492C43.1335 22.241 43.1335 22.4095 43.1335 22.4937C42.8808 22.578 42.628 22.4937 42.3753 22.578V24.5156C42.2068 24.6841 42.0383 24.5999 41.7856 24.5999V22.578C41.5328 22.4937 41.2801 22.6622 41.0273 22.4937Z" fill="#586386"/>
<path d="M65.1237 29.149C64.9553 29.2332 64.7025 29.2332 64.534 29.149V27.1271C64.2813 26.9586 64.0286 27.1271 63.8601 27.0428C63.7758 26.8743 63.7758 26.7901 63.8601 26.6216H65.882C65.9662 26.7901 65.9662 26.8743 65.882 26.9586C65.7977 27.0428 65.4607 26.9586 65.208 27.0428C65.1237 27.7168 65.1237 28.475 65.1237 29.149Z" fill="#586386"/>
<path d="M71.19 20.1348C71.0215 20.219 70.7688 20.219 70.6003 20.1348C70.516 19.4608 70.6003 18.7869 70.516 18.1129C70.2633 18.0287 70.0948 18.1129 69.8421 18.0287C69.7578 17.9444 69.7578 17.7759 69.7578 17.6074H71.7797C71.864 17.6917 71.864 17.8602 71.7797 17.9444C71.6112 18.0287 71.3585 17.9444 71.1057 18.0287C71.19 18.7026 71.19 19.4608 71.19 20.1348Z" fill="#586386"/>
<path d="M56.9498 18.1129V20.0506C56.7813 20.219 56.6128 20.1348 56.4444 20.1348C56.3601 19.4608 56.4444 18.7869 56.3601 18.1129C56.1074 18.0287 55.9389 18.1129 55.6861 18.0287C55.4334 17.9444 55.6019 17.7759 55.6019 17.6074H57.6238C57.708 17.6917 57.708 17.8602 57.6238 17.9444C57.4553 18.1129 57.2026 18.0287 56.9498 18.1129Z" fill="#586386"/>
<path d="M81.8855 29.149C81.717 29.149 81.5485 29.2332 81.38 29.149V27.2113C81.1273 27.0428 80.8745 27.1271 80.6218 27.0428C80.5375 26.8743 80.5375 26.7901 80.6218 26.6216H82.6437C82.7279 26.7901 82.7279 26.8743 82.6437 26.9586C82.5594 27.0428 82.2225 26.9586 81.9697 27.0428C81.8855 27.7168 81.9697 28.475 81.8855 29.149Z" fill="#586386"/>
<path d="M42.9655 18.0286C42.8813 17.8601 42.8813 17.7759 42.9655 17.6917H44.9874C45.0717 17.8601 45.0717 17.9444 44.9874 18.1129H44.3135C44.2292 18.7868 44.3135 19.4608 44.2292 20.1348C44.0607 20.219 43.8922 20.219 43.7237 20.1348V18.1971C43.471 18.0286 43.2183 18.1129 42.9655 18.0286Z" fill="#586386"/>
<path d="M42.2078 13.1423C42.2921 13.3108 42.2921 13.3951 42.2078 13.5636H41.2811V15.5855C41.1126 15.6697 40.8599 15.6697 40.6914 15.5855V13.1423H42.2078Z" fill="#586386"/>
<path d="M71.8609 13.5636V15.5855C71.6925 15.6697 71.524 15.6697 71.3555 15.5855V13.1424C71.8609 13.0581 72.3664 13.1424 72.7877 13.0581C72.9561 13.2266 72.8719 13.3108 72.7877 13.4793C72.4507 13.5636 72.1979 13.5636 71.8609 13.5636Z" fill="#586386"/>
<path d="M85.5914 17.6074V20.1348C85.4229 20.219 85.2544 20.219 85.0859 20.1348V17.6917C85.2544 17.6074 85.4229 17.6917 85.5914 17.6074Z" fill="#586386"/>
<path d="M56.7001 23.9259C56.3632 24.4313 56.5317 25.1053 55.7734 25.2738C55.7734 24.8526 55.9419 24.5156 55.9419 24.1786C55.9419 23.8416 56.2789 23.9259 56.7001 23.9259Z" fill="#586386"/>
<path d="M77.4228 24.01C77.2543 24.347 77.1701 24.7682 77.0016 25.1052C76.8331 25.4422 76.7488 25.358 76.4961 25.2737C76.5803 25.021 76.6646 24.684 76.6646 24.4313C76.9173 23.8415 76.8331 23.8415 77.4228 24.01Z" fill="#586386"/>
<path d="M98.2314 23.9258C98.0629 24.347 97.9787 24.684 97.8102 25.021C97.6417 25.358 97.5574 25.2737 97.3047 25.1895C97.3889 24.9367 97.4732 24.5997 97.4732 24.347C97.6417 23.9258 97.6417 23.9258 98.2314 23.9258Z" fill="#586386"/>
<path d="M67.9023 20.7244C67.9866 20.4717 68.0708 20.1347 68.0708 19.8819C68.1551 19.3765 68.1551 19.3765 68.7448 19.4607C68.6606 19.7977 68.4921 20.2189 68.3236 20.5559C68.3236 20.8086 68.1551 20.8086 67.9023 20.7244Z" fill="#586386"/>
<path d="M66.3849 17.1019C66.6376 16.9334 66.7219 16.5964 67.0589 16.7649C66.9746 17.2704 66.8904 17.3546 66.4692 17.4389C66.0479 17.5231 65.8794 17.3546 65.7109 16.8492C66.0479 16.5122 66.2164 16.9334 66.3849 17.1019Z" fill="#586386"/>
<path d="M85.5089 28.3909C85.8458 28.7279 85.9301 28.9806 85.7616 29.0648C85.6774 29.2333 85.4246 29.2333 85.3404 29.1491C85.3404 29.1491 85.3404 29.1491 85.2561 29.0648C85.0876 28.8963 85.1719 28.7279 85.5089 28.3909Z" fill="#586386"/>
</svg>
