<svg width="100" height="99" viewBox="0 0 100 99" fill="none" xmlns="http://www.w3.org/2000/svg">
<path d="M11.3474 72.8683C11.6998 73.4321 11.4884 74.1368 10.9951 74.4187C10.4313 74.7711 9.72655 74.5596 9.37419 74.0663C9.02183 73.5026 9.23325 72.7978 9.72655 72.516C10.2903 72.1636 10.9951 72.375 11.3474 72.8683ZM23.9619 84.0029L20.1564 88.3722L19.5222 87.8789L22.8344 84.0734L20.086 81.8183L16.7738 85.6238L16.1395 85.1305L19.945 80.7612L23.9619 84.0029ZM25.7237 85.2009L29.7406 87.5265L29.3178 88.1608L26.0761 86.1875L25.16 87.597L28.1903 89.4997L27.7674 90.134L24.6667 88.3017L23.68 89.8521L26.9922 91.8253L26.5694 92.4596L22.5525 90.0635L25.7237 85.2009ZM29.8816 94.0099L29.1064 93.7281L31.3615 88.4427L33.828 89.4293C35.167 89.993 35.5898 90.6978 35.167 91.8253C34.6737 92.8824 33.828 93.0938 32.4891 92.53L30.7977 91.8253L29.8816 94.0099ZM31.0796 91.1911L32.4891 91.7548C33.5461 92.1777 34.1099 92.1072 34.3918 91.473C34.6737 90.6978 34.3213 90.3454 33.3347 89.9226L31.8548 89.2883L31.0796 91.1911ZM37.5631 90.7682L42.0733 91.8958L41.8619 92.6005L38.1268 91.6844L37.704 93.3052L41.2276 94.1509L41.0162 94.8556L37.5631 94.0099L37.1402 95.7717L40.9457 96.6879L40.7343 97.3926L36.1536 96.2651L37.5631 90.7682ZM43.9056 92.1777L47.1473 92.4596C48.2748 92.53 48.9091 93.1643 48.7681 94.0804C48.6977 94.7147 48.3453 95.067 47.711 95.2784C48.4158 95.4899 48.7681 95.9832 48.6977 96.6879C48.5567 97.8154 47.852 98.3088 46.4426 98.1678L43.2713 97.8859L43.9056 92.1777ZM44.2579 97.1812L46.4426 97.3926C47.3587 97.4631 47.852 97.3221 47.9225 96.6879C47.9929 95.9832 47.6406 95.7013 46.7244 95.6308L44.4693 95.4194L44.2579 97.1812ZM44.5398 94.6442L46.5835 94.8556C47.4996 94.9261 47.9225 94.7851 47.9929 94.1509C48.0634 93.5871 47.711 93.3052 46.9359 93.2348L44.6807 93.0233L44.5398 94.6442ZM52.2917 98.3088H51.4461L51.3051 92.6005H52.1508L52.2917 98.3088ZM56.2382 98.0269L55.3925 98.1678L54.5468 92.53L57.2248 92.1777C58.6342 91.9663 59.4094 92.3891 59.6208 93.5871C59.7618 94.7147 59.1275 95.3489 57.7181 95.5603L55.8858 95.8422L56.2382 98.0269ZM55.8153 95.067L57.3657 94.8556C58.4933 94.7147 58.9866 94.3623 58.8456 93.6576C58.7047 92.8824 58.2114 92.671 57.0838 92.8119L55.5335 93.0233L55.8153 95.067ZM61.1712 91.473L65.611 90.2045L65.8224 90.9092L62.1578 91.9663L62.6511 93.5871L66.1043 92.6005L66.3157 93.3052L62.8626 94.2918L63.3559 96.0536L67.0909 94.9966L67.3023 95.7013L62.7921 97.0402L61.1712 91.473ZM69.1346 91.1911L72.3763 89.7112L71.3897 87.6675L72.1649 87.3151L74.7019 92.4596L73.9267 92.8119L72.7287 90.3454L69.4869 91.8253L70.685 94.2918L69.9098 94.6442L67.3728 89.4997L68.148 89.1474L69.1346 91.1911ZM76.1818 84.5667C77.8027 83.4391 79.494 83.721 80.5511 85.2009C81.6082 86.6809 81.3263 88.3017 79.7054 89.4997C78.0845 90.6273 76.3932 90.3454 75.3361 88.8655C74.2791 87.3856 74.5609 85.6942 76.1818 84.5667ZM79.2826 88.8655C80.4806 88.0198 80.692 86.8218 79.8464 85.6942C79.0007 84.5667 77.8027 84.3553 76.6046 85.2009C75.4066 86.0466 75.1952 87.1742 76.0409 88.3722C76.8865 89.4997 78.0845 89.7111 79.2826 88.8655ZM81.89 83.0163L80.4101 81.4659L81.1149 80.8317L82.5948 82.382L83.9337 84.1439L83.5814 84.4962L81.89 83.0163ZM83.7223 84.9895L84.427 84.3553L85.0613 85.06L84.3566 85.6942L83.7223 84.9895ZM89.9943 72.7978C90.3467 72.3045 91.0514 72.0931 91.6152 72.4455C92.179 72.7978 92.3199 73.5026 91.9676 73.9959C91.6152 74.5596 90.9105 74.7006 90.3467 74.3482C89.8534 73.9959 89.7125 73.2911 89.9943 72.7978Z" fill="#586386"/>
<path d="M0.563777 56.0958L1.83228 55.814L2.46653 58.8443L7.32911 57.8577L7.61099 59.3376L1.47992 60.6061L0.563777 56.0958ZM6.34249 50.6695L6.41297 52.2199L0.140944 52.6427L0.0704722 51.0923L6.34249 50.6695ZM0.63425 40.9443L6.8358 41.5081L6.69486 43.0585L1.7618 42.5652L1.40944 45.525L6.34249 46.0183L6.20155 47.5687L0 46.864L0.63425 40.9443ZM6.76533 30.8668C8.66808 31.5011 9.44327 33.1924 8.66808 35.377C7.96336 37.4912 6.20155 38.4073 4.36927 37.8436C2.46653 37.2093 1.69133 35.518 2.46653 33.3333C3.24172 31.1487 4.93305 30.2326 6.76533 30.8668ZM4.93305 36.1522C6.13108 36.5046 7.04722 36.0817 7.47005 34.8837C7.89288 33.7562 7.39958 32.7696 6.20155 32.4172C5.00352 32.0648 4.08739 32.4877 3.66455 33.6857C3.31219 34.8133 3.8055 35.7999 4.93305 36.1522ZM6.69486 24.5948L7.47005 23.3263L14.3059 24.031L13.3897 25.5109L11.9803 25.2995L10.5708 27.6251L11.4165 28.7526L10.5708 30.1621L6.69486 24.5948ZM10.5708 25.1586L8.45666 24.8767L9.72516 26.4975L10.5708 25.1586ZM15.9972 13.0374L20.5074 17.1952L19.4503 18.3228L15.8562 15.0106L13.9535 16.9133L15.7153 18.5342C16.9133 19.5913 17.3362 20.6483 16.2791 21.7054C16.0677 21.9873 15.7858 22.1987 15.5743 22.3397L14.5877 21.4235C14.6582 21.3531 14.7992 21.2826 14.9401 21.1417C15.4334 20.6483 15.2925 20.296 14.2354 19.3094L11.8393 17.1247L15.9972 13.0374ZM24.031 7.11769L24.7357 8.17477L21.4235 10.3594L21.9873 11.2051L24.8767 9.23185L25.5814 10.2889L22.692 12.2622L23.4672 13.3192L26.7794 11.1346L27.4841 12.1917L22.9035 15.2925L19.3798 10.2889L24.031 7.11769ZM27.766 5.074L31.1487 3.66455C32.4877 3.10078 33.5448 3.52361 34.1085 4.65116C34.6018 5.84919 34.179 6.90627 32.84 7.47005L30.8668 8.31572L31.642 10.0775L30.2326 10.7118L27.766 5.074ZM30.444 7.18816L31.7125 6.62438C32.6286 6.27202 32.981 5.91966 32.6991 5.28541C32.4172 4.65116 31.9944 4.65116 31.1487 5.00352L29.7393 5.5673L30.444 7.18816ZM41.79 0.704722L42.0719 1.90275L38.9711 2.60747L40.0282 7.32911L38.4778 7.68147L37.1388 1.7618L41.79 0.704722ZM51.1628 0L51.2333 1.2685L47.2164 1.40944V2.39605L50.74 2.25511L50.8809 3.52361L47.3573 3.66455L47.4278 5.00352L51.4447 4.86258L51.5152 6.13108L45.9479 6.34249L45.7364 0.281889L51.1628 0ZM56.6596 2.74841L59.6195 3.24172L60.0423 0.98661L61.5927 1.2685L60.5356 7.25863L58.9852 7.04722L59.408 4.51022L56.4482 4.01691L56.0254 6.55391L54.475 6.27202L55.5321 0.281889L57.0825 0.493305L56.6596 2.74841ZM66.5257 5.14447L69.2741 6.27202L70.1198 4.15786L71.5997 4.72164L69.2037 10.3594L67.7238 9.79563L68.7104 7.39958L66.0324 6.34249L65.0458 8.73855L63.5659 8.17477L65.962 2.537L67.4419 3.10078L66.5257 5.14447ZM77.5194 8.1043L78.7879 8.94997L77.5899 15.5743L76.1804 14.5877L76.4623 13.1783L74.2072 11.6984L73.0092 12.4736L71.5997 11.5574L77.5194 8.1043ZM76.6737 11.8393L77.0966 9.79563L75.3347 10.9232L76.6737 11.8393ZM90.8386 20.7893L90.3453 21.1417L90.6977 21.635C91.5433 22.7625 92.1776 24.5243 90.6272 25.5814C89.2882 26.4975 87.8083 25.8633 86.7512 24.3834L86.3989 23.8901L85.7646 24.3129L84.8485 23.1149L85.4827 22.692L85.1304 22.1987C84.0028 20.7188 83.8619 19.1684 85.2009 18.2523C86.6808 17.1952 88.2312 18.2523 89.0768 19.4503L89.4292 19.9436L89.9225 19.5913L90.8386 20.7893ZM88.513 20.5779L88.2312 20.2255C87.6674 19.5208 86.8217 18.957 86.117 19.4503C85.4123 19.9436 85.6942 20.9302 86.1875 21.635L86.4694 21.9873L88.513 20.5779ZM87.3855 23.2558L87.6674 23.6082C88.2312 24.3129 89.0768 24.8767 89.7815 24.3834C90.5567 23.8196 90.2748 22.9035 89.7111 22.1283L89.4292 21.7759L87.3855 23.2558ZM95.7717 29.3869L96.3354 30.7259L91.6138 35.6589L90.9796 34.1085L91.9662 33.1219L90.9091 30.6554H89.4997L88.8654 29.105L95.7717 29.3869ZM92.9528 32.0648L94.4327 30.5849H92.3185L92.9528 32.0648ZM98.4496 36.8569L99.1543 40.3806C99.4362 41.79 98.802 42.7061 97.463 42.988C96.124 43.1994 95.2079 42.5652 94.926 41.1557L94.5032 39.1121L92.6004 39.4644L92.3185 37.9845L98.4496 36.8569ZM95.7717 38.9006L96.0536 40.3101C96.265 41.2262 96.4764 41.6491 97.1811 41.5081C97.8858 41.3672 97.9563 40.9443 97.8154 40.0987L97.5335 38.6187L95.7717 38.9006ZM99.7886 51.6561H98.5201L98.5906 48.062H97.5335V50.2467C97.5335 51.5152 96.7583 52.2903 95.5603 52.2903C94.3622 52.2903 93.6575 51.5152 93.6575 50.2467L93.728 46.5116L100 46.5821L99.7886 51.6561ZM94.926 47.9915V49.6124C94.926 50.3876 95.067 50.6695 95.6307 50.6695C96.1945 50.6695 96.265 50.3171 96.265 49.5419V47.9915H94.926ZM98.8725 58.2805L98.5201 59.6899L91.8252 61.0994L92.1776 59.4785L93.587 59.1966L94.1508 56.5892L92.9528 55.814L93.3051 54.1931L98.8725 58.2805ZM94.9965 58.9147L97.0402 58.4919L95.3488 57.2939L94.9965 58.9147Z" fill="#586386"/>
<path fill-rule="evenodd" clip-rule="evenodd" d="M39.7479 85.2712C51.8691 87.9492 60.9601 85.976 68.8529 81.3248C77.2391 76.3213 85.3434 67.2304 86.8233 52.995C88.0918 40.6623 83.2293 30.3734 75.7592 22.9738C72.0947 19.3093 67.4435 15.9971 61.3829 14.0943C55.3223 12.1916 48.2046 11.6983 42.2145 12.9668C31.7141 15.081 22.5527 21.9872 17.2673 31.4305C10.8543 42.9175 11.6295 57.7166 16.5626 66.2437C18.6063 64.9752 20.0862 64.0591 21.989 62.7201C19.2405 57.0119 18.2539 50.458 19.5224 43.7631C22.6232 26.9908 38.7613 15.9266 55.5337 19.0979C72.3061 22.2691 83.2997 38.4072 80.1285 55.1091C77.5915 68.4989 66.3864 78.0831 54.0538 79.8449L55.9565 77.7307L56.027 77.6602C59.2687 74.0662 62.0876 69.2741 63.5675 63.7067C65.6112 55.6729 63.7789 48.3438 60.8191 42.4242C57.6479 36.1521 52.151 31.1486 44.1877 28.0478C44.3286 29.5982 45.1038 30.9372 45.3857 32.5581C45.6676 34.1789 45.6676 36.1521 44.9629 38.1958C43.8353 41.3671 41.7916 43.9745 40.7345 47.3572C37.6338 57.6461 40.6641 65.3276 45.3152 71.8111C48.0637 68.8512 50.6711 65.1162 52.151 60.5355C54.5471 53.0655 52.8558 46.3706 51.4463 41.2966C53.8424 43.7631 54.9699 47.0753 55.6042 50.5989C56.2384 53.9816 56.4498 58.2099 55.3928 62.1564C53.5605 68.9217 50.1073 73.9957 46.3723 78.0126L39.466 85.2008L39.7479 85.2712Z" fill="#586386"/>
</svg>
