<svg width="100" height="100" viewBox="0 0 100 100" fill="none" xmlns="http://www.w3.org/2000/svg">
<path d="M58.9602 48.6228C59.0417 50.6488 58.7155 52.4316 57.9 54.1334C56.5135 56.8887 54.3115 58.5905 51.2124 59.0767C49.255 59.3198 47.2977 59.1578 45.5035 58.2663C42.8937 56.8887 41.4257 54.7007 40.7732 51.8643C40.5286 50.8109 40.3654 49.6763 40.447 48.6228C40.6101 45.6244 41.4257 42.7881 43.7908 40.6811C45.1772 39.4655 46.8084 38.7362 48.6841 38.4931C50.6415 38.25 52.4357 38.4931 54.2299 39.3845C56.1873 40.357 57.4922 41.9777 58.3077 44.0037C58.7971 45.5434 59.0417 47.1641 58.9602 48.6228ZM55.698 48.7039C55.698 47.2452 55.3717 45.6244 54.5562 44.1657C53.4959 42.2208 51.8648 41.1673 49.6628 41.1673C47.4608 41.2484 45.8297 42.3019 44.851 44.2468C43.7908 46.3538 43.5461 48.6228 43.9539 50.8919C44.2801 52.5937 45.0141 54.2144 46.4821 55.349C49.0919 57.2939 52.6804 56.5645 54.3115 53.7282C55.2902 52.2695 55.698 50.5677 55.698 48.7039Z" fill="#586386"/>
<path d="M31.3976 54.5384C32.1316 52.1073 32.9472 49.7572 33.6812 47.4071C34.5783 44.7328 35.557 42.0586 36.4541 39.3843C36.6172 38.9791 36.7803 38.736 37.2696 38.817C37.9221 38.8981 38.6561 38.817 39.3085 38.817C39.7979 38.817 40.0425 39.1412 39.8794 39.6274C38.6561 43.031 37.4328 46.4346 36.2094 49.8382C35.1492 52.7556 34.089 55.6729 33.0287 58.5903C32.9472 58.9145 32.7841 58.9955 32.4578 58.9955C31.6423 58.9955 30.7452 58.9955 29.9296 58.9955C29.6034 58.9955 29.5218 58.9145 29.3587 58.5903C27.8907 54.1332 26.4227 49.6761 24.9547 45.057C24.3838 43.4362 23.8945 41.7344 23.3236 40.1136C23.242 39.8705 23.242 39.6274 23.1605 39.4653C22.9974 39.0602 23.242 38.817 23.6498 38.817C24.4654 38.817 25.2809 38.817 26.0149 38.817C26.2596 38.817 26.4227 38.8981 26.5043 39.1412C27.4014 41.9775 28.2985 44.7328 29.1956 47.5691C29.7665 49.2709 30.2558 50.8917 30.7452 52.5935C30.9898 53.1608 31.1529 53.8091 31.3976 54.5384Z" fill="#586386"/>
<path d="M70.7887 59.1576C68.5052 59.1576 66.3847 58.6714 64.4274 57.2938C62.7962 56.1592 61.8176 54.6195 61.2467 52.6746C60.8389 51.297 60.5942 49.8383 60.6758 48.4606C60.8389 46.0295 61.4098 43.8415 63.0409 41.8966C64.672 40.0327 66.7109 38.9792 69.076 38.574C71.1965 38.1688 73.3169 38.3309 75.3558 39.0602C76.4161 39.3844 76.253 39.2223 76.0083 40.2758C75.9267 40.681 75.7636 41.0862 75.6005 41.4914C75.4374 41.9776 75.1927 42.0586 74.7034 41.8966C72.3383 41.0051 69.9732 40.9241 67.6896 41.9776C65.7322 42.869 64.5905 44.4898 64.1827 46.5157C63.6934 48.7037 63.7749 50.8107 64.7536 52.8367C65.6507 54.7006 67.2003 55.8351 69.2392 56.2403C71.1149 56.6455 72.9907 56.4834 74.785 55.754C75.1927 55.592 75.519 55.673 75.6821 56.1592C75.8452 56.7265 76.0083 57.3748 76.1714 57.9421C76.253 58.1852 76.0899 58.1852 76.0083 58.2662C74.9481 58.7525 73.8063 58.9145 72.6645 59.0766C72.0936 59.1576 71.4412 59.1576 70.7887 59.1576Z" fill="#586386"/>
<path d="M78.9436 90.7624C78.699 90.7624 78.5358 90.6814 78.3727 90.6003C77.5572 90.1951 76.8232 89.7899 76.0076 89.3847C75.6814 89.2227 75.4367 89.2227 75.1105 89.3847C74.3765 89.871 73.4794 90.1141 72.6638 90.5193C72.3376 90.6814 72.0114 90.6814 71.7667 90.4382C71.522 90.1951 71.4405 89.871 71.6036 89.6279C71.8483 88.8175 72.0114 88.0071 72.1745 87.1967C72.256 86.7915 72.1745 86.4674 71.8483 86.1432C71.2774 85.576 70.8696 85.0087 70.2987 84.4414C70.054 84.1983 69.9725 83.8742 70.054 83.631C70.1356 83.3069 70.4618 83.1448 70.788 83.1448C71.2774 83.0638 71.8483 83.0638 72.3376 82.9827C73.0716 82.9827 73.724 82.7396 73.9687 81.9293C74.1318 81.362 74.458 80.8758 74.6212 80.3895C74.7843 80.0654 74.9474 79.8223 75.2736 79.8223C75.5998 79.8223 75.8445 79.9843 76.0076 80.2275C76.3338 80.7947 76.7416 81.362 77.0678 81.9293C77.3941 82.6586 77.965 82.8207 78.6174 82.9017C79.2698 82.9017 79.8407 82.9827 80.4932 83.0638C80.901 83.0638 81.3087 83.1448 81.4719 83.55C81.635 83.9552 81.3903 84.2794 81.0641 84.5225C80.4932 85.0897 79.9223 85.738 79.3514 86.3053C79.1067 86.5484 79.0252 86.7915 79.1067 87.1157C79.2698 88.0071 79.433 88.8175 79.5145 89.7089C79.5145 89.871 79.5145 89.952 79.5145 90.1141C79.6776 90.5193 79.433 90.7624 78.9436 90.7624Z" fill="#586386"/>
<path d="M48.9356 10.3729C49.0171 9.64352 49.1803 8.83314 49.3434 8.1038C49.4249 7.61757 49.4249 7.21238 49.0171 6.80719C48.3647 6.23992 47.8754 5.67266 47.3045 5.10539C47.0598 4.86228 46.8967 4.61916 46.9782 4.29501C47.0598 3.88982 47.386 3.80878 47.7123 3.72775C48.6094 3.56567 49.5065 3.48463 50.322 3.40359C50.7298 3.40359 50.8929 3.24152 51.1376 2.91737C51.5454 2.10699 52.0347 1.37765 52.524 0.567266C52.6872 0.243114 52.8503 0 53.3396 0C53.7474 0 53.9105 0.40519 53.9921 0.648304C54.3183 1.37765 54.6445 2.10699 54.9707 2.91737C55.1338 3.48463 55.5416 3.64671 56.031 3.80878C56.765 3.97086 57.499 4.13294 58.233 4.37605C58.5592 4.45709 58.967 4.53813 59.0485 5.02435C59.1301 5.42954 58.8039 5.67266 58.5592 5.91577C57.9067 6.402 57.3358 6.88823 56.6834 7.37446C56.3572 7.61757 56.1941 7.94172 56.1941 8.34691C56.2756 9.15729 56.1941 9.96767 56.1941 10.7781C56.1941 11.5074 55.7047 11.7505 55.1338 11.4264C54.563 11.1022 53.9105 10.697 53.3396 10.2918C52.9318 9.96767 52.524 9.96767 52.1163 10.2108C51.5454 10.5349 50.8929 10.8591 50.2405 11.1022C49.4249 11.4264 48.9356 11.1022 48.9356 10.3729Z" fill="#586386"/>
<path d="M95.9093 50.7297C95.6647 50.7297 95.5015 50.6487 95.3384 50.4866C94.6044 49.8383 93.8704 49.271 93.1364 48.6227C92.8918 48.3796 92.7286 48.3796 92.4024 48.4607C91.5869 48.7038 90.6898 48.8658 89.8742 49.0279C89.3033 49.109 88.814 48.6227 89.0586 48.0555C89.3033 47.3261 89.6295 46.5968 89.9557 45.8674C90.1189 45.5433 90.0373 45.3002 89.8742 45.0571C89.4664 44.4898 88.9771 43.9225 88.5693 43.2742C88.3246 42.9501 88.1615 42.707 88.4062 42.3018C88.5693 41.9776 88.8955 41.9776 89.2217 41.8966C90.0373 41.8155 90.8529 41.8155 91.75 41.8155C91.9946 41.8155 92.1578 41.7345 92.3209 41.4914C92.8102 40.762 93.3811 40.0327 93.8704 39.3034C94.0335 39.0602 94.2782 38.7361 94.686 38.8171C95.0938 38.8982 95.2569 39.1413 95.3384 39.5465C95.6647 40.3569 95.9093 41.1672 96.154 42.0587C96.2355 42.3828 96.3987 42.5449 96.7249 42.707C97.622 43.0311 98.4376 43.3553 99.3347 43.6794C99.6609 43.8415 99.9871 44.0036 99.9871 44.4088C100.069 44.8139 99.7425 44.976 99.4978 45.1381C98.7638 45.6243 97.9482 46.1106 97.2142 46.5968C96.888 46.7589 96.8064 47.002 96.8064 47.3261C96.7249 48.2986 96.6433 49.19 96.5618 50.1625C96.5618 50.4866 96.3171 50.6487 95.9093 50.7297Z" fill="#586386"/>
<path d="M84.8988 21.556C84.0017 21.394 83.1862 21.475 82.289 21.394C81.9628 21.394 81.7997 21.475 81.6366 21.7181C81.1473 22.3664 80.5764 23.0147 80.087 23.663C79.5977 24.3113 79.0268 24.1493 78.7821 23.4199C78.5375 22.6906 78.2928 21.8802 78.0481 21.1509C77.9666 20.9077 77.8035 20.8267 77.5588 20.7457C76.8248 20.5836 76.0908 20.3405 75.3568 20.1784C75.0306 20.0974 74.7043 19.9353 74.6228 19.6111C74.5412 19.287 74.7043 19.0439 74.949 18.8007C75.6014 18.2335 76.2539 17.6662 76.8248 17.099C77.0695 16.9369 77.0695 16.6938 77.0695 16.3696C76.9879 15.3972 76.9063 14.5057 76.8248 13.5333C76.7432 12.885 77.3141 12.5608 77.885 12.885C78.7006 13.3712 79.5161 13.8574 80.3317 14.4247C80.5764 14.5868 80.821 14.6678 81.1473 14.5057C82.0444 14.1816 82.9415 13.8574 83.8386 13.5333C84.5726 13.2902 85.0619 13.6954 84.8988 14.5057C84.6542 15.3972 84.4095 16.2886 84.0833 17.099C83.9202 17.4231 84.0017 17.6662 84.2464 17.9904C84.7357 18.6387 85.2251 19.287 85.7144 20.0163C85.9591 20.3405 86.2037 20.6646 85.9591 21.0698C85.6328 21.556 85.3066 21.556 84.8988 21.556Z" fill="#586386"/>
<path d="M19.2471 25.851C19.2471 26.2562 19.0025 26.4183 18.6763 26.4993C18.0238 26.8235 17.3714 27.1476 16.7189 27.4718C16.3927 27.6339 16.2296 27.877 16.2296 28.2822C16.2296 28.9305 16.0665 29.6598 16.0665 30.3081C16.0665 30.6323 15.9849 30.9564 15.6587 31.1185C15.3325 31.2806 15.0878 31.1185 14.8431 30.9564C14.3538 30.5512 13.7829 30.2271 13.3751 29.8219C12.7227 29.0115 11.9071 29.1736 11.0916 29.4167C10.5207 29.5788 9.86822 29.7409 9.29732 29.9029C8.9711 29.984 8.72643 29.9029 8.56332 29.6598C8.31865 29.4167 8.31865 29.1736 8.40021 28.9305C8.72643 28.2011 8.9711 27.3908 9.37888 26.6614C9.7051 26.0942 9.62355 25.6079 9.29732 25.1217C8.88954 24.4734 8.48176 23.8251 8.15554 23.1768C7.99243 22.8526 7.82932 22.5285 8.07398 22.2043C8.31865 21.8802 8.64488 21.8802 9.05266 21.9612C9.94977 22.0422 10.8469 22.2043 11.744 22.2854C12.0702 22.3664 12.3149 22.2043 12.478 21.9612C13.1305 21.3129 13.7013 20.5836 14.4353 19.9353C14.9247 19.5301 15.4956 19.6921 15.5771 20.3405C15.7402 21.3129 15.9034 22.2043 15.9849 23.1768C15.9849 23.5009 16.148 23.663 16.3927 23.8251C17.1267 24.2303 17.8607 24.6355 18.6763 25.0407C19.084 25.2838 19.2471 25.4458 19.2471 25.851Z" fill="#586386"/>
<path d="M28.0544 10.3728C27.8913 11.2642 27.6466 12.1556 27.4835 13.0471C27.3204 13.5333 27.4019 13.9385 27.8097 14.2626C28.2991 14.8299 28.7884 15.3972 29.3593 15.9644C29.604 16.2075 29.7671 16.4507 29.604 16.7748C29.4408 17.099 29.1146 17.261 28.7884 17.261C28.0544 17.261 27.3204 17.4231 26.5864 17.5042C26.2602 17.5042 26.0155 17.6662 25.9339 17.9904C25.6893 18.6387 25.363 19.287 25.0368 19.9353C24.8737 20.2594 24.7106 20.6646 24.3028 20.6646C23.895 20.6646 23.7319 20.4215 23.4873 20.0974C23.0795 19.4491 22.6717 18.8818 22.3455 18.2335C22.1008 17.8283 21.7746 17.6662 21.3668 17.5852C20.5512 17.5042 19.7357 17.4231 18.9201 17.3421C18.5124 17.3421 18.2677 17.261 18.1046 16.8559C17.9415 16.5317 18.1861 16.2886 18.3492 16.0455C18.9201 15.3972 19.5726 14.7489 20.1435 14.1006C20.3881 13.8574 20.4697 13.6143 20.3881 13.2091C20.225 12.2367 19.8988 11.3453 19.8988 10.3728C19.8988 9.64347 20.3066 9.31932 20.959 9.64347C21.8561 10.0487 22.6717 10.5349 23.4873 10.9401C23.8135 11.1022 23.9766 11.1022 24.3028 10.9401C25.1999 10.5349 26.0155 10.1297 26.9126 9.72451C27.4835 9.56244 28.0544 9.88659 28.0544 10.3728Z" fill="#586386"/>
<path d="M50.7273 89.547C50.5642 90.3574 50.4826 91.2488 50.3195 92.0592C50.2379 92.4644 50.3195 92.7886 50.6457 93.1127C51.2982 93.68 51.8691 94.3283 52.4399 94.9766C52.6846 95.2197 52.7662 95.4628 52.6846 95.787C52.6031 96.1111 52.2768 96.1922 51.9506 96.2732C51.0535 96.3542 50.0748 96.5973 49.0962 96.5973C48.8515 96.5973 48.6884 96.7594 48.5253 97.0025C48.0359 97.8129 47.5466 98.6233 47.0573 99.5147C46.8941 99.8389 46.6495 100.001 46.3233 100.001C45.9155 100.001 45.7524 99.7578 45.6708 99.4337C45.263 98.5423 44.9368 97.7319 44.6106 96.8405C44.4475 96.4353 44.2028 96.2732 43.8766 96.1922C43.061 96.1111 42.2455 95.787 41.4299 95.5438C41.1037 95.4628 40.6959 95.3007 40.6143 94.8955C40.5328 94.4904 40.859 94.3283 41.1037 94.0852C41.8377 93.5179 42.4901 93.0317 43.2241 92.4644C43.4688 92.3023 43.5503 92.0592 43.5503 91.8161C43.5503 91.0057 43.5503 90.1143 43.5503 89.3039C43.5503 88.4935 44.0397 88.2504 44.7737 88.6556C45.4261 89.0608 46.0786 89.466 46.6495 89.8712C46.9757 90.1143 47.2204 90.0333 47.465 89.9522C48.199 89.6281 48.8515 89.3039 49.5855 88.9798C50.2379 88.6556 50.7273 89.0608 50.7273 89.547Z" fill="#586386"/>
<path d="M36.1281 94.2472C35.3125 94.0851 34.4154 94.0041 33.5999 93.6799C33.1105 93.5179 32.7843 93.5989 32.3765 93.9231C31.7241 94.4903 30.9901 95.0576 30.2561 95.6249C29.6852 96.1111 29.1143 95.7869 29.0327 95.0576C28.9512 94.0851 28.8696 93.1937 28.9512 92.2213C28.9512 91.8161 28.7881 91.654 28.5434 91.4109C27.8094 90.9247 27.0754 90.4384 26.4229 89.9522C26.1783 89.7901 25.9336 89.547 25.9336 89.1418C26.0151 88.7366 26.2598 88.5746 26.6676 88.4935C27.4832 88.2504 28.3803 87.9262 29.1958 87.6831C29.5221 87.6021 29.6852 87.44 29.7667 87.1159C30.0114 86.3055 30.3376 85.5761 30.5823 84.7658C30.6638 84.4416 30.9085 84.1985 31.2347 84.1175C31.561 84.0364 31.8056 84.2795 31.9687 84.5226C32.295 85.0089 32.7027 85.4141 33.029 85.9813C33.4367 86.7107 34.0076 86.7107 34.6601 86.6296C35.231 86.5486 35.8019 86.4676 36.3728 86.4676C36.699 86.4676 36.9436 86.5486 37.1068 86.7917C37.2699 87.0348 37.1883 87.2779 37.1068 87.5211C36.699 88.2504 36.2912 89.0608 35.8019 89.8712C35.6388 90.1143 35.6388 90.3574 35.8019 90.6005C36.2096 91.4919 36.6174 92.3023 37.0252 93.1937C37.1068 93.761 36.7805 94.2472 36.1281 94.2472Z" fill="#586386"/>
<path d="M14.8449 85.333C15.008 84.6037 15.2527 83.7123 15.5789 82.9019C15.8236 82.3346 15.742 81.9294 15.3343 81.4432C14.7634 80.7949 14.3556 80.1466 13.9478 79.4983C13.7847 79.2552 13.7031 79.0121 13.8663 78.769C14.0294 78.4448 14.274 78.2827 14.6818 78.3638C15.6605 78.5258 16.5576 78.3638 17.5363 78.5258C17.8625 78.6069 18.0256 78.3638 18.1887 78.2017C18.7596 77.5534 19.2489 76.9051 19.7383 76.2568C19.9829 76.0137 20.1461 75.7706 20.5538 75.8516C20.8801 75.9326 21.0432 76.1757 21.1247 76.4999C21.2878 77.2292 21.5325 77.8775 21.7772 78.6069C21.8587 78.931 22.0218 79.0931 22.3481 79.1741C23.0821 79.3362 23.8161 79.5793 24.4685 79.7414C24.7947 79.8224 25.121 79.9845 25.121 80.3897C25.2025 80.7139 24.9579 80.957 24.7132 81.2001C24.1423 81.6863 23.4899 82.2536 22.919 82.7398C22.6743 82.9019 22.5112 83.145 22.5927 83.4692C22.6743 84.3606 22.7558 85.252 22.8374 86.1434C22.8374 86.4676 22.8374 86.8727 22.5112 87.0348C22.185 87.1969 21.8587 87.0348 21.6141 86.8728C20.8801 86.3865 20.1461 85.9813 19.4121 85.4141C19.0858 85.171 18.8412 85.171 18.5965 85.333C17.6994 85.6572 16.8023 85.9813 15.9052 86.3055C15.1711 86.3865 14.7634 86.1434 14.8449 85.333Z" fill="#586386"/>
<path d="M90.8493 78.5257C89.8706 78.3636 88.892 78.2825 87.9133 78.1205C87.6686 78.0394 87.5055 78.1205 87.2608 78.3636C86.69 79.0119 86.0375 79.5791 85.4666 80.1464C85.1404 80.4706 84.8142 80.7137 84.3248 80.5516C83.9171 80.3895 83.9171 79.9843 83.9171 79.5791C83.8355 78.7688 83.7539 77.9584 83.5908 77.148C83.5908 76.8239 83.4277 76.6618 83.1015 76.4997C82.449 76.1755 81.7966 75.7704 81.0626 75.3652C80.7364 75.2031 80.4102 74.96 80.4102 74.4738C80.4102 73.9875 80.8179 73.9065 81.1442 73.7444C81.7966 73.4203 82.3675 73.1771 83.0199 72.853C83.2646 72.772 83.4277 72.6099 83.4277 72.2857C83.5093 71.5564 83.6724 70.827 83.5908 70.0977C83.5908 69.6925 83.6724 69.3684 84.0802 69.2063C84.4064 69.0442 84.7326 69.2873 84.9773 69.4494C85.5482 69.9356 86.2006 70.4219 86.7715 70.9081C87.0162 71.1512 87.3424 71.2322 87.6686 71.1512C88.5657 70.9891 89.3813 70.746 90.2784 70.5029C90.6046 70.4219 90.8493 70.4219 91.094 70.665C91.3386 70.9081 91.3386 71.2322 91.1755 71.5564C90.7677 72.4478 90.4415 73.3392 90.0337 74.1496C89.9522 74.3927 89.9522 74.5548 90.0337 74.7169C90.5231 75.5272 90.9309 76.3376 91.4202 77.148C91.5833 77.4722 91.7464 77.7153 91.5833 78.1205C91.5018 78.5257 91.1755 78.5257 90.8493 78.5257Z" fill="#586386"/>
<path d="M68.4265 15.7214C68.1818 15.7214 68.0187 15.5593 67.8556 15.3162C67.4478 14.6679 66.9585 14.1006 66.4692 13.5333C66.3061 13.2902 66.0614 13.2092 65.8167 13.2092C65.1643 13.2902 64.5118 13.3713 63.7778 13.3713C63.6147 13.3713 63.4516 13.4523 63.2885 13.3713C62.636 13.3713 62.3914 12.885 62.636 12.3178C63.0438 11.5884 63.4516 10.778 63.8594 10.0487C64.0225 9.72455 64.104 9.48143 63.9409 9.15728C63.5331 8.3469 63.2069 7.53652 62.7991 6.72614C62.636 6.40199 62.5545 6.07784 62.7991 5.83473C63.0438 5.51057 63.37 5.51057 63.6963 5.59161C64.5934 5.91576 65.4905 6.07784 66.3876 6.32095C66.7138 6.40199 66.8769 6.32095 67.0401 6.15888C67.7741 5.51057 68.5081 4.94331 69.2421 4.37604C69.8945 3.88981 70.3838 4.05189 70.547 4.86227C70.6285 5.75369 70.7101 6.72614 70.7101 7.6986C70.7101 8.02275 70.7916 8.26586 71.1179 8.50898C71.8519 8.99521 72.5859 9.48143 73.3199 9.96766C73.6461 10.2108 73.8092 10.4539 73.7276 10.8591C73.6461 11.1832 73.3199 11.3453 72.9936 11.4263C72.1781 11.6695 71.281 11.9936 70.4654 12.2367C70.1392 12.3178 70.0576 12.4798 69.9761 12.804C69.7314 13.6144 69.4052 14.4247 69.1605 15.2351C69.079 15.4782 68.8343 15.7214 68.4265 15.7214Z" fill="#586386"/>
<path d="M86.1226 33.7928C86.2041 33.3066 86.1226 32.8203 86.2041 32.3341C86.2857 32.091 86.1226 31.9289 85.8779 31.7669C85.2254 31.3617 84.6546 30.9565 84.0021 30.5513C83.7574 30.3892 83.4312 30.1461 83.5128 29.8219C83.5128 29.4168 83.839 29.2547 84.1652 29.0926C84.8992 28.7684 85.6332 28.4443 86.3672 28.2012C86.6935 28.0391 86.8566 27.877 86.9381 27.5529C87.1012 26.7425 87.3459 25.9321 87.5906 25.1217C87.6721 24.7976 87.7537 24.3924 88.243 24.3114C88.6508 24.2303 88.8955 24.4734 89.1401 24.7976C89.6295 25.5269 90.2004 26.1752 90.6897 26.9046C90.8528 27.1477 91.0159 27.2287 91.3421 27.2287C92.3208 27.2287 93.2995 27.2287 94.2782 27.2287C94.6859 27.2287 94.9306 27.3908 95.0937 27.715C95.2568 28.0391 95.0937 28.2012 94.9306 28.4443C94.3597 29.2547 93.7888 29.984 93.2179 30.7944C93.0548 31.0375 92.9733 31.1996 93.0548 31.4427C93.2995 32.3341 93.5441 33.1445 93.7888 34.0359C93.8704 34.3601 93.9519 34.7653 93.6257 35.0084C93.2995 35.2515 92.9733 35.1704 92.5655 35.0084C91.7499 34.6842 90.9344 34.3601 90.1188 34.0359C89.8741 33.9549 89.6295 33.9549 89.3848 34.117C88.6508 34.6032 87.9168 35.0084 87.1828 35.4136C86.4488 35.8188 85.9594 35.4946 86.041 34.6842C86.1226 34.4411 86.1226 34.117 86.1226 33.7928Z" fill="#586386"/>
<path d="M31.3203 8.0228C31.3203 7.77969 31.4834 7.53657 31.7281 7.3745C32.6252 6.96931 33.4408 6.48308 34.3379 6.07789C34.5826 5.99685 34.6641 5.83478 34.7457 5.59166C34.9088 4.78128 35.0719 3.88986 35.1534 3.07949C35.1534 2.91741 35.235 2.6743 35.3166 2.51222C35.5612 1.94495 36.0506 1.78288 36.5399 2.26911C37.1108 2.75533 37.6817 3.24156 38.0895 3.88986C38.5788 4.53817 39.1497 4.86232 40.0468 4.61921C40.6177 4.45713 41.3517 4.45713 42.0041 4.45713C42.3304 4.45713 42.6566 4.45713 42.8197 4.78128C42.9828 5.10543 42.9013 5.42959 42.7381 5.6727C42.2488 6.40204 41.7595 7.21242 41.2701 7.94176C41.107 8.18488 41.107 8.42799 41.1886 8.67111C41.5148 9.48149 41.841 10.2108 42.1673 11.0212C42.3304 11.3454 42.3304 11.5885 42.0857 11.8316C41.841 12.0747 41.5964 12.0747 41.2701 11.9937C40.5361 11.8316 39.8021 11.6695 39.0681 11.4264C38.7419 11.3454 38.5788 11.4264 38.3341 11.5885C37.8448 12.0747 37.3555 12.5609 36.8661 13.1282C36.6214 13.3713 36.3768 13.6955 35.969 13.5334C35.5612 13.3713 35.4797 13.0472 35.3981 12.642C35.235 11.9126 35.0719 11.1022 34.9088 10.3729C34.8272 10.0488 34.7457 9.88668 34.4194 9.80564C33.6039 9.40045 32.7068 8.99526 31.8912 8.59007C31.565 8.59007 31.3203 8.42799 31.3203 8.0228Z" fill="#586386"/>
<path d="M3.75162 43.7606C3.83318 42.8691 3.83318 42.1398 3.91473 41.4105C3.91473 41.1673 3.83318 40.9242 3.58851 40.7621C2.85451 40.1949 2.1205 39.5466 1.3865 38.8983C1.14183 38.6552 0.978722 38.412 1.06028 38.0879C1.14183 37.7637 1.3865 37.6017 1.71272 37.5206C2.6914 37.2775 3.67007 37.0344 4.64874 36.8723C4.97496 36.8723 5.05652 36.6292 5.13807 36.3861C5.4643 35.5757 5.87208 34.7653 6.1983 34.036C6.36141 33.7118 6.52452 33.3877 7.01386 33.3877C7.42164 33.3877 7.58475 33.7118 7.74786 34.036C8.15564 34.8464 8.56342 35.5757 8.9712 36.3051C9.13431 36.5482 9.29743 36.7103 9.62365 36.7913C10.4392 36.8723 11.3363 37.0344 12.1519 37.1154C12.4781 37.1965 12.7228 37.3586 12.8043 37.6017C12.8859 37.9258 12.8043 38.0879 12.5597 38.331C12.0703 38.8983 11.581 39.3845 11.0101 39.9518C10.7654 40.1949 10.6839 40.519 10.7654 40.8432C10.9285 41.4915 11.1732 42.1398 11.3363 42.7881C11.4179 43.1123 11.4994 43.5174 11.1732 43.7606C10.847 44.0847 10.5208 43.9226 10.1945 43.8416C9.46054 43.5985 8.64498 43.3554 7.91097 43.1123C7.66631 43.0312 7.42164 43.0312 7.17697 43.1933C6.52452 43.7606 5.79052 44.3278 5.13807 44.814C4.81185 45.0572 4.56718 45.2192 4.1594 45.0572C3.83318 44.8951 3.75162 44.5709 3.75162 44.1657C3.75162 44.0037 3.75162 43.8416 3.75162 43.7606Z" fill="#586386"/>
<path d="M10.9285 51.4592C10.8469 51.5402 10.8469 51.7834 10.7654 51.9454C10.5207 52.5937 10.1945 53.242 9.94982 53.9714C9.86827 54.2145 9.86827 54.4576 10.0314 54.7007C10.4392 55.268 10.8469 55.8353 11.3363 56.4836C11.5809 56.8077 11.7441 57.0508 11.5809 57.456C11.4178 57.7802 11.01 57.8612 10.6838 57.8612C9.94982 57.8612 9.21582 57.8612 8.48182 57.8612C7.99248 57.8612 7.74781 58.0233 7.50314 58.3474C7.01381 59.0768 6.52447 59.7251 6.03514 60.5355C5.87203 60.8596 5.62736 61.0217 5.30114 60.9406C4.97491 60.8596 4.73024 60.6975 4.64869 60.3734C4.40402 59.482 4.0778 58.5905 3.83313 57.6991C3.75157 57.375 3.58846 57.2129 3.26224 57.1319C2.36512 56.8077 1.54956 56.4836 0.652447 56.1594C0.326224 56.0784 0 55.8353 0 55.5111C0 55.1869 0.244668 54.9438 0.489336 54.7007C1.14178 54.1335 1.95734 53.6472 2.69135 53.242C3.18068 52.9989 3.26224 52.6748 3.26224 52.1885C3.26224 51.4592 3.34379 50.6488 3.42535 49.9195C3.42535 49.5143 3.5069 49.1901 3.99624 49.0281C4.40402 48.866 4.64869 49.1091 4.89336 49.3522C5.5458 50.0005 6.27981 50.5678 6.93225 51.1351C7.09537 51.2971 7.34003 51.2971 7.5847 51.2971C8.48182 51.1351 9.37893 50.8919 10.276 50.8109C10.6023 50.6488 10.9285 50.973 10.9285 51.4592Z" fill="#586386"/>
<path d="M96.2352 56.8077C96.1536 57.537 96.1536 58.3474 96.0721 59.0767C96.0721 59.4009 96.1536 59.563 96.3983 59.8061C97.1323 60.3733 97.7847 60.9406 98.4372 61.5889C98.6818 61.832 98.9265 62.0751 98.845 62.4803C98.7634 62.8855 98.4372 62.9666 98.111 63.0476C97.2138 63.2097 96.3167 63.4528 95.4196 63.6149C95.0118 63.6959 94.8487 63.858 94.6856 64.1821C94.3594 64.9925 93.9516 65.7219 93.5438 66.5322C93.3807 66.8564 93.136 67.1805 92.8098 67.0995C92.4836 67.0995 92.2389 66.7753 92.0758 66.5322C91.668 65.8029 91.2602 65.0735 90.934 64.2632C90.7709 63.858 90.4447 63.7769 90.1185 63.6959C89.3029 63.5338 88.4873 63.3718 87.6718 63.2907C87.3456 63.2097 87.1009 63.1286 87.1009 62.8045C87.0193 62.4803 87.1009 62.2372 87.3456 61.9941C87.9165 61.5079 88.4058 60.9406 88.8951 60.3734C89.1398 60.1302 89.1398 59.8871 89.0582 59.563C88.8951 58.9147 88.732 58.2664 88.5689 57.6181C88.4873 57.2939 88.3242 56.8887 88.6505 56.5646C88.9767 56.2404 89.3029 56.4025 89.7107 56.4835C90.4447 56.7266 91.2603 56.9698 91.9943 57.2939C92.3205 57.3749 92.4836 57.3749 92.7283 57.2129C93.4623 56.7266 94.1963 56.2404 94.9303 55.7542C95.1749 55.5921 95.5012 55.349 95.8274 55.5921C96.1536 55.7542 96.2352 56.0783 96.2352 56.4025C96.1536 56.4835 96.2352 56.6456 96.2352 56.8077Z" fill="#586386"/>
<path d="M58.3917 91.735C58.2286 91.3298 58.0654 90.9247 57.9023 90.5195C57.7392 90.0332 57.4946 89.547 57.413 89.0608C57.2499 88.4125 57.6577 88.0073 58.3101 88.1694C59.0441 88.3314 59.7781 88.4935 60.5121 88.7366C60.8383 88.8177 61.083 88.7366 61.3277 88.4935C61.817 88.0073 62.3064 87.5211 62.7957 86.9538C63.0404 86.7107 63.285 86.4676 63.6112 86.5486C64.019 86.6296 64.1006 87.0348 64.1821 87.359C64.3453 88.1694 64.5084 88.8987 64.5899 89.7091C64.6715 89.9522 64.753 90.1953 65.0793 90.3574C65.8948 90.7626 66.7104 91.1678 67.6075 91.573C67.8522 91.735 68.0968 91.8161 68.1784 92.2213C68.1784 92.5454 68.0153 92.7885 67.689 92.9506C66.8735 93.3558 66.1395 93.842 65.3239 94.1662C64.9977 94.3283 64.8346 94.4093 64.753 94.8145C64.5899 95.7869 64.3453 96.7594 64.1821 97.7318C64.019 98.3802 63.4481 98.5422 62.9588 98.056C62.3064 97.3267 61.5724 96.6784 60.9199 95.949C60.6752 95.7059 60.5121 95.6249 60.1859 95.6249C59.2888 95.7059 58.4732 95.7869 57.5761 95.868C57.1683 95.868 56.7605 95.949 56.5974 95.5438C56.3528 95.1386 56.5974 94.8145 56.8421 94.5714C57.2499 93.9231 57.7392 93.2748 58.147 92.5454C58.3101 92.2213 58.3917 91.9782 58.3917 91.735Z" fill="#586386"/>
<path d="M13.7839 64.9113C13.7023 65.7217 13.7023 66.4511 13.6207 67.1804C13.5392 67.5856 13.7023 67.8287 14.0285 68.0718C14.5994 68.477 15.1703 68.8822 15.7412 69.2064C16.0674 69.3684 16.3121 69.6115 16.2305 70.0167C16.2305 70.4219 15.9043 70.584 15.5781 70.665C14.8441 70.9082 14.1916 71.2323 13.4576 71.4754C13.0499 71.6375 12.8052 71.8806 12.7236 72.2858C12.479 73.0962 12.2343 73.9876 12.0712 74.798C11.9896 75.2032 11.745 75.3652 11.4187 75.4463C11.0925 75.5273 10.8478 75.2842 10.6847 75.0411C10.1138 74.3117 9.54295 73.5824 9.05361 72.8531C8.80895 72.5289 8.56428 72.4479 8.23806 72.4479C7.34094 72.4479 6.44382 72.4479 5.46515 72.4479C5.13893 72.4479 4.81271 72.3668 4.64959 72.0427C4.48648 71.7185 4.64959 71.4754 4.81271 71.2323C5.3836 70.584 5.87293 69.8547 6.44383 69.2064C6.77005 68.8822 6.8516 68.5581 6.68849 68.0718C6.44382 67.2614 6.1176 66.4511 6.03605 65.5596C5.95449 65.2355 5.95449 64.9113 6.28071 64.7493C6.52538 64.5062 6.8516 64.5872 7.17783 64.7493C7.99339 65.0734 8.72739 65.3976 9.54295 65.7217C9.95073 65.8838 10.277 65.8838 10.6847 65.6407C11.3372 65.2355 11.9896 64.8303 12.6421 64.5062C13.2945 63.9389 13.7839 64.263 13.7839 64.9113Z" fill="#586386"/>
</svg>
