<svg width="50" height="50" viewBox="0 0 50 50" fill="none" xmlns="http://www.w3.org/2000/svg">
<path d="M25 0C11.213 0 0 11.2209 0 24.9824C0 38.7791 11.213 50 25 50C38.787 50 50 38.7791 50 24.9824C49.9647 11.2209 38.7518 0 25 0ZM25 48.9414C14.2102 48.9414 5.07757 41.7784 2.08039 31.9337L7.22849 31.969C10.0494 38.9555 16.89 43.8603 24.8942 43.8603C32.8984 43.8603 39.7391 38.9203 42.5599 31.969H47.9196C44.8872 41.7784 35.7546 48.9414 25 48.9414ZM8.42736 31.969H41.2906C38.5049 38.2851 32.1932 42.7311 24.859 42.7311C17.5247 42.7311 11.213 38.3204 8.42736 31.969ZM48.1664 30.9809H1.79831C1.30465 29.0755 1.05783 27.0642 1.05783 24.9824C1.05783 24.1355 1.09309 23.3239 1.19887 22.5124H5.88858H6.02962C6.1354 21.8066 6.24119 21.0656 6.41749 20.3599C6.52327 20.0776 6.62906 19.7953 6.73484 19.5131C7.22849 20.1129 7.93371 20.5716 8.85049 20.8186C8.70945 21.3479 8.56841 21.9125 8.49788 22.4771L8.81523 22.5476C8.92102 21.9831 9.0268 21.4538 9.16784 20.9245C9.69676 21.0303 10.2609 21.1009 10.8956 21.1009C11.2482 21.1009 11.6361 21.0656 12.024 21.0303C12.2708 20.9951 12.5176 20.9598 12.7645 20.9245C12.7292 21.4538 12.6587 21.9831 12.6587 22.5124H12.976C13.0113 21.9831 13.0465 21.4185 13.1171 20.8892C14.2454 20.6775 15.4443 20.3246 16.6432 19.8659C16.8195 20.7481 17.031 21.6655 17.2779 22.5476L17.5952 22.4771C17.3484 21.5596 17.1368 20.6422 16.9605 19.7601C18.0889 19.2661 19.2525 18.7015 20.3808 18.0311L22.426 21.3479C22.3907 21.4185 22.3907 21.4891 22.426 21.5596C22.4612 21.5596 22.4965 21.5596 22.5317 21.5243L22.6728 21.7361C22.6375 21.7713 22.6375 21.8066 22.6023 21.8419C22.6728 21.8419 22.708 21.8419 22.7433 21.8419L22.9196 22.1242C22.8491 22.1595 22.7433 22.2654 22.8138 22.3006C22.9549 22.3712 22.9549 22.2301 22.9901 22.2653C23.0254 22.3006 22.9196 22.4065 22.9196 22.4771H22.9901C23.0254 22.4418 23.0606 22.4418 23.0959 22.4771H23.1312L23.1664 22.5476L23.3075 22.4771H23.3427L23.4133 22.6182C23.4838 22.5829 23.5543 22.5124 23.6248 22.4771H23.6601C23.6601 22.4418 23.6601 22.4418 23.6953 22.4065C24.1537 22.1242 24.6121 21.8419 25.0353 21.5243C25.0705 21.5243 25.0705 21.5596 25.0705 21.5596C25.2821 21.3126 25.2821 21.3832 25.4231 21.2068C25.4584 21.1715 25.4937 21.1715 25.4937 21.1362C25.6347 21.2421 25.7757 21.0303 25.811 20.9598C25.8815 21.0656 25.8815 21.2068 25.8463 21.2773C25.7757 21.3479 25.5994 21.4185 25.5289 21.4891C25.5642 21.9831 25.7405 21.4538 25.3526 22.4418H25.3879C25.7757 22.3359 25.7757 21.7008 26.0578 21.8419C26.0226 21.6302 26.0226 21.4538 26.3752 21.4185C26.4457 21.3126 26.481 21.1362 26.5867 21.0303C26.5515 21.0303 27.3625 21.1362 26.7983 20.8186C27.0804 20.7128 27.3625 20.3952 27.292 20.0423C27.1862 20.0071 27.0451 20.1835 26.9041 20.1835C26.9041 20.1482 26.9041 20.0776 26.9041 20.0071C27.2214 19.7601 27.5035 19.4778 27.7856 19.1955C27.9972 19.4425 28.244 19.6895 28.4556 19.9012C28.4556 20.0071 28.4203 20.2188 28.4908 20.2893C28.4908 20.2893 28.4556 20.3246 28.4203 20.3246C28.385 20.4658 28.3498 20.6069 28.3145 20.7128C28.3498 20.7128 28.385 20.7128 28.4203 20.7128C28.385 20.7128 28.3498 20.7128 28.3145 20.7128C28.3145 21.0303 28.3145 20.6422 28.2087 20.8892C28.1382 20.9598 28.0324 21.0656 28.0677 21.1715C28.2793 21.4538 28.4203 21.5243 28.2087 21.8772C28.0324 21.8772 28.1735 22.0536 28.2087 22.2301C28.0677 22.3712 27.8561 22.4065 27.6798 22.2653C27.574 22.4771 27.6446 22.4065 27.433 22.4771H30.677C30.7123 22.5124 30.7475 22.5476 30.7475 22.5829L30.9238 22.5124H32.1227L32.2285 22.6182C32.2637 22.5829 32.299 22.5476 32.3343 22.5124H33.1453C33.1453 22.4771 33.1805 22.4771 33.1805 22.4418C33.2863 22.5124 33.2863 21.8066 33.3568 21.7361C33.4274 21.7361 33.6037 21.6302 33.6742 21.5596C33.9915 21.6302 34.1678 21.5243 34.4499 21.7713C34.732 21.9831 35.8251 21.6302 36.0014 21.4538C36.0719 21.5596 36.1777 21.5596 36.2482 21.5949C36.4951 21.2773 36.8829 21.6302 37.1298 21.7713C37.0945 21.8066 37.0945 21.9125 37.0945 21.9478C37.165 22.0183 37.2355 22.1948 37.2708 22.3006C37.4824 22.1948 37.2355 21.8066 37.1298 21.6655C37.0945 21.5949 37.1298 21.3832 37.1298 21.3126C37.0945 21.2421 36.9887 21.2068 36.9535 21.1715C36.9182 21.2421 36.7419 21.2773 36.7066 21.2773C36.6361 21.1715 36.4951 20.8539 36.4951 20.7481C36.5656 20.6422 36.7066 20.5716 36.8477 20.5363C37.3766 21.2068 37.8702 21.8772 38.3639 22.6182L38.6107 22.4418C37.8702 21.3126 37.0592 20.2893 36.2482 19.3013C36.354 19.3013 36.4598 19.3013 36.5656 19.2661C36.6008 19.1602 37.0592 19.0191 37.1298 19.0543C37.165 19.0191 37.165 18.9132 37.2003 18.8779C37.165 18.8426 37.165 18.8426 37.165 18.8073L37.2003 18.8426C37.2003 18.8779 37.2355 18.8779 37.2708 18.9132C37.3061 18.9132 37.3061 18.8426 37.3413 18.8779C37.3766 18.9132 37.4118 19.0191 37.5176 19.0896C37.5882 19.1249 37.7292 19.1955 37.835 19.2661C37.8702 19.3013 37.9055 19.4778 37.9055 19.4778C38.0818 19.6542 38.2934 19.5483 38.4697 19.5483C38.5049 19.4778 38.5049 19.4425 38.5049 19.4072C38.5049 19.4425 38.4697 19.5131 38.4697 19.5483C38.5049 19.5836 38.5402 19.6189 38.5755 19.6542C38.7518 19.6542 38.8575 19.4778 38.9633 19.3719C38.9633 19.4425 38.8928 19.5131 38.9633 19.6542C39.2102 19.8306 39.3512 19.1249 39.5275 18.9485C39.7743 19.4072 38.9633 19.5131 39.3159 20.0423C39.4217 20.1129 39.5275 19.8659 39.598 19.9365C39.6685 20.0071 39.7391 20.2188 39.8096 20.2541C40.0212 20.2188 39.8449 19.9012 39.8449 19.9012C39.9154 19.9365 40.0212 19.9718 40.0917 20.0071C40.0917 19.9365 39.9506 19.7601 40.0212 19.7248C40.0917 19.7248 40.1975 19.7601 40.1975 19.6895C40.1622 19.6542 40.1622 19.5483 40.0564 19.5131C39.9859 19.4778 39.9154 19.5483 39.8449 19.5483C39.8096 19.4778 39.8096 19.4425 39.7391 19.4072C39.7391 19.4072 39.7391 19.3366 39.8449 19.3013C39.9154 19.2661 39.9859 19.2661 39.9859 19.1249C39.9859 18.9838 39.8096 19.2308 39.7743 19.1955C39.7391 19.1249 39.7038 19.0543 39.6685 18.9838C39.6685 18.9485 39.7038 18.9485 39.7038 18.9132C39.7038 18.9485 39.7391 18.8426 39.8449 18.8073C39.9506 18.7721 39.9859 18.8426 40.0212 18.7015C40.0564 18.5603 39.8449 18.6662 39.8449 18.5603C39.7391 18.4898 39.5628 18.7015 39.3865 18.7015C39.3159 18.7015 39.1396 18.6309 39.0691 18.5251C39.1044 18.4898 39.2454 18.3839 39.2807 18.3486C39.2807 18.1722 38.9633 18.5251 38.787 18.3486C38.7518 18.3133 38.6107 18.0311 38.6107 17.9958C38.646 17.9605 38.646 17.9605 38.646 17.9252C38.8223 17.8899 39.0691 18.1369 39.1396 18.0311C39.1396 17.8193 38.9986 17.9252 38.9281 17.8546C38.9633 17.7135 39.1749 17.8546 39.1749 17.6782C39.1044 17.6782 38.9986 17.6782 38.9281 17.6782C38.9281 17.6429 38.9281 17.6076 38.9281 17.5723C38.9986 17.5371 39.0691 17.5018 39.1396 17.4665C39.1396 17.3253 38.8928 17.4665 38.8928 17.3959C38.8928 17.3253 39.0339 17.4312 38.9633 17.2548C38.8928 17.0783 38.8928 17.0078 38.8928 16.9372C38.9281 16.8313 38.9633 16.7255 38.9986 16.6902C39.0338 16.5843 39.1396 16.3373 39.1749 16.2668C39.2102 16.2315 39.2102 16.1609 39.2454 16.1256C39.2807 16.0903 39.3159 16.4432 39.3512 16.4432C39.3512 16.4079 39.4217 16.0903 39.3865 15.9492C39.3865 15.808 39.3159 15.8786 39.3512 15.808C39.3865 15.7375 39.3865 15.5963 39.3865 15.561C39.3865 15.561 39.3865 15.5258 39.3865 15.4905C39.457 15.561 39.5275 15.6316 39.598 15.7022C39.457 15.9845 39.3512 16.2668 39.4217 16.549C39.457 16.6196 39.5275 16.7608 39.598 16.7255C39.6333 16.6196 39.7038 16.4785 39.7391 16.4432C39.7391 16.4785 39.7743 16.6196 39.7391 16.6549C39.7743 16.6196 39.8096 16.6196 39.8096 16.5843C39.8448 16.6549 39.9154 16.8313 40.0212 16.6902C40.0212 16.7255 40.1622 16.6196 40.0564 16.7608C39.9506 16.9019 39.9859 17.0078 40.1269 16.9372C40.268 16.8666 40.0917 17.043 40.0917 17.0783C40.0917 17.1136 40.1269 17.1136 40.1269 17.1489C40.1622 17.043 40.2327 16.9725 40.268 16.8666C40.3032 16.9372 40.3738 17.1489 40.409 17.1489C40.4443 17.1489 40.4443 17.0078 40.4795 17.0078C40.4795 16.9372 40.4795 17.29 40.5148 17.2548C40.5853 17.2195 40.5501 16.8666 40.5501 16.9019C40.5501 16.8666 40.5853 16.8313 40.5853 16.796L40.6206 16.8313C40.6206 16.9725 40.5853 17.1136 40.5853 17.2548C40.6206 17.2548 40.6206 17.2548 40.6559 17.2195C40.6559 17.1842 40.6911 17.2195 40.6911 17.043C40.6911 16.8666 40.7264 16.9725 40.7264 16.9372C40.8674 17.1136 41.0437 17.2901 41.1848 17.4665C40.9379 19.1249 40.4443 20.7833 39.6685 22.4418L39.9506 22.5476C40.6911 20.9598 41.1848 19.3366 41.4316 17.7488C41.8195 18.2075 42.2073 18.7015 42.5952 19.1955L42.701 19.0896C43.0536 20.1835 43.3004 21.3126 43.4415 22.4771L43.6178 22.4418H48.6248C48.6953 23.2534 48.7659 24.0649 48.7659 24.9118C48.9422 27.0642 48.6601 29.0755 48.1664 30.9809ZM44.6756 19.3013L44.6051 19.0543L47.0028 18.3839L47.0733 18.6662L45.4513 20.2188L47.3554 19.6895L47.426 19.9365L45.0282 20.6069L44.9577 20.3246L46.5444 18.7721L44.6756 19.3013ZM39.6333 14.82C39.5628 14.8906 39.4922 14.9259 39.3865 14.9965H39.3512C39.1044 14.7495 38.8223 14.5025 38.5755 14.2908C38.4697 14.1849 38.3639 14.079 38.2581 13.9732C38.2581 13.7968 38.2581 13.6203 38.2581 13.4439C38.2228 13.4086 38.1171 13.4086 38.0818 13.3733C38.0113 13.338 37.976 13.338 37.9055 13.338C37.9408 13.2675 38.0113 13.2322 38.0818 13.1616C37.6587 12.6323 38.0818 11.8913 38.2581 11.609C39.0339 12.3853 39.7391 13.2322 40.409 14.1849C40.3032 14.2908 39.6685 14.6789 39.6333 14.82C39.6333 14.82 39.8449 14.7495 39.8449 14.82C39.8449 14.82 39.8801 14.8553 39.8801 14.8906C39.9506 15.067 39.8801 15.2788 39.8096 15.4552C39.7391 15.3846 39.6685 15.2788 39.5628 15.2082C39.598 15.1023 39.6333 14.9965 39.6333 14.8906C39.6685 14.8553 39.6333 14.82 39.6333 14.82ZM36.0719 19.5483C36.0014 19.6189 35.9661 19.7601 36.0014 19.7953C36.0367 19.8659 36.1425 19.7953 36.213 19.7248C36.4245 19.9365 36.6008 20.1835 36.7771 20.3952C36.7066 20.4305 36.6714 20.4305 36.6361 20.4658C36.4598 20.5716 36.1072 20.7128 35.8956 20.7833C35.8604 20.7481 35.8251 20.6069 35.8251 20.5363C35.6841 20.6069 35.6488 20.7481 35.5078 20.8539L35.4725 20.8892C35.4372 20.9598 35.3667 20.9951 35.4725 20.8892C35.5078 20.8186 35.543 20.7481 35.402 20.6775C35.0141 20.3952 34.4499 20.9951 34.2384 20.4305C34.2031 20.4305 34.1678 20.3952 34.1326 20.3952C34.2736 20.1835 34.4147 19.9718 34.5557 19.7601C34.591 19.7953 34.6262 19.8306 34.6615 19.8659C34.6615 19.7953 34.6262 19.7248 34.6262 19.6895C34.6615 19.6189 34.732 19.5131 34.7673 19.4425C34.8025 19.4425 34.8731 19.4425 34.8731 19.4425C34.9788 19.4072 35.0846 19.5483 35.1551 19.6189C35.1904 19.6895 35.3667 19.5836 35.4372 19.6189C35.5078 19.6542 35.6488 19.6189 35.7546 19.5483C35.7898 19.5131 35.8604 19.5483 35.8956 19.5836C35.9309 19.5483 35.9661 19.4778 36.0014 19.4425C36.0014 19.4778 36.0367 19.5131 36.0719 19.5483ZM28.6319 20.7128C28.5966 20.7128 28.5614 20.7481 28.4908 20.7833C28.5261 20.7481 28.5966 20.7128 28.6319 20.7128ZM27.9972 19.0543C28.1382 18.9132 28.2793 18.7721 28.4203 18.6309C28.3498 18.7015 28.2793 18.8426 28.2793 19.0543C28.4203 19.1602 28.5966 19.0896 28.5966 19.3366C28.5614 19.3719 28.5261 19.4425 28.4908 19.4778C28.4556 19.4778 28.4556 19.4778 28.4203 19.4778C28.385 19.4425 28.3498 19.4425 28.2793 19.4072C28.2087 19.2308 28.103 19.1249 27.9972 19.0543ZM26.9393 19.6189C26.9393 19.5483 26.9394 19.4425 26.9041 19.4072C26.5162 19.3013 26.4457 19.5836 26.1989 19.7953C25.8815 19.4425 25.7757 18.9838 25.1058 19.1955C24.7884 18.9132 25.0705 19.1955 24.7532 19.2308C24.6121 19.1249 24.4006 18.5956 24.1185 18.8779C24.0832 18.8426 23.9069 18.9132 23.8716 18.9485C23.3427 18.5251 23.8364 17.043 22.8843 18.5251C22.7786 18.2428 22.7786 17.9252 22.7786 17.6076C22.708 17.5723 22.3907 17.9958 22.2849 18.1016C22.2849 18.3486 22.3554 18.5956 22.426 18.8426C22.3907 18.8779 22.1086 18.7721 22.0381 18.9838C22.1439 19.0191 22.2496 19.0191 22.3907 19.0543C22.4612 19.0543 22.5317 19.0191 22.6375 19.0191C22.6023 19.2308 22.4612 19.5483 22.7433 19.7248C23.0959 19.3366 23.0606 19.4072 23.3427 19.9718C23.4485 19.5483 23.6601 19.7248 23.6601 20.0071C23.9774 20.0423 23.9422 19.7953 24.1185 19.5836C24.33 19.5836 24.3653 19.6542 24.4358 19.8659C24.7884 19.9365 24.8942 20.0071 24.8942 20.3599C24.7179 20.5716 24.0832 20.5363 24.7532 20.7128C24.5416 20.9245 24.7179 20.8539 24.9295 20.7833C25.1058 20.9245 25.0705 21.0303 25.0353 21.1715C24.7532 21.3832 24.4711 21.5596 24.1537 21.7713C24.33 21.4538 24.33 21.1009 23.9069 20.8186C23.8716 20.7833 23.7659 20.7481 23.6601 20.7481C23.6953 20.7481 23.7306 20.7481 23.7659 20.7481C23.7659 20.6422 23.7659 20.5011 23.7659 20.3599C23.6601 20.2541 23.5896 20.3246 23.519 20.1835C23.4133 20.1129 23.3075 20.1129 23.2017 20.0776C23.0959 20.1482 23.1664 20.2188 23.0959 20.2188C23.0254 20.2541 22.9549 20.2893 22.9196 20.3246V20.3599L22.7786 20.2893C22.708 20.3952 22.567 20.6069 22.6728 20.7481C22.6728 20.7833 22.567 20.8186 22.6023 20.8892C22.6728 20.8892 22.6728 20.8186 22.7433 20.7833C22.7786 20.8186 22.8491 20.8539 22.8843 20.8892C22.8843 20.9245 22.8491 21.0303 22.8138 21.0656C22.7786 21.0656 22.6728 21.1009 22.6023 21.1362L20.5924 17.8546C21.2976 17.4312 21.9676 16.9725 22.567 16.5138C22.6023 16.5138 22.6375 16.5138 22.6728 16.549C22.708 16.549 22.6728 16.4785 22.6728 16.4432C23.0254 16.1609 23.378 15.8786 23.7306 15.5963C25.0353 16.6196 26.3047 17.784 27.574 19.0191C27.3625 19.2308 27.1509 19.4072 26.9393 19.6189ZM4.5134 17.8546L3.17348 17.3253L3.27927 17.0783L4.61918 17.6076C4.83075 17.6782 4.97179 17.7488 5.07757 17.7488C5.18336 17.7488 5.28914 17.7135 5.35966 17.6782C5.43018 17.6076 5.50071 17.5371 5.53597 17.4312C5.60649 17.2548 5.60649 17.1136 5.53597 16.9725C5.46544 16.8666 5.28914 16.7255 5.00705 16.6196L3.66714 16.0903L3.77292 15.8433L5.11283 16.3726C5.3244 16.4785 5.5007 16.549 5.64175 16.6549C5.74753 16.7608 5.85331 16.8666 5.88858 17.043C5.92384 17.1842 5.88858 17.3606 5.81805 17.5371C5.71227 17.7841 5.57123 17.9605 5.35966 17.9958C5.18336 18.0663 4.90127 18.0311 4.5134 17.8546ZM5.04231 19.6542L4.83075 20.3952L2.433 19.7248L2.64457 18.9838C2.71509 18.8426 2.75035 18.7015 2.82087 18.6309C2.8914 18.5603 2.96192 18.4898 3.10296 18.4898C3.20874 18.4545 3.34979 18.4545 3.45557 18.4898C3.56135 18.5251 3.66714 18.5603 3.73766 18.6309C3.80818 18.7015 3.8787 18.8073 3.8787 18.9132C3.94922 18.8073 4.05501 18.7368 4.16079 18.7015C4.26657 18.6662 4.40762 18.6662 4.54866 18.7015C4.6897 18.7368 4.83075 18.8073 4.90127 18.8779C5.00705 18.9838 5.04231 19.0543 5.07757 19.1955C5.11283 19.3366 5.11283 19.4778 5.04231 19.6542ZM6.62906 12.9499L7.29901 12.0325L7.54584 12.2089L6.87588 13.1263L7.5811 13.6203L8.32158 12.597L8.56841 12.7735L7.65162 14.0085L5.60649 12.5617L6.48801 11.362L6.73484 11.5385L6.02962 12.5265L6.62906 12.9499ZM10.7193 8.89202L9.76728 7.83345L9.97884 7.65702L10.9309 8.7156C11.1072 8.89202 11.213 9.06845 11.2835 9.2096C11.354 9.35074 11.3893 9.49188 11.354 9.66831C11.3188 9.80946 11.213 9.9506 11.1072 10.0917C10.8956 10.2682 10.6841 10.3387 10.5078 10.3387C10.2962 10.3035 10.0494 10.127 9.80254 9.84474L8.85049 8.78617L9.06206 8.60974L10.0141 9.66831C10.1551 9.84474 10.2962 9.9506 10.3667 9.98589C10.4725 10.0565 10.543 10.0565 10.6488 10.0565C10.7546 10.0565 10.8251 9.98589 10.8956 9.91531C11.0367 9.77417 11.1072 9.66831 11.1072 9.52717C11.0719 9.31546 10.9309 9.13903 10.7193 8.89202ZM13.4344 7.33945L12.9408 5.53987L13.1523 5.39873L13.8223 7.93931L13.6107 8.04517L11.6008 6.38673L11.8477 6.2103L13.2934 7.44531C13.3992 7.55116 13.5049 7.62174 13.6107 7.72759C13.5402 7.62174 13.5049 7.48059 13.4344 7.33945ZM14.6333 5.78687L15.6206 5.29287L15.7616 5.53987L14.7391 6.03387L15.1269 6.81016L16.2553 6.24559L16.3963 6.52788L15.0212 7.19831L13.8928 4.9753L15.2327 4.30487L15.3738 4.55187L14.2807 5.08116L14.6333 5.78687ZM17.7715 4.90473C17.8773 4.9753 17.9831 5.04587 18.0889 5.11644L18.653 5.64573L18.3357 5.75159L17.9126 5.36344C17.7362 5.2223 17.6305 5.11644 17.5599 5.04587C17.4894 5.01059 17.4189 4.9753 17.3484 4.9753C17.3131 4.9753 17.2426 4.9753 17.1368 5.01059L16.8547 5.11644L17.2426 6.13973L16.9958 6.24559L16.1142 3.91673L16.9605 3.59915C17.1368 3.52858 17.2779 3.4933 17.3836 3.52858C17.4894 3.52858 17.5599 3.56387 17.6657 3.66972C17.7362 3.7403 17.842 3.84615 17.8773 3.9873C17.9478 4.16373 17.9478 4.34016 17.9126 4.4813C17.8773 4.62244 17.7715 4.7283 17.5952 4.83416C17.6657 4.83416 17.7362 4.86944 17.7715 4.90473ZM21.086 5.04587L20.8039 5.11644L20.3808 2.96401L19.7109 3.10515L19.6403 2.82287L21.2271 2.50529L21.3329 2.75229L20.6629 2.89344L21.086 5.04587ZM21.897 4.86944L22.4612 2.32886L22.7433 2.29358L23.8364 4.69301L23.519 4.7283L23.2017 3.9873L22.3554 4.09315L22.1791 4.86944H21.897ZM25.5642 3.81087C25.5289 3.7403 25.4937 3.70501 25.4231 3.66972C25.3526 3.63444 25.2116 3.59915 25 3.52858C24.7884 3.45801 24.6826 3.42272 24.5769 3.35215C24.5063 3.28158 24.4358 3.21101 24.4006 3.14044C24.3653 3.03458 24.33 2.96401 24.33 2.82287C24.33 2.61115 24.4006 2.47001 24.5416 2.32886C24.6827 2.22301 24.859 2.15243 25.0705 2.15243C25.2116 2.15243 25.3526 2.18772 25.4584 2.25829C25.5642 2.32886 25.6347 2.39944 25.7052 2.54058C25.7757 2.64644 25.811 2.78758 25.811 2.92872L25.5642 2.96401C25.5642 2.78758 25.4937 2.68172 25.4231 2.57586C25.3526 2.50529 25.2116 2.47001 25.0705 2.47001C24.9295 2.47001 24.7884 2.50529 24.7179 2.57586C24.6474 2.64644 24.6121 2.75229 24.5769 2.82287C24.5769 2.92872 24.6121 2.99929 24.6474 3.06987C24.7179 3.14044 24.8237 3.17572 25.0353 3.24629C25.2468 3.31687 25.3879 3.35215 25.4584 3.42272C25.5994 3.4933 25.67 3.56387 25.7405 3.66972C25.811 3.77558 25.8463 3.91673 25.811 4.05787C25.811 4.19901 25.7757 4.34016 25.7052 4.44601C25.6347 4.55187 25.5289 4.65773 25.4231 4.69301C25.3173 4.76359 25.1763 4.79887 25 4.79887C24.7532 4.79887 24.5416 4.69301 24.4006 4.55187C24.2595 4.41073 24.189 4.19901 24.189 3.91673L24.4358 3.88144C24.4358 4.02258 24.4711 4.12844 24.5063 4.19901C24.5416 4.26958 24.6121 4.34016 24.7179 4.37544C24.8237 4.41073 24.8942 4.44601 25 4.44601C25.1763 4.44601 25.2821 4.41073 25.3879 4.34016C25.4584 4.26958 25.5289 4.16373 25.5289 4.02258C25.5994 3.95201 25.5994 3.88144 25.5642 3.81087ZM28.0677 4.41073C28.1735 4.62244 28.3145 4.7283 28.4908 4.76359C28.6319 4.79887 28.7729 4.76359 28.8787 4.65773C29.0197 4.58716 29.0903 4.41073 29.1608 4.2343L29.4076 4.37544C29.3018 4.62244 29.1608 4.83416 28.9845 4.94001C28.8082 5.04587 28.6319 5.08116 28.4203 5.04587C28.244 5.01059 28.0677 4.94001 27.9619 4.83416C27.8561 4.7283 27.7504 4.55187 27.7151 4.34016C27.6446 4.12844 27.6446 3.84615 27.7151 3.59915C27.7504 3.31687 27.8561 3.10515 27.9619 2.92872C28.0677 2.75229 28.2087 2.64644 28.385 2.57586C28.5614 2.50529 28.7024 2.47001 28.8787 2.50529C29.0903 2.54058 29.2313 2.64644 29.3371 2.78758C29.4781 2.92872 29.5134 3.14044 29.5487 3.35215L29.2666 3.38744C29.2313 3.03458 29.0903 2.82287 28.8082 2.78758C28.6671 2.75229 28.5614 2.75229 28.4556 2.82287C28.3498 2.89344 28.244 2.96401 28.1735 3.10515C28.103 3.2463 28.0324 3.42272 27.9972 3.63444C27.9619 3.95201 27.9972 4.2343 28.0677 4.41073ZM33.5684 5.4693C33.6037 5.57516 33.6389 5.7163 33.6389 5.85744L33.7094 6.63373L33.3921 6.49259L33.3216 5.92802C33.2863 5.7163 33.2863 5.53987 33.2511 5.4693C33.2158 5.36344 33.2158 5.32816 33.1453 5.29287C33.11 5.25759 33.0395 5.2223 32.969 5.18702L32.6869 5.04587L32.2638 6.06916L32.0522 5.92802L33.0042 3.63444L33.8505 3.9873C34.0268 4.05787 34.1326 4.12844 34.2031 4.19901C34.2736 4.26958 34.3089 4.37544 34.3441 4.51658C34.3441 4.65773 34.3441 4.76359 34.2736 4.90473C34.2031 5.08116 34.0973 5.18702 33.9563 5.25759C33.8152 5.32816 33.6742 5.36344 33.4626 5.29287C33.4979 5.36344 33.5331 5.43402 33.5684 5.4693ZM31.9817 3.59915L30.8181 3.24629L30.6065 3.9873L31.6996 4.30487L31.6291 4.58716L30.536 4.26958L30.2891 5.08116L31.488 5.43402L31.4175 5.7163L29.9365 5.29287L30.6417 2.89344L32.0522 3.28158L31.9817 3.59915ZM35.1199 4.86944L35.2609 4.62244L36.6714 5.39873L36.5303 5.64573L35.9309 5.32816L34.8731 7.26888L34.6262 7.12773L35.6841 5.18702L35.1199 4.86944ZM43.8999 12.597L44.1467 12.4559L44.9929 13.832L44.7461 14.0085L44.3935 13.4439L42.5247 14.6083L42.3836 14.3966L44.2525 13.2322L43.8999 12.597ZM45.3808 14.5378L45.5219 14.7848L43.3004 15.9492L43.1946 15.7022L45.3808 14.5378ZM41.9605 13.6203L41.7842 13.3733L42.2426 12.7382L41.7137 12.0677L40.9732 12.35L40.7969 12.103L43.2652 11.2209L43.4415 11.4679L41.9605 13.6203ZM41.8195 10.5152L41.5726 10.374C41.7489 10.0565 41.7489 9.80946 41.5726 9.63303C41.4669 9.52717 41.3611 9.4566 41.2553 9.4566C41.1142 9.42131 41.0085 9.4566 40.8322 9.52717C40.6911 9.56246 40.5148 9.7036 40.3738 9.84474C40.1269 10.0917 39.9859 10.3035 39.9506 10.5152C39.9154 10.7269 39.9506 10.9033 40.0917 11.0445C40.1975 11.1503 40.3032 11.2209 40.4795 11.2209C40.6206 11.2209 40.7969 11.1856 40.9732 11.0445L41.1142 11.2915C40.8674 11.4326 40.6559 11.5032 40.4443 11.5032C40.2327 11.5032 40.0564 11.3973 39.9154 11.2562C39.7743 11.115 39.7038 10.9739 39.6685 10.7975C39.6333 10.621 39.6685 10.4446 39.7743 10.2329C39.8801 10.0212 40.0212 9.84474 40.1975 9.63303C40.409 9.4566 40.5853 9.31545 40.7969 9.24488C41.0085 9.17431 41.1848 9.17431 41.3611 9.2096C41.5374 9.24488 41.6784 9.31546 41.8195 9.4566C41.9605 9.59774 42.031 9.77417 42.031 9.9506C41.9958 10.0917 41.9605 10.3035 41.8195 10.5152ZM38.7165 9.98589L38.5049 9.80946L40.1622 7.93931L40.3738 8.11574L38.7165 9.98589ZM39.3512 7.62174L38.4697 6.95131L38.0113 7.55116L38.787 8.15102L38.6107 8.39802L37.8702 7.79816L37.165 8.7156L36.9535 8.53917L38.4697 6.56316L39.5628 7.41002L39.3512 7.62174ZM36.2482 8.08045L36.0367 7.93931L37.3766 5.85744L37.5882 5.99859L36.2482 8.08045ZM38.0818 13.4439C38.0818 13.5145 38.0818 13.5498 38.0818 13.585V13.5498C38.1171 13.5498 38.1171 13.4792 38.0818 13.4439ZM29.4076 13.338C29.3018 13.4439 29.2666 13.5498 29.3018 13.6556C29.055 13.5145 28.8082 13.4086 28.5614 13.2675C28.5614 13.2322 28.5614 13.1616 28.5261 13.1263C28.4556 13.091 28.3498 12.8088 28.2793 12.7735C27.9972 12.9146 28.0324 12.9146 28.0324 12.7029C27.9972 12.6676 27.8209 12.7735 27.7151 12.8793C27.433 12.7382 27.1157 12.6323 26.8336 12.4912C26.7983 12.4206 26.7983 12.3853 26.763 12.3147C26.9746 12.0325 27.1509 11.7502 27.3272 11.4326C27.6446 11.5737 28.103 11.8207 28.4908 11.9266C28.6319 11.9619 29.0197 11.7502 29.2313 11.7502C29.6544 11.4326 29.3371 10.6916 29.7602 10.3387V10.374C29.866 10.3387 30.0423 10.2329 30.0776 10.1623C30.3244 10.3387 30.3597 10.0917 30.6065 9.91531C30.8181 10.0565 30.3949 10.4799 30.677 10.6563C30.2186 10.9033 29.866 11.3973 29.8307 11.8207C30.0071 11.8913 30.1834 11.9266 30.3949 11.9619C30.4302 11.9266 30.4302 11.7855 30.5007 11.7502C30.5712 11.7502 30.6065 11.7502 30.677 11.7502C30.677 11.9619 31.347 12.0677 31.2059 12.3147C31.0649 12.4912 30.7828 12.4559 30.6417 12.4206C30.5712 12.4912 30.4302 12.597 30.3597 12.597C30.3597 12.8088 30.536 13.0558 30.6417 13.2675C30.7123 13.3733 30.9944 13.4086 31.1001 13.4439C31.2412 13.5498 31.4175 13.6909 31.6291 13.6909C31.6291 13.6909 31.6291 13.7262 31.6291 13.7615C31.5938 13.832 31.5585 13.8673 31.5233 13.9379C31.488 13.9732 31.4527 14.0438 31.4175 14.079H31.4527C31.347 14.2908 31.2412 14.5025 31.1354 14.6789H31.1001C30.7123 14.4319 30.2891 14.1849 29.9013 13.9379H29.9365C29.8307 13.6909 29.5839 13.4792 29.4076 13.338ZM23.6953 15.2082C22.7433 14.4672 21.756 13.7615 20.7687 13.1263C21.4034 12.6323 21.9676 12.0677 22.426 11.5737C22.8138 11.6443 23.2017 11.7149 23.5896 11.8207C23.519 11.9972 23.5543 12.1736 23.9774 12.2089C23.9774 12.3853 23.9069 12.5617 24.1537 12.5617C24.0832 12.844 24.0127 13.3733 24.33 13.4792C24.33 13.3733 24.2595 12.8088 24.5769 13.0205C24.6474 13.3028 24.6827 13.4792 24.33 13.585C24.1537 13.9026 24.0832 14.3613 24.048 14.82C23.9422 14.9612 23.8364 15.1023 23.6953 15.2082ZM22.4612 16.1962C22.3907 16.1256 22.3554 16.0903 22.3202 16.0903C22.3202 16.1962 22.3202 16.2315 22.2849 16.302C21.6855 16.7255 21.0508 17.1842 20.4161 17.5723L18.6178 14.6083C19.2877 14.1849 19.9224 13.7262 20.5219 13.2675C21.5092 13.9026 22.4965 14.6083 23.4485 15.3493C23.1312 15.6669 22.8138 15.9492 22.4612 16.1962ZM23.0254 21.8419L22.9549 21.7361C22.9901 21.7008 23.0254 21.6655 23.0959 21.6302C23.0959 21.6655 23.0606 21.7713 23.0254 21.8419ZM31.9111 13.9026C31.8406 13.9732 31.7348 14.079 31.6643 14.1849L31.6996 14.1496C31.7701 14.0085 31.8759 13.8673 31.9111 13.9026ZM12.6587 13.2322C12.5882 13.1616 12.5882 13.0558 12.5882 12.9852C13.2228 12.5618 13.8928 12.1736 14.6333 11.7855C13.9986 12.3147 13.4344 12.8793 12.9055 13.4792C12.7645 13.4086 12.6939 13.338 12.6587 13.2322ZM13.1171 10.0212C13.5755 9.91531 13.9986 9.91531 14.4217 10.0565C13.9633 10.4093 13.5755 10.7622 13.2228 11.115C12.2708 11.4326 11.4245 11.856 10.5783 12.4559C11.3188 11.5737 12.165 10.7622 13.1171 10.0212ZM20.3103 6.52788C19.2877 7.02188 18.4415 7.65702 17.701 8.39802C17.2073 8.53917 16.7137 8.7156 16.1848 8.99788C16.2553 8.53917 16.4316 8.15102 16.7489 7.79816C17.9478 7.23359 19.1114 6.81016 20.3103 6.52788ZM22.9901 6.06916L22.9549 6.10445C23.2722 6.2103 23.519 6.38673 23.6953 6.56316C22.3554 6.91602 21.0155 7.48059 19.6051 8.25688C19.4288 8.18631 19.1819 8.15102 18.8999 8.15102C18.6883 8.15102 18.4767 8.18631 18.2652 8.22159C19.2172 7.37474 20.3456 6.7043 21.7207 6.2103C22.1791 6.13973 22.6023 6.10445 22.9901 6.06916ZM22.3202 8.64503C22.3202 8.64503 22.2849 8.60974 22.2496 8.57445C22.1086 8.57445 22.1086 8.57445 22.1791 8.64503C22.1791 8.64503 22.2144 8.64502 22.2144 8.68031C21.5444 8.75088 20.9097 8.89202 20.2398 9.03317C20.2398 8.89202 20.2045 8.75088 20.0987 8.68031C20.0635 8.60974 19.9929 8.53917 19.9577 8.50388C21.3329 7.76288 22.6375 7.19831 23.9422 6.88073C24.1185 7.16302 24.1537 7.51588 24.1185 7.86874C24.0832 7.86874 24.048 7.86874 23.9774 7.90402C23.9422 7.97459 24.048 7.93931 24.0832 7.97459C24.0832 8.04517 24.048 8.08045 24.048 8.15102C23.8364 8.18631 23.9422 8.25688 23.6248 8.25688C23.5896 8.18631 23.7659 8.15102 23.4485 8.11574C23.4838 8.08045 23.5543 8.00988 23.5896 7.97459C23.0254 8.00988 22.8491 8.11574 23.1312 8.36274C23.0254 8.32745 22.9196 8.32745 22.8138 8.29217C22.4965 8.36274 22.8843 8.39802 22.9549 8.4686C22.8843 8.50388 22.9196 8.53917 22.8843 8.57445C22.8491 8.57445 22.8138 8.57445 22.7786 8.57445C22.6728 8.53917 22.567 8.43331 22.4612 8.50388C22.4612 8.53917 22.4612 8.57445 22.4612 8.60974C22.4612 8.64502 22.3907 8.64503 22.3202 8.64503ZM19.0409 10.7622C18.3004 10.6916 17.5247 10.6563 16.7489 10.6563C17.7715 10.127 18.8293 9.73888 19.8872 9.4566C19.8166 9.7036 19.6403 10.0212 19.3935 10.3387C19.2877 10.4799 19.1467 10.621 19.0409 10.7622ZM18.9704 8.4686C19.0762 8.4686 19.1819 8.4686 19.2877 8.50388C18.4415 8.99788 17.5599 9.56246 16.6432 10.2329C16.9958 9.63303 17.4189 9.10374 17.9126 8.64503C18.2652 8.53917 18.653 8.4686 18.9704 8.4686ZM16.1848 10.374C16.1495 9.98589 16.1142 9.66831 16.1495 9.35074C16.5374 9.13903 16.9252 8.9626 17.2779 8.85674C16.89 9.28017 16.5374 9.80946 16.1848 10.374ZM15.8674 10.127L15.5853 9.63303C15.6559 9.59774 15.7616 9.52717 15.8674 9.4566C15.8322 9.7036 15.8322 9.91531 15.8674 10.127ZM15.5853 10.3035C15.409 10.1623 15.1975 10.0565 15.0212 9.98589C15.0917 9.91531 15.1975 9.88003 15.268 9.80946L15.5853 10.3035ZM15.6206 10.6916C14.9859 10.7269 14.3865 10.8327 13.787 10.9739C14.0691 10.7269 14.3865 10.4446 14.7038 10.1976C15.0212 10.3387 15.3032 10.4799 15.6206 10.6916ZM16.5021 11.1503C16.9605 11.362 17.4189 11.5737 17.8773 11.7855C17.6657 11.9266 17.4189 12.103 17.2073 12.2442L16.5021 11.1503ZM16.8547 10.9739C17.4894 10.9739 18.1241 11.0092 18.7588 11.0445C18.5472 11.2209 18.3709 11.3973 18.1241 11.5737C17.701 11.362 17.2779 11.1856 16.8547 10.9739ZM17.6305 9.91531C18.3357 9.42131 19.0056 8.99788 19.6756 8.60974C19.7461 8.64502 19.8166 8.7156 19.8872 8.78617C19.9224 8.89202 19.9577 8.9626 19.9577 9.10374C19.1467 9.35074 18.3709 9.59774 17.6305 9.91531ZM28.5614 6.59845C28.5261 6.63373 28.3498 6.66902 28.244 6.73959C28.2087 6.7043 28.2087 6.66902 28.2087 6.63373C28.3145 6.63373 28.4203 6.63373 28.5614 6.59845ZM28.385 6.98659C28.4908 7.09245 28.244 7.02188 28.4556 7.12773C28.6319 7.26888 28.914 7.09245 29.2666 7.19831C29.2666 7.41002 28.4908 7.58645 28.4908 7.76288C28.7729 7.83345 28.914 7.79816 29.196 7.62174C29.2666 7.65702 29.5839 7.69231 29.4781 7.79816C29.3371 7.93931 29.0903 7.93931 28.914 8.04517C28.8434 8.08045 28.6671 8.32745 28.4908 8.29217C28.4908 8.29217 28.4908 8.29217 28.4556 8.29217C28.4908 7.79817 28.4556 7.37474 28.385 6.98659C28.3498 6.95131 28.385 6.95131 28.385 6.98659ZM27.0099 6.56316C27.1862 6.56316 27.3272 6.7043 27.574 6.66902C27.574 6.59845 27.574 6.52788 27.433 6.56316C27.3977 6.49259 27.3977 6.49259 27.3977 6.4573C27.5388 6.4573 27.6798 6.4573 27.7856 6.4573C27.7856 6.49259 27.8209 6.49259 27.8209 6.52788C27.7856 6.56316 27.7856 6.56316 27.7504 6.59845C27.7856 6.59845 27.8209 6.59845 27.8561 6.59845C28.0677 7.09245 28.1382 7.62174 28.1382 8.18631C28.0677 8.15102 27.9619 8.15102 27.8914 8.15102C27.5035 7.90402 26.9394 8.29217 26.2694 8.32745C26.763 8.00988 28.3498 7.48059 27.7856 7.12773C27.7151 7.09245 27.6093 7.05716 27.5035 7.02188C27.292 6.95131 26.7278 6.98659 26.5162 7.12773C26.2694 7.30416 25.6347 7.37473 25.3173 7.48059C24.9647 7.62174 24.7884 7.86874 24.4711 7.97459C24.5063 7.55116 24.4711 7.16302 24.2948 6.84545C25.141 6.63373 25.9873 6.52788 26.8336 6.49259C26.6925 6.56316 26.622 6.59845 26.3047 6.73959C26.481 6.7043 26.7983 6.52788 27.0099 6.56316ZM24.0832 6.49259C23.9422 6.31616 23.7306 6.13973 23.519 5.99859C24.7532 5.92802 26.0226 5.9633 27.2567 6.10445C26.1989 6.13973 25.141 6.24559 24.0832 6.49259ZM15.8674 9.13903C15.7264 9.2096 15.5501 9.31545 15.409 9.38603L14.9859 8.7156C15.3738 8.4686 15.7969 8.25688 16.1848 8.04517C16.0085 8.39802 15.9027 8.75088 15.8674 9.13903ZM15.1269 9.56246C14.9859 9.66831 14.8449 9.73888 14.6685 9.84474C14.3159 9.7036 13.9633 9.63303 13.5755 9.63303C13.9281 9.35074 14.3159 9.10374 14.7038 8.85674L15.1269 9.56246ZM13.3639 11.4326C13.9986 11.2562 14.6333 11.115 15.3385 11.0445C14.3512 11.5385 13.4344 12.0677 12.6234 12.597C12.7292 12.35 12.8702 12.0677 13.1171 11.7502C13.1876 11.6443 13.2581 11.5385 13.3639 11.4326ZM15.6559 11.3267C15.3032 12.0325 15.0212 12.7029 14.7038 13.4086C14.2807 13.5498 13.8575 13.6203 13.5049 13.6203C13.3992 13.6203 13.2581 13.6203 13.1523 13.585C13.9281 12.7382 14.7743 11.9972 15.6559 11.3267ZM15.9027 11.5737C15.8674 12.0325 15.8674 12.4912 15.8674 12.9852C15.6206 13.091 15.3385 13.1969 15.1269 13.3028C15.3385 12.7029 15.6206 12.1383 15.9027 11.5737ZM16.22 11.3267L16.89 12.4206C16.6432 12.5618 16.3963 12.7029 16.1495 12.8088C16.1848 12.3147 16.1848 11.8207 16.22 11.3267ZM17.3484 12.5265C17.6305 12.35 17.9126 12.1736 18.1594 11.9619C18.8646 12.3147 19.5346 12.7029 20.2398 13.1263C19.7109 13.5498 19.1114 13.9732 18.4767 14.3613L17.3484 12.5265ZM18.4415 11.7502C18.6883 11.5385 18.9704 11.2915 19.1819 11.0797C20.1693 11.1856 21.1566 11.2915 22.1086 11.4679C21.6502 11.9619 21.1213 12.4559 20.5219 12.9499C19.8166 12.5265 19.1114 12.103 18.4415 11.7502ZM19.4288 10.7975C19.4993 10.7269 19.5698 10.621 19.6403 10.5152C19.9577 10.0917 20.1693 9.7036 20.2045 9.35074C20.7687 9.2096 21.3329 9.06845 21.9323 8.99788C21.9323 8.99788 21.9676 8.99788 22.0028 8.99788C22.1439 8.9626 22.2496 8.9626 22.3907 8.9626C22.426 9.06845 22.5317 9.2096 22.6375 9.28017C22.6728 9.42131 22.708 9.38603 22.4965 9.4566C22.5317 9.7036 22.4612 9.73888 22.708 9.88003C22.7433 10.1623 22.8491 10.3035 22.9196 10.4799C22.8491 10.5857 22.7786 10.6563 22.708 10.7622C22.708 10.7269 22.6728 10.6916 22.6375 10.6563C22.6023 10.6916 22.567 10.7269 22.5317 10.7269C22.5317 10.868 22.567 10.868 22.6023 10.9033C22.5317 11.0092 22.426 11.115 22.3202 11.2209C21.4034 11.0092 20.4161 10.868 19.4288 10.7975ZM23.0254 10.868C23.0254 10.9033 23.0254 10.9033 23.0254 10.868C23.1664 11.0092 23.2017 11.2209 23.2722 11.3973C23.0959 11.362 22.8843 11.3267 22.708 11.2915C22.8138 11.1503 22.9196 11.0092 23.0254 10.868ZM24.4006 12.0325C24.5063 12.103 24.5063 12.2795 24.6827 12.35C24.5416 12.2795 24.4711 12.1383 24.4006 12.0325ZM24.7884 12.9499C24.6121 12.8088 24.7179 12.7735 24.7884 12.6676C24.7532 12.7735 24.7532 12.8793 24.7884 12.9499ZM26.2341 10.7975C25.5994 10.5857 25.5994 10.7269 25.8815 10.3035C25.4937 10.2682 25.5994 10.2329 25.5994 9.91531C25.8815 9.88003 26.3399 9.63303 26.5867 9.77417C26.2694 9.91531 26.763 10.3387 26.9746 10.4799C26.763 10.6563 27.0451 10.5505 27.0804 10.621C26.9394 10.7269 27.2214 10.9739 27.0804 11.1503C27.0804 11.1503 27.0804 11.1503 27.1157 11.1856C26.9746 11.4326 26.7983 11.7149 26.622 11.9619C26.3399 11.4326 26.0226 10.6916 26.2341 10.7975ZM8.49788 15.3493C8.53314 15.561 8.56841 15.7728 8.67419 15.9492C8.11001 16.6196 7.61636 17.29 7.22849 18.0311C7.54584 17.0783 7.96897 16.1962 8.49788 15.3493ZM8.77997 14.9259H8.74471C9.0268 14.4672 9.30889 14.0438 9.62623 13.6203C10.6488 12.7029 11.7066 12.0677 12.7997 11.6443C12.4471 12.103 12.2708 12.4912 12.2355 12.844C10.8956 13.7262 9.76728 14.6789 8.85049 15.7022C8.77997 15.4552 8.77997 15.2082 8.77997 14.9259ZM12.2708 13.1616C12.2708 13.2675 12.3061 13.338 12.3413 13.4086C12.4118 13.5145 12.5176 13.585 12.6234 13.6909C11.7772 14.6436 11.0367 15.7022 10.4372 16.8313C9.76728 16.7255 9.27362 16.4432 8.99154 16.0198C9.90832 14.9965 11.0014 14.0438 12.2708 13.1616ZM12.9408 13.832C13.1171 13.9026 13.2934 13.9026 13.5402 13.9026C13.8575 13.9026 14.2102 13.8673 14.5628 13.7615C14.1749 14.6789 13.8575 15.6316 13.6107 16.549C13.2228 16.6549 12.835 16.7255 12.4471 16.796C11.8124 16.9019 11.2482 16.9019 10.7898 16.8666C11.4245 15.7728 12.1298 14.7495 12.9408 13.832ZM14.9506 13.6556C15.2327 13.5498 15.5501 13.4439 15.8674 13.3028C15.8674 14.079 15.9027 14.8553 16.0085 15.6669C15.3032 15.9845 14.6333 16.2315 13.9633 16.4079C14.2454 15.5258 14.5628 14.573 14.9506 13.6556ZM16.1848 13.1616C16.4669 13.0205 16.7842 12.844 17.0663 12.6676L18.1946 14.5025C17.5599 14.8906 16.9252 15.2082 16.2906 15.5258C16.22 14.7495 16.1848 13.9379 16.1848 13.1616ZM19.2877 5.4693L18.6178 3.06987L18.8646 2.99929L19.5346 5.39873L19.2877 5.4693ZM10.1199 10.9033L9.90832 11.1503L9.2031 10.8327L8.63893 11.4679L9.06206 12.1383L8.88575 12.35L7.54584 10.0917L7.72214 9.88003L10.1199 10.9033ZM5.64175 13.7615C5.81805 13.8673 5.92384 13.9732 5.9591 14.1143C6.02962 14.2555 5.99436 14.4319 5.9591 14.6083C6.02962 14.573 6.10014 14.5378 6.17066 14.5378C6.31171 14.5025 6.41749 14.5025 6.55853 14.5025L7.33427 14.5378L7.15797 14.82H6.59379C6.38223 14.82 6.20592 14.82 6.1354 14.82C6.02962 14.82 5.99436 14.8553 5.92384 14.8906C5.85331 14.9259 5.81805 14.9612 5.78279 15.067L5.64175 15.3493L6.62906 15.8786L6.48801 16.1256L4.30183 14.9259L4.76023 14.1143C4.86601 13.9379 4.93653 13.832 5.04231 13.7968C5.11283 13.7262 5.21862 13.7262 5.35966 13.7262C5.50071 13.7262 5.53597 13.6909 5.64175 13.7615ZM8.81523 16.2315C9.13258 16.6549 9.62623 16.9372 10.3315 17.0783C9.76728 18.1722 9.30889 19.3013 8.95628 20.5363C8.03949 20.2893 7.36953 19.8659 6.91114 19.2308C7.4048 18.1722 8.03949 17.1842 8.81523 16.2315ZM10.6488 17.1489C10.8604 17.1842 11.0719 17.1842 11.3188 17.1842C11.6714 17.1842 12.0945 17.1489 12.5176 17.0783C12.835 17.043 13.1876 16.9372 13.5402 16.8666C13.1876 18.1016 12.9408 19.3366 12.835 20.6069C12.5529 20.6422 12.2708 20.6775 12.024 20.7128C11.0014 20.8186 10.0846 20.7481 9.30889 20.6069C9.59097 19.4072 10.0846 18.2428 10.6488 17.1489ZM13.8575 16.796C14.5628 16.6196 15.268 16.3373 16.0085 16.0198C16.0437 16.2315 16.0437 16.4432 16.079 16.6549C16.0437 16.6549 15.9732 16.6549 15.9379 16.7255C16.079 16.9372 16.1142 16.9019 15.9379 16.9019C15.9027 17.043 15.9027 17.29 15.9027 17.4312C16.0085 17.5371 16.079 17.4665 16.1495 17.4312C16.1495 17.5371 16.1848 17.6429 16.1848 17.7488C16.079 17.8546 16.0085 17.9958 16.22 18.1016C16.22 18.1016 16.22 18.0663 16.2553 18.0663C16.3258 18.5956 16.4316 19.0896 16.5374 19.6189C15.3738 20.0776 14.2102 20.4305 13.1171 20.6069C13.2581 19.3013 13.5049 18.0663 13.8575 16.796ZM16.5726 17.9605C16.6079 17.9958 16.6784 18.1016 16.6784 18.2428C16.6432 18.2781 16.6432 18.2781 16.6432 18.3133C16.6079 18.1722 16.6079 18.0663 16.5726 17.9605ZM16.6784 18.5251C16.9252 18.2075 17.3836 18.5251 17.701 18.3133C17.842 18.1722 17.9126 17.6782 18.1594 17.6076C18.1241 17.2195 18.7236 16.6549 18.1241 16.2668C18.0183 16.1962 17.8773 16.1962 17.7715 16.1256C17.7362 16.0903 17.7715 15.9492 17.6657 15.9492C17.5599 15.9139 17.5952 15.9139 17.5952 16.055C17.5247 15.9845 17.3484 15.8433 17.2426 15.9845C17.2779 16.0903 17.4189 16.1609 17.3836 16.2315C17.1721 16.1256 17.1368 16.1609 17.2073 16.4079C17.0663 16.2315 16.89 16.4079 16.8195 16.6549C16.9252 16.796 16.8195 16.796 16.8547 16.8313C16.6432 16.549 16.7137 16.549 16.5726 16.7608C16.5374 16.796 16.7137 16.9725 16.6784 17.043C16.5726 17.2548 16.5726 17.1489 16.4316 16.9019C16.3963 16.549 16.3611 16.2315 16.3258 15.9139C16.9958 15.5963 17.6657 15.2435 18.3357 14.82L20.134 17.784C19.0409 18.4545 17.9126 19.0191 16.8195 19.4778C16.7842 19.1249 16.7137 18.8426 16.6784 18.5251ZM23.9422 15.3846C24.0127 15.314 24.048 15.2788 24.1185 15.2082C24.2948 15.2788 24.4006 15.3493 24.4006 15.5963C24.5416 15.6669 24.7179 15.9139 24.8237 15.9492C25.2468 15.5258 25.141 16.0198 25.2116 16.2668C25.4231 16.2668 25.3526 16.2315 25.4231 16.055C25.67 16.1256 25.6347 16.2668 25.6347 16.4432C26.0226 16.7608 26.0578 16.4432 26.3752 16.4079C26.622 16.1609 26.5867 15.4905 26.5867 15.1729C26.5162 15.067 26.4457 14.9612 26.3752 14.82C26.481 14.8553 26.5867 14.8553 26.6573 14.8906C26.9746 15.1023 27.3977 15.3493 27.8561 15.314C27.9972 15.5258 27.9619 15.4199 28.1735 15.4199C28.244 15.5258 28.5614 15.4905 28.6671 15.4552C28.6671 15.4552 29.2666 15.808 29.3018 15.808C29.3371 15.7728 29.4076 15.5963 29.4429 15.5963C29.3018 15.4905 29.0903 15.314 29.0903 15.2082C29.5839 15.0318 29.2313 14.326 29.055 14.1849C28.914 14.079 28.5261 13.9732 28.4556 13.832C28.4556 13.7968 28.4556 13.6909 28.4908 13.585C29.3018 13.9732 30.0776 14.4319 30.8181 14.9259C30.7828 15.0318 30.7475 15.1023 30.7123 15.2082C30.5007 15.561 30.2539 15.8786 30.0423 16.1962C30.0423 16.0903 29.8307 16.0903 29.7602 16.0903C29.6897 16.0903 29.6192 16.0903 29.6544 16.2315C29.6897 16.3726 29.866 16.0903 29.866 16.3726C29.866 16.4432 29.866 16.5138 29.8307 16.549C29.7955 16.6196 29.725 16.6902 29.6897 16.7255C29.6544 16.7608 29.6192 16.7608 29.6192 16.796C29.6192 16.796 29.6192 16.796 29.6192 16.8313C29.5487 16.9019 29.5134 16.9725 29.4429 17.043C29.4429 17.043 29.4076 17.043 29.4076 17.0078C29.3018 17.043 29.0903 17.1489 28.9845 17.2548C28.8787 17.1842 28.9492 17.1136 28.7729 17.043C28.6319 17.0783 28.5614 17.1136 28.5261 17.1489C28.4556 17.0783 28.4556 17.29 28.4556 17.0783C28.4908 16.8666 28.244 16.4432 28.1382 16.3726C28.1735 16.3373 28.1735 16.1256 28.2087 16.0903C28.103 16.055 27.9267 16.2668 27.8209 16.2668C27.7504 16.1609 27.574 15.9139 27.4683 15.8433C27.433 15.9492 27.3977 16.0198 27.5035 16.0903C27.433 16.1609 27.2567 16.3726 27.2214 16.4079C27.2567 16.4079 27.3272 16.8666 27.3625 16.6196C27.3977 16.4079 27.6798 16.302 27.7151 16.302C27.7151 16.4785 27.6798 16.6549 27.3625 16.796C27.574 16.9019 27.9619 17.29 28.1735 17.2195C28.244 17.2548 28.3498 17.2901 28.4203 17.3606C28.5261 17.4665 28.7729 17.5018 28.914 17.5018C28.914 17.5371 28.914 17.5371 28.9492 17.5723C28.5966 17.9605 28.244 18.3486 27.8561 18.7368C26.5162 17.5723 25.2468 16.4079 23.9422 15.3846ZM28.6319 18.3839C28.6319 18.4192 28.6319 18.4192 28.6319 18.3839C28.7729 18.4545 28.8787 18.5251 28.9492 18.5603C29.055 18.5956 29.0903 18.6309 28.9492 18.5603C28.8082 18.5251 28.5966 18.4898 28.4203 18.5956C28.4908 18.5251 28.5614 18.4545 28.6319 18.3839ZM28.9845 18.0663C28.9845 18.1016 28.9492 18.1369 28.914 18.1369C28.8787 18.1369 28.8434 18.1369 28.8082 18.1369C28.8434 18.1016 28.914 18.0311 28.9492 17.9605C28.9845 18.0311 28.9845 18.0663 28.9845 18.0663ZM30.5712 16.302C30.6417 16.3373 30.7123 16.3726 30.7475 16.3726C30.8181 16.4079 30.7828 16.5138 30.8533 16.5843C30.7828 16.5138 30.7828 16.4432 30.7475 16.3726C30.677 16.3726 30.6417 16.3373 30.5712 16.302ZM30.5007 16.302C30.4654 16.2668 30.4302 16.2668 30.3949 16.2315C30.4302 16.1609 30.4654 16.1256 30.5007 16.0903C30.5007 16.1609 30.5007 16.2668 30.5007 16.302ZM34.2736 19.5131C34.1678 19.6895 34.0268 19.9012 33.8858 20.0776C33.8858 19.5131 34.0268 19.3366 34.2736 19.5131ZM39.1396 15.2082C39.1044 15.2435 39.1044 15.2435 39.1396 15.2082V15.2082ZM38.9986 15.067C38.9633 15.067 38.9633 15.067 38.9281 15.067C38.9281 15.0318 38.9281 15.0318 38.9281 14.9965C38.9633 15.0318 38.9633 15.0318 38.9986 15.067ZM40.5148 14.2908C40.6911 14.5378 40.8322 14.7848 41.0085 15.0318C41.1848 15.314 41.3611 15.5963 41.5021 15.9139C41.5021 16.302 41.4316 16.6902 41.3963 17.0783C41.2553 16.9372 41.1142 16.7608 40.9732 16.6196C41.079 16.1962 41.22 15.5963 41.22 15.561C40.9379 14.8553 40.7969 14.82 40.5148 14.2908ZM41.7489 16.4079C42.1368 17.1489 42.4542 17.9252 42.7362 18.7015C42.3836 18.2428 42.031 17.8193 41.6784 17.3959C41.6784 17.043 41.7137 16.7255 41.7489 16.4079ZM44.0762 16.6902C44.2525 16.4432 44.464 16.2668 44.7814 16.1256C45.1693 15.9492 45.5219 15.9139 45.8039 16.0198C46.086 16.1256 46.2976 16.2668 46.4034 16.549C46.4739 16.7255 46.4739 16.9019 46.4739 17.0783C46.4386 17.2548 46.3329 17.4312 46.1918 17.5723C46.0508 17.7135 45.8392 17.8546 45.5924 17.9605C45.2398 18.1016 44.9577 18.1369 44.6756 18.0663C44.3582 17.9958 44.1467 17.8193 44.0409 17.5371C43.8646 17.2195 43.8999 16.9725 44.0762 16.6902Z" fill="#E2BFBC"/>
<path d="M17.065 43.578L16.1129 44.9894L16.395 43.331L15.8308 43.084L14.9141 45.3423L15.2667 45.4834L15.9719 43.7191L15.6193 45.6246L16.0072 45.801L17.1002 44.1426L16.3598 45.9421L16.7124 46.0833L17.6292 43.825L17.065 43.578Z" fill="#E2BFBC"/>
<path d="M43.7569 33.2746L43.3691 33.0981L42.7344 34.5801L43.087 34.7213L43.3338 34.192L45.2026 35.0036L45.3437 34.6507L43.5101 33.8039L43.7569 33.2746Z" fill="#E2BFBC"/>
<path d="M11.7422 43.5427L12.1301 43.7544L12.5532 43.3663L13.2584 43.7544L13.1174 44.319L13.5052 44.5307L14.0341 42.0254L13.6463 41.8137L11.7422 43.5427ZM13.3289 43.331L12.8705 43.0487L13.5405 42.3783L13.3289 43.331Z" fill="#E2BFBC"/>
<path d="M18.3351 44.4955L19.3576 44.813L19.4634 44.4249L18.053 43.9662L17.3125 46.295L18.7582 46.7538L18.8992 46.3656L17.8062 46.0128L18.0177 45.3776L18.9698 45.6952L19.1108 45.307L18.1588 44.9895L18.3351 44.4955Z" fill="#E2BFBC"/>
<path d="M42.6302 37.0854C42.3129 36.8384 42.0308 36.7325 41.7487 36.7325C41.4666 36.7325 41.2551 36.8384 41.0788 37.0854C40.9377 37.2618 40.9024 37.403 40.8672 37.5794C40.8672 37.7558 40.9024 37.9323 40.973 38.1087C41.0788 38.2851 41.2198 38.4615 41.4666 38.6733C41.784 38.9203 42.1013 39.0261 42.3834 39.0261C42.6302 39.0261 42.8771 38.885 43.0534 38.6733C43.2297 38.4615 43.3002 38.2145 43.2297 37.9675C43.1591 37.6147 42.9476 37.3324 42.6302 37.0854ZM42.7008 38.3557C42.595 38.4615 42.4539 38.5321 42.2776 38.5321C42.1013 38.5321 41.8898 38.4263 41.6782 38.2851C41.4666 38.1087 41.3256 37.9323 41.2551 37.7558C41.2198 37.6147 41.2551 37.4383 41.3256 37.3324C41.4314 37.1913 41.5724 37.1207 41.7487 37.156C41.925 37.156 42.1013 37.2618 42.3481 37.4383C42.5597 37.6147 42.7008 37.7911 42.7713 37.9675C42.8418 38.0734 42.8065 38.2498 42.7008 38.3557Z" fill="#E2BFBC"/>
<path d="M9.62748 38.8849L9.94483 38.6027L8.887 37.4382L8.56965 37.6852L8.95752 38.1439L7.47656 39.5201L7.72339 39.8024L9.23961 38.4615L9.62748 38.8849Z" fill="#E2BFBC"/>
<path d="M6.91235 37.9675C6.80657 37.9322 6.73605 37.8969 6.66553 37.7911C6.59501 37.6852 6.55975 37.544 6.63027 37.4029C6.70079 37.2618 6.84183 37.0853 7.08866 36.9442C7.33549 36.803 7.54705 36.6972 7.6881 36.7325C7.8644 36.7325 7.97018 36.803 8.04071 36.9442C8.11123 37.0148 8.11123 37.1206 8.11123 37.2265C8.07597 37.3323 8.0407 37.4382 7.93492 37.5088L8.25227 37.7911C8.39331 37.6499 8.4991 37.4735 8.53436 37.3323C8.56962 37.1206 8.53436 36.9442 8.42858 36.7325C8.28753 36.4855 8.07597 36.3796 7.82914 36.3443C7.51179 36.309 7.19444 36.4149 6.84183 36.6266C6.52448 36.8383 6.31292 37.0853 6.20714 37.3676C6.13661 37.6146 6.17188 37.8263 6.31292 38.0733C6.4187 38.2498 6.55975 38.3556 6.77131 38.3909C6.94762 38.4262 7.19444 38.4262 7.44127 38.3203L7.37075 37.8969C7.15918 37.9675 7.01814 37.9675 6.91235 37.9675Z" fill="#E2BFBC"/>
<path d="M7.4729 35.2505L5.6746 35.321L7.08503 34.5095L6.90873 34.1919L4.75781 35.3916L4.96938 35.7445L6.73242 35.6739L5.35725 36.4502L5.53355 36.7678L7.68447 35.6033L7.4729 35.2505Z" fill="#E2BFBC"/>
<path d="M9.44835 40.12L10.1888 40.7905L10.4709 40.5082L9.73044 39.8024L10.083 39.4143L10.894 40.1553L11.1761 39.8377L10.083 38.8497L8.42578 40.614L9.55413 41.6373L9.80096 41.355L8.98996 40.5787L9.44835 40.12Z" fill="#E2BFBC"/>
<path d="M5.14524 34.5801V34.1567C4.96894 34.192 4.82789 34.192 4.72211 34.1567C4.61633 34.1214 4.54581 34.0509 4.51054 33.945C4.44002 33.8039 4.47528 33.698 4.54581 33.5569C4.61633 33.4157 4.82789 33.3099 5.07472 33.1687C5.35681 33.0276 5.56837 32.9923 5.70942 33.0276C5.85046 33.0629 5.9915 33.1334 6.02676 33.2746C6.06203 33.3804 6.06203 33.451 6.02676 33.5569C5.9915 33.6627 5.92098 33.7333 5.8152 33.8039L6.06203 34.1214C6.23833 33.9803 6.34411 33.8391 6.41463 33.698C6.48516 33.4863 6.48516 33.2746 6.37937 33.0981C6.27359 32.8511 6.09729 32.6747 5.85046 32.6394C5.56837 32.5689 5.21576 32.6041 4.82789 32.7806C4.47528 32.9217 4.22846 33.1334 4.08741 33.4157C3.98163 33.6627 3.94637 33.8744 4.05215 34.1214C4.12267 34.2979 4.26372 34.439 4.44002 34.5096C4.65159 34.6154 4.89841 34.6154 5.14524 34.5801Z" fill="#E2BFBC"/>
<path d="M12.4802 40.9667L11.1755 42.0253L11.916 40.508L11.4576 40.1199L9.94141 42.0253L10.2235 42.2723L11.4224 40.755L10.5408 42.5193L10.8229 42.7663L12.3391 41.5313L11.1403 43.0133L11.4224 43.225L12.9738 41.3549L12.4802 40.9667Z" fill="#E2BFBC"/>
<path d="M43.7232 32.2866L43.5469 32.6748L45.7683 33.6628L45.9446 33.3099L43.7232 32.2866Z" fill="#E2BFBC"/>
<path d="M44.1465 35.5328L43.8291 35.7798C43.9702 35.9209 44.0407 36.0268 44.076 36.1326C44.1112 36.2385 44.076 36.3444 44.0407 36.4149C43.9702 36.5208 43.8291 36.5914 43.6881 36.5914C43.5118 36.5914 43.3355 36.5208 43.0534 36.3444C42.8066 36.1679 42.6655 36.0268 42.595 35.8856C42.5245 35.7445 42.5597 35.6034 42.6303 35.4622C42.7008 35.3916 42.7713 35.3211 42.8771 35.2858C42.9829 35.2505 43.0887 35.2858 43.2297 35.3211L43.3355 34.9329C43.1239 34.8624 42.9476 34.8271 42.8066 34.8624C42.595 34.8976 42.4187 35.0388 42.3129 35.2152C42.1719 35.4622 42.1366 35.6739 42.2071 35.9209C42.3129 36.2032 42.5245 36.4502 42.8771 36.6972C43.1944 36.9089 43.5118 37.0148 43.8291 36.9795C44.076 36.9442 44.2875 36.8384 44.4286 36.6266C44.5343 36.4502 44.6049 36.2738 44.5696 36.0974C44.4286 35.9209 44.3228 35.7445 44.1465 35.5328Z" fill="#E2BFBC"/>
<path d="M29.4453 44.6365L29.3395 46.3302L28.7401 44.7424L28.1406 44.8482L28.4932 47.2477L28.8811 47.1771L28.599 45.3069L29.269 47.1418L29.6568 47.0712L29.7626 45.1305L30.0447 47.0006L30.4326 46.9301L30.0447 44.5306L29.4453 44.6365Z" fill="#E2BFBC"/>
<path d="M27.5059 46.3304C27.4353 46.2598 27.3648 46.2245 27.2943 46.1892C27.3648 46.1539 27.4001 46.1186 27.4353 46.0834C27.4706 46.0481 27.5059 45.9422 27.5411 45.7658C27.5764 45.5894 27.6116 45.4835 27.6469 45.4129C27.6822 45.3776 27.7527 45.3424 27.8585 45.3424H27.929L27.8937 44.9895C27.6469 45.0248 27.5059 45.0601 27.4353 45.1306C27.3648 45.2012 27.2943 45.3776 27.259 45.5894C27.2238 45.8011 27.1533 45.9422 27.1533 46.0128C27.118 46.0834 27.0827 46.1186 27.0122 46.1186L26.9064 45.0954L26.5186 45.1306L26.6243 46.1539C26.5538 46.1539 26.4833 46.1186 26.448 46.0834C26.4128 46.0128 26.3423 45.9069 26.2717 45.6952C26.2012 45.4835 26.0954 45.3424 26.0249 45.2718C25.9544 45.2012 25.7781 45.1659 25.5312 45.2012L25.5665 45.5541C25.7076 45.5541 25.8133 45.5541 25.8486 45.5894C25.8839 45.6246 25.9544 45.7305 26.0249 45.9069C26.0954 46.0481 26.1307 46.1539 26.1659 46.1892C26.2012 46.2245 26.2365 46.2951 26.307 46.3304C26.2365 46.3656 26.1659 46.4362 26.0954 46.5068C26.0602 46.6126 25.9896 46.7538 25.9191 46.9302L25.7076 47.6007L26.1659 47.5654L26.3423 46.9302C26.3775 46.7538 26.448 46.6479 26.4833 46.5774C26.5186 46.5068 26.5891 46.4715 26.6243 46.4715L26.7301 47.5301L27.118 47.4948L27.0122 46.4362C27.0827 46.4362 27.1533 46.4715 27.1885 46.5421C27.2238 46.6127 27.2943 46.7185 27.3648 46.8596L27.6469 47.4595L28.1053 47.4242L27.7879 46.7891C27.6469 46.5421 27.5764 46.4009 27.5059 46.3304Z" fill="#E2BFBC"/>
<path d="M25.1771 45.1305L23.8019 45.0952V45.4128C23.8019 45.9068 23.7667 46.2596 23.7314 46.5066C23.6962 46.7536 23.6256 46.9301 23.5904 47.1065H23.4141V48.0592H23.7314V47.5299L25.0008 47.5652V48.0945H25.3182V47.1418H25.1418L25.1771 45.1305ZM24.7187 47.1418L23.9782 47.1065C24.084 46.7536 24.1545 46.2244 24.1545 45.5186H24.754L24.7187 47.1418Z" fill="#E2BFBC"/>
<path d="M21.5078 47.3535L23.024 47.4594L23.0593 47.0713L21.9662 46.9654L22.0015 46.295L22.9888 46.4008L23.024 45.9774L22.0367 45.9068L22.072 45.3423L23.1651 45.4481L23.2003 45.0247L21.7194 44.9188L21.5078 47.3535Z" fill="#E2BFBC"/>
<path d="M41.044 39.2731C40.9382 39.2731 40.8677 39.2731 40.7619 39.3084C40.7619 39.2378 40.7619 39.1672 40.7619 39.0967C40.7266 39.0261 40.6914 38.9555 40.6209 38.8144C40.5503 38.6732 40.4798 38.5674 40.4798 38.5321C40.4798 38.4615 40.5151 38.3909 40.5856 38.2851L40.6209 38.2498L40.3388 38.0028C40.233 38.144 40.1625 38.2498 40.1272 38.2851C40.0919 38.3557 40.0919 38.4262 40.0919 38.5321C40.1272 38.638 40.1625 38.7791 40.2682 38.9555C40.374 39.132 40.4445 39.2378 40.4445 39.3084C40.4798 39.379 40.4445 39.4495 40.4093 39.5201L39.6335 38.8144L39.3867 39.0967L41.185 40.7198L41.4671 40.4022L40.6914 39.6965C40.7619 39.626 40.8324 39.5907 40.9029 39.5907C40.9735 39.626 41.0792 39.626 41.2555 39.6965L41.8902 39.9435L42.2076 39.5907L41.5376 39.3437C41.2908 39.3084 41.1498 39.2731 41.044 39.2731Z" fill="#E2BFBC"/>
<path d="M20.6995 45.6598L19.9238 45.5539L20.1001 44.6012L19.6769 44.5306L19.2891 46.9301L19.7122 47.0006L19.8532 45.9421L20.6642 46.0832L20.4879 47.1418L20.8758 47.1771L21.2637 44.7776L20.8758 44.7071L20.6995 45.6598Z" fill="#E2BFBC"/>
<path d="M35.8984 41.9549L36.6037 44.3896L36.9563 44.1426L36.78 43.578L37.4499 43.1193L37.9083 43.4722L38.2609 43.2252L36.2158 41.6373L35.8984 41.9549ZM37.0973 42.9076L36.6389 43.2252L36.3568 42.343L37.0973 42.9076Z" fill="#E2BFBC"/>
<path d="M38.4697 39.9789C38.2934 40.12 38.2229 40.2612 38.1876 40.3317C38.1523 40.4376 38.1523 40.5435 38.1523 40.6493C38.1876 40.7552 38.2581 40.8963 38.3639 41.0022C38.505 41.1433 38.646 41.2139 38.787 41.2492C38.9281 41.2845 39.0691 41.2492 39.2102 41.1433C39.1749 41.2492 39.1749 41.3197 39.1749 41.4256C39.1749 41.5315 39.2102 41.6726 39.2807 41.8843L39.4217 42.4136L39.7743 42.096L39.6333 41.4962C39.598 41.2845 39.5628 41.1433 39.5628 41.108C39.5628 41.0375 39.5628 41.0022 39.598 40.9669C39.598 40.9316 39.6686 40.861 39.7391 40.7905L39.8096 40.7199L40.5148 41.4609L40.7969 41.1786L39.1397 39.4143L38.4697 39.9789ZM39.2807 40.614C39.1396 40.7552 39.0691 40.8257 38.9986 40.8257C38.9633 40.861 38.8928 40.861 38.8576 40.8257C38.8223 40.8257 38.7518 40.7905 38.6813 40.7199C38.646 40.6493 38.6107 40.614 38.5755 40.5435C38.5755 40.4729 38.5755 40.4376 38.6107 40.367C38.646 40.3317 38.7165 40.2612 38.8223 40.12L39.0691 39.9083L39.4923 40.367L39.2807 40.614Z" fill="#E2BFBC"/>
<path d="M31.2803 46.2245L31.0687 45.5893L32.056 45.307L31.915 44.8836L30.9629 45.2012L30.7866 44.7072L31.8092 44.3543L31.7034 43.9662L30.293 44.4249L31.0334 46.7538L32.4791 46.2598L32.3381 45.8716L31.2803 46.2245Z" fill="#E2BFBC"/>
<path d="M35.4697 42.7664L35.2934 42.4136L33.8477 43.084L34.024 43.4721L34.5881 43.1899L35.4697 45.0247L35.8223 44.8483L34.9407 43.0134L35.4697 42.7664Z" fill="#E2BFBC"/>
<path d="M33.1829 43.4015L33.5708 44.2837L32.8303 44.6012L32.4777 43.7191L32.0898 43.8602L33.0066 46.1185L33.3945 45.9774L32.9714 44.9894L33.7118 44.6718L34.0997 45.6598L34.4876 45.5187L33.5708 43.2604L33.1829 43.4015Z" fill="#E2BFBC"/>
<path d="M10.5817 26.3585L8.81868 25.8645C8.60711 25.8292 8.39555 25.7587 8.39555 25.5822C8.39555 25.5117 8.43081 25.4764 8.46607 25.4411C8.50133 25.4411 8.53659 25.4058 8.74815 25.4058H11.428V24.1002H7.97241C7.51402 24.1002 7.23193 24.2766 7.05563 24.4531C6.73828 24.7707 6.73828 25.1588 6.73828 25.5117C6.73828 25.8998 6.77354 26.3585 7.02037 26.6761C7.12615 26.8172 7.30246 26.9937 7.6198 27.0642L9.66494 27.6288C9.84124 27.6641 10.0175 27.7347 10.0175 27.8758C10.0175 27.9464 9.98229 28.0522 9.73546 28.0522H6.8088V29.3578H10.4407C10.7933 29.3578 11.2164 29.3578 11.4985 28.9344C11.7453 28.6168 11.7453 28.1934 11.7453 27.8758C11.7453 27.5229 11.7101 26.9937 11.3927 26.6761C11.1106 26.5349 10.7933 26.4291 10.5817 26.3585Z" fill="#E2BFBC"/>
<path d="M16.0086 24.0648C15.1976 24.0648 14.2808 24.1001 13.7166 24.5941C13.1524 25.1234 13.1172 26.0408 13.1172 26.7465C13.1172 27.4523 13.1172 28.3697 13.7166 28.899C14.2808 29.4283 15.2328 29.4283 16.0086 29.4283C16.7843 29.4283 17.7716 29.393 18.3005 28.899C18.8647 28.3697 18.9 27.4523 18.9 26.7465C18.9 26.0408 18.8647 25.1234 18.3005 24.5941C17.7364 24.1001 16.8196 24.0648 16.0086 24.0648ZM16.9606 27.7698C16.7138 28.1227 16.4317 28.158 16.0086 28.158C15.5855 28.158 15.2681 28.1227 15.0565 27.7698C14.8802 27.5228 14.845 27.2053 14.845 26.7818C14.845 26.3584 14.845 26.0761 15.0565 25.7938C15.2681 25.441 15.5855 25.4057 16.0086 25.4057C16.467 25.4057 16.7491 25.441 16.9606 25.7938C17.1722 26.0408 17.1722 26.3231 17.1722 26.7465C17.1722 27.17 17.1722 27.4875 16.9606 27.7698Z" fill="#E2BFBC"/>
<path d="M5.07924 24.1355H3.38672V29.4284H5.07924V24.1355Z" fill="#E2BFBC"/>
<path d="M40.2687 24.0648C39.6693 24.0648 38.8936 24.0648 38.4704 24.453C37.9062 24.9117 37.9062 25.8644 37.9062 26.2525V27.3111C37.9062 28.0874 38.012 28.899 38.5057 29.2165C38.823 29.4283 39.3519 29.4635 40.2687 29.4635C41.1855 29.4635 41.7144 29.4283 42.0318 29.2165C42.5254 28.899 42.6312 28.0874 42.6312 27.3111V26.2525C42.6312 25.8644 42.6312 24.9117 42.067 24.453C41.6086 24.0648 40.8682 24.0648 40.2687 24.0648ZM40.9034 27.2053C40.9034 27.6287 40.8682 27.8404 40.7624 27.9463C40.6213 28.0874 40.4098 28.0874 40.2335 28.0874C40.0572 28.0874 39.8456 28.0874 39.7046 27.9463C39.5988 27.8404 39.5635 27.6287 39.5635 27.2053V26.182C39.5635 26.0055 39.5635 25.7233 39.7046 25.5821C39.8456 25.441 40.0572 25.4057 40.1982 25.4057C40.3393 25.4057 40.5508 25.441 40.6919 25.5821C40.8329 25.7585 40.8329 26.0055 40.8329 26.182V27.2053H40.9034Z" fill="#E2BFBC"/>
<path d="M34.0265 24.0648C33.4271 24.0648 32.6514 24.0648 32.2282 24.453C31.6993 24.9117 31.6641 25.8644 31.6641 26.2525V27.3111C31.6641 28.0874 31.7698 28.899 32.2635 29.2165C32.5808 29.4283 33.1098 29.4635 34.0265 29.4635C34.9433 29.4635 35.4722 29.4283 35.7896 29.2165C36.2832 28.899 36.389 28.0874 36.389 27.3111V26.2525C36.389 25.8644 36.389 24.9117 35.8249 24.453C35.4017 24.0648 34.626 24.0648 34.0265 24.0648ZM34.6965 27.2053C34.6965 27.6287 34.6612 27.8404 34.5555 27.9463C34.4144 28.0874 34.2029 28.0874 34.0265 28.0874C33.8502 28.0874 33.6387 28.0874 33.4976 27.9463C33.3919 27.8404 33.3566 27.6287 33.3566 27.2053V26.182C33.3566 26.0055 33.3566 25.7233 33.4976 25.5821C33.6387 25.441 33.8502 25.4057 33.9913 25.4057C34.1323 25.4057 34.3439 25.441 34.4849 25.5821C34.626 25.7585 34.626 26.0055 34.626 26.182V27.2053H34.6965Z" fill="#E2BFBC"/>
<path d="M46.2963 24.3119C46.1552 24.2061 45.9437 24.1002 45.6968 24.1002H43.8633V25.4058H44.498C44.6743 25.4058 44.7095 25.4764 44.7448 25.4764C44.8153 25.5469 44.8153 25.7587 44.8153 25.8292V29.3578H46.5078V24.9824C46.5784 24.6648 46.4373 24.4531 46.2963 24.3119Z" fill="#E2BFBC"/>
<path d="M28.5959 24.1355H26.9386C26.586 24.1355 26.1981 24.1708 25.8808 24.4884C25.4929 24.8765 25.5282 25.3352 25.5282 25.7939C25.5282 26.2174 25.5282 26.7114 25.8455 27.0642C25.9866 27.2407 26.2334 27.4171 26.6918 27.4171H28.4548V27.7699C28.4548 27.8405 28.4548 27.9464 28.3491 28.0169C28.2785 28.0875 28.1375 28.0875 28.0317 28.0875H25.634V29.3931H28.5959C28.9485 29.3931 29.6184 29.3578 29.9358 28.6874C30.1121 28.3345 30.1121 27.9111 30.1121 27.6288V25.5469C30.1121 25.1941 30.0768 24.9471 29.8653 24.6648C29.6184 24.1708 29.0543 24.1355 28.5959 24.1355ZM28.4548 26.2526H27.7496C27.5028 26.2526 27.4323 26.2174 27.397 26.1821C27.3265 26.1468 27.256 26.0056 27.256 25.8645C27.256 25.7234 27.2912 25.6175 27.397 25.5116C27.4675 25.4764 27.6086 25.4411 27.7144 25.4411H28.1375C28.2785 25.4411 28.3491 25.5116 28.3843 25.5116C28.4196 25.5822 28.4548 25.6528 28.4548 25.7234V26.2526Z" fill="#E2BFBC"/>
<path d="M20.0251 34.7565H20.8361V35.8504H21.4003V33.4156H20.8361V34.2978H20.0251V33.4156H19.4609V35.8504H20.0251V34.7565Z" fill="#E2BFBC"/>
<path d="M29.0211 35.8151H30.2905V36.3797H30.8194V35.3564H30.6078V33.4156H28.9858C28.9858 33.8038 28.9506 34.1567 28.8801 34.5095C28.8095 34.8624 28.739 35.1447 28.6332 35.3564H28.4922V36.3797H29.0211V35.8151ZM29.409 34.7212C29.4795 34.4742 29.5148 34.1919 29.5148 33.9097H30.0084V35.3917H29.1621C29.2679 35.1799 29.3737 34.9682 29.409 34.7212Z" fill="#E2BFBC"/>
<path d="M20.2734 39.8377H20.8376L20.9787 39.3437H21.6839L21.8249 39.8377H22.4596L21.6839 37.4382H21.0492L20.2734 39.8377ZM21.3313 38.1087L21.5781 38.9202H21.1197L21.3313 38.1087Z" fill="#E2BFBC"/>
<path d="M16.537 35.8504L17.1012 34.8624H17.2775V35.8504H17.8417V34.8624H17.9827L18.5469 35.8504H19.2169L18.5117 34.6154C18.5469 34.5801 18.5822 34.5448 18.6174 34.5095C18.6527 34.4742 18.688 34.4037 18.7232 34.2978C18.7585 34.1919 18.829 34.0861 18.8643 34.0508C18.8995 34.0155 18.97 33.9802 19.0406 33.9802H19.1463V33.4862C19.1111 33.4862 19.1111 33.4862 19.0758 33.4862C19.0406 33.4862 19.0053 33.4862 18.9348 33.4862C18.7585 33.4862 18.6527 33.5215 18.5469 33.5921C18.4411 33.6627 18.3706 33.7685 18.3001 33.9097C18.3001 33.9449 18.2648 34.0155 18.2648 34.0508C18.2648 34.0861 18.2296 34.1567 18.2296 34.1919C18.159 34.3331 18.1238 34.4037 18.0885 34.4389C18.0533 34.4742 17.9827 34.4742 17.877 34.4742V33.4862H17.3128V34.4742C17.2423 34.4742 17.1717 34.4742 17.1012 34.4037C17.066 34.3684 16.9954 34.2625 16.9602 34.1567C16.9602 34.1214 16.9249 34.0508 16.9249 34.0155C16.8191 33.9096 16.8191 33.8744 16.8191 33.8391C16.7486 33.6979 16.6781 33.5921 16.5723 33.5215C16.4665 33.4509 16.3607 33.4156 16.1844 33.4156C16.1492 33.4156 16.0786 33.4156 16.0434 33.4156C16.0081 33.4156 15.9729 33.4156 15.9729 33.4156V33.9449H16.0786C16.1492 33.9449 16.2197 33.9802 16.255 34.0155C16.2902 34.0508 16.3255 34.1567 16.396 34.2625C16.4313 34.3684 16.4665 34.4389 16.5018 34.4742C16.537 34.5448 16.5723 34.5801 16.6076 34.5801L15.9023 35.8151H16.537V35.8504Z" fill="#E2BFBC"/>
<path d="M24.6854 35.0388H25.0027C25.0732 35.0388 25.1438 35.0388 25.2143 35.0035C25.2848 35.0035 25.3201 34.9682 25.3906 34.9329C25.4611 34.8977 25.4964 34.8624 25.5316 34.8271C25.5669 34.7918 25.6374 34.7565 25.6727 34.7212C25.7432 34.6507 25.7785 34.5801 25.8137 34.4742C25.849 34.3684 25.849 34.2625 25.849 34.1567C25.849 34.0155 25.849 33.9097 25.7785 33.8038C25.7432 33.6979 25.6727 33.6274 25.5669 33.5568C25.4964 33.4862 25.3906 33.4509 25.3201 33.4157C25.2143 33.3804 25.1085 33.3804 24.9675 33.3804H24.0859V35.7798H24.6501L24.6854 35.0388ZM24.6854 33.8744H24.7559C24.8617 33.8744 24.8969 33.8744 24.9675 33.8744C25.0027 33.8744 25.0732 33.9097 25.1085 33.9097C25.1438 33.9097 25.179 33.9802 25.2143 34.0155C25.2495 34.0508 25.2495 34.1214 25.2495 34.1919C25.2495 34.2625 25.2495 34.3331 25.2143 34.3684C25.2143 34.4037 25.179 34.4742 25.1438 34.5095C25.1438 34.5095 25.1085 34.5448 25.0732 34.5801C25.038 34.5801 25.0027 34.6154 24.9675 34.6154C24.9322 34.6154 24.8969 34.6154 24.8264 34.6154C24.7912 34.6154 24.7206 34.6154 24.6854 34.6154H24.6501L24.6854 33.8744Z" fill="#E2BFBC"/>
<path d="M15.7272 35.4269H15.3743V33.8391H15.7272V33.4156H14.4922V33.8391H14.8098V35.4269H14.4922V35.8504H15.7272V35.4269Z" fill="#E2BFBC"/>
<path d="M28.139 37.403L27.3633 39.8024H27.9275L28.0685 39.3084H28.7737L28.9148 39.8024H29.5142L28.7385 37.403H28.139ZM28.2095 38.885L28.4564 38.0734L28.7032 38.885H28.2095Z" fill="#E2BFBC"/>
<path d="M22.3927 35.3564H23.0979L23.239 35.8504H23.8384L23.0627 33.4509H22.4632L21.6875 35.8504H22.2517L22.3927 35.3564ZM22.7453 34.1214L22.9922 34.8976H22.5338L22.7453 34.1214Z" fill="#E2BFBC"/>
<path d="M23.3104 37.403H22.7109V39.8377H23.3104V38.7791H24.0861V39.8377H24.6503V37.403H24.0861V38.2851H23.3104V37.403Z" fill="#E2BFBC"/>
<path d="M17.8446 37.4382C17.774 37.4382 17.7035 37.403 17.633 37.403C17.5625 37.403 17.4567 37.403 17.3862 37.403C17.0336 37.403 16.7867 37.5088 16.5752 37.7558C16.3636 37.9675 16.2578 38.2851 16.2578 38.6732C16.2578 39.0614 16.3636 39.379 16.5752 39.5907C16.7867 39.8024 17.0688 39.9082 17.3862 39.9082C17.4919 39.9082 17.5977 39.9082 17.633 39.873C17.7035 39.873 17.774 39.8377 17.8446 39.8024C17.9151 39.8024 17.9503 39.7671 18.0209 39.7318C18.0914 39.6965 18.1266 39.6612 18.1619 39.6612V39.0967H18.1266C18.0914 39.132 18.0561 39.1672 18.0209 39.2025C17.9856 39.2378 17.9503 39.2731 17.8798 39.3084C17.8446 39.3437 17.774 39.379 17.7035 39.379C17.633 39.4142 17.5625 39.4142 17.4919 39.4142C17.4214 39.4142 17.3509 39.4142 17.2804 39.379C17.2099 39.3437 17.1393 39.3084 17.0688 39.2378C16.9983 39.1672 16.963 39.0967 16.9278 38.9908C16.8925 38.885 16.8572 38.7438 16.8572 38.6027C16.8572 38.4615 16.8925 38.3557 16.9278 38.2498C16.963 38.144 16.9983 38.0734 17.0688 38.0028C17.1393 37.9322 17.2099 37.897 17.2804 37.8617C17.3509 37.8264 17.4214 37.8264 17.4919 37.8264C17.5625 37.8264 17.633 37.8264 17.7035 37.8617C17.774 37.897 17.8446 37.9322 17.8798 37.9322C17.9151 37.9675 17.9856 38.0028 18.0209 38.0381C18.0561 38.0734 18.0914 38.1087 18.1266 38.144H18.1972V37.5794C18.1619 37.5441 18.1266 37.5441 18.0561 37.5088C17.9503 37.4735 17.8798 37.4382 17.8446 37.4382Z" fill="#E2BFBC"/>
<path d="M27.222 35.8857C27.5746 35.8857 27.8214 35.7798 28.033 35.5328C28.2093 35.3211 28.3151 35.0035 28.3151 34.6154C28.3151 34.2272 28.2093 33.9097 28.033 33.698C27.8214 33.4862 27.5746 33.3451 27.222 33.3451C26.8694 33.3451 26.6226 33.451 26.411 33.698C26.1994 33.9097 26.1289 34.2272 26.1289 34.6154C26.1289 35.0035 26.2347 35.3211 26.411 35.5328C26.5873 35.7798 26.8694 35.8857 27.222 35.8857ZM26.7283 34.2625C26.7636 34.1567 26.7989 34.0861 26.8341 34.0155C26.8694 33.945 26.9399 33.9097 27.0104 33.8744C27.081 33.8391 27.1515 33.8391 27.1867 33.8391C27.2573 33.8391 27.3278 33.8744 27.363 33.8744C27.4336 33.9097 27.4688 33.945 27.5393 34.0155C27.5746 34.0861 27.6099 34.1567 27.6451 34.2625C27.6804 34.3684 27.6804 34.4742 27.6804 34.6154C27.6804 34.7565 27.6804 34.8977 27.6451 34.9682C27.6099 35.0741 27.5746 35.1447 27.5393 35.2152C27.5041 35.2858 27.4336 35.3211 27.363 35.3564C27.2925 35.3917 27.222 35.3917 27.1515 35.3917C27.081 35.3917 27.0104 35.3917 26.9752 35.3564C26.9046 35.3211 26.8694 35.2858 26.7989 35.2152C26.7636 35.1447 26.6931 35.0741 26.6931 34.9682C26.6578 34.8624 26.6578 34.7565 26.6578 34.6154C26.6931 34.4742 26.6931 34.3684 26.7283 34.2625Z" fill="#E2BFBC"/>
<path d="M37.5159 34.2625V35.8504H38.0801V33.4156H37.4806L36.6696 34.8624V33.4156H36.1055V35.8504H36.6344L37.5159 34.2625Z" fill="#E2BFBC"/>
<path d="M37.0924 33.2745C37.3744 33.2745 37.5507 33.204 37.6918 33.0981C37.8328 32.9923 37.9034 32.8158 37.9034 32.6394H37.3744C37.3744 32.7453 37.3392 32.8511 37.3039 32.8864C37.2687 32.957 37.1629 32.957 37.0571 32.957C36.9513 32.957 36.8455 32.9217 36.8103 32.8864C36.775 32.8158 36.7397 32.7453 36.7397 32.6394H36.2461C36.2461 32.8158 36.3166 32.9923 36.4577 33.0981C36.5987 33.204 36.8103 33.2745 37.0924 33.2745Z" fill="#E2BFBC"/>
<path d="M31.6992 37.897H32.3692V39.8377H32.9333V37.897H33.6386V37.403H31.6992V37.897Z" fill="#E2BFBC"/>
<path d="M27.0806 37.403H25.4586C25.4586 37.7911 25.4233 38.144 25.3528 38.4968C25.2823 38.8497 25.2118 39.132 25.106 39.3437H24.9297V40.367H25.4586V39.8024H26.7633V40.367H27.2922V39.3437H27.0806V37.403ZM26.4812 39.379H25.6702C25.7407 39.2025 25.8112 38.9555 25.8817 38.7085C25.9523 38.4615 25.9875 38.1792 25.9875 37.897H26.4812V39.379Z" fill="#E2BFBC"/>
<path d="M12.2712 34.2625L12.6591 35.2858H13.0822L13.5053 34.2625V35.8504H14.0695V33.4156H13.3996L12.8706 34.6154L12.377 33.4156H11.707V35.8504H12.2712V34.2625Z" fill="#E2BFBC"/>
<path d="M35.0159 34.2625V35.8504H35.5801V33.4156H34.9806L34.1696 34.8624V33.4156H33.6055V35.8504H34.1344L35.0159 34.2625Z" fill="#E2BFBC"/>
<path d="M29.832 37.403V39.8024H30.3962V39.0261H30.7136C30.7841 39.0261 30.8546 39.0261 30.9251 38.9908C30.9956 38.9908 31.0662 38.9555 31.1014 38.9202C31.1367 38.885 31.2072 38.8497 31.2425 38.8144C31.2777 38.7791 31.3483 38.7438 31.3835 38.7085C31.454 38.638 31.4893 38.5674 31.5246 38.4615C31.5598 38.3557 31.5951 38.2498 31.5951 38.144C31.5951 38.0028 31.5598 37.897 31.5246 37.7911C31.4893 37.6852 31.4188 37.6147 31.313 37.5441C31.2425 37.5088 31.1367 37.4382 31.0662 37.4382C30.9604 37.403 30.8546 37.403 30.7136 37.403H29.832ZM30.9604 38.0028C30.9956 38.0381 30.9956 38.1087 30.9956 38.1792C30.9956 38.2498 30.9956 38.3204 30.9604 38.3557C30.9604 38.391 30.9251 38.4262 30.8899 38.4968C30.8899 38.5321 30.8546 38.5321 30.8193 38.5674C30.7841 38.5674 30.7488 38.6027 30.7136 38.6027C30.6783 38.6027 30.643 38.6027 30.6078 38.6027C30.5725 38.6027 30.502 38.6027 30.4667 38.6027H30.4315V37.897H30.502C30.6078 37.897 30.6783 37.897 30.7136 37.897C30.7488 37.897 30.8193 37.897 30.8546 37.9322C30.8899 37.9322 30.9251 37.9675 30.9604 38.0028Z" fill="#E2BFBC"/>
<path d="M31.7361 34.7565H32.5118V35.8504H33.1112V33.4156H32.5118V34.2978H31.7361V33.4156H31.1719V35.8504H31.7361V34.7565Z" fill="#E2BFBC"/>
<path d="M18.3008 37.897H18.9707V39.8377H19.5702V37.897H20.2401V37.403H18.3008V37.897Z" fill="#E2BFBC"/>
<path d="M27.7506 6.59839C27.6801 6.59839 27.6095 6.63367 27.5742 6.66896C27.5742 6.70425 27.5742 6.77482 27.7506 6.59839Z" fill="#E2BFBC"/>
<path d="M24.1216 19.9718C24.0863 20.0071 24.0158 20.0071 23.9805 20.0424C24.0158 20.1129 24.051 20.1835 24.0863 20.2188C24.2275 20.1482 24.1922 20.0777 24.1216 19.9718Z" fill="#E2BFBC"/>
<path d="M23.4848 19.7953C23.4495 19.7953 23.3789 19.8306 23.3789 19.8659C23.5906 19.9011 23.5553 19.9364 23.4848 19.7953Z" fill="#E2BFBC"/>
<path d="M30.1506 12.5617C30.1859 12.4206 30.08 12.3147 30.08 12.1383C29.9741 12.2794 29.7624 12.4206 29.9389 12.5617C29.9036 12.6323 30.1153 12.5617 30.1506 12.5617Z" fill="#E2BFBC"/>
<path d="M34.8054 19.5837C34.7348 19.6895 34.9113 19.8307 34.9818 19.7601C35.0171 19.6542 34.876 19.4778 34.8054 19.5837Z" fill="#E2BFBC"/>
<path d="M22.9224 19.6895C22.8871 19.7247 22.8165 19.7953 22.7812 19.8306C22.8165 19.8659 22.8518 19.9364 22.993 19.9012C22.9577 19.9012 22.9577 19.7247 22.9224 19.6895Z" fill="#E2BFBC"/>
<path d="M24.0855 13.6204C24.0855 13.4792 24.1208 13.4792 23.9796 13.4792L23.9443 13.5851C23.8385 13.5498 24.0855 13.691 24.0855 13.6204Z" fill="#E2BFBC"/>
<path d="M23.9099 14.1144C23.8746 14.1496 23.8746 14.1849 23.9452 14.2202C23.9805 14.2555 24.0158 14.2555 24.051 14.2202C24.0863 14.1849 24.0863 14.1496 24.051 14.1144C23.9805 14.0791 23.9452 14.0791 23.9099 14.1144Z" fill="#E2BFBC"/>
<path d="M21.543 19.0897C21.6841 19.1249 21.7547 19.0191 21.8253 18.9485C21.7194 18.8427 21.5077 18.9485 21.543 19.0897Z" fill="#E2BFBC"/>
<path d="M23.9084 13.7262C23.8731 13.7615 23.8731 13.7968 23.9084 13.7968C23.8378 13.9379 23.7673 13.8673 23.8378 14.0438C23.9437 14.0085 24.1201 13.7262 24.0495 13.7615C23.979 13.7968 24.0495 13.7262 23.9084 13.7262Z" fill="#E2BFBC"/>
<path d="M23.7698 12.5618C23.7345 12.5971 23.6992 12.6323 23.6992 12.6323C23.6992 12.7029 23.8051 12.9146 23.9462 12.7735C23.8404 12.6323 23.8756 12.6323 23.7698 12.5618Z" fill="#E2BFBC"/>
<path d="M21.9688 19.2308C21.9688 19.3367 22.0393 19.3014 22.1452 19.2661C21.9688 19.1603 21.9688 19.1603 21.9688 19.2308Z" fill="#E2BFBC"/>
<path d="M22.5331 10.1977C22.5684 10.1977 22.6037 10.1271 22.6389 10.1271C22.6389 10.0918 22.5684 9.95068 22.4625 9.98596C22.4272 10.0212 22.4272 10.1624 22.5331 10.1977Z" fill="#E2BFBC"/>
<path d="M22.3939 9.80914C22.4291 9.80914 22.4291 9.70357 22.4291 9.70357C22.4291 9.70357 22.3236 9.70357 22.3587 9.70357C22.4291 9.66838 22.3236 9.73876 22.3939 9.80914Z" fill="#E2BFBC"/>
<path d="M22.0742 9.6331L22.1095 9.70367C22.1095 9.70367 22.1095 9.6331 22.1448 9.6331C22.2506 9.31553 22.1801 9.35081 22.0742 9.6331Z" fill="#E2BFBC"/>
<path d="M22.2133 10.1975C22.178 10.2328 22.2486 10.3034 22.2133 10.3387C22.425 10.5151 22.1075 10.5857 22.5662 10.6209C22.672 10.2681 22.4956 10.3739 22.2133 10.1975Z" fill="#E2BFBC"/>
<path d="M29.6173 12.1735C29.582 12.3146 29.582 12.3146 29.7231 12.2794L29.8643 12.0676C29.829 12.0324 29.6173 12.1382 29.6173 12.1735Z" fill="#E2BFBC"/>
<path d="M21.861 18.1722C21.6493 18.4545 21.6846 18.4898 21.8963 18.7015C22.0374 18.5251 22.1786 18.2428 21.861 18.1722Z" fill="#E2BFBC"/>
<path d="M22.4626 17.29C22.4273 17.3959 22.5685 17.5018 22.639 17.4312C22.6037 17.3606 22.4626 17.3253 22.4626 17.29Z" fill="#E2BFBC"/>
<path d="M38.332 19.7953C38.332 19.8306 38.4732 19.9717 38.4379 19.9364C38.4026 19.8659 38.4026 19.7953 38.3673 19.7247C38.3673 19.7247 38.332 19.7247 38.332 19.7953Z" fill="#E2BFBC"/>
<path d="M29.7635 14.6437C29.8341 14.6437 29.8341 14.6789 29.8341 14.6084C29.7635 14.5378 29.7282 14.5025 29.6577 14.4319C29.5518 14.3614 29.4107 14.1849 29.2695 14.1849C29.2695 14.2202 29.5518 14.5378 29.6224 14.5378C29.693 14.5378 29.7282 14.6084 29.7635 14.6437Z" fill="#E2BFBC"/>
<path d="M39.8081 18.2428C39.8081 18.2428 39.7022 18.137 39.6669 18.1722C39.6317 18.2075 39.6317 18.2428 39.5964 18.3134C39.4905 18.3487 39.4199 18.384 39.3494 18.4192C39.3141 18.5251 39.4552 18.5251 39.4905 18.4898C39.4552 18.4898 39.7022 18.384 39.7022 18.3134C39.7022 18.2781 39.8081 18.3134 39.8081 18.3487C39.8786 18.4545 40.0551 18.3487 39.8081 18.2428Z" fill="#E2BFBC"/>
<path d="M20.168 16.4432C20.2033 16.5843 20.3797 16.5843 20.4503 16.5138C20.3797 16.4079 20.3091 16.2668 20.168 16.4432Z" fill="#E2BFBC"/>
<path d="M29.3391 16.5137C29.4803 16.4431 29.4097 16.6549 29.5156 16.549C29.445 16.4784 29.4097 16.4079 29.4097 16.302C29.0216 16.7254 29.3039 16.4784 29.3391 16.5137Z" fill="#E2BFBC"/>
<path d="M40.3012 19.7953C40.2659 19.76 40.2659 19.7247 40.2306 19.6895C40.2306 19.6895 40.2306 19.6895 40.1953 19.7247C40.1953 19.76 40.2306 19.7953 40.2306 19.8306C40.2659 19.7953 40.3012 20.0423 40.3012 19.7953Z" fill="#E2BFBC"/>
<path d="M40.9023 17.2547C40.9729 17.5017 40.9729 17.537 40.9729 17.5017C41.0082 17.4312 40.9729 17.3606 40.9729 17.3253C40.9729 17.2195 40.9729 17.1489 40.9376 17.1136C40.9376 17.1489 40.9023 16.9725 40.9023 17.1489C40.9023 17.2195 40.9023 17.2195 40.9023 17.2547Z" fill="#E2BFBC"/>
<path d="M28.6683 16.9019C28.7389 16.8666 28.8095 16.7961 28.88 16.7608C28.8095 16.6902 28.5977 16.5491 28.4919 16.5491C28.4213 16.5844 28.4919 16.9019 28.6683 16.9019Z" fill="#E2BFBC"/>
<path d="M28.8764 16.549C29.2646 16.1608 29.1587 16.4784 29.2293 16.1608C29.1587 16.1256 29.0529 16.1608 28.9823 16.1256C28.9823 16.0197 28.7 15.8786 28.7 15.7727C28.4883 15.8433 28.7353 16.0903 28.7 16.1256C28.6647 16.3373 28.4883 16.2314 28.8764 16.549Z" fill="#E2BFBC"/>
<path d="M40.798 19.7247C40.8333 19.4777 41.045 18.6662 40.9392 18.5603C40.9039 18.6309 40.8686 18.9132 40.8686 18.9484C40.8686 18.9132 40.8333 18.8426 40.798 18.8073C40.7628 19.0543 40.6569 19.4424 40.6216 19.6189C40.5863 19.4777 40.5158 19.6189 40.4805 19.7247C40.4805 19.8306 40.5158 19.9364 40.5158 20.0776C40.6216 20.007 40.7275 19.6542 40.798 19.7247Z" fill="#E2BFBC"/>
<path d="M40.3008 18.9481C40.3712 18.8778 40.336 18.7018 40.3008 18.9481V18.9481Z" fill="#E2BFBC"/>
<path d="M38.9612 19.7953C38.9612 19.76 38.9259 19.7247 38.9259 19.6895L38.8906 19.7247C38.9612 19.7953 38.8906 20.007 38.9612 19.7953Z" fill="#E2BFBC"/>
<path d="M39.2112 20.1835C39.2112 20.1482 39.2112 20.1129 39.2112 20.0424C39.1759 20.0424 39.1759 20.0776 39.1406 20.0776C39.1406 20.0424 39.1759 20.2188 39.2112 20.1835C39.1759 20.2541 39.2112 20.1835 39.2112 20.1835Z" fill="#E2BFBC"/>
<path d="M37.977 22.3005C37.9417 22.3711 37.9064 22.4417 37.8711 22.5123H38.1181C38.0828 22.4417 38.0122 22.3711 37.977 22.3005Z" fill="#E2BFBC"/>
<path d="M34.6266 22.5123C34.4854 22.3711 34.309 22.2653 34.2031 22.2653C34.2031 22.3358 34.2031 22.4064 34.2031 22.5123H34.6266Z" fill="#E2BFBC"/>
<path d="M28.9844 16.6549C29.0197 16.6902 29.0197 16.7961 29.0197 16.7961C29.1608 16.7255 29.1255 16.8666 29.1961 16.7961C29.1255 16.7255 29.2667 16.7608 29.2667 16.6196C29.2314 16.6549 29.0549 16.6902 28.9844 16.6549Z" fill="#E2BFBC"/>
<path d="M33.2146 22.4771C33.2146 22.5119 33.1797 22.5119 33.1797 22.5468H33.2146C33.1797 22.5119 33.1797 22.4771 33.2146 22.4771Z" fill="#E2BFBC"/>
<path d="M30.081 15.4551C30.2927 15.314 29.9399 15.314 29.9752 15.4551C30.0104 15.6668 30.0457 15.5962 30.081 15.4551Z" fill="#E2BFBC"/>
<path d="M22.8141 3.06993C22.7435 2.85821 22.6729 2.71707 22.6023 2.57593C22.6023 2.75236 22.5671 2.8935 22.5318 3.06993L22.3906 3.81093L23.0963 3.74036L22.8141 3.06993Z" fill="#E2BFBC"/>
<path d="M8.46744 11.2209L8.92615 10.6916L8.25572 10.3741C8.04401 10.3035 7.90286 10.1976 7.76172 10.1271C7.86758 10.2682 7.97343 10.3741 8.04401 10.5152L8.46744 11.2209Z" fill="#E2BFBC"/>
<path d="M33.8475 4.9753C33.9181 4.94001 33.9534 4.86944 33.9886 4.79887C34.0239 4.69301 34.0592 4.58716 33.9886 4.4813C33.9534 4.37544 33.8475 4.30487 33.7416 4.26958L33.1418 4.02258L32.8242 4.79887L33.3535 5.01059C33.4594 5.04587 33.5652 5.08116 33.6358 5.08116C33.7064 5.04587 33.7769 5.01059 33.8475 4.9753Z" fill="#E2BFBC"/>
<path d="M17.4215 3.84618C17.3156 3.81089 17.2098 3.81089 17.0686 3.88146L16.4688 4.09318L16.751 4.86946L17.2803 4.65775C17.3862 4.62246 17.492 4.55189 17.5273 4.51661C17.5626 4.44603 17.6332 4.41075 17.6332 4.34018C17.6332 4.26961 17.6332 4.16375 17.5979 4.09318C17.5626 3.95203 17.492 3.88146 17.4215 3.84618Z" fill="#E2BFBC"/>
<path d="M44.6754 17.784C44.887 17.8546 45.1338 17.8193 45.4511 17.6781C45.6627 17.6076 45.8038 17.5017 45.9448 17.3606C46.0506 17.2547 46.1211 17.1489 46.1564 17.0077C46.1916 16.8666 46.1916 16.7607 46.1211 16.6196C46.0506 16.4431 45.9095 16.302 45.698 16.2314C45.4864 16.1608 45.2043 16.2314 44.887 16.3726C44.6049 16.4784 44.3933 16.6549 44.2875 16.8313C44.1818 17.0077 44.1818 17.2194 44.2523 17.3959C44.3228 17.6076 44.4638 17.7134 44.6754 17.784Z" fill="#E2BFBC"/>
<path d="M4.47915 18.9837C4.3733 18.9485 4.30272 18.9485 4.23215 18.9837C4.16158 19.019 4.09101 19.0543 4.05572 19.0896C4.02044 19.1602 3.94987 19.2307 3.91458 19.3719L3.77344 19.8306L4.58501 20.0776L4.72615 19.5836C4.76144 19.4777 4.76144 19.4072 4.76144 19.3366C4.76144 19.266 4.72615 19.1955 4.69087 19.1249C4.65558 19.0543 4.58501 19.019 4.47915 18.9837Z" fill="#E2BFBC"/>
<path d="M41.9609 11.9619L42.3844 12.5265L42.8078 11.9619C42.9489 11.7855 43.0548 11.6443 43.1254 11.5385C42.9842 11.609 42.8431 11.6796 42.6667 11.7502L41.9609 11.9619Z" fill="#E2BFBC"/>
<path d="M4.93476 14.1848L4.61719 14.7494L5.35819 15.1376L5.64048 14.6436C5.71105 14.5377 5.74633 14.4318 5.74633 14.3613C5.74633 14.2907 5.74633 14.2201 5.71105 14.1496C5.67576 14.079 5.60519 14.0437 5.53462 14.0084C5.42876 13.9378 5.3229 13.9378 5.21705 13.9731C5.11119 14.0084 5.00533 14.079 4.93476 14.1848Z" fill="#E2BFBC"/>
<path d="M3.42421 18.7721C3.31835 18.7368 3.24778 18.7368 3.17721 18.7721C3.10664 18.8074 3.03606 18.8074 3.00078 18.8779C2.96549 18.9132 2.93021 19.0191 2.89492 19.1602L2.78906 19.5484L3.53006 19.7601L3.63592 19.3366C3.67121 19.2308 3.67121 19.1249 3.67121 19.0896C3.67121 19.0191 3.63592 18.9485 3.60064 18.8779C3.60064 18.8426 3.53006 18.7721 3.42421 18.7721Z" fill="#E2BFBC"/>
</svg>
