<svg width="50" height="50" viewBox="0 0 50 50" fill="none" xmlns="http://www.w3.org/2000/svg">
<path d="M44.6809 20.3272C44.6809 20.2917 44.6809 20.2562 44.6809 20.2207L44.7868 10.4244L27.1055 10.9568V27.3195L44.6103 29.5556L44.6809 20.3272ZM34.9403 26.5741L28.8348 25.7933V12.696L34.9403 12.5186V26.5741ZM42.8457 27.568L36.7049 26.7871V20.7886L42.9163 21.1081L42.8457 27.568ZM42.9163 19.3334L36.7049 19.0139V12.4831L42.9869 12.3056L42.9163 19.3334Z" fill="#E2BFBC"/>
<path d="M0 0V50H50C50 50 50 4.20198 50 3.95904C50 3.7161 50 3.7161 50 3.5C50 3.2839 50 0 50 0H0ZM1.41168 1.69492C1.51756 1.83616 1.65873 1.94209 1.83519 2.01271L17.0461 6.9209V31.9209L11.8934 34.322V9.28672L2.01165 7.9096C1.7646 7.87429 1.51756 7.94491 1.37639 8.05085V1.69492H1.41168ZM1.41168 9.5339C1.51756 9.60452 1.65873 9.67514 1.83519 9.67514L10.1641 10.8051V35.1342L1.41168 39.2302V9.5339ZM1.41168 48.5876V41.2076L1.7646 41.0311C1.79989 41.0664 1.79989 41.137 1.83519 41.2076L6.35257 48.5876H1.41168ZM8.36421 48.5876C8.32892 48.5169 8.29363 48.411 8.25834 48.3404L3.38804 40.2895L4.16446 39.9364C4.19975 39.9717 4.23504 40.0071 4.27034 40.0424L12.9169 48.5876H8.36421ZM15.3167 48.5876C15.2815 48.4816 15.2109 48.3757 15.105 48.2698L5.82319 39.1243L7.05841 38.5593L7.0937 38.5946L20.8223 48.5876H15.3167ZM23.6457 48.5876C23.5751 48.4463 23.5045 48.3404 23.328 48.2345L8.89359 37.7119L9.52885 37.4294C9.59944 37.5 9.67002 37.5706 9.7759 37.6059L29.9982 48.5876H23.6457ZM33.3157 48.5876C33.2451 48.4463 33.1039 48.3051 32.8922 48.1992L11.4346 36.5113L12.1052 36.1935L12.1758 36.2288L40.8682 48.5876H33.3157ZM48.5619 48.5876H44.4327C44.3974 48.3051 44.2209 48.0579 43.868 47.8814L14.3286 35.1695L14.7874 34.9576C14.858 34.9929 14.8932 35.0282 14.9638 35.0282L48.5619 47.0339V48.5876ZM48.5619 45.1271L17.0813 33.863L17.8578 33.5099L48.2795 41.9845C48.3854 42.0198 48.4913 42.0198 48.5619 42.0198V45.1271ZM48.5619 40.2189L19.093 32.0268C19.0224 31.8856 18.9518 31.7797 18.846 31.6737V7.13277L48.5619 4.44915V40.2189ZM48.5619 2.68362L18.1401 5.43785L5.7526 1.41243H48.5619V2.68362Z" fill="#E2BFBC"/>
</svg>
