<svg width="148" height="50" viewBox="0 0 148 50" fill="none" xmlns="http://www.w3.org/2000/svg">
<path d="M50.2385 0H0V50H50.2385H148V0H50.2385ZM146.747 48.6373H51.5963V1.36269H146.747V48.6373Z" fill="#E2BFBC"/>
<path d="M103.509 17.0858L105.494 22.6414H104.136L103.718 21.4883H101.42L101.002 22.6414H99.6445L101.629 17.0858H103.509ZM102.673 18.0292L101.838 20.6498H103.509L102.673 18.0292Z" fill="#E2BFBC"/>
<path d="M107.473 22.5366L105.488 16.9811H106.846L108.308 21.2788L109.771 16.9811H111.128L109.144 22.5366H107.473Z" fill="#E2BFBC"/>
<path d="M114.892 17.0853L116.876 22.6409H115.519L115.101 21.4878H112.803L112.385 22.6409H111.027L113.012 17.0853H114.892ZM113.952 18.0287L113.116 20.6493H114.787L113.952 18.0287Z" fill="#E2BFBC"/>
<path d="M121.056 18.1335H119.593V22.6409H118.236V18.1335H116.773V17.0853H121.16L121.056 18.1335Z" fill="#E2BFBC"/>
<path d="M123.246 22.5366H121.992V16.9811H123.246V22.5366Z" fill="#E2BFBC"/>
<path d="M129.829 22.5361H128.471L125.86 18.7625V19.2866V22.6409H124.711V17.0853H126.069L128.68 20.9637V20.5444V17.0853H129.829V22.5361Z" fill="#E2BFBC"/>
<path d="M135.048 18.134H133.586V22.6414H132.228V18.134H130.766V17.0858H135.152L135.048 18.134Z" fill="#E2BFBC"/>
<path d="M98.0753 28.3019H96.613V32.8092H95.2552V28.3019H93.793V27.2537H98.1797L98.0753 28.3019Z" fill="#E2BFBC"/>
<path d="M100.269 32.8092H99.0156V27.2537H100.269V32.8092Z" fill="#E2BFBC"/>
<path d="M101.734 27.2537H102.988V29.6646L103.51 29.3501L105.286 27.2537H106.748L104.554 29.8742L106.957 32.8092H105.39L103.614 30.608L103.092 30.9224V32.8092H101.839V27.2537H101.734Z" fill="#E2BFBC"/>
<path d="M107.785 27.2537H109.039V29.6646L109.561 29.3501L111.336 27.2537H112.799L110.605 29.8742L113.007 32.8092H111.441L109.665 30.608L109.143 30.9224V32.8092H107.89V27.2537H107.785Z" fill="#E2BFBC"/>
<path d="M113.746 30.8176V27.3585H114.999V30.608C114.999 31.3417 115.313 31.8659 116.148 31.8659C116.984 31.8659 117.297 31.3417 117.297 30.608V27.3585H118.551V30.8176C118.551 31.9707 117.924 33.0189 116.044 33.0189C114.373 32.9141 113.746 31.9707 113.746 30.8176Z" fill="#E2BFBC"/>
<path d="M124.291 29.1405C124.291 29.979 123.873 30.5031 123.247 30.8176L124.604 32.8092H123.142L121.993 31.0273H121.367V32.8092H120.113V27.2537H121.993C123.456 27.2537 124.291 27.8826 124.291 29.1405ZM121.367 28.1971V30.0839H121.889C122.62 30.0839 122.933 29.7694 122.933 29.1405C122.933 28.5115 122.62 28.1971 121.784 28.1971H121.367Z" fill="#E2BFBC"/>
<path d="M126.902 32.8092H125.648V27.2537H126.902V32.8092Z" fill="#E2BFBC"/>
<path d="M132.232 32.8092H128.367V27.2537H129.621V31.761H132.127L132.232 32.8092Z" fill="#E2BFBC"/>
<path d="M136.509 27.2537L138.494 32.8092H137.136L136.718 31.6562H134.42L134.002 32.8092H132.645L134.629 27.2537H136.509ZM135.673 28.1971L134.838 30.8176H136.509L135.673 28.1971Z" fill="#E2BFBC"/>
<path d="M8.45918 35.0105L8.04139 35.7443V38.3648H6.68359V29.8743H8.04139V33.543L9.81697 29.8743H11.1748L9.29474 33.6479L11.1748 38.3648H9.71253L8.45918 35.0105Z" fill="#923336"/>
<path d="M11.7969 31.9707C11.7969 30.608 12.528 29.8743 13.7813 29.8743C15.0347 29.8743 15.7658 30.608 15.7658 31.9707V36.3732C15.7658 37.7359 15.0347 38.4697 13.7813 38.4697C12.528 38.4697 11.7969 37.7359 11.7969 36.3732V31.9707ZM13.1547 36.478C13.1547 37.107 13.468 37.3166 13.8858 37.3166C14.3036 37.3166 14.6169 37.107 14.6169 36.478V31.8659C14.6169 31.237 14.3036 31.0273 13.8858 31.0273C13.468 31.0273 13.1547 31.237 13.1547 31.8659V36.478Z" fill="#923336"/>
<path d="M16.8164 37.2113C17.4431 37.2113 17.652 37.1065 17.652 36.3728L17.8609 29.9786H21.6209V38.4692H20.2631V31.2365H19.1142L19.0098 36.3728C19.0098 37.9451 18.3831 38.574 17.0253 38.574H16.8164V37.2113Z" fill="#923336"/>
<path d="M22.8711 38.4692V29.9786H24.2289V33.1233H24.8556C26.2134 33.1233 26.84 33.857 26.84 35.2197V36.3728C26.84 37.7354 26.2134 38.4692 24.8556 38.4692H22.8711ZM24.8556 37.2113C25.2734 37.2113 25.4822 37.0017 25.4822 36.3728V35.1149C25.4822 34.486 25.2734 34.2763 24.8556 34.2763H24.2289V37.1065H24.8556V37.2113Z" fill="#923336"/>
<path d="M27.8867 31.9707C27.8867 30.608 28.6178 29.8743 29.8712 29.8743C31.1245 29.8743 31.8557 30.608 31.8557 31.9707V36.3732C31.8557 37.7359 31.1245 38.4697 29.8712 38.4697C28.6178 38.4697 27.8867 37.7359 27.8867 36.3732V31.9707ZM29.1401 36.478C29.1401 37.107 29.4534 37.3166 29.8712 37.3166C30.289 37.3166 30.6023 37.107 30.6023 36.478V31.8659C30.6023 31.237 30.289 31.0273 29.8712 31.0273C29.4534 31.0273 29.1401 31.237 29.1401 31.8659V36.478Z" fill="#923336"/>
<path d="M36.9729 32.0754V33.2285C36.9729 34.5912 36.3462 35.3249 34.9884 35.3249H34.3617V38.4696H33.0039V29.979H34.9884C36.3462 29.979 36.9729 30.7128 36.9729 32.0754ZM34.3617 31.132V33.9622H34.9884C35.4062 33.9622 35.6151 33.7526 35.6151 33.1237V31.8658C35.6151 31.2369 35.4062 31.0272 34.9884 31.0272H34.3617V31.132Z" fill="#923336"/>
<path d="M38.0156 29.9786H39.3734V38.4692H38.0156V29.9786Z" fill="#923336"/>
<path d="M44.5979 31.8658V32.1803C44.5979 33.0188 44.2845 33.6478 43.7623 33.8574C44.4934 34.1719 44.7023 34.8008 44.7023 35.6394V36.478C44.7023 37.8406 43.9712 38.4696 42.7178 38.4696H40.6289V29.979H42.6134C43.9712 29.979 44.5979 30.6079 44.5979 31.8658ZM41.8823 31.132V33.3333H42.4045C42.9267 33.3333 43.2401 33.1237 43.2401 32.3899V31.8658C43.2401 31.2369 43.0312 31.0272 42.6134 31.0272H41.8823V31.132ZM41.8823 34.5912V37.2117H42.6134C43.0312 37.2117 43.3445 37.0021 43.3445 36.3731V35.6394C43.3445 34.8008 43.1356 34.5912 42.5089 34.5912H41.8823Z" fill="#923336"/>
<path d="M8.66807 20.65V21.803C8.66807 22.3271 8.77251 22.6416 8.98141 22.8512C9.1903 23.0609 9.39919 23.1657 9.71253 23.1657C10.0259 23.1657 10.3392 23.0609 10.4437 22.8512C10.6525 22.6416 10.757 22.3271 10.757 21.803V18.868C10.757 18.3439 10.6525 18.0294 10.4437 17.8198C10.3392 17.7149 10.1303 17.6101 9.71253 17.6101C9.39919 17.6101 9.08585 17.715 8.98141 17.9246C8.77251 18.1342 8.66807 18.4487 8.66807 18.9728V19.3921H6.68359L7.10138 11.7401H12.5326V13.6269H8.98141L8.77251 16.7716C9.1903 16.1426 9.81697 15.8282 10.5481 15.8282C11.2792 15.8282 11.9059 16.0378 12.3237 16.5619C12.7415 17.086 12.9504 17.8198 12.9504 18.7632V21.6982C12.9504 22.7464 12.637 23.585 12.2192 24.2139C11.697 24.738 10.9659 25.0525 9.92142 25.0525C8.87696 25.0525 8.14584 24.738 7.62361 24.2139C7.10138 23.6898 6.89249 22.8512 6.89249 21.6982V20.65H8.66807Z" fill="#923336"/>
<path d="M13.8867 14.78C13.8867 13.7317 14.2001 12.8932 14.7223 12.2642C15.2445 11.7401 16.0801 11.4257 17.0201 11.4257C18.0646 11.4257 18.7957 11.7401 19.3179 12.2642C19.8401 12.7883 20.1535 13.6269 20.1535 14.78V21.6982C20.1535 22.7464 19.8401 23.585 19.3179 24.2139C18.7957 24.738 17.9601 25.0525 17.0201 25.0525C15.9756 25.0525 15.2445 24.738 14.7223 24.2139C14.2001 23.6898 13.8867 22.8512 13.8867 21.6982V14.78ZM15.9756 21.803C15.9756 22.3271 16.0801 22.6416 16.289 22.8512C16.4979 23.0609 16.7068 23.1657 17.0201 23.1657C17.3334 23.1657 17.6468 23.0609 17.7512 22.8512C17.9601 22.6416 18.0646 22.3271 18.0646 21.803V14.6751C18.0646 14.151 17.9601 13.8366 17.7512 13.6269C17.6468 13.4173 17.3334 13.4173 17.0201 13.4173C16.7068 13.4173 16.3934 13.5221 16.289 13.7317C16.0801 13.9414 15.9756 14.2559 15.9756 14.78V21.803Z" fill="#923336"/>
<path d="M23.918 14.78C23.918 13.7317 24.2313 12.8932 24.7535 12.2642C25.2758 11.7401 26.1113 11.4257 27.0513 11.4257C28.0958 11.4257 28.8269 11.7401 29.3492 12.2642C29.8714 12.7883 30.1847 13.6269 30.1847 14.78V21.6982C30.1847 22.7464 29.8714 23.585 29.3492 24.2139C28.8269 24.738 27.9914 25.0525 27.0513 25.0525C26.0069 25.0525 25.2758 24.738 24.7535 24.2139C24.2313 23.6898 23.918 22.8512 23.918 21.6982V14.78ZM26.0069 21.803C26.0069 22.3271 26.1113 22.6416 26.3202 22.8512C26.5291 23.0609 26.738 23.1657 27.0513 23.1657C27.3647 23.1657 27.678 23.0609 27.7825 22.8512C27.9914 22.6416 28.0958 22.3271 28.0958 21.803V14.6751C28.0958 14.151 27.9914 13.8366 27.7825 13.6269C27.678 13.4173 27.3647 13.4173 27.0513 13.4173C26.738 13.4173 26.4247 13.5221 26.3202 13.7317C26.1113 13.9414 26.0069 14.2559 26.0069 14.78V21.803Z" fill="#923336"/>
<path d="M31.2266 14.78C31.2266 13.7317 31.5399 12.8932 32.0621 12.2642C32.5844 11.7401 33.4199 11.4257 34.3599 11.4257C35.4044 11.4257 36.1355 11.7401 36.6578 12.2642C37.18 12.7883 37.4933 13.6269 37.4933 14.78V21.6982C37.4933 22.7464 37.18 23.585 36.6578 24.2139C36.1355 24.738 35.3 25.0525 34.3599 25.0525C33.3155 25.0525 32.5844 24.738 32.0621 24.2139C31.5399 23.6898 31.2266 22.8512 31.2266 21.6982V14.78ZM33.3155 21.803C33.3155 22.3271 33.4199 22.6416 33.6288 22.8512C33.8377 23.0609 34.0466 23.1657 34.3599 23.1657C34.6733 23.1657 34.9866 23.0609 35.0911 22.8512C35.3 22.6416 35.4044 22.3271 35.4044 21.803V14.6751C35.4044 14.151 35.3 13.8366 35.0911 13.6269C34.8822 13.4173 34.6733 13.4173 34.3599 13.4173C34.0466 13.4173 33.7333 13.5221 33.6288 13.7317C33.4199 13.9414 33.3155 14.2559 33.3155 14.78V21.803Z" fill="#923336"/>
<path d="M38.4336 14.78C38.4336 13.7317 38.7469 12.8932 39.2692 12.2642C39.7914 11.7401 40.627 11.4257 41.567 11.4257C42.6114 11.4257 43.3426 11.7401 43.8648 12.2642C44.387 12.7883 44.7004 13.6269 44.7004 14.78V21.6982C44.7004 22.7464 44.387 23.585 43.8648 24.2139C43.3426 24.738 42.507 25.0525 41.567 25.0525C40.5225 25.0525 39.7914 24.738 39.2692 24.2139C38.7469 23.6898 38.4336 22.8512 38.4336 21.6982V14.78ZM40.5225 21.803C40.5225 22.3271 40.627 22.6416 40.8359 22.8512C41.0447 23.0609 41.2536 23.1657 41.567 23.1657C41.8803 23.1657 42.1937 23.0609 42.2981 22.8512C42.507 22.6416 42.6114 22.3271 42.6114 21.803V14.6751C42.6114 14.151 42.507 13.8366 42.2981 13.6269C42.1937 13.4173 41.9848 13.4173 41.567 13.4173C41.2536 13.4173 40.9403 13.5221 40.8359 13.7317C40.627 13.9414 40.5225 14.2559 40.5225 14.78V21.803Z" fill="#923336"/>
<path d="M68.9316 12.7882C68.9316 12.0545 68.3049 11.4255 67.5738 11.4255H61.307C60.5759 11.4255 59.9492 12.0545 59.9492 12.7882V37.2117C59.9492 37.9454 60.5759 38.5744 61.307 38.5744H85.6429C86.3741 38.5744 87.0007 37.9454 87.0007 37.2117V30.9224C87.0007 30.1886 86.3741 29.5597 85.6429 29.5597H81.2562L85.0163 27.3585C85.3296 27.1488 85.5385 26.8343 85.6429 26.5199C85.7474 26.2054 85.6429 25.7861 85.5385 25.4717L82.4051 20.0209C82.1962 19.7065 81.8829 19.4968 81.5695 19.392C81.2562 19.2872 80.8384 19.392 80.5251 19.4968L76.765 21.6981L78.9584 17.9245C79.1673 17.61 79.1673 17.1907 79.0628 16.8763C78.9584 16.5618 78.7495 16.2473 78.4362 16.0377L73.005 12.893C72.6916 12.6834 72.2738 12.6834 71.9605 12.7882C71.6472 12.893 71.3338 13.1027 71.1249 13.4172L68.9316 17.1907V12.7882ZM68.9316 36.6876L73.4228 34.067V37.7358H68.8271C68.9316 37.5262 68.9316 37.3165 68.9316 37.2117V36.6876ZM68.9316 18.9727L75.1983 22.5366L72.4827 27.2536L68.9316 25.1572V18.9727ZM75.825 23.2704L79.3762 29.5597L74.6761 32.2851L72.5872 28.7211L75.825 23.2704ZM79.6895 30.3983V37.631H74.2583V33.4381L74.7806 33.1237L79.6895 30.3983ZM68.9316 35.6394V35.3249L72.2738 29.5597L74.0494 32.7044L68.9316 35.6394ZM68.9316 33.4381V26.2054L72.065 27.9874L71.8561 28.4067L68.9316 33.4381ZM60.7848 30.3983V24.9475H67.9916V30.3983H60.7848ZM60.7848 24.109V18.6582H67.9916V24.109H60.7848ZM75.6161 21.8029L69.3494 18.239L71.8561 13.9413C71.9605 13.8364 72.065 13.7316 72.1694 13.7316C72.2738 13.7316 72.3783 13.7316 72.4827 13.7316L77.9139 16.8763C78.0184 16.9811 78.1228 17.0859 78.1228 17.1907C78.1228 17.2956 78.1228 17.4004 78.1228 17.5052L75.6161 21.8029ZM80.2117 29.0356L76.6606 22.7463L80.9429 20.2306C81.0473 20.1257 81.1518 20.1257 81.2562 20.2306C81.3607 20.2306 81.4651 20.3354 81.5695 20.4402L84.7029 25.8909C84.8074 25.9958 84.8074 26.1006 84.7029 26.2054C84.7029 26.3102 84.5985 26.4151 84.494 26.5199L80.2117 29.0356ZM86.0607 37.2117C86.0607 37.4213 85.8518 37.631 85.6429 37.631H80.734V30.3983H85.6429C85.8518 30.3983 86.0607 30.6079 86.0607 30.8176V37.2117ZM61.2026 37.631C60.9937 37.631 60.7848 37.4213 60.7848 37.2117V31.3417H67.9916V37.2117C67.9916 37.4213 67.7827 37.631 67.5738 37.631H61.2026ZM67.5738 12.3689C67.7827 12.3689 67.9916 12.5786 67.9916 12.7882V17.7148H60.7848V12.7882C60.7848 12.5786 60.9937 12.3689 61.2026 12.3689H67.5738Z" fill="#E2BFBC"/>
<path d="M66.2152 34.4864C66.2152 33.4382 65.3797 32.7045 64.4396 32.7045C63.3952 32.7045 62.6641 33.543 62.6641 34.4864C62.6641 35.4298 63.4996 36.2684 64.4396 36.2684C65.3797 36.3732 66.2152 35.5347 66.2152 34.4864ZM63.4996 34.4864C63.4996 33.9623 63.9174 33.543 64.4396 33.543C64.9619 33.543 65.3797 33.9623 65.3797 34.4864C65.3797 35.0105 64.9619 35.4298 64.4396 35.4298C63.9174 35.4298 63.4996 35.0105 63.4996 34.4864Z" fill="#E2BFBC"/>
</svg>
