<svg width="50" height="50" viewBox="0 0 50 50" fill="none" xmlns="http://www.w3.org/2000/svg">
<path d="M0 50H50V0H0V50ZM37.4735 48.5886H12.6323V35.8504H37.4383L37.4735 48.5886ZM22.9358 34.7565L23.7474 30.5575C24.5589 30.6634 25.3352 30.7339 26.1115 30.8045L25.3352 34.7565H22.9358ZM1.41143 1.41143H16.2668C16.1962 3.66972 17.1136 10.9386 17.7841 11.5385C18.1722 12.2089 21.2773 17.4665 22.5476 17.7135C23.8885 18.1016 24.0649 17.6782 24.2414 17.5371C24.2414 17.5371 24.5589 15.9492 23.8885 15.4905C23.2181 15.0318 20.7833 11.0797 20.7833 11.0797C20.9245 10.9033 20.3246 8.99788 22.0183 9.9506C23.9238 10.621 27.5582 18.0663 29.0755 18.7015C30.7692 19.0543 32.6041 17.8193 31.9689 16.3373C31.8631 15.2082 27.8405 8.99788 27.0642 8.68031C27.9817 8.08045 29.3578 6.13973 29.2167 5.9633L29.3931 1.41143H32.0042L30.2752 10.1623L31.0868 11.1503L33.0275 1.41143H48.6239V48.5886H38.5321V34.7565H26.3938L27.1701 30.8751C33.204 31.2279 38.5674 30.1341 41.602 27.1701C43.2957 25.5822 41.3903 22.7241 39.2025 22.0183L40.4375 20.9598L36.4855 20.8892L38.0734 24.5236L38.8144 22.5829C40.9315 23.2181 42.4136 25.6528 40.7198 27.2406C37.7911 29.6048 32.9217 30.4869 27.3112 30.1694L29.2872 20.1129L28.3345 19.8306L26.2879 30.0988C25.5116 30.0635 24.7001 29.9577 23.9238 29.8518L26.3585 17.6076L25.4411 16.9372L22.9005 29.6754C18.1722 28.9697 13.1969 27.5229 8.57445 25.4058L8.36274 26.1115C12.8793 28.1581 17.9252 29.6401 22.7594 30.4164L21.8772 34.7565H11.6443V48.5533H1.41143V1.41143Z" fill="#E2BFBC"/>
<path d="M33.9093 15.914C33.5565 17.7135 33.2389 18.7015 33.2389 18.7015C33.2389 18.7015 34.4386 19.1956 34.9679 18.5957C35.4619 17.7488 35.4972 17.1137 35.2855 16.5491C35.8853 16.3374 36.6263 15.2435 36.2382 14.2555C36.0618 13.4792 35.2855 13.3381 35.2855 13.3381C35.6383 12.95 35.8853 12.3501 35.7795 11.221C35.8148 10.3741 35.1796 10.0565 34.4739 9.98595C34.6503 9.42138 34.7562 8.82152 34.5798 7.97466C33.9799 6.73966 33.0272 7.51595 32.8508 7.90409C32.4979 9.56252 32.3568 10.6564 32.0039 12.3501C32.0745 12.3148 34.2622 14.1144 33.9093 15.914Z" fill="#E2BFBC"/>
</svg>
