<svg width="148" height="50" viewBox="0 0 148 50" fill="none" xmlns="http://www.w3.org/2000/svg">
<g clip-path="url(#clip0)">
<path d="M50.2341 0H49V8.53314H50.2341V0Z" fill="#231F20"/>
<path d="M50.2341 9.76733H49V12.2003H50.2341V9.76733Z" fill="#231F20"/>
<path d="M50.2341 14.6333H49V17.0663H50.2341V14.6333Z" fill="#231F20"/>
<path d="M50.2341 19.4993H49V21.9323H50.2341V19.4993Z" fill="#231F20"/>
<path d="M50.2341 23.1665H49V24.4006H50.2341V23.1665Z" fill="#231F20"/>
<path d="M50.2341 26.8335H49V28.0676H50.2341V26.8335Z" fill="#231F20"/>
<path d="M50.2341 29.2666H49V30.5007H50.2341V29.2666Z" fill="#231F20"/>
<path d="M50.2341 31.6997H49V34.1327H50.2341V31.6997Z" fill="#231F20"/>
<path d="M50.2341 35.3315H49V40.1976H50.2341V35.3315Z" fill="#231F20"/>
<path d="M50.2341 41.4316H49V49.9648H50.2341V41.4316Z" fill="#231F20"/>
<path d="M51.4685 0H50.2344V1.23413H51.4685V0Z" fill="#231F20"/>
<path d="M51.4685 7.29907H50.2344V8.5332H51.4685V7.29907Z" fill="#231F20"/>
<path d="M51.4685 10.9661H50.2344V15.8321H51.4685V10.9661Z" fill="#231F20"/>
<path d="M51.4685 24.3652H50.2344V25.5994H51.4685V24.3652Z" fill="#231F20"/>
<path d="M51.4685 28.0325H50.2344V29.2666H51.4685V28.0325Z" fill="#231F20"/>
<path d="M51.4685 30.4653H50.2344V32.8983H51.4685V30.4653Z" fill="#231F20"/>
<path d="M51.4685 35.3315H50.2344V40.1976H51.4685V35.3315Z" fill="#231F20"/>
<path d="M51.4685 41.4316H50.2344V42.6658H51.4685V41.4316Z" fill="#231F20"/>
<path d="M51.4685 48.7659H50.2344V50H51.4685V48.7659Z" fill="#231F20"/>
<path d="M52.6677 0H51.4336V1.23413H52.6677V0Z" fill="#231F20"/>
<path d="M52.6677 2.43311H51.4336V6.10024H52.6677V2.43311Z" fill="#231F20"/>
<path d="M52.6677 7.29883H51.4336V8.53296H52.6677V7.29883Z" fill="#231F20"/>
<path d="M52.6677 18.3003H51.4336V20.7333H52.6677V18.3003Z" fill="#231F20"/>
<path d="M52.6677 23.1665H51.4336V26.8336H52.6677V23.1665Z" fill="#231F20"/>
<path d="M52.6677 28.0325H51.4336V30.4655H52.6677V28.0325Z" fill="#231F20"/>
<path d="M52.6677 31.6997H51.4336V36.5657H52.6677V31.6997Z" fill="#231F20"/>
<path d="M52.6677 37.7998H51.4336V39.0339H52.6677V37.7998Z" fill="#231F20"/>
<path d="M52.6677 41.4316H51.4336V42.6658H52.6677V41.4316Z" fill="#231F20"/>
<path d="M52.6677 43.8647H51.4336V47.5319H52.6677V43.8647Z" fill="#231F20"/>
<path d="M52.6677 48.7659H51.4336V50H52.6677V48.7659Z" fill="#231F20"/>
<path d="M53.9021 0H52.668V1.23413H53.9021V0Z" fill="#231F20"/>
<path d="M53.9021 2.43311H52.668V6.10024H53.9021V2.43311Z" fill="#231F20"/>
<path d="M53.9021 7.29883H52.668V8.53296H53.9021V7.29883Z" fill="#231F20"/>
<path d="M53.9021 9.76709H52.668V11.0012H53.9021V9.76709Z" fill="#231F20"/>
<path d="M53.9021 12.2002H52.668V13.4343H53.9021V12.2002Z" fill="#231F20"/>
<path d="M53.9021 14.6333H52.668V15.8674H53.9021V14.6333Z" fill="#231F20"/>
<path d="M53.9021 19.4993H52.668V20.7334H53.9021V19.4993Z" fill="#231F20"/>
<path d="M53.9021 25.5994H52.668V29.2665H53.9021V25.5994Z" fill="#231F20"/>
<path d="M53.9021 30.4653H52.668V31.6995H53.9021V30.4653Z" fill="#231F20"/>
<path d="M53.9021 32.8984H52.668V34.1326H53.9021V32.8984Z" fill="#231F20"/>
<path d="M53.9021 36.5654H52.668V37.7996H53.9021V36.5654Z" fill="#231F20"/>
<path d="M53.9021 41.4316H52.668V42.6658H53.9021V41.4316Z" fill="#231F20"/>
<path d="M53.9021 43.8647H52.668V47.5319H53.9021V43.8647Z" fill="#231F20"/>
<path d="M53.9021 48.7659H52.668V50H53.9021V48.7659Z" fill="#231F20"/>
<path d="M55.1013 0H53.8672V1.23413H55.1013V0Z" fill="#231F20"/>
<path d="M55.1013 2.43311H53.8672V6.10024H55.1013V2.43311Z" fill="#231F20"/>
<path d="M55.1013 7.29907H53.8672V8.5332H55.1013V7.29907Z" fill="#231F20"/>
<path d="M55.1013 9.76733H53.8672V12.2003H55.1013V9.76733Z" fill="#231F20"/>
<path d="M55.1013 13.3992H53.8672V15.8322H55.1013V13.3992Z" fill="#231F20"/>
<path d="M55.1013 17.0664H53.8672V19.4994H55.1013V17.0664Z" fill="#231F20"/>
<path d="M55.1013 20.7334H53.8672V24.4005H55.1013V20.7334Z" fill="#231F20"/>
<path d="M55.1013 28.0325H53.8672V34.1326H55.1013V28.0325Z" fill="#231F20"/>
<path d="M55.1013 35.3315H53.8672V37.7645H55.1013V35.3315Z" fill="#231F20"/>
<path d="M55.1013 41.4316H53.8672V42.6658H55.1013V41.4316Z" fill="#231F20"/>
<path d="M55.1013 43.8645H53.8672V47.5316H55.1013V43.8645Z" fill="#231F20"/>
<path d="M55.1013 48.7659H53.8672V50H55.1013V48.7659Z" fill="#231F20"/>
<path d="M56.3357 0H55.1016V1.23413H56.3357V0Z" fill="#231F20"/>
<path d="M56.3357 7.29883H55.1016V8.53296H56.3357V7.29883Z" fill="#231F20"/>
<path d="M56.3357 9.76709H55.1016V11.0012H56.3357V9.76709Z" fill="#231F20"/>
<path d="M56.3357 12.2002H55.1016V13.4343H56.3357V12.2002Z" fill="#231F20"/>
<path d="M56.3357 14.6333H55.1016V17.0663H56.3357V14.6333Z" fill="#231F20"/>
<path d="M56.3357 18.3003H55.1016V21.9674H56.3357V18.3003Z" fill="#231F20"/>
<path d="M56.3357 28.0325H55.1016V32.8985H56.3357V28.0325Z" fill="#231F20"/>
<path d="M56.3357 38.9985H55.1016V40.2327H56.3357V38.9985Z" fill="#231F20"/>
<path d="M56.3357 41.4316H55.1016V42.6658H56.3357V41.4316Z" fill="#231F20"/>
<path d="M56.3357 48.7659H55.1016V50H56.3357V48.7659Z" fill="#231F20"/>
<path d="M57.531 0H56.2969V8.53314H57.531V0Z" fill="#231F20"/>
<path d="M57.531 9.76709H56.2969V11.0012H57.531V9.76709Z" fill="#231F20"/>
<path d="M57.531 12.2002H56.2969V13.4343H57.531V12.2002Z" fill="#231F20"/>
<path d="M57.531 14.6333H56.2969V15.8674H57.531V14.6333Z" fill="#231F20"/>
<path d="M57.531 17.0664H56.2969V18.3005H57.531V17.0664Z" fill="#231F20"/>
<path d="M57.531 19.4993H56.2969V20.7334H57.531V19.4993Z" fill="#231F20"/>
<path d="M57.531 21.9321H56.2969V23.1663H57.531V21.9321Z" fill="#231F20"/>
<path d="M57.531 24.3652H56.2969V25.5994H57.531V24.3652Z" fill="#231F20"/>
<path d="M57.531 26.8335H56.2969V28.0676H57.531V26.8335Z" fill="#231F20"/>
<path d="M57.531 29.2666H56.2969V30.5007H57.531V29.2666Z" fill="#231F20"/>
<path d="M57.531 31.6997H56.2969V32.9338H57.531V31.6997Z" fill="#231F20"/>
<path d="M57.531 34.1326H56.2969V35.3667H57.531V34.1326Z" fill="#231F20"/>
<path d="M57.531 36.5654H56.2969V37.7996H57.531V36.5654Z" fill="#231F20"/>
<path d="M57.531 38.9985H56.2969V40.2327H57.531V38.9985Z" fill="#231F20"/>
<path d="M57.531 41.4316H56.2969V49.9648H57.531V41.4316Z" fill="#231F20"/>
<path d="M58.7654 9.76709H57.5312V12.2001H58.7654V9.76709Z" fill="#231F20"/>
<path d="M58.7654 13.3992H57.5312V14.6333H58.7654V13.3992Z" fill="#231F20"/>
<path d="M58.7654 20.7334H57.5312V21.9675H58.7654V20.7334Z" fill="#231F20"/>
<path d="M58.7654 23.1665H57.5312V26.8336H58.7654V23.1665Z" fill="#231F20"/>
<path d="M58.7654 28.0325H57.5312V29.2666H58.7654V28.0325Z" fill="#231F20"/>
<path d="M58.7654 31.6997H57.5312V32.9338H58.7654V31.6997Z" fill="#231F20"/>
<path d="M58.7654 34.1326H57.5312V35.3667H58.7654V34.1326Z" fill="#231F20"/>
<path d="M58.7654 37.7998H57.5312V40.2328H58.7654V37.7998Z" fill="#231F20"/>
<path d="M59.9998 0H58.7656V3.66714H59.9998V0Z" fill="#231F20"/>
<path d="M59.9998 4.86597H58.7656V6.1001H59.9998V4.86597Z" fill="#231F20"/>
<path d="M59.9998 7.29883H58.7656V8.53296H59.9998V7.29883Z" fill="#231F20"/>
<path d="M59.9998 9.76709H58.7656V11.0012H59.9998V9.76709Z" fill="#231F20"/>
<path d="M59.9998 14.6333H58.7656V15.8674H59.9998V14.6333Z" fill="#231F20"/>
<path d="M59.9998 21.9321H58.7656V23.1663H59.9998V21.9321Z" fill="#231F20"/>
<path d="M59.9998 24.3652H58.7656V25.5994H59.9998V24.3652Z" fill="#231F20"/>
<path d="M59.9998 26.8335H58.7656V29.2665H59.9998V26.8335Z" fill="#231F20"/>
<path d="M59.9998 30.4653H58.7656V31.6995H59.9998V30.4653Z" fill="#231F20"/>
<path d="M59.9998 34.1326H58.7656V35.3667H59.9998V34.1326Z" fill="#231F20"/>
<path d="M59.9998 36.5654H58.7656V37.7996H59.9998V36.5654Z" fill="#231F20"/>
<path d="M59.9998 40.2327H58.7656V46.3328H59.9998V40.2327Z" fill="#231F20"/>
<path d="M59.9998 48.7659H58.7656V50H59.9998V48.7659Z" fill="#231F20"/>
<path d="M61.199 0H59.9648V1.23413H61.199V0Z" fill="#231F20"/>
<path d="M61.199 2.43311H59.9648V4.86611H61.199V2.43311Z" fill="#231F20"/>
<path d="M61.199 9.76709H59.9648V11.0012H61.199V9.76709Z" fill="#231F20"/>
<path d="M61.199 13.3992H59.9648V15.8322H61.199V13.3992Z" fill="#231F20"/>
<path d="M61.199 17.0664H59.9648V18.3005H61.199V17.0664Z" fill="#231F20"/>
<path d="M61.199 19.4993H59.9648V20.7334H61.199V19.4993Z" fill="#231F20"/>
<path d="M61.199 21.9321H59.9648V24.3651H61.199V21.9321Z" fill="#231F20"/>
<path d="M61.199 25.5994H59.9648V26.8335H61.199V25.5994Z" fill="#231F20"/>
<path d="M61.199 34.1326H59.9648V35.3667H61.199V34.1326Z" fill="#231F20"/>
<path d="M61.199 40.2327H59.9648V41.4668H61.199V40.2327Z" fill="#231F20"/>
<path d="M61.199 42.6658H59.9648V45.0988H61.199V42.6658Z" fill="#231F20"/>
<path d="M61.199 46.333H59.9648V47.5671H61.199V46.333Z" fill="#231F20"/>
<path d="M61.199 48.7659H59.9648V50H61.199V48.7659Z" fill="#231F20"/>
<path d="M62.4334 6.1001H61.1992V9.76724H62.4334V6.1001Z" fill="#231F20"/>
<path d="M62.4334 10.9663H61.1992V14.6334H62.4334V10.9663Z" fill="#231F20"/>
<path d="M62.4334 15.832H61.1992V17.0662H62.4334V15.832Z" fill="#231F20"/>
<path d="M62.4334 21.9321H61.1992V25.5993H62.4334V21.9321Z" fill="#231F20"/>
<path d="M62.4334 28.0325H61.1992V31.6996H62.4334V28.0325Z" fill="#231F20"/>
<path d="M62.4334 34.1326H61.1992V35.3667H62.4334V34.1326Z" fill="#231F20"/>
<path d="M62.4334 36.5654H61.1992V37.7996H62.4334V36.5654Z" fill="#231F20"/>
<path d="M62.4334 41.4316H61.1992V42.6658H62.4334V41.4316Z" fill="#231F20"/>
<path d="M62.4334 48.7659H61.1992V50H62.4334V48.7659Z" fill="#231F20"/>
<path d="M63.6326 0H62.3984V2.433H63.6326V0Z" fill="#231F20"/>
<path d="M63.6326 4.86597H62.3984V7.29897H63.6326V4.86597Z" fill="#231F20"/>
<path d="M63.6326 8.5332H62.3984V9.76734H63.6326V8.5332Z" fill="#231F20"/>
<path d="M63.6326 17.0664H62.3984V19.4994H63.6326V17.0664Z" fill="#231F20"/>
<path d="M63.6326 20.7334H62.3984V21.9675H63.6326V20.7334Z" fill="#231F20"/>
<path d="M63.6326 25.5994H62.3984V26.8335H63.6326V25.5994Z" fill="#231F20"/>
<path d="M63.6326 28.0325H62.3984V29.2666H63.6326V28.0325Z" fill="#231F20"/>
<path d="M63.6326 30.4653H62.3984V38.9985H63.6326V30.4653Z" fill="#231F20"/>
<path d="M63.6326 41.4316H62.3984V42.6658H63.6326V41.4316Z" fill="#231F20"/>
<path d="M63.6326 48.7659H62.3984V50H63.6326V48.7659Z" fill="#231F20"/>
<path d="M64.8669 1.23413H63.6328V6.10014H64.8669V1.23413Z" fill="#231F20"/>
<path d="M64.8669 7.29907H63.6328V8.5332H64.8669V7.29907Z" fill="#231F20"/>
<path d="M64.8669 9.76733H63.6328V12.2003H64.8669V9.76733Z" fill="#231F20"/>
<path d="M64.8669 13.3992H63.6328V17.0663H64.8669V13.3992Z" fill="#231F20"/>
<path d="M64.8669 18.3005H63.6328V21.9677H64.8669V18.3005Z" fill="#231F20"/>
<path d="M64.8669 24.3652H63.6328V25.5994H64.8669V24.3652Z" fill="#231F20"/>
<path d="M64.8669 31.6997H63.6328V32.9338H64.8669V31.6997Z" fill="#231F20"/>
<path d="M64.8669 34.1326H63.6328V36.5656H64.8669V34.1326Z" fill="#231F20"/>
<path d="M64.8669 37.7998H63.6328V39.0339H64.8669V37.7998Z" fill="#231F20"/>
<path d="M64.8669 42.6658H63.6328V43.8999H64.8669V42.6658Z" fill="#231F20"/>
<path d="M64.8669 45.0986H63.6328V46.3328H64.8669V45.0986Z" fill="#231F20"/>
<path d="M64.8669 47.5317H63.6328V49.9647H64.8669V47.5317Z" fill="#231F20"/>
<path d="M66.0662 0H64.832V7.29901H66.0662V0Z" fill="#231F20"/>
<path d="M66.0662 9.76733H64.832V14.6333H66.0662V9.76733Z" fill="#231F20"/>
<path d="M66.0662 15.8323H64.832V17.0664H66.0662V15.8323Z" fill="#231F20"/>
<path d="M66.0662 19.4993H64.832V20.7334H66.0662V19.4993Z" fill="#231F20"/>
<path d="M66.0662 29.2666H64.832V30.5007H66.0662V29.2666Z" fill="#231F20"/>
<path d="M66.0662 31.6997H64.832V32.9338H66.0662V31.6997Z" fill="#231F20"/>
<path d="M66.0662 34.1326H64.832V35.3667H66.0662V34.1326Z" fill="#231F20"/>
<path d="M66.0662 43.8645H64.832V46.2975H66.0662V43.8645Z" fill="#231F20"/>
<path d="M66.0662 47.5317H64.832V48.7659H66.0662V47.5317Z" fill="#231F20"/>
<path d="M67.3005 0H66.0664V2.433H67.3005V0Z" fill="#231F20"/>
<path d="M67.3005 4.86597H66.0664V6.1001H67.3005V4.86597Z" fill="#231F20"/>
<path d="M67.3005 7.29907H66.0664V12.1651H67.3005V7.29907Z" fill="#231F20"/>
<path d="M67.3005 13.3992H66.0664V15.8322H67.3005V13.3992Z" fill="#231F20"/>
<path d="M67.3005 19.4993H66.0664V21.9323H67.3005V19.4993Z" fill="#231F20"/>
<path d="M67.3005 29.2666H66.0664V30.5007H67.3005V29.2666Z" fill="#231F20"/>
<path d="M67.3005 31.6997H66.0664V34.1327H67.3005V31.6997Z" fill="#231F20"/>
<path d="M67.3005 35.3315H66.0664V36.5657H67.3005V35.3315Z" fill="#231F20"/>
<path d="M67.3005 38.9985H66.0664V41.4315H67.3005V38.9985Z" fill="#231F20"/>
<path d="M67.3005 47.5317H66.0664V48.7659H67.3005V47.5317Z" fill="#231F20"/>
<path d="M68.5349 3.66724H67.3008V4.90137H68.5349V3.66724Z" fill="#231F20"/>
<path d="M68.5349 8.5332H67.3008V10.9662H68.5349V8.5332Z" fill="#231F20"/>
<path d="M68.5349 13.3992H67.3008V15.8322H68.5349V13.3992Z" fill="#231F20"/>
<path d="M68.5349 20.7334H67.3008V21.9675H68.5349V20.7334Z" fill="#231F20"/>
<path d="M68.5349 23.1665H67.3008V24.4006H68.5349V23.1665Z" fill="#231F20"/>
<path d="M68.5349 34.1326H67.3008V35.3667H68.5349V34.1326Z" fill="#231F20"/>
<path d="M68.5349 37.7998H67.3008V39.0339H68.5349V37.7998Z" fill="#231F20"/>
<path d="M68.5349 40.2327H67.3008V41.4668H68.5349V40.2327Z" fill="#231F20"/>
<path d="M68.5349 45.0986H67.3008V46.3328H68.5349V45.0986Z" fill="#231F20"/>
<path d="M68.5349 47.5317H67.3008V48.7659H68.5349V47.5317Z" fill="#231F20"/>
<path d="M69.7341 0H68.5V1.23413H69.7341V0Z" fill="#231F20"/>
<path d="M69.7341 2.43311H68.5V3.66724H69.7341V2.43311Z" fill="#231F20"/>
<path d="M69.7341 4.86597H68.5V6.1001H69.7341V4.86597Z" fill="#231F20"/>
<path d="M69.7341 7.29907H68.5V9.73208H69.7341V7.29907Z" fill="#231F20"/>
<path d="M69.7341 10.9661H68.5V13.3991H69.7341V10.9661Z" fill="#231F20"/>
<path d="M69.7341 17.0664H68.5V23.1665H69.7341V17.0664Z" fill="#231F20"/>
<path d="M69.7341 24.3652H68.5V25.5994H69.7341V24.3652Z" fill="#231F20"/>
<path d="M69.7341 26.8335H68.5V29.2665H69.7341V26.8335Z" fill="#231F20"/>
<path d="M69.7341 32.8984H68.5V34.1326H69.7341V32.8984Z" fill="#231F20"/>
<path d="M69.7341 35.3315H68.5V36.5657H69.7341V35.3315Z" fill="#231F20"/>
<path d="M69.7341 42.6658H68.5V43.8999H69.7341V42.6658Z" fill="#231F20"/>
<path d="M69.7341 45.0986H68.5V48.7658H69.7341V45.0986Z" fill="#231F20"/>
<path d="M70.9685 0H69.7344V1.23413H70.9685V0Z" fill="#231F20"/>
<path d="M70.9685 4.86597H69.7344V6.1001H70.9685V4.86597Z" fill="#231F20"/>
<path d="M70.9685 8.5332H69.7344V9.76734H70.9685V8.5332Z" fill="#231F20"/>
<path d="M70.9685 13.3992H69.7344V17.0663H70.9685V13.3992Z" fill="#231F20"/>
<path d="M70.9685 19.4993H69.7344V20.7334H70.9685V19.4993Z" fill="#231F20"/>
<path d="M70.9685 23.1665H69.7344V24.4006H70.9685V23.1665Z" fill="#231F20"/>
<path d="M70.9685 28.0325H69.7344V30.4655H70.9685V28.0325Z" fill="#231F20"/>
<path d="M70.9685 31.6997H69.7344V35.3668H70.9685V31.6997Z" fill="#231F20"/>
<path d="M70.9685 37.7998H69.7344V39.0339H70.9685V37.7998Z" fill="#231F20"/>
<path d="M70.9685 41.4316H69.7344V46.2976H70.9685V41.4316Z" fill="#231F20"/>
<path d="M70.9685 47.5317H69.7344V48.7659H70.9685V47.5317Z" fill="#231F20"/>
<path d="M72.1677 1.23413H70.9336V2.46826H72.1677V1.23413Z" fill="#231F20"/>
<path d="M72.1677 3.66699H70.9336V4.90112H72.1677V3.66699Z" fill="#231F20"/>
<path d="M72.1677 6.1001H70.9336V10.9661H72.1677V6.1001Z" fill="#231F20"/>
<path d="M72.1677 12.2002H70.9336V13.4343H72.1677V12.2002Z" fill="#231F20"/>
<path d="M72.1677 15.832H70.9336V17.0662H72.1677V15.832Z" fill="#231F20"/>
<path d="M72.1677 19.4993H70.9336V21.9323H72.1677V19.4993Z" fill="#231F20"/>
<path d="M72.1677 23.1665H70.9336V24.4006H72.1677V23.1665Z" fill="#231F20"/>
<path d="M72.1677 25.5994H70.9336V28.0324H72.1677V25.5994Z" fill="#231F20"/>
<path d="M72.1677 29.2666H70.9336V30.5007H72.1677V29.2666Z" fill="#231F20"/>
<path d="M72.1677 31.6997H70.9336V35.3668H72.1677V31.6997Z" fill="#231F20"/>
<path d="M72.1677 36.5654H70.9336V37.7996H72.1677V36.5654Z" fill="#231F20"/>
<path d="M72.1677 41.4316H70.9336V42.6658H72.1677V41.4316Z" fill="#231F20"/>
<path d="M72.1677 43.8647H70.9336V45.0989H72.1677V43.8647Z" fill="#231F20"/>
<path d="M72.1677 46.333H70.9336V50.0001H72.1677V46.333Z" fill="#231F20"/>
<path d="M73.4021 0H72.168V1.23413H73.4021V0Z" fill="#231F20"/>
<path d="M73.4021 2.43311H72.168V4.86611H73.4021V2.43311Z" fill="#231F20"/>
<path d="M73.4021 6.1001H72.168V7.33423H73.4021V6.1001Z" fill="#231F20"/>
<path d="M73.4021 13.3992H72.168V17.0663H73.4021V13.3992Z" fill="#231F20"/>
<path d="M73.4021 18.3003H72.168V20.7333H73.4021V18.3003Z" fill="#231F20"/>
<path d="M73.4021 21.9321H72.168V24.3651H73.4021V21.9321Z" fill="#231F20"/>
<path d="M73.4021 25.5994H72.168V26.8335H73.4021V25.5994Z" fill="#231F20"/>
<path d="M73.4021 29.2666H72.168V34.1326H73.4021V29.2666Z" fill="#231F20"/>
<path d="M73.4021 36.5654H72.168V40.2326H73.4021V36.5654Z" fill="#231F20"/>
<path d="M73.4021 46.333H72.168V47.5671H73.4021V46.333Z" fill="#231F20"/>
<path d="M73.4021 48.7659H72.168V50H73.4021V48.7659Z" fill="#231F20"/>
<path d="M74.6013 1.23413H73.3672V2.46826H74.6013V1.23413Z" fill="#231F20"/>
<path d="M74.6013 3.66699H73.3672V4.90112H74.6013V3.66699Z" fill="#231F20"/>
<path d="M74.6013 7.29883H73.3672V8.53296H74.6013V7.29883Z" fill="#231F20"/>
<path d="M74.6013 14.6333H73.3672V15.8674H74.6013V14.6333Z" fill="#231F20"/>
<path d="M74.6013 20.7334H73.3672V21.9675H74.6013V20.7334Z" fill="#231F20"/>
<path d="M74.6013 25.5994H73.3672V30.4654H74.6013V25.5994Z" fill="#231F20"/>
<path d="M74.6013 32.8984H73.3672V34.1326H74.6013V32.8984Z" fill="#231F20"/>
<path d="M74.6013 37.7998H73.3672V41.4669H74.6013V37.7998Z" fill="#231F20"/>
<path d="M74.6013 45.0986H73.3672V46.3328H74.6013V45.0986Z" fill="#231F20"/>
<path d="M74.6013 47.5317H73.3672V48.7659H74.6013V47.5317Z" fill="#231F20"/>
<path d="M75.8357 1.23413H74.6016V2.46826H75.8357V1.23413Z" fill="#231F20"/>
<path d="M75.8357 4.86597H74.6016V6.1001H75.8357V4.86597Z" fill="#231F20"/>
<path d="M75.8357 10.9663H74.6016V13.3993H75.8357V10.9663Z" fill="#231F20"/>
<path d="M75.8357 14.6333H74.6016V20.7334H75.8357V14.6333Z" fill="#231F20"/>
<path d="M75.8357 21.9321H74.6016V23.1663H75.8357V21.9321Z" fill="#231F20"/>
<path d="M75.8357 24.3652H74.6016V25.5994H75.8357V24.3652Z" fill="#231F20"/>
<path d="M75.8357 26.8335H74.6016V29.2665H75.8357V26.8335Z" fill="#231F20"/>
<path d="M75.8357 30.4653H74.6016V31.6995H75.8357V30.4653Z" fill="#231F20"/>
<path d="M75.8357 34.1326H74.6016V36.5656H75.8357V34.1326Z" fill="#231F20"/>
<path d="M75.8357 37.7998H74.6016V41.4669H75.8357V37.7998Z" fill="#231F20"/>
<path d="M75.8357 42.6658H74.6016V45.0988H75.8357V42.6658Z" fill="#231F20"/>
<path d="M75.8357 46.333H74.6016V47.5671H75.8357V46.333Z" fill="#231F20"/>
<path d="M75.8357 48.7659H74.6016V50H75.8357V48.7659Z" fill="#231F20"/>
<path d="M77.0701 1.23413H75.8359V3.66714H77.0701V1.23413Z" fill="#231F20"/>
<path d="M77.0701 6.1001H75.8359V8.5331H77.0701V6.1001Z" fill="#231F20"/>
<path d="M77.0701 10.9663H75.8359V12.2004H77.0701V10.9663Z" fill="#231F20"/>
<path d="M77.0701 13.3992H75.8359V15.8322H77.0701V13.3992Z" fill="#231F20"/>
<path d="M77.0701 18.3003H75.8359V19.5344H77.0701V18.3003Z" fill="#231F20"/>
<path d="M77.0701 21.9321H75.8359V25.5993H77.0701V21.9321Z" fill="#231F20"/>
<path d="M77.0701 28.0325H75.8359V31.6996H77.0701V28.0325Z" fill="#231F20"/>
<path d="M77.0701 32.8984H75.8359V38.9986H77.0701V32.8984Z" fill="#231F20"/>
<path d="M77.0701 41.4316H75.8359V43.8646H77.0701V41.4316Z" fill="#231F20"/>
<path d="M78.2654 0H77.0312V1.23413H78.2654V0Z" fill="#231F20"/>
<path d="M78.2654 3.66699H77.0312V7.33413H78.2654V3.66699Z" fill="#231F20"/>
<path d="M78.2654 9.76709H77.0312V11.0012H78.2654V9.76709Z" fill="#231F20"/>
<path d="M78.2654 12.2002H77.0312V13.4343H78.2654V12.2002Z" fill="#231F20"/>
<path d="M78.2654 14.6333H77.0312V15.8674H78.2654V14.6333Z" fill="#231F20"/>
<path d="M78.2654 19.4993H77.0312V21.9323H78.2654V19.4993Z" fill="#231F20"/>
<path d="M78.2654 23.1665H77.0312V25.5995H78.2654V23.1665Z" fill="#231F20"/>
<path d="M78.2654 26.8335H77.0312V28.0676H78.2654V26.8335Z" fill="#231F20"/>
<path d="M78.2654 30.4653H77.0312V31.6995H78.2654V30.4653Z" fill="#231F20"/>
<path d="M78.2654 32.8984H77.0312V36.5656H78.2654V32.8984Z" fill="#231F20"/>
<path d="M78.2654 37.7998H77.0312V40.2328H78.2654V37.7998Z" fill="#231F20"/>
<path d="M78.2654 41.4316H77.0312V43.8646H78.2654V41.4316Z" fill="#231F20"/>
<path d="M78.2654 48.7659H77.0312V50H78.2654V48.7659Z" fill="#231F20"/>
<path d="M79.4998 0H78.2656V2.433H79.4998V0Z" fill="#231F20"/>
<path d="M79.4998 3.66724H78.2656V9.76738H79.4998V3.66724Z" fill="#231F20"/>
<path d="M79.4998 10.9661H78.2656V13.3991H79.4998V10.9661Z" fill="#231F20"/>
<path d="M79.4998 15.8323H78.2656V17.0664H79.4998V15.8323Z" fill="#231F20"/>
<path d="M79.4998 18.3005H78.2656V19.5347H79.4998V18.3005Z" fill="#231F20"/>
<path d="M79.4998 23.1665H78.2656V26.8336H79.4998V23.1665Z" fill="#231F20"/>
<path d="M79.4998 28.0325H78.2656V29.2666H79.4998V28.0325Z" fill="#231F20"/>
<path d="M79.4998 30.4653H78.2656V31.6995H79.4998V30.4653Z" fill="#231F20"/>
<path d="M79.4998 34.1326H78.2656V35.3667H79.4998V34.1326Z" fill="#231F20"/>
<path d="M79.4998 36.5657H78.2656V37.7998H79.4998V36.5657Z" fill="#231F20"/>
<path d="M79.4998 38.9985H78.2656V40.2327H79.4998V38.9985Z" fill="#231F20"/>
<path d="M79.4998 41.4316H78.2656V45.0988H79.4998V41.4316Z" fill="#231F20"/>
<path d="M79.4998 46.3328H78.2656V48.7658H79.4998V46.3328Z" fill="#231F20"/>
<path d="M80.699 1.23413H79.4648V3.66714H80.699V1.23413Z" fill="#231F20"/>
<path d="M80.699 4.86597H79.4648V6.1001H80.699V4.86597Z" fill="#231F20"/>
<path d="M80.699 8.5332H79.4648V12.2003H80.699V8.5332Z" fill="#231F20"/>
<path d="M80.699 14.6333H79.4648V15.8674H80.699V14.6333Z" fill="#231F20"/>
<path d="M80.699 18.3005H79.4648V19.5347H80.699V18.3005Z" fill="#231F20"/>
<path d="M80.699 20.7334H79.4648V21.9675H80.699V20.7334Z" fill="#231F20"/>
<path d="M80.699 24.3652H79.4648V25.5994H80.699V24.3652Z" fill="#231F20"/>
<path d="M80.699 26.8335H79.4648V30.5006H80.699V26.8335Z" fill="#231F20"/>
<path d="M80.699 31.6997H79.4648V32.9338H80.699V31.6997Z" fill="#231F20"/>
<path d="M80.699 35.3315H79.4648V40.1976H80.699V35.3315Z" fill="#231F20"/>
<path d="M80.699 43.8645H79.4648V46.2975H80.699V43.8645Z" fill="#231F20"/>
<path d="M80.699 47.5317H79.4648V48.7659H80.699V47.5317Z" fill="#231F20"/>
<path d="M81.9334 0H80.6992V2.433H81.9334V0Z" fill="#231F20"/>
<path d="M81.9334 4.86597H80.6992V9.73198H81.9334V4.86597Z" fill="#231F20"/>
<path d="M81.9334 14.6333H80.6992V17.0663H81.9334V14.6333Z" fill="#231F20"/>
<path d="M81.9334 19.4993H80.6992V23.1664H81.9334V19.4993Z" fill="#231F20"/>
<path d="M81.9334 24.3652H80.6992V26.7982H81.9334V24.3652Z" fill="#231F20"/>
<path d="M81.9334 29.2666H80.6992V31.6996H81.9334V29.2666Z" fill="#231F20"/>
<path d="M81.9334 32.8984H80.6992V36.5656H81.9334V32.8984Z" fill="#231F20"/>
<path d="M81.9334 38.9985H80.6992V40.2327H81.9334V38.9985Z" fill="#231F20"/>
<path d="M81.9334 41.4316H80.6992V42.6658H81.9334V41.4316Z" fill="#231F20"/>
<path d="M81.9334 43.8645H80.6992V46.2975H81.9334V43.8645Z" fill="#231F20"/>
<path d="M81.9334 47.5317H80.6992V48.7659H81.9334V47.5317Z" fill="#231F20"/>
<path d="M83.1326 0H81.8984V1.23413H83.1326V0Z" fill="#231F20"/>
<path d="M83.1326 2.43311H81.8984V4.86611H83.1326V2.43311Z" fill="#231F20"/>
<path d="M83.1326 9.76733H81.8984V12.2003H83.1326V9.76733Z" fill="#231F20"/>
<path d="M83.1326 14.6333H81.8984V15.8674H83.1326V14.6333Z" fill="#231F20"/>
<path d="M83.1326 17.0664H81.8984V18.3005H83.1326V17.0664Z" fill="#231F20"/>
<path d="M83.1326 21.9324H81.8984V24.3654H83.1326V21.9324Z" fill="#231F20"/>
<path d="M83.1326 25.5994H81.8984V26.8335H83.1326V25.5994Z" fill="#231F20"/>
<path d="M83.1326 30.4653H81.8984V32.8983H83.1326V30.4653Z" fill="#231F20"/>
<path d="M83.1326 34.1326H81.8984V35.3667H83.1326V34.1326Z" fill="#231F20"/>
<path d="M83.1326 37.7998H81.8984V39.0339H83.1326V37.7998Z" fill="#231F20"/>
<path d="M83.1326 45.0986H81.8984V47.5316H83.1326V45.0986Z" fill="#231F20"/>
<path d="M83.1326 48.7659H81.8984V50H83.1326V48.7659Z" fill="#231F20"/>
<path d="M84.3669 0H83.1328V2.433H84.3669V0Z" fill="#231F20"/>
<path d="M84.3669 3.66724H83.1328V4.90137H84.3669V3.66724Z" fill="#231F20"/>
<path d="M84.3669 6.1001H83.1328V9.76724H84.3669V6.1001Z" fill="#231F20"/>
<path d="M84.3669 10.9661H83.1328V14.6332H84.3669V10.9661Z" fill="#231F20"/>
<path d="M84.3669 18.3005H83.1328V20.7335H84.3669V18.3005Z" fill="#231F20"/>
<path d="M84.3669 21.9324H83.1328V23.1665H84.3669V21.9324Z" fill="#231F20"/>
<path d="M84.3669 26.8335H83.1328V28.0676H84.3669V26.8335Z" fill="#231F20"/>
<path d="M84.3669 30.4653H83.1328V31.6995H84.3669V30.4653Z" fill="#231F20"/>
<path d="M84.3669 34.1326H83.1328V36.5656H84.3669V34.1326Z" fill="#231F20"/>
<path d="M84.3669 40.2327H83.1328V41.4668H84.3669V40.2327Z" fill="#231F20"/>
<path d="M84.3669 43.8645H83.1328V45.0986H84.3669V43.8645Z" fill="#231F20"/>
<path d="M84.3669 46.3328H83.1328V47.5669H84.3669V46.3328Z" fill="#231F20"/>
<path d="M85.5662 4.86597H84.332V7.29897H85.5662V4.86597Z" fill="#231F20"/>
<path d="M85.5662 12.2002H84.332V14.6332H85.5662V12.2002Z" fill="#231F20"/>
<path d="M85.5662 15.8323H84.332V18.2653H85.5662V15.8323Z" fill="#231F20"/>
<path d="M85.5662 19.4993H84.332V20.7334H85.5662V19.4993Z" fill="#231F20"/>
<path d="M85.5662 21.9324H84.332V24.3654H85.5662V21.9324Z" fill="#231F20"/>
<path d="M85.5662 26.8335H84.332V31.6995H85.5662V26.8335Z" fill="#231F20"/>
<path d="M85.5662 37.7998H84.332V39.0339H85.5662V37.7998Z" fill="#231F20"/>
<path d="M85.5662 40.2327H84.332V45.0987H85.5662V40.2327Z" fill="#231F20"/>
<path d="M85.5662 48.7659H84.332V50H85.5662V48.7659Z" fill="#231F20"/>
<path d="M86.8005 1.23413H85.5664V2.46826H86.8005V1.23413Z" fill="#231F20"/>
<path d="M86.8005 6.1001H85.5664V12.2002H86.8005V6.1001Z" fill="#231F20"/>
<path d="M86.8005 13.3992H85.5664V18.2652H86.8005V13.3992Z" fill="#231F20"/>
<path d="M86.8005 19.4993H85.5664V20.7334H86.8005V19.4993Z" fill="#231F20"/>
<path d="M86.8005 21.9321H85.5664V23.1663H86.8005V21.9321Z" fill="#231F20"/>
<path d="M86.8005 26.8335H85.5664V30.5006H86.8005V26.8335Z" fill="#231F20"/>
<path d="M86.8005 32.8984H85.5664V35.3314H86.8005V32.8984Z" fill="#231F20"/>
<path d="M86.8005 36.5654H85.5664V37.7996H86.8005V36.5654Z" fill="#231F20"/>
<path d="M86.8005 41.4316H85.5664V42.6658H86.8005V41.4316Z" fill="#231F20"/>
<path d="M86.8005 48.7659H85.5664V50H86.8005V48.7659Z" fill="#231F20"/>
<path d="M88.0349 0H86.8008V1.23413H88.0349V0Z" fill="#231F20"/>
<path d="M88.0349 3.66699H86.8008V6.1H88.0349V3.66699Z" fill="#231F20"/>
<path d="M88.0349 8.5332H86.8008V9.76734H88.0349V8.5332Z" fill="#231F20"/>
<path d="M88.0349 12.2002H86.8008V14.6332H88.0349V12.2002Z" fill="#231F20"/>
<path d="M88.0349 15.832H86.8008V20.698H88.0349V15.832Z" fill="#231F20"/>
<path d="M88.0349 25.5994H86.8008V26.8335H88.0349V25.5994Z" fill="#231F20"/>
<path d="M88.0349 29.2666H86.8008V31.6996H88.0349V29.2666Z" fill="#231F20"/>
<path d="M88.0349 36.5654H86.8008V37.7996H88.0349V36.5654Z" fill="#231F20"/>
<path d="M88.0349 40.2327H86.8008V41.4668H88.0349V40.2327Z" fill="#231F20"/>
<path d="M88.0349 42.6658H86.8008V43.8999H88.0349V42.6658Z" fill="#231F20"/>
<path d="M88.0349 46.333H86.8008V48.766H88.0349V46.333Z" fill="#231F20"/>
<path d="M89.2341 7.29907H88V8.5332H89.2341V7.29907Z" fill="#231F20"/>
<path d="M89.2341 10.9661H88V13.3991H89.2341V10.9661Z" fill="#231F20"/>
<path d="M89.2341 15.8323H88V19.4994H89.2341V15.8323Z" fill="#231F20"/>
<path d="M89.2341 20.7334H88V24.4005H89.2341V20.7334Z" fill="#231F20"/>
<path d="M89.2341 25.5994H88V30.4654H89.2341V25.5994Z" fill="#231F20"/>
<path d="M89.2341 32.8984H88V34.1326H89.2341V32.8984Z" fill="#231F20"/>
<path d="M89.2341 35.3315H88V36.5657H89.2341V35.3315Z" fill="#231F20"/>
<path d="M89.2341 37.7998H88V45.0988H89.2341V37.7998Z" fill="#231F20"/>
<path d="M89.2341 46.3328H88V47.5669H89.2341V46.3328Z" fill="#231F20"/>
<path d="M89.2341 48.7659H88V50H89.2341V48.7659Z" fill="#231F20"/>
<path d="M90.4685 9.76709H89.2344V11.0012H90.4685V9.76709Z" fill="#231F20"/>
<path d="M90.4685 12.2002H89.2344V13.4343H90.4685V12.2002Z" fill="#231F20"/>
<path d="M90.4685 15.832H89.2344V18.265H90.4685V15.832Z" fill="#231F20"/>
<path d="M90.4685 21.9321H89.2344V25.5993H90.4685V21.9321Z" fill="#231F20"/>
<path d="M90.4685 26.8335H89.2344V29.2665H90.4685V26.8335Z" fill="#231F20"/>
<path d="M90.4685 32.8984H89.2344V35.3314H90.4685V32.8984Z" fill="#231F20"/>
<path d="M90.4685 36.5654H89.2344V37.7996H90.4685V36.5654Z" fill="#231F20"/>
<path d="M90.4685 38.9985H89.2344V40.2327H90.4685V38.9985Z" fill="#231F20"/>
<path d="M90.4685 43.8647H89.2344V45.0989H90.4685V43.8647Z" fill="#231F20"/>
<path d="M90.4685 46.333H89.2344V47.5671H90.4685V46.333Z" fill="#231F20"/>
<path d="M90.4685 48.7659H89.2344V50H90.4685V48.7659Z" fill="#231F20"/>
<path d="M91.6638 0H90.4297V8.53314H91.6638V0Z" fill="#231F20"/>
<path d="M91.6638 10.9663H90.4297V13.3993H91.6638V10.9663Z" fill="#231F20"/>
<path d="M91.6638 14.6333H90.4297V15.8674H91.6638V14.6333Z" fill="#231F20"/>
<path d="M91.6638 17.0664H90.4297V19.4994H91.6638V17.0664Z" fill="#231F20"/>
<path d="M91.6638 20.7334H90.4297V21.9675H91.6638V20.7334Z" fill="#231F20"/>
<path d="M91.6638 23.1665H90.4297V28.0325H91.6638V23.1665Z" fill="#231F20"/>
<path d="M91.6638 32.8984H90.4297V34.1326H91.6638V32.8984Z" fill="#231F20"/>
<path d="M91.6638 35.3315H90.4297V36.5657H91.6638V35.3315Z" fill="#231F20"/>
<path d="M91.6638 38.9985H90.4297V40.2327H91.6638V38.9985Z" fill="#231F20"/>
<path d="M91.6638 41.4316H90.4297V42.6658H91.6638V41.4316Z" fill="#231F20"/>
<path d="M91.6638 43.8647H90.4297V45.0989H91.6638V43.8647Z" fill="#231F20"/>
<path d="M91.6638 46.333H90.4297V47.5671H91.6638V46.333Z" fill="#231F20"/>
<path d="M92.8982 0H91.6641V1.23413H92.8982V0Z" fill="#231F20"/>
<path d="M92.8982 7.29883H91.6641V8.53296H92.8982V7.29883Z" fill="#231F20"/>
<path d="M92.8982 12.2002H91.6641V13.4343H92.8982V12.2002Z" fill="#231F20"/>
<path d="M92.8982 14.6333H91.6641V17.0663H92.8982V14.6333Z" fill="#231F20"/>
<path d="M92.8982 19.4993H91.6641V20.7334H92.8982V19.4993Z" fill="#231F20"/>
<path d="M92.8982 21.9321H91.6641V23.1663H92.8982V21.9321Z" fill="#231F20"/>
<path d="M92.8982 24.3652H91.6641V25.5994H92.8982V24.3652Z" fill="#231F20"/>
<path d="M92.8982 26.8335H91.6641V28.0676H92.8982V26.8335Z" fill="#231F20"/>
<path d="M92.8982 29.2666H91.6641V31.6996H92.8982V29.2666Z" fill="#231F20"/>
<path d="M92.8982 32.8984H91.6641V34.1326H92.8982V32.8984Z" fill="#231F20"/>
<path d="M92.8982 35.3315H91.6641V36.5657H92.8982V35.3315Z" fill="#231F20"/>
<path d="M92.8982 38.9985H91.6641V40.2327H92.8982V38.9985Z" fill="#231F20"/>
<path d="M92.8982 43.8647H91.6641V45.0989H92.8982V43.8647Z" fill="#231F20"/>
<path d="M94.0974 0H92.8633V1.23413H94.0974V0Z" fill="#231F20"/>
<path d="M94.0974 2.43311H92.8633V6.10024H94.0974V2.43311Z" fill="#231F20"/>
<path d="M94.0974 7.29907H92.8633V8.5332H94.0974V7.29907Z" fill="#231F20"/>
<path d="M94.0974 9.76733H92.8633V11.0015H94.0974V9.76733Z" fill="#231F20"/>
<path d="M94.0974 14.6333H92.8633V18.3004H94.0974V14.6333Z" fill="#231F20"/>
<path d="M94.0974 19.4993H92.8633V20.7334H94.0974V19.4993Z" fill="#231F20"/>
<path d="M94.0974 24.3652H92.8633V25.5994H94.0974V24.3652Z" fill="#231F20"/>
<path d="M94.0974 26.8335H92.8633V28.0676H94.0974V26.8335Z" fill="#231F20"/>
<path d="M94.0974 29.2666H92.8633V30.5007H94.0974V29.2666Z" fill="#231F20"/>
<path d="M94.0974 31.6997H92.8633V32.9338H94.0974V31.6997Z" fill="#231F20"/>
<path d="M94.0974 34.1326H92.8633V37.7997H94.0974V34.1326Z" fill="#231F20"/>
<path d="M94.0974 38.9985H92.8633V45.0987H94.0974V38.9985Z" fill="#231F20"/>
<path d="M94.0974 46.3328H92.8633V48.7658H94.0974V46.3328Z" fill="#231F20"/>
<path d="M95.3318 0H94.0977V1.23413H95.3318V0Z" fill="#231F20"/>
<path d="M95.3318 2.43311H94.0977V6.10024H95.3318V2.43311Z" fill="#231F20"/>
<path d="M95.3318 7.29907H94.0977V8.5332H95.3318V7.29907Z" fill="#231F20"/>
<path d="M95.3318 12.2002H94.0977V13.4343H95.3318V12.2002Z" fill="#231F20"/>
<path d="M95.3318 15.8323H94.0977V17.0664H95.3318V15.8323Z" fill="#231F20"/>
<path d="M95.3318 18.3005H94.0977V21.9677H95.3318V18.3005Z" fill="#231F20"/>
<path d="M95.3318 23.1665H94.0977V24.4006H95.3318V23.1665Z" fill="#231F20"/>
<path d="M95.3318 26.8335H94.0977V28.0676H95.3318V26.8335Z" fill="#231F20"/>
<path d="M95.3318 30.4653H94.0977V32.8983H95.3318V30.4653Z" fill="#231F20"/>
<path d="M95.3318 37.7998H94.0977V39.0339H95.3318V37.7998Z" fill="#231F20"/>
<path d="M95.3318 40.2327H94.0977V41.4668H95.3318V40.2327Z" fill="#231F20"/>
<path d="M95.3318 45.0986H94.0977V46.3328H95.3318V45.0986Z" fill="#231F20"/>
<path d="M95.3318 47.5317H94.0977V49.9647H95.3318V47.5317Z" fill="#231F20"/>
<path d="M96.5662 0H95.332V1.23413H96.5662V0Z" fill="#231F20"/>
<path d="M96.5662 2.43311H95.332V6.10024H96.5662V2.43311Z" fill="#231F20"/>
<path d="M96.5662 7.29907H95.332V8.5332H96.5662V7.29907Z" fill="#231F20"/>
<path d="M96.5662 9.76733H95.332V11.0015H96.5662V9.76733Z" fill="#231F20"/>
<path d="M96.5662 12.2002H95.332V15.8673H96.5662V12.2002Z" fill="#231F20"/>
<path d="M96.5662 18.3005H95.332V24.4007H96.5662V18.3005Z" fill="#231F20"/>
<path d="M96.5662 29.2666H95.332V30.5007H96.5662V29.2666Z" fill="#231F20"/>
<path d="M96.5662 31.6997H95.332V32.9338H96.5662V31.6997Z" fill="#231F20"/>
<path d="M96.5662 34.1326H95.332V36.5656H96.5662V34.1326Z" fill="#231F20"/>
<path d="M96.5662 41.4316H95.332V42.6658H96.5662V41.4316Z" fill="#231F20"/>
<path d="M96.5662 43.8645H95.332V45.0986H96.5662V43.8645Z" fill="#231F20"/>
<path d="M96.5662 46.3328H95.332V47.5669H96.5662V46.3328Z" fill="#231F20"/>
<path d="M96.5662 48.7659H95.332V50H96.5662V48.7659Z" fill="#231F20"/>
<path d="M97.7654 0H96.5312V1.23413H97.7654V0Z" fill="#231F20"/>
<path d="M97.7654 7.29907H96.5312V8.5332H97.7654V7.29907Z" fill="#231F20"/>
<path d="M97.7654 9.76733H96.5312V12.2003H97.7654V9.76733Z" fill="#231F20"/>
<path d="M97.7654 13.3992H96.5312V19.4993H97.7654V13.3992Z" fill="#231F20"/>
<path d="M97.7654 20.7334H96.5312V21.9675H97.7654V20.7334Z" fill="#231F20"/>
<path d="M97.7654 23.1665H96.5312V29.2666H97.7654V23.1665Z" fill="#231F20"/>
<path d="M97.7654 30.4653H96.5312V31.6995H97.7654V30.4653Z" fill="#231F20"/>
<path d="M97.7654 34.1326H96.5312V37.7997H97.7654V34.1326Z" fill="#231F20"/>
<path d="M97.7654 38.9985H96.5312V41.4315H97.7654V38.9985Z" fill="#231F20"/>
<path d="M97.7654 42.6658H96.5312V45.0988H97.7654V42.6658Z" fill="#231F20"/>
<path d="M97.7654 46.3328H96.5312V47.5669H97.7654V46.3328Z" fill="#231F20"/>
<path d="M97.7654 48.7659H96.5312V50H97.7654V48.7659Z" fill="#231F20"/>
<path d="M98.9998 0H97.7656V8.53314H98.9998V0Z" fill="#231F20"/>
<path d="M98.9998 9.76733H97.7656V13.4345H98.9998V9.76733Z" fill="#231F20"/>
<path d="M98.9998 17.0664H97.7656V21.9324H98.9998V17.0664Z" fill="#231F20"/>
<path d="M98.9998 34.1326H97.7656V38.9986H98.9998V34.1326Z" fill="#231F20"/>
<path d="M98.9998 40.2327H97.7656V41.4668H98.9998V40.2327Z" fill="#231F20"/>
<path d="M98.9998 42.6658H97.7656V43.8999H98.9998V42.6658Z" fill="#231F20"/>
<path d="M98.9998 46.3328H97.7656V47.5669H98.9998V46.3328Z" fill="#231F20"/>
</g>
<defs>
<clipPath id="clip0">
<rect width="148" height="50" fill="white"/>
</clipPath>
</defs>
</svg>
