<svg width="148" height="50" viewBox="0 0 148 50" fill="none" xmlns="http://www.w3.org/2000/svg">
<path fill-rule="evenodd" clip-rule="evenodd" d="M51.5324 0H0V50H50.6248H51.6333H148V0H51.5324ZM146.588 48.6922H51.9358V1.40845H146.588V48.6922Z" fill="#E2BFBC"/>
<path d="M37.0071 25.8561H38.7215V29.0754L39.3266 28.673L41.646 25.8561H43.5621L40.6376 29.2766L43.7638 33.0995H41.7469L39.3266 30.2826L38.6206 30.6851V33.0995H36.9062V25.8561H37.0071Z" fill="#923336"/>
<path d="M46.5855 27.163V32.998H44.8711V25.7545H49.51V27.0624L46.5855 27.163Z" fill="#923336"/>
<path d="M88.8131 22.0324H86.2919V14.3865H86.1911L82.964 22.0324H80.4428L77.2158 14.3865H77.1149V22.0324H74.5938V10.8654H78.0225L81.653 19.5173H81.7538L85.3843 10.8654H88.8131V22.0324Z" fill="#E2BFBC"/>
<path d="M98.2939 10.8654L102.328 22.0324H99.6049L98.7982 19.8191H94.1592L93.3525 22.133H90.7305L94.7643 10.966L98.2939 10.8654ZM96.4787 12.7768L94.7643 18.0082H98.1931L96.4787 12.7768Z" fill="#E2BFBC"/>
<path d="M112.107 13.984C112.107 13.984 109.888 12.7768 109.081 12.7768C106.661 12.7768 105.653 14.2858 105.653 16.4991C105.653 18.7124 106.863 20.1208 108.98 20.1208C111.3 20.1208 112.712 18.5112 112.712 18.5112L113.72 19.819C113.72 19.819 112.51 22.2335 108.88 22.2335C104.846 22.2335 102.93 19.819 102.93 16.3985C102.93 12.8774 105.047 10.4629 108.88 10.4629C112.006 10.4629 113.115 12.1731 113.115 12.1731L112.107 13.984Z" fill="#E2BFBC"/>
<path d="M121.688 10.8654L125.722 22.0324H122.999L122.091 19.7185H117.452L116.645 22.0324H114.023L118.057 10.8654H121.688ZM119.973 12.7768L118.259 18.0082H121.688L119.973 12.7768Z" fill="#E2BFBC"/>
<path d="M84.5775 37.6257H81.9555V32.998H77.2158V37.6257H74.5938V26.4587H77.2158V30.9859H81.9555V26.4587H84.5775V37.6257Z" fill="#E2BFBC"/>
<path d="M95.6693 37.6257H87.6016V26.4587H95.3667V28.5714H90.2236V30.9859H94.7616V32.998H90.2236V35.5131H95.6693V37.6257Z" fill="#E2BFBC"/>
<path d="M105.554 28.5714H102.428V37.6257H99.8059V28.5714H96.6797V26.4587H105.554C105.554 26.4587 105.554 28.5714 105.554 28.5714Z" fill="#E2BFBC"/>
<path d="M115.238 28.5714H112.112V37.6257H109.49V28.5714H106.363V26.4587H115.238C115.238 26.4587 115.238 28.5714 115.238 28.5714Z" fill="#E2BFBC"/>
<path d="M121.997 38.0281C118.165 38.0281 116.047 35.6136 116.047 32.0925C116.047 28.5713 118.165 26.1569 121.997 26.1569C125.829 26.1569 127.947 28.5713 127.947 32.0925C127.947 35.6136 125.829 38.0281 121.997 38.0281ZM121.997 28.3701C119.879 28.3701 118.77 29.8792 118.77 32.0925C118.77 34.3058 119.879 35.8148 121.997 35.8148C124.115 35.8148 125.224 34.3058 125.224 32.0925C125.325 29.8792 124.115 28.3701 121.997 28.3701Z" fill="#E2BFBC"/>
<path d="M4.03516 21.126C5.6487 21.126 6.05208 20.3212 6.35462 19.4158H7.76647V32.796H5.6487V22.5345H4.03516V21.126Z" fill="#923336"/>
<path d="M13.4153 21.1268C12.7094 21.1268 12.306 21.5292 12.306 22.4346V23.8431H10.2891V22.6358C10.2891 20.5232 11.3984 19.3159 13.4153 19.3159C15.5331 19.3159 16.5415 20.5232 16.5415 22.6358C16.5415 26.8612 12.306 28.3702 12.306 30.5835C12.306 30.6841 12.306 30.7847 12.306 30.8853H16.3398V32.7968H10.2891V31.1871C10.2891 27.2636 14.4238 26.5594 14.4238 22.7364C14.5246 21.5292 14.1212 21.1268 13.4153 21.1268Z" fill="#923336"/>
<path d="M17.957 32.7969V30.7848H19.974V32.5957L19.0663 34.7083H18.1587L18.7638 32.7969H17.957Z" fill="#923336"/>
<path d="M24.6106 21.1268C23.9047 21.1268 23.5013 21.5292 23.5013 22.4346V23.8431H21.4844V22.6358C21.4844 20.5232 22.5937 19.3159 24.6106 19.3159C26.7284 19.3159 27.7368 20.5232 27.7368 22.6358C27.7368 26.8612 23.5013 28.3702 23.5013 30.5835C23.5013 30.6841 23.5013 30.7847 23.5013 30.8853H27.5352V32.7968H21.4844V31.1871C21.4844 27.2636 25.6191 26.5594 25.6191 22.7364C25.7199 21.5292 25.2157 21.1268 24.6106 21.1268Z" fill="#923336"/>
<path d="M28.6406 28.4707L32.4728 19.4164H34.7922V28.4707H35.8007V30.3822H34.7922V32.7967H32.6745V30.3822H28.6406C28.6406 30.3822 28.6406 28.4707 28.6406 28.4707ZM32.6745 28.4707V23.4405L30.5567 28.4707H32.6745Z" fill="#923336"/>
</svg>
