<svg width="50" height="50" viewBox="0 0 50 50" fill="none" xmlns="http://www.w3.org/2000/svg">
<path d="M25.1581 24.7001L24.0642 24.0649C21.7706 32.71 16.513 38.9556 9.77344 44.8836H11.0437C17.7833 38.9203 22.8645 33.3451 25.1581 24.7001Z" fill="#E2BFBC"/>
<path d="M28.864 26.7819L27.7702 26.1115C25.0532 33.1686 20.1837 39.2378 13.7617 44.7776H15.032C21.4893 39.2378 26.147 33.8038 28.864 26.7819Z" fill="#E2BFBC"/>
<path d="M21.9112 23.2533L20.8173 22.6182C17.9239 32.11 13.0191 38.8849 5.67969 44.7424H6.91469C14.2894 38.8849 19.0177 32.7452 21.9112 23.2533Z" fill="#E2BFBC"/>
<path d="M32.6737 28.4757L31.5798 27.8406C27.9101 34.5802 23.8169 40.0142 17.2891 44.7425H18.5594C25.0519 40.0142 29.004 35.18 32.6737 28.4757Z" fill="#E2BFBC"/>
<path d="M0 50H50V0H0V50ZM1.41143 1.41143H36.8031L30.5928 15.1729L25.5469 12.8088L21.8772 20.2188L37.0854 27.9464L41.0727 20.1835L36.415 17.8546L44.2837 1.41143H48.5886V48.4474H1.41143V1.41143Z" fill="#E2BFBC"/>
<path d="M21.1367 44.813H22.407C28.2997 40.6492 32.7105 36.0974 36.239 30.0282L35.1452 29.3931C31.5813 35.4622 27.0295 40.6492 21.1367 44.813Z" fill="#E2BFBC"/>
</svg>
