<svg width="50" height="50" viewBox="0 0 50 50" fill="none" xmlns="http://www.w3.org/2000/svg">
<path d="M14.9631 22.336H16.0217V24.8413L3.74219 18.7368V19.372L14.9631 24.4531L3.74219 21.7361V22.5477L14.8572 24.7001L3.74219 24.4884V25.2647L14.8219 24.9118L3.74219 27.5936V28.2993L15.0336 25.0883L3.74219 30.6634V31.5456L16.0217 24.8765V27.5583H15.1748L15.0689 29.5343H19.3385V20.3952H14.9278L14.9631 22.336Z" fill="#E2BFBC"/>
<path d="M44.3902 22.7242C43.1905 22.5124 43.2963 21.7362 43.2963 21.7362C43.2963 21.7362 37.2624 21.842 36.345 21.6303C35.2512 21.4892 35.9922 19.9366 36.2039 19.866C37.0154 19.6896 38.0387 19.9013 38.8503 19.7249V18.384H35.6746C34.5807 18.2429 28.7939 21.7362 29.5701 21.8067H26.9237C26.7473 21.4186 26.7473 20.7834 27.0296 20.2189C26.959 18.2429 33.1693 17.7841 33.9456 16.8314C35.851 12.456 38.1799 8.00997 40.0853 3.63453C35.1453 3.63453 30.2759 3.59924 25.3711 3.59924C24.0656 6.31625 22.76 9.24497 21.4544 11.9973C22.5835 14.2203 24.5948 16.5844 24.8066 18.384C25.0183 19.4073 24.6654 19.2661 24.7007 19.9013C24.4537 20.5364 24.1361 21.4539 23.6421 21.8773H21.6661V20.4659H20.043V29.6049H21.6661V27.4525H23.1128C23.995 28.5816 24.242 29.0403 24.242 29.0403C24.9477 29.0403 25.6534 29.0403 26.3591 29.0403C26.3238 32.2513 26.3944 35.4623 26.3591 38.6733C25.6534 39.3438 24.8418 40.0142 24.1008 40.6846C24.3478 40.9669 24.6301 41.2845 24.8771 41.5668C25.9004 40.5788 26.8884 39.6261 27.9117 38.6381C27.947 36.9091 27.8764 35.2153 27.9117 33.4863C28.5821 33.4863 29.3584 33.4863 30.0289 33.4863C31.5109 38.0735 33.2399 42.0961 34.7219 46.7185C38.074 46.5774 41.0027 46.7538 44.3549 46.6479C44.3549 46.6479 40.1912 35.0742 39.2737 34.5096C38.7797 32.4983 38.8503 31.2633 39.309 30.5223C39.5913 29.8519 43.1199 30.0989 43.1199 30.0989C43.1552 29.3932 43.1552 28.6875 43.1905 27.9817C44.1432 27.8759 45.484 28.0523 46.4368 27.9112C46.4015 26.1469 46.3662 24.3473 46.4368 22.6183L44.3902 22.7242ZM27.947 32.3572C27.9117 31.228 27.9823 30.2048 27.947 29.0756C27.947 29.0756 28.5116 29.005 29.182 29.3579C29.8524 29.6755 29.8524 32.3219 29.8524 32.3219C29.2173 32.3925 28.5821 32.3219 27.947 32.3572Z" fill="#E2BFBC"/>
<path d="M0 50H50V0H0V50ZM1.41143 1.41143H48.5886V48.5886H1.41143V1.41143Z" fill="#E2BFBC"/>
</svg>
