<svg width="50" height="50" viewBox="0 0 50 50" fill="none" xmlns="http://www.w3.org/2000/svg">
<path d="M0 50H50V0H0V50ZM1.41143 1.41143H48.5886V48.5886H20.4305L32.216 42.5547L11.7502 26.9584L1.41143 31.6867V1.41143Z" fill="#E2BFBC"/>
<path d="M31.4388 39.8024C32.4974 40.6845 33.8735 41.2138 35.3555 41.2138C38.743 41.2138 41.4953 38.4615 41.4953 35.0741C41.4953 33.6979 41.0366 32.3923 40.225 31.369L42.0951 29.1108L36.3788 16.6901C40.0838 12.2441 43.6124 7.79812 47.3174 3.35211C48.0232 1.72896 47.0352 1.1291 45.906 1.6231L33.7677 16.549L39.978 28.652C39.5898 29.0755 39.2017 29.4989 38.8136 29.9576L20.9236 16.4431C19.8651 15.561 18.4889 15.0317 17.0069 15.0317C13.6195 15.0317 10.8672 17.784 10.8672 21.1714C10.8672 22.971 11.6435 24.5942 12.8785 25.7233L31.4388 39.8024ZM36.273 36.2032L39.8368 31.9336C40.472 32.8158 40.8601 33.9096 40.8601 35.1093C40.8601 38.1439 38.4254 40.5786 35.3908 40.5786C32.3563 40.5786 29.9215 38.1086 29.9215 35.1093C29.9215 32.11 32.3563 29.64 35.3908 29.64C36.4847 29.64 37.508 29.9576 38.3548 30.5222C37.0846 31.9689 35.779 33.4862 34.544 34.8623C34.2617 36.3091 34.791 36.4855 36.273 36.2032ZM17.0069 15.7374C18.2772 15.7374 19.4416 16.1609 20.3944 16.9019L36.3788 29.0402C36.0613 28.9696 35.7084 28.9696 35.3908 28.9696C32.0034 28.9696 29.2158 31.7219 29.2158 35.1093C29.2158 36.0621 29.4275 36.9089 29.7804 37.7205L13.1961 25.194C12.1728 24.206 11.5023 22.7946 11.5023 21.242C11.5376 18.1721 13.9723 15.7374 17.0069 15.7374Z" fill="#E2BFBC"/>
</svg>
