<svg width="148" height="50" viewBox="0 0 148 50" fill="none" xmlns="http://www.w3.org/2000/svg">
<path d="M1.7 49.3V0.7H147.3V49.3H1.7Z" stroke="#E2BFBC" stroke-width="1.4"/>
<path d="M85.1818 0H62V50H85.1818V0Z" fill="#E2BFBC"/>
<path d="M73.1829 27.0803C73.1829 28.5739 72.5206 29.3919 71.0914 29.3919C69.732 29.3919 69.0349 28.5739 69.0349 27.1515V26.9381H70.3246V27.2581C70.3246 27.8983 70.6034 28.1472 71.0217 28.1472C71.5097 28.1472 71.7886 27.8983 71.7886 27.0448V25.4089C71.5446 25.9068 71.1263 26.1913 70.5337 26.1913C69.5229 26.1913 69 25.48 69 24.1642V22.5284C69 21.1059 69.732 20.288 71.0914 20.288C72.4509 20.288 73.1829 21.1059 73.1829 22.5284V27.0803ZM71.8234 24.022V22.4217C71.8234 21.7816 71.5446 21.5682 71.1263 21.5682C70.6732 21.5682 70.4292 21.7816 70.4292 22.4217V24.022C70.4292 24.6621 70.708 24.911 71.1263 24.911C71.5446 24.911 71.8234 24.6621 71.8234 24.022Z" fill="#923336"/>
<path d="M78.6541 29.2853H77.2598L77.0158 27.685H75.3426L75.0986 29.2853H73.8438L75.238 20.3948H77.2598L78.6541 29.2853ZM75.5169 26.4403H76.8415L76.1792 21.9239L75.5169 26.4403Z" fill="#923336"/>
</svg>
