<svg width="148" height="50" viewBox="0 0 148 50" fill="none" xmlns="http://www.w3.org/2000/svg">
<path d="M82.0888 12.0544H84.0733C85.5355 12.0544 86.0578 12.7882 86.0578 13.522C86.0578 14.0461 85.7444 14.3605 85.4311 14.675C86.0578 14.8846 86.3711 15.3039 86.3711 15.9329C86.3711 16.8763 85.7444 17.61 84.0733 17.61H81.9844L82.0888 12.0544ZM84.2822 14.3605C84.5955 14.3605 84.9089 14.1509 84.9089 13.7316C84.9089 13.3123 84.5955 13.1027 83.9689 13.1027H83.1333V14.4653H84.2822V14.3605ZM83.2377 15.0943V16.5618H84.0733C84.8044 16.5618 85.1178 16.2473 85.1178 15.828C85.1178 15.4087 84.8044 15.0943 84.2822 15.0943H83.2377Z" fill="#E2BFBC"/>
<path d="M92.5368 17.61H91.2835V14.4653V13.9412L88.7768 17.4004L88.6723 17.61H87.5234V12.0544H88.7768V15.1991V15.7232L91.2835 12.2641L91.3879 12.1593H92.5368V17.61Z" fill="#E2BFBC"/>
<path d="M97.6495 13.1027H96.1872V17.61H94.8294V13.1027H93.3672V12.0544H97.7539L97.6495 13.1027Z" fill="#E2BFBC"/>
<path d="M98.4873 12.0544H100.367C101.83 12.0544 102.561 12.6834 102.561 13.9412C102.561 15.3039 101.412 15.9329 100.367 15.9329H99.6362V17.61H98.3828L98.4873 12.0544ZM99.7406 12.9978V14.8846H100.158C100.785 14.8846 101.307 14.675 101.307 13.9412C101.307 13.2075 100.785 12.9978 100.158 12.9978H99.7406Z" fill="#E2BFBC"/>
<path d="M106.428 12.0544L108.412 17.61H107.055L106.637 16.457H104.444L104.026 17.61H102.668L104.652 12.0544H106.428ZM105.592 12.9978L104.757 15.6184H106.428L105.592 12.9978Z" fill="#E2BFBC"/>
<path d="M112.485 13.1027H111.023V17.61H109.665V13.1027H108.203V12.0544H112.59L112.485 13.1027Z" fill="#E2BFBC"/>
<path d="M116.032 12.0544L118.017 17.61H116.659L116.241 16.457H113.944L113.526 17.61H112.168L114.152 12.0544H116.032ZM115.092 12.9978L114.257 15.6184H115.928L115.092 12.9978Z" fill="#E2BFBC"/>
<path d="M72.2714 22.8511C72.2714 22.8511 72.8981 22.1173 74.2559 22.1173C75.7181 22.1173 76.3448 22.7462 76.3448 23.6896C76.3448 24.3186 76.0315 24.633 75.6137 24.9475C76.1359 25.1571 76.5537 25.5764 76.5537 26.2054C76.5537 27.2536 75.7181 27.9873 74.1514 27.9873C72.3758 27.9873 72.0625 26.9391 72.0625 26.9391L72.6892 26.2054C72.6892 26.2054 73.107 26.8343 74.047 26.8343C74.7781 26.8343 75.1959 26.6246 75.1959 26.1005C75.1959 25.5764 74.7781 25.3668 74.2559 25.3668H73.3158V24.4234H74.3603C74.6736 24.4234 75.1959 24.2137 75.1959 23.6896C75.1959 23.2703 74.8825 22.9559 74.1514 22.9559C73.2114 22.9559 72.7936 23.48 72.7936 23.48L72.2714 22.8511Z" fill="#E2BFBC"/>
<path d="M82.5045 25.2619L83.6534 22.3269H85.0112L83.1311 26.3101C82.5045 27.6728 81.7734 27.9872 81.0422 27.9872C80.4156 27.9872 80.2067 27.8824 80.2067 27.8824V26.939C80.2067 26.939 80.4156 27.0438 80.8333 27.0438C81.1467 27.0438 81.46 26.939 81.6689 26.5197L79.3711 22.222H80.8333L82.5045 25.2619Z" fill="#E2BFBC"/>
<path d="M90.5477 27.7776H89.2944V23.2703H87.101V27.7776H85.8477V22.222H90.6522V27.7776H90.5477Z" fill="#E2BFBC"/>
<path d="M95.2473 22.222L97.2318 27.7776H95.874L95.4562 26.6246H93.1584L92.7406 27.7776H91.3828L93.3673 22.222H95.2473ZM94.3073 23.1654L93.4717 25.786H95.1429L94.3073 23.1654Z" fill="#E2BFBC"/>
<path d="M98.1758 22.222H99.4291V24.6329L99.9514 24.3185L101.727 22.222H103.189L100.996 24.8426L103.398 27.7776H101.831L100.056 25.5763L99.5336 25.8908V27.7776H98.1758V22.222Z" fill="#E2BFBC"/>
<path d="M106.428 27.8826C104.548 27.8826 103.504 26.7296 103.504 24.9476C103.504 23.1656 104.548 22.0126 106.428 22.0126C108.308 22.0126 109.353 23.1656 109.353 24.9476C109.353 26.7296 108.308 27.8826 106.428 27.8826ZM106.428 23.1656C105.384 23.1656 104.862 23.8994 104.862 24.9476C104.862 25.9958 105.384 26.7296 106.428 26.7296C107.473 26.7296 107.995 25.9958 107.995 24.9476C107.995 23.8994 107.473 23.1656 106.428 23.1656Z" fill="#E2BFBC"/>
<path d="M110.397 22.222H112.382C113.844 22.222 114.366 22.9558 114.366 23.6896C114.366 24.2137 114.053 24.5281 113.74 24.8426C114.366 25.0522 114.68 25.4715 114.68 26.1004C114.68 27.0438 114.053 27.7776 112.382 27.7776H110.293L110.397 22.222ZM112.591 24.5281C112.904 24.5281 113.217 24.3185 113.217 23.8992C113.217 23.4799 112.904 23.2703 112.277 23.2703H111.442V24.6329H112.591V24.5281ZM111.546 25.3667V26.8342H112.382C113.113 26.8342 113.426 26.5197 113.426 26.1004C113.426 25.6812 113.113 25.3667 112.591 25.3667H111.546Z" fill="#E2BFBC"/>
<path d="M115.824 22.222H117.078V24.6329L117.6 24.3185L119.375 22.222H120.838L118.644 24.8426L121.047 27.7776H119.48L117.704 25.5763L117.182 25.8908V27.7776H115.929V22.222H115.824Z" fill="#E2BFBC"/>
<path d="M126.795 27.7776H125.541V24.7378V24.2137L123.035 27.6728L122.93 27.7776H121.781V22.222H123.035V25.3667V25.8908L125.541 22.4317L125.646 22.3269H126.795V27.7776Z" fill="#E2BFBC"/>
<path d="M83.5537 32.3899H85.5381C87.0004 32.3899 87.5226 33.1236 87.5226 33.8574C87.5226 34.3815 87.2093 34.696 86.8959 35.0104C87.5226 35.2201 87.8359 35.6394 87.8359 36.2683C87.8359 37.2117 87.2093 37.9455 85.5381 37.9455H83.4492L83.5537 32.3899ZM85.6426 34.8008C85.9559 34.8008 86.2693 34.5912 86.2693 34.1719C86.2693 33.7526 85.9559 33.5429 85.3292 33.5429H84.4937V34.9056H85.6426V34.8008ZM84.7026 35.5345V37.0021H85.5381C86.2693 37.0021 86.5826 36.6876 86.5826 36.2683C86.5826 35.849 86.2693 35.5345 85.747 35.5345H84.7026Z" fill="#E2BFBC"/>
<path d="M93.6815 37.9455H92.4281V34.067C92.1148 34.2767 91.5925 34.4863 91.1748 34.4863L91.0703 33.5429C91.697 33.4381 92.4281 32.914 92.5326 32.3899H93.7859V37.9455H93.6815Z" fill="#E2BFBC"/>
<path d="M101.931 36.8972H103.497V32.3899H104.751V37.9455H97.6484V32.3899H98.9018V36.8972H100.468V32.3899H101.826V36.8972H101.931Z" fill="#E2BFBC"/>
<path d="M109.454 32.3899L111.439 37.9455H110.081L109.663 36.7924H107.365L106.948 37.9455H105.59L107.574 32.3899H109.454ZM108.619 33.3333L107.783 35.9538H109.454L108.619 33.3333Z" fill="#E2BFBC"/>
<path d="M112.378 32.3899H114.258C115.72 32.3899 116.451 33.0188 116.451 34.2767C116.451 35.6394 115.302 36.2683 114.258 36.2683H113.527V37.9455H112.273L112.378 32.3899ZM113.631 33.4381V35.3249H114.049C114.676 35.3249 115.198 35.1153 115.198 34.3815C115.198 33.6478 114.676 33.4381 114.049 33.4381H113.631Z" fill="#E2BFBC"/>
<path d="M50.2385 0H0V50H50.2385H148V0H50.2385ZM146.747 48.6373H51.5963V1.36269H146.747V48.6373Z" fill="#E2BFBC"/>
<path d="M24.8552 40.0419L25.7952 33.9623H27.6752V42.4528H26.4219V36.3732L25.4819 42.4528H24.2285L23.1841 36.478V42.4528H22.0352V33.9623H23.9152L24.8552 40.0419Z" fill="#923336"/>
<path d="M29.8705 34.0671C29.6616 34.0671 29.4528 34.1719 29.4528 34.5912V35.1153H28.7216V34.5912C28.7216 33.7527 29.1394 33.3334 29.8705 33.3334C30.6017 33.3334 31.0194 33.7527 31.0194 34.5912C31.0194 36.1636 29.4528 36.6877 29.4528 37.5262V37.6311H30.915V38.3648H28.6172V37.7359C28.6172 36.2684 30.1839 36.0587 30.1839 34.5912C30.2883 34.1719 30.0794 34.0671 29.8705 34.0671Z" fill="#923336"/>
<path d="M9.81641 12.0547C12.2187 12.0547 12.7409 10.9017 13.1587 9.6438H15.2476V29.1406H12.2187V14.256H9.81641V12.0547Z" fill="#923336"/>
<path d="M18.9023 14.256C18.9023 11.1113 20.5735 9.32935 23.498 9.32935C26.5269 9.32935 28.0936 11.1113 28.0936 14.256V24.4237C28.0936 27.5683 26.4225 29.3503 23.498 29.3503C20.469 29.3503 18.9023 27.5683 18.9023 24.4237V14.256ZM22.0357 24.6333C22.0357 25.996 22.6624 26.5201 23.6024 26.5201C24.5424 26.5201 25.1691 25.996 25.1691 24.6333V14.1511C25.1691 12.7885 24.5424 12.2644 23.6024 12.2644C22.6624 12.2644 22.0357 12.7885 22.0357 14.1511V24.6333Z" fill="#923336"/>
<path d="M34.8787 29.3503C31.8498 29.3503 30.0742 27.5683 30.0742 24.4237V22.8514C30.0742 20.9646 30.5965 19.4971 31.9542 18.7633C30.7009 18.0296 30.0742 16.7717 30.0742 14.8849V14.256C30.0742 11.1113 31.7454 9.32935 34.8787 9.32935C37.9077 9.32935 39.6833 11.1113 39.6833 14.256V14.8849C39.6833 16.7717 39.0566 18.1344 37.8032 18.7633C39.161 19.4971 39.6833 20.9646 39.6833 22.8514V24.4237C39.5788 27.5683 37.9077 29.3503 34.8787 29.3503ZM33.1032 15.5138C33.1032 17.0862 33.8343 17.6103 34.7743 17.6103C35.7143 17.6103 36.4454 17.0862 36.4454 15.5138V14.4656C36.4454 12.6836 35.7143 12.2644 34.7743 12.2644C33.8343 12.2644 33.1032 12.7885 33.1032 14.4656V15.5138ZM34.8787 26.5201C35.8188 26.5201 36.5499 25.996 36.5499 24.3189V22.5369C36.5499 20.9646 35.9232 20.3356 34.8787 20.3356C33.8343 20.3356 33.2076 20.9646 33.2076 22.5369V24.3189C33.1032 26.1008 33.8343 26.5201 34.8787 26.5201Z" fill="#923336"/>
</svg>
