<svg width="148" height="50" viewBox="0 0 148 50" fill="none" xmlns="http://www.w3.org/2000/svg">
<path fill-rule="evenodd" clip-rule="evenodd" d="M51.5324 0H50.524H0V50H50.6248H51.6333H148V0H51.5324ZM146.588 48.6922H51.9358V1.40845H146.588V48.6922Z" fill="#E2BFBC"/>
<path d="M37.0092 27.5654V34.8089H35.2948V28.9739H33.3787C33.3787 33.2998 32.4711 35.0101 30.9584 35.0101C30.3533 35.0101 30.0508 34.8089 30.0508 34.8089L30.1516 33.4004C30.1516 33.4004 30.2525 33.501 30.555 33.501C31.5635 33.501 31.866 32.2938 31.866 27.5654C31.866 27.5654 37.0092 27.5654 37.0092 27.5654Z" fill="#923336"/>
<path d="M78.532 31.4889C74.6998 31.4889 72.582 29.0744 72.582 25.5533C72.582 22.0322 74.6998 19.6177 78.532 19.6177C82.3641 19.6177 84.4819 22.0322 84.4819 25.5533C84.4819 29.0744 82.465 31.4889 78.532 31.4889ZM78.532 21.9316C76.4142 21.9316 75.3049 23.4406 75.3049 25.6539C75.3049 27.8672 76.4142 29.3762 78.532 29.3762C80.6497 29.3762 81.759 27.8672 81.759 25.6539C81.8599 23.4406 80.6497 21.9316 78.532 21.9316Z" fill="#E2BFBC"/>
<path d="M94.0649 22.0321H89.426V24.346H90.6361C93.9641 24.346 95.5776 25.352 95.5776 27.5653C95.5776 29.7786 94.0649 31.187 90.6361 31.187H86.7031V20.02H93.9641V22.0321H94.0649ZM89.426 26.1568V29.1749H90.5353C92.2497 29.1749 93.0564 28.6719 93.0564 27.5653C93.0564 26.4587 92.1488 26.0562 90.5353 26.0562L89.426 26.1568Z" fill="#E2BFBC"/>
<path d="M96.5824 20.4225V18.3098H99.0027C99.1035 18.8128 99.2044 19.3159 99.2044 19.7183C99.2044 21.6297 98.3976 23.2394 97.1874 23.843L96.0781 22.9376C96.8849 22.334 97.5908 21.6297 97.5908 20.4225H96.5824Z" fill="#E2BFBC"/>
<path d="M108.582 26.5593H103.136C103.439 28.2696 104.548 29.2756 106.363 29.2756C108.683 29.2756 110.095 27.666 110.095 27.666L111.103 28.9738C111.103 28.9738 109.893 31.3883 106.262 31.3883C102.229 31.3883 100.312 28.9738 100.312 25.5533C100.312 22.0322 102.43 19.6177 106.262 19.6177C109.389 19.6177 110.498 21.3279 110.498 21.3279L109.59 22.9376C109.59 22.9376 107.271 21.831 106.363 21.831C104.346 21.831 103.338 22.837 103.035 24.4467H108.481V26.5593H108.582Z" fill="#E2BFBC"/>
<path d="M127.141 31.187H124.62V23.5411H124.519L121.292 31.187H118.771L115.544 23.5411H115.443V31.187H112.922V20.02H116.351L119.981 28.6719H120.082L123.712 20.02H127.141V31.187Z" fill="#E2BFBC"/>
<path d="M25.2129 30.8852C25.2129 33.7021 23.9019 35.2111 21.1791 35.2111C18.5571 35.2111 17.2461 33.7021 17.2461 30.9858V30.5834H19.7673V31.187C19.7673 32.3942 20.2715 32.7966 21.1791 32.7966C22.0867 32.7966 22.6918 32.3942 22.6918 30.7846V27.7665C22.1876 28.7725 21.3808 29.2755 20.2715 29.2755C18.3554 29.2755 17.3469 27.8671 17.3469 25.4526V22.4345C17.3469 19.7182 18.7588 18.2091 21.3808 18.2091C24.0028 18.2091 25.4146 19.7182 25.4146 22.4345V30.8852H25.2129ZM22.4901 25.1508V22.1326C22.4901 20.9254 21.9859 20.523 21.0783 20.523C20.2715 20.523 19.6664 20.9254 19.6664 22.1326V25.1508C19.6664 26.358 20.1706 26.7604 21.0783 26.7604C21.9859 26.7604 22.4901 26.358 22.4901 25.1508Z" fill="#923336"/>
</svg>
