<svg width="100" height="101" viewBox="0 0 100 101" fill="none" xmlns="http://www.w3.org/2000/svg">
<path d="M38.4333 91.4583C38.4333 90.2581 38.6448 89.1284 38.9974 87.9988C25.9507 83.7626 15.6544 73.525 11.2819 60.4634C10.1536 60.8164 8.95469 61.0282 7.82632 61.0282C7.54423 61.0282 7.33266 61.0282 7.12109 61.0282C11.8461 75.9256 23.5529 87.5752 38.5038 92.1644C38.4333 91.882 38.4333 91.6702 38.4333 91.4583Z" fill="#586386"/>
<path d="M94.0046 24.3145C93.0172 25.3735 91.8889 26.2207 90.69 26.9268C94.0751 33.1399 95.8382 40.059 95.8382 47.1194C95.7676 65.6881 83.8493 82.0682 66.2891 87.8577C66.7122 89.1991 66.9943 90.5406 67.1353 91.9527C86.6702 85.7395 99.9285 67.5944 99.999 47.1194C99.9285 39.1412 97.8833 31.2336 94.0046 24.3145Z" fill="#586386"/>
<path d="M52.463 4.12186C58.7395 4.12186 65.0161 5.46333 70.7284 8.14627C71.4337 6.8754 72.2094 5.74575 73.1967 4.7573C49.501 -6.68048 21.0098 3.20402 9.58507 26.9268C8.66827 28.7625 7.89252 30.6688 7.25781 32.6457C8.66827 32.7163 10.0787 32.9987 11.4187 33.4223C17.4836 15.8421 33.986 4.12186 52.463 4.12186Z" fill="#586386"/>
<path d="M7.47543 54.5328C11.604 54.5328 14.9509 51.2137 14.9509 47.1194C14.9509 43.0251 11.604 39.7061 7.47543 39.7061C3.34686 39.7061 0 43.0251 0 47.1194C0 51.2137 3.34686 54.5328 7.47543 54.5328Z" fill="#586386"/>
<path d="M84.1317 21.4195C88.2602 21.4195 91.6071 18.1004 91.6071 14.0061C91.6071 9.91185 88.2602 6.59277 84.1317 6.59277C80.0031 6.59277 76.6562 9.91185 76.6562 14.0061C76.6562 18.1004 80.0031 21.4195 84.1317 21.4195Z" fill="#586386"/>
<path d="M52.4676 100.002C56.5962 100.002 59.943 96.6825 59.943 92.5882C59.943 88.4939 56.5962 85.1748 52.4676 85.1748C48.3391 85.1748 44.9922 88.4939 44.9922 92.5882C44.9922 96.6825 48.3391 100.002 52.4676 100.002Z" fill="#586386"/>
<path d="M37.4492 53.1211H41.6806L39.5649 40.5537L37.4492 53.1211Z" fill="#586386"/>
<path d="M53.7407 13.23C35.2637 13.3712 20.3834 28.4804 20.5244 46.9785C20.6655 65.4766 35.7574 80.374 54.2344 80.2328C72.6409 80.021 87.4507 65.053 87.4507 46.6255C87.3801 28.1273 72.2882 13.0888 53.7407 13.23ZM42.7391 59.1929L42.1044 55.5921H37.0268L36.3921 59.1929H33.2891L37.8731 34.1286H41.0466L45.8422 59.1929H42.7391ZM58.1131 39.4945H55.1512V38.7179C55.2217 38.0824 54.9396 37.447 54.5165 37.0234C54.0228 36.6704 53.4586 36.4586 52.8239 36.4586C52.1892 36.388 51.5545 36.5998 51.0609 37.0234C50.5672 37.447 50.3556 38.0824 50.4261 38.7179V54.6037C50.3556 55.2391 50.6377 55.8745 51.0609 56.2982C51.5545 56.6512 52.1187 56.863 52.7534 56.863C53.3881 56.863 54.0228 56.7218 54.5165 56.2982C55.0101 55.8745 55.2922 55.3097 55.2217 54.6037V47.9669H52.4713V45.3546H57.9721C57.9721 47.5433 58.0426 49.8026 57.9721 51.9913C57.9721 55.0273 58.2542 57.0748 56.5616 58.6281C55.7154 59.4753 54.0933 59.4753 52.4008 59.4753C50.9903 59.5459 49.6504 59.1223 48.5926 58.2751C47.6758 57.2866 47.1116 56.0157 47.2526 54.6743V38.6473C47.2526 37.9412 47.3937 37.2352 47.6758 36.5998C47.9578 36.0349 48.3105 35.4701 48.8041 35.0465C49.2978 34.6229 49.9325 34.2698 50.5672 34.058C51.2724 33.8462 52.0482 33.705 52.8239 33.705C54.2344 33.6344 55.6448 34.1286 56.7027 35.0465C57.69 35.9643 58.2542 37.3058 58.1837 38.6473L58.1131 39.4945ZM74.1218 47.7551H68.8326V53.3328H66.7169V47.7551H61.4982V45.5664H66.7169V40.0593H68.8326V45.5664H74.1218V47.7551Z" fill="#586386"/>
</svg>
