<svg width="100" height="100" viewBox="0 0 100 100" fill="none" xmlns="http://www.w3.org/2000/svg">
<path d="M0.231124 55.0388C-1.20547 38.8302 4.03387 24.4788 16.5407 12.9133C24.0617 5.90647 33.1038 1.60106 43.3289 0.419188C60.4836 -1.60689 75.1875 3.71156 87.0183 16.3745C94.3703 24.2256 98.6801 33.6806 99.6941 44.3175C101.384 60.9481 96.0604 75.1307 83.9761 86.6117C76.5396 93.703 67.582 98.0084 57.4414 99.4436C43.667 101.385 31.0756 98.2617 19.9209 89.8197C8.59717 81.2089 2.17475 69.7278 0.231124 55.0388ZM96.1449 46.7656C94.7083 34.6092 90.652 25.6607 83.5536 18.3162C73.0749 7.42603 60.1455 2.69852 45.1881 4.04924C35.2164 4.97785 26.3433 8.94558 18.9913 15.7836C8.00563 25.9984 2.9353 38.6613 3.94937 53.6036C4.70992 64.4094 8.93519 73.7799 16.4562 81.631C26.7659 92.3523 39.5262 97.1642 54.3992 95.8979C64.7088 95.0537 73.7509 91.0016 81.2719 83.9103C92.5111 73.2734 97.2435 60.1884 96.1449 46.7656Z" fill="#586386"/>
<path d="M50.7208 62.7177C49.6736 62.7993 48.621 62.6982 47.6038 62.4184C46.6677 62.1693 45.7548 61.8286 44.8764 61.4007C43.7868 60.7941 42.8067 59.9832 41.982 59.0062C41.2328 58.0591 40.6313 56.9877 40.2008 55.8336C39.7869 54.7604 39.5062 53.6333 39.3659 52.4813C39.18 51.2738 39.1612 50.0433 39.3102 48.8298C39.3565 48.5131 39.3751 48.1924 39.3659 47.872C39.5143 46.8446 39.7759 45.8398 40.1452 44.8789C40.5011 43.933 40.9489 43.03 41.481 42.1852C42.0617 41.361 42.7347 40.6171 43.4848 39.9703C44.1953 39.3405 44.9817 38.8169 45.8226 38.4139C46.7698 37.9776 47.7592 37.6563 48.7726 37.4561C50.0271 37.2781 51.2935 37.2181 52.5576 37.2765C53.2136 37.3174 53.8653 37.4176 54.5058 37.5758C55.2327 37.7329 55.9419 37.9737 56.6209 38.2942C56.7879 38.354 56.8992 38.4737 56.8435 38.6533C56.6765 39.2519 56.5652 39.7907 56.3982 40.3893C56.3426 40.5689 56.2869 40.8083 56.2312 40.9879C56.1199 41.407 55.9529 41.5267 55.5633 41.3471C54.9675 41.0931 54.3532 40.8928 53.7265 40.7485C52.5341 40.5083 51.3164 40.4479 50.1085 40.5689C49.3815 40.6273 48.6676 40.8091 47.9934 41.1077C47.3048 41.4034 46.651 41.7851 46.0452 42.245C45.2198 42.9216 44.5369 43.7784 44.0414 44.7592C43.7616 45.3522 43.5378 45.9739 43.3735 46.6149C43.185 47.238 43.0545 47.8797 42.9839 48.5305C42.8621 49.2005 42.8247 49.885 42.8726 50.5658C42.9839 51.4038 43.0395 52.3018 43.2065 53.1398C43.8745 55.9533 45.3773 57.9886 47.9377 59.0062C48.5375 59.203 49.1521 59.3432 49.7745 59.4253C50.454 59.5546 51.1455 59.5948 51.834 59.545C53.0779 59.5097 54.3049 59.2255 55.452 58.7069C55.5268 58.6609 55.6111 58.6354 55.6972 58.6328C55.7834 58.6301 55.8689 58.6505 55.946 58.6919C56.0231 58.7334 56.0895 58.7947 56.1393 58.8705C56.189 58.9462 56.2206 59.0339 56.2312 59.126C56.3982 59.8443 56.5652 60.5626 56.7879 61.281C56.8435 61.5204 56.7879 61.6402 56.6209 61.7C55.9322 62.0477 55.2014 62.2895 54.4501 62.4184C53.8378 62.5381 53.2255 62.6578 52.6133 62.7177H50.7208Z" fill="#586386"/>
<path d="M21.5664 49.9693V37.9305C21.5664 37.3777 21.6873 37.2549 22.2315 37.2549H34.8082C35.171 37.2549 35.2919 37.3777 35.2919 37.7463V40.0189C35.2919 40.4488 35.171 40.5717 34.7477 40.5717H25.9199C25.5571 40.5717 25.4361 40.6945 25.4361 41.0631V47.6967C25.4361 48.0652 25.4966 48.188 25.9199 48.188H33.9617C34.5059 48.188 34.6268 48.3109 34.6268 48.8637V50.8292C34.6268 51.382 34.5059 51.5048 33.9617 51.5048H25.9199C25.4966 51.5048 25.4361 51.6277 25.4361 51.9962V62.0694C25.4361 62.6222 25.3152 62.7451 24.771 62.7451H22.1711C21.7478 62.7451 21.5664 62.6222 21.5664 62.1309V49.9693Z" fill="#586386"/>
<path d="M66.6002 51.6624V41.1338C66.6002 40.7028 66.4737 40.6413 66.0942 40.6413H59.5161C58.9468 40.6413 58.8203 40.5181 58.8203 39.964V37.809C58.8203 37.3165 58.9468 37.2549 59.3896 37.2549H77.8589C78.3017 37.2549 78.4282 37.378 78.4282 37.809V39.964C78.4282 40.4566 78.3017 40.5797 77.7324 40.5797H71.0278C70.5218 40.5797 70.5218 40.5797 70.5218 41.1338V62.0062C70.5218 62.6219 70.4585 62.7451 69.7628 62.7451H67.1695C66.6635 62.7451 66.537 62.6219 66.537 62.1294C66.6002 58.6814 66.6002 55.1719 66.6002 51.6624Z" fill="#586386"/>
</svg>
