<svg width="100" height="101" viewBox="0 0 100 101" fill="none" xmlns="http://www.w3.org/2000/svg">
<path d="M100 49.0617C99.9166 62.4024 95.9978 73.2417 88.0768 82.4967C79.5721 92.5022 68.6495 98.3388 55.6423 99.7562C41.2177 101.257 28.2106 97.4216 17.2045 87.7496C6.1985 78.161 0.445344 65.9043 0.0284482 51.3129C-0.388447 38.3892 3.78051 26.9662 12.2852 17.2109C21.2901 6.87188 32.8798 1.03535 46.6374 0.118176C60.9786 -0.798994 73.6522 3.6201 84.158 13.4588C94.5804 23.3809 99.8332 35.6377 100 49.0617ZM96.0812 50.0623C95.831 37.0551 91.1618 25.7989 81.5732 16.7106C71.9846 7.6223 60.4783 3.36996 47.3878 4.12037C34.3806 4.87079 23.5414 10.2904 15.1201 20.1292C7.28243 29.2175 3.44699 39.8066 4.03065 51.8966C4.6143 65.3206 10.1173 76.4934 20.3729 85.1649C30.2117 93.5028 41.718 97.1715 54.5584 95.8374C66.9819 94.5867 77.2375 89.0003 85.3253 79.4951C92.3291 70.9904 95.831 61.2351 96.0812 50.0623Z" fill="#586386"/>
<path d="M27.2944 76.6603C27.2944 75.2429 27.2944 73.8255 27.2944 72.4914C27.2944 70.2402 27.2944 67.9889 27.2944 65.6543C27.2944 65.2374 27.211 65.0706 26.7941 65.0706C24.2094 65.0706 21.6246 65.0706 19.0399 65.0706C18.2061 65.0706 17.6224 64.6538 17.6224 63.9033C17.6224 62.8194 18.1227 62.2358 19.0399 62.2358C21.5413 62.2358 23.9593 62.2358 26.4606 62.2358C27.2944 62.2358 27.2944 62.2358 27.2944 61.402C27.2944 60.0679 27.2944 58.6505 27.2944 57.3164C27.2944 56.8995 27.211 56.8161 26.7941 56.8161C24.2094 56.8161 21.5413 56.8161 18.9565 56.8161C18.1227 56.8161 17.5391 56.3158 17.5391 55.5654C17.5391 54.4815 17.956 54.0646 18.9565 54.0646C21.5413 54.0646 24.126 54.0646 26.7108 54.0646C27.1277 54.0646 27.2944 53.9812 27.2944 53.481C27.2944 51.9801 27.2944 50.4793 27.2944 48.9785C27.2944 48.1447 27.8781 47.561 28.6285 47.561C29.2955 47.561 30.1293 48.1447 30.1293 48.9785C30.1293 50.5627 30.1293 52.0635 30.1293 53.6477C30.1293 53.9812 30.2127 54.148 30.6296 54.148C36.4661 54.148 42.386 54.148 48.2226 54.148C48.6395 54.148 48.7228 54.0646 48.7228 53.6477C48.7228 52.1469 48.7228 50.5627 48.7228 49.0619C48.7228 48.0613 49.3899 47.7278 50.0569 47.6444C50.8073 47.561 51.4744 48.2281 51.4744 49.0619C51.4744 50.5627 51.4744 52.1469 51.4744 53.6477C51.4744 54.0646 51.5577 54.148 51.9746 54.148C57.8946 54.148 63.7311 54.148 69.651 54.148C69.9845 54.148 70.0679 54.0646 70.0679 53.7311C70.0679 52.1469 70.0679 50.6461 70.0679 49.0619C70.0679 48.3114 70.7349 47.561 71.4853 47.6444C72.3191 47.7278 72.8194 48.0613 72.9028 49.0619C72.9028 50.5627 72.9028 52.1469 72.9028 53.6477C72.9028 54.0646 72.9862 54.148 73.4031 54.148C75.9878 54.148 78.6559 54.148 81.2407 54.148C81.9077 54.148 82.408 54.4815 82.5748 54.9818C82.7415 55.6488 82.4914 56.3992 81.9911 56.7327C81.741 56.8995 81.4908 56.8995 81.2407 56.8995C78.6559 56.8995 75.9878 56.8995 73.4031 56.8995C72.9862 56.8995 72.8194 56.9829 72.8194 57.3998C72.8194 58.8172 72.8194 60.318 72.8194 61.7355C72.8194 62.1524 72.9028 62.2358 73.3197 62.2358C75.8211 62.2358 78.4058 62.2358 80.9072 62.2358C82.0745 62.2358 82.7415 62.9862 82.4914 64.2369C82.408 64.6538 81.8243 65.0706 81.2407 65.0706C78.6559 65.0706 76.0712 65.0706 73.4864 65.0706C72.736 65.0706 72.8194 64.9873 72.8194 65.7377C72.8194 69.2396 72.8194 72.7415 72.8194 76.3268C72.8194 76.4102 72.8194 76.4936 72.8194 76.6603C73.5698 75.8266 74.2369 75.1595 74.8205 74.4091C75.3208 73.8255 75.8211 73.3252 76.4047 72.8249C76.8216 72.408 77.4886 72.5748 77.9889 73.075C78.4892 73.6587 78.6559 74.3257 78.2391 74.826C77.9055 75.2429 77.4886 75.7432 77.1551 76.1601C76.1546 77.1606 75.3208 78.2445 74.3202 79.1617C73.6532 79.8288 73.0695 80.4958 72.4859 81.2462C72.069 81.7465 70.8183 81.6631 70.4014 81.1628C69.651 80.1623 68.8172 79.4119 67.9834 78.4947C66.8995 77.244 65.8156 76.0767 64.7316 74.826C64.3147 74.3257 64.3981 73.4919 64.9818 72.9083C65.482 72.408 66.2325 72.408 66.7327 72.9083C67.4831 73.6587 68.1502 74.4091 68.8172 75.1595C69.1507 75.5764 69.5676 75.9933 69.9845 76.4102C70.0679 76.2434 70.0679 75.9933 70.0679 75.8266C70.0679 72.3246 70.0679 68.7393 70.0679 65.2374C70.0679 65.0706 70.0679 64.9873 69.9011 64.9873C69.8178 64.9873 69.7344 64.9873 69.651 64.9873C63.8145 64.9873 57.9779 64.9873 52.058 64.9873C51.5577 64.9873 51.4744 65.154 51.4744 65.5709C51.4744 69.0728 51.4744 72.5748 51.4744 75.9933C51.4744 76.1601 51.4744 76.3268 51.4744 76.577C52.1414 75.9933 52.6417 75.3263 53.1419 74.7426C53.7256 74.0756 54.3092 73.4919 54.8929 72.9083C55.4766 72.3246 56.1436 72.4914 56.7272 73.1584C57.2275 73.6587 57.2275 74.4091 56.7272 74.9094C55.143 76.6603 53.6422 78.4113 52.058 80.0789C51.7245 80.4124 51.391 80.8293 51.0575 81.2462C50.8073 81.4963 50.5572 81.4963 50.3071 81.5797C49.5566 81.6631 49.0564 81.3296 48.6395 80.8293C47.9724 79.9121 47.0553 79.0783 46.3049 78.2445C45.3877 77.1606 44.3871 76.0767 43.3866 74.9928C42.8863 74.4091 42.9697 73.5753 43.47 73.075C44.137 72.4914 44.804 72.408 45.3877 73.075C46.3049 73.9922 47.222 74.9094 47.9724 75.9933C48.1392 76.2434 48.3893 76.4102 48.7228 76.7437C48.7228 76.4102 48.7228 76.3268 48.7228 76.1601C48.7228 72.6581 48.7228 69.1562 48.7228 65.7377C48.7228 65.3208 48.6395 65.154 48.1392 65.154C42.3027 65.154 36.4661 65.154 30.713 65.154C30.4628 65.154 30.1293 65.0706 30.1293 65.4875C30.1293 69.1562 30.1293 72.9083 30.1293 76.6603C30.6296 76.3268 30.8797 75.9099 31.2132 75.493C31.5468 75.0761 31.9636 74.6592 32.2972 74.3257C32.6307 73.9922 32.9642 73.6587 33.2143 73.3252C33.798 72.6581 34.6318 72.5748 35.2154 73.1584C35.7991 73.7421 35.7991 74.6592 35.2988 75.2429C34.465 76.1601 33.5478 77.0772 32.7141 77.9944C31.7135 79.1617 30.6296 80.1623 29.629 81.3296C29.2121 81.8298 28.1282 81.8298 27.6279 81.3296C26.1271 79.662 24.6263 77.9944 23.0421 76.2435C22.7086 75.8266 22.2917 75.493 21.9582 75.0761C21.5413 74.5759 21.4579 73.9922 21.7914 73.4086C22.0415 72.9083 22.7086 72.5748 23.2922 72.7415C23.7925 72.8249 24.126 73.2418 24.3761 73.6587C24.8764 74.2424 25.3767 74.7426 25.877 75.3263C26.2939 75.7432 26.6274 76.2435 27.2944 76.6603ZM60.7294 62.4025C63.6477 62.4025 66.566 62.4025 69.4009 62.4025C69.4842 62.4025 69.651 62.4025 69.7344 62.4025C69.9011 62.4025 69.9011 62.4025 69.9011 62.2358C69.9011 60.6516 69.9011 59.1507 69.9011 57.5665C69.9011 57.1496 69.8178 57.0663 69.4009 57.0663C63.5643 57.0663 57.6444 57.0663 51.8079 57.0663C51.391 57.0663 51.3076 57.233 51.3076 57.5665C51.3076 58.984 51.3076 60.4848 51.3076 61.9022C51.3076 62.3191 51.391 62.4859 51.8079 62.4859C54.8095 62.4025 57.8112 62.4025 60.7294 62.4025ZM39.301 62.4025C42.2193 62.4025 45.1375 62.4025 48.0558 62.4025C48.4727 62.4025 48.5561 62.3191 48.5561 61.9022C48.5561 60.4848 48.5561 58.984 48.5561 57.5665C48.5561 57.1496 48.4727 57.0663 48.0558 57.0663C42.2193 57.0663 36.2994 57.0663 30.4628 57.0663C30.0459 57.0663 29.9625 57.233 29.9625 57.5665C29.9625 58.984 29.9625 60.4848 29.9625 61.9022C29.9625 62.3191 30.0459 62.4859 30.4628 62.4859C33.4645 62.4025 36.3827 62.4025 39.301 62.4025Z" fill="#586386"/>
<path d="M79.9919 34.8874C80.1586 37.3888 79.3249 39.5567 77.7407 41.4744C76.7401 42.7251 75.4894 43.6422 73.9052 44.0591C72.2376 44.5594 70.57 44.5594 68.9025 44.1425C66.9014 43.5589 65.3172 42.3915 64.2332 40.724C63.3994 39.3899 62.8992 37.9725 62.649 36.4716C62.3155 33.8035 62.8158 31.3855 63.8997 28.9675C64.8169 26.9664 65.9842 25.2155 67.4016 23.5479C68.3188 22.4639 69.3194 21.5468 70.3199 20.6296C70.9036 20.1293 71.654 20.1293 72.2376 20.6296C73.9886 22.047 75.4894 23.7146 76.7401 25.6323C78.0742 27.5501 79.1581 29.5512 79.6584 31.8858C79.9919 32.8863 80.0753 33.8869 79.9919 34.8874ZM65.4839 35.0542C65.4005 35.9714 65.5673 37.0553 65.9842 38.0558C66.5678 39.5567 67.5684 40.724 69.236 41.3076C70.3199 41.6411 71.4038 41.7245 72.4878 41.5578C74.072 41.3076 75.3227 40.4738 76.1564 39.2231C77.4071 37.1387 77.4905 34.8874 76.9902 32.5528C76.6567 30.7185 75.7395 29.1343 74.739 27.5501C73.9052 26.216 72.8213 25.1321 71.8207 23.9648C71.4038 23.4645 71.2371 23.4645 70.8202 23.9648C69.4027 25.549 68.0687 27.1332 67.0681 28.9675C66.0676 30.8852 65.4839 32.8029 65.4839 35.0542Z" fill="#586386"/>
<path d="M41.2981 32.8027C41.2981 30.6349 41.7983 28.8005 42.6321 26.8828C43.3825 25.1318 44.3831 23.631 45.467 22.1302C46.5509 20.7127 47.8016 19.4621 49.2191 18.3781C49.4692 18.128 50.7199 18.2948 50.97 18.5449C52.3875 19.7122 53.5548 21.0463 54.7221 22.4637C55.2224 23.0474 55.6393 23.7978 56.0562 24.4648C56.5564 25.2152 56.9733 25.9656 57.3902 26.7994C57.9739 28.2169 58.3908 29.7177 58.6409 31.3019C58.9744 33.6365 58.5575 35.8044 57.557 37.8888C56.3897 40.1401 54.472 41.7243 51.9706 42.1412C49.636 42.5581 47.218 42.3913 45.2169 40.8905C44.1329 40.1401 43.2992 39.1395 42.6321 37.9722C41.715 36.3046 41.2147 34.5537 41.2981 32.8027ZM44.1329 32.8027C44.1329 33.3864 44.1329 33.97 44.2163 34.5537C44.4665 35.8044 44.9667 36.9717 45.8005 37.9722C47.4681 39.8066 50.4698 39.9733 52.4709 39.0562C54.8055 38.0556 55.5559 35.9711 55.806 33.7199C55.9728 31.7188 55.5559 29.8011 54.8055 27.9667C54.6387 27.4665 54.3052 27.0496 54.0551 26.6327C52.9711 24.7983 51.7204 23.1307 50.1362 21.6299C49.9695 21.5465 49.8861 21.3798 49.8027 21.6299C49.4692 22.2136 48.8856 22.5471 48.4687 23.0474C47.9684 23.631 47.5515 24.298 47.0512 24.8817C45.2169 27.2163 44.1329 29.8011 44.1329 32.8027Z" fill="#586386"/>
<path d="M19.957 34.8039C20.0404 31.969 20.7908 29.4677 22.2917 27.0497C23.459 25.2153 24.793 23.4644 26.2939 21.9635C26.7108 21.5466 27.211 21.1297 27.6279 20.7129C28.2116 20.2126 29.1288 20.2126 29.7124 20.7129C30.4628 21.3799 31.2132 22.0469 31.8803 22.7973C33.3811 24.3815 34.7151 26.1325 35.6323 28.1336C36.2994 29.4677 36.7996 30.8017 37.1331 32.2192C37.7168 34.7205 37.4667 37.2219 36.3827 39.5565C35.3822 41.641 33.798 43.2252 31.6301 43.9756C28.4617 44.9762 25.5434 44.6427 22.9587 42.3914C21.3745 40.974 20.6241 39.223 20.2072 37.2219C19.957 36.3881 19.8737 35.5543 19.957 34.8039ZM22.8753 34.8873C22.7919 35.6377 22.9587 36.3881 23.1255 37.1385C23.3756 38.4726 24.0426 39.5565 25.0432 40.3903C26.2105 41.3909 27.5445 41.641 29.0454 41.5576C31.1299 41.4743 32.7974 40.5571 33.7146 38.7227C34.8819 36.3881 34.7985 33.9701 34.0481 31.5521C33.4645 29.7178 32.5473 28.1336 31.4634 26.6328C30.713 25.6322 29.8792 24.6317 28.962 23.7145C28.7119 23.4644 28.6285 23.4644 28.3783 23.7145C28.2116 23.9646 28.0448 24.2148 27.7947 24.3815C26.0437 26.0491 24.793 28.0502 23.7925 30.1347C23.0421 31.6355 22.8753 33.3031 22.8753 34.8873Z" fill="#586386"/>
</svg>
