<svg width="26" height="26" fill="none" xmlns="http://www.w3.org/2000/svg"><path d="M25.294 12.547c-5.94-2.683-9.738-6.482-11.366-11.336A.29.29 0 0013.656 1a.29.29 0 00-.271.211C11.697 6.155 7.988 9.864 2.019 12.547c-.12.06-.181.15-.181.271 0 .121.09.242.18.272 5.217 1.99 9.015 5.788 11.337 11.366.06.12.15.18.271.18.12 0 .241-.09.272-.18 2.05-5.276 5.878-9.075 11.366-11.336.12-.06.18-.15.18-.271a.372.372 0 00-.15-.302zM13.626 23.552c-2.291-5.126-5.909-8.744-10.733-10.734 5.367-2.562 8.985-6.12 10.733-10.612 1.749 4.462 5.367 8.02 10.793 10.612-5.095 2.262-8.713 5.88-10.793 10.734zM8.833 21.29c-1.87-.844-3.075-2.05-3.558-3.557a.29.29 0 00-.271-.211.29.29 0 00-.271.21c-.513 1.538-1.689 2.714-3.558 3.558-.12.06-.18.151-.18.272 0 .12.09.24.18.271 1.628.603 2.834 1.809 3.558 3.558.06.12.15.18.271.18.12 0 .241-.09.271-.18.633-1.659 1.81-2.834 3.558-3.558.12-.06.18-.15.18-.271 0-.12-.06-.242-.18-.272zm-3.86 3.256c-.693-1.356-1.718-2.381-3.014-3.014 1.417-.754 2.412-1.719 3.015-2.925.573 1.206 1.598 2.17 3.015 2.925-1.357.723-2.382 1.718-3.015 3.014z" fill="#C11426" stroke="#C11426" stroke-width=".3"/></svg>