<svg width="16" height="23" fill="none" xmlns="http://www.w3.org/2000/svg"><path d="M7.844.007a.548.548 0 00-.308.18C3.666 4.453 0 9.521 0 14.308 0 19.077 3.533 23 7.938 23c4.406 0 7.938-3.923 7.938-8.69 0-4.788-3.666-9.856-7.536-14.124a.547.547 0 00-.496-.18zM7.938 1.4c3.637 4.097 6.843 8.852 6.843 12.908 0 4.23-3.09 7.596-6.843 7.596S1.095 18.54 1.095 14.31c0-4.056 3.206-8.811 6.843-12.908zM2.96 13.394a.547.547 0 00-.48.505c-.188 2.037.83 4.322 2.387 5.423a.546.546 0 00.87-.544.548.548 0 00-.245-.354C4.377 17.636 3.43 15.564 3.576 14a.548.548 0 00-.616-.607z" fill="#C11426"/></svg>