<svg width="27" height="27" fill="none" xmlns="http://www.w3.org/2000/svg"><path fill-rule="evenodd" clip-rule="evenodd" d="M2.414 5.319c-.738 2.72.053 5.821 2.357 7.673a58.701 58.701 0 018.811 8.804c1.867 2.305 4.952 3.1 7.665 2.365-2.64 2.192-6.866 1.92-9.079-.813a59.525 59.525 0 00-8.953-8.944C.47 12.193.21 7.954 2.414 5.319zm22.06 16.984c2.973-2.981 2.77-8.206-.523-10.87a58.617 58.617 0 01-8.81-8.803C12.468-.692 7.237-.87 4.255 2.113L2.108 4.259c-2.983 2.978-2.79 8.22.516 10.878a58.617 58.617 0 018.81 8.804c2.686 3.315 7.894 3.507 10.886.516.715-.715 1.454-1.43 2.155-2.154zm-1.117-10.136c2.865 2.314 3.032 6.893.442 9.478-2.587 2.588-7.156 2.436-9.484-.442a59.677 59.677 0 00-8.954-8.946C2.491 9.95 2.34 5.358 4.92 2.779 7.507.194 12.092.344 14.404 3.22a59.771 59.771 0 008.953 8.947z" fill="#C11426"/></svg>