<svg width="26" height="26" fill="none" xmlns="http://www.w3.org/2000/svg"><path d="M1.56 0C.7 0 0 .7 0 1.56v22.88C0 25.3.7 26 1.56 26h22.88c.86 0 1.56-.7 1.56-1.56v-7.28c0-.86-.7-1.56-1.56-1.56h-6.687l6.238-6.236a1.565 1.565 0 000-2.206l-5.15-5.147c-.589-.589-1.616-.589-2.205 0L10.4 8.247V1.56C10.4.7 9.7 0 8.84 0H1.56zm0 1.04h7.28a.52.52 0 01.52.52v6.76H1.04V1.56a.52.52 0 01.52-.52zm16.179 1.556c.133 0 .266.05.368.15l5.147 5.147a.52.52 0 010 .736l-4.78 4.781-5.882-5.884 4.78-4.78a.517.517 0 01.367-.15zM11.856 8.26l5.883 5.885-1.457 1.454H8.9l-2.192-2.19 5.15-5.149zM1.04 9.36h8.247l-6.24 6.24H1.56a1.55 1.55 0 00-.473.081c-.015.006-.032.003-.047.008V9.36zm4.932 4.786L7.428 15.6h-2.91l1.454-1.454zM1.56 16.64h6.76v8.32H1.56a.52.52 0 01-.52-.52v-7.28a.52.52 0 01.52-.52zm7.8 0h7.28v8.32H9.36v-8.32zm8.32 0h6.76a.52.52 0 01.52.52v7.28a.52.52 0 01-.52.52h-6.76v-8.32z" fill="#C11426"/></svg>