<svg width="25" height="20" fill="none" xmlns="http://www.w3.org/2000/svg"><path d="M5.146 11.466c.708 0 1.453-.071 2.233-.213v-.07c0-.355.035-.71.106-1.029-2.694.461-5.034.355-6.416-1.524-.177-.248-.496-.284-.744-.106-.249.177-.284.496-.107.744 1.205 1.63 2.942 2.198 4.928 2.198zm10.952-3.368c.177.32.354.638.531.993 2.907-.496 5.353-.32 6.771 1.879.142.248.496.319.744.177.248-.142.32-.496.178-.745-1.844-2.835-4.892-2.942-8.224-2.304zm-1.948.178c-.462-.745-.993-1.596-1.419-2.588l-.496-1.17-.496 1.17c-.426 1.028-.957 1.843-1.418 2.588-.32.531-.603.992-.851 1.453-.177.39-.319.78-.354 1.17 0 .106-.036.177-.036.283a3.086 3.086 0 003.084 3.084 3.086 3.086 0 003.084-3.084c0-.602-.213-1.17-.532-1.737-.177-.319-.354-.638-.567-.957.071-.07.036-.141 0-.212zm.105 2.906a2.02 2.02 0 11-4.04 0c0-.177.035-.354.106-.531.106-.39.354-.78.602-1.276.107-.178.213-.355.355-.568.319-.496.638-1.063.992-1.701.32.602.639 1.134.957 1.666 0 .035.036.035.036.07.213.32.39.603.532.887.283.532.46 1.028.46 1.453zM5.286 3.667c1.808 0 3.828-.46 5.849-.992.213-.071.425-.107.638-.177l.425-.107c.036 0 .071 0 .071-.035h.036c.106-.036.212-.071.319-.071.177-.036.354-.106.531-.142 4.36-1.17 8.366-2.056 10.351 1.028.142.248.497.32.745.177.248-.141.319-.496.177-.744C22.053-1.154 17.409-.09 12.765 1.15c-.248.07-.46.141-.709.177-.141.035-.248.07-.39.106-4.324 1.17-8.4 2.198-10.421-.567C1.067.619.748.583.5.76s-.283.496-.106.744C1.564 3.1 3.301 3.667 5.286 3.667zm6.487 13.258C7.271 18.13 3.053 19.3.962 16.465c-.178-.249-.497-.284-.745-.107s-.283.496-.106.744c1.205 1.63 2.942 2.198 4.892 2.198 2.162 0 4.643-.674 7.054-1.347 4.679-1.276 9.11-2.481 11.166.815.142.248.496.32.744.177.249-.141.32-.496.178-.744-2.517-3.935-7.55-2.588-12.372-1.276z" fill="#C11426"/></svg>