<svg width="28" height="29" fill="none" xmlns="http://www.w3.org/2000/svg"><path d="M26.181.522c-1.087-.883-2.712-.6-3.536.5l-1.579 2.091-.58-.437a1.724 1.724 0 00-2.403.34c-.572.756-.42 1.83.339 2.403l.575.437-4.834 6.408H.446c-.25 0-.446.2-.446.446v15.385c0 .25.196.446.446.446h17.593a.444.444 0 00.445-.446V14.623l4.402-5.833.58.437c.747.57 1.827.424 2.403-.339a1.717 1.717 0 00-.334-2.403l-.58-.437 1.637-2.168a2.433 2.433 0 00-.41-3.358zM.891 13.156h8.157v6.8H.892v-6.8zm0 7.693h8.157v6.8H.892v-6.8zm16.701 6.8H9.94v-6.8h7.653v6.8zm0-7.692H9.94v-6.8h3.55l-.549.726a1.493 1.493 0 00-.026 1.753l-1.133 1.502a1.4 1.4 0 00.352 2.012c.62.401 1.463.234 1.918-.375l1.097-1.454c.582.21 1.277.037 1.681-.504l.763-1.012v4.152zm-1.471-3.675c-.19.243-.541.327-.852.098a.443.443 0 00-.602.103l-1.324 1.757c-.179.232-.5.308-.718.165a.508.508 0 01-.13-.732l1.36-1.801a.447.447 0 00-.084-.624.59.59 0 01-.116-.83c8.566-11.354-2.52 3.345 6.056-8.027l2.466 1.864-6.056 8.027zm8.874-9.084a.825.825 0 11-.994 1.316l-5.044-3.809a.823.823 0 01-.16-1.155.83.83 0 011.155-.16c3.072 2.32 2.097 1.582 5.043 3.808zm.883-3.853l-1.632 2.168-2.466-1.86 1.579-2.096c.525-.7 1.575-.898 2.26-.343.662.537.752 1.48.26 2.131z" fill="#C11426"/></svg>