<svg width="15" height="33" fill="none" xmlns="http://www.w3.org/2000/svg"><path d="M11.729 5.556c-.17 0-.284-.113-.284-.283V.623c0-.17.114-.283.284-.283.17 0 .283.114.283.284v4.649c0 .113-.113.283-.283.283zM9.405 4.422c-.17 0-.284-.113-.284-.283V.737c0-.17.113-.283.284-.283.17 0 .283.113.283.283v3.402c0 .113-.113.283-.283.283zM3.676 5.556c-.17 0-.283-.113-.283-.283V.623c0-.17.113-.283.283-.283.17 0 .284.114.284.284v4.649c0 .113-.17.283-.284.283zm2.326-1.134c-.17 0-.283-.113-.283-.283V.737c0-.17.113-.283.283-.283.17 0 .284.113.284.283v3.402c0 .113-.114.283-.284.283zM7.76 32.6c-.908 0-1.702-.397-2.269-1.134-1.19-1.474-1.53-4.309-.85-7.484.397-1.87.85-3.628 1.247-5.102H3.45c-1.53 0-2.835-1.248-2.948-2.778L.5 15.5l14.403-.056v.658c-.114 1.587-1.418 2.778-2.949 2.778H9.63c.397 1.474.85 3.231 1.247 5.102.68 3.175.34 6.01-.85 7.484-.624.737-1.36 1.134-2.268 1.134zM1.75 16.612c.283.68.963 1.134 1.7 1.134h3.97l-.227.737c-.453 1.53-1.02 3.572-1.474 5.726-.624 2.835-.34 5.33.624 6.577.397.453.85.68 1.36.68.567 0 1.02-.227 1.361-.68.964-1.248 1.247-3.742.624-6.577-.454-2.154-.964-4.195-1.474-5.726l-.227-.737h3.855c.737 0 1.418-.454 1.701-1.134H1.749z" fill="#C11426"/><path d="M14.336 16.442H1.069c-.34 0-.567-.227-.567-.567V.567C.502.227.729 0 1.069 0h13.267c.34 0 .567.227.567.567v15.308c0 .34-.227.567-.567.567zm-12.7-.942h12.133V1.134H1.636V15.5z" fill="#C11426"/></svg>