<svg width="36" height="36" fill="none" xmlns="http://www.w3.org/2000/svg"><path d="M4.078 26.172a.409.409 0 01-.138.568.437.437 0 01-.585-.132.409.409 0 01.138-.568.43.43 0 01.585.132zm4.524 4.005l-1.357 1.567-.226-.188 1.18-1.362-.982-.806-1.18 1.363-.227-.188 1.358-1.566 1.434 1.18zm.629.425l1.434.844-.143.232-1.175-.695-.32.513 1.103.65-.143.232-1.104-.65-.342.551 1.192.706-.144.232-1.45-.855 1.092-1.76zm1.495 3.15l-.276-.11.817-1.893.899.365c.48.193.64.469.474.85-.165.385-.48.457-.96.264l-.618-.254-.336.778zm.43-1.004l.513.21c.375.154.585.138.69-.105.116-.265-.022-.414-.38-.563l-.53-.215-.293.673zm2.334-.16l1.627.397-.066.26-1.335-.331-.149.579 1.252.309-.066.26-1.252-.31-.166.63 1.357.33-.066.26-1.644-.403.508-1.98zm2.284.513l1.164.105c.414.039.623.248.59.574-.022.215-.149.353-.375.419.26.072.38.254.359.519-.039.408-.298.573-.795.53l-1.142-.106.199-2.04zm.127 1.804l.772.072c.337.033.508-.033.53-.26.022-.242-.11-.358-.425-.386l-.817-.071-.06.645zm.088-.921l.745.066c.32.028.469-.022.49-.254.023-.21-.099-.303-.374-.33l-.811-.072-.05.59zm2.797 1.313l-.298.005-.05-2.052.298-.005.05 2.052zm1.418-.094l-.293.039-.292-2.03.96-.133c.513-.072.794.088.855.497.06.413-.17.634-.684.7l-.662.094.116.833zm-.155-1.076l.552-.077c.403-.055.574-.171.54-.43-.038-.287-.231-.342-.623-.293l-.568.078.1.722zm1.915-1.29l1.605-.464.077.26-1.318.38.176.574 1.242-.359.077.26-1.241.358.187.623 1.34-.386.078.26-1.627.468-.596-1.975zm2.858-.083l1.158-.536-.359-.733.27-.127.906 1.854-.27.126-.426-.877-1.158.54.43.878-.27.127-.905-1.854.27-.127.354.729zm2.532-2.384c.585-.402 1.191-.298 1.578.232.386.535.286 1.125-.304 1.534-.585.402-1.192.298-1.578-.232-.386-.535-.287-1.131.304-1.534zm1.114 1.54c.436-.304.508-.723.21-1.131-.298-.414-.729-.486-1.164-.183-.436.304-.508.723-.21 1.131.298.409.728.486 1.164.183zm.927-2.102l-.519-.552.254-.232.524.552.486.64-.127.116-.618-.524zm.668.711l.253-.231.238.253-.254.226-.238-.248zm2.261-4.391a.43.43 0 01.58-.133.414.414 0 01.138.569.43.43 0 01-.58.132.408.408 0 01-.138-.568zM.199 20.137l.452-.094.226 1.098 1.749-.348.11.535-2.2.442-.337-1.633zm2.08-1.937l.038.546-2.24.144-.038-.547 2.24-.143zM.22 14.697l2.234.215-.055.546-1.777-.17-.11 1.047 1.776.171-.055.547L0 16.837l.22-2.14zm2.217-3.62c.674.222.955.845.69 1.606-.265.762-.872 1.098-1.55.877-.673-.22-.955-.844-.69-1.61.265-.756.877-1.093 1.55-.872zm-.662 1.915c.425.138.773-.038.916-.452.144-.414-.027-.756-.452-.894s-.773.033-.91.447c-.144.42.022.761.446.9zm.618-4.16l.276-.452 2.455.254-.32.524-.513-.066-.507.833.309.403-.31.507-1.39-2.003zm1.402.205l-.75-.089.446.59.304-.501zm1.936-4.359l1.627 1.5-.386.398-1.296-1.192-.679.701.64.59c.42.387.58.762.215 1.137a1.785 1.785 0 01-.259.22l-.347-.32a.766.766 0 00.126-.104c.177-.182.133-.304-.242-.646l-.85-.783 1.451-1.5zm2.902-2.13l.26.37-1.176.795.21.298 1.048-.706.26.37-1.049.705.276.392 1.175-.794.265.37-1.644 1.108-1.275-1.798 1.65-1.11zm1.34-.722l1.225-.513c.486-.204.872-.055 1.06.364.187.425.027.811-.453 1.015l-.706.293.276.629-.519.215-.883-2.003zm.944.75l.474-.198c.32-.133.447-.248.353-.47-.099-.23-.253-.225-.557-.093l-.507.215.237.546zM15.006.243l.1.436L13.98.92l.38 1.7-.551.115L13.329.6l1.677-.358zM18.37 0l.017.447-1.43.05.012.364 1.274-.045.017.447-1.275.044.017.475 1.429-.05.016.447-1.991.072-.072-2.18L18.371 0zm1.98.993l1.065.182.144-.8.552.094-.387 2.157-.551-.094.165-.91-1.065-.182-.165.91-.557-.094L19.938.1l.557.094-.143.8zm3.537.866l.998.397.315-.755.519.204-.85 2.024-.519-.204.359-.855-.999-.397-.358.855-.519-.21.85-2.024.518.204-.314.761zm3.944 1.048l.447.298-.419 2.373-.513-.343.1-.496-.817-.54-.436.275-.502-.33 2.14-1.237zm-.308 1.346l.143-.722-.634.397.49.325zm5.103 3.206l-.182.127.132.182c.309.413.519 1.042-.022 1.429-.486.342-1.004.099-1.401-.43l-.127-.172-.22.155-.332-.442.22-.154-.132-.177c-.397-.53-.463-1.086.017-1.429.546-.386 1.092.006 1.396.42l.138.182.182-.127.33.436zm-.855-.077l-.1-.133c-.193-.265-.496-.458-.767-.27-.253.182-.16.524.039.789l.094.127.734-.513zm-.403.965l.1.132c.192.265.496.458.75.282.27-.193.176-.535-.017-.8l-.1-.133-.733.519zm3.029 2.201l.204.486-1.683 1.765-.237-.563.364-.358-.38-.888-.52-.006-.231-.546 2.483.11zm-1.016.966l.525-.53-.75-.005.226.535zm1.97 1.715l.248 1.275c.094.502-.132.844-.596.927-.468.088-.816-.144-.915-.651l-.138-.734-.69.127-.105-.54 2.196-.404zm-.954.734l.093.497c.067.336.155.48.398.435.253-.044.28-.193.22-.513l-.105-.53-.606.111zm1.445 4.58l-.463-.006.016-1.291-.375-.006-.011.784c-.006.463-.281.728-.717.728-.43-.006-.695-.27-.69-.734l.017-1.335 2.245.022-.022 1.837zm-1.77-1.308l-.006.59c-.006.27.044.375.248.38.204.006.237-.126.237-.402l.006-.557-.486-.011zm1.422 3.701l-.115.514-2.411.513.132-.596.508-.1.21-.943-.42-.287.127-.573 1.97 1.473zm-1.395.232l.739-.143-.612-.42-.127.563z" fill="#9AB4C1"/><path fill-rule="evenodd" clip-rule="evenodd" d="M14.261 30.63c4.359.965 7.625.242 10.444-1.43 3.018-1.787 5.93-5.058 6.466-10.167.463-4.43-1.302-8.132-3.967-10.78-1.33-1.318-2.99-2.504-5.158-3.2-2.174-.695-4.74-.855-6.89-.413-3.769.767-7.068 3.26-8.96 6.631-2.312 4.121-2.03 9.428-.26 12.496a51.962 51.962 0 001.942-1.253 11.07 11.07 0 01-.888-6.813c1.131-6.013 6.924-9.974 12.943-8.844 6.013 1.131 9.969 6.924 8.838 12.938-.905 4.816-4.927 8.236-9.368 8.893l.69-.773c0-.005.005-.005.005-.005l.022-.022a12.035 12.035 0 002.703-5.01c.745-2.874.089-5.516-.976-7.635-1.13-2.256-3.117-4.044-5.98-5.164.05.546.325 1.043.42 1.633.093.585.115 1.28-.144 2.02-.398 1.147-1.153 2.068-1.529 3.293-1.125 3.685-.033 6.444 1.655 8.777 1-1.064 1.926-2.394 2.45-4.043.85-2.682.243-5.093-.254-6.913.85.883 1.264 2.074 1.49 3.332.22 1.22.298 2.736-.083 4.16-.645 2.433-1.887 4.242-3.238 5.699l-2.483 2.56.11.033z" fill="#9AB4C1"/></svg>