<svg width="33" height="36" fill="none" xmlns="http://www.w3.org/2000/svg"><path d="M2.404 23.093l.101-.057c.057-.031.133 0 .17.07l.674 1.152.309-.182-.58-.996c-.037-.069-.025-.15.026-.182l.1-.057c.057-.032.133 0 .177.063l.58.995.314-.182-.674-1.153c-.038-.07-.025-.145.025-.183l.101-.063c.057-.031.133-.006.177.07l.894 1.524c.038.07.025.151-.031.183l-1.323.774c-.057.032-.132 0-.17-.069l-.895-1.53c-.038-.064-.031-.14.025-.177zm1.076-1.644c.026.075-.006.151-.063.176l-1.448.485c-.063.02-.133-.025-.158-.1l-.088-.278c-.025-.075.006-.15.063-.176l.56-.189-.106-.315c-.057-.17-.164-.27-.372-.334l-.397-.12a.29.29 0 01-.183-.17l-.113-.34c-.025-.075.019-.107.095-.082l.566.164a.588.588 0 01.385.29c-.026-.151.069-.346.145-.466l.34-.517c.044-.069.1-.063.126.013l.113.334a.338.338 0 01-.031.258l-.24.365c-.107.158-.164.303-.1.492l.1.315.567-.19c.057-.018.126.026.151.102l.088.283zm-1.707-2.948c.378-.044.561-.252.51-.718-.05-.472-.276-.63-.654-.592-.378.044-.561.252-.51.718.05.472.277.636.654.592zm-.988-.548c-.089-.781.126-1.26.774-1.329.65-.07.964.346 1.052 1.128.088.78-.126 1.26-.775 1.329-.648.069-.963-.347-1.051-1.128zM2.67 13.79l-.031.29c-.006.075-.063.138-.132.132l-1.292-.139-.037.372c-.02.195.056.365.201.428l1.008.466c.063.032.1.114.094.195l-.031.309c-.006.07-.063.113-.113.088l-1.134-.516c-.372-.17-.416-.624-.366-1.065l.082-.762c.007-.07.07-.12.126-.113l1.525.163c.069.007.113.076.1.152zm-.487-1.714c.359.12.617.013.768-.434.151-.448.013-.693-.346-.813-.36-.12-.618-.013-.769.435-.151.447-.012.686.347.812zm-.662-.92c.252-.743.649-1.083 1.273-.875.617.208.724.724.472 1.468-.252.743-.649 1.09-1.272.875-.618-.214-.725-.724-.473-1.468zm1.046-2.11c-.056-.031-.069-.113-.025-.182l.75-1.285c.044-.07.113-.101.17-.07l.1.057c.057.032.07.113.026.183l-.53.907 1.122.661c.057.032.063.114.025.183l-.145.252c-.038.069-.113.1-.17.069l-1.323-.775zm1.506-2.324c-.05-.038-.05-.126 0-.182l.183-.227c.05-.063.132-.082.182-.044l1.197.957c.05.038.05.126 0 .19l-.176.22c-.05.063-.133.081-.177.044l-1.21-.958zM5.135 5.43c-.044-.05-.031-.131.032-.188l.214-.19c.063-.056.145-.062.19-.012l.276.309c.133.145.296.132.473-.025l.44-.397-.478-.523c-.044-.05-.032-.132.031-.183l.215-.189c.063-.056.144-.063.188-.012l1.027 1.134c.044.044.025.132-.031.182l-.214.19c-.057.05-.139.062-.183.012l-.321-.353-.441.397c-.41.372-.838.491-1.14.157l-.278-.308zm4.447-2.191l-.92.523.316.548c.031.057 0 .132-.07.17l-.252.145c-.069.038-.15.025-.182-.025L7.71 3.264c-.031-.056 0-.132.07-.176l.252-.139c.069-.038.15-.031.182.025l.278.48.92-.524-.278-.478c-.031-.057 0-.133.07-.17l.251-.139c.07-.044.151-.031.19.025l.761 1.33c.032.056 0 .132-.069.176l-.246.144c-.069.038-.15.026-.182-.025l-.328-.554zm3.428-.523c-.076.025-.158-.006-.171-.07l-.334-1.09-.434 1.324a.298.298 0 01-.183.176l-.485.151c-.076.025-.158-.006-.17-.07l-.447-1.467c-.02-.063.025-.126.107-.15l.258-.083c.075-.025.151.006.17.07l.359 1.177.479-1.43c.025-.069.094-.15.17-.17l.434-.132c.076-.025.152.006.17.07l.448 1.467c.019.063-.032.132-.107.151l-.265.076zM15.43.083c.02-.038.051-.07.101-.07l.126-.012c.057-.006.088.013.088.057.013.227-.182.378-.49.397-.31.025-.524-.101-.543-.328 0-.044.026-.063.082-.07l.126-.005c.05 0 .088.018.114.056.031.05.094.082.201.076.114-.006.17-.044.196-.1zm.668 2.224c-.082.006-.145-.045-.15-.108l-.083-1.14-.718 1.197a.31.31 0 01-.214.132l-.51.038c-.082.007-.151-.044-.151-.107L14.165.795c-.007-.07.056-.12.138-.126l.27-.019c.076-.006.146.038.152.1l.088 1.229.788-1.285a.297.297 0 01.201-.132l.454-.032c.075-.006.145.044.15.107l.108 1.525c.006.063-.057.12-.139.126l-.277.019zm4.356-1.222l.334.088c.41.113.806.41.712.756-.032.107-.151.1-.19.088l-.182-.05c-.082-.026-.145-.076-.176-.19-.038-.132-.133-.239-.315-.29l-.265-.068c-.44-.12-.592-.026-.699.371-.107.397-.025.554.416.674l.296.082c.182.05.315.006.416-.088a.245.245 0 01.245-.076l.177.05c.037.013.145.064.12.17-.095.347-.587.404-.996.29l-.359-.1c-.724-.196-1.027-.567-.87-1.16.158-.579.606-.749 1.336-.547zm4.028 1.814l-.05.1c-.032.057-.114.076-.183.038l-1.19-.61-.165.314 1.027.53c.07.037.107.113.076.17l-.05.1c-.032.057-.114.07-.183.038l-1.027-.529-.164.321 1.184.611c.07.038.101.107.076.164l-.057.107c-.031.057-.107.076-.182.038l-1.569-.813c-.075-.038-.107-.113-.075-.17l.699-1.36c.031-.057.113-.07.182-.032l1.575.813c.07.038.101.113.076.17zm1.201 1.146l-.428.523.434.353c.233.189.441.296.624.069.183-.22.038-.403-.195-.592l-.435-.353zm.788.195c.453.372.585.75.29 1.115-.303.366-.7.315-1.153-.056l-.574-.46-.176.214c-.038.05-.12.05-.183 0l-.227-.183c-.062-.05-.081-.132-.037-.182l.963-1.185c.045-.05.12-.05.183 0l.914.737zm2.677 2.86c.05.063.05.145 0 .183l-.088.075c-.05.044-.133.025-.183-.038l-.435-.529-1.008.82c-.05.037-.132.018-.182-.039l-.183-.226c-.05-.063-.05-.145 0-.183l1.008-.819-.435-.535c-.05-.063-.05-.145 0-.183l.088-.076c.05-.044.133-.025.183.038L29.148 7.1zm-.064 3.44c-.038-.07-.019-.152.038-.183l1.02-.517-1.38-.195a.314.314 0 01-.2-.145l-.234-.454c-.037-.075-.019-.15.038-.182l1.367-.693c.057-.032.132 0 .17.075l.126.24c.038.07.025.151-.032.182l-1.096.561 1.493.22a.32.32 0 01.202.133l.208.403c.038.07.019.151-.038.176l-1.367.693c-.057.025-.132-.006-.17-.075l-.145-.24zm1.349 2.575c.082.34.252.542.517.473.265-.063.327-.315.246-.655l-.763.182zm.63-.711c-.082-.34-.252-.536-.516-.473-.265.063-.328.315-.246.655l.762-.182zm.65.27c.018.082-.014.158-.083.17l-.12.026c.152.63.082 1.159-.434 1.285-.517.126-.819-.315-.97-.945l-.12.031c-.063.013-.126-.037-.145-.113l-.063-.277c-.019-.082.02-.158.082-.17l.12-.025c-.151-.63-.082-1.16.434-1.285.517-.126.82.315.97.944l.12-.025c.063-.019.126.038.145.114l.063.27zm.165 2.363c.063-.007.12.056.126.138l.019.29c.006.082-.044.151-.107.157l-1.53.088c-.064.007-.12-.062-.127-.144l-.012-.284c-.007-.082.044-.151.107-.151l1.524-.094zm-1.592 1.744c.007-.082.07-.138.133-.132l1.518.157c.063.007.113.076.1.158l-.031.29c-.006.075-.07.138-.132.132l-.586-.063-.032.328c-.018.176.038.314.202.453l.315.27a.27.27 0 01.094.234l-.037.353c-.007.082-.057.088-.12.031l-.447-.384a.557.557 0 01-.227-.422c-.038.151-.208.29-.328.365l-.529.334c-.069.044-.12.013-.107-.07l.038-.352a.336.336 0 01.139-.22l.371-.233c.158-.101.277-.208.296-.404l.032-.327-.592-.063c-.063-.006-.107-.076-.101-.158l.031-.277zm.159 3.616l-.308.926.61.201.14-.415c.062-.19.024-.372-.108-.466l-.334-.246zm.618-.24c.327.246.27.693.132 1.122l-.258.787c-.026.07-.095.107-.152.088l-1.454-.485c-.064-.019-.089-.1-.064-.176l.095-.277c.025-.076.094-.12.157-.101l.29.1.347-1.038-.265-.196a.181.181 0 01-.05-.208l.094-.29c.025-.075.088-.107.139-.062l.989.737zm-1.67 4.813c-.044.07-.12.1-.17.063l-.1-.057c-.057-.031-.07-.113-.026-.182l.347-.593-1.121-.66c-.057-.032-.064-.114-.026-.183l.145-.253c.038-.069.12-.1.17-.069l1.121.662.347-.593c.038-.069.113-.1.17-.062l.1.056c.057.032.07.114.026.183l-.983 1.688zM9.054 28.094l.22.133c.272.17.48.49.31.768-.057.088-.14.063-.164.044l-.114-.07c-.056-.03-.088-.087-.075-.188a.301.301 0 00-.151-.302l-.177-.108c-.29-.176-.434-.12-.63.196-.195.32-.182.472.107.648l.196.12c.12.076.233.063.334 0 .088-.057.15-.057.207-.019l.12.07c.025.018.088.081.038.17-.17.277-.548.239-.825.075l-.24-.145c-.478-.296-.592-.661-.302-1.14.29-.485.668-.548 1.146-.252zm.894 1.43c-.138.315-.088.548.233.693.322.145.53.025.668-.29.139-.315.088-.548-.233-.693-.321-.145-.53-.031-.668.29zm.794-.573c.542.24.75.598.51 1.146-.24.548-.649.63-1.19.397-.542-.24-.75-.598-.51-1.146.245-.548.648-.636 1.19-.397zm.871 1.745c.063.018.113.056.183.075l.019.006c.144.045.277-.018.384-.188l-.095-.026c-.384-.113-.51-.32-.56-.68l-.057-.44c-.006-.064.038-.102.095-.083l.232.07c.07.018.114.082.12.138l.038.34c.019.183.095.309.29.366l.132.037.36-.497c.043-.057.112-.076.17-.057l.226.07c.057.018.075.069.038.12l-.662.9c-.17.233-.396.359-.78.245l-.265-.081a.113.113 0 01-.076-.133l.038-.12a.104.104 0 01.132-.069l.038.007zm2.714.151c-.038.346.082.548.434.586.353.038.51-.139.549-.485.037-.34-.082-.548-.435-.586-.353-.032-.51.145-.548.485zm.58-.781c.585.063.894.34.837.932-.063.598-.422.8-1.008.743-.586-.063-.9-.34-.837-.932.063-.598.422-.806 1.007-.743zm2.625.195v.107c0 .063-.05.107-.107.107l-1.014.02.006.327.875-.02c.057 0 .114.045.114.102v.107a.11.11 0 01-.107.107l-.876.019.006.333 1.015-.025c.056 0 .107.044.107.101v.107a.106.106 0 01-.107.107l-1.342.032c-.063 0-.114-.045-.114-.107l-.031-1.399c0-.056.044-.107.107-.107l1.348-.031c.07.006.12.05.12.113zm1.356 1.329c-.056.013-.126-.025-.157-.075l-.586-1.021.183 1.084c.012.056-.032.113-.088.125l-.208.032c-.063.012-.12-.025-.126-.088l-.233-1.38a.111.111 0 01.088-.126l.466-.082c.063-.012.126.026.157.082l.498.895.183-1.008c.012-.057.063-.12.12-.126l.472-.082a.117.117 0 01.126.088l.233 1.38c.012.056-.032.113-.095.126l-.207.031c-.063.013-.12-.025-.127-.088l-.182-1.083-.227 1.159a.17.17 0 01-.126.126l-.164.031zm2.442-1.449c.139.353.36.397.586.309.227-.088.366-.264.227-.624-.139-.352-.36-.396-.586-.308-.227.088-.365.27-.227.623zm.145-.932c.429-.17.844-.12 1.071.46.227.58-.05.894-.479 1.058l-.075.032c-.429.163-.844.12-1.071-.46-.227-.58.05-.895.479-1.058l.075-.032zm1.344-.599c.056-.025.12-.006.144.045l.63 1.253c.026.05.007.12-.05.145l-.19.095c-.056.025-.119.006-.144-.045l-.491-.97-.076.145c-.019.032-.063.044-.1.032l-.127-.057c-.05-.025-.037-.063-.025-.1l.145-.34a.304.304 0 01.126-.127l.157-.075zm1.591-.144l-.069-.12c-.1-.164-.201-.151-.359-.056l-.145.088c-.157.094-.208.182-.132.302.076.126.176.107.334.013l.371-.227zm-.245.529c-.36.22-.636.246-.838-.076-.195-.32-.057-.56.302-.78l.214-.133c.353-.22.637-.246.857.12l.265.422c.24.378.094.623-.259.844l-.239.151c-.29.183-.605.176-.724-.013-.057-.088.006-.15.038-.17l.113-.075c.057-.032.107-.032.189.006.063.032.151.019.252-.044l.182-.113c.152-.095.202-.183.089-.366l-.026-.038-.415.265zM7.352 10.955a9.943 9.943 0 011.682-3.036 9.57 9.57 0 012.444-2.148 10.107 10.107 0 00-3.244 2.652c-.51.63-.938 1.31-1.285 2.015l.403.517zM6.99 12.31c.025-.146-.177-.209-.29-.41-.12-.22-.145-.567-.183-.466-1.543 4.12-.56 9 2.765 12.062.076.07.12.095.202.164 0 0 .554-.315.794-.479.239-.164.705-.51.705-.51a9.613 9.613 0 01-.983-.787c-2.651-2.445-3.69-6.148-3.01-9.575zm16.51 8.024c.176.044.428.1.642.132.177.026.366.026.517.013 1.827-3.603 1.55-8.031-.693-11.344 1.984 3.414 1.883 7.88-.466 11.2zm-.292 1.323s-.599-.233-.712-.12c-2.709 2.79-6.601 3.534-9.965 2.003 0 0-.378.315-.743.636-.353.315-.737.624-.737.624 4.056 2.35 9.234 1.455 12.37-2.419.221-.27.43-.554.618-.844.063-.094-.831.12-.831.12z" fill="#9AB4C1"/><path d="M26.856 20.076c-.214.29-.642.926-1.298 1.43-.642.497-1.996 1.499-3.905 1.6-.837.018-.856-.064-1.304-.12a13.239 13.239 0 01-3.798-1.537c-1.008-.491-1.99-.39-2.23-.132-.359.396-.661.686-.85.9-.743.807-4.775 4-5.449 4.599.07-.095.51-1.008.674-2.388 2.029-1.21 3.503-2.355 4.592-3.445.12-.114.265-.39.133-.611-.152-.781-.763-1.398-1.726-1.783-1.89-.75-3.496-1.72-4.34-3.08-.536-.819-.964-1.694-1.203-2.715-.75-3.168.031-4.529.201-4.856-.195 1.493.334 2.557 1.109 3.357.78.8 1.656 1.298 2.652 1.726 1.593.687 2.52 1.801 3.124 3.08.605 1.285.705 2.772.705 2.772-.182-.479-.529-1.317-.907-1.928-.422-.686-1.41-1.757-2.45-2.4-.92-.566-1.745-.85-2.362-1.36a6.623 6.623 0 01-1.927-2.696c.025.58.566 1.486.844 1.946 1.052 1.43 1.7 1.525 3.124 2.457 1.184.774 2.129 1.87 2.614 2.582.485.712 1.064 2.123.964 2.936 1.839-2.117 2.412-4.158 2.74-5.802.522-2.658.8-3.886 1.461-4.818.334-.504.548-.863 1.014-1.266.233-.202.334-.328.599-.435.201-.082.705-.246 1.392.006.932.088 2.368.151 3.615.403l-1.732-.018c-.611 0-1.65.138-1.99.182-1.027.082-1.74.643-2.3 1.537-.573.87-.881 2.01-1.404 4.661a13.018 13.018 0 01-2.381 5.783s1.467-.863 2.582-.769c1.115.095 2.816.794 2.816.794 1.688.8 2.475.831 3.13.85.655.02 1.55-.27 1.852-.41a5.344 5.344 0 01-2.834.108c-1.134-.265-2.59-1.134-3.238-1.367-2.066-.693-3.055-.233-3.055-.233s.7-.535 1.506-.8c1.518-.466 2.355.025 3.388.598.983.548 1.896 1.014 2.923 1.197 1.008.19 1.87-.088 2.93-.535zM7.657 35.117c.208 0 .296-.107.296-.327v-.87a.11.11 0 01.107-.107h.208c.057 0 .107.044.107.107v.87c0 .41-.24.648-.712.648h-.201c-.473 0-.712-.239-.712-.648v-.87a.11.11 0 01.107-.107h.208c.057 0 .107.044.107.107v.87c0 .22.095.327.296.327h.189zm1.429-.397h.718v-.585h-.322a.298.298 0 00-.296.227l-.1.358zm-.31-.466c.095-.352.417-.434.75-.434h.605c.057 0 .095.05.095.1v1.405a.11.11 0 01-.108.107h-.214a.106.106 0 01-.107-.107v-.283h-.8l-.075.283c-.02.057-.076.107-.133.107h-.22c-.063 0-.094-.044-.082-.107l.29-1.07zm1.708.964c0-.094.057-.15.152-.15h.138c.095 0 .151.056.151.15v.07c0 .094-.056.15-.15.15h-.14c-.094 0-.15-.056-.15-.15v-.07zm1.028-.592c0 .378.189.498.422.498.24 0 .422-.12.422-.498 0-.384-.189-.498-.422-.498-.24 0-.422.114-.422.498zm.46-.819c.447 0 .806.195.806.819 0 .617-.36.813-.806.813h-.076c-.447 0-.806-.196-.806-.813 0-.624.359-.819.806-.819h.076zm1.685.321c-.176 0-.264.038-.264.164s.088.164.264.164h.114c.176 0 .264-.044.264-.164 0-.126-.088-.164-.264-.164h-.114zm.17.99c.177 0 .271-.038.271-.177 0-.139-.088-.176-.27-.176h-.221c-.176 0-.265.044-.265.176s.089.176.265.176h.22zm0-1.31c.334 0 .63.125.63.465 0 .12-.038.208-.15.296.15.082.213.22.213.372 0 .328-.283.491-.642.491h-.322c-.358 0-.642-.163-.642-.491 0-.151.063-.29.214-.372-.113-.094-.15-.182-.15-.296 0-.34.295-.466.629-.466h.22zm.861 1.41c0-.094.056-.15.15-.15h.14c.094 0 .15.056.15.15v.07c0 .094-.056.15-.15.15h-.14c-.094 0-.15-.056-.15-.15v-.07zm1.025-.592c0 .378.19.498.423.498.239 0 .422-.12.422-.498 0-.384-.19-.498-.422-.498-.234 0-.422.114-.422.498zm.46-.819c.448 0 .807.195.807.819 0 .617-.36.813-.807.813h-.082c-.447 0-.806-.196-.806-.813 0-.624.36-.819.806-.819h.082zm1.374.819c0 .378.189.498.422.498.24 0 .422-.12.422-.498 0-.384-.189-.498-.422-.498-.233 0-.422.114-.422.498zm.466-.819c.447 0 .806.195.806.819 0 .617-.359.813-.806.813h-.082c-.447 0-.806-.196-.806-.813 0-.624.359-.819.806-.819h.082zm2.002.536c0-.17-.089-.22-.284-.22h-.082c-.138 0-.233.037-.283.138-.038.075-.088.107-.151.107h-.133c-.031 0-.113-.02-.113-.126 0-.271.334-.441.649-.441h.15c.372 0 .675.113.675.535 0 .649-1.052.51-1.052.769h.932c.057 0 .107.044.107.107v.107a.11.11 0 01-.107.107h-1.247a.106.106 0 01-.107-.107v-.164c-.013-.693 1.046-.498 1.046-.813zm.587.875c0-.094.056-.15.15-.15h.14c.094 0 .15.056.15.15v.07c0 .094-.056.15-.15.15h-.14c-.094 0-.15-.056-.15-.15v-.07zm1.31-1.09c-.139 0-.24.038-.29.139-.038.076-.088.107-.151.107h-.132c-.032 0-.114-.019-.114-.126 0-.27.334-.44.65-.44h.15c.378 0 .68.113.68.49a.4.4 0 01-.157.322.345.345 0 01.176.321c0 .365-.245.491-.648.491h-.24c-.315 0-.648-.17-.648-.447 0-.107.088-.126.113-.126h.132c.063 0 .12.025.164.126.038.082.138.132.277.132h.158c.176 0 .264-.037.264-.176 0-.132-.088-.17-.264-.17h-.202a.106.106 0 01-.107-.107v-.095c0-.056.044-.107.1-.107h.165c.195 0 .283-.044.283-.176 0-.126-.088-.17-.284-.17h-.075v.012zm1.668 0c-.139 0-.233.038-.284.139-.037.076-.088.107-.15.107h-.133c-.032 0-.113-.019-.113-.126 0-.27.333-.44.648-.44h.152c.377 0 .68.113.68.49a.4.4 0 01-.158.322.345.345 0 01.177.321c0 .365-.246.491-.655.491h-.24c-.315 0-.649-.17-.649-.447 0-.107.082-.126.114-.126h.132c.063 0 .12.025.164.126.038.082.139.132.277.132h.164c.176 0 .264-.037.264-.176 0-.132-.088-.17-.264-.17h-.202a.106.106 0 01-.107-.107v-.095c0-.056.044-.107.101-.107h.164c.195 0 .283-.044.283-.176 0-.126-.088-.17-.283-.17h-.082v.012zm1.661 0c-.138 0-.232.038-.283.139-.038.076-.088.107-.151.107h-.132c-.032 0-.114-.019-.114-.126 0-.27.334-.44.649-.44h.157c.378 0 .68.113.68.49a.4.4 0 01-.157.322.345.345 0 01.177.321c0 .365-.246.491-.655.491h-.24c-.315 0-.649-.17-.649-.447 0-.107.089-.126.114-.126h.132c.063 0 .12.025.164.126.038.082.138.132.277.132h.157c.177 0 .265-.037.265-.176 0-.132-.088-.17-.265-.17h-.201a.106.106 0 01-.107-.107v-.095c0-.056.044-.107.1-.107h.164c.202 0 .284-.044.284-.176 0-.126-.088-.17-.284-.17h-.082v.012z" fill="#9AB4C1"/></svg>