<svg width="70" height="25" fill="none" xmlns="http://www.w3.org/2000/svg"><path d="M69.243 20.96a2.921 2.921 0 01-2.916 2.917H23.21V1.745h43.118a2.921 2.921 0 012.916 2.916v16.3zm-50.76-4.062s-.86.788-1.177 1.013c-.379.256-1.32.83-2.947 1.075-.42.061-1.259.051-1.678 0-1.412-.164-4.594-1.105-4.594-1.105v-4.758h5.658c.338 0 .604.276.604.614v.849a.605.605 0 01-.604.604h-2.333s.655.644 1.197.951c.348.195 1.126.41 1.525.44.276.02.849-.02 1.105-.122.337-.144 1.105-.952 1.105-.952l.634-.583a.403.403 0 01.594.04l.972 1.228a.513.513 0 01-.062.706zm-10.99 2.108H5.426V12.51h2.067v6.497zm4.318-10.078c.43-1.085 1.085-2.036 1.719-3.008.276-.42.48-.44.757-.01.379.593 1.586 2.619 1.75 3.069.368 1.033.071 2.067-.747 2.68a2.349 2.349 0 01-2.793-.03c-.819-.634-1.095-1.678-.686-2.701zM66.327.978H4.505A3.679 3.679 0 00.832 4.66v16.3a3.67 3.67 0 003.673 3.673h61.822A3.677 3.677 0 0070 20.96V4.66A3.68 3.68 0 0066.327.977z" fill="#9AB4C1"/><path d="M29.315 5.326v2.568h-.583V5.807h-.91v2.087h-.584V5.326h2.077zm1.078 1.197c.052.01.113.02.195.02.307 0 .501-.153.501-.419 0-.235-.164-.379-.45-.379-.123 0-.205.01-.246.021v.757zm-.573-1.156c.184-.03.43-.051.788-.051.358 0 .614.071.788.204a.765.765 0 01.276.594c0 .256-.082.46-.235.614-.194.184-.491.266-.84.266-.07 0-.142 0-.194-.01v.92h-.572V5.367h-.01zm2.702 1.248c0 .502.235.86.624.86s.614-.379.614-.87c0-.46-.225-.86-.624-.86-.379 0-.614.38-.614.87zm1.862-.03c0 .839-.512 1.35-1.259 1.35-.757 0-1.207-.573-1.207-1.31 0-.767.491-1.35 1.248-1.35.788.01 1.218.604 1.218 1.31zm1.184-.44c0 .296-.041.583-.113.849a1.858 1.858 0 01-.184.43h.86V5.797h-.563v.348zm1.146-.819v2.108l.255.02-.03 1.095h-.44l-.031-.655h-1.504l-.03.655h-.44l-.021-1.095.215-.02c.102-.184.184-.368.245-.573a3.17 3.17 0 00.102-.85v-.685h1.679zm.951 0l.379.9c.071.185.123.338.174.492h.01c.03-.113.082-.287.143-.502l.276-.9h.614l-.48 1.248c-.154.4-.318.788-.512 1.023-.174.215-.379.338-.686.338a.707.707 0 01-.286-.041l.04-.47c.042.01.103.02.195.02a.385.385 0 00.348-.246c.02-.04.01-.082-.01-.123L37 5.295h.665v.031zm2.405 0V6.39h.05l.706-1.064h.706l-.9 1.136c.327.082.48.317.593.624.092.276.174.553.297.808h-.624c-.092-.174-.133-.378-.195-.562-.092-.287-.204-.512-.521-.512h-.113v1.074h-.573V5.326h.573zm2.295.491h-.685v-.49h1.974v.49h-.706v2.077h-.583V5.817zm2.957-.491v.993h.951v-.993h.583v2.568h-.583V6.82h-.952v1.074h-.583V5.326h.584zm3.57 1.484h-.942v.614h1.054v.47h-1.637V5.326h1.586v.481H47.95v.532h.942v.47zm3.456.102a32.17 32.17 0 01-.02-1.054h-.01a13.26 13.26 0 01-.287.993l-.318 1.002h-.45l-.276-.992a12.102 12.102 0 01-.235-1.003h-.01c-.01.348-.031.747-.042 1.064l-.04.983h-.543l.164-2.569h.778l.255.86c.082.297.164.614.215.92h.01c.072-.296.164-.634.246-.92l.276-.85h.757l.144 2.569h-.563l-.051-1.003zm1.638-1.586h-.584v2.568h.584V5.326zm2.394 2.497c-.102.05-.347.112-.654.112-.89 0-1.351-.552-1.351-1.289 0-.88.624-1.36 1.402-1.36.297 0 .532.06.634.112l-.123.46a1.272 1.272 0 00-.49-.092c-.461 0-.82.276-.82.85 0 .51.308.838.83.838.173 0 .368-.04.48-.082l.093.45zm.954-2.006h-.686v-.49h1.975v.49h-.706v2.077h-.583V5.817zm2.126-.491v.767c0 .41-.01.819-.031 1.167h.02c.133-.297.307-.645.46-.91l.553-1.014h.593v2.569h-.532v-.758c0-.399.01-.747.041-1.084h-.01a9.39 9.39 0 01-.43.91l-.521.932h-.666V5.336h.522v-.01zm2.6.491h-.685v-.49h1.975v.49h-.706v2.077h-.584V5.817zm2.17 1.658c.06.01.132.01.214.01.287 0 .512-.133.512-.43 0-.296-.225-.42-.502-.42-.081 0-.153.011-.225.011v.829zm.01-2.149v.89c.081-.01.204-.02.306-.02.553 0 1.024.266 1.024.839 0 .245-.082.43-.205.563-.246.255-.675.327-1.085.327-.286 0-.501-.02-.624-.04v-2.56h.584zM27.681 10.8h.133c.205 0 .328-.051.328-.174 0-.102-.082-.174-.287-.174-.072 0-.113.01-.174.01v.338zm0 .696c.051.01.092.01.174.01.174 0 .348-.051.348-.204 0-.144-.133-.205-.369-.205h-.143v.399h-.01zm-.501-1.32c.122-.02.399-.04.654-.04.277 0 .799.03.799.419 0 .204-.164.317-.328.348v.01c.246.04.4.174.4.399 0 .46-.625.501-.963.501-.225 0-.46-.01-.562-.03v-1.607zm2.71.839c-.266 0-.47.061-.47.256 0 .133.081.194.194.194a.267.267 0 00.255-.184c.01-.03.01-.051.01-.082v-.184h.011zm.051.768l-.03-.164h-.01c-.103.133-.277.194-.461.194-.328 0-.522-.235-.522-.501 0-.42.379-.624.951-.624v-.01c0-.082-.04-.205-.296-.205a.893.893 0 00-.45.123l-.093-.328c.113-.061.338-.143.625-.143.542 0 .716.317.716.696v.563c0 .153.01.306.02.388h-.45v.01zm1.187-1.617l.368.644h.051v-.644h.491v.644h.052l.368-.644h.552l-.562.696c.184.03.307.214.378.409.062.184.123.358.195.511h-.502c-.05-.081-.082-.204-.143-.368-.061-.174-.164-.276-.297-.276h-.04v.645h-.492v-.645h-.04c-.144 0-.236.092-.308.276-.061.174-.092.287-.143.369h-.501c.082-.154.133-.328.194-.512.072-.205.195-.379.379-.42l-.553-.685h.553zm2.587 0v.644h.062l.409-.644h.593l-.593.696c.194.04.317.214.41.45.05.133.112.327.194.48h-.522a2.516 2.516 0 01-.143-.357c-.072-.185-.174-.287-.338-.287h-.051v.645h-.502v-1.627h.481zm1.731 0v.491c0 .256-.01.44-.03.665h.01c.081-.184.122-.307.183-.46l.328-.696h.614v1.617h-.481v-.492c0-.255.01-.358.03-.706h-.01a4.384 4.384 0 01-.174.44c-.102.225-.225.512-.337.758h-.614v-1.617h.48zm1.893 0l.153.266c.041.082.092.164.133.245h.01c.041-.081.082-.173.123-.245l.143-.266h.553l-.532.767.542.85h-.573l-.164-.287-.122-.246h-.01l-.123.246-.154.287h-.552l.552-.83-.542-.787h.563zm2.055 0h.644l.174.614c.031.092.072.266.103.409h.01a9.14 9.14 0 01.133-.44l.184-.583h.634l.103 1.617h-.47l-.032-.645c0-.143-.01-.379-.02-.563h-.01c-.062.215-.072.266-.154.532l-.215.655h-.358l-.194-.645c-.041-.153-.092-.388-.133-.542h-.01c-.01.205-.01.43-.02.563l-.032.645h-.45l.113-1.617zm3.297.624c0-.123-.05-.327-.286-.327-.215 0-.297.194-.307.327h.593zm-.593.348c.02.205.225.307.46.307.175 0 .307-.02.45-.062l.062.338a1.482 1.482 0 01-.583.102c-.553 0-.87-.317-.87-.828 0-.41.256-.87.819-.87.522 0 .726.41.726.808 0 .082-.01.164-.02.195h-1.044v.01zm2.617-.972v.378h-.471v1.239h-.512v-1.239h-.47v-.378h1.453zm1.067.849c-.266 0-.47.061-.47.256 0 .133.081.194.194.194a.291.291 0 00.266-.184c.01-.03.01-.051.01-.082v-.184zm.062.768l-.031-.164h-.01c-.103.133-.266.194-.46.194-.328 0-.523-.235-.523-.501 0-.42.379-.624.952-.624v-.01c0-.082-.041-.205-.297-.205a.893.893 0 00-.45.123l-.092-.328c.112-.061.337-.143.634-.143.542 0 .716.317.716.696v.563c0 .153.01.306.02.388h-.46v.01zm2.248-1.617v1.617h-.501v-1.239h-.348v.297c0 .389-.051.665-.225.819-.102.112-.246.153-.47.153l-.052-.389c.072-.01.143-.04.174-.092.092-.092.102-.245.102-.522v-.644h1.32zm.399 0h.502v1.617h-.502v-1.617zm.522-.45c0 .143-.102.255-.276.255-.154 0-.266-.112-.256-.255 0-.144.102-.256.266-.256.154 0 .256.112.266.256zm.883 1.084h.133c.205 0 .327-.051.327-.174 0-.102-.081-.174-.286-.174-.072 0-.113.01-.174.01v.338zm0 .696c.051.01.092.01.174.01.174 0 .348-.051.348-.204 0-.144-.133-.205-.369-.205h-.143v.399h-.01zm-.502-1.32c.123-.02.4-.04.655-.04.277 0 .798.03.798.419 0 .204-.174.317-.327.348v.01c.246.04.4.174.4.399 0 .46-.625.501-.963.501-.225 0-.46-.01-.563-.03v-1.607zm1.633 2.005a5.27 5.27 0 00.236-.94l.511-.031c-.112.337-.255.685-.42.94l-.327.031zm2.951-.695c.245-.051.358-.256.358-.512 0-.255-.113-.45-.358-.501v1.013zm-.45-1.023c-.246.061-.359.266-.359.511 0 .266.113.45.359.512v-1.023zm.45-1.034v.706c.47.041.86.318.86.84 0 .521-.4.797-.86.828v.634h-.45v-.624c-.45-.04-.86-.307-.86-.829 0-.531.389-.798.86-.849V9.43h.45zm2.147 1.361c0-.123-.051-.327-.286-.327-.215 0-.297.194-.307.327h.593zm-.593.348c.02.205.225.307.46.307.174 0 .307-.02.45-.062l.062.338a1.482 1.482 0 01-.584.102c-.552 0-.87-.317-.87-.828 0-.41.257-.87.82-.87.521 0 .726.41.726.808a.79.79 0 01-.02.195h-1.044v.01zm1.86-.972v.583h.512v-.583h.511v1.617h-.511v-.645h-.512v.645h-.501v-1.617h.501zm1.855.808c0 .277.112.491.327.491.195 0 .318-.194.318-.49 0-.246-.093-.492-.318-.492-.245 0-.327.256-.327.491zm1.166-.02c0 .593-.42.87-.86.87-.47 0-.838-.318-.838-.84 0-.521.348-.859.87-.859.5 0 .828.348.828.829zm1.73-.788v1.617h-.501v-1.239h-.348v.297c0 .389-.051.665-.225.819-.103.112-.246.153-.471.153l-.051-.389c.072-.01.143-.04.174-.092.092-.092.102-.245.102-.522v-.644h1.32zm.399 0h.502v1.617h-.502v-1.617zm.522-.45c0 .143-.102.255-.276.255-.154 0-.266-.112-.256-.255 0-.144.102-.256.266-.256.164 0 .256.112.266.256zm.879 1.084h.133c.204 0 .327-.051.327-.174 0-.102-.082-.174-.286-.174-.072 0-.113.01-.174.01v.338zm-.01.696c.05.01.092.01.173.01.174 0 .348-.051.348-.204 0-.144-.133-.205-.368-.205h-.143v.399h-.01zm-.492-1.32c.123-.02.4-.04.655-.04.276 0 .809.03.809.419 0 .204-.174.317-.328.348v.01c.246.04.4.174.4.399 0 .46-.625.501-.963.501-.225 0-.46-.01-.562-.03v-1.607h-.01zm1.637 2.005a5.39 5.39 0 00.236-.94l.511-.031c-.112.337-.256.685-.42.94l-.327.031zm-37.03 2.814c-.266 0-.47.062-.47.256 0 .133.08.194.194.194a.267.267 0 00.255-.184c.01-.03.01-.05.01-.081v-.185h.01zm.061.768l-.03-.164h-.01c-.103.133-.277.194-.461.194-.328 0-.522-.235-.522-.49 0-.42.379-.625.952-.625v-.02c0-.082-.041-.205-.297-.205a.893.893 0 00-.45.123l-.093-.328c.113-.061.338-.143.625-.143.542 0 .716.317.716.696v.563c0 .153.01.307.02.388h-.45v.01zm2.241-1.617v1.617h-.501v-1.238H29.5v.296c0 .39-.051.666-.225.82-.103.112-.246.153-.47.153l-.052-.39a.29.29 0 00.184-.091c.092-.092.102-.246.102-.522v-.655h1.31v.01zm.912 0v.645h.061l.41-.645h.593l-.593.696c.194.04.307.215.41.45.05.133.112.328.194.47h-.522a2.516 2.516 0 01-.144-.357c-.071-.184-.174-.287-.337-.287h-.051v.645h-.502v-1.617h.481zm1.248 0h.502v1.617h-.501v-1.617zm.523-.46c0 .143-.103.255-.277.255-.153 0-.266-.112-.255-.255 0-.144.102-.256.266-.256.163 0 .266.112.266.256zm1.797.46v1.617h-.5v-1.238h-.349v.296c0 .39-.05.666-.225.82-.102.112-.245.153-.47.153l-.052-.39c.072-.01.144-.04.174-.091.092-.092.103-.246.103-.522v-.655h1.32v.01zm1.619 1.31c.245-.051.358-.256.358-.512s-.113-.45-.358-.501v1.013zm-.45-1.013c-.246.061-.358.266-.358.511 0 .266.112.45.358.512v-1.023zm.45-1.034v.706c.46.041.86.317.86.84 0 .521-.4.797-.86.828v.635h-.46v-.625c-.45-.04-.86-.307-.86-.828 0-.533.389-.809.86-.85v-.706h.46zm2.149 1.361c0-.122-.051-.327-.287-.327-.215 0-.296.194-.307.327h.594zm-.594.338c.02.215.225.307.46.307.175 0 .308-.02.451-.061l.061.337a1.695 1.695 0 01-.583.102c-.552 0-.87-.317-.87-.828 0-.41.256-.87.819-.87.522 0 .727.41.727.808 0 .082-.01.164-.021.195h-1.044v.01zm1.865-.962v.583h.511v-.583h.512v1.617h-.512v-.645h-.511v.645h-.502v-1.617h.502zm1.848.798c0 .276.113.491.328.491.194 0 .317-.194.317-.49 0-.246-.092-.492-.317-.492-.246.01-.328.256-.328.491zm1.167-.01c0 .593-.42.87-.85.87-.47 0-.839-.318-.839-.84 0-.521.348-.859.87-.859.491 0 .819.338.819.829zm1.72-.788v1.617h-.501v-1.238h-.348v.296c0 .39-.051.666-.225.82-.103.112-.246.153-.471.153l-.051-.39c.071-.01.143-.04.174-.091.092-.092.102-.246.102-.522v-.655h1.32v.01zm1.392.624c0-.122-.05-.327-.286-.327-.215 0-.297.194-.307.327h.593zm-.593.338c.02.215.225.307.46.307.174 0 .307-.02.45-.061l.062.337a1.695 1.695 0 01-.583.102c-.553 0-.87-.317-.87-.828 0-.41.256-.87.818-.87.522 0 .727.41.727.808a.79.79 0 01-.02.195h-1.044v.01zm2.62-.962v.379h-.47v1.238h-.512v-1.238h-.47v-.379h1.452zm.624.798c0 .276.112.491.327.491.195 0 .317-.194.317-.49 0-.246-.092-.492-.317-.492-.235.01-.327.256-.327.491zm1.166-.01c0 .593-.42.87-.849.87-.47 0-.839-.318-.839-.84 0-.521.348-.859.87-.859.49 0 .818.338.818.829zm.817-.788v.645h.06l.41-.645h.593l-.593.696c.194.04.307.215.41.45.05.133.112.328.194.47h-.522a2.504 2.504 0 01-.143-.357c-.072-.184-.174-.287-.338-.287h-.051v.645h-.502v-1.617h.481zm2.457 1.576a1.23 1.23 0 01-.45.071c-.522 0-.86-.317-.86-.828 0-.471.328-.86.931-.86.134 0 .277.02.39.061l-.083.38a.65.65 0 00-.286-.052c-.266 0-.44.184-.43.45 0 .297.195.46.44.46.123 0 .215-.02.287-.05l.061.368zm.748-1.576v.491c0 .256-.01.44-.03.655h.01c.071-.184.122-.307.184-.46l.317-.696h.614v1.617h-.481v-.492c0-.255.01-.358.03-.705h-.01a4.37 4.37 0 01-.174.44c-.102.225-.225.5-.337.757h-.614v-1.617h.49v.01zm2.925 0v1.617h-.501v-1.238h-.348v.296c0 .39-.051.666-.225.82-.102.112-.246.153-.47.153l-.052-.39a.29.29 0 00.184-.091c.092-.092.103-.246.103-.522v-.655h1.31v.01zm1.257.849c-.267 0-.471.062-.471.256 0 .133.082.194.194.194a.291.291 0 00.266-.184c.01-.03.01-.05.01-.081v-.185zm.06.768l-.03-.164h-.01c-.102.133-.266.194-.46.194-.328 0-.522-.235-.522-.49 0-.42.378-.625.951-.625v-.02c0-.082-.04-.205-.297-.205a.893.893 0 00-.45.123l-.092-.328c.113-.061.338-.143.635-.143.542 0 .716.317.716.696v.563c0 .153.01.307.02.388h-.46v.01zm2.079-1.617v.379h-.47v1.238h-.512v-1.238h-.47v-.379h1.452zm.224 0h.501v1.617h-.501v-1.617zm.522-.46c0 .143-.103.255-.277.255-.163 0-.266-.112-.266-.255 0-.144.103-.256.266-.256.164 0 .266.112.277.256zm.879 1.084h.133c.205 0 .328-.05.328-.174 0-.102-.082-.174-.287-.174-.072 0-.112.01-.174.01v.338zm0 .706c.051.01.092.01.174.01.174 0 .348-.05.348-.214 0-.133-.133-.205-.368-.205h-.144v.41h-.01zm-.501-1.32c.123-.02.399-.04.655-.04.276 0 .798.03.798.409 0 .204-.164.317-.328.348v.01c.246.04.4.174.4.399 0 .46-.625.501-.962.501-.226 0-.46-.02-.574-.03v-1.597h.01zm1.65 1.995a5.28 5.28 0 00.235-.94l.512-.032c-.113.338-.256.686-.42.942l-.327.03zm-34.882 2.825c-.266 0-.47.061-.47.255 0 .133.08.195.194.195a.267.267 0 00.255-.184c.01-.031.01-.052.01-.082v-.184h.01zm.061.767l-.03-.164h-.01a.575.575 0 01-.461.205c-.328 0-.522-.235-.522-.501 0-.42.379-.625.952-.625v-.02c0-.082-.041-.205-.297-.205a.893.893 0 00-.45.123l-.093-.327c.113-.062.338-.144.625-.144.542 0 .716.318.716.696v.563c0 .153.01.307.02.389h-.45v.01zm.881-1.627h.645l.173.614c.031.092.072.266.103.41h.01c.03-.113.082-.287.133-.44l.184-.574h.635l.102 1.617h-.47l-.031-.645c0-.143-.01-.378-.02-.562h-.011c-.062.214-.072.266-.154.532l-.214.665h-.369l-.194-.645c-.041-.153-.092-.389-.133-.542h-.01c-.01.204-.01.43-.02.563l-.032.644h-.45l.123-1.637zm2.322 0h.501v1.617h-.501v-1.617zm.521-.45c0 .143-.102.256-.276.256-.163 0-.266-.113-.255-.256 0-.143.102-.256.265-.256.164 0 .267.113.267.256zm1.25 1.31c-.266 0-.47.061-.47.255 0 .133.091.195.194.195a.267.267 0 00.255-.184c.01-.031.01-.052.01-.082v-.184h.01zm.061.767l-.03-.164h-.01a.575.575 0 01-.461.205c-.328 0-.522-.235-.522-.501 0-.42.379-.625.952-.625v-.02c0-.082-.051-.205-.297-.205a.893.893 0 00-.45.123l-.092-.327c.112-.062.337-.144.624-.144.542 0 .716.318.716.696v.563c0 .153.01.307.02.389h-.45v.01zm1.33-1.627v.645h.061l.41-.645h.593l-.593.696c.194.04.307.215.409.45.051.133.113.328.194.47h-.542a2.513 2.513 0 01-.143-.357c-.072-.184-.174-.287-.338-.287h-.051v.645h-.501v-1.617h.501zm1.679 0l.245.798c.03.092.062.215.082.297h.01c.02-.082.051-.215.072-.297l.194-.798h.543l-.379 1.064c-.235.645-.389.9-.573 1.064a.941.941 0 01-.491.226l-.102-.43a.708.708 0 00.214-.082.56.56 0 00.205-.205c.02-.02.03-.05.03-.071 0-.02 0-.041-.02-.082l-.593-1.484h.563zm1.105 1.351c0-.174.123-.307.296-.307.174 0 .297.122.297.307 0 .174-.123.307-.297.307-.173 0-.296-.133-.296-.307z" fill="#9AB4C1"/></svg>