<svg width="46" height="46" fill="none" xmlns="http://www.w3.org/2000/svg"><path d="M46 46H0V0h46v46zM.732 45.257h44.536V.743H.732v44.514z" fill="url(#paint0_linear)"/><path d="M45.275 22.602H.725v10.7h44.55v-10.7z" fill="url(#paint1_linear)"/><path d="M45.275 14.338H.725v4.457h44.55v-4.457z" fill="url(#paint2_linear)"/><path d="M45.275 0H.725v10.904h44.55V0z" fill="url(#paint3_linear)"/><path d="M3.563 36.047h1.408v2.878l2.221-2.878h1.595l-2.239 2.837 2.54 3.863H7.422l-1.756-2.715-.696.906v1.812H3.563v-6.703zm9.087-.141c2.43 0 3.52 1.912 3.52 3.49 0 1.902-1.416 3.492-3.52 3.492-2.231 0-3.548-1.642-3.548-3.491 0-1.88 1.39-3.491 3.548-3.491zm-.007 5.675c1.218 0 2.063-.955 2.063-2.184 0-1.066-.713-2.184-2.063-2.184-1.2 0-2.07.906-2.07 2.184-.004 1.07.702 2.184 2.07 2.184zm4.719 1.169v-6.703h1.409v5.392h2.528v1.308h-3.937v.003zm7.851-6.844c2.43 0 3.52 1.912 3.52 3.49 0 1.902-1.416 3.492-3.52 3.492-2.231 0-3.548-1.642-3.548-3.491 0-1.88 1.386-3.491 3.548-3.491zm-.01 5.675c1.217 0 2.063-.955 2.063-2.184 0-1.066-.714-2.184-2.064-2.184-1.2 0-2.07.906-2.07 2.184 0 1.07.702 2.184 2.07 2.184zm6.127 1.169h-1.405v-6.703h1.994c1.456.011 2.476.776 2.476 2.154 0 1.066-.527 1.59-1.328 1.85l2.012 2.696h-1.723l-1.833-2.455h-.186v2.458h-.007zm0-3.766h.563c.684 0 1.02-.24 1.02-.824 0-.401-.266-.806-.852-.806h-.731v1.63zm4.565-2.937h1.409v6.7h-1.409v-6.7zm3.695 1.311h-1.437V36.05h4.284v1.307h-1.438v5.392h-1.408v-5.392z" opacity=".7" fill="#7E8283"/><defs><linearGradient id="paint0_linear" x1="0" y1="23" x2="46" y2="23" gradientUnits="userSpaceOnUse"><stop stop-color="#966B34"/><stop offset=".5" stop-color="#D1B173"/><stop offset="1" stop-color="#966B34"/></linearGradient><linearGradient id="paint1_linear" x1=".724" y1="27.951" x2="45.276" y2="27.951" gradientUnits="userSpaceOnUse"><stop stop-color="#966B34"/><stop offset=".5" stop-color="#D1B173"/><stop offset="1" stop-color="#966B34"/></linearGradient><linearGradient id="paint2_linear" x1=".724" y1="16.565" x2="45.276" y2="16.565" gradientUnits="userSpaceOnUse"><stop stop-color="#966B34"/><stop offset=".5" stop-color="#D1B173"/><stop offset="1" stop-color="#966B34"/></linearGradient><linearGradient id="paint3_linear" x1=".724" y1="5.452" x2="45.276" y2="5.452" gradientUnits="userSpaceOnUse"><stop stop-color="#966B34"/><stop offset=".5" stop-color="#D1B173"/><stop offset="1" stop-color="#966B34"/></linearGradient></defs></svg>