<svg width="9" height="10" fill="none" xmlns="http://www.w3.org/2000/svg"><path d="M8.735 2.947a4.744 4.744 0 00-1.06-1.596A4.89 4.89 0 006.077.29 5.406 5.406 0 005.17.017a.209.209 0 00-.24.164.209.209 0 00.164.24 4.269 4.269 0 012.285 1.214c.416.416.744.908.973 1.454.11.274.197.547.24.832a.199.199 0 00.198.164h.033a.209.209 0 00.164-.241 3.935 3.935 0 00-.252-.897zm-1.641.656c.088.219.154.438.186.667a.2.2 0 00.197.175h.033c.11-.022.186-.12.164-.23a3.78 3.78 0 00-.208-.765 3.492 3.492 0 00-.754-1.148 3.229 3.229 0 00-1.149-.755 3.098 3.098 0 00-.754-.207.193.193 0 00-.23.164c-.01.11.055.218.164.23.23.032.46.098.667.185.383.153.722.383 1.006.667.285.285.525.646.678 1.017zm-2.875-.754a.205.205 0 00.186.219c.404.032.776.207 1.06.492.285.284.46.656.492 1.06.011.11.099.186.208.186h.022a.204.204 0 00.186-.218 2.077 2.077 0 00-.612-1.313c-.35-.35-.82-.568-1.313-.612-.12-.01-.218.066-.23.186z" fill="#C11426"/><path d="M8.625 6.61a2.06 2.06 0 00-.503-.273 10.241 10.241 0 00-1.552-.47c-.164-.033-.394-.099-.624-.011-.175.066-.284.197-.382.317-.033.044-.077.088-.11.131-.087.088-.328.044-.623-.12-.34-.175-.744-.492-1.126-.875-.372-.372-.7-.787-.875-1.126-.164-.295-.208-.536-.12-.623.032-.033.076-.066.13-.11.12-.098.252-.208.318-.383.087-.23.033-.47-.011-.623-.11-.47-.252-1.017-.47-1.553a1.88 1.88 0 00-.274-.503C2.25.202 2.064.071 1.856.038c-.284-.054-.601.055-.918.328-.24.208-.448.46-.602.755a2.68 2.68 0 00-.306.919c-.11.743.077 1.563.58 2.515.426.82.973 1.574 1.63 2.23a9.666 9.666 0 002.23 1.63c.776.404 1.465.612 2.1.612a2.845 2.845 0 001.334-.339 2.86 2.86 0 00.754-.601c.274-.306.383-.624.328-.919a1.014 1.014 0 00-.36-.558z" fill="#C11426"/></svg>