<svg width="14" height="14" fill="none" xmlns="http://www.w3.org/2000/svg"><mask id="a" fill="#fff"><path d="M10.153 9.608a5.793 5.793 0 10-.545.545L13.455 14l.545-.545-3.847-3.847zm-4.35 1.207a5.012 5.012 0 115.012-5.012 5.018 5.018 0 01-5.012 5.012z"/></mask><path d="M10.153 9.608a5.793 5.793 0 10-.545.545L13.455 14l.545-.545-3.847-3.847zm-4.35 1.207a5.012 5.012 0 115.012-5.012 5.018 5.018 0 01-5.012 5.012z" fill="#17315B"/><path d="M10.153 9.608L9.4 8.949l-.616.704.662.662.707-.707zm-.545.545l.707-.707-.662-.662-.704.616.659.753zM13.455 14l-.707.707.707.707.707-.707-.707-.707zm.545-.545l.707.707.707-.707-.707-.707-.707.707zm-8.197-2.64v1h.001v-1zm5.012-5.012l1 .001h-1zm.09 4.463a6.793 6.793 0 001.673-4.812l-1.998.1A4.793 4.793 0 019.4 8.949l1.506 1.317zm1.673-4.812A6.793 6.793 0 0010.434.832l-1.366 1.46a4.793 4.793 0 011.512 3.262l1.998-.1zM10.434.832A6.793 6.793 0 005.68-.999l.033 2a4.793 4.793 0 013.355 1.292l1.366-1.46zM5.68-.999A6.793 6.793 0 00.99.99l1.414 1.414A4.793 4.793 0 015.714 1L5.68-1zM.99.99A6.793 6.793 0 00-1 5.68l2 .033a4.793 4.793 0 011.404-3.31L.99.99zM-1 5.68a6.793 6.793 0 001.832 4.754l1.46-1.366a4.793 4.793 0 01-1.291-3.355l-2-.033zm1.832 4.754a6.793 6.793 0 004.622 2.144l.1-1.998a4.793 4.793 0 01-3.261-1.512l-1.46 1.366zm4.622 2.144a6.793 6.793 0 004.812-1.672L8.95 9.4a4.793 4.793 0 01-3.395 1.18l-.1 1.998zM8.9 10.86l3.847 3.847 1.414-1.414-3.847-3.847L8.9 10.86zm5.261 3.847l.545-.545-1.414-1.414-.545.545 1.414 1.414zm.545-1.96L10.86 8.902l-1.414 1.414 3.847 3.847 1.414-1.414zM5.803 9.816a4.013 4.013 0 01-2.229-.676l-1.111 1.663a6.012 6.012 0 003.34 1.013v-2zM3.574 9.14a4.012 4.012 0 01-1.478-1.8L.25 8.103a6.012 6.012 0 002.214 2.698l1.111-1.663zm-1.478-1.8a4.012 4.012 0 01-.228-2.319l-1.961-.39a6.012 6.012 0 00.342 3.474l1.847-.766zm-.228-2.32a4.012 4.012 0 011.098-2.054L1.552 1.552A6.012 6.012 0 00-.093 4.63l1.961.39zm1.098-2.054A4.012 4.012 0 015.02 1.868L4.63-.093a6.012 6.012 0 00-3.078 1.645l1.414 1.414zM5.02 1.868a4.012 4.012 0 012.319.228L8.104.25A6.012 6.012 0 004.63-.093l.39 1.961zm2.319.228c.733.304 1.36.818 1.8 1.478l1.663-1.111A6.012 6.012 0 008.104.249l-.765 1.847zm1.8 1.478c.441.66.676 1.436.676 2.23h2a6.01 6.01 0 00-1.013-3.341L9.139 3.574zm.676 2.228a4.018 4.018 0 01-1.177 2.836l1.415 1.415a6.018 6.018 0 001.762-4.249l-2-.002zM8.638 8.638a4.018 4.018 0 01-2.836 1.177l.002 2a6.018 6.018 0 004.249-1.762L8.638 8.638z" fill="#000C31" mask="url(#a)"/></svg>