<svg width="95" height="38" fill="none" xmlns="http://www.w3.org/2000/svg"><path d="M37.448 17.588h.378c.042.821.392 1.498 1.063 2.017.672.518 1.511.792 2.518.792.98 0 1.79-.26 2.42-.778.63-.518.938-1.18.938-1.988 0-.633-.21-1.138-.644-1.526-.434-.39-1.133-.706-2.112-.951l-1.273-.332c-1.035-.259-1.79-.619-2.267-1.051-.475-.432-.713-1.008-.713-1.7 0-.85.35-1.57 1.035-2.146.686-.576 1.525-.864 2.49-.864 1.022 0 1.875.273 2.574.82.7.548 1.064 1.225 1.092 2.032h-.378c-.042-.706-.364-1.297-.994-1.772-.615-.475-1.384-.706-2.294-.706-.881 0-1.623.245-2.224.75-.616.503-.91 1.123-.91 1.886 0 .605.21 1.08.644 1.455.434.375 1.12.677 2.07.922l1.26.317c1.049.274 1.832.634 2.308 1.08.49.447.727 1.037.727 1.758 0 .921-.35 1.67-1.049 2.261-.7.59-1.595.879-2.714.879s-2.042-.303-2.784-.893c-.727-.576-1.133-1.34-1.16-2.262zm19.599-8.355V20.6h-.377V10.14h-.028l-4.463 10.458h-.406L47.311 10.14h-.028v10.458h-.378V9.233h.406l4.658 10.876h.028l4.63-10.876h.42zm9.974 11.366l-1.44-3.947h-5.135l-1.469 3.947h-.42L62.81 9.233h.392L67.455 20.6h-.434zM62.992 9.766l-2.406 6.511h4.854l-2.406-6.51h-.042zm6.338 5.864v4.969h-.391V9.233h3.427c1.105 0 1.972.288 2.602.85.63.576.951 1.354.951 2.348 0 .836-.238 1.527-.7 2.075-.461.547-1.118.907-1.944 1.051l2.91 5.042h-.434l-2.882-4.984c-.181.014-.35.014-.503.014H69.33zm0-6.036v5.675h3.036c.98 0 1.763-.26 2.322-.763.56-.505.84-1.196.84-2.075 0-.893-.28-1.584-.84-2.088-.56-.505-1.343-.75-2.336-.75H69.33zm11.961 11.005h-.377V9.608h-3.987v-.375h8.337v.375h-3.987l.014 10.99zM42.4 21.752c1.484 0 2.673.532 3.54 1.584.881 1.052 1.315 2.478 1.315 4.264s-.434 3.212-1.315 4.264c-.881 1.051-2.056 1.584-3.553 1.584-1.497 0-2.672-.533-3.553-1.584-.882-1.052-1.315-2.478-1.315-4.264s.433-3.198 1.315-4.264c.88-1.066 2.056-1.584 3.567-1.584zm0 .36c-1.37 0-2.461.49-3.273 1.483-.811.98-1.217 2.32-1.217 3.99 0 1.671.406 2.997 1.217 3.99.812.994 1.903 1.484 3.274 1.484 1.357 0 2.448-.49 3.26-1.483.81-.994 1.216-2.32 1.216-3.99 0-1.671-.405-2.997-1.217-3.99-.811-.98-1.902-1.484-3.26-1.484zm7.066 6.193v4.97h-.392V21.91h3.428c1.105 0 1.972.288 2.602.85.63.576.95 1.354.95 2.348 0 .835-.237 1.526-.699 2.074-.475.547-1.119.907-1.944 1.051l2.91 5.042h-.434l-2.882-4.984c-.182.014-.35.014-.503.014h-3.036zm0-6.035v5.675h3.036c.979 0 1.762-.259 2.322-.763s.84-1.196.84-2.074c0-.894-.28-1.585-.84-2.09-.56-.503-1.343-.748-2.336-.748h-3.022zm16.256 11.005l-1.441-3.947h-5.134l-1.455 3.947h-.42l4.253-11.365h.392l4.253 11.365h-.448zm-4.015-10.832l-2.42 6.51h4.854l-2.406-6.51h-.028zm6.323 10.832h-.392V21.91h.42l7.33 10.616h.028V21.91h.377v11.365h-.35l-7.386-10.703h-.028v10.703zm18.745-4.451c0 1.426-.392 2.55-1.175 3.37-.784.822-1.86 1.225-3.218 1.225-.923 0-1.748-.245-2.476-.749-.727-.49-1.287-1.196-1.678-2.089-.406-.893-.602-1.93-.602-3.082 0-1.729.434-3.126 1.315-4.178.867-1.051 2.028-1.584 3.455-1.584 1.091 0 2.029.317 2.826.936.797.62 1.287 1.426 1.497 2.435h-.378a3.721 3.721 0 00-1.399-2.176c-.713-.547-1.566-.82-2.546-.82-1.315 0-2.378.49-3.175 1.483-.798.994-1.19 2.29-1.19 3.918 0 1.642.406 2.982 1.218 4.005.811 1.022 1.86 1.541 3.161 1.541 1.245 0 2.225-.374 2.938-1.124.713-.749 1.077-1.786 1.077-3.082v-.793h-4.057v-.36h4.435v1.124h-.028zM95 32.9v.375h-6.322V21.91H95v.374h-5.932v4.984h5.666v.36H89.07v5.287h5.932v-.014z" fill="#9AB4C1"/><path d="M32.3 24.517l-.14-.807 1.665-3.125-1.609-2.65.63-1.629-1.539-1.224-.21-3.313-3.021-1.397-.56-1.34-.895-.303-1.33-2.175-2.811.13-2.378-2.175-2.169.763-.699-.389-1.72.865-3.316-.735-1.33 1.44-.908-.13-1.301 2.06L4.965 9.58l-.783 3.414-.657.504-.042.764-.336.331.028.461-2.238 2.521.979 2.665-.812 1.556.854 1.555-.574 2.608 2.238 2.348.252 2.06 1.441.734 1.007 3.155 3.4.605 1.147 1.527 1.637-.058 2 1.513 2.588-1.009L19.99 38l1.245-1.095 1.119.23 1.833-2.102 3.273-.404.853-2.204.616-.273.56-1.859 2.951-2.03-.363-3.386.223-.36z" fill="#727376"/><path d="M28.831 27.628l-.727 1.499 1.454-3.285-.727 1.787z" fill="#898A8D"/><path d="M23.682 34.11l-1.02.418 2.909-2.19-1.889 1.773z" fill="#A0A1A3"/><path d="M31.489 18.856l-1.231-3.976 1.119 2.103.112 1.873z" fill="#8D8E91"/><path d="M10.197 34.212l-1.077-.62 3.567 1.311-2.49-.691z" fill="#6C6E70"/><path d="M32.3 24.517l-1.063 1.6.756-3.573.308 1.973z" fill="#F2F2F2"/><path d="M3.174 16.22l-.028-1.628 1.777-1.786-1.749 3.414z" fill="#E5E5E5"/><path d="M25.082 33.852l2.322-1.326 1.525-.374-3.847 1.7z" fill="#A0A0A0"/><path d="M28.93 32.152l-1.526.374 2.294-2.924-.769 2.55z" fill="#CCC"/><path d="M25.642 8.557l1.874.475.896 2.146-2.77-2.621z" fill="#D8D8D8"/><path d="M23.57 7.692l3.945 1.34-1.874-.475-2.07-.865z" fill="#F2F2F2"/><path d="M3.763 27.787l2.21 3.63-2.098-1.051-.112-2.579z" fill="#999"/><path d="M3.762 27.787l.112 2.578-.588-4.61.476 2.032z" fill="#A5A5A5"/><path d="M22.355 37.136l-3.918-.836 2.519.116 1.399.72z" fill="#BFBFBF"/><path d="M22.355 37.136l-1.399-.72 3.427-1.6-2.028 2.32z" fill="#D8D8D8"/><path d="M2.434 23.638l.854 2.118-2.183-3.962 1.33 1.844z" fill="#BFBFBF"/><path d="M2.127 19.793l.307 3.846-1.329-1.844 1.022-2.003z" fill="#D8D8D8"/><path d="M18.437 36.3l-3.931 1.542 2.658-1.182 1.273-.36z" fill="#CCC"/><path d="M20.102 4.509l3.469 3.183-1.371-.994-2.098-2.19zm13.724 16.076l-1.847-2.031-.587-1.96 2.434 3.99z" fill="#E5E5E5"/><path d="M31.979 18.553l-1.175-3.889.587 1.93.588 1.96z" fill="#808183"/><path d="M31.391 16.595l-.587-1.93.294-2.896.293 4.826z" fill="#D8D8D8"/><path d="M14.506 37.842l-1.469-1.887 4.127.705-2.658 1.182zm-.001-.001l-3.665-2.78 2.196.893 1.469 1.887z" fill="#999"/><path d="M11.526 6.828L9.302 8.182l2.896-3.169-.672 1.815z" fill="#F2F2F2"/><path d="M12.197 5.013l3.945.879-1.245.144-2.7-1.023z" fill="#F2F2F2"/><path d="M11.527 6.828l.672-1.815 2.7 1.023-3.372.792z" fill="#E5E5E5"/><path d="M18.507 5.877l1.595-1.368 2.098 2.19-3.693-.822z" fill="#F2F2F2"/><path d="M16.142 5.892l2.365-.015-3.61.159 1.245-.144z" fill="#9C9EA0"/><path d="M16.143 5.892l3.959-1.383-1.595 1.368-2.364.015z" fill="#E5E5E5"/><path d="M8.253 9.003l1.05-.82 2.223-1.355-3.273 2.175z" fill="#B9B9BA"/><path d="M8.252 9.003l-3.287.576 4.337-1.397-1.05.821z" fill="#E5E5E5"/><path d="M33.825 20.585l-1.902 1.426.056-3.457 1.846 2.03z" fill="#F2F2F2"/><path d="M31.979 24.085l-.056-2.074 1.902-1.427-1.846 3.5z" fill="#E5E5E5"/><path d="M20.956 36.415l2.252-1.267 1.175-.332-3.427 1.6z" fill="#BFBFBF"/><path d="M2.364 21.521l.07 2.118-.308-3.846.238 1.728z" fill="#A5A5A5"/><path d="M10.841 35.062l-1.58-.865 3.777 1.758-2.197-.893z" fill="#6E6F72"/><path d="M10.84 35.062l-4.518-.807 2.938-.058 1.58.865z" fill="#999"/><path d="M5.245 12.36l-.28-2.78 3.287-.577-3.007 3.356z" fill="#F2F2F2"/><path d="M5.245 12.36l-1.371 1.887L4.965 9.58l.28 2.78zm22.215-2.262l3.637 1.67-2.294.36-1.343-2.03z" fill="#E5E5E5"/><path d="M28.803 12.13l2.294-.361-.294 2.895-2-2.535z" fill="#F2F2F2"/><path d="M13.037 35.955l2.476.259 1.65.446-4.126-.705z" fill="#CCC"/><path d="M32.44 28.262l-1.329-3.27.868-.907.461 4.177z" fill="#D8D8D8"/><path d="M31.111 24.992l.812-2.981.056 2.074-.868.907z" fill="#CCC"/><path d="M3.413 15.932l.462-1.686 1.37-1.887-1.832 3.573z" fill="#B9BABA"/><path d="M3.413 15.932L.937 17.574l2.937-3.327-.461 1.685z" fill="#F2F2F2"/><path d="M18.507 5.877L22.2 6.7l-1.245.201-2.448-1.023z" fill="#CCC"/><path d="M20.956 6.9l1.245-.202 3.092-.144-4.337.346z" fill="#F2F2F2"/><path d="M11.527 6.828l3.372-.792-1.021.82-2.35-.028z" fill="#CCC"/><path d="M5.244 12.36l3.008-3.357-.98 1.599-2.028 1.757z" fill="#E5E5E5"/><path d="M6.574 31.071l2.686 3.126-2.938.058.252-3.184z" fill="#A5A5A5"/><path d="M6.574 31.072l-.252 3.183-1.468-4.638 1.72 1.455z" fill="#B2B2B2"/><path d="M32.44 28.263l-2.797-.245 1.468-3.025 1.33 3.27z" fill="#E5E5E5"/><path d="M28.999 30.64l.643-2.622 2.798.244L29 30.64z" fill="#F2F2F2"/><path d="M31.978 18.553l-.769.648 1.637-2.895-.868 2.247z" fill="#CCC"/><path d="M31.922 22.01l-.713-2.808.77-.648-.057 3.457z" fill="#D8D8D8"/><path d="M29.977 15.154l.826-.49 2.042 1.642-2.867-1.152z" fill="#E5E5E5"/><path d="M29.977 15.154l2.868 1.152-1.636 2.896-1.232-4.048z" fill="#F2F2F2"/><path d="M28.803 12.129l2 2.535-.825.49-1.175-3.025z" fill="#CCC"/><path d="M3.413 15.932l-.308 3.457-2.168-1.815 2.476-1.642z" fill="#D8D8D8"/><path d="M3.105 19.39l-.742 2.131-1.426-3.947 2.168 1.815z" fill="#B2B2B2"/><path d="M27.46 10.098l1.343 2.03-2.35-1.742 1.007-.288z" fill="#CCC"/><path d="M25.292 6.554l2.168 3.544-1.007.288-1.161-3.832z" fill="#E5E5E5"/><path d="M13.876 6.857l1.021-.821 2.336-1.153-3.357 1.974zM27.46 34.63l.112-3.976 1.427-.015-1.539 3.99z" fill="#D8D8D8"/><path d="M27.571 30.654l2.07-2.636-.643 2.621-1.427.015z" fill="#E5E5E5"/><path d="M19.99 38l-4.477-1.786 2.742-.605L19.989 38z" fill="#A5A5A5"/><path d="M19.99 38l-1.735-2.391 3.665-1.023L19.99 38z" fill="#CCC"/><path d="M19.99 38l1.93-3.414 1.288.562L19.99 38z" fill="#E5E5E5"/><path d="M23.207 35.148l1.665-2.247 2.588 1.728-4.253.519z" fill="#CCC"/><path d="M27.46 34.63l-2.588-1.73 2.7-2.247-.112 3.976z" fill="#E5E5E5"/><path d="M21.92 34.586l2.953-1.685-1.665 2.247-1.287-.562z" fill="#D8D8D8"/><path d="M4.601 27.124l.252 2.492-3.47-3.659 3.218 1.167z" fill="#B2B2B2"/><path d="M6.574 31.071l-1.72-1.455-.252-2.491 1.972 3.946zm-3.12-7.98l1.147 4.034-3.217-1.167 2.07-2.867z" fill="#999"/><path d="M3.455 23.091l-1.09-1.57.74-2.132.35 3.702z" fill="#D8D8D8"/><path d="M3.454 23.091l-2.07 2.867.979-4.437 1.091 1.57zM23.417 9.003l1.874-2.449 1.162 3.832-3.036-1.383z" fill="#F2F2F2"/><path d="M20.956 6.9l4.337-.346-1.875 2.449L20.956 6.9z" fill="#E5E5E5"/><path d="M10.057 9.55l-2.784 1.052L9.96 6.324l.098 3.226z" fill="#D8D8D8"/><path d="M15.514 36.214l-4.645.172 3.386-1.454 1.259 1.282z" fill="#A5A5A5"/><path d="M15.513 36.214l-1.26-1.282 4.002.677-2.742.605zm-6.492-4.077l.238 2.06-2.686-3.126 2.448 1.066z" fill="#999"/><path d="M9.022 32.137l1.847 4.25-1.609-2.19-.238-2.06z" fill="#BFBFBF"/><path d="M10.058 9.55L9.96 6.324l3.525 1.959-3.427 1.267z" fill="#E5E5E5"/><path d="M9.96 6.324l3.917.533-.392 1.426-3.525-1.96zm-6.435 7.174l1.021 3.918-1.133-1.484.112-2.434z" fill="#D8D8D8"/><path d="M4.545 17.415l-1.44 1.974.307-3.457 1.133 1.483z" fill="#BFBFBF"/><path d="M20.956 6.9l2.462 2.103-3.287-.677.825-1.426z" fill="#CCC"/><path d="M17.233 4.883L20.954 6.9l-.825 1.426-2.896-3.443z" fill="#D8D8D8"/><path d="M7.19 12.791l.084-2.19 2.784-1.05-2.868 3.24z" fill="#F2F2F2"/><path d="M7.19 12.792l-3.665.705 3.75-2.895-.084 2.19z" fill="#D8D8D8"/><path d="M13.876 6.857l3.357-1.974-.56 3.241-2.797-1.267z" fill="#F2F2F2"/><path d="M16.674 8.124l.56-3.24 2.895 3.442-3.455-.202zm-2.797-1.267l2.798 1.268-3.19.158.392-1.426zm16.101 8.297l1.231 4.048-2-1.57.77-2.478z" fill="#E5E5E5"/><path d="M29.209 17.631l2 1.57.882 2.91-2.882-4.48z" fill="#CCC"/><path d="M29.642 28.017l-.251-3.27 1.72.245-1.469 3.025z" fill="#D8D8D8"/><path d="M31.111 24.992l-1.72-.245 2.7-2.636-.98 2.881z" fill="#F2F2F2"/><path d="M26.453 10.386l2.35 1.743.308.302-2.658-2.045z" fill="#E5E5E5"/><path d="M29.11 12.432l.868 2.722-.77 2.478-.098-5.2z" fill="#D8D8D8"/><path d="M11.848 32.598l-.979 3.789-1.847-4.25 2.826.461z" fill="#A5A5A5"/><path d="M11.848 32.598l2.406 2.334-3.385 1.455.98-3.789z" fill="#BFBFBF"/><path d="M23.417 9.003l3.036 1.383-1.091 1.47-1.945-2.853z" fill="#E5E5E5"/><path d="M25.361 11.855l1.091-1.47 2.658 2.046-3.749-.576z" fill="#F2F2F2"/><path d="M18.255 35.609l1.44-2.089 2.225 1.066-3.665 1.023z" fill="#D8D8D8"/><path d="M18.256 35.609l-1.371.475 2.812-2.564-1.441 2.089z" fill="#E5E5E5"/><path d="M5.581 24.705l-.979 2.42-1.147-4.034 2.126 1.614z" fill="#BFBFBF"/><path d="M6.603 16.062l-2.056 1.354-1.022-3.918 3.078 2.564z" fill="#CCC"/><path d="M7.19 12.791l-.587 3.27-3.078-2.564 3.666-.706z" fill="#E5E5E5"/><path d="M24.872 32.9l.42-3.01 2.28.764-2.7 2.247z" fill="#D8D8D8"/><path d="M29.208 17.631l2.882 4.48-3.96-1.714 1.078-2.766z" fill="#F2F2F2"/><path d="M28.13 20.398l3.96 1.714-2.7 2.636-1.26-4.35zM10.059 9.55l3.427-1.267-.91 2.55L10.06 9.55z" fill="#D8D8D8"/><path d="M29.209 17.632l-1.078 2.765-1.399-4.624 2.477 1.859z" fill="#CCC"/><path d="M29.11 12.432l.099 5.2-2.477-1.858 2.379-3.342z" fill="#F2F2F2"/><path d="M25.361 11.855l3.75.577-2.379 3.342-1.37-3.918z" fill="#D8D8D8"/><path d="M5.72 29.53l3.302 2.607-2.448-1.066-.853-1.541zm-.14-4.825l.14 4.825-1.118-2.405.979-2.42z" fill="#A5A5A5"/><path d="M15.555 32.8l1.329 3.284-2.63-1.152 1.3-2.132z" fill="#B2B2B2"/><path d="M15.555 32.8l-1.301 2.132-2.406-2.334 3.707.202z" fill="#999"/><path d="M15.556 32.8l4.14.72-2.811 2.564-1.33-3.284z" fill="#D8D8D8"/><path d="M3.343 20.657l2.238 4.047-2.126-1.613-.112-2.434z" fill="#B2B2B2"/><path d="M4.545 17.416l-1.203 3.24-.238-1.267 1.441-1.973z" fill="#F2F2F2"/><path d="M3.342 20.657l.112 2.434-.35-3.702.238 1.268z" fill="#A5A5A5"/><path d="M8.701 10.386l1.357-.836 2.518 1.282-3.875-.446z" fill="#E5E5E5"/><path d="M27.572 30.654l-2.28-.764 3.47-1.728-1.19 2.492zm2.071-2.637l-.881.145.63-3.414.251 3.27z" fill="#CCC"/><path d="M27.571 30.654l1.19-2.492.88-.144-2.07 2.636zM16.674 8.125l3.455.201-1.077 2.017-2.378-2.218z" fill="#D8D8D8"/><path d="M10.24 29.703l-1.218 2.434-3.301-2.607 4.518.173z" fill="#BFBFBF"/><path d="M11.848 32.598l-2.826-.46 1.217-2.435 1.61 2.895z" fill="#999"/><path d="M9.61 14.189L6.601 16.06l.587-3.27 2.42 1.398z" fill="#D8D8D8"/><path d="M8.701 10.386l3.875.446L9.61 14.19l-.909-3.803z" fill="#D8D8D8"/><path d="M8.701 10.386l.91 3.803-2.42-1.398 1.51-2.405z" fill="#E5E5E5"/><path d="M21.92 34.586l-2.224-1.066 3.595-.346-1.37 1.412zm2.952-1.686l-1.581.274 2-3.284-.42 3.01z" fill="#BFBFBF"/><path d="M21.92 34.586l1.372-1.411 1.58-.274-2.951 1.685z" fill="#E5E5E5"/><path d="M7.091 19.1l-2.546-1.684L6.6 16.06l.49 3.04z" fill="#BFBFBF"/><path d="M7.092 19.1l-3.75 1.557 1.204-3.241L7.092 19.1z" fill="#E5E5E5"/><path d="M19.053 10.343l1.077-2.017 2.882 1.44-3.96.577z" fill="#F2F2F2"/><path d="M20.13 8.326l3.288.677-.405.764-2.882-1.44z" fill="#D8D8D8"/><path d="M23.01 9.766l.406-.763 1.945 2.852-2.35-2.089z" fill="#CCC"/><path d="M28.131 20.398l1.26 4.35-3.05-1.455 1.79-2.895z" fill="#E5E5E5"/><path d="M26.34 23.293l3.05 1.455-.629 3.414-2.42-4.869z" fill="#F2F2F2"/><path d="M8.729 26.275L5.72 29.53l-.14-4.825 3.148 1.57z" fill="#BFBFBF"/><path d="M8.728 26.274l1.511 3.429-4.518-.173 3.007-3.256z" fill="#A5A5A5"/><path d="M25.362 11.855l1.371 3.919-3.175-1.326 1.804-2.593z" fill="#E5E5E5"/><path d="M23.01 9.767l2.35 2.088-1.804 2.593-.545-4.681z" fill="#F2F2F2"/><path d="M18.507 30.783l4.784 2.391-3.595.346-1.19-2.737z" fill="#A5A5A5"/><path d="M18.507 30.783l1.19 2.737-4.141-.72 2.951-2.017z" fill="#BFBFBF"/><path d="M8.729 26.275l-3.148-1.57 2.168-2.017.98 3.587z" fill="#999"/><path d="M7.092 19.1l.657 3.587-4.406-2.03L7.092 19.1z" fill="#B2B2B2"/><path d="M7.75 22.688l-2.17 2.017-2.238-4.048 4.406 2.03z" fill="#A5A5A5"/><path d="M15.695 9.018l.98-.893 2.378 2.218-3.358-1.325z" fill="#CCC"/><path d="M13.485 8.283l3.19-.158-.98.893-2.21-.735z" fill="#D8D8D8"/><path d="M12.576 10.832l.91-2.55 2.21.735-3.12 1.815z" fill="#F2F2F2"/><path d="M26.34 23.293l2.42 4.869-4.658-2.103 2.239-2.766z" fill="#E5E5E5"/><path d="M24.102 26.059l4.659 2.103-3.47 1.728-1.189-3.831z" fill="#CCC"/><path d="M21.39 28.695l3.903 1.195-2 3.285-1.903-4.48z" fill="#CCC"/><path d="M21.389 28.695l1.902 4.48-4.784-2.391 2.882-2.09z" fill="#B2B2B2"/><path d="M24.104 26.059l1.189 3.831-3.903-1.195 2.714-2.636z" fill="#BFBFBF"/><path d="M12.576 10.833l3.12-1.815-2.588 4.768-.532-2.953z" fill="#E5E5E5"/><path d="M12.576 10.832l.532 2.954-3.498.403 2.966-3.357z" fill="#CCC"/><path d="M19.053 10.343l3.959-.576-2.896 3.803-1.063-3.227z" fill="#D8D8D8"/><path d="M23.011 9.767l.546 4.681-3.442-.879 2.896-3.802z" fill="#E5E5E5"/><path d="M15.694 9.018l.798 4.235-3.386.533 2.588-4.768z" fill="#BFBFBF"/><path d="M15.695 9.018l3.358 1.325-2.56 2.91-.798-4.235z" fill="#E5E5E5"/><path d="M19.053 10.343l1.063 3.226-3.623-.316 2.56-2.91z" fill="#CCC"/><path d="M12.436 27.268l-2.197 2.435-1.51-3.429 3.707.994z" fill="#999"/><path d="M21.389 28.694l-2.882 2.09-1.735-2.954 4.617.864z" fill="#A5A5A5"/><path d="M10.338 20.455L7.75 22.687l-.657-3.586 3.245 1.354z" fill="#999"/><path d="M13.498 31.302l2.057 1.498-3.707-.202 1.65-1.296zm-1.061-4.034l4.336.562L13.5 31.3l-1.063-4.033z" fill="#BFBFBF"/><path d="M16.771 27.83l1.735 2.953-5.008.519 3.274-3.472z" fill="#999"/><path d="M13.498 31.302l5.008-.519-2.951 2.017-2.057-1.498z" fill="#B2B2B2"/><path d="M12.436 27.268l1.063 4.033-3.26-1.598 2.197-2.435z" fill="#A5A5A5"/><path d="M13.499 31.302l-1.651 1.296-1.609-2.895 3.26 1.599z" fill="#B2B2B2"/><path d="M26.342 23.293l-2.238 2.765-1.68-4.379 3.918 1.614z" fill="#CCC"/><path d="M16.492 13.252l-3.274 3.774-.112-3.24 3.386-.534z" fill="#B2B2B2"/><path d="M23.557 14.448l-2.574 2.953-.868-3.832 3.442.879z" fill="#D8D8D8"/><path d="M26.733 15.773l1.398 4.624-2.308-2.146.91-2.478z" fill="#E5E5E5"/><path d="M23.557 14.448l2.267 3.803-4.84-.85 2.573-2.953z" fill="#E5E5E5"/><path d="M23.558 14.448l3.175 1.325-.91 2.478-2.265-3.803z" fill="#D8D8D8"/><path d="M25.824 18.251l.518 5.042-3.917-1.614 3.4-3.428z" fill="#F2F2F2"/><path d="M25.823 18.251l2.308 2.146-1.79 2.896-.518-5.042zm-4.84-.851l4.84.85-3.399 3.43-1.44-4.28z" fill="#D8D8D8"/><path d="M8.868 16.81l4.35.217-2.881 3.428-1.469-3.644z" fill="#BFBFBF"/><path d="M13.107 13.786l.112 3.24-4.35-.215 4.238-3.025z" fill="#D8D8D8"/><path d="M8.87 16.81l1.468 3.645-3.245-1.354 1.776-2.29z" fill="#A5A5A5"/><path d="M8.868 16.81L7.09 19.1l-.49-3.039 2.267.75z" fill="#B2B2B2"/><path d="M9.61 14.189l-.742 2.622-2.266-.75 3.007-1.872z" fill="#F2F2F2"/><path d="M9.61 14.189l3.497-.403-4.239 3.025.742-2.622z" fill="#E5E5E5"/><path d="M15.346 24.258l1.427 3.572-4.336-.562 2.91-3.01z" fill="#A5A5A5"/><path d="M13.219 17.026l.867 3.616-3.75-.187 2.883-3.429zm4.995 3.703l-2.868 3.529-1.26-3.616 4.128.087z" fill="#999"/><path d="M20.983 17.4l1.44 4.28-4.21-.952 2.77-3.327z" fill="#CCC"/><path d="M10.589 24.373l4.756-.115-2.91 3.01-1.846-2.895z" fill="#BFBFBF"/><path d="M10.59 24.373l1.846 2.895-3.707-.994 1.86-1.901zm-.253-3.918l.252 3.918-2.84-1.685 2.588-2.233z" fill="#A5A5A5"/><path d="M10.589 24.373l-1.86 1.902-.98-3.587 2.84 1.685z" fill="#BFBFBF"/><path d="M14.086 20.642l1.26 3.616-4.757.115 3.497-3.73z" fill="#A5A5A5"/><path d="M10.337 20.455l3.749.187-3.497 3.731-.252-3.918z" fill="#B2B2B2"/><path d="M16.856 16.12l4.127 1.281-2.77 3.328-1.357-4.61z" fill="#D8D8D8"/><path d="M20.116 13.57l.867 3.831-4.127-1.282 3.26-2.55z" fill="#F2F2F2"/><path d="M16.493 13.252l3.623.317-3.26 2.55-.363-2.867z" fill="#BFBFBF"/><path d="M16.857 16.12l1.357 4.609-4.127-.087 2.77-4.523z" fill="#A5A5A5"/><path d="M16.492 13.252l.364 2.867-3.637.907 3.273-3.774z" fill="#F2F2F2"/><path d="M13.219 17.027l3.637-.908-2.77 4.523-.867-3.615z" fill="#B2B2B2"/><path d="M22.424 21.68l1.68 4.378-4.114-.734 2.434-3.645z" fill="#F2F2F2"/><path d="M19.99 25.324l4.113.734-2.714 2.637-1.399-3.371z" fill="#D8D8D8"/><path d="M18.213 20.729l1.777 4.595-4.644-1.066 2.867-3.53z" fill="#B2B2B2"/><path d="M18.213 20.729l4.21.95-2.433 3.645-1.777-4.596z" fill="#D8D8D8"/><path d="M19.99 25.324l1.399 3.37-4.616-.864 3.217-2.506z" fill="#BFBFBF"/><path d="M15.346 24.258l4.644 1.066-3.217 2.506-1.427-3.572z" fill="#999"/><path d="M3.525 4.22l3.246 1.427 1.203 2.996-4.449-4.422z" fill="#727272"/><path d="M7.274 4.393l.7 4.25L6.77 5.647 5.65 3.11l1.623 1.282z" fill="#A5A5A5"/><path d="M1.146 3.111l2.379 1.11L6.77 5.647 5.651 3.11H1.146z" fill="#8C8C8C"/><path d="M3.707 1.296L5.65 3.111H1.146l2.56-1.815z" fill="#B2B2B2"/><path d="M0 1.296h3.707l-2.56 1.815L0 1.296z" fill="#BFBFBF"/><path d="M3.707 1.296l2.504.188L3.945 0 0 1.296h3.707z" fill="#8C8C8C"/><path d="M7.4 1.484H6.213L3.945 0l3.456 1.484z" fill="#A5A5A5"/><path d="M7.274 4.393l-1.063-2.91-2.504-.187 1.945 1.815 1.622 1.282zM8.66 8.427L7.273 4.394l.7 4.249.685-.216z" fill="#727272"/><path d="M7.4 1.484l1.26 6.943-1.386-4.033-1.063-2.91H7.4z" fill="#8C8C8C"/></svg>