<svg width="64" height="64" viewBox="0 0 64 64" fill="none" xmlns="http://www.w3.org/2000/svg">
<path d="M7.26452 47.0545C7.48083 47.3986 7.37268 47.8509 7.01872 48.0672C6.67459 48.2737 6.19281 48.1754 5.9765 47.8312C5.76018 47.4871 5.86834 47.0348 6.2223 46.8185C6.5861 46.6022 7.04821 46.7104 7.26452 47.0545ZM15.327 54.1927L12.9083 56.9851L12.5051 56.6508L14.6092 54.2222L12.8591 52.7867L10.755 55.2153L10.3519 54.881L12.7706 52.0886L15.327 54.1927ZM16.4479 54.9498L19.0043 56.4541L18.7486 56.8671L16.6544 55.6282L16.0841 56.5426L18.0505 57.7029L17.7949 58.1158L15.8284 56.9556L15.2188 57.9388L17.3426 59.1974L17.087 59.6103L14.5011 58.0863L16.4479 54.9498ZM19.1124 60.5641L18.6208 60.3674L20.076 56.9949L21.6786 57.6439C22.5341 57.988 22.8192 58.4796 22.5242 59.158C22.2293 59.8463 21.6688 59.9741 20.8134 59.63L19.7122 59.1777L19.1124 60.5641ZM19.8793 58.7746L20.7937 59.1482C21.4623 59.4235 21.836 59.394 22.0228 58.9614C22.2293 58.4894 21.9834 58.224 21.3444 57.9585L20.4005 57.575L19.8793 58.7746ZM24.0384 58.4894L26.9389 59.1974L26.8209 59.6595L24.4415 59.0695L24.176 60.1019L26.408 60.6525L26.29 61.1147L24.0581 60.5641L23.7631 61.6849L26.1818 62.2749L26.0638 62.737L23.1338 62.0192L24.0384 58.4894ZM28.109 59.4038L30.1836 59.5906C30.921 59.6595 31.2946 60.0331 31.2356 60.6132C31.1963 60.9967 30.9702 61.2425 30.567 61.3605C31.0291 61.4883 31.2455 61.8127 31.2061 62.2847C31.1373 63.0123 30.6752 63.3072 29.7903 63.2286L27.755 63.0418L28.109 59.4038ZM28.3351 62.619L29.7116 62.7468C30.3114 62.8058 30.6162 62.6878 30.6555 62.2847C30.6948 61.8521 30.4589 61.6456 29.8984 61.5964L28.4433 61.4686L28.3351 62.619ZM28.4924 60.977L29.8198 61.095C30.39 61.1441 30.6555 61.0557 30.6949 60.6427C30.7342 60.2691 30.5179 60.1019 30.0263 60.0528L28.5809 59.9249L28.4924 60.977ZM33.4774 63.3171L32.9464 63.3269L32.858 59.6693L33.3889 59.6595L33.4774 63.3171ZM36.0043 63.1499L35.4832 63.2188L34.9621 59.6005L36.6729 59.3645C37.5873 59.2367 38.0887 59.5218 38.1969 60.2494C38.305 60.9868 37.8921 61.3801 36.9777 61.4981L35.7978 61.6653L36.0043 63.1499ZM35.729 61.2326L36.7122 61.095C37.43 60.9967 37.7348 60.7902 37.6758 60.3281C37.6069 59.8168 37.2628 59.7185 36.5647 59.807L35.552 59.9446L35.729 61.2326ZM39.1408 58.9319L42.002 58.106L42.1396 58.5681L39.7897 59.2465L40.1043 60.2691L42.3166 59.63L42.4543 60.0921L40.242 60.7312L40.5763 61.8422L42.9655 61.154L43.1032 61.6161L40.2027 62.4518L39.1408 58.9319ZM44.2339 58.7844L46.2987 57.8307L45.6596 56.523L46.1414 56.2968L47.7539 59.6005L47.2721 59.8266L46.515 58.2633L44.4502 59.2269L45.2171 60.7902L44.7353 61.0163L43.1229 57.7127L43.6046 57.4865L44.2339 58.7844ZM48.7469 54.5369C49.7891 53.8191 50.8707 54.0059 51.559 54.9498C52.2472 55.9035 52.0702 56.9556 51.0182 57.6832C49.976 58.4009 48.8944 58.2141 48.2061 57.2702C47.5179 56.3165 47.6949 55.2546 48.7469 54.5369ZM50.733 57.2801C51.5098 56.7393 51.6376 55.992 51.1067 55.2645C50.5757 54.527 49.8088 54.3992 49.0321 54.94C48.2553 55.4808 48.1275 56.228 48.6584 56.9556C49.1894 57.6832 49.9563 57.8208 50.733 57.2801ZM52.3849 53.534L51.4606 52.5507L51.9129 52.1378L52.847 53.121L53.7122 54.2616L53.4861 54.468L52.3849 53.534ZM53.5746 54.8023L54.0269 54.3894L54.4496 54.8417L53.9974 55.2448L53.5746 54.8023ZM57.6058 46.9758C57.8221 46.6415 58.2842 46.5235 58.6382 46.7398C58.9823 46.9463 59.1003 47.4085 58.884 47.7526C58.6677 48.0967 58.2056 48.195 57.8516 47.9886C57.4977 47.7821 57.3895 47.32 57.6058 46.9758Z" fill="#9AB4C1"/>
<path d="M0.353962 36.298L1.16021 36.1309L1.56333 38.0875L4.68017 37.4681L4.87681 38.4218L0.953731 39.2084L0.353962 36.298ZM4.06073 32.8469L4.12956 33.8203L0.137652 34.076L0.068826 33.1026L4.06073 32.8469ZM0.393291 26.6034L4.37537 26.9869L4.27704 27.9603L1.11105 27.6555L0.914402 29.5236L4.0804 29.8284L3.98207 30.8018L0 30.4183L0.393291 26.6034ZM4.34587 20.1534C5.54541 20.5467 6.04685 21.6578 5.5749 23.0146C5.10295 24.3715 4.0214 24.9713 2.81203 24.578C1.61249 24.1847 1.11105 23.0736 1.583 21.7069C2.05495 20.3599 3.14633 19.7601 4.34587 20.1534ZM3.16599 23.5652C3.92308 23.8111 4.54251 23.4964 4.79815 22.759C5.05379 22.0216 4.74899 21.412 3.99191 21.1662C3.23482 20.9204 2.61539 21.2252 2.36958 21.9626C2.11394 22.7098 2.40891 23.3194 3.16599 23.5652ZM4.26721 16.1517L4.75882 15.3455L9.13419 15.7977L8.56392 16.7318L7.64951 16.6138L6.74494 18.0985L7.29555 18.8162L6.74494 19.7208L4.26721 16.1517ZM6.76461 16.5155L5.42742 16.3582L6.22383 17.4102L6.76461 16.5155ZM10.2157 8.74799L13.1163 11.4224L12.428 12.1303L10.1174 10.0065L8.90805 11.2552L10.0486 12.3073C10.7958 12.9955 11.081 13.6641 10.4321 14.3327C10.2747 14.49 10.1174 14.6277 9.96993 14.726L9.3505 14.1557C9.39966 14.1262 9.48815 14.0574 9.57664 13.9689C9.89127 13.6445 9.81262 13.4282 9.14402 12.8186L7.62985 11.4224L10.2157 8.74799ZM15.3875 4.95273L15.8496 5.6115L13.7554 7.02734L14.129 7.55829L15.9971 6.29976L16.4592 6.95852L14.5911 8.21705L15.0827 8.91515L17.177 7.4993L17.6489 8.15806L14.7189 10.1343L12.4477 6.92902L15.3875 4.95273ZM17.7768 3.6647L19.9595 2.75031C20.8248 2.38651 21.513 2.65199 21.8473 3.39924C22.1816 4.15632 21.8965 4.84458 21.0411 5.20838L19.7826 5.72949L20.2742 6.85036L19.3499 7.23382L17.7768 3.6647ZM19.4581 5.00189L20.3037 4.64793C20.8739 4.41195 21.1001 4.20548 20.9329 3.81219C20.7559 3.39924 20.4806 3.40907 19.9399 3.64505L19.0353 4.0285L19.4581 5.00189ZM26.7438 0.84284L26.9208 1.61958L24.915 2.05221L25.5934 5.08055L24.6102 5.28704L23.7548 1.48193L26.7438 0.84284ZM32.7415 0.410217L32.771 1.20663L30.2244 1.29513L30.2441 1.94405L32.5154 1.86539L32.5449 2.66182L30.2736 2.74046L30.3031 3.58604L32.8497 3.49755L32.8792 4.29397L29.3297 4.42179L29.2019 0.538042L32.7415 0.410217ZM36.2713 2.18003L38.1689 2.5045L38.4246 1.07882L39.4078 1.24597L38.7195 5.09039L37.7363 4.92323L38.0313 3.30091L36.1336 2.97644L35.8387 4.59878L34.8456 4.43162L35.5339 0.587206L36.5269 0.754353L36.2713 2.18003ZM42.5738 3.72369L44.3534 4.43162L44.9139 3.0846L45.8381 3.44839L44.3239 7.05685L43.3997 6.69304L44.0388 5.16904L42.2591 4.46111L41.62 5.98512L40.6958 5.6115L42.21 2.00304L43.1342 2.36685L42.5738 3.72369ZM49.6039 5.59183L50.4003 6.12277L49.653 10.3507L48.7386 9.74106L48.9156 8.85614L47.4604 7.89258L46.6837 8.3842L45.7889 7.79427L49.6039 5.59183ZM49.0533 7.99091L49.3089 6.70289L48.1782 7.4108L49.0533 7.99091ZM58.1481 13.7035L57.8237 13.9296L58.0596 14.2541C58.6102 14.9915 58.9839 16.1124 58.0203 16.8006C57.1551 17.4102 56.2308 16.9776 55.5229 16.0337L55.2968 15.7289L54.9035 16.0042L54.3135 15.2176L54.7068 14.9423L54.4708 14.6277C53.7629 13.6838 53.6449 12.6907 54.5003 12.0811C55.4737 11.3929 56.4471 12.091 56.9879 12.8284L57.2337 13.1529L57.5582 12.9267L58.1481 13.7035ZM56.6241 13.5658L56.4471 13.3298C56.103 12.8579 55.5622 12.5138 55.0804 12.8481C54.6282 13.1725 54.7953 13.7821 55.1493 14.2541L55.3164 14.4802L56.6241 13.5658ZM55.9064 15.2865L56.0833 15.5224C56.4275 15.9944 56.9682 16.3385 57.4205 16.0239C57.9023 15.6798 57.7352 15.0702 57.391 14.5982L57.214 14.3622L55.9064 15.2865ZM61.3043 19.2095L61.6681 20.0748L58.6692 23.2211L58.2464 22.2182L58.8954 21.5791L58.2169 19.9961L57.2927 19.9863L56.8797 19.0129L61.3043 19.2095ZM59.4951 20.9302L60.4292 19.9863L59.092 19.9765L59.4951 20.9302ZM63.0053 23.988L63.4477 26.2593C63.6149 27.154 63.2117 27.7636 62.3858 27.9111C61.5501 28.0684 60.9306 27.6555 60.7537 26.7509L60.5079 25.4432L59.2788 25.6694L59.092 24.7058L63.0053 23.988ZM61.3043 25.2957L61.4714 26.1806C61.5894 26.7804 61.7467 27.036 62.1793 26.9574C62.6316 26.8787 62.6808 26.6133 62.5726 26.043L62.3858 25.0991L61.3043 25.2957ZM63.8803 33.4565L63.0544 33.4467L63.0839 31.1459L62.4153 31.1361L62.3957 32.5323C62.3858 33.3582 61.8942 33.8301 61.1175 33.8301C60.3505 33.8203 59.8786 33.3484 59.8884 32.5225L59.9179 30.143L63.9197 30.1824L63.8803 33.4565ZM60.7242 31.1263L60.7143 32.1783C60.7045 32.6601 60.793 32.8469 61.1568 32.8567C61.5206 32.8666 61.5796 32.6306 61.5796 32.139L61.5894 31.1459L60.7242 31.1263ZM63.2609 37.7237L63.0544 38.6381L58.7577 39.5525L58.9937 38.4906L59.8983 38.3137L60.2719 36.6323L59.5246 36.1211L59.7508 35.0985L63.2609 37.7237ZM60.7733 38.1367L62.0909 37.881L60.9995 37.1338L60.7733 38.1367Z" fill="#9AB4C1"/>
<path fill-rule="evenodd" clip-rule="evenodd" d="M25.4164 54.9991C33.1839 56.7197 39.0046 55.4317 44.0289 52.4525C49.4071 49.2668 54.5986 43.4363 55.5523 34.3316C56.3782 26.4363 53.2319 19.8388 48.4829 15.1193C46.1133 12.7694 43.1538 10.6555 39.2897 9.41659C35.4158 8.17772 30.8438 7.89259 27.0092 8.67917C20.2937 10.0459 14.414 14.4901 11.0416 20.4976C6.92184 27.8423 7.42329 37.3009 10.5795 42.7677C11.9068 41.9418 12.8409 41.3518 14.0404 40.5358C12.3001 36.888 11.661 32.6699 12.4574 28.3929C14.473 17.6757 24.7969 10.6161 35.5239 12.6318C46.2411 14.6474 53.2909 24.9713 51.2753 35.6884C49.6628 44.272 42.495 50.368 34.58 51.5381L35.8091 50.1616C35.8091 50.1517 35.8189 50.1517 35.8189 50.1517L35.8582 50.1124C37.9329 47.8215 39.7518 44.7538 40.6761 41.1847C42.0034 36.0621 40.8334 31.3524 38.9357 27.5768C36.9201 23.5554 33.3805 20.3698 28.2776 18.3738C28.366 19.3472 28.8577 20.2321 29.0248 21.2841C29.192 22.3264 29.2313 23.5652 28.7692 24.8828C28.0612 26.9279 26.7142 28.5699 26.0456 30.7526C24.0398 37.3206 25.9866 42.2367 28.9953 46.3958C30.775 44.4982 32.4268 42.1286 33.3608 39.1887C34.875 34.4103 33.7935 30.1135 32.9086 26.8689C34.4227 28.4421 35.1602 30.5658 35.5633 32.8076C35.9566 34.9805 36.0942 37.6844 35.4158 40.2211C34.2654 44.5572 32.0532 47.7822 29.6442 50.3779L25.2197 54.9401L25.4164 54.9991Z" fill="#9AB4C1"/>
</svg>
