<svg width="279" height="130" viewBox="0 0 279 130" fill="none" xmlns="http://www.w3.org/2000/svg">
<path d="M125.675 123.789C125.675 126.505 123.46 128.72 120.744 128.72H47.8374V91.2976H120.744C123.46 91.2976 125.675 93.5121 125.675 96.2284V123.789ZM39.8443 116.92C39.8443 116.92 38.391 118.253 37.8547 118.633C37.2145 119.066 35.6228 120.035 32.872 120.45C32.1626 120.554 30.7439 120.536 30.0346 120.45C27.6471 120.173 22.2664 118.581 22.2664 118.581V113.01V111.574V110.536H23.2872H25.7612H31.8339C32.4048 110.536 32.8547 111.003 32.8547 111.574V113.01C32.8547 113.581 32.3875 114.031 31.8339 114.031H27.8893C27.8893 114.031 28.9965 115.121 29.9135 115.64C30.5017 115.969 31.8166 116.332 32.4914 116.384C32.9585 116.419 33.9273 116.349 34.3599 116.176C34.9308 115.934 36.2284 114.567 36.2284 114.567L37.301 113.581C37.5952 113.305 38.0623 113.339 38.3045 113.651L39.9481 115.727C40.2422 116.073 40.1903 116.609 39.8443 116.92ZM21.263 120.484H17.7682V109.498H21.263V120.484ZM28.564 103.443C29.2907 101.609 30.3979 100 31.4706 98.3564C31.9377 97.6471 32.2837 97.6125 32.7509 98.3391C33.391 99.3426 35.4325 102.768 35.7093 103.529C36.3322 105.277 35.8305 107.024 34.4464 108.062C33.0623 109.083 31.1073 109.066 29.7232 108.01C28.3391 106.938 27.872 105.173 28.564 103.443ZM120.744 90H16.2111C12.7855 90 10 92.7855 10 96.2284V123.789C10 127.232 12.7855 130 16.2111 130H120.744C124.17 130 126.955 127.215 126.955 123.789V96.2284C126.955 92.7855 124.17 90 120.744 90Z" fill="#9AB4C1"/>
<path d="M58.1645 97.353V101.696H57.1783V98.1661H55.6385V101.696H54.6523V97.353H58.1645Z" fill="#9AB4C1"/>
<path d="M59.9825 99.377C60.069 99.3943 60.1728 99.4116 60.3112 99.4116C60.8303 99.4116 61.159 99.1521 61.159 98.7023C61.159 98.3044 60.8822 98.0622 60.3978 98.0622C60.1901 98.0622 60.0517 98.0794 59.9825 98.0967V99.377ZM59.0137 97.422C59.3251 97.3701 59.7403 97.3355 60.3459 97.3355C60.9514 97.3355 61.3839 97.4566 61.678 97.6815C61.9548 97.9064 62.1452 98.2698 62.1452 98.685C62.1452 99.1175 62.0068 99.4635 61.7472 99.723C61.4185 100.034 60.9168 100.173 60.3286 100.173C60.2074 100.173 60.0863 100.173 59.9998 100.156V101.713H59.031V97.422H59.0137Z" fill="#9AB4C1"/>
<path d="M63.5813 99.5327C63.5813 100.38 63.9792 100.986 64.6367 100.986C65.2941 100.986 65.6747 100.346 65.6747 99.5154C65.6747 98.7369 65.2941 98.0621 64.6194 98.0621C63.9792 98.0621 63.5813 98.7023 63.5813 99.5327ZM66.7301 99.4808C66.7301 100.9 65.865 101.765 64.6021 101.765C63.3218 101.765 62.5605 100.796 62.5605 99.55C62.5605 98.2525 63.391 97.2663 64.6713 97.2663C66.0035 97.2836 66.7301 98.2871 66.7301 99.4808Z" fill="#9AB4C1"/>
<path d="M68.736 98.7371C68.736 99.2388 68.6668 99.7232 68.5457 100.173C68.4765 100.433 68.3554 100.692 68.2342 100.9H69.6875V98.1488H68.736V98.7371ZM70.6737 97.353V100.917L71.1062 100.952L71.0543 102.803H70.3104L70.2585 101.696H67.7152L67.6633 102.803H66.9194L66.8848 100.952L67.2481 100.917C67.4211 100.606 67.5595 100.294 67.6633 99.9481C67.7844 99.5156 67.8363 99.0312 67.8363 98.5121V97.353H70.6737Z" fill="#9AB4C1"/>
<path d="M72.2828 97.3528L72.9229 98.8753C73.044 99.1867 73.1305 99.4462 73.217 99.7057H73.2343C73.2862 99.5154 73.3727 99.2213 73.4765 98.858L73.9437 97.3355H74.9817L74.1686 99.4462C73.9091 100.121 73.6323 100.778 73.3035 101.176C73.0094 101.54 72.6634 101.747 72.1444 101.747C71.9194 101.747 71.781 101.73 71.6599 101.678L71.7291 100.882C71.7983 100.9 71.9021 100.917 72.0579 100.917C72.352 100.917 72.5596 100.709 72.6461 100.502C72.6807 100.432 72.6634 100.363 72.6288 100.294L71.1582 97.3009H72.2828V97.3528Z" fill="#9AB4C1"/>
<path d="M76.3497 97.353V99.1523H76.4362L77.63 97.353H78.8238L77.3013 99.2734C77.8549 99.4118 78.1144 99.8097 78.3047 100.329C78.4604 100.796 78.5989 101.263 78.8065 101.696H77.7511C77.5954 101.401 77.5262 101.055 77.4224 100.744C77.2667 100.26 77.0764 99.8789 76.54 99.8789H76.3497V101.696H75.3809V97.353H76.3497Z" fill="#9AB4C1"/>
<path d="M80.2217 98.1834H79.0625V97.353H82.4016V98.1834H81.2078V101.696H80.2217V98.1834Z" fill="#9AB4C1"/>
<path d="M85.2264 97.353V99.0312H86.8354V97.353H87.8215V101.696H86.8354V99.8789H85.2264V101.696H84.2402V97.353H85.2264Z" fill="#9AB4C1"/>
<path d="M91.2654 99.8616H89.6737V100.9H91.4557V101.696H88.6875V97.353H91.3692V98.1661H89.6737V99.0658H91.2654V99.8616Z" fill="#9AB4C1"/>
<path d="M97.1095 100.035C97.0922 99.5156 97.0749 98.8754 97.0749 98.2526H97.0576C96.9192 98.8062 96.7462 99.4291 96.5732 99.9308L96.0369 101.626H95.2756L94.8085 99.9481C94.6701 99.4464 94.5144 98.8235 94.4106 98.2526H94.3933C94.376 98.8408 94.3414 99.5156 94.3241 100.052L94.2549 101.713H93.3379L93.6147 97.3702H94.9296L95.3621 98.8235C95.5005 99.3253 95.6389 99.8616 95.7254 100.381H95.7427C95.8638 99.8789 96.0196 99.308 96.158 98.8235L96.6251 97.3875H97.9054L98.1476 101.73H97.196L97.1095 100.035Z" fill="#9AB4C1"/>
<path d="M99.8787 97.353H98.8926V101.696H99.8787V97.353Z" fill="#9AB4C1"/>
<path d="M103.932 101.574C103.759 101.661 103.344 101.765 102.825 101.765C101.32 101.765 100.541 100.83 100.541 99.5847C100.541 98.0968 101.596 97.2837 102.911 97.2837C103.413 97.2837 103.811 97.3875 103.984 97.474L103.776 98.2525C103.569 98.166 103.292 98.0968 102.946 98.0968C102.167 98.0968 101.562 98.564 101.562 99.5328C101.562 100.398 102.081 100.952 102.963 100.952C103.257 100.952 103.586 100.882 103.776 100.813L103.932 101.574Z" fill="#9AB4C1"/>
<path d="M105.536 98.1834H104.377V97.353H107.716V98.1834H106.522V101.696H105.536V98.1834Z" fill="#9AB4C1"/>
<path d="M109.136 97.353V98.6505C109.136 99.3426 109.119 100.035 109.084 100.623H109.119C109.344 100.121 109.638 99.5329 109.898 99.0831L110.832 97.3703H111.835V101.713H110.936V100.433C110.936 99.7578 110.953 99.1696 111.005 98.5986H110.987C110.78 99.1177 110.503 99.6886 110.261 100.138L109.378 101.713H108.254V97.3703H109.136V97.353Z" fill="#9AB4C1"/>
<path d="M113.528 98.1834H112.369V97.353H115.708V98.1834H114.514V101.696H113.528V98.1834Z" fill="#9AB4C1"/>
<path d="M117.197 100.986C117.301 101.003 117.422 101.003 117.561 101.003C118.045 101.003 118.426 100.779 118.426 100.277C118.426 99.7751 118.045 99.5675 117.578 99.5675C117.44 99.5675 117.318 99.5848 117.197 99.5848V100.986ZM117.215 97.353V98.8582C117.353 98.8409 117.561 98.8236 117.734 98.8236C118.668 98.8236 119.464 99.2734 119.464 100.242C119.464 100.657 119.325 100.969 119.118 101.194C118.703 101.626 117.976 101.747 117.284 101.747C116.799 101.747 116.436 101.713 116.229 101.678V97.353H117.215Z" fill="#9AB4C1"/>
<path d="M55.4005 106.609H55.6254C55.9714 106.609 56.179 106.522 56.179 106.315C56.179 106.142 56.0406 106.021 55.6946 106.021C55.5735 106.021 55.5043 106.038 55.4005 106.038V106.609ZM55.4005 107.785C55.487 107.803 55.5562 107.803 55.6946 107.803C55.9887 107.803 56.2828 107.716 56.2828 107.457C56.2828 107.214 56.0579 107.111 55.66 107.111H55.4178V107.785H55.4005ZM54.5527 105.553C54.7603 105.519 55.2275 105.484 55.66 105.484C56.1271 105.484 57.0095 105.536 57.0095 106.194C57.0095 106.54 56.7327 106.73 56.4558 106.782V106.799C56.8711 106.868 57.1306 107.093 57.1306 107.474C57.1306 108.252 56.0752 108.322 55.5043 108.322C55.1237 108.322 54.7257 108.304 54.5527 108.27V105.553Z" fill="#9AB4C1"/>
<path d="M59.1377 106.972C58.6879 106.972 58.3419 107.076 58.3419 107.405C58.3419 107.63 58.4803 107.734 58.6706 107.734C58.8782 107.734 59.0512 107.595 59.1031 107.422C59.1204 107.37 59.1204 107.336 59.1204 107.284V106.972H59.1377ZM59.2242 108.27L59.1723 107.993H59.155C58.982 108.218 58.6879 108.322 58.3765 108.322C57.8229 108.322 57.4941 107.924 57.4941 107.474C57.4941 106.765 58.1343 106.419 59.1031 106.419V106.401C59.1031 106.263 59.0339 106.055 58.6014 106.055C58.3246 106.055 58.0305 106.142 57.8402 106.263L57.6844 105.709C57.8748 105.606 58.2554 105.467 58.7398 105.467C59.6568 105.467 59.9509 106.003 59.9509 106.644V107.595C59.9509 107.855 59.9682 108.114 59.9855 108.253H59.2242V108.27Z" fill="#9AB4C1"/>
<path d="M61.2247 105.536L61.8476 106.626H61.9341V105.536H62.7645V106.626H62.851L63.4739 105.536H64.4081L63.4566 106.713C63.768 106.765 63.9756 107.076 64.0967 107.405C64.2005 107.716 64.3043 108.01 64.4254 108.27H63.5777C63.4912 108.131 63.4393 107.924 63.3354 107.647C63.2316 107.353 63.0586 107.18 62.8337 107.18H62.7645V108.27H61.9341V107.18H61.8649C61.6226 107.18 61.4669 107.336 61.3458 107.647C61.242 107.941 61.1901 108.131 61.1036 108.27H60.2559C60.3943 108.01 60.4808 107.716 60.5846 107.405C60.7057 107.059 60.9133 106.765 61.2247 106.695L60.2905 105.536H61.2247Z" fill="#9AB4C1"/>
<path d="M65.6061 105.536V106.626H65.7099L66.402 105.536H67.4054L66.402 106.713C66.7307 106.782 66.9383 107.076 67.094 107.474C67.1805 107.699 67.2843 108.028 67.4227 108.287H66.5404C66.4712 108.166 66.402 107.976 66.2982 107.682C66.1771 107.37 66.004 107.197 65.7272 107.197H65.6407V108.287H64.793V105.536H65.6061Z" fill="#9AB4C1"/>
<path d="M68.5319 105.536V106.367C68.5319 106.799 68.5146 107.111 68.48 107.491H68.4973C68.6357 107.18 68.7049 106.972 68.8087 106.713L69.3623 105.536H70.4004V108.27H69.5873V107.439C69.5873 107.007 69.6046 106.834 69.6392 106.246H69.6219C69.5181 106.54 69.4489 106.73 69.3277 106.99C69.1547 107.37 68.9471 107.855 68.7568 108.27H67.7188V105.536H68.5319Z" fill="#9AB4C1"/>
<path d="M71.7306 105.536L71.9901 105.986C72.0593 106.125 72.1458 106.263 72.215 106.401H72.2323C72.3015 106.263 72.3707 106.107 72.4399 105.986L72.6821 105.536H73.6164L72.7167 106.834L73.6337 108.27H72.6648L72.388 107.785C72.3188 107.647 72.2496 107.509 72.1804 107.37H72.1631C72.0939 107.509 72.0247 107.647 71.9555 107.785L71.696 108.27H70.7617L71.696 106.868L70.779 105.536H71.7306Z" fill="#9AB4C1"/>
<path d="M75.204 105.536H76.2939L76.5881 106.574C76.64 106.73 76.7092 107.024 76.7611 107.266H76.7784C76.8303 107.076 76.9168 106.782 77.0033 106.522L77.3147 105.536H78.3874L78.5604 108.27H77.7645L77.7126 107.18C77.7126 106.938 77.6953 106.54 77.678 106.228H77.6607C77.5569 106.592 77.5396 106.678 77.4012 107.128L77.0379 108.235H76.4324L76.1036 107.145C76.0344 106.886 75.9479 106.488 75.8787 106.228H75.8614C75.8441 106.574 75.8441 106.955 75.8268 107.18L75.7749 108.27H75.0137L75.204 105.536Z" fill="#9AB4C1"/>
<path d="M80.7795 106.592C80.7795 106.384 80.693 106.038 80.2951 106.038C79.9317 106.038 79.7933 106.367 79.776 106.592H80.7795ZM79.776 107.18C79.8106 107.526 80.1567 107.699 80.5546 107.699C80.8487 107.699 81.0736 107.664 81.3158 107.595L81.4196 108.166C81.1428 108.287 80.7968 108.339 80.4335 108.339C79.4992 108.339 78.9629 107.803 78.9629 106.938C78.9629 106.246 79.3954 105.467 80.347 105.467C81.2293 105.467 81.5753 106.159 81.5753 106.834C81.5753 106.972 81.558 107.111 81.5407 107.163H79.776V107.18Z" fill="#9AB4C1"/>
<path d="M84.2048 105.536V106.176H83.4089V108.27H82.5439V106.176H81.748V105.536H84.2048Z" fill="#9AB4C1"/>
<path d="M86.0072 106.972C85.5573 106.972 85.2113 107.076 85.2113 107.405C85.2113 107.63 85.3497 107.734 85.54 107.734C85.7476 107.734 85.9206 107.595 85.9899 107.422C86.0072 107.37 86.0072 107.336 86.0072 107.284V106.972ZM86.111 108.27L86.0591 107.993H86.0418C85.8687 108.218 85.5919 108.322 85.2632 108.322C84.7096 108.322 84.3809 107.924 84.3809 107.474C84.3809 106.765 85.021 106.419 85.9899 106.419V106.401C85.9899 106.263 85.9207 106.055 85.4881 106.055C85.2113 106.055 84.9172 106.142 84.7269 106.263L84.5712 105.709C84.7615 105.606 85.1421 105.467 85.6438 105.467C86.5608 105.467 86.8549 106.003 86.8549 106.644V107.595C86.8549 107.855 86.8722 108.114 86.8895 108.253H86.111V108.27Z" fill="#9AB4C1"/>
<path d="M89.9138 105.536V108.27H89.0661V106.176H88.4778V106.678C88.4778 107.336 88.3913 107.803 88.0972 108.062C87.9242 108.253 87.682 108.322 87.3013 108.322L87.2148 107.664C87.336 107.647 87.4571 107.595 87.509 107.509C87.6647 107.353 87.682 107.093 87.682 106.626V105.536H89.9138Z" fill="#9AB4C1"/>
<path d="M90.5907 105.536H91.4384V108.27H90.5907V105.536ZM91.473 104.775C91.473 105.017 91.3 105.208 91.0059 105.208C90.7464 105.208 90.5561 105.017 90.5734 104.775C90.5734 104.533 90.7464 104.343 91.0232 104.343C91.2827 104.343 91.4557 104.533 91.473 104.775Z" fill="#9AB4C1"/>
<path d="M92.9591 106.609H93.184C93.53 106.609 93.7376 106.522 93.7376 106.315C93.7376 106.142 93.5992 106.021 93.2532 106.021C93.1321 106.021 93.0629 106.038 92.9591 106.038V106.609ZM92.9591 107.785C93.0456 107.803 93.1148 107.803 93.2532 107.803C93.5473 107.803 93.8414 107.716 93.8414 107.457C93.8414 107.214 93.6165 107.111 93.2186 107.111H92.9764V107.785H92.9591ZM92.1113 105.553C92.3189 105.519 92.7861 105.484 93.2186 105.484C93.6857 105.484 94.5681 105.536 94.5681 106.194C94.5681 106.54 94.274 106.73 94.0144 106.782V106.799C94.4297 106.868 94.6892 107.093 94.6892 107.474C94.6892 108.252 93.6338 108.322 93.0629 108.322C92.6823 108.322 92.2843 108.304 92.1113 108.27V105.553Z" fill="#9AB4C1"/>
<path d="M94.8789 108.945C95.0519 108.443 95.2076 107.855 95.2768 107.353L96.1419 107.301C95.9516 107.872 95.7094 108.46 95.4325 108.893L94.8789 108.945Z" fill="#9AB4C1"/>
<path d="M99.8591 107.768C100.274 107.682 100.465 107.336 100.465 106.903C100.465 106.471 100.274 106.142 99.8591 106.056V107.768ZM99.0978 106.038C98.6826 106.142 98.4923 106.488 98.4923 106.903C98.4923 107.353 98.6826 107.665 99.0978 107.768V106.038ZM99.8591 104.291V105.485C100.655 105.554 101.312 106.021 101.312 106.903C101.312 107.786 100.638 108.253 99.8591 108.305V109.377H99.0978V108.322C98.3366 108.253 97.6445 107.803 97.6445 106.921C97.6445 106.021 98.302 105.571 99.0978 105.485V104.291H99.8591Z" fill="#9AB4C1"/>
<path d="M103.494 106.592C103.494 106.384 103.408 106.038 103.01 106.038C102.647 106.038 102.508 106.367 102.491 106.592H103.494ZM102.491 107.18C102.525 107.526 102.872 107.699 103.269 107.699C103.564 107.699 103.788 107.664 104.031 107.595L104.134 108.166C103.858 108.287 103.512 108.339 103.148 108.339C102.214 108.339 101.678 107.803 101.678 106.938C101.678 106.246 102.11 105.467 103.062 105.467C103.944 105.467 104.29 106.159 104.29 106.834C104.29 106.972 104.273 107.111 104.256 107.163H102.491V107.18Z" fill="#9AB4C1"/>
<path d="M105.639 105.536V106.522H106.504V105.536H107.369V108.27H106.504V107.18H105.639V108.27H104.791V105.536H105.639Z" fill="#9AB4C1"/>
<path d="M108.771 106.903C108.771 107.37 108.961 107.734 109.324 107.734C109.653 107.734 109.861 107.405 109.861 106.903C109.861 106.488 109.705 106.073 109.324 106.073C108.909 106.073 108.771 106.505 108.771 106.903ZM110.743 106.868C110.743 107.872 110.034 108.339 109.29 108.339C108.494 108.339 107.871 107.803 107.871 106.92C107.871 106.038 108.459 105.467 109.342 105.467C110.189 105.467 110.743 106.055 110.743 106.868Z" fill="#9AB4C1"/>
<path d="M113.668 105.536V108.27H112.82V106.176H112.232V106.678C112.232 107.336 112.145 107.803 111.851 108.062C111.678 108.253 111.436 108.322 111.055 108.322L110.969 107.664C111.09 107.647 111.211 107.595 111.263 107.509C111.419 107.353 111.436 107.093 111.436 106.626V105.536H113.668Z" fill="#9AB4C1"/>
<path d="M114.345 105.536H115.192V108.27H114.345V105.536ZM115.227 104.775C115.227 105.017 115.054 105.208 114.76 105.208C114.5 105.208 114.31 105.017 114.327 104.775C114.327 104.533 114.5 104.343 114.777 104.343C115.054 104.343 115.21 104.533 115.227 104.775Z" fill="#9AB4C1"/>
<path d="M116.713 106.609H116.938C117.284 106.609 117.492 106.522 117.492 106.315C117.492 106.142 117.353 106.021 117.007 106.021C116.886 106.021 116.817 106.038 116.713 106.038V106.609ZM116.696 107.785C116.782 107.803 116.851 107.803 116.99 107.803C117.284 107.803 117.578 107.716 117.578 107.457C117.578 107.214 117.353 107.111 116.955 107.111H116.713V107.785H116.696ZM115.865 105.553C116.073 105.519 116.54 105.484 116.973 105.484C117.44 105.484 118.339 105.536 118.339 106.194C118.339 106.54 118.045 106.73 117.786 106.782V106.799C118.201 106.868 118.46 107.093 118.46 107.474C118.46 108.252 117.405 108.322 116.834 108.322C116.453 108.322 116.056 108.304 115.883 108.27V105.553H115.865Z" fill="#9AB4C1"/>
<path d="M118.637 108.945C118.81 108.443 118.965 107.855 119.035 107.353L119.9 107.301C119.709 107.872 119.467 108.46 119.19 108.893L118.637 108.945Z" fill="#9AB4C1"/>
<path d="M56.0228 113.702C55.573 113.702 55.2269 113.806 55.2269 114.135C55.2269 114.36 55.3653 114.464 55.5557 114.464C55.7633 114.464 55.9363 114.325 55.9882 114.152C56.0055 114.1 56.0055 114.066 56.0055 114.014V113.702H56.0228ZM56.1266 115L56.0747 114.723H56.0574C55.8844 114.948 55.5903 115.052 55.2788 115.052C54.7252 115.052 54.3965 114.654 54.3965 114.221C54.3965 113.512 55.0366 113.166 56.0055 113.166V113.131C56.0055 112.993 55.9363 112.785 55.5037 112.785C55.2269 112.785 54.9328 112.872 54.7425 112.993L54.5868 112.439C54.7771 112.336 55.1577 112.197 55.6422 112.197C56.5591 112.197 56.8532 112.734 56.8532 113.374V114.325C56.8532 114.585 56.8705 114.844 56.8878 114.983H56.1266V115Z" fill="#9AB4C1"/>
<path d="M59.9138 112.267V115H59.0661V112.907H58.4778V113.409C58.4778 114.066 58.3913 114.533 58.0972 114.793C57.9242 114.983 57.682 115.052 57.3013 115.052L57.2148 114.395C57.336 114.377 57.4571 114.326 57.5263 114.239C57.682 114.083 57.6993 113.824 57.6993 113.357V112.249H59.9138V112.267Z" fill="#9AB4C1"/>
<path d="M61.4499 112.267V113.357H61.5537L62.2457 112.267H63.2492L62.2457 113.443C62.5744 113.512 62.7647 113.806 62.9378 114.204C63.0243 114.429 63.1281 114.758 63.2665 115H62.3841C62.3149 114.879 62.2457 114.689 62.1419 114.395C62.0208 114.083 61.8478 113.91 61.571 113.91H61.4845V115H60.6367V112.267H61.4499Z" fill="#9AB4C1"/>
<path d="M63.5633 112.266H64.4111V115H63.5633V112.266ZM64.4457 111.488C64.4457 111.73 64.2727 111.92 63.9785 111.92C63.719 111.92 63.5287 111.73 63.546 111.488C63.546 111.246 63.719 111.055 63.9958 111.055C64.2727 111.055 64.4457 111.246 64.4457 111.488Z" fill="#9AB4C1"/>
<path d="M67.4919 112.267V115H66.6442V112.907H66.0559V113.409C66.0559 114.066 65.9694 114.533 65.6753 114.793C65.5023 114.983 65.2601 115.052 64.8795 115.052L64.793 114.395C64.9141 114.377 65.0352 114.326 65.0871 114.239C65.2428 114.083 65.2601 113.824 65.2601 113.357V112.249H67.4919V112.267Z" fill="#9AB4C1"/>
<path d="M70.224 114.481C70.6392 114.394 70.8296 114.048 70.8296 113.616C70.8296 113.183 70.6392 112.855 70.224 112.768V114.481ZM69.4628 112.768C69.0475 112.872 68.8572 113.218 68.8572 113.633C68.8572 114.083 69.0475 114.394 69.4628 114.498V112.768ZM70.224 111.021V112.214C71.0026 112.284 71.6773 112.751 71.6773 113.633C71.6773 114.516 71.0026 114.983 70.224 115.035V116.107H69.4455V115.052C68.6842 114.983 67.9922 114.533 67.9922 113.65C67.9922 112.751 68.6496 112.284 69.4455 112.214V111.021H70.224Z" fill="#9AB4C1"/>
<path d="M73.8596 113.322C73.8596 113.114 73.7731 112.768 73.3751 112.768C73.0118 112.768 72.8734 113.097 72.8561 113.322H73.8596ZM72.8561 113.893C72.8907 114.256 73.2367 114.412 73.6347 114.412C73.9288 114.412 74.1537 114.377 74.3959 114.308L74.4997 114.879C74.2229 114.983 73.8769 115.052 73.5136 115.052C72.5793 115.052 72.043 114.516 72.043 113.651C72.043 112.959 72.4755 112.18 73.4271 112.18C74.3094 112.18 74.6554 112.872 74.6554 113.547C74.6554 113.685 74.6381 113.824 74.6208 113.876H72.8561V113.893Z" fill="#9AB4C1"/>
<path d="M76.006 112.267V113.253H76.871V112.267H77.7361V115H76.871V113.91H76.006V115H75.1582V112.267H76.006Z" fill="#9AB4C1"/>
<path d="M79.1363 113.616C79.1363 114.083 79.3266 114.446 79.6899 114.446C80.0186 114.446 80.2262 114.118 80.2262 113.616C80.2262 113.201 80.0705 112.785 79.6899 112.785C79.2747 112.803 79.1363 113.218 79.1363 113.616ZM81.1086 113.599C81.1086 114.602 80.3992 115.069 79.6726 115.069C78.8767 115.069 78.2539 114.533 78.2539 113.65C78.2539 112.768 78.8421 112.197 79.7245 112.197C80.5549 112.197 81.1086 112.768 81.1086 113.599Z" fill="#9AB4C1"/>
<path d="M84.0134 112.267V115H83.1657V112.907H82.5774V113.409C82.5774 114.066 82.4909 114.533 82.1968 114.793C82.0238 114.983 81.7816 115.052 81.401 115.052L81.3145 114.395C81.4356 114.377 81.5567 114.326 81.6086 114.239C81.7643 114.083 81.7816 113.824 81.7816 113.357V112.249H84.0134V112.267Z" fill="#9AB4C1"/>
<path d="M86.3615 113.322C86.3615 113.114 86.275 112.768 85.8771 112.768C85.5138 112.768 85.3754 113.097 85.3581 113.322H86.3615ZM85.3581 113.893C85.3927 114.256 85.7387 114.412 86.1366 114.412C86.4307 114.412 86.6556 114.377 86.8979 114.308L87.0017 114.879C86.7248 114.983 86.3788 115.052 86.0155 115.052C85.0813 115.052 84.5449 114.516 84.5449 113.651C84.5449 112.959 84.9774 112.18 85.929 112.18C86.8114 112.18 87.1574 112.872 87.1574 113.547C87.1574 113.685 87.1401 113.824 87.1228 113.876H85.3581V113.893Z" fill="#9AB4C1"/>
<path d="M89.7946 112.267V112.907H88.9988V115H88.1337V112.907H87.3379V112.267H89.7946Z" fill="#9AB4C1"/>
<path d="M90.8472 113.616C90.8472 114.083 91.0375 114.446 91.4008 114.446C91.7295 114.446 91.9372 114.118 91.9372 113.616C91.9372 113.201 91.7814 112.785 91.4008 112.785C91.0029 112.803 90.8472 113.218 90.8472 113.616ZM92.8195 113.599C92.8195 114.602 92.1102 115.069 91.3835 115.069C90.5877 115.069 89.9648 114.533 89.9648 113.65C89.9648 112.768 90.5531 112.197 91.4354 112.197C92.2659 112.197 92.8195 112.768 92.8195 113.599Z" fill="#9AB4C1"/>
<path d="M94.2038 112.267V113.357H94.3076L94.9996 112.267H96.0031L94.9996 113.443C95.3283 113.512 95.5186 113.806 95.6917 114.204C95.7782 114.429 95.882 114.758 96.0204 115H95.138C95.0688 114.879 94.9996 114.689 94.8958 114.395C94.7747 114.083 94.6017 113.91 94.3249 113.91H94.2384V115H93.3906V112.267H94.2038Z" fill="#9AB4C1"/>
<path d="M98.3591 114.931C98.2034 115 97.9265 115.052 97.5978 115.052C96.7155 115.052 96.1445 114.516 96.1445 113.65C96.1445 112.855 96.6982 112.197 97.7189 112.197C97.9438 112.197 98.1861 112.232 98.3764 112.301L98.238 112.941C98.1341 112.889 97.9784 112.855 97.7535 112.855C97.3037 112.855 97.0096 113.166 97.0269 113.616C97.0269 114.118 97.3556 114.394 97.7708 114.394C97.9784 114.394 98.1341 114.36 98.2553 114.308L98.3591 114.931Z" fill="#9AB4C1"/>
<path d="M99.6195 112.267V113.097C99.6195 113.53 99.6022 113.841 99.5676 114.204H99.5849C99.706 113.893 99.7925 113.685 99.8963 113.426L100.433 112.249H101.471V114.983H100.658V114.153C100.658 113.72 100.675 113.547 100.709 112.959H100.692C100.588 113.253 100.519 113.443 100.398 113.703C100.225 114.083 100.017 114.55 99.8271 114.983H98.7891V112.249H99.6195V112.267Z" fill="#9AB4C1"/>
<path d="M104.564 112.267V115H103.716V112.907H103.128V113.409C103.128 114.066 103.042 114.533 102.748 114.793C102.575 114.983 102.332 115.052 101.952 115.052L101.865 114.395C101.986 114.377 102.107 114.326 102.177 114.239C102.332 114.083 102.35 113.824 102.35 113.357V112.249H104.564V112.267Z" fill="#9AB4C1"/>
<path d="M106.699 113.702C106.249 113.702 105.903 113.806 105.903 114.135C105.903 114.36 106.041 114.464 106.231 114.464C106.439 114.464 106.612 114.325 106.681 114.152C106.699 114.1 106.699 114.066 106.699 114.014V113.702ZM106.802 115L106.75 114.723H106.733C106.56 114.948 106.283 115.052 105.955 115.052C105.401 115.052 105.072 114.654 105.072 114.221C105.072 113.512 105.712 113.166 106.681 113.166V113.131C106.681 112.993 106.612 112.785 106.18 112.785C105.903 112.785 105.609 112.872 105.418 112.993L105.263 112.439C105.453 112.336 105.834 112.197 106.335 112.197C107.252 112.197 107.546 112.734 107.546 113.374V114.325C107.546 114.585 107.564 114.844 107.581 114.983H106.802V115Z" fill="#9AB4C1"/>
<path d="M110.31 112.267V112.907H109.514V115H108.649V112.907H107.854V112.267H110.31Z" fill="#9AB4C1"/>
<path d="M110.689 112.266H111.537V115H110.689V112.266ZM111.571 111.488C111.571 111.73 111.398 111.92 111.104 111.92C110.827 111.92 110.654 111.73 110.654 111.488C110.654 111.246 110.827 111.055 111.104 111.055C111.381 111.055 111.554 111.246 111.571 111.488Z" fill="#9AB4C1"/>
<path d="M113.062 113.322H113.287C113.633 113.322 113.841 113.235 113.841 113.028C113.841 112.855 113.702 112.734 113.356 112.734C113.235 112.734 113.166 112.751 113.062 112.751V113.322ZM113.062 114.516C113.149 114.533 113.218 114.533 113.356 114.533C113.651 114.533 113.945 114.446 113.945 114.17C113.945 113.945 113.72 113.824 113.322 113.824H113.08V114.516H113.062ZM112.215 112.284C112.422 112.249 112.889 112.215 113.322 112.215C113.789 112.215 114.671 112.267 114.671 112.907C114.671 113.253 114.394 113.443 114.118 113.495V113.512C114.533 113.581 114.792 113.806 114.792 114.187C114.792 114.966 113.737 115.035 113.166 115.035C112.786 115.035 112.388 115 112.197 114.983V112.284H112.215Z" fill="#9AB4C1"/>
<path d="M115 115.657C115.173 115.156 115.329 114.567 115.398 114.066L116.263 114.014C116.073 114.585 115.83 115.173 115.554 115.605L115 115.657Z" fill="#9AB4C1"/>
<path d="M56.0228 120.433C55.573 120.433 55.2269 120.536 55.2269 120.865C55.2269 121.09 55.3653 121.194 55.5557 121.194C55.7633 121.194 55.9363 121.055 55.9882 120.882C56.0055 120.83 56.0055 120.796 56.0055 120.744V120.433H56.0228ZM56.1266 121.73L56.0747 121.453H56.0574C55.8844 121.678 55.5903 121.799 55.2788 121.799C54.7252 121.799 54.3965 121.401 54.3965 120.952C54.3965 120.242 55.0366 119.896 56.0055 119.896V119.862C56.0055 119.723 55.9363 119.516 55.5037 119.516C55.2269 119.516 54.9328 119.602 54.7425 119.723L54.5868 119.17C54.7771 119.066 55.1577 118.927 55.6422 118.927C56.5591 118.927 56.8532 119.464 56.8532 120.104V121.055C56.8532 121.315 56.8705 121.574 56.8878 121.713H56.1266V121.73Z" fill="#9AB4C1"/>
<path d="M57.6139 118.979H58.7038L58.9979 120.017C59.0498 120.173 59.1191 120.467 59.171 120.709H59.1883C59.2402 120.519 59.3267 120.225 59.4132 119.966L59.7246 118.997H60.7973L60.9703 121.73H60.1744L60.1225 120.64C60.1225 120.398 60.1052 120 60.0879 119.689H60.0706C59.9668 120.052 59.9495 120.139 59.8111 120.588L59.4478 121.713H58.8249L58.4962 120.623C58.427 120.363 58.3405 119.966 58.2713 119.706H58.254C58.2367 120.052 58.2367 120.433 58.2194 120.658L58.1675 121.748H57.4062L57.6139 118.979Z" fill="#9AB4C1"/>
<path d="M61.54 118.979H62.3877V121.713H61.54V118.979ZM62.4223 118.218C62.4223 118.46 62.2493 118.651 61.9552 118.651C61.6784 118.651 61.5054 118.46 61.5227 118.218C61.5227 117.976 61.6957 117.786 61.9725 117.786C62.2493 117.786 62.4223 117.976 62.4223 118.218Z" fill="#9AB4C1"/>
<path d="M64.5325 120.433C64.0827 120.433 63.7367 120.536 63.7367 120.865C63.7367 121.09 63.8924 121.194 64.0654 121.194C64.273 121.194 64.446 121.055 64.4979 120.882C64.5152 120.83 64.5152 120.796 64.5152 120.744V120.433H64.5325ZM64.6364 121.73L64.5844 121.453H64.5672C64.3941 121.678 64.1 121.799 63.7886 121.799C63.235 121.799 62.9062 121.401 62.9062 120.952C62.9062 120.242 63.5464 119.896 64.5152 119.896V119.862C64.5152 119.723 64.4287 119.516 64.0135 119.516C63.7367 119.516 63.4426 119.602 63.2523 119.723L63.0966 119.17C63.2869 119.066 63.6675 118.927 64.1519 118.927C65.0689 118.927 65.363 119.464 65.363 120.104V121.055C65.363 121.315 65.3803 121.574 65.3976 121.713H64.6364V121.73Z" fill="#9AB4C1"/>
<path d="M66.8868 118.979V120.069H66.9906L67.6827 118.979H68.6861L67.6827 120.156C68.0114 120.225 68.2017 120.519 68.3747 120.917C68.4612 121.142 68.565 121.471 68.7034 121.713H67.7865C67.7173 121.592 67.6481 121.402 67.5443 121.107C67.4231 120.796 67.2501 120.623 66.9733 120.623H66.8868V121.713H66.0391V118.979H66.8868Z" fill="#9AB4C1"/>
<path d="M69.725 118.979L70.1402 120.329C70.1921 120.485 70.244 120.692 70.2786 120.831H70.2959C70.3305 120.692 70.3824 120.467 70.417 120.329L70.7458 118.979H71.6627L71.0226 120.779C70.6246 121.869 70.3651 122.301 70.0537 122.578C69.7596 122.838 69.4482 122.924 69.2233 122.959L69.0503 122.232C69.1541 122.215 69.2925 122.163 69.4136 122.094C69.5347 122.024 69.6904 121.886 69.7596 121.748C69.7942 121.713 69.8115 121.661 69.8115 121.626C69.8115 121.592 69.8115 121.557 69.7769 121.488L68.7734 118.979H69.725Z" fill="#9AB4C1"/>
<path d="M71.5898 121.263C71.5898 120.969 71.7975 120.744 72.0916 120.744C72.3857 120.744 72.5933 120.952 72.5933 121.263C72.5933 121.557 72.3857 121.782 72.0916 121.782C71.7975 121.782 71.5898 121.557 71.5898 121.263Z" fill="#9AB4C1"/>
<path d="M112.034 42.9557L112.221 42.8507C112.326 42.7923 112.466 42.8507 112.536 42.979L113.785 45.1146L114.356 44.7762L113.283 42.9324C113.213 42.804 113.236 42.6523 113.33 42.5939L113.516 42.4889C113.621 42.4305 113.761 42.4889 113.843 42.6056L114.917 44.4494L115.5 44.111L114.251 41.9754C114.181 41.8471 114.205 41.707 114.298 41.637L114.485 41.5203C114.59 41.4619 114.73 41.5086 114.812 41.6487L116.469 44.4728C116.539 44.6011 116.515 44.7529 116.41 44.8112L113.96 46.2466C113.855 46.305 113.715 46.2466 113.645 46.1182L111.987 43.2824C111.917 43.1657 111.929 43.0257 112.034 42.9557Z" fill="#9AB4C1"/>
<path d="M114.029 39.9096C114.075 40.0496 114.017 40.1896 113.912 40.2363L111.228 41.1349C111.111 41.1699 110.983 41.0882 110.936 40.9482L110.773 40.4347C110.726 40.2947 110.784 40.1546 110.889 40.108L111.928 39.7579L111.73 39.1744C111.625 38.8593 111.426 38.6726 111.041 38.5559L110.306 38.3341C110.131 38.2758 110.014 38.1474 109.967 38.019L109.757 37.3889C109.711 37.2488 109.792 37.1905 109.932 37.2372L110.983 37.5406C111.228 37.6106 111.496 37.7273 111.695 38.0774C111.648 37.7973 111.823 37.4355 111.963 37.2138L112.593 36.2569C112.675 36.1285 112.78 36.1402 112.827 36.2802L113.037 36.8987C113.083 37.0388 113.06 37.2488 112.978 37.3772L112.535 38.0541C112.336 38.3458 112.231 38.6142 112.348 38.9643L112.535 39.5478L113.585 39.1977C113.69 39.1627 113.818 39.2444 113.865 39.3844L114.029 39.9096Z" fill="#9AB4C1"/>
<path d="M110.867 34.448C111.567 34.3663 111.906 33.9812 111.812 33.1176C111.719 32.2424 111.299 31.9507 110.599 32.0207C109.899 32.1024 109.56 32.4875 109.654 33.351C109.747 34.2263 110.167 34.5297 110.867 34.448ZM109.035 33.4327C108.872 31.9857 109.268 31.0987 110.47 30.9704C111.672 30.842 112.256 31.6122 112.419 33.0593C112.583 34.5064 112.186 35.3933 110.984 35.5216C109.782 35.65 109.198 34.8798 109.035 33.4327Z" fill="#9AB4C1"/>
<path d="M112.527 25.7193L112.469 26.2561C112.457 26.3962 112.352 26.5129 112.224 26.5012L109.831 26.2445L109.761 26.933C109.726 27.2947 109.866 27.6098 110.135 27.7265L112.002 28.5901C112.119 28.6485 112.189 28.8002 112.177 28.9519L112.119 29.5237C112.107 29.6521 112.002 29.7338 111.909 29.6871L109.808 28.7301C109.12 28.4151 109.038 27.5748 109.131 26.7579L109.283 25.3459C109.295 25.2175 109.411 25.1241 109.516 25.1358L112.34 25.4392C112.469 25.4509 112.551 25.5793 112.527 25.7193Z" fill="#9AB4C1"/>
<path d="M111.622 22.5447C112.287 22.7665 112.766 22.5681 113.046 21.7395C113.326 20.911 113.069 20.4558 112.404 20.2341C111.739 20.0124 111.26 20.2108 110.98 21.0393C110.7 21.8679 110.957 22.3113 111.622 22.5447ZM110.397 20.8409C110.864 19.4639 111.599 18.8337 112.754 19.2188C113.898 19.6039 114.096 20.5609 113.629 21.9379C113.163 23.315 112.427 23.9568 111.272 23.56C110.128 23.1632 109.93 22.218 110.397 20.8409Z" fill="#9AB4C1"/>
<path d="M112.338 16.9312C112.233 16.8728 112.21 16.7211 112.291 16.5927L113.68 14.2121C113.762 14.0837 113.89 14.0254 113.995 14.0837L114.182 14.1887C114.287 14.2471 114.31 14.3988 114.229 14.5272L113.248 16.2076L115.325 17.433C115.431 17.4913 115.442 17.643 115.372 17.7714L115.104 18.2382C115.034 18.3666 114.894 18.4249 114.789 18.3666L112.338 16.9312Z" fill="#9AB4C1"/>
<path d="M115.127 12.6255C115.033 12.5555 115.033 12.3922 115.127 12.2871L115.465 11.867C115.558 11.7503 115.71 11.7153 115.804 11.7853L118.021 13.5591C118.114 13.6292 118.114 13.7925 118.021 13.9092L117.694 14.3177C117.601 14.4344 117.449 14.4694 117.367 14.3994L115.127 12.6255Z" fill="#9AB4C1"/>
<path d="M117.099 10.233C117.017 10.1396 117.041 9.9879 117.157 9.88287L117.554 9.53277C117.671 9.42774 117.823 9.41607 117.904 9.50943L118.418 10.0813C118.663 10.3497 118.966 10.3263 119.293 10.0346L120.11 9.29937L119.223 8.33077C119.141 8.23741 119.165 8.0857 119.281 7.99234L119.678 7.64225C119.795 7.53722 119.947 7.52555 120.028 7.61891L121.93 9.71949C122.012 9.80118 121.977 9.96456 121.872 10.0579L121.475 10.408C121.37 10.5014 121.219 10.5247 121.137 10.4314L120.542 9.77784L119.725 10.513C118.966 11.2016 118.173 11.4233 117.613 10.8048L117.099 10.233Z" fill="#9AB4C1"/>
<path d="M125.332 6.17234L123.629 7.14094L124.212 8.15622C124.27 8.26125 124.212 8.40129 124.084 8.47131L123.617 8.73971C123.489 8.80973 123.337 8.78639 123.278 8.69303L121.866 6.21901C121.808 6.11399 121.866 5.97395 121.995 5.89226L122.462 5.63552C122.59 5.5655 122.742 5.57717 122.8 5.6822L123.313 6.56911L125.017 5.60051L124.504 4.7136C124.445 4.60857 124.504 4.46853 124.632 4.39851L125.099 4.14177C125.227 4.06008 125.379 4.08342 125.449 4.18845L126.861 6.6508C126.919 6.75583 126.861 6.89587 126.733 6.97756L126.278 7.24597C126.149 7.31599 125.998 7.29265 125.939 7.19929L125.332 6.17234Z" fill="#9AB4C1"/>
<path d="M131.686 5.20287C131.546 5.24955 131.394 5.1912 131.371 5.07451L130.753 3.05561L129.947 5.50629C129.901 5.64633 129.761 5.78637 129.609 5.83305L128.71 6.11313C128.57 6.15981 128.419 6.10146 128.395 5.98476L127.567 3.26567C127.532 3.14897 127.613 3.03227 127.765 2.98559L128.243 2.83389C128.384 2.78721 128.524 2.84556 128.559 2.96225L129.224 5.14453L130.111 2.49546C130.157 2.36709 130.286 2.21538 130.426 2.18037L131.231 1.9353C131.371 1.88862 131.511 1.94697 131.546 2.06367L132.375 4.78276C132.41 4.89946 132.316 5.02783 132.176 5.06284L131.686 5.20287Z" fill="#9AB4C1"/>
<path d="M136.169 0.325222C136.204 0.255203 136.262 0.196854 136.355 0.196854L136.589 0.173514C136.694 0.161844 136.752 0.196854 136.752 0.278543C136.776 0.698659 136.414 0.978737 135.842 1.01375C135.27 1.06043 134.873 0.827028 134.838 0.406912C134.838 0.325222 134.885 0.290213 134.99 0.278543L135.223 0.266873C135.317 0.266873 135.387 0.301883 135.434 0.371902C135.492 0.465261 135.609 0.523611 135.807 0.511941C136.017 0.500271 136.122 0.430252 136.169 0.325222ZM137.406 4.4447C137.254 4.45637 137.137 4.36301 137.126 4.24631L136.974 2.13406L135.644 4.35134C135.574 4.46804 135.399 4.58474 135.247 4.59641L134.302 4.66642C134.15 4.67809 134.021 4.58474 134.021 4.46804L133.823 1.64392C133.811 1.51555 133.928 1.42219 134.08 1.41052L134.582 1.37551C134.722 1.36384 134.85 1.44553 134.862 1.56223L135.025 3.83786L136.484 1.4572C136.554 1.3405 136.717 1.2238 136.857 1.21213L137.697 1.15379C137.838 1.14212 137.966 1.23547 137.978 1.35217L138.176 4.17629C138.188 4.29299 138.071 4.39802 137.919 4.40969L137.406 4.4447Z" fill="#9AB4C1"/>
<path d="M145.479 2.18081L146.097 2.34419C146.856 2.55425 147.591 3.10273 147.416 3.74458C147.358 3.94297 147.136 3.9313 147.066 3.90796L146.728 3.8146C146.576 3.76792 146.459 3.67456 146.401 3.4645C146.331 3.21943 146.156 3.02104 145.817 2.92769L145.327 2.79932C144.51 2.57759 144.23 2.75264 144.032 3.48784C143.834 4.22304 143.985 4.51479 144.802 4.73652L145.351 4.88823C145.689 4.98159 145.934 4.8999 146.121 4.72485C146.273 4.57314 146.424 4.5498 146.576 4.58481L146.903 4.67817C146.973 4.70151 147.171 4.79487 147.124 4.99326C146.949 5.6351 146.039 5.74013 145.281 5.53007L144.615 5.34335C143.273 4.98159 142.713 4.29306 143.005 3.19609C143.297 2.12246 144.125 1.80737 145.479 2.18081Z" fill="#9AB4C1"/>
<path d="M152.938 5.5418L152.845 5.72852C152.787 5.83355 152.635 5.86856 152.507 5.79854L150.301 4.66656L149.998 5.25006L151.9 6.23033C152.028 6.30035 152.098 6.44038 152.04 6.54541L151.946 6.73213C151.888 6.83716 151.736 6.8605 151.608 6.80215L149.706 5.82188L149.402 6.41704L151.596 7.54903C151.725 7.61904 151.783 7.74741 151.736 7.85244L151.631 8.05083C151.573 8.15586 151.433 8.19087 151.293 8.12085L148.387 6.61543C148.247 6.54541 148.189 6.40538 148.247 6.30035L149.542 3.77965C149.601 3.67462 149.752 3.65128 149.881 3.7213L152.798 5.22672C152.927 5.29673 152.985 5.43677 152.938 5.5418Z" fill="#9AB4C1"/>
<path d="M155.166 7.66573L154.372 8.63433L155.177 9.28785C155.609 9.63794 155.994 9.83633 156.333 9.41622C156.671 9.00777 156.403 8.66934 155.971 8.31925L155.166 7.66573ZM156.624 8.0275C157.464 8.71602 157.71 9.41622 157.161 10.0931C156.601 10.7699 155.866 10.6766 155.025 9.98804L153.964 9.13614L153.637 9.53292C153.567 9.62628 153.415 9.62628 153.298 9.53292L152.878 9.19449C152.762 9.10113 152.727 8.94942 152.808 8.85606L154.594 6.66212C154.675 6.56876 154.815 6.56876 154.932 6.66212L156.624 8.0275Z" fill="#9AB4C1"/>
<path d="M161.583 13.3255C161.677 13.4422 161.677 13.5939 161.583 13.664L161.42 13.804C161.326 13.8857 161.175 13.8507 161.081 13.734L160.276 12.7537L158.409 14.2708C158.316 14.3408 158.164 14.3058 158.071 14.2008L157.732 13.7807C157.639 13.664 157.639 13.5123 157.732 13.4422L159.599 11.9251L158.794 10.9332C158.701 10.8165 158.701 10.6648 158.794 10.5948L158.957 10.4547C159.051 10.373 159.203 10.4081 159.296 10.5248L161.583 13.3255Z" fill="#9AB4C1"/>
<path d="M161.47 19.6974C161.4 19.569 161.435 19.4173 161.54 19.359L163.431 18.402L160.875 18.0403C160.735 18.0169 160.571 17.9002 160.501 17.7719L160.07 16.9316C160 16.7916 160.035 16.6515 160.14 16.5932L162.672 15.3095C162.777 15.2512 162.917 15.3095 162.987 15.4495L163.221 15.893C163.291 16.0214 163.267 16.1731 163.162 16.2314L161.132 17.2701L163.897 17.6785C164.037 17.7018 164.201 17.8069 164.271 17.9236L164.656 18.6704C164.726 18.7988 164.691 18.9505 164.586 18.9972L162.054 20.2809C161.948 20.3276 161.808 20.2692 161.738 20.1408L161.47 19.6974Z" fill="#9AB4C1"/>
<path d="M163.963 24.4702C164.115 25.1003 164.43 25.4738 164.92 25.3454C165.41 25.2287 165.527 24.7619 165.375 24.1317L163.963 24.4702ZM165.13 23.1515C164.978 22.5213 164.663 22.1595 164.173 22.2762C163.683 22.3929 163.566 22.8597 163.718 23.4899L165.13 23.1515ZM166.332 23.6533C166.367 23.805 166.309 23.945 166.18 23.9684L165.958 24.015C166.239 25.182 166.11 26.1623 165.153 26.3957C164.196 26.6291 163.636 25.8122 163.356 24.6452L163.134 24.7036C163.018 24.7269 162.901 24.6336 162.866 24.4935L162.749 23.98C162.714 23.8283 162.784 23.6883 162.901 23.665L163.123 23.6183C162.843 22.4513 162.971 21.471 163.928 21.2376C164.885 21.0042 165.445 21.8211 165.725 22.9881L165.947 22.9414C166.064 22.9064 166.18 23.0114 166.215 23.1515L166.332 23.6533Z" fill="#9AB4C1"/>
<path d="M166.637 28.0297C166.753 28.018 166.859 28.1347 166.87 28.2864L166.905 28.8232C166.917 28.9749 166.823 29.1033 166.707 29.115L163.871 29.2784C163.754 29.29 163.649 29.1617 163.638 29.0099L163.614 28.4848C163.603 28.3331 163.696 28.2047 163.813 28.2047L166.637 28.0297Z" fill="#9AB4C1"/>
<path d="M163.697 31.2621C163.709 31.1104 163.826 31.0053 163.942 31.017L166.755 31.3087C166.871 31.3204 166.965 31.4488 166.941 31.6005L166.883 32.1373C166.871 32.2773 166.755 32.394 166.638 32.3824L165.553 32.2657L165.494 32.8725C165.459 33.1993 165.564 33.456 165.868 33.7127L166.451 34.2145C166.591 34.3312 166.638 34.4946 166.626 34.6463L166.556 35.2998C166.545 35.4516 166.451 35.4632 166.335 35.3582L165.506 34.6463C165.308 34.483 165.109 34.2612 165.086 33.8645C165.016 34.1445 164.701 34.4013 164.479 34.5413L163.499 35.1598C163.37 35.2415 163.277 35.1832 163.3 35.0314L163.37 34.3779C163.382 34.2379 163.499 34.0512 163.627 33.9695L164.316 33.5377C164.607 33.351 164.829 33.1526 164.864 32.7908L164.923 32.184L163.826 32.0673C163.709 32.0556 163.627 31.9272 163.639 31.7755L163.697 31.2621Z" fill="#9AB4C1"/>
<path d="M163.985 37.9607L163.413 39.6761L164.545 40.0496L164.802 39.2794C164.919 38.9293 164.849 38.5908 164.604 38.4158L163.985 37.9607ZM165.129 37.5172C165.736 37.9723 165.631 38.8009 165.374 39.5945L164.896 41.0532C164.849 41.1816 164.721 41.2516 164.615 41.2166L161.92 40.318C161.803 40.283 161.756 40.1313 161.803 39.9912L161.978 39.4778C162.025 39.3377 162.153 39.256 162.27 39.291L162.807 39.4778L163.448 37.5522L162.958 37.1905C162.853 37.1088 162.807 36.9454 162.865 36.8054L163.04 36.2685C163.087 36.1285 163.203 36.0702 163.297 36.1518L165.129 37.5172Z" fill="#9AB4C1"/>
<path d="M162.036 46.4331C161.954 46.5615 161.814 46.6199 161.721 46.5499L161.534 46.4448C161.429 46.3865 161.405 46.2348 161.487 46.1064L162.129 45.0094L160.052 43.7841C159.947 43.7257 159.935 43.574 160.005 43.4457L160.273 42.9789C160.343 42.8505 160.495 42.7921 160.589 42.8505L162.666 44.0758L163.308 42.9789C163.378 42.8505 163.518 42.7921 163.623 42.8622L163.809 42.9672C163.914 43.0255 163.938 43.1772 163.856 43.3056L162.036 46.4331Z" fill="#9AB4C1"/>
<path d="M124.358 52.2214L124.766 52.4665C125.268 52.7816 125.653 53.3768 125.338 53.8902C125.233 54.0536 125.082 54.0069 125.035 53.9719L124.825 53.8436C124.72 53.7852 124.661 53.6802 124.685 53.4935C124.708 53.2717 124.626 53.0733 124.405 52.9333L124.078 52.7349C123.541 52.4082 123.273 52.5132 122.911 53.0967C122.549 53.6919 122.573 53.9719 123.109 54.2987L123.471 54.5204C123.693 54.6605 123.903 54.6371 124.09 54.5204C124.253 54.4154 124.37 54.4154 124.475 54.4854L124.696 54.6138C124.743 54.6488 124.86 54.7655 124.766 54.9289C124.451 55.4423 123.751 55.3723 123.238 55.0689L122.794 54.8005C121.907 54.252 121.697 53.5752 122.234 52.6882C122.771 51.7897 123.471 51.673 124.358 52.2214Z" fill="#9AB4C1"/>
<path d="M126.015 54.8704C125.758 55.4539 125.852 55.8857 126.447 56.1541C127.042 56.4225 127.427 56.2008 127.684 55.6173C127.941 55.0338 127.847 54.602 127.252 54.3336C126.657 54.0652 126.272 54.2753 126.015 54.8704ZM127.486 53.8085C128.489 54.2519 128.874 54.9171 128.431 55.9324C127.987 56.9477 127.229 57.0994 126.225 56.6676C125.222 56.2242 124.836 55.559 125.28 54.5437C125.735 53.5284 126.482 53.365 127.486 53.8085Z" fill="#9AB4C1"/>
<path d="M129.095 57.0411C129.212 57.0761 129.305 57.1461 129.434 57.1811L129.469 57.1928C129.737 57.2745 129.982 57.1578 130.181 56.8427L130.006 56.796C129.294 56.586 129.06 56.2009 128.967 55.5357L128.862 54.7188C128.85 54.6021 128.932 54.5321 129.037 54.5671L129.469 54.6955C129.597 54.7305 129.679 54.8472 129.69 54.9522L129.76 55.5824C129.795 55.9208 129.936 56.1542 130.297 56.2592L130.542 56.3292L131.208 55.4073C131.289 55.3023 131.418 55.2673 131.523 55.3023L131.943 55.4307C132.048 55.4657 132.083 55.559 132.013 55.6524L130.787 57.3212C130.472 57.753 130.052 57.9864 129.34 57.7763L128.85 57.6246C128.745 57.5896 128.687 57.4846 128.71 57.3795L128.78 57.1578C128.815 57.0528 128.92 56.9944 129.025 57.0294L129.095 57.0411Z" fill="#9AB4C1"/>
<path d="M134.127 57.3213C134.057 57.9631 134.278 58.3366 134.932 58.4066C135.585 58.4766 135.877 58.1498 135.947 57.508C136.017 56.8778 135.795 56.4927 135.142 56.4227C134.488 56.3643 134.197 56.6911 134.127 57.3213ZM135.2 55.8742C136.286 55.9909 136.857 56.5044 136.752 57.6014C136.636 58.71 135.97 59.0834 134.885 58.9784C133.8 58.8617 133.216 58.3482 133.333 57.2513C133.45 56.1426 134.115 55.7575 135.2 55.8742Z" fill="#9AB4C1"/>
<path d="M140.064 56.2359V56.4343C140.064 56.551 139.971 56.6327 139.866 56.6327L137.987 56.6677L137.998 57.2745L139.621 57.2395C139.726 57.2395 139.831 57.3212 139.831 57.4262V57.6246C139.831 57.7296 139.737 57.823 139.632 57.823L138.01 57.858L138.022 58.4765L139.901 58.4298C140.006 58.4298 140.099 58.5115 140.099 58.6165V58.8149C140.099 58.92 140.017 59.0133 139.901 59.0133L137.415 59.0717C137.298 59.0717 137.205 58.99 137.205 58.8733L137.146 56.2826C137.146 56.1775 137.228 56.0842 137.345 56.0842L139.842 56.0258C139.971 56.0375 140.064 56.1192 140.064 56.2359Z" fill="#9AB4C1"/>
<path d="M142.572 58.6981C142.467 58.7215 142.339 58.6514 142.28 58.5581L141.195 56.6675L141.533 58.6748C141.557 58.7798 141.475 58.8848 141.37 58.9082L140.985 58.9665C140.868 58.9899 140.763 58.9198 140.752 58.8031L140.32 56.2474C140.308 56.1424 140.367 56.0374 140.483 56.014L141.347 55.8623C141.463 55.839 141.58 55.909 141.639 56.014L142.56 57.6712L142.899 55.804C142.922 55.6989 143.016 55.5823 143.121 55.5706L143.996 55.4189C144.101 55.4072 144.206 55.4772 144.229 55.5822L144.661 58.138C144.684 58.243 144.603 58.348 144.486 58.3714L144.101 58.4297C143.984 58.453 143.879 58.383 143.867 58.2663L143.529 56.2591L143.109 58.4064C143.086 58.5114 142.992 58.6164 142.876 58.6398L142.572 58.6981Z" fill="#9AB4C1"/>
<path d="M147.102 56.014C147.359 56.6676 147.767 56.7493 148.187 56.5859C148.608 56.4225 148.864 56.0957 148.608 55.4306C148.351 54.777 147.942 54.6954 147.522 54.8587C147.102 55.0221 146.845 55.3605 147.102 56.014ZM147.371 54.2869C148.164 53.9718 148.934 54.0652 149.354 55.1388C149.775 56.2124 149.261 56.7959 148.468 57.0993L148.328 57.1577C147.534 57.4611 146.764 57.3794 146.344 56.3058C145.924 55.2322 146.437 54.6487 147.231 54.3453L147.371 54.2869Z" fill="#9AB4C1"/>
<path d="M149.859 53.1779C149.964 53.1313 150.081 53.1663 150.128 53.2596L151.295 55.5819C151.341 55.6753 151.306 55.8037 151.201 55.8503L150.851 56.0254C150.746 56.0721 150.63 56.0371 150.583 55.9437L149.673 54.1465L149.533 54.4149C149.498 54.4733 149.416 54.4966 149.346 54.4733L149.112 54.3683C149.019 54.3216 149.042 54.2516 149.066 54.1815L149.334 53.5514C149.381 53.4463 149.474 53.3763 149.568 53.318L149.859 53.1779Z" fill="#9AB4C1"/>
<path d="M152.806 52.9099L152.678 52.6881C152.491 52.3847 152.305 52.408 152.013 52.5831L151.744 52.7465C151.453 52.9215 151.359 53.0849 151.499 53.3066C151.639 53.54 151.826 53.505 152.118 53.33L152.806 52.9099ZM152.351 53.8901C151.686 54.2986 151.173 54.3452 150.799 53.7501C150.437 53.1549 150.694 52.7115 151.359 52.303L151.756 52.0579C152.41 51.6495 152.935 51.6028 153.343 52.2797L153.833 53.0616C154.277 53.7618 154.008 54.2169 153.355 54.6253L152.911 54.9054C152.375 55.2438 151.791 55.2322 151.569 54.8821C151.464 54.7187 151.581 54.602 151.639 54.567L151.849 54.4269C151.954 54.3686 152.048 54.3686 152.2 54.4386C152.316 54.497 152.48 54.4736 152.666 54.3569L153.005 54.1469C153.285 53.9718 153.378 53.8084 153.168 53.47L153.121 53.4L152.351 53.8901Z" fill="#9AB4C1"/>
<path d="M121.212 20.4675C121.9 18.4603 122.939 16.5581 124.328 14.8426C125.658 13.2088 127.187 11.8784 128.855 10.8632C126.615 12.0068 124.573 13.6523 122.846 15.7762C121.9 16.9432 121.107 18.2035 120.465 19.5106L121.212 20.4675Z" fill="#9AB4C1"/>
<path d="M120.535 22.9765C120.582 22.7081 120.208 22.5914 119.998 22.2179C119.776 21.8095 119.73 21.1677 119.66 21.3544C116.801 28.9865 118.621 38.0307 124.783 43.7022C124.923 43.8306 125.005 43.8773 125.156 44.0057C125.156 44.0057 126.183 43.4222 126.627 43.1187C127.07 42.8153 127.934 42.1735 127.934 42.1735C127.304 41.73 126.697 41.2516 126.113 40.7147C121.2 36.1868 119.275 29.3249 120.535 22.9765Z" fill="#9AB4C1"/>
<path d="M151.117 37.8442C151.444 37.9259 151.911 38.031 152.308 38.0893C152.634 38.136 152.984 38.136 153.264 38.1126C156.649 31.4375 156.135 23.2335 151.981 17.0952C155.657 23.4202 155.47 31.6942 151.117 37.8442Z" fill="#9AB4C1"/>
<path d="M150.58 40.2946C150.58 40.2946 149.471 39.8628 149.261 40.0729C144.243 45.2426 137.031 46.6197 130.799 43.7839C130.799 43.7839 130.099 44.3674 129.422 44.9626C128.769 45.5461 128.057 46.1179 128.057 46.1179C135.572 50.4708 145.165 48.8136 150.976 41.6367C151.385 41.1348 151.77 40.6097 152.12 40.0729C152.237 39.8978 150.58 40.2946 150.58 40.2946Z" fill="#9AB4C1"/>
<path d="M157.332 37.3656C156.935 37.9025 156.142 39.0811 154.928 40.0147C153.738 40.9366 151.229 42.7921 147.693 42.9789C146.141 43.0139 146.106 42.8622 145.277 42.7571C144.787 42.6521 141.589 41.9286 138.24 39.9097C136.373 38.9994 134.552 39.1861 134.109 39.6646C133.444 40.3998 132.884 40.9366 132.533 41.3334C131.156 42.8272 123.688 48.7438 122.439 49.8524C122.567 49.6774 123.384 47.9852 123.688 45.4295C127.445 43.1889 130.176 41.065 132.195 39.0461C132.417 38.8361 132.685 38.3226 132.44 37.9141C132.16 36.4671 131.028 35.3234 129.243 34.6115C125.742 33.2228 122.766 31.4257 121.202 28.905C120.21 27.3879 119.417 25.7658 118.973 23.8752C117.584 18.0053 119.031 15.4846 119.347 14.8777C118.985 17.6435 119.965 19.6157 121.4 21.0978C122.847 22.5799 124.47 23.5018 126.313 24.2954C129.266 25.5674 130.981 27.6329 132.102 30.0019C133.222 32.3826 133.409 35.1367 133.409 35.1367C133.07 34.2498 132.428 32.6977 131.728 31.5657C130.946 30.2937 129.114 28.3098 127.189 27.1195C125.485 26.0692 123.956 25.544 122.812 24.5988C121.144 23.2334 119.907 21.3545 119.241 19.6041C119.288 20.6777 120.292 22.3582 120.805 23.2101C122.754 25.8591 123.956 26.0342 126.594 27.7613C128.787 29.1967 130.538 31.2273 131.437 32.546C132.335 33.8647 133.409 36.4787 133.222 37.9841C136.63 34.0631 137.692 30.282 138.298 27.2362C139.267 22.3115 139.781 20.0358 141.006 18.3087C141.624 17.3751 142.021 16.7099 142.885 15.963C143.316 15.5896 143.503 15.3562 143.993 15.1578C144.367 15.0061 145.3 14.7027 146.572 15.1695C148.3 15.3329 150.96 15.4496 153.271 15.9164L150.062 15.8814C148.93 15.8814 147.004 16.1381 146.374 16.2198C144.472 16.3715 143.153 17.4101 142.114 19.0672C141.053 20.6777 140.481 22.7899 139.512 27.703C138.789 32.581 136.711 36.2337 135.101 38.4159C135.101 38.4159 137.82 36.8172 139.886 36.9922C141.951 37.1673 145.102 38.4626 145.102 38.4626C148.23 39.9447 149.688 40.003 150.902 40.038C152.116 40.0731 153.773 39.5362 154.333 39.2795C152.874 39.7346 151.089 39.9447 149.081 39.4779C146.981 38.9878 144.285 37.3773 143.083 36.9455C139.255 35.6618 137.423 36.5137 137.423 36.5137C137.423 36.5137 138.719 35.5218 140.212 35.0317C143.025 34.1681 144.577 35.0783 146.491 36.1403C148.311 37.1556 150.003 38.0192 151.906 38.3576C153.773 38.7077 155.371 38.1942 157.332 37.3656Z" fill="#9AB4C1"/>
<path d="M121.764 65.233C122.15 65.233 122.313 65.0346 122.313 64.6262V63.0157C122.313 62.9107 122.406 62.8173 122.511 62.8173H122.896C123.001 62.8173 123.095 62.899 123.095 63.0157V64.6262C123.095 65.3847 122.651 65.8282 121.776 65.8282H121.403C120.527 65.8282 120.084 65.3847 120.084 64.6262V63.0157C120.084 62.9107 120.177 62.8173 120.282 62.8173H120.667C120.773 62.8173 120.866 62.899 120.866 63.0157V64.6262C120.866 65.0346 121.041 65.233 121.414 65.233H121.764Z" fill="#9AB4C1"/>
<path d="M124.416 64.498H125.747V63.4127H125.152C124.883 63.4127 124.673 63.5761 124.603 63.8328L124.416 64.498ZM123.845 63.6344C124.02 62.9809 124.615 62.8292 125.233 62.8292H126.354C126.459 62.8292 126.529 62.9226 126.529 63.0159V65.6183C126.529 65.7234 126.435 65.8167 126.33 65.8167H125.934C125.829 65.8167 125.735 65.735 125.735 65.6183V65.0932H124.253L124.113 65.6183C124.078 65.7234 123.973 65.8167 123.868 65.8167H123.46C123.343 65.8167 123.284 65.735 123.308 65.6183L123.845 63.6344Z" fill="#9AB4C1"/>
<path d="M127.004 65.4202C127.004 65.2451 127.109 65.1401 127.284 65.1401H127.541C127.716 65.1401 127.821 65.2451 127.821 65.4202V65.5485C127.821 65.7236 127.716 65.8286 127.541 65.8286H127.284C127.109 65.8286 127.004 65.7236 127.004 65.5485V65.4202Z" fill="#9AB4C1"/>
<path d="M128.909 64.3229C128.909 65.0231 129.259 65.2448 129.691 65.2448C130.134 65.2448 130.473 65.0231 130.473 64.3229C130.473 63.611 130.123 63.401 129.691 63.401C129.247 63.401 128.909 63.611 128.909 64.3229ZM129.761 62.8058C130.589 62.8058 131.254 63.1676 131.254 64.3229C131.254 65.4665 130.589 65.8283 129.761 65.8283H129.621C128.792 65.8283 128.127 65.4665 128.127 64.3229C128.127 63.1676 128.792 62.8058 129.621 62.8058H129.761Z" fill="#9AB4C1"/>
<path d="M132.889 63.401C132.562 63.401 132.399 63.471 132.399 63.7044C132.399 63.9378 132.562 64.0078 132.889 64.0078H133.099C133.426 64.0078 133.589 63.9261 133.589 63.7044C133.589 63.471 133.426 63.401 133.099 63.401H132.889ZM133.204 65.2331C133.531 65.2331 133.706 65.1631 133.706 64.9064C133.706 64.6496 133.542 64.5796 133.204 64.5796H132.795C132.469 64.5796 132.305 64.6613 132.305 64.9064C132.305 65.1514 132.469 65.2331 132.795 65.2331H133.204ZM133.204 62.8058C133.822 62.8058 134.371 63.0392 134.371 63.6694C134.371 63.8911 134.301 64.0545 134.091 64.2178C134.371 64.3696 134.488 64.6263 134.488 64.9064C134.488 65.5132 133.962 65.8166 133.297 65.8166H132.702C132.037 65.8166 131.512 65.5132 131.512 64.9064C131.512 64.6263 131.628 64.3696 131.908 64.2178C131.698 64.0428 131.628 63.8794 131.628 63.6694C131.628 63.0392 132.177 62.8058 132.795 62.8058H133.204Z" fill="#9AB4C1"/>
<path d="M134.791 65.4202C134.791 65.2451 134.896 65.1401 135.071 65.1401H135.328C135.503 65.1401 135.608 65.2451 135.608 65.4202V65.5485C135.608 65.7236 135.503 65.8286 135.328 65.8286H135.071C134.896 65.8286 134.791 65.7236 134.791 65.5485V65.4202Z" fill="#9AB4C1"/>
<path d="M136.7 64.3229C136.7 65.0231 137.05 65.2448 137.482 65.2448C137.925 65.2448 138.264 65.0231 138.264 64.3229C138.264 63.611 137.913 63.401 137.482 63.401C137.05 63.401 136.7 63.611 136.7 64.3229ZM137.552 62.8058C138.38 62.8058 139.045 63.1676 139.045 64.3229C139.045 65.4665 138.38 65.8283 137.552 65.8283H137.4C136.571 65.8283 135.906 65.4665 135.906 64.3229C135.906 63.1676 136.571 62.8058 137.4 62.8058H137.552Z" fill="#9AB4C1"/>
<path d="M140.09 64.3229C140.09 65.0231 140.441 65.2448 140.872 65.2448C141.316 65.2448 141.654 65.0231 141.654 64.3229C141.654 63.611 141.304 63.401 140.872 63.401C140.441 63.401 140.09 63.611 140.09 64.3229ZM140.954 62.8058C141.783 62.8058 142.448 63.1676 142.448 64.3229C142.448 65.4665 141.783 65.8283 140.954 65.8283H140.802C139.974 65.8283 139.309 65.4665 139.309 64.3229C139.309 63.1676 139.974 62.8058 140.802 62.8058H140.954Z" fill="#9AB4C1"/>
<path d="M144.666 63.7976C144.666 63.4825 144.503 63.3891 144.141 63.3891H143.989C143.732 63.3891 143.557 63.4591 143.464 63.6458C143.394 63.7859 143.301 63.8442 143.184 63.8442H142.939C142.88 63.8442 142.729 63.8092 142.729 63.6108C142.729 63.109 143.347 62.7939 143.931 62.7939H144.211C144.899 62.7939 145.459 63.004 145.459 63.7859C145.459 64.9879 143.511 64.7311 143.511 65.2096H145.238C145.343 65.2096 145.436 65.2913 145.436 65.408V65.6064C145.436 65.7114 145.343 65.8048 145.238 65.8048H142.927C142.81 65.8048 142.729 65.7114 142.729 65.6064V65.303C142.705 64.0193 144.666 64.3811 144.666 63.7976Z" fill="#9AB4C1"/>
<path d="M145.75 65.4202C145.75 65.2451 145.855 65.1401 146.03 65.1401H146.287C146.462 65.1401 146.567 65.2451 146.567 65.4202V65.5485C146.567 65.7236 146.462 65.8286 146.287 65.8286H146.03C145.855 65.8286 145.75 65.7236 145.75 65.5485V65.4202Z" fill="#9AB4C1"/>
<path d="M148.174 63.401C147.917 63.401 147.731 63.471 147.637 63.6577C147.567 63.7977 147.474 63.8561 147.357 63.8561H147.112C147.054 63.8561 146.902 63.8211 146.902 63.6227C146.902 63.1209 147.521 62.8058 148.104 62.8058H148.384C149.084 62.8058 149.644 63.0158 149.644 63.716C149.644 63.9378 149.551 64.1595 149.353 64.3112C149.598 64.4629 149.679 64.6613 149.679 64.9064C149.679 65.5832 149.224 65.8166 148.477 65.8166H148.034C147.451 65.8166 146.832 65.5015 146.832 64.9881C146.832 64.7897 146.995 64.7547 147.042 64.7547H147.287C147.404 64.7547 147.509 64.8013 147.591 64.9881C147.661 65.1398 147.847 65.2331 148.104 65.2331H148.396C148.723 65.2331 148.886 65.1631 148.886 64.9064C148.886 64.6613 148.723 64.5913 148.396 64.5913H148.022C147.917 64.5913 147.824 64.5096 147.824 64.3929V64.2178C147.824 64.1128 147.906 64.0195 148.011 64.0195H148.314C148.676 64.0195 148.839 63.9378 148.839 63.6927C148.839 63.4593 148.676 63.3776 148.314 63.3776H148.174V63.401Z" fill="#9AB4C1"/>
<path d="M151.266 63.401C151.009 63.401 150.834 63.471 150.741 63.6577C150.671 63.7977 150.577 63.8561 150.461 63.8561H150.216C150.157 63.8561 150.006 63.8211 150.006 63.6227C150.006 63.1209 150.624 62.8058 151.208 62.8058H151.488C152.188 62.8058 152.748 63.0158 152.748 63.716C152.748 63.9378 152.655 64.1595 152.456 64.3112C152.701 64.4629 152.783 64.6613 152.783 64.9064C152.783 65.5832 152.328 65.8166 151.569 65.8166H151.126C150.542 65.8166 149.924 65.5015 149.924 64.9881C149.924 64.7897 150.076 64.7547 150.134 64.7547H150.379C150.496 64.7547 150.601 64.8013 150.682 64.9881C150.752 65.1398 150.939 65.2331 151.196 65.2331H151.499C151.826 65.2331 151.989 65.1631 151.989 64.9064C151.989 64.6613 151.826 64.5913 151.499 64.5913H151.126C151.021 64.5913 150.927 64.5096 150.927 64.3929V64.2178C150.927 64.1128 151.009 64.0195 151.114 64.0195H151.418C151.779 64.0195 151.943 63.9378 151.943 63.6927C151.943 63.4593 151.779 63.3776 151.418 63.3776H151.266V63.401Z" fill="#9AB4C1"/>
<path d="M154.348 63.401C154.091 63.401 153.916 63.471 153.823 63.6577C153.753 63.7977 153.659 63.8561 153.543 63.8561H153.298C153.239 63.8561 153.088 63.8211 153.088 63.6227C153.088 63.1209 153.706 62.8058 154.29 62.8058H154.581C155.282 62.8058 155.842 63.0158 155.842 63.716C155.842 63.9378 155.748 64.1595 155.55 64.3112C155.795 64.4629 155.877 64.6613 155.877 64.9064C155.877 65.5832 155.422 65.8166 154.663 65.8166H154.22C153.636 65.8166 153.018 65.5015 153.018 64.9881C153.018 64.7897 153.181 64.7547 153.228 64.7547H153.473C153.589 64.7547 153.694 64.8013 153.776 64.9881C153.846 65.1398 154.033 65.2331 154.29 65.2331H154.581C154.908 65.2331 155.071 65.1631 155.071 64.9064C155.071 64.6613 154.908 64.5913 154.581 64.5913H154.208C154.103 64.5913 154.01 64.5096 154.01 64.3929V64.2178C154.01 64.1128 154.091 64.0195 154.196 64.0195H154.5C154.873 64.0195 155.025 63.9378 155.025 63.6927C155.025 63.4593 154.861 63.3776 154.5 63.3776H154.348V63.401Z" fill="#9AB4C1"/>
<path d="M7.26452 48.0545C7.48083 48.3986 7.37268 48.8509 7.01872 49.0672C6.67459 49.2737 6.19281 49.1754 5.9765 48.8312C5.76018 48.4871 5.86834 48.0348 6.2223 47.8185C6.5861 47.6022 7.04821 47.7104 7.26452 48.0545ZM15.327 55.1927L12.9083 57.9851L12.5051 57.6508L14.6092 55.2222L12.8591 53.7867L10.755 56.2153L10.3519 55.881L12.7706 53.0886L15.327 55.1927ZM16.4479 55.9498L19.0043 57.4541L18.7486 57.8671L16.6544 56.6282L16.0841 57.5426L18.0505 58.7029L17.7949 59.1158L15.8284 57.9556L15.2188 58.9388L17.3426 60.1974L17.087 60.6103L14.5011 59.0863L16.4479 55.9498ZM19.1124 61.5641L18.6208 61.3674L20.076 57.9949L21.6786 58.6439C22.5341 58.988 22.8192 59.4796 22.5242 60.158C22.2293 60.8463 21.6688 60.9741 20.8134 60.63L19.7122 60.1777L19.1124 61.5641ZM19.8793 59.7746L20.7937 60.1482C21.4623 60.4235 21.836 60.394 22.0228 59.9614C22.2293 59.4894 21.9834 59.224 21.3444 58.9585L20.4005 58.575L19.8793 59.7746ZM24.0384 59.4894L26.9389 60.1974L26.8209 60.6595L24.4415 60.0695L24.176 61.1019L26.408 61.6525L26.29 62.1147L24.0581 61.5641L23.7631 62.6849L26.1818 63.2749L26.0638 63.737L23.1338 63.0192L24.0384 59.4894ZM28.109 60.4038L30.1836 60.5906C30.921 60.6595 31.2946 61.0331 31.2356 61.6132C31.1963 61.9967 30.9702 62.2425 30.567 62.3605C31.0291 62.4883 31.2455 62.8127 31.2061 63.2847C31.1373 64.0123 30.6752 64.3072 29.7903 64.2286L27.755 64.0418L28.109 60.4038ZM28.3351 63.619L29.7116 63.7468C30.3114 63.8058 30.6162 63.6878 30.6555 63.2847C30.6948 62.8521 30.4589 62.6456 29.8984 62.5964L28.4433 62.4686L28.3351 63.619ZM28.4924 61.977L29.8198 62.095C30.39 62.1441 30.6555 62.0557 30.6949 61.6427C30.7342 61.2691 30.5179 61.1019 30.0263 61.0528L28.5809 60.9249L28.4924 61.977ZM33.4774 64.3171L32.9464 64.3269L32.858 60.6693L33.3889 60.6595L33.4774 64.3171ZM36.0043 64.1499L35.4832 64.2188L34.9621 60.6005L36.6729 60.3645C37.5873 60.2367 38.0887 60.5218 38.1969 61.2494C38.305 61.9868 37.8921 62.3801 36.9777 62.4981L35.7978 62.6653L36.0043 64.1499ZM35.729 62.2326L36.7122 62.095C37.43 61.9967 37.7348 61.7902 37.6758 61.3281C37.6069 60.8168 37.2628 60.7185 36.5647 60.807L35.552 60.9446L35.729 62.2326ZM39.1408 59.9319L42.002 59.106L42.1396 59.5681L39.7897 60.2465L40.1043 61.2691L42.3166 60.63L42.4543 61.0921L40.242 61.7312L40.5763 62.8422L42.9655 62.154L43.1032 62.6161L40.2027 63.4518L39.1408 59.9319ZM44.2339 59.7844L46.2987 58.8307L45.6596 57.523L46.1414 57.2968L47.7539 60.6005L47.2721 60.8266L46.515 59.2633L44.4502 60.2269L45.2171 61.7902L44.7353 62.0163L43.1229 58.7127L43.6046 58.4865L44.2339 59.7844ZM48.7469 55.5369C49.7891 54.8191 50.8707 55.0059 51.559 55.9498C52.2472 56.9035 52.0702 57.9556 51.0182 58.6832C49.976 59.4009 48.8944 59.2141 48.2061 58.2702C47.5179 57.3165 47.6949 56.2546 48.7469 55.5369ZM50.733 58.2801C51.5098 57.7393 51.6376 56.992 51.1067 56.2645C50.5757 55.527 49.8088 55.3992 49.0321 55.94C48.2553 56.4808 48.1275 57.228 48.6584 57.9556C49.1894 58.6832 49.9563 58.8208 50.733 58.2801ZM52.3849 54.534L51.4606 53.5507L51.9129 53.1378L52.847 54.121L53.7122 55.2616L53.4861 55.468L52.3849 54.534ZM53.5746 55.8023L54.0269 55.3894L54.4496 55.8417L53.9974 56.2448L53.5746 55.8023ZM57.6058 47.9758C57.8221 47.6415 58.2842 47.5235 58.6382 47.7398C58.9823 47.9463 59.1003 48.4085 58.884 48.7526C58.6677 49.0967 58.2056 49.195 57.8516 48.9886C57.4977 48.7821 57.3895 48.32 57.6058 47.9758Z" fill="#9AB4C1"/>
<path d="M0.353962 37.298L1.16021 37.1309L1.56333 39.0875L4.68017 38.4681L4.87681 39.4218L0.953731 40.2084L0.353962 37.298ZM4.06073 33.8469L4.12956 34.8203L0.137652 35.076L0.068826 34.1026L4.06073 33.8469ZM0.393291 27.6034L4.37537 27.9869L4.27704 28.9603L1.11105 28.6555L0.914402 30.5236L4.0804 30.8284L3.98207 31.8018L0 31.4183L0.393291 27.6034ZM4.34587 21.1534C5.54541 21.5467 6.04685 22.6578 5.5749 24.0146C5.10295 25.3715 4.0214 25.9713 2.81203 25.578C1.61249 25.1847 1.11105 24.0736 1.583 22.7069C2.05495 21.3599 3.14633 20.7601 4.34587 21.1534ZM3.16599 24.5652C3.92308 24.8111 4.54251 24.4964 4.79815 23.759C5.05379 23.0216 4.74899 22.412 3.99191 22.1662C3.23482 21.9204 2.61539 22.2252 2.36958 22.9626C2.11394 23.7098 2.40891 24.3194 3.16599 24.5652ZM4.26721 17.1517L4.75882 16.3455L9.13419 16.7977L8.56392 17.7318L7.64951 17.6138L6.74494 19.0985L7.29555 19.8162L6.74494 20.7208L4.26721 17.1517ZM6.76461 17.5155L5.42742 17.3582L6.22383 18.4102L6.76461 17.5155ZM10.2157 9.74799L13.1163 12.4224L12.428 13.1303L10.1174 11.0065L8.90805 12.2552L10.0486 13.3073C10.7958 13.9955 11.081 14.6641 10.4321 15.3327C10.2747 15.49 10.1174 15.6277 9.96993 15.726L9.3505 15.1557C9.39966 15.1262 9.48815 15.0574 9.57664 14.9689C9.89127 14.6445 9.81262 14.4282 9.14402 13.8186L7.62985 12.4224L10.2157 9.74799ZM15.3875 5.95273L15.8496 6.6115L13.7554 8.02734L14.129 8.55829L15.9971 7.29976L16.4592 7.95852L14.5911 9.21705L15.0827 9.91515L17.177 8.4993L17.6489 9.15806L14.7189 11.1343L12.4477 7.92902L15.3875 5.95273ZM17.7768 4.6647L19.9595 3.75031C20.8248 3.38651 21.513 3.65199 21.8473 4.39924C22.1816 5.15632 21.8965 5.84458 21.0411 6.20838L19.7826 6.72949L20.2742 7.85036L19.3499 8.23382L17.7768 4.6647ZM19.4581 6.00189L20.3037 5.64793C20.8739 5.41195 21.1001 5.20548 20.9329 4.81219C20.7559 4.39924 20.4806 4.40907 19.9399 4.64505L19.0353 5.0285L19.4581 6.00189ZM26.7438 1.84284L26.9208 2.61958L24.915 3.05221L25.5934 6.08055L24.6102 6.28704L23.7548 2.48193L26.7438 1.84284ZM32.7415 1.41022L32.771 2.20663L30.2244 2.29513L30.2441 2.94405L32.5154 2.86539L32.5449 3.66182L30.2736 3.74046L30.3031 4.58604L32.8497 4.49755L32.8792 5.29397L29.3297 5.42179L29.2019 1.53804L32.7415 1.41022ZM36.2713 3.18003L38.1689 3.5045L38.4246 2.07882L39.4078 2.24597L38.7195 6.09039L37.7363 5.92323L38.0313 4.30091L36.1336 3.97644L35.8387 5.59878L34.8456 5.43162L35.5339 1.58721L36.5269 1.75435L36.2713 3.18003ZM42.5738 4.72369L44.3534 5.43162L44.9139 4.0846L45.8381 4.44839L44.3239 8.05685L43.3997 7.69304L44.0388 6.16904L42.2591 5.46111L41.62 6.98512L40.6958 6.6115L42.21 3.00304L43.1342 3.36685L42.5738 4.72369ZM49.6039 6.59183L50.4003 7.12277L49.653 11.3507L48.7386 10.7411L48.9156 9.85614L47.4604 8.89258L46.6837 9.3842L45.7889 8.79427L49.6039 6.59183ZM49.0533 8.99091L49.3089 7.70289L48.1782 8.4108L49.0533 8.99091ZM58.1481 14.7035L57.8237 14.9296L58.0596 15.2541C58.6102 15.9915 58.9839 17.1124 58.0203 17.8006C57.1551 18.4102 56.2308 17.9776 55.5229 17.0337L55.2968 16.7289L54.9035 17.0042L54.3135 16.2176L54.7068 15.9423L54.4708 15.6277C53.7629 14.6838 53.6449 13.6907 54.5003 13.0811C55.4737 12.3929 56.4471 13.091 56.9879 13.8284L57.2337 14.1529L57.5582 13.9267L58.1481 14.7035ZM56.6241 14.5658L56.4471 14.3298C56.103 13.8579 55.5622 13.5138 55.0804 13.8481C54.6282 14.1725 54.7953 14.7821 55.1493 15.2541L55.3164 15.4802L56.6241 14.5658ZM55.9064 16.2865L56.0833 16.5224C56.4275 16.9944 56.9682 17.3385 57.4205 17.0239C57.9023 16.6798 57.7352 16.0702 57.391 15.5982L57.214 15.3622L55.9064 16.2865ZM61.3043 20.2095L61.6681 21.0748L58.6692 24.2211L58.2464 23.2182L58.8954 22.5791L58.2169 20.9961L57.2927 20.9863L56.8797 20.0129L61.3043 20.2095ZM59.4951 21.9302L60.4292 20.9863L59.092 20.9765L59.4951 21.9302ZM63.0053 24.988L63.4477 27.2593C63.6149 28.154 63.2117 28.7636 62.3858 28.9111C61.5501 29.0684 60.9306 28.6555 60.7537 27.7509L60.5079 26.4432L59.2788 26.6694L59.092 25.7058L63.0053 24.988ZM61.3043 26.2957L61.4714 27.1806C61.5894 27.7804 61.7467 28.036 62.1793 27.9574C62.6316 27.8787 62.6808 27.6133 62.5726 27.043L62.3858 26.0991L61.3043 26.2957ZM63.8803 34.4565L63.0544 34.4467L63.0839 32.1459L62.4153 32.1361L62.3957 33.5323C62.3858 34.3582 61.8942 34.8301 61.1175 34.8301C60.3505 34.8203 59.8786 34.3484 59.8884 33.5225L59.9179 31.143L63.9197 31.1824L63.8803 34.4565ZM60.7242 32.1263L60.7143 33.1783C60.7045 33.6601 60.793 33.8469 61.1568 33.8567C61.5206 33.8666 61.5796 33.6306 61.5796 33.139L61.5894 32.1459L60.7242 32.1263ZM63.2609 38.7237L63.0544 39.6381L58.7577 40.5525L58.9937 39.4906L59.8983 39.3137L60.2719 37.6323L59.5246 37.1211L59.7508 36.0985L63.2609 38.7237ZM60.7733 39.1367L62.0909 38.881L60.9995 38.1338L60.7733 39.1367Z" fill="#9AB4C1"/>
<path fill-rule="evenodd" clip-rule="evenodd" d="M25.4164 55.9991C33.1839 57.7197 39.0046 56.4317 44.0289 53.4525C49.4071 50.2668 54.5986 44.4363 55.5523 35.3316C56.3782 27.4363 53.2319 20.8388 48.4829 16.1193C46.1133 13.7694 43.1538 11.6555 39.2897 10.4166C35.4158 9.17772 30.8438 8.89259 27.0092 9.67917C20.2937 11.0459 14.414 15.4901 11.0416 21.4976C6.92184 28.8423 7.42329 38.3009 10.5795 43.7677C11.9068 42.9418 12.8409 42.3518 14.0404 41.5358C12.3001 37.888 11.661 33.6699 12.4574 29.3929C14.473 18.6757 24.7969 11.6161 35.5239 13.6318C46.2411 15.6474 53.2909 25.9713 51.2753 36.6884C49.6628 45.272 42.495 51.368 34.58 52.5381L35.8091 51.1616C35.8091 51.1517 35.8189 51.1517 35.8189 51.1517L35.8582 51.1124C37.9329 48.8215 39.7518 45.7538 40.6761 42.1847C42.0034 37.0621 40.8334 32.3524 38.9357 28.5768C36.9201 24.5554 33.3805 21.3698 28.2776 19.3738C28.366 20.3472 28.8577 21.2321 29.0248 22.2841C29.192 23.3264 29.2313 24.5652 28.7692 25.8828C28.0612 27.9279 26.7142 29.5699 26.0456 31.7526C24.0398 38.3206 25.9866 43.2367 28.9953 47.3958C30.775 45.4982 32.4268 43.1286 33.3608 40.1887C34.875 35.4103 33.7935 31.1135 32.9086 27.8689C34.4227 29.4421 35.1602 31.5658 35.5633 33.8076C35.9566 35.9805 36.0942 38.6844 35.4158 41.2211C34.2654 45.5572 32.0532 48.7822 29.6442 51.3779L25.2197 55.9401L25.4164 55.9991Z" fill="#9AB4C1"/>
<path d="M234.66 103.645L236.292 108.076H235.243L234.893 107.143H233.028L232.678 108.076H231.629L233.261 103.645H234.66ZM233.96 104.344L233.261 106.443H234.66L233.96 104.344Z" fill="#9AB4C1"/>
<path d="M237.806 108.076L236.174 103.645H237.34L238.505 107.143L239.671 103.645H240.837L239.205 108.076H237.806Z" fill="#9AB4C1"/>
<path d="M243.752 103.645L245.384 108.076H244.335L243.985 107.143H242.12L241.77 108.076H240.721L242.353 103.645H243.752ZM243.052 104.344L242.353 106.443H243.752L243.052 104.344Z" fill="#9AB4C1"/>
<path d="M248.765 104.461H247.6V108.076H246.551V104.461H245.385V103.645H248.882V104.461H248.765Z" fill="#9AB4C1"/>
<path d="M250.514 108.076H249.465V103.645H250.514V108.076Z" fill="#9AB4C1"/>
<path d="M255.874 108.076H254.709L252.61 104.927V105.277V107.959H251.678V103.528H252.843L254.942 106.676V106.327V103.528H255.874V108.076Z" fill="#9AB4C1"/>
<path d="M260.072 104.461H258.906V108.076H257.857V104.461H256.691V103.645H260.189V104.461H260.072Z" fill="#9AB4C1"/>
<path d="M230.345 112.624H229.18V116.239H228.131V112.624H226.965V111.808H230.462V112.624H230.345Z" fill="#9AB4C1"/>
<path d="M232.094 116.239H231.045V111.808H232.094V116.239Z" fill="#9AB4C1"/>
<path d="M233.259 111.808H234.308V113.79L234.658 113.557L236.057 111.808H237.223L235.474 113.907L237.339 116.239H236.174L234.658 114.49L234.192 114.723V116.239H233.143V111.808H233.259Z" fill="#9AB4C1"/>
<path d="M238.156 111.808H239.205V113.79L239.555 113.557L240.953 111.808H242.119L240.371 113.907L242.236 116.239H241.07L239.555 114.49L239.088 114.723V116.239H238.039V111.808H238.156Z" fill="#9AB4C1"/>
<path d="M242.818 114.607V111.808H243.868V114.374C243.868 114.957 244.101 115.423 244.8 115.423C245.5 115.423 245.733 115.073 245.733 114.374V111.808H246.782V114.607C246.782 115.54 246.199 116.356 244.8 116.356C243.401 116.356 242.818 115.54 242.818 114.607Z" fill="#9AB4C1"/>
<path d="M251.327 113.324C251.327 114.024 250.977 114.374 250.511 114.607L251.56 116.239H250.394L249.461 114.84H248.995V116.239H248.062V111.808H249.578C250.744 111.808 251.327 112.274 251.327 113.324ZM248.995 112.624V114.14H249.461C250.044 114.14 250.394 113.907 250.394 113.324C250.394 112.857 250.044 112.624 249.461 112.624H248.995Z" fill="#9AB4C1"/>
<path d="M253.428 116.239H252.379V111.808H253.428V116.239Z" fill="#9AB4C1"/>
<path d="M257.741 116.239H254.594V111.808H255.643V115.423H257.741V116.239Z" fill="#9AB4C1"/>
<path d="M261.24 111.808L262.872 116.239H261.823L261.473 115.306H259.608L259.258 116.239H258.209L259.841 111.808H261.24ZM260.54 112.508L259.841 114.607H261.24L260.54 112.508Z" fill="#9AB4C1"/>
<path d="M162.616 114.84C162.266 114.84 162.033 115.073 162.033 115.539V119.271C162.033 119.738 162.266 119.971 162.616 119.971C162.966 119.971 163.199 119.738 163.199 119.271V115.539C163.082 114.956 162.849 114.84 162.616 114.84Z" fill="#9AB4C1"/>
<path d="M179.054 100.612C178.821 100.612 178.588 100.729 178.471 100.846C178.238 101.079 178.238 101.312 178.238 101.662V107.376C178.238 107.726 178.355 108.076 178.471 108.192C178.588 108.309 178.821 108.426 179.054 108.426C179.287 108.426 179.521 108.309 179.637 108.192C179.754 108.076 179.87 107.726 179.87 107.376V101.662C179.87 101.312 179.754 100.962 179.637 100.846C179.521 100.729 179.287 100.612 179.054 100.612Z" fill="#9AB4C1"/>
<path d="M179.638 114.956H179.172V117.288H179.638C179.988 117.288 180.221 117.172 180.221 116.589V115.539C180.104 115.073 179.988 114.956 179.638 114.956Z" fill="#9AB4C1"/>
<path d="M175.438 114.84C175.089 114.84 174.855 115.073 174.855 115.539V119.271C174.855 119.738 175.089 119.971 175.438 119.971C175.788 119.971 176.021 119.738 176.021 119.271V115.539C176.021 114.956 175.788 114.84 175.438 114.84Z" fill="#9AB4C1"/>
<path d="M171.359 117.405H170.893V119.738H171.359C171.709 119.738 171.942 119.621 171.942 119.038V117.988C171.942 117.639 171.709 117.405 171.359 117.405Z" fill="#9AB4C1"/>
<path d="M173.226 100.612C172.993 100.612 172.76 100.729 172.643 100.846C172.527 100.962 172.41 101.312 172.41 101.662V107.376C172.41 107.726 172.527 108.076 172.643 108.192C172.76 108.309 172.993 108.426 173.226 108.426C173.459 108.426 173.692 108.309 173.809 108.192C173.926 108.076 174.042 107.726 174.042 107.376V101.662C174.042 101.312 173.926 100.962 173.809 100.846C173.692 100.729 173.459 100.612 173.226 100.612Z" fill="#9AB4C1"/>
<path d="M184.884 100.612C184.651 100.612 184.418 100.729 184.302 100.846C184.068 101.079 184.068 101.312 184.068 101.662V107.376C184.068 107.726 184.185 108.076 184.302 108.192C184.418 108.309 184.651 108.426 184.884 108.426C185.118 108.426 185.351 108.309 185.467 108.192C185.584 108.076 185.7 107.726 185.7 107.376V101.662C185.7 101.312 185.584 100.962 185.467 100.846C185.351 100.729 185.118 100.612 184.884 100.612Z" fill="#9AB4C1"/>
<path d="M191.875 90H151.424V130H191.875H270.563V90H191.875ZM162.615 101.778C162.615 100.962 162.848 100.262 163.314 99.7959C163.781 99.3294 164.364 99.0962 165.18 99.0962C165.996 99.0962 166.579 99.3294 167.045 99.7959C167.511 100.262 167.744 100.962 167.744 101.778V107.259C167.744 108.076 167.511 108.776 167.045 109.242C166.579 109.708 165.996 109.942 165.18 109.942C164.364 109.942 163.781 109.708 163.314 109.242C162.848 108.776 162.615 108.076 162.615 107.259V101.778ZM156.786 106.443H158.418V107.376C158.418 107.726 158.535 108.076 158.651 108.192C158.768 108.426 159.001 108.426 159.234 108.426C159.584 108.426 159.701 108.426 159.934 108.192C160.05 108.076 160.167 107.726 160.167 107.376V105.044C160.167 104.694 160.05 104.344 159.934 104.227C159.817 104.111 159.584 103.994 159.351 103.994C159.118 103.994 158.885 104.111 158.768 104.227C158.535 104.461 158.418 104.694 158.418 105.044V105.394H156.786L157.136 99.2128H161.566V100.729H158.651L158.535 103.294C158.885 102.828 159.351 102.478 159.934 102.478C160.517 102.478 160.983 102.711 161.333 103.061C161.682 103.528 161.799 104.111 161.799 104.81V107.143C161.799 107.959 161.566 108.659 161.216 109.125C160.75 109.592 160.167 109.825 159.351 109.825C158.535 109.825 157.952 109.592 157.486 109.125C157.019 108.659 156.903 107.959 156.903 107.143V106.443H156.786ZM160.4 120.787H159.234L158.185 118.105L157.835 118.688V120.787H156.786V114.023H157.835V116.939L159.234 114.023H160.283L158.768 117.055L160.4 120.787ZM164.13 119.155C164.13 120.204 163.548 120.904 162.498 120.904C161.449 120.904 160.866 120.321 160.866 119.155V115.656C160.866 114.606 161.449 113.907 162.498 113.907C163.548 113.907 164.13 114.49 164.13 115.656V119.155ZM168.793 120.787H167.744V114.956H166.812L166.695 119.038C166.695 120.321 166.229 120.787 165.18 120.787H165.063V119.854C165.529 119.854 165.646 119.738 165.762 119.155L165.879 114.023H168.91V120.787H168.793ZM172.99 119.038C172.99 120.087 172.407 120.671 171.358 120.671H169.843V113.907H170.892V116.472H171.358C172.407 116.472 172.99 117.055 172.99 118.105V119.038ZM171.358 109.242C170.892 108.776 170.659 108.076 170.659 107.259V101.778C170.659 100.962 170.892 100.262 171.358 99.7959C171.824 99.3294 172.407 99.0962 173.223 99.0962C174.039 99.0962 174.622 99.3294 175.088 99.7959C175.555 100.262 175.788 100.962 175.788 101.778V107.259C175.788 108.076 175.555 108.776 175.088 109.242C174.622 109.708 174.039 109.942 173.223 109.942C172.407 109.942 171.708 109.708 171.358 109.242ZM177.07 119.155C177.07 120.204 176.487 120.904 175.438 120.904C174.389 120.904 173.806 120.321 173.806 119.155V115.656C173.806 114.606 174.389 113.907 175.438 113.907C176.487 113.907 177.07 114.49 177.07 115.656V119.155ZM181.15 116.472C181.15 117.522 180.567 118.105 179.518 118.105H179.052V120.671H178.003V113.907H179.518C180.567 113.907 181.15 114.49 181.15 115.539V116.472ZM181.617 107.259C181.617 108.076 181.383 108.776 180.917 109.242C180.451 109.708 179.868 109.942 179.052 109.942C178.236 109.942 177.653 109.708 177.187 109.242C176.721 108.776 176.487 108.076 176.487 107.259V101.778C176.487 100.962 176.721 100.262 177.187 99.7959C177.653 99.3294 178.236 99.0962 179.052 99.0962C179.868 99.0962 180.451 99.3294 180.917 99.7959C181.383 100.262 181.617 100.962 181.617 101.778V107.259ZM183.132 120.787H182.083V114.023H183.132V120.787ZM187.329 119.155C187.329 120.204 186.746 120.787 185.697 120.787H184.065V114.023H185.697C186.862 114.023 187.329 114.49 187.329 115.539V115.773C187.329 116.472 187.096 116.939 186.629 117.172C187.212 117.405 187.445 117.872 187.445 118.688V119.155H187.329ZM187.445 107.259C187.445 108.076 187.212 108.776 186.746 109.242C186.28 109.708 185.697 109.942 184.881 109.942C184.065 109.942 183.482 109.708 183.016 109.242C182.549 108.776 182.316 108.076 182.316 107.259V101.778C182.316 100.962 182.549 100.262 183.016 99.7959C183.482 99.3294 184.065 99.0962 184.881 99.0962C185.697 99.0962 186.28 99.3294 186.746 99.7959C187.212 100.262 187.445 100.962 187.445 101.778V107.259ZM269.397 128.95H192.924V91.0496H269.397V128.95Z" fill="#9AB4C1"/>
<path d="M165.179 108.426C165.412 108.426 165.646 108.309 165.762 108.192C165.879 108.076 165.995 107.726 165.995 107.376V101.662C165.995 101.312 165.879 100.962 165.762 100.846C165.646 100.729 165.412 100.612 165.179 100.612C164.946 100.612 164.713 100.729 164.596 100.846C164.48 100.962 164.363 101.312 164.363 101.662V107.376C164.363 107.726 164.48 108.076 164.596 108.192C164.713 108.426 164.83 108.426 165.179 108.426Z" fill="#9AB4C1"/>
<path d="M186.164 116.006V115.656C186.164 115.189 186.048 114.956 185.582 114.956H185.115V116.705H185.582C185.931 116.705 186.164 116.472 186.164 116.006Z" fill="#9AB4C1"/>
<path d="M185.582 117.638H185.115V119.738H185.698C186.048 119.738 186.281 119.621 186.281 119.038V118.455C186.281 117.872 186.048 117.638 185.582 117.638Z" fill="#9AB4C1"/>
<path d="M206.798 100.146C206.798 99.5627 206.332 99.0962 205.749 99.0962H200.619C200.037 99.0962 199.57 99.5627 199.57 100.146V119.738C199.57 120.321 200.037 120.787 200.619 120.787H220.204C220.787 120.787 221.253 120.321 221.253 119.738V114.606C221.253 114.023 220.787 113.557 220.204 113.557H216.707L219.738 111.808C219.971 111.691 220.204 111.458 220.204 111.108C220.321 110.875 220.204 110.525 220.087 110.292L217.523 105.86C217.406 105.627 217.173 105.394 216.823 105.394C216.59 105.277 216.24 105.394 216.007 105.51L212.976 107.259L214.725 104.227C214.842 103.994 214.958 103.644 214.842 103.411C214.725 103.178 214.608 102.945 214.375 102.711L210.062 100.262C209.829 100.146 209.479 100.029 209.246 100.146C209.013 100.262 208.78 100.379 208.547 100.612L206.798 103.644V100.146ZM206.798 119.271L210.412 117.172V120.087H206.681C206.681 119.971 206.798 119.854 206.798 119.738V119.271ZM206.915 105.044L211.927 107.959L209.712 111.808L206.798 110.175L206.915 105.044ZM212.394 108.542L215.308 113.557L211.577 115.773L209.945 112.857L212.394 108.542ZM215.541 114.373V120.204H211.228V116.939L211.694 116.706L215.541 114.373ZM206.798 118.455V118.222L209.479 113.673L210.878 116.239L206.798 118.455ZM206.798 116.706V110.875L209.363 112.274L209.246 112.624L206.798 116.706ZM200.27 114.373V110.058H206.098V114.373H200.27ZM200.27 109.242V104.927H206.098V109.242H200.27ZM212.277 107.376L207.264 104.461L209.246 100.962C209.246 100.845 209.363 100.845 209.479 100.845C209.596 100.845 209.712 100.845 209.712 100.845L214.142 103.411C214.259 103.411 214.259 103.528 214.259 103.644C214.259 103.761 214.259 103.878 214.259 103.878L212.277 107.376ZM216.007 113.207L213.093 108.192L216.59 106.21C216.707 106.21 216.823 106.093 216.823 106.21C216.94 106.21 216.94 106.327 217.056 106.327L219.621 110.758C219.621 110.875 219.738 110.991 219.621 110.991C219.621 111.108 219.505 111.108 219.505 111.224L216.007 113.207ZM220.67 119.738C220.67 119.971 220.554 120.087 220.321 120.087H216.357V114.257H220.204C220.437 114.257 220.554 114.373 220.554 114.606V119.738H220.67ZM200.736 120.087C200.503 120.087 200.386 119.971 200.386 119.738V115.073H206.215V119.738C206.215 119.971 206.098 120.087 205.865 120.087H200.736ZM205.749 99.7959C205.982 99.7959 206.098 99.9125 206.098 100.146V104.111H200.27V100.146C200.27 99.9125 200.386 99.7959 200.619 99.7959H205.749Z" fill="#9AB4C1"/>
<path d="M204.702 117.638C204.702 116.822 204.003 116.239 203.303 116.239C202.487 116.239 201.904 116.939 201.904 117.638C201.904 118.338 202.604 119.038 203.303 119.038C204.003 119.038 204.702 118.455 204.702 117.638ZM202.487 117.638C202.487 117.289 202.837 116.939 203.187 116.939C203.536 116.939 203.886 117.289 203.886 117.638C203.886 117.988 203.536 118.338 203.187 118.338C202.837 118.338 202.487 117.988 202.487 117.638Z" fill="#9AB4C1"/>
<path d="M269.053 6.7934C266.712 6.7934 264.73 8.77549 264.73 11.118C264.73 13.4604 266.712 15.4425 269.053 15.4425C271.395 15.4425 273.376 13.4604 273.376 11.118C273.376 8.77549 271.395 6.7934 269.053 6.7934Z" fill="#9AB4C1"/>
<path d="M222.045 22.4699L223.666 23.0105C225.467 17.785 228.709 13.2802 233.032 9.85659C237.896 6.25279 243.48 4.2707 249.604 4.2707C253.566 4.2707 257.529 5.17165 261.132 6.79336L261.852 5.35184C258.069 3.54994 253.927 2.64899 249.604 2.64899C243.119 2.64899 237.175 4.63108 232.132 8.59526C227.449 12.0189 223.846 16.884 222.045 22.4699Z" fill="#9AB4C1"/>
<path d="M258.426 57.6069L258.966 59.2286C264.55 57.4267 269.413 53.8229 272.836 49.1379C276.618 44.0926 278.78 37.9661 278.78 31.6595C278.78 26.9745 277.519 22.1094 275.357 17.965L273.916 18.866C276.078 22.8302 277.159 27.1547 277.159 31.6595C277.159 37.6058 275.177 43.3718 271.575 48.237C268.152 52.5615 263.469 55.805 258.426 57.6069Z" fill="#9AB4C1"/>
<path d="M222.045 41.0293C223.486 45.1737 225.828 49.1379 229.07 52.3813C232.312 55.6247 236.094 57.9672 240.417 59.4087L240.958 57.787C236.995 56.5257 233.393 54.1832 230.331 51.12C227.268 48.0567 225.107 44.453 223.666 40.4888L222.045 41.0293Z" fill="#9AB4C1"/>
<path d="M249.602 55.4446C247.261 55.4446 245.279 57.4267 245.279 59.7692C245.279 62.1117 247.261 64.0938 249.602 64.0938C251.944 64.0938 253.925 62.1117 253.925 59.7692C253.925 57.4267 252.124 55.4446 249.602 55.4446Z" fill="#9AB4C1"/>
<path d="M221.323 27.3349C218.981 27.3349 217 29.317 217 31.6595C217 34.0019 218.981 35.984 221.323 35.984C223.665 35.984 225.646 34.0019 225.646 31.6595C225.826 29.317 223.845 27.3349 221.323 27.3349Z" fill="#9AB4C1"/>
<path d="M240.596 33.8221H243.117L241.857 25.7136L240.596 33.8221Z" fill="#9AB4C1"/>
<path d="M269.234 23.371C264.911 12.7398 252.843 7.87463 242.216 12.1992C231.589 16.5238 226.725 28.5965 231.048 39.2277C235.371 49.8589 247.439 54.7241 258.067 50.3995C268.514 46.0749 273.557 33.822 269.234 23.371ZM243.837 39.0475L243.477 36.1645H240.415L240.054 39.0475H237.713L240.234 22.8304H244.017L246.539 39.0475H243.837ZM255.004 28.2361H252.663V26.4342C252.663 25.8936 252.483 25.3531 252.303 25.1729C252.123 24.9927 251.762 24.8125 251.402 24.8125C251.042 24.8125 250.682 24.9927 250.501 25.1729C250.321 25.3531 250.141 25.8936 250.141 26.4342V35.2635C250.141 35.8041 250.321 36.3447 250.501 36.5249C250.682 36.705 251.042 36.8852 251.402 36.8852C251.762 36.8852 252.123 36.705 252.303 36.5249C252.483 36.3447 252.663 35.8041 252.663 35.2635V32.2003H251.582V29.8578H255.185V35.0833C255.185 36.3447 254.824 37.4258 254.284 38.1466C253.564 38.8673 252.663 39.2277 251.402 39.2277C250.141 39.2277 249.241 38.8673 248.52 38.1466C247.8 37.4258 247.619 36.3447 247.619 35.0833V26.6144C247.619 25.3531 247.98 24.2719 248.52 23.5512C249.241 22.8304 250.141 22.47 251.402 22.47C252.663 22.47 253.564 22.8304 254.284 23.5512C255.004 24.2719 255.185 25.3531 255.185 26.6144V28.2361H255.004ZM264.371 31.8399H261.309V35.0833H259.508V31.8399H256.445V30.038H259.508V26.9748H261.309V30.038H264.371V31.8399Z" fill="#9AB4C1"/>
</svg>
