<svg width="117" height="40" viewBox="0 0 117 40" fill="none" xmlns="http://www.w3.org/2000/svg">
<path d="M115.675 33.7889C115.675 36.5052 113.46 38.7197 110.744 38.7197H37.8374V1.29758H110.744C113.46 1.29758 115.675 3.51212 115.675 6.22838V33.7889ZM29.8443 26.9204C29.8443 26.9204 28.391 28.2526 27.8547 28.6332C27.2145 29.0657 25.6228 30.0346 22.872 30.4498C22.1626 30.5536 20.7439 30.5363 20.0346 30.4498C17.6471 30.173 12.2664 28.5813 12.2664 28.5813V23.0104V21.5744V20.5363H13.2872H15.7612H21.8339C22.4048 20.5363 22.8547 21.0035 22.8547 21.5744V23.0104C22.8547 23.5813 22.3875 24.0312 21.8339 24.0312H17.8893C17.8893 24.0312 18.9965 25.1211 19.9135 25.6401C20.5017 25.9689 21.8166 26.3322 22.4914 26.3841C22.9585 26.4187 23.9273 26.3495 24.3599 26.1765C24.9308 25.9343 26.2284 24.5675 26.2284 24.5675L27.301 23.5813C27.5952 23.3045 28.0623 23.3391 28.3045 23.6505L29.9481 25.7266C30.2422 26.0727 30.1903 26.609 29.8443 26.9204ZM11.263 30.4844H7.76817V19.4983H11.263V30.4844ZM18.564 13.4429C19.2907 11.609 20.3979 10 21.4706 8.3564C21.9377 7.64706 22.2837 7.61246 22.7509 8.3391C23.391 9.34256 25.4325 12.7682 25.7093 13.5294C26.3322 15.2768 25.8305 17.0242 24.4464 18.0623C23.0623 19.083 21.1073 19.0657 19.7232 18.0104C18.3391 16.9377 17.872 15.173 18.564 13.4429ZM110.744 0H6.21107C2.78547 0 0 2.78548 0 6.22838V33.7889C0 37.2318 2.78547 40 6.21107 40H110.744C114.17 40 116.955 37.2145 116.955 33.7889V6.22838C116.955 2.78548 114.17 0 110.744 0Z" fill="#9AB4C1"/>
<path d="M48.1645 7.35297V11.6955H47.1783V8.16612H45.6385V11.6955H44.6523V7.35297H48.1645Z" fill="#9AB4C1"/>
<path d="M49.9825 9.37703C50.069 9.39433 50.1728 9.41163 50.3112 9.41163C50.8303 9.41163 51.159 9.15212 51.159 8.70229C51.159 8.30437 50.8822 8.06215 50.3978 8.06215C50.1901 8.06215 50.0517 8.07945 49.9825 8.09675V9.37703ZM49.0137 7.42201C49.3251 7.3701 49.7403 7.33551 50.3459 7.33551C50.9514 7.33551 51.3839 7.45661 51.678 7.68153C51.9548 7.90644 52.1452 8.26976 52.1452 8.68499C52.1452 9.11752 52.0068 9.46353 51.7472 9.72305C51.4185 10.0345 50.9168 10.1729 50.3286 10.1729C50.2074 10.1729 50.0863 10.1729 49.9998 10.1556V11.7127H49.031V7.42201H49.0137Z" fill="#9AB4C1"/>
<path d="M53.5813 9.53273C53.5813 10.3805 53.9792 10.986 54.6367 10.986C55.2941 10.986 55.6747 10.3459 55.6747 9.51542C55.6747 8.73688 55.2941 8.06214 54.6194 8.06214C53.9792 8.06214 53.5813 8.70228 53.5813 9.53273ZM56.7301 9.48083C56.7301 10.8995 55.865 11.7646 54.6021 11.7646C53.3218 11.7646 52.5605 10.7957 52.5605 9.55003C52.5605 8.25245 53.391 7.2663 54.6713 7.2663C56.0035 7.2836 56.7301 8.28706 56.7301 9.48083Z" fill="#9AB4C1"/>
<path d="M58.736 8.73705C58.736 9.23878 58.6668 9.72322 58.5457 10.173C58.4765 10.4326 58.3554 10.6921 58.2342 10.8997H59.6875V8.14883H58.736V8.73705ZM60.6737 7.35297V10.917L61.1062 10.9516L61.0543 12.8028H60.3104L60.2585 11.6955H57.7152L57.6633 12.8028H56.9194L56.8848 10.9516L57.2481 10.917C57.4211 10.6056 57.5595 10.2941 57.6633 9.94812C57.7844 9.5156 57.8363 9.03118 57.8363 8.51215V7.35297H60.6737Z" fill="#9AB4C1"/>
<path d="M62.2828 7.3528L62.9229 8.8753C63.044 9.18672 63.1305 9.44623 63.217 9.70575H63.2343C63.2862 9.51543 63.3727 9.22132 63.4765 8.858L63.9437 7.33551H64.9817L64.1686 9.44624C63.9091 10.121 63.6323 10.7784 63.3035 11.1763C63.0094 11.5397 62.6634 11.7473 62.1444 11.7473C61.9194 11.7473 61.781 11.73 61.6599 11.6781L61.7291 10.8822C61.7983 10.8995 61.9021 10.9168 62.0579 10.9168C62.352 10.9168 62.5596 10.7092 62.6461 10.5016C62.6807 10.4324 62.6634 10.3632 62.6288 10.294L61.1582 7.3009H62.2828V7.3528Z" fill="#9AB4C1"/>
<path d="M66.3497 7.35297V9.15228H66.4362L67.63 7.35297H68.8238L67.3013 9.27338C67.8549 9.41179 68.1144 9.80972 68.3047 10.3287C68.4604 10.7959 68.5989 11.263 68.8065 11.6955H67.7511C67.5954 11.4014 67.5262 11.0554 67.4224 10.744C67.2667 10.2596 67.0764 9.87893 66.54 9.87893H66.3497V11.6955H65.3809V7.35297H66.3497Z" fill="#9AB4C1"/>
<path d="M70.2217 8.18342H69.0625V7.35297H72.4016V8.18342H71.2078V11.6955H70.2217V8.18342Z" fill="#9AB4C1"/>
<path d="M75.2264 7.35297V9.03117H76.8354V7.35297H77.8215V11.6955H76.8354V9.87893H75.2264V11.6955H74.2402V7.35297H75.2264Z" fill="#9AB4C1"/>
<path d="M81.2654 9.86162H79.6737V10.8997H81.4557V11.6955H78.6875V7.35297H81.3692V8.16612H79.6737V9.06578H81.2654V9.86162Z" fill="#9AB4C1"/>
<path d="M87.1095 10.0346C87.0922 9.51557 87.0749 8.87543 87.0749 8.2526H87.0576C86.9192 8.80623 86.7462 9.42907 86.5732 9.9308L86.0369 11.6263H85.2756L84.8085 9.94809C84.6701 9.44636 84.5144 8.82353 84.4106 8.2526H84.3933C84.376 8.84083 84.3414 9.51557 84.3241 10.0519L84.2549 11.7128H83.3379L83.6147 7.37024H84.9296L85.3621 8.82353C85.5005 9.32526 85.6389 9.86159 85.7254 10.3806H85.7427C85.8638 9.87889 86.0196 9.30796 86.158 8.82353L86.6251 7.38754H87.9054L88.1476 11.7301H87.196L87.1095 10.0346Z" fill="#9AB4C1"/>
<path d="M89.8787 7.35297H88.8926V11.6955H89.8787V7.35297Z" fill="#9AB4C1"/>
<path d="M93.932 11.5743C93.759 11.6608 93.3438 11.7647 92.8248 11.7647C91.3196 11.7647 90.541 10.8304 90.541 9.58472C90.541 8.09683 91.5964 7.28369 92.9113 7.28369C93.413 7.28369 93.8109 7.38749 93.9839 7.47399L93.7763 8.25255C93.5687 8.16604 93.2919 8.09683 92.9459 8.09683C92.1673 8.09683 91.5618 8.56396 91.5618 9.53282C91.5618 10.3979 92.0808 10.9515 92.9632 10.9515C93.2573 10.9515 93.586 10.8823 93.7763 10.8131L93.932 11.5743Z" fill="#9AB4C1"/>
<path d="M95.5361 8.18342H94.377V7.35297H97.7161V8.18342H96.5223V11.6955H95.5361V8.18342Z" fill="#9AB4C1"/>
<path d="M99.1363 7.35297V8.65054C99.1363 9.34259 99.119 10.0346 99.0844 10.6229H99.119C99.3439 10.1211 99.638 9.5329 99.8975 9.08307L100.832 7.37027H101.835V11.7128H100.936V10.4326C100.936 9.75782 100.953 9.16958 101.005 8.59864H100.987C100.78 9.11767 100.503 9.68861 100.261 10.1384L99.3785 11.7128H98.2539V7.37027H99.1363V7.35297Z" fill="#9AB4C1"/>
<path d="M103.528 8.18342H102.369V7.35297H105.708V8.18342H104.514V11.6955H103.528V8.18342Z" fill="#9AB4C1"/>
<path d="M107.197 10.9862C107.301 11.0035 107.422 11.0035 107.561 11.0035C108.045 11.0035 108.426 10.7786 108.426 10.2768C108.426 9.77512 108.045 9.56751 107.578 9.56751C107.44 9.56751 107.318 9.5848 107.197 9.5848V10.9862ZM107.215 7.35297V8.85816C107.353 8.84086 107.561 8.82357 107.734 8.82357C108.668 8.82357 109.464 9.27339 109.464 10.2422C109.464 10.6575 109.325 10.9689 109.118 11.1938C108.703 11.6263 107.976 11.7474 107.284 11.7474C106.799 11.7474 106.436 11.7128 106.229 11.6782V7.35297H107.215Z" fill="#9AB4C1"/>
<path d="M45.4005 16.6088H45.6254C45.9714 16.6088 46.179 16.5223 46.179 16.3147C46.179 16.1417 46.0406 16.0206 45.6946 16.0206C45.5735 16.0206 45.5043 16.0379 45.4005 16.0379V16.6088ZM45.4005 17.7853C45.487 17.8026 45.5562 17.8026 45.6946 17.8026C45.9887 17.8026 46.2828 17.7161 46.2828 17.4566C46.2828 17.2144 46.0579 17.1106 45.66 17.1106H45.4178V17.7853H45.4005ZM44.5527 15.5535C44.7603 15.5189 45.2275 15.4843 45.66 15.4843C46.1271 15.4843 47.0095 15.5361 47.0095 16.1936C47.0095 16.5396 46.7327 16.7299 46.4558 16.7818V16.7991C46.8711 16.8683 47.1306 17.0933 47.1306 17.4739C47.1306 18.2524 46.0752 18.3216 45.5043 18.3216C45.1237 18.3216 44.7257 18.3043 44.5527 18.2697V15.5535Z" fill="#9AB4C1"/>
<path d="M49.1377 16.9723C48.6879 16.9723 48.3419 17.0761 48.3419 17.4048C48.3419 17.6297 48.4803 17.7335 48.6706 17.7335C48.8782 17.7335 49.0512 17.5951 49.1031 17.4221C49.1204 17.3702 49.1204 17.3356 49.1204 17.2837V16.9723H49.1377ZM49.2242 18.2699L49.1723 17.9931H49.155C48.982 18.218 48.6879 18.3218 48.3765 18.3218C47.8229 18.3218 47.4941 17.9239 47.4941 17.474C47.4941 16.7647 48.1343 16.4187 49.1031 16.4187V16.4014C49.1031 16.263 49.0339 16.0553 48.6014 16.0553C48.3246 16.0553 48.0305 16.1418 47.8402 16.2629L47.6844 15.7093C47.8748 15.6055 48.2554 15.4671 48.7398 15.4671C49.6568 15.4671 49.9509 16.0034 49.9509 16.6436V17.5951C49.9509 17.8547 49.9682 18.1142 49.9855 18.2526H49.2242V18.2699Z" fill="#9AB4C1"/>
<path d="M51.2247 15.5363L51.8476 16.6263H51.9341V15.5363H52.7645V16.6263H52.851L53.4739 15.5363H54.4081L53.4566 16.7128C53.768 16.7647 53.9756 17.0761 54.0967 17.4048C54.2005 17.7162 54.3043 18.0104 54.4254 18.2699H53.5777C53.4912 18.1315 53.4393 17.9239 53.3354 17.647C53.2316 17.3529 53.0586 17.1799 52.8337 17.1799H52.7645V18.2699H51.9341V17.1799H51.8649C51.6226 17.1799 51.4669 17.3356 51.3458 17.647C51.242 17.9412 51.1901 18.1315 51.1036 18.2699H50.2559C50.3943 18.0104 50.4808 17.7162 50.5846 17.4048C50.7057 17.0588 50.9133 16.7647 51.2247 16.6955L50.2905 15.5363H51.2247Z" fill="#9AB4C1"/>
<path d="M55.6061 15.5363V16.6263H55.7099L56.402 15.5363H57.4054L56.402 16.7128C56.7307 16.782 56.9383 17.0761 57.094 17.474C57.1805 17.699 57.2843 18.0277 57.4227 18.2872H56.5404C56.4712 18.1661 56.402 17.9758 56.2982 17.6816C56.1771 17.3702 56.004 17.1972 55.7272 17.1972H55.6407V18.2872H54.793V15.5363H55.6061Z" fill="#9AB4C1"/>
<path d="M58.5319 15.5363V16.3668C58.5319 16.7993 58.5146 17.1107 58.48 17.4913H58.4973C58.6357 17.1799 58.7049 16.9723 58.8087 16.7128L59.3623 15.5363H60.4004V18.2699H59.5873V17.4394C59.5873 17.0069 59.6046 16.8339 59.6392 16.2457H59.6219C59.5181 16.5398 59.4489 16.7301 59.3277 16.9896C59.1547 17.3702 58.9471 17.8547 58.7568 18.2699H57.7188V15.5363H58.5319Z" fill="#9AB4C1"/>
<path d="M61.7306 15.5363L61.9901 15.9861C62.0593 16.1246 62.1458 16.263 62.215 16.4014H62.2323C62.3015 16.263 62.3707 16.1073 62.4399 15.9861L62.6821 15.5363H63.6164L62.7167 16.8339L63.6337 18.2699H62.6648L62.388 17.7855C62.3188 17.647 62.2496 17.5086 62.1804 17.3702H62.1631C62.0939 17.5086 62.0247 17.647 61.9555 17.7855L61.696 18.2699H60.7617L61.696 16.8685L60.779 15.5363H61.7306Z" fill="#9AB4C1"/>
<path d="M65.204 15.5363H66.2939L66.5881 16.5744C66.64 16.7301 66.7092 17.0242 66.7611 17.2664H66.7784C66.8303 17.0761 66.9168 16.782 67.0033 16.5225L67.3147 15.5363H68.3874L68.5604 18.2699H67.7645L67.7126 17.1799C67.7126 16.9377 67.6953 16.5398 67.678 16.2284H67.6607C67.5569 16.5917 67.5396 16.6782 67.4012 17.128L67.0379 18.2353H66.4324L66.1036 17.1453C66.0344 16.8858 65.9479 16.4879 65.8787 16.2284H65.8614C65.8441 16.5744 65.8441 16.955 65.8268 17.1799L65.7749 18.2699H65.0137L65.204 15.5363Z" fill="#9AB4C1"/>
<path d="M70.7795 16.5917C70.7795 16.3841 70.693 16.038 70.2951 16.038C69.9317 16.038 69.7933 16.3668 69.776 16.5917H70.7795ZM69.776 17.1799C69.8106 17.5259 70.1567 17.6989 70.5546 17.6989C70.8487 17.6989 71.0736 17.6643 71.3158 17.5951L71.4196 18.1661C71.1428 18.2872 70.7968 18.3391 70.4335 18.3391C69.4992 18.3391 68.9629 17.8027 68.9629 16.9377C68.9629 16.2456 69.3954 15.4671 70.347 15.4671C71.2293 15.4671 71.5753 16.1591 71.5753 16.8339C71.5753 16.9723 71.558 17.1107 71.5407 17.1626H69.776V17.1799Z" fill="#9AB4C1"/>
<path d="M74.2048 15.5363V16.1765H73.4089V18.2699H72.5439V16.1765H71.748V15.5363H74.2048Z" fill="#9AB4C1"/>
<path d="M76.0072 16.9723C75.5573 16.9723 75.2113 17.0761 75.2113 17.4048C75.2113 17.6297 75.3497 17.7335 75.54 17.7335C75.7476 17.7335 75.9206 17.5951 75.9899 17.4221C76.0072 17.3702 76.0072 17.3356 76.0072 17.2837V16.9723ZM76.111 18.2699L76.0591 17.9931H76.0418C75.8687 18.218 75.5919 18.3218 75.2632 18.3218C74.7096 18.3218 74.3809 17.9239 74.3809 17.474C74.3809 16.7647 75.021 16.4187 75.9899 16.4187V16.4014C75.9899 16.263 75.9207 16.0553 75.4881 16.0553C75.2113 16.0553 74.9172 16.1418 74.7269 16.2629L74.5712 15.7093C74.7615 15.6055 75.1421 15.4671 75.6438 15.4671C76.5608 15.4671 76.8549 16.0034 76.8549 16.6436V17.5951C76.8549 17.8547 76.8722 18.1142 76.8895 18.2526H76.111V18.2699Z" fill="#9AB4C1"/>
<path d="M79.9138 15.5363V18.2699H79.0661V16.1765H78.4778V16.6782C78.4778 17.3356 78.3913 17.8028 78.0972 18.0623C77.9242 18.2526 77.682 18.3218 77.3013 18.3218L77.2148 17.6643C77.336 17.647 77.4571 17.5951 77.509 17.5086C77.6647 17.3529 77.682 17.0934 77.682 16.6263V15.5363H79.9138Z" fill="#9AB4C1"/>
<path d="M80.5907 15.5364H81.4384V18.27H80.5907V15.5364ZM81.473 14.7752C81.473 15.0174 81.3 15.2077 81.0059 15.2077C80.7464 15.2077 80.5561 15.0174 80.5734 14.7752C80.5734 14.533 80.7464 14.3427 81.0232 14.3427C81.2827 14.3427 81.4557 14.533 81.473 14.7752Z" fill="#9AB4C1"/>
<path d="M82.9591 16.6088H83.184C83.53 16.6088 83.7376 16.5223 83.7376 16.3147C83.7376 16.1417 83.5992 16.0206 83.2532 16.0206C83.1321 16.0206 83.0629 16.0379 82.9591 16.0379V16.6088ZM82.9591 17.7853C83.0456 17.8026 83.1148 17.8026 83.2532 17.8026C83.5473 17.8026 83.8414 17.7161 83.8414 17.4566C83.8414 17.2144 83.6165 17.1106 83.2186 17.1106H82.9764V17.7853H82.9591ZM82.1113 15.5535C82.3189 15.5189 82.7861 15.4843 83.2186 15.4843C83.6857 15.4843 84.5681 15.5361 84.5681 16.1936C84.5681 16.5396 84.274 16.7299 84.0144 16.7818V16.7991C84.4297 16.8683 84.6892 17.0933 84.6892 17.4739C84.6892 18.2524 83.6338 18.3216 83.0629 18.3216C82.6823 18.3216 82.2843 18.3043 82.1113 18.2697V15.5535Z" fill="#9AB4C1"/>
<path d="M84.8789 18.9445C85.0519 18.4428 85.2076 17.8545 85.2768 17.3528L86.1419 17.3009C85.9516 17.8718 85.7094 18.4601 85.4325 18.8926L84.8789 18.9445Z" fill="#9AB4C1"/>
<path d="M89.8591 17.7685C90.2743 17.682 90.4646 17.3359 90.4646 16.9034C90.4646 16.4709 90.2743 16.1422 89.8591 16.0557V17.7685ZM89.0978 16.0384C88.6826 16.1422 88.4923 16.4882 88.4923 16.9034C88.4923 17.3532 88.6826 17.6647 89.0978 17.7685V16.0384ZM89.8591 14.291V15.4847C90.6549 15.5539 91.3123 16.0211 91.3123 16.9034C91.3123 17.7858 90.6376 18.2529 89.8591 18.3048V19.3775H89.0978V18.3221C88.3366 18.2529 87.6445 17.8031 87.6445 16.9207C87.6445 16.0211 88.302 15.5712 89.0978 15.4847V14.291H89.8591Z" fill="#9AB4C1"/>
<path d="M93.4943 16.5917C93.4943 16.3841 93.4078 16.038 93.0099 16.038C92.6466 16.038 92.5082 16.3668 92.4909 16.5917H93.4943ZM92.4909 17.1799C92.5255 17.5259 92.8715 17.6989 93.2694 17.6989C93.5635 17.6989 93.7885 17.6643 94.0307 17.5951L94.1345 18.1661C93.8577 18.2872 93.5116 18.3391 93.1483 18.3391C92.2141 18.3391 91.6777 17.8027 91.6777 16.9377C91.6777 16.2456 92.1103 15.4671 93.0618 15.4671C93.9442 15.4671 94.2902 16.1591 94.2902 16.8339C94.2902 16.9723 94.2729 17.1107 94.2556 17.1626H92.4909V17.1799Z" fill="#9AB4C1"/>
<path d="M95.6388 15.5363V16.5225H96.5038V15.5363H97.3689V18.2699H96.5038V17.1799H95.6388V18.2699H94.791V15.5363H95.6388Z" fill="#9AB4C1"/>
<path d="M98.7707 16.9031C98.7707 17.3702 98.9611 17.7335 99.3244 17.7335C99.6531 17.7335 99.8607 17.4048 99.8607 16.9031C99.8607 16.4879 99.705 16.0726 99.3244 16.0726C98.9092 16.0726 98.7707 16.5052 98.7707 16.9031ZM100.743 16.8685C100.743 17.8719 100.034 18.3391 99.2898 18.3391C98.4939 18.3391 97.8711 17.8027 97.8711 16.9204C97.8711 16.038 98.4593 15.4671 99.3417 15.4671C100.189 15.4671 100.743 16.0553 100.743 16.8685Z" fill="#9AB4C1"/>
<path d="M103.668 15.5363V18.2699H102.82V16.1765H102.232V16.6782C102.232 17.3356 102.145 17.8028 101.851 18.0623C101.678 18.2526 101.436 18.3218 101.055 18.3218L100.969 17.6643C101.09 17.647 101.211 17.5951 101.263 17.5086C101.419 17.3529 101.436 17.0934 101.436 16.6263V15.5363H103.668Z" fill="#9AB4C1"/>
<path d="M104.345 15.5364H105.192V18.27H104.345V15.5364ZM105.227 14.7752C105.227 15.0174 105.054 15.2077 104.76 15.2077C104.5 15.2077 104.31 15.0174 104.327 14.7752C104.327 14.533 104.5 14.3427 104.777 14.3427C105.054 14.3427 105.21 14.533 105.227 14.7752Z" fill="#9AB4C1"/>
<path d="M106.713 16.6088H106.938C107.284 16.6088 107.492 16.5223 107.492 16.3147C107.492 16.1417 107.353 16.0206 107.007 16.0206C106.886 16.0206 106.817 16.0379 106.713 16.0379V16.6088ZM106.696 17.7853C106.782 17.8026 106.851 17.8026 106.99 17.8026C107.284 17.8026 107.578 17.7161 107.578 17.4566C107.578 17.2144 107.353 17.1106 106.955 17.1106H106.713V17.7853H106.696ZM105.865 15.5535C106.073 15.5189 106.54 15.4843 106.973 15.4843C107.44 15.4843 108.339 15.5361 108.339 16.1936C108.339 16.5396 108.045 16.7299 107.786 16.7818V16.7991C108.201 16.8683 108.46 17.0933 108.46 17.4739C108.46 18.2524 107.405 18.3216 106.834 18.3216C106.453 18.3216 106.056 18.3043 105.883 18.2697V15.5535H105.865Z" fill="#9AB4C1"/>
<path d="M108.637 18.9445C108.81 18.4428 108.965 17.8545 109.035 17.3528L109.9 17.3009C109.709 17.8718 109.467 18.4601 109.19 18.8926L108.637 18.9445Z" fill="#9AB4C1"/>
<path d="M46.0228 23.7024C45.573 23.7024 45.2269 23.8062 45.2269 24.1349C45.2269 24.3598 45.3653 24.4636 45.5557 24.4636C45.7633 24.4636 45.9363 24.3252 45.9882 24.1522C46.0055 24.1003 46.0055 24.0657 46.0055 24.0138V23.7024H46.0228ZM46.1266 25L46.0747 24.7232H46.0574C45.8844 24.9481 45.5903 25.0519 45.2788 25.0519C44.7252 25.0519 44.3965 24.6539 44.3965 24.2214C44.3965 23.5121 45.0366 23.1661 46.0055 23.1661V23.1315C46.0055 22.9931 45.9363 22.7854 45.5037 22.7854C45.2269 22.7854 44.9328 22.8719 44.7425 22.9931L44.5868 22.4394C44.7771 22.3356 45.1577 22.1972 45.6422 22.1972C46.5591 22.1972 46.8532 22.7335 46.8532 23.3737V24.3252C46.8532 24.5848 46.8705 24.8443 46.8878 24.9827H46.1266V25Z" fill="#9AB4C1"/>
<path d="M49.9138 22.2668V25.0003H49.0661V22.9069H48.4778V23.4086C48.4778 24.0661 48.3913 24.5332 48.0972 24.7927C47.9242 24.983 47.682 25.0522 47.3013 25.0522L47.2148 24.3948C47.336 24.3775 47.4571 24.3256 47.5263 24.2391C47.682 24.0834 47.6993 23.8238 47.6993 23.3567V22.2495H49.9138V22.2668Z" fill="#9AB4C1"/>
<path d="M51.4499 22.2667V23.3566H51.5537L52.2457 22.2667H53.2492L52.2457 23.4431C52.5744 23.5123 52.7647 23.8065 52.9378 24.2044C53.0243 24.4293 53.1281 24.758 53.2665 25.0002H52.3841C52.3149 24.8791 52.2457 24.6888 52.1419 24.3947C52.0208 24.0833 51.8478 23.9103 51.571 23.9103H51.4845V25.0002H50.6367V22.2667H51.4499Z" fill="#9AB4C1"/>
<path d="M53.5633 22.2665H54.4111V25.0001H53.5633V22.2665ZM54.4457 21.4879C54.4457 21.7302 54.2727 21.9205 53.9785 21.9205C53.719 21.9205 53.5287 21.7302 53.546 21.4879C53.546 21.2457 53.719 21.0554 53.9958 21.0554C54.2727 21.0554 54.4457 21.2457 54.4457 21.4879Z" fill="#9AB4C1"/>
<path d="M57.4919 22.2668V25.0003H56.6442V22.9069H56.0559V23.4086C56.0559 24.0661 55.9694 24.5332 55.6753 24.7927C55.5023 24.983 55.2601 25.0522 54.8795 25.0522L54.793 24.3948C54.9141 24.3775 55.0352 24.3256 55.0871 24.2391C55.2428 24.0834 55.2601 23.8238 55.2601 23.3567V22.2495H57.4919V22.2668Z" fill="#9AB4C1"/>
<path d="M60.224 24.4809C60.6392 24.3944 60.8296 24.0484 60.8296 23.6158C60.8296 23.1833 60.6392 22.8546 60.224 22.7681V24.4809ZM59.4628 22.7681C59.0475 22.8719 58.8572 23.2179 58.8572 23.6332C58.8572 24.083 59.0475 24.3944 59.4628 24.4982V22.7681ZM60.224 21.0207V22.2145C61.0026 22.2837 61.6773 22.7508 61.6773 23.6332C61.6773 24.5155 61.0026 24.9826 60.224 25.0345V26.1072H59.4455V25.0518C58.6842 24.9826 57.9922 24.5328 57.9922 23.6505C57.9922 22.7508 58.6496 22.2837 59.4455 22.2145V21.0207H60.224Z" fill="#9AB4C1"/>
<path d="M63.8596 23.3221C63.8596 23.1144 63.7731 22.7684 63.3751 22.7684C63.0118 22.7684 62.8734 23.0971 62.8561 23.3221H63.8596ZM62.8561 23.893C62.8907 24.2563 63.2367 24.412 63.6347 24.412C63.9288 24.412 64.1537 24.3774 64.3959 24.3082L64.4997 24.8791C64.2229 24.983 63.8769 25.0522 63.5136 25.0522C62.5793 25.0522 62.043 24.5158 62.043 23.6508C62.043 22.9587 62.4755 22.1802 63.4271 22.1802C64.3094 22.1802 64.6554 22.8722 64.6554 23.547C64.6554 23.6854 64.6381 23.8238 64.6208 23.8757H62.8561V23.893Z" fill="#9AB4C1"/>
<path d="M66.006 22.2667V23.2528H66.871V22.2667H67.7361V25.0002H66.871V23.9103H66.006V25.0002H65.1582V22.2667H66.006Z" fill="#9AB4C1"/>
<path d="M69.1363 23.6159C69.1363 24.083 69.3266 24.4463 69.6899 24.4463C70.0186 24.4463 70.2262 24.1176 70.2262 23.6159C70.2262 23.2007 70.0705 22.7854 69.6899 22.7854C69.2747 22.8027 69.1363 23.218 69.1363 23.6159ZM71.1086 23.5986C71.1086 24.6021 70.3992 25.0692 69.6726 25.0692C68.8767 25.0692 68.2539 24.5329 68.2539 23.6505C68.2539 22.7681 68.8421 22.1972 69.7245 22.1972C70.5549 22.1972 71.1086 22.7681 71.1086 23.5986Z" fill="#9AB4C1"/>
<path d="M74.0134 22.2668V25.0003H73.1657V22.9069H72.5774V23.4086C72.5774 24.0661 72.4909 24.5332 72.1968 24.7927C72.0238 24.983 71.7816 25.0522 71.401 25.0522L71.3145 24.3948C71.4356 24.3775 71.5567 24.3256 71.6086 24.2391C71.7643 24.0834 71.7816 23.8238 71.7816 23.3567V22.2495H74.0134V22.2668Z" fill="#9AB4C1"/>
<path d="M76.3615 23.3221C76.3615 23.1144 76.275 22.7684 75.8771 22.7684C75.5138 22.7684 75.3754 23.0971 75.3581 23.3221H76.3615ZM75.3581 23.893C75.3927 24.2563 75.7387 24.412 76.1366 24.412C76.4307 24.412 76.6556 24.3774 76.8979 24.3082L77.0017 24.8791C76.7248 24.983 76.3788 25.0522 76.0155 25.0522C75.0813 25.0522 74.5449 24.5158 74.5449 23.6508C74.5449 22.9587 74.9774 22.1802 75.929 22.1802C76.8114 22.1802 77.1574 22.8722 77.1574 23.547C77.1574 23.6854 77.1401 23.8238 77.1228 23.8757H75.3581V23.893Z" fill="#9AB4C1"/>
<path d="M79.7946 22.2667V22.9068H78.9988V25.0002H78.1337V22.9068H77.3379V22.2667H79.7946Z" fill="#9AB4C1"/>
<path d="M80.8472 23.6159C80.8472 24.083 81.0375 24.4463 81.4008 24.4463C81.7295 24.4463 81.9372 24.1176 81.9372 23.6159C81.9372 23.2007 81.7814 22.7854 81.4008 22.7854C81.0029 22.8027 80.8472 23.218 80.8472 23.6159ZM82.8195 23.5986C82.8195 24.6021 82.1102 25.0692 81.3835 25.0692C80.5877 25.0692 79.9648 24.5329 79.9648 23.6505C79.9648 22.7681 80.5531 22.1972 81.4354 22.1972C82.2659 22.1972 82.8195 22.7681 82.8195 23.5986Z" fill="#9AB4C1"/>
<path d="M84.2038 22.2667V23.3566H84.3076L84.9996 22.2667H86.0031L84.9996 23.4431C85.3283 23.5123 85.5186 23.8065 85.6917 24.2044C85.7782 24.4293 85.882 24.758 86.0204 25.0002H85.138C85.0688 24.8791 84.9996 24.6888 84.8958 24.3947C84.7747 24.0833 84.6017 23.9103 84.3249 23.9103H84.2384V25.0002H83.3906V22.2667H84.2038Z" fill="#9AB4C1"/>
<path d="M88.3591 24.9308C88.2034 25 87.9265 25.0519 87.5978 25.0519C86.7155 25.0519 86.1445 24.5156 86.1445 23.6505C86.1445 22.8547 86.6982 22.1972 87.7189 22.1972C87.9438 22.1972 88.1861 22.2318 88.3764 22.301L88.238 22.9411C88.1341 22.8892 87.9784 22.8547 87.7535 22.8547C87.3037 22.8547 87.0096 23.1661 87.0269 23.6159C87.0269 24.1176 87.3556 24.3944 87.7708 24.3944C87.9784 24.3944 88.1341 24.3598 88.2553 24.3079L88.3591 24.9308Z" fill="#9AB4C1"/>
<path d="M89.6195 22.2668V23.0972C89.6195 23.5297 89.6022 23.8412 89.5676 24.2045H89.5849C89.706 23.8931 89.7925 23.6854 89.8963 23.4259L90.4327 22.2495H91.4707V24.983H90.6576V24.1526C90.6576 23.72 90.6749 23.547 90.7095 22.9588H90.6922C90.5884 23.2529 90.5192 23.4432 90.3981 23.7027C90.225 24.0834 90.0174 24.5505 89.8271 24.983H88.7891V22.2495H89.6195V22.2668Z" fill="#9AB4C1"/>
<path d="M94.5642 22.2668V25.0003H93.7164V22.9069H93.1282V23.4086C93.1282 24.0661 93.0417 24.5332 92.7476 24.7927C92.5746 24.983 92.3324 25.0522 91.9517 25.0522L91.8652 24.3948C91.9863 24.3775 92.1074 24.3256 92.1767 24.2391C92.3324 24.0834 92.3497 23.8238 92.3497 23.3567V22.2495H94.5642V22.2668Z" fill="#9AB4C1"/>
<path d="M96.6986 23.7024C96.2487 23.7024 95.9027 23.8062 95.9027 24.1349C95.9027 24.3598 96.0411 24.4636 96.2314 24.4636C96.439 24.4636 96.6121 24.3252 96.6813 24.1522C96.6986 24.1003 96.6986 24.0657 96.6986 24.0138V23.7024ZM96.8024 25L96.7505 24.7232H96.7332C96.5602 24.9481 96.2833 25.0519 95.9546 25.0519C95.401 25.0519 95.0723 24.6539 95.0723 24.2214C95.0723 23.5121 95.7124 23.1661 96.6813 23.1661V23.1315C96.6813 22.9931 96.6121 22.7854 96.1795 22.7854C95.9027 22.7854 95.6086 22.8719 95.4183 22.9931L95.2626 22.4394C95.4529 22.3356 95.8335 22.1972 96.3352 22.1972C97.2522 22.1972 97.5463 22.7335 97.5463 23.3737V24.3252C97.5463 24.5848 97.5636 24.8443 97.5809 24.9827H96.8024V25Z" fill="#9AB4C1"/>
<path d="M100.31 22.2667V22.9068H99.5144V25.0002H98.6494V22.9068H97.8535V22.2667H100.31Z" fill="#9AB4C1"/>
<path d="M100.689 22.2665H101.537V25.0001H100.689V22.2665ZM101.571 21.4879C101.571 21.7302 101.398 21.9205 101.104 21.9205C100.827 21.9205 100.654 21.7302 100.654 21.4879C100.654 21.2457 100.827 21.0554 101.104 21.0554C101.381 21.0554 101.554 21.2457 101.571 21.4879Z" fill="#9AB4C1"/>
<path d="M103.062 23.3219H103.287C103.633 23.3219 103.841 23.2354 103.841 23.0278C103.841 22.8548 103.702 22.7337 103.356 22.7337C103.235 22.7337 103.166 22.751 103.062 22.751V23.3219ZM103.062 24.5157C103.149 24.533 103.218 24.533 103.356 24.533C103.651 24.533 103.945 24.4465 103.945 24.1697C103.945 23.9448 103.72 23.8237 103.322 23.8237H103.08V24.5157H103.062ZM102.215 22.2839C102.422 22.2493 102.889 22.2147 103.322 22.2147C103.789 22.2147 104.671 22.2666 104.671 22.9067C104.671 23.2527 104.394 23.443 104.118 23.4949V23.5122C104.533 23.5814 104.792 23.8064 104.792 24.187C104.792 24.9655 103.737 25.0347 103.166 25.0347C102.786 25.0347 102.388 25.0001 102.197 24.9828V22.2839H102.215Z" fill="#9AB4C1"/>
<path d="M105 25.6573C105.173 25.1556 105.329 24.5674 105.398 24.0656L106.263 24.0137C106.073 24.5847 105.83 25.1729 105.554 25.6054L105 25.6573Z" fill="#9AB4C1"/>
<path d="M46.0228 30.4326C45.573 30.4326 45.2269 30.5364 45.2269 30.8651C45.2269 31.09 45.3653 31.1938 45.5557 31.1938C45.7633 31.1938 45.9363 31.0554 45.9882 30.8824C46.0055 30.8305 46.0055 30.7959 46.0055 30.744V30.4326H46.0228ZM46.1266 31.7301L46.0747 31.4533H46.0574C45.8844 31.6782 45.5903 31.7993 45.2788 31.7993C44.7252 31.7993 44.3965 31.4014 44.3965 30.9516C44.3965 30.2423 45.0366 29.8962 46.0055 29.8962V29.8616C46.0055 29.7232 45.9363 29.5156 45.5037 29.5156C45.2269 29.5156 44.9328 29.6021 44.7425 29.7232L44.5868 29.1696C44.7771 29.0658 45.1577 28.9274 45.6422 28.9274C46.5591 28.9274 46.8532 29.4637 46.8532 30.1038V31.0554C46.8532 31.3149 46.8705 31.5744 46.8878 31.7128H46.1266V31.7301Z" fill="#9AB4C1"/>
<path d="M47.6139 28.9794H48.7038L48.9979 30.0174C49.0498 30.1732 49.1191 30.4673 49.171 30.7095H49.1883C49.2402 30.5192 49.3267 30.225 49.4132 29.9655L49.7246 28.9967H50.7973L50.9703 31.7302H50.1744L50.1225 30.6403C50.1225 30.3981 50.1052 30.0001 50.0879 29.6887H50.0706C49.9668 30.052 49.9495 30.1385 49.8111 30.5884L49.4478 31.7129H48.8249L48.4962 30.623C48.427 30.3635 48.3405 29.9655 48.2713 29.706H48.254C48.2367 30.052 48.2367 30.4327 48.2194 30.6576L48.1675 31.7475H47.4062L47.6139 28.9794Z" fill="#9AB4C1"/>
<path d="M51.54 28.9794H52.3877V31.713H51.54V28.9794ZM52.4223 28.2182C52.4223 28.4604 52.2493 28.6507 51.9552 28.6507C51.6784 28.6507 51.5054 28.4604 51.5227 28.2182C51.5227 27.976 51.6957 27.7856 51.9725 27.7856C52.2493 27.7856 52.4223 27.976 52.4223 28.2182Z" fill="#9AB4C1"/>
<path d="M54.5325 30.4326C54.0827 30.4326 53.7367 30.5364 53.7367 30.8651C53.7367 31.09 53.8924 31.1938 54.0654 31.1938C54.273 31.1938 54.446 31.0554 54.4979 30.8824C54.5152 30.8305 54.5152 30.7959 54.5152 30.744V30.4326H54.5325ZM54.6364 31.7301L54.5844 31.4533H54.5672C54.3941 31.6782 54.1 31.7993 53.7886 31.7993C53.235 31.7993 52.9062 31.4014 52.9062 30.9516C52.9062 30.2423 53.5464 29.8962 54.5152 29.8962V29.8616C54.5152 29.7232 54.4287 29.5156 54.0135 29.5156C53.7367 29.5156 53.4426 29.6021 53.2523 29.7232L53.0966 29.1696C53.2869 29.0658 53.6675 28.9274 54.1519 28.9274C55.0689 28.9274 55.363 29.4637 55.363 30.1038V31.0554C55.363 31.3149 55.3803 31.5744 55.3976 31.7128H54.6364V31.7301Z" fill="#9AB4C1"/>
<path d="M56.8868 28.9794V30.0693H56.9906L57.6827 28.9794H58.6861L57.6827 30.1558C58.0114 30.225 58.2017 30.5192 58.3747 30.9171C58.4612 31.142 58.565 31.4707 58.7034 31.7129H57.7865C57.7173 31.5918 57.6481 31.4015 57.5443 31.1074C57.4231 30.796 57.2501 30.623 56.9733 30.623H56.8868V31.7129H56.0391V28.9794H56.8868Z" fill="#9AB4C1"/>
<path d="M59.725 28.9794L60.1402 30.3289C60.1921 30.4846 60.244 30.6922 60.2786 30.8306H60.2959C60.3305 30.6922 60.3824 30.4673 60.417 30.3289L60.7458 28.9794H61.6627L61.0226 30.7787C60.6246 31.8686 60.3651 32.3012 60.0537 32.578C59.7596 32.8375 59.4482 32.924 59.2233 32.9586L59.0503 32.232C59.1541 32.2147 59.2925 32.1628 59.4136 32.0936C59.5347 32.0244 59.6904 31.886 59.7596 31.7475C59.7942 31.7129 59.8115 31.661 59.8115 31.6264C59.8115 31.5918 59.8115 31.5572 59.7769 31.488L58.7734 28.9794H59.725Z" fill="#9AB4C1"/>
<path d="M61.5898 31.2629C61.5898 30.9688 61.7975 30.7439 62.0916 30.7439C62.3857 30.7439 62.5933 30.9515 62.5933 31.2629C62.5933 31.557 62.3857 31.782 62.0916 31.782C61.7975 31.782 61.5898 31.557 61.5898 31.2629Z" fill="#9AB4C1"/>
</svg>
