<svg width="232" height="21" viewBox="0 0 232 21" fill="none" xmlns="http://www.w3.org/2000/svg">
<g clip-path="url(#clip0)">
<path d="M12.4318 15.656C12.2765 16.4797 12.0228 17.2252 11.6655 17.8873C11.3082 18.5494 10.8578 19.1125 10.3193 19.5713C9.7808 20.0301 9.16464 20.3846 8.476 20.6296C7.78218 20.8747 7.03658 20.9946 6.23403 20.9946C5.36416 20.9946 4.53572 20.833 3.7487 20.5045C2.96168 20.1761 2.27304 19.7121 1.67242 19.1125C1.26337 18.7006 0.947531 18.2679 0.724887 17.8248C0.497065 17.3764 0.331377 16.8707 0.222644 16.3024C0.113911 15.7342 0.0517776 15.0773 0.0362443 14.3265C0.0103555 13.581 0 12.6895 0 11.6572C0 10.6249 0.0103555 9.73341 0.0258888 8.98788C0.0414221 8.23713 0.103555 7.58023 0.212288 7.01196C0.321021 6.44369 0.48671 5.93798 0.714531 5.48961C0.942353 5.04125 1.2582 4.61375 1.66206 4.20188C2.26268 3.59711 2.9565 3.13311 3.74352 2.80466C4.53054 2.47621 5.35898 2.31459 6.22885 2.31459C7.88573 2.31459 9.25784 2.78902 10.34 3.73266C11.4273 4.68152 12.1211 5.9849 12.4266 7.65322H11.0183C10.7439 6.36548 10.1847 5.35406 9.34068 4.61896C8.49671 3.88907 7.45598 3.52412 6.22885 3.52412C5.58163 3.52412 4.95512 3.64403 4.35968 3.88907C3.75906 4.1341 3.23092 4.48862 2.7701 4.95262C2.4439 5.28107 2.19019 5.63038 2.00379 6.00054C1.81739 6.3707 1.67242 6.81384 1.57922 7.31955C1.48602 7.83048 1.42388 8.43524 1.398 9.13385C1.37211 9.83246 1.36175 10.6718 1.36175 11.6572C1.36175 12.6425 1.37211 13.4819 1.398 14.1805C1.42388 14.8791 1.48084 15.4839 1.57922 15.9948C1.67242 16.5058 1.81222 16.9437 2.00379 17.3138C2.19019 17.684 2.44908 18.0333 2.7701 18.3618C3.23092 18.8258 3.75906 19.1803 4.35968 19.4253C4.95512 19.6651 5.58163 19.7903 6.22885 19.7903C7.46116 19.7903 8.50706 19.4253 9.36657 18.6954C10.2313 17.9655 10.7956 16.9541 11.0701 15.6612H12.4318V15.656Z" fill="black"/>
<path d="M30.5485 11.6572C30.5485 12.6895 30.5382 13.581 30.5226 14.3265C30.5071 15.0773 30.4398 15.7342 30.3311 16.3024C30.2171 16.8707 30.0515 17.3764 29.8185 17.8248C29.5855 18.2731 29.2696 18.7006 28.8554 19.1125C28.2548 19.7173 27.5661 20.1813 26.7791 20.5045C25.9921 20.833 25.1637 20.9946 24.2938 20.9946C23.4239 20.9946 22.5955 20.833 21.8085 20.5045C21.0215 20.1761 20.3328 19.7121 19.7322 19.1125C19.3231 18.7006 19.0021 18.2679 18.7691 17.8248C18.5361 17.3764 18.3653 16.8707 18.2565 16.3024C18.1478 15.7342 18.0805 15.0773 18.065 14.3265C18.0494 13.5758 18.0391 12.6895 18.0391 11.6572C18.0391 10.6249 18.0494 9.73341 18.065 8.98788C18.0805 8.23713 18.1478 7.58023 18.2565 7.01196C18.3653 6.44369 18.5361 5.93798 18.7691 5.48961C19.0021 5.04125 19.318 4.61375 19.7322 4.20188C20.3328 3.59711 21.0215 3.13311 21.8085 2.80466C22.5955 2.47621 23.4239 2.31459 24.2938 2.31459C25.1637 2.31459 25.9921 2.47621 26.7791 2.80466C27.5661 3.13311 28.2548 3.59711 28.8554 4.19666C29.2644 4.60853 29.5855 5.04125 29.8185 5.4844C30.0515 5.93276 30.2171 6.43847 30.3311 7.00674C30.4398 7.57502 30.5071 8.23192 30.5226 8.98266C30.5382 9.73341 30.5485 10.6249 30.5485 11.6572ZM29.1919 11.6572C29.1919 10.6718 29.1764 9.83246 29.1505 9.13385C29.1246 8.43524 29.0625 7.83048 28.9693 7.31955C28.8761 6.80863 28.7311 6.3707 28.5447 6.00054C28.3532 5.63038 28.0994 5.28107 27.7732 4.95262C27.3072 4.48862 26.7791 4.1341 26.1733 3.88907C25.5727 3.64925 24.9462 3.52412 24.2938 3.52412C23.6414 3.52412 23.0149 3.64403 22.4143 3.88907C21.8136 4.1341 21.2803 4.48862 20.8195 4.95262C20.4933 5.28107 20.2344 5.63038 20.048 6.00054C19.8565 6.3707 19.7167 6.81384 19.6235 7.31955C19.5303 7.83048 19.4681 8.43524 19.4422 9.13385C19.4163 9.83246 19.406 10.6718 19.406 11.6572C19.406 12.6425 19.4163 13.4819 19.4422 14.1805C19.4681 14.8791 19.5303 15.4839 19.6235 15.9948C19.7167 16.5058 19.8616 16.9437 20.048 17.3138C20.2396 17.684 20.4933 18.0333 20.8195 18.3618C21.2855 18.8258 21.8136 19.1803 22.4143 19.4253C23.0149 19.6651 23.6414 19.7903 24.2938 19.7903C24.9462 19.7903 25.5727 19.6703 26.1733 19.4253C26.7739 19.1855 27.3072 18.831 27.7732 18.3618C28.0994 18.0333 28.3583 17.684 28.5447 17.3138C28.7363 16.9437 28.8761 16.5005 28.9693 15.9948C29.0625 15.4839 29.1246 14.8844 29.1505 14.1805C29.1764 13.4819 29.1919 12.6425 29.1919 11.6572Z" fill="black"/>
<path d="M37.0117 2.47096H38.3683V19.6338H48.0559V20.8486H37.0117V2.47096Z" fill="black"/>
<path d="M64.3279 11.6571C64.3279 12.6894 64.3175 13.5809 64.302 14.3264C64.2864 15.0772 64.2191 15.7341 64.1104 16.3024C63.9965 16.8706 63.8308 17.3763 63.5978 17.8247C63.3648 18.2731 63.0489 18.7006 62.6347 19.1124C62.0341 19.7172 61.3455 20.1812 60.5584 20.5044C59.7714 20.8329 58.943 20.9945 58.0731 20.9945C57.2032 20.9945 56.3748 20.8329 55.5878 20.5044C54.8008 20.176 54.1121 19.712 53.5115 19.1124C53.1024 18.7006 52.7814 18.2678 52.5484 17.8247C52.3154 17.3763 52.1446 16.8706 52.0358 16.3024C51.9271 15.7341 51.8598 15.0772 51.8442 14.3264C51.8287 13.5757 51.8184 12.6894 51.8184 11.6571C51.8184 10.6248 51.8287 9.73333 51.8442 8.9878C51.8598 8.23706 51.9271 7.58016 52.0358 7.01188C52.1446 6.44361 52.3154 5.9379 52.5484 5.48954C52.7814 5.04118 53.0973 4.61367 53.5115 4.2018C54.1069 3.60225 54.8008 3.13303 55.5878 2.8098C56.3748 2.48135 57.2032 2.31973 58.0731 2.31973C58.943 2.31973 59.7714 2.48135 60.5584 2.8098C61.3455 3.13825 62.0341 3.60225 62.6347 4.2018C63.0438 4.61367 63.3648 5.04639 63.5978 5.48954C63.8308 5.9379 63.9965 6.44361 64.1104 7.01188C64.2191 7.58016 64.2864 8.23706 64.302 8.9878C64.3175 9.73333 64.3279 10.6248 64.3279 11.6571ZM62.9713 11.6571C62.9713 10.6718 62.9557 9.83239 62.9299 9.13378C62.904 8.43517 62.8418 7.8304 62.7486 7.31948C62.6554 6.80856 62.5105 6.37062 62.3241 6.00046C62.1325 5.6303 61.8788 5.281 61.5526 4.95255C61.0866 4.48855 60.5584 4.13403 59.9526 3.88899C59.352 3.64917 58.7255 3.52405 58.0731 3.52405C57.4207 3.52405 56.7942 3.64396 56.1936 3.88899C55.593 4.12881 55.0596 4.48333 54.5988 4.95255C54.2726 5.281 54.0137 5.6303 53.8273 6.00046C53.6358 6.37062 53.496 6.81377 53.4028 7.31948C53.3096 7.8304 53.2474 8.43517 53.2215 9.13378C53.1956 9.83239 53.1853 10.6718 53.1853 11.6571C53.1853 12.6425 53.1956 13.4818 53.2215 14.1805C53.2474 14.8791 53.3096 15.4838 53.4028 15.9948C53.496 16.5057 53.6409 16.9436 53.8273 17.3138C54.0189 17.6839 54.2726 18.0332 54.5988 18.3617C55.0648 18.8257 55.593 19.1802 56.1936 19.4252C56.7942 19.6651 57.4207 19.7902 58.0731 19.7902C58.7255 19.7902 59.352 19.6703 59.9526 19.4252C60.5533 19.1854 61.0866 18.8309 61.5526 18.3617C61.8788 18.0332 62.1377 17.6839 62.3241 17.3138C62.5156 16.9436 62.6554 16.5005 62.7486 15.9948C62.8418 15.4838 62.904 14.8843 62.9299 14.1805C62.9557 13.4818 62.9713 12.6425 62.9713 11.6571Z" fill="black"/>
<path d="M77.1952 12.3818H72.1417V20.8486H70.7852V2.47096H77.7285C78.4638 2.47096 79.1524 2.58044 79.7893 2.7942C80.4313 3.00795 80.9853 3.32076 81.4565 3.73784C81.9277 4.14971 82.2953 4.66585 82.5594 5.28625C82.8234 5.90666 82.9581 6.61048 82.9581 7.40294C82.9581 8.79494 82.5801 9.91585 81.819 10.7552C81.0578 11.5998 80.0378 12.1316 78.7537 12.3558L83.1859 20.8434H81.5704L77.1952 12.3818ZM81.6015 7.42379C81.6015 6.14127 81.2235 5.19762 80.4676 4.59286C79.7116 3.98809 78.7434 3.68571 77.5577 3.68571H72.1469V11.1671H77.5577C78.7434 11.1671 79.7116 10.8647 80.4676 10.2599C81.2235 9.65517 81.6015 8.70631 81.6015 7.42379Z" fill="black"/>
<path d="M152.345 15.9181C152.345 17.4821 151.802 18.723 150.719 19.6353C149.632 20.5477 148.136 21.0013 146.22 21.0013C144.869 21.0013 143.729 20.8136 142.797 20.433C141.865 20.0524 140.98 19.4424 140.146 18.603L141.12 17.6229C141.529 18.0348 141.928 18.3789 142.311 18.6552C142.694 18.9315 143.093 19.1557 143.502 19.3277C143.911 19.4998 144.34 19.6197 144.796 19.6875C145.247 19.7552 145.749 19.7917 146.298 19.7917C147.747 19.7917 148.897 19.4581 149.731 18.7959C150.569 18.1338 150.989 17.1954 150.989 15.9859C150.989 14.8285 150.652 13.9682 149.984 13.3948C149.813 13.2592 149.648 13.1393 149.498 13.0455C149.347 12.9516 149.166 12.863 148.969 12.7848C148.773 12.7066 148.545 12.6388 148.286 12.5762C148.027 12.5137 147.711 12.4615 147.333 12.4094L145.2 12.0757C143.812 11.8672 142.725 11.4241 141.938 10.7359C140.98 9.92777 140.504 8.80166 140.504 7.35752C140.504 5.80911 141.006 4.58393 142.016 3.68199C143.025 2.78006 144.408 2.32648 146.168 2.32648C147.297 2.32648 148.255 2.4881 149.052 2.80613C149.844 3.12415 150.637 3.62986 151.424 4.31804L150.528 5.21998C150.253 4.96452 149.974 4.72991 149.684 4.52137C149.394 4.31283 149.073 4.13557 148.721 3.97916C148.369 3.82276 147.975 3.70806 147.54 3.62986C147.105 3.55166 146.624 3.51516 146.091 3.51516C144.76 3.51516 143.719 3.84883 142.979 4.52137C142.233 5.19391 141.865 6.12192 141.865 7.31059C141.865 8.37936 142.181 9.17703 142.813 9.70881C143.139 9.98512 143.543 10.2197 144.03 10.4178C144.517 10.616 145.019 10.7567 145.531 10.8454L147.504 11.1529C148.358 11.2729 149.021 11.4241 149.492 11.6065C149.964 11.789 150.383 12.0392 150.761 12.3677C151.258 12.7796 151.646 13.2905 151.926 13.9057C152.205 14.5052 152.345 15.1778 152.345 15.9181Z" fill="black"/>
<path d="M162.954 20.8437H161.597V3.68605H156.166V2.4713H168.417V3.68605H162.959V20.8437H162.954Z" fill="black"/>
<path d="M185.814 14.8847C185.814 15.7814 185.659 16.5999 185.353 17.3507C185.048 18.1014 184.613 18.7427 184.059 19.2849C183.505 19.8271 182.847 20.2494 182.086 20.5517C181.325 20.8541 180.486 21.0053 179.559 21.0053C178.638 21.0053 177.794 20.8541 177.033 20.5517C176.272 20.2494 175.614 19.8271 175.06 19.2849C174.506 18.7427 174.071 18.0962 173.766 17.3507C173.46 16.5999 173.305 15.7814 173.305 14.8847V2.4713H174.661V14.723C174.661 15.479 174.775 16.1724 175.008 16.8032C175.241 17.4341 175.573 17.9658 176.002 18.4038C176.432 18.8417 176.945 19.1858 177.55 19.4256C178.151 19.6654 178.819 19.7854 179.559 19.7854C180.3 19.7854 180.968 19.6654 181.568 19.4256C182.169 19.1858 182.687 18.8417 183.117 18.4038C183.546 17.9658 183.878 17.4289 184.111 16.8032C184.344 16.1724 184.458 15.479 184.458 14.723V2.4713H185.814V14.8847Z" fill="black"/>
<path d="M205.168 11.402C205.168 12.0224 205.163 12.6898 205.158 13.404C205.148 14.1183 205.091 14.8221 204.977 15.5207C204.868 16.2193 204.692 16.8866 204.454 17.5227C204.215 18.1587 203.863 18.7114 203.403 19.1754C202.295 20.2963 200.777 20.8541 198.851 20.8541H192.736V2.4713H198.851C200.777 2.4713 202.295 3.02915 203.403 4.15005C203.863 4.61405 204.21 5.14062 204.454 5.72453C204.692 6.30844 204.868 6.91842 204.977 7.54404C205.085 8.17488 205.148 8.81614 205.158 9.47825C205.163 10.1404 205.168 10.7816 205.168 11.402ZM203.806 11.402C203.806 10.8859 203.801 10.3385 203.796 9.75978C203.786 9.18108 203.744 8.61281 203.667 8.04975C203.589 7.4867 203.454 6.95492 203.268 6.44399C203.082 5.93307 202.807 5.48992 202.445 5.10934C201.911 4.55671 201.311 4.18133 200.632 3.98322C199.954 3.78511 199.25 3.68605 198.515 3.68605H194.093V19.6342H198.515C199.25 19.6342 199.959 19.5351 200.632 19.337C201.311 19.1389 201.911 18.7635 202.445 18.2109C202.802 17.8303 203.076 17.3611 203.268 16.798C203.454 16.235 203.589 15.6406 203.667 15.0098C203.744 14.379 203.786 13.7481 203.796 13.1225C203.801 12.4917 203.806 11.9182 203.806 11.402Z" fill="black"/>
<path d="M211.65 2.4713H213.007V20.8437H211.65V2.4713Z" fill="black"/>
<path d="M232 11.6574C232 12.6897 231.989 13.5812 231.974 14.3267C231.958 15.0775 231.891 15.7344 231.782 16.3027C231.668 16.8709 231.503 17.3766 231.27 17.825C231.037 18.2734 230.721 18.7009 230.307 19.1127C229.706 19.7175 229.017 20.1815 228.23 20.5047C227.443 20.8332 226.615 20.9948 225.745 20.9948C224.875 20.9948 224.047 20.8332 223.26 20.5047C222.473 20.1763 221.784 19.7123 221.183 19.1127C220.774 18.7009 220.453 18.2681 220.22 17.825C219.987 17.3766 219.816 16.8709 219.708 16.3027C219.594 15.7344 219.532 15.0775 219.516 14.3267C219.501 13.576 219.49 12.6897 219.49 11.6574C219.49 10.6251 219.501 9.73363 219.516 8.9881C219.532 8.23736 219.599 7.58046 219.708 7.01218C219.816 6.44391 219.987 5.9382 220.22 5.48984C220.453 5.04148 220.769 4.61397 221.183 4.2021C221.779 3.60255 222.473 3.13334 223.26 2.8101C224.047 2.48165 224.875 2.32003 225.745 2.32003C226.615 2.32003 227.443 2.48165 228.23 2.8101C229.017 3.13855 229.706 3.60255 230.307 4.2021C230.716 4.61397 231.037 5.04669 231.27 5.48984C231.503 5.9382 231.668 6.44391 231.782 7.01218C231.891 7.58046 231.958 8.23736 231.974 8.9881C231.989 9.73363 232 10.6251 232 11.6574ZM230.643 11.6574C230.643 10.6721 230.628 9.83269 230.607 9.13408C230.581 8.43547 230.519 7.8307 230.426 7.31978C230.332 6.80886 230.187 6.37092 230.001 6.00076C229.809 5.63061 229.556 5.2813 229.23 4.95285C228.764 4.48885 228.235 4.13433 227.63 3.88929C227.029 3.64947 226.403 3.52435 225.75 3.52435C225.098 3.52435 224.471 3.64426 223.871 3.88929C223.27 4.12912 222.737 4.48363 222.276 4.95285C221.95 5.2813 221.691 5.63061 221.504 6.00076C221.313 6.37092 221.173 6.81407 221.08 7.31978C220.987 7.8307 220.924 8.43547 220.899 9.13408C220.873 9.83269 220.862 10.6721 220.862 11.6574C220.862 12.6428 220.873 13.4821 220.899 14.1808C220.924 14.8794 220.987 15.4841 221.08 15.9951C221.173 16.506 221.318 16.9439 221.504 17.3141C221.696 17.6842 221.95 18.0335 222.276 18.362C222.742 18.826 223.27 19.1805 223.871 19.4255C224.471 19.6654 225.098 19.7905 225.75 19.7905C226.403 19.7905 227.029 19.6706 227.63 19.4255C228.23 19.1857 228.764 18.8312 229.23 18.362C229.556 18.0335 229.815 17.6842 230.001 17.3141C230.193 16.9439 230.332 16.5008 230.426 15.9951C230.519 15.4841 230.581 14.8846 230.607 14.1808C230.628 13.4821 230.643 12.6428 230.643 11.6574Z" fill="black"/>
<path d="M123.33 20.3273C123.2 20.3273 123.019 20.3273 122.874 20.1813C122.724 20.0354 122.724 19.8529 122.724 19.7225V15.2911C122.724 15.0877 122.729 14.9991 122.796 14.8688C122.879 14.7176 123.04 14.629 123.237 14.629C123.428 14.629 123.594 14.7176 123.677 14.8688C123.744 15.0043 123.749 15.0877 123.749 15.2963V19.3941H125.551C125.737 19.3941 125.831 19.4045 125.934 19.4619C126.074 19.5401 126.152 19.6913 126.152 19.8633C126.152 20.0354 126.069 20.1866 125.934 20.2648C125.831 20.3221 125.737 20.3325 125.551 20.3325H123.33V20.3273ZM94.6657 20.3586C94.4741 20.3586 94.3085 20.27 94.2308 20.1188C94.1583 19.9884 94.1583 19.8998 94.1583 19.6913V15.5882H93.2315C93.0503 15.5882 92.9571 15.583 92.8483 15.5205C92.7085 15.4423 92.6309 15.2911 92.6309 15.119C92.6309 14.947 92.7137 14.7958 92.8483 14.7176C92.9519 14.6602 93.0503 14.6498 93.2315 14.6498H96.1051C96.2915 14.6498 96.3847 14.6602 96.4883 14.7176C96.6281 14.7958 96.7058 14.947 96.7058 15.119C96.7058 15.2911 96.6229 15.4423 96.4883 15.5205C96.3847 15.5778 96.2864 15.5882 96.1051 15.5882H95.1783V19.6913C95.1783 19.8946 95.1731 19.9832 95.1058 20.1136C95.023 20.27 94.8573 20.3586 94.6657 20.3586ZM98.0313 20.3586C97.8397 20.3586 97.674 20.27 97.5912 20.1188C97.5187 19.9884 97.5187 19.8998 97.5187 19.6913V15.2859C97.5187 15.0825 97.5238 14.9939 97.5912 14.8636C97.674 14.7124 97.8397 14.6237 98.0313 14.6237C98.2228 14.6237 98.3885 14.7124 98.4662 14.8636C98.5387 14.9991 98.5387 15.0825 98.5387 15.2911V19.6965C98.5387 19.8998 98.5335 19.9884 98.4662 20.1188C98.3885 20.27 98.2228 20.3586 98.0313 20.3586ZM103.494 20.3586C103.214 20.3586 103.095 20.1448 102.997 19.9676L101.707 17.6789L100.895 18.6642V19.6913C100.895 19.8946 100.889 19.9832 100.822 20.1136C100.739 20.2648 100.574 20.3534 100.382 20.3534C100.19 20.3534 100.025 20.2648 99.9418 20.1136C99.8694 19.9832 99.8694 19.8946 99.8694 19.6861V15.2806C99.8694 15.0773 99.8745 14.9887 99.9418 14.8583C100.025 14.7072 100.19 14.6185 100.382 14.6185C100.574 14.6185 100.739 14.7072 100.822 14.8583C100.895 14.9939 100.895 15.0773 100.895 15.2859V17.2096L102.779 14.9105C102.914 14.7489 103.033 14.6237 103.235 14.6237C103.354 14.6237 103.463 14.6654 103.556 14.7437C103.675 14.8427 103.742 14.9783 103.742 15.119C103.742 15.265 103.68 15.3693 103.535 15.5413L102.422 16.8968L103.877 19.4723C103.975 19.6391 104.017 19.7278 104.022 19.8581C104.027 20.0354 103.939 20.1918 103.773 20.2908C103.67 20.3482 103.566 20.3586 103.494 20.3586ZM108.552 20.3586C108.273 20.3586 108.154 20.1448 108.055 19.9676L106.766 17.6789L105.953 18.6642V19.6913C105.953 19.8946 105.953 19.9832 105.881 20.1136C105.798 20.2648 105.632 20.3534 105.441 20.3534C105.249 20.3534 105.083 20.2648 105.001 20.1136C104.928 19.9832 104.928 19.8946 104.928 19.6861V15.2806C104.928 15.0773 104.933 14.9887 105.001 14.8583C105.083 14.7072 105.249 14.6185 105.441 14.6185C105.632 14.6185 105.798 14.7072 105.881 14.8583C105.953 14.9939 105.953 15.0773 105.953 15.2859V17.2096L107.838 14.9105C107.973 14.7489 108.092 14.6237 108.294 14.6237C108.407 14.6237 108.521 14.6654 108.615 14.7437C108.734 14.8427 108.796 14.9783 108.796 15.119C108.796 15.265 108.734 15.3693 108.589 15.5413L107.475 16.8968L108.93 19.4723C109.024 19.6391 109.07 19.7278 109.07 19.8581C109.075 20.0354 108.987 20.1918 108.822 20.2908C108.729 20.3482 108.62 20.3586 108.552 20.3586ZM117.391 17.1158C117.898 17.1158 118.214 16.8291 118.214 16.3598C118.214 15.8854 117.898 15.5882 117.391 15.5882H116.267V17.1106H117.391V17.1158ZM118.742 20.3586C118.463 20.3586 118.344 20.1448 118.245 19.9676L117.137 18.0177H116.262V19.6913C116.262 19.8946 116.257 19.9832 116.19 20.1136C116.107 20.2648 115.941 20.3534 115.75 20.3534C115.558 20.3534 115.392 20.2648 115.309 20.1136C115.237 19.978 115.237 19.8946 115.237 19.6861V15.2546C115.237 15.1242 115.237 14.9418 115.387 14.7958C115.532 14.6446 115.713 14.6446 115.843 14.6446H117.448C118.514 14.6446 119.234 15.3276 119.234 16.3442C119.234 17.0637 118.851 17.6215 118.204 17.8561L119.115 19.4619C119.213 19.6287 119.255 19.7173 119.26 19.8477C119.265 20.0249 119.177 20.1813 119.012 20.2804C118.918 20.3482 118.815 20.3586 118.742 20.3586ZM120.886 20.3586C120.694 20.3586 120.529 20.27 120.446 20.1188C120.378 19.9884 120.373 19.8998 120.373 19.6913V15.2859C120.373 15.0825 120.378 14.9939 120.446 14.8636C120.529 14.7124 120.694 14.6237 120.886 14.6237C121.077 14.6237 121.243 14.7124 121.326 14.8636C121.398 14.9991 121.398 15.0825 121.398 15.2911V19.6965C121.398 19.8998 121.393 19.9884 121.326 20.1188C121.238 20.27 121.077 20.3586 120.886 20.3586ZM129.714 18.3201L128.984 16.3129L128.254 18.3201H129.714ZM130.791 20.3586C130.682 20.3586 130.584 20.3221 130.501 20.2543C130.403 20.1761 130.361 20.0823 130.294 19.8946L130.045 19.2273H127.928L127.679 19.8946C127.612 20.0823 127.57 20.1709 127.472 20.2543C127.389 20.3221 127.291 20.3586 127.182 20.3586C127.042 20.3586 126.902 20.3012 126.809 20.2022C126.602 19.9832 126.69 19.7434 126.763 19.5505L128.43 15.0877C128.487 14.9261 128.539 14.8427 128.621 14.7645C128.72 14.6655 128.839 14.6237 128.989 14.6237C129.139 14.6237 129.258 14.6707 129.357 14.7645C129.44 14.8427 129.486 14.9261 129.543 15.0877L131.21 19.5505C131.283 19.7434 131.371 19.9884 131.159 20.2074C131.071 20.3012 130.931 20.3586 130.791 20.3586ZM111.949 20.3742C110.763 20.3742 109.904 19.5349 109.904 18.3827V15.2859C109.904 15.0825 109.909 14.9939 109.976 14.8636C110.059 14.7124 110.225 14.6237 110.416 14.6237C110.608 14.6237 110.774 14.7124 110.857 14.8636C110.929 14.9991 110.929 15.0825 110.929 15.2911V18.3514C110.929 19.0239 111.323 19.4462 111.954 19.4462C112.586 19.4462 112.979 19.0292 112.979 18.3514V15.2911C112.979 15.0877 112.985 14.9991 113.052 14.8688C113.135 14.7176 113.3 14.629 113.492 14.629C113.684 14.629 113.849 14.7176 113.932 14.8688C114.005 15.0043 114.005 15.0877 114.005 15.2963V18.3931C113.994 19.5349 113.135 20.3742 111.949 20.3742Z" fill="#ED1C24"/>
<path d="M117.743 8.77422L117.464 10.2236C117.407 10.5103 117.122 10.7501 116.832 10.7501H107.087C106.798 10.7501 106.513 10.5155 106.456 10.2236L106.135 8.55003L117.743 8.77422ZM106.135 8.55003L104.592 0.625503C105.337 0.297052 106.192 0.818402 106.295 1.65778C106.326 1.91845 106.29 2.17391 106.202 2.40331C107.01 2.33553 107.735 2.92466 107.833 3.74318C107.931 4.58255 107.341 5.34373 106.508 5.448C106.238 5.47928 106.083 5.44278 105.85 5.34373C105.85 5.42714 105.86 5.50535 105.871 5.58876C106.067 7.17888 107.108 7.86185 108.698 7.86185C110.096 7.86185 111.571 6.97555 111.571 5.37501C111.571 5.26552 111.571 5.15604 111.556 5.05177C111.313 5.22382 111.002 5.32809 110.681 5.32809C109.842 5.32809 109.159 4.6399 109.159 3.79532C109.159 2.97158 109.806 2.29904 110.614 2.26776C110.5 2.04879 110.432 1.80376 110.432 1.54308C110.432 0.698492 111.111 0.0103087 111.955 0.0103087C112.793 0.0103087 113.477 0.698492 113.477 1.54308C113.477 1.80376 113.41 2.054 113.296 2.26776C114.109 2.30425 114.756 2.97679 114.756 3.79532C114.756 4.6399 114.072 5.32809 113.233 5.32809C112.907 5.32809 112.607 5.22382 112.364 5.05177C112.353 5.16125 112.348 5.27074 112.348 5.38022C112.348 6.98598 113.762 7.86706 115.232 7.86706C116.827 7.86706 117.857 7.17367 118.049 5.58355C118.059 5.50535 118.07 5.42714 118.07 5.34894C117.837 5.44278 117.681 5.47928 117.417 5.44278C116.583 5.33851 115.993 4.57734 116.092 3.73797C116.195 2.91945 116.915 2.33032 117.723 2.3981C117.635 2.1687 117.598 1.91845 117.629 1.65778C117.733 0.818402 118.499 0.359614 119.323 0.625503L117.743 8.77422" fill="#ED1C24"/>
</g>
<defs>
<clipPath id="clip0">
<rect width="232" height="21" fill="white"/>
</clipPath>
</defs>
</svg>
