<svg width="137" height="22" viewBox="0 0 137 22" fill="none" xmlns="http://www.w3.org/2000/svg">
<g clip-path="url(#clip0)">
<path d="M2.77915 18.1719C2.77915 18.5111 2.63415 18.8018 2.36832 19.0683C2.10249 19.3106 1.76416 19.456 1.40166 19.456C1.01499 19.456 0.700829 19.3349 0.434997 19.0683C0.144999 18.8261 0 18.5111 0 18.1719V6.6873C0 6.51769 0.048333 6.34809 0.120833 6.17848C0.193332 6.00888 0.314165 5.86351 0.434997 5.71813C0.55583 5.59699 0.724996 5.47584 0.918328 5.40315C1.11166 5.33047 1.30499 5.28201 1.52249 5.28201H6.88746C7.27412 5.28201 7.58829 5.40315 7.85412 5.66967C8.11995 5.93619 8.26495 6.22694 8.26495 6.56615C8.26495 6.92959 8.11995 7.22034 7.85412 7.4384C7.58829 7.68069 7.24996 7.7776 6.88746 7.7776H2.77915V10.9758H6.50079C6.83913 10.9758 7.15329 11.097 7.44329 11.3393C7.73329 11.5816 7.87828 11.8723 7.87828 12.2358C7.87828 12.5992 7.75745 12.8899 7.49162 13.1322C7.22579 13.3745 6.91162 13.4957 6.52496 13.4957H2.77915V18.1719Z" fill="black"/>
<path d="M17.182 16.8876C17.182 17.033 17.2061 17.1541 17.2303 17.2268C17.2545 17.2995 17.3028 17.3722 17.3753 17.3964C17.4236 17.4449 17.4961 17.4691 17.5928 17.4691C17.6653 17.4934 17.762 17.5176 17.8345 17.5418C18.1486 17.663 18.2936 17.9052 18.2936 18.2929C18.2936 18.6079 18.1969 18.8502 17.9794 19.044C17.762 19.2378 17.3995 19.3105 16.8678 19.3105C16.5053 19.3105 16.1911 19.2621 15.9253 19.1409C15.6595 19.0198 15.4178 18.8017 15.2003 18.4867C14.8378 18.8017 14.427 19.0198 14.0161 19.1652C13.5811 19.3105 13.0978 19.3832 12.542 19.3832C11.382 19.3832 10.512 19.0925 9.90783 18.5352C9.30367 17.9779 9.01367 17.2026 9.01367 16.2577V16.2092C9.01367 14.1982 10.3187 13.1806 12.9286 13.1806C13.1945 13.1806 13.4603 13.2048 13.702 13.229C13.9678 13.2533 14.2095 13.3017 14.4753 13.3986V12.7687C14.4753 11.848 13.9678 11.4119 12.977 11.4119C12.7111 11.4119 12.4695 11.4361 12.2762 11.5088C12.0828 11.5572 11.8895 11.6541 11.6962 11.7268C11.6237 11.7511 11.527 11.7995 11.4062 11.848C11.2853 11.8964 11.1403 11.9207 10.947 11.9207C10.7295 11.9207 10.5603 11.8964 10.4153 11.8237C10.2703 11.7511 10.1495 11.6541 10.0528 11.5572C9.95617 11.4361 9.88367 11.3149 9.8595 11.1696C9.81117 11.0242 9.81117 10.903 9.81117 10.7819C9.81117 10.4911 9.90783 10.2489 10.1012 10.0308C10.2945 9.81273 10.5603 9.64313 10.8745 9.52199C11.1887 9.40084 11.5512 9.30392 11.962 9.23124C12.3728 9.18278 12.7595 9.13432 13.1703 9.13432C14.5961 9.13432 15.6353 9.47353 16.2636 10.1762C16.892 10.8788 17.2061 11.8964 17.2061 13.229V16.8876H17.182ZM13.0736 15.1189C12.7836 15.1189 12.542 15.1431 12.3728 15.2158C12.2037 15.2643 12.0587 15.3612 11.962 15.4581C11.8653 15.555 11.7928 15.6762 11.7687 15.8215C11.7445 15.9669 11.7203 16.1123 11.7203 16.2577V16.3061C11.7203 16.6453 11.817 16.8634 12.0103 17.0088C12.2037 17.1541 12.5178 17.2268 12.9286 17.2268C13.1945 17.2268 13.4603 17.2026 13.702 17.1299C13.9436 17.0572 14.2095 16.9119 14.4753 16.718V15.2643C13.9436 15.1674 13.4603 15.1189 13.0736 15.1189Z" fill="black"/>
<path d="M24.5281 11.6301C24.3106 11.6058 24.1414 11.6058 23.9723 11.6058C23.8031 11.6058 23.6581 11.6058 23.5131 11.6058C23.3681 11.6301 23.2231 11.6543 23.0781 11.6785C22.9331 11.7028 22.7881 11.7512 22.6189 11.8239C22.6431 11.8966 22.6431 11.945 22.6431 12.0177C22.6431 12.0662 22.6431 12.1389 22.6431 12.2116V18.1719C22.6431 18.5111 22.5223 18.8019 22.2564 19.0442C21.9906 19.2864 21.6764 19.4076 21.2898 19.4076C20.9031 19.4076 20.589 19.2864 20.3231 19.0442C20.0573 18.8019 19.9365 18.5111 19.9365 18.1719V12.1873C19.9365 11.9693 19.9123 11.7754 19.8881 11.6543C19.864 11.5089 19.7915 11.3878 19.719 11.2666C19.6465 11.1697 19.574 11.0728 19.5256 10.9759C19.4773 10.879 19.4531 10.7578 19.4531 10.6124C19.4531 10.249 19.5981 9.95826 19.864 9.7402C20.1298 9.52213 20.444 9.42522 20.8065 9.42522C21.0239 9.42522 21.2173 9.47368 21.3864 9.59482C21.5556 9.71597 21.7248 9.86134 21.8698 10.0309C22.3289 9.76442 22.7639 9.57059 23.1989 9.40099C23.6339 9.25561 23.9964 9.18293 24.3106 9.18293C24.9389 9.18293 25.3498 9.30407 25.5914 9.52213C25.8331 9.76442 25.9298 10.0309 25.9298 10.3702C25.9298 10.7578 25.7848 11.0728 25.5189 11.2909C25.2289 11.5331 24.8906 11.6543 24.5281 11.6301Z" fill="black"/>
<path d="M27.332 6.17845C27.332 5.86347 27.4529 5.57272 27.6945 5.33043C27.9362 5.08814 28.2745 4.96699 28.7095 4.96699C29.1445 4.96699 29.4829 5.08814 29.7245 5.33043C29.9662 5.57272 30.087 5.86347 30.087 6.17845V9.66743C30.4012 9.4736 30.7153 9.35246 31.0537 9.25554C31.392 9.15862 31.7787 9.11016 32.2378 9.11016C32.8662 9.11016 33.3978 9.18285 33.857 9.35245C34.292 9.52206 34.6545 9.74012 34.9445 10.0551C35.2345 10.3458 35.452 10.7093 35.5728 11.0969C35.6937 11.5088 35.7662 11.9207 35.7662 12.4053V15.7247C35.7662 16.2335 35.6695 16.7181 35.5003 17.1784C35.3312 17.6388 35.0653 18.0265 34.7028 18.3414C34.3645 18.6806 33.9053 18.9229 33.3978 19.1168C32.8662 19.3106 32.262 19.4075 31.5612 19.4075C30.8845 19.4075 30.3045 19.3106 29.7729 19.141C29.2412 18.9714 28.8062 18.7291 28.4679 18.4384C28.1054 18.1476 27.8395 17.7842 27.6462 17.3723C27.4529 16.9604 27.3562 16.5243 27.3562 16.0639V6.17845H27.332ZM30.0628 16.0881C30.0628 16.4516 30.2078 16.7423 30.4737 16.9604C30.7395 17.1784 31.102 17.2754 31.5612 17.2754C32.0687 17.2754 32.4312 17.1542 32.6728 16.9119C32.9145 16.6696 33.0353 16.3547 33.0353 15.9185V12.2842C33.0353 11.9207 32.9387 11.6542 32.7212 11.4604C32.5037 11.2666 32.1653 11.1696 31.682 11.1696C31.0295 11.1696 30.4978 11.3635 30.087 11.7269V16.0881H30.0628Z" fill="black"/>
<path d="M45.5296 16.8876C45.5296 17.033 45.5538 17.1541 45.5779 17.2268C45.6021 17.2995 45.6504 17.3722 45.7229 17.3964C45.7713 17.4449 45.8438 17.4691 45.9404 17.4691C46.0129 17.4934 46.1096 17.5176 46.1821 17.5418C46.4963 17.663 46.6413 17.9052 46.6413 18.2929C46.6413 18.6079 46.5446 18.8502 46.3271 19.044C46.1096 19.2378 45.7471 19.3105 45.2154 19.3105C44.8529 19.3105 44.5388 19.2621 44.2729 19.1409C44.0071 19.0198 43.7654 18.8017 43.5479 18.4867C43.1855 18.8017 42.7746 19.0198 42.3638 19.1652C41.9288 19.3105 41.4455 19.3832 40.8896 19.3832C39.7296 19.3832 38.8597 19.0925 38.2555 18.5352C37.6513 17.9779 37.3613 17.2026 37.3613 16.2577V16.2092C37.3613 14.1982 38.6663 13.1806 41.2763 13.1806C41.5421 13.1806 41.808 13.2048 42.0496 13.229C42.3155 13.2533 42.5571 13.3017 42.823 13.3986V12.7687C42.823 11.848 42.3155 11.4119 41.3246 11.4119C41.0588 11.4119 40.8171 11.4361 40.6238 11.5088C40.4305 11.5572 40.2371 11.6541 40.0438 11.7268C39.9713 11.7511 39.8746 11.7995 39.7538 11.848C39.633 11.8964 39.488 11.9207 39.2946 11.9207C39.0771 11.9207 38.908 11.8964 38.763 11.8237C38.618 11.7511 38.4972 11.6541 38.4005 11.5572C38.3038 11.4361 38.2313 11.3149 38.2072 11.1696C38.1588 11.0242 38.1588 10.903 38.1588 10.7819C38.1588 10.4911 38.2555 10.2489 38.4488 10.0308C38.6422 9.81273 38.908 9.64313 39.2221 9.52199C39.5363 9.40084 39.8988 9.30392 40.3096 9.23124C40.7205 9.18278 41.1071 9.13432 41.518 9.13432C42.9438 9.13432 43.9829 9.47353 44.6113 10.1762C45.2396 10.8788 45.5538 11.8964 45.5538 13.229V16.8876H45.5296ZM41.3971 15.1189C41.1071 15.1189 40.8655 15.1431 40.6963 15.2158C40.5271 15.2643 40.3821 15.3612 40.2855 15.4581C40.1888 15.555 40.1163 15.6762 40.0921 15.8215C40.068 15.9669 40.0438 16.1123 40.0438 16.2577V16.3061C40.0438 16.6453 40.1405 16.8634 40.3338 17.0088C40.5271 17.1541 40.8413 17.2268 41.2521 17.2268C41.518 17.2268 41.7838 17.2026 42.0255 17.1299C42.2671 17.0572 42.533 16.9119 42.7988 16.718V15.2643C42.2671 15.1674 41.808 15.1189 41.3971 15.1189Z" fill="black"/>
<path d="M59.7872 15.2158C59.7872 14.7555 59.6905 14.4405 59.5214 14.2709C59.3522 14.077 59.1589 13.9559 58.9897 13.8832C58.7722 13.7863 58.5547 13.7136 58.3131 13.6167C58.0714 13.5198 57.8056 13.4471 57.5639 13.3502C57.0806 13.2048 56.5972 13.0352 56.1139 12.8656C55.6306 12.696 55.1956 12.4537 54.8089 12.1629C54.4222 11.8722 54.1081 11.4845 53.8906 11.0242C53.6489 10.5638 53.5281 9.9581 53.5281 9.25546C53.5281 8.6255 53.6247 8.044 53.8422 7.53519C54.0597 7.02638 54.3739 6.59026 54.7606 6.22682C55.1472 5.86339 55.6306 5.59687 56.2106 5.40303C56.7664 5.2092 57.4189 5.13651 58.0956 5.13651C58.3855 5.13651 58.748 5.16074 59.2072 5.2092C59.6664 5.25766 60.1014 5.35458 60.5122 5.47572C60.9472 5.59687 61.3097 5.7907 61.5997 6.00876C61.9139 6.25105 62.0589 6.5418 62.0589 6.90524C62.0589 7.24444 61.938 7.53519 61.6964 7.77748C61.4547 8.01977 61.1164 8.16515 60.6814 8.16515C60.488 8.16515 60.343 8.14092 60.198 8.09246C60.053 8.044 59.8839 7.99555 59.7147 7.94709C59.5214 7.8744 59.328 7.82594 59.0864 7.75325C58.8447 7.68057 58.5547 7.65634 58.2164 7.65634C57.9747 7.65634 57.7572 7.68057 57.5156 7.72903C57.2739 7.77748 57.0806 7.85017 56.9114 7.97132C56.7422 8.09246 56.5972 8.23784 56.5006 8.43167C56.4039 8.6255 56.3314 8.86779 56.3314 9.15854C56.3314 9.59466 56.4281 9.90964 56.6214 10.0792C56.8147 10.2731 56.9839 10.3942 57.1531 10.4669C57.4189 10.5881 57.6606 10.7092 57.9022 10.7819C58.1439 10.8546 58.3614 10.9273 58.5789 11C59.0622 11.1696 59.5455 11.3149 60.0289 11.5088C60.5122 11.6784 60.9472 11.9207 61.3339 12.2114C61.7205 12.5022 62.0347 12.8898 62.2764 13.3502C62.518 13.8105 62.6389 14.392 62.6389 15.0947C62.6389 15.7731 62.518 16.403 62.2522 16.9361C62.0105 17.4691 61.648 17.9295 61.2372 18.2929C60.8022 18.6563 60.2947 18.9471 59.6905 19.1409C59.0864 19.3348 58.4339 19.4317 57.7331 19.4317C57.3706 19.4317 56.9356 19.4074 56.4522 19.3348C55.9689 19.2621 55.5097 19.1651 55.0747 19.0198C54.6397 18.8744 54.2772 18.6806 53.9631 18.414C53.6489 18.1718 53.5039 17.881 53.5039 17.5418C53.5039 17.2268 53.6247 16.9361 53.8906 16.6696C54.1322 16.403 54.4464 16.2819 54.8089 16.2819C54.9539 16.2819 55.0989 16.3061 55.2681 16.3546C55.4372 16.403 55.6064 16.4515 55.7997 16.5242C56.0414 16.5969 56.3072 16.6938 56.6456 16.7907C56.9597 16.8876 57.3464 16.9361 57.7572 16.9361C58.4339 16.9361 58.9655 16.7907 59.3039 16.4999C59.618 16.2092 59.7872 15.7731 59.7872 15.2158Z" fill="black"/>
<path d="M68.5124 15.4824C68.2465 15.4824 68.0049 15.4824 67.7632 15.4582C67.5215 15.4339 67.2799 15.4097 66.9899 15.3613V16.0154C66.9899 16.3546 67.1107 16.6212 67.3765 16.8392C67.6424 17.0331 68.029 17.13 68.5607 17.13C68.8749 17.13 69.1649 17.1058 69.4549 17.0331C69.7207 16.9604 70.0349 16.8635 70.349 16.7181C70.3974 16.6939 70.4457 16.6696 70.5424 16.6454C70.639 16.6212 70.7599 16.5969 70.929 16.5969C71.1707 16.5969 71.364 16.6454 71.5332 16.6939C71.7023 16.7665 71.8232 16.8635 71.9198 16.9604C72.0165 17.0573 72.089 17.1784 72.1132 17.2996C72.1615 17.4207 72.1615 17.5419 72.1615 17.663C72.1615 18.0022 72.0165 18.293 71.7507 18.511C71.4848 18.7291 71.1465 18.9229 70.7357 19.0441C70.349 19.1652 69.914 19.2621 69.5032 19.3106C69.0682 19.3591 68.6815 19.3833 68.3674 19.3833C67.7149 19.3833 67.1349 19.2864 66.6274 19.1168C66.1199 18.9472 65.6849 18.7049 65.3465 18.3899C65.0082 18.0749 64.7424 17.7115 64.549 17.2996C64.3557 16.8877 64.2832 16.4273 64.2832 15.9428V12.6234C64.2832 12.1146 64.3799 11.6542 64.549 11.2181C64.7182 10.782 64.984 10.4185 65.3465 10.1036C65.709 9.78857 66.144 9.54628 66.6757 9.35245C67.2074 9.18285 67.8115 9.08593 68.4882 9.08593C69.7932 9.08593 70.7599 9.40091 71.4123 10.0066C72.0407 10.6366 72.379 11.4361 72.379 12.4538C72.379 13.3987 72.0649 14.1498 71.4607 14.6828C70.8324 15.2159 69.8415 15.4824 68.5124 15.4824ZM69.624 12.3326C69.624 11.945 69.5274 11.6542 69.3099 11.4846C69.1165 11.315 68.8024 11.2181 68.4399 11.2181C67.9565 11.2181 67.594 11.3392 67.3524 11.5573C67.1107 11.7996 66.9657 12.0903 66.9657 12.5022V13.3502C67.2799 13.3745 67.5699 13.3987 67.8357 13.3987C68.1015 13.4229 68.2949 13.4229 68.3915 13.4229C68.7782 13.4229 69.0682 13.3502 69.2857 13.1806C69.5274 13.0595 69.624 12.7687 69.624 12.3326Z" fill="black"/>
<path d="M78.8562 11.6301C78.6387 11.6058 78.4696 11.6058 78.3004 11.6058C78.1312 11.6058 77.9862 11.6058 77.8412 11.6058C77.6962 11.6301 77.5512 11.6543 77.4062 11.6785C77.2612 11.7028 77.1162 11.7512 76.9471 11.8239C76.9712 11.8966 76.9712 11.945 76.9712 12.0177C76.9712 12.0662 76.9712 12.1389 76.9712 12.2116V18.1719C76.9712 18.5111 76.8504 18.8019 76.5846 19.0442C76.3187 19.2864 76.0046 19.4076 75.6179 19.4076C75.2312 19.4076 74.9171 19.2864 74.6512 19.0442C74.3854 18.8019 74.2646 18.5111 74.2646 18.1719V12.1873C74.2646 11.9693 74.2404 11.7754 74.2163 11.6543C74.1921 11.5089 74.1196 11.3878 74.0471 11.2666C73.9746 11.1697 73.9021 11.0728 73.8538 10.9759C73.8054 10.879 73.7812 10.7578 73.7812 10.6124C73.7812 10.249 73.9263 9.95826 74.1921 9.7402C74.4579 9.52213 74.7721 9.42522 75.1346 9.42522C75.3521 9.42522 75.5454 9.47368 75.7146 9.59482C75.8837 9.71597 76.0529 9.86134 76.1979 10.0309C76.6571 9.76442 77.0921 9.57059 77.5271 9.40099C77.9621 9.25561 78.3246 9.18293 78.6387 9.18293C79.267 9.18293 79.6779 9.30407 79.9195 9.52213C80.1612 9.76442 80.2579 10.0309 80.2579 10.3702C80.2579 10.7578 80.1129 11.0728 79.847 11.2909C79.557 11.5331 79.2429 11.6543 78.8562 11.6301Z" fill="black"/>
<path d="M85.0901 13.326C85.2592 13.859 85.3801 14.4163 85.4767 14.9493C85.5734 15.4823 85.6459 16.0396 85.7667 16.5969C85.8634 16.0396 85.96 15.5066 86.0567 14.9493C86.1534 14.4163 86.2742 13.859 86.4192 13.326L87.4584 10.0308C87.555 9.76428 87.7242 9.57044 87.9659 9.40084C88.2075 9.25547 88.4734 9.18278 88.7392 9.18278C89.1017 9.18278 89.4158 9.27969 89.6817 9.49776C89.9475 9.71582 90.0925 10.0066 90.0925 10.37C90.0925 10.4185 90.0925 10.4669 90.0925 10.5396C90.0925 10.5881 90.0683 10.6608 90.0442 10.7092L87.3375 18.2202C87.1684 18.6321 86.975 18.9471 86.7575 19.1409C86.5159 19.3348 86.2017 19.4317 85.7909 19.4317C85.3559 19.4317 85.0175 19.3348 84.7759 19.1652C84.5342 18.9713 84.3409 18.6806 84.1959 18.2687L81.4409 10.6608C81.4167 10.5881 81.3926 10.5396 81.3926 10.4911C81.3926 10.4427 81.3926 10.3942 81.3926 10.3215C81.3926 9.95811 81.5376 9.66736 81.8034 9.4493C82.0692 9.23124 82.3834 9.13432 82.7459 9.13432C83.0117 9.13432 83.2534 9.20701 83.4951 9.35238C83.7367 9.49776 83.9059 9.71582 84.0026 9.98234L85.0901 13.326Z" fill="black"/>
<path d="M94.709 6.51757C94.709 6.90524 94.564 7.22022 94.2741 7.48674C93.9841 7.75325 93.6216 7.89863 93.1866 7.89863C92.7516 7.89863 92.3891 7.75325 92.0991 7.48674C91.8091 7.22022 91.6641 6.88101 91.6641 6.51757C91.6641 6.12991 91.8091 5.81493 92.0991 5.54841C92.3891 5.28189 92.7516 5.13651 93.1866 5.13651C93.6216 5.13651 93.9841 5.28189 94.2741 5.54841C94.564 5.81493 94.709 6.12991 94.709 6.51757ZM94.5399 18.1718C94.5399 18.511 94.4191 18.8017 94.1532 19.044C93.8874 19.2863 93.5732 19.4074 93.1866 19.4074C92.7999 19.4074 92.4857 19.2863 92.2199 19.044C91.9541 18.8017 91.8332 18.511 91.8332 18.1718V10.37C91.8332 10.0308 91.9541 9.76427 92.2199 9.52198C92.4857 9.27969 92.7999 9.15854 93.1866 9.15854C93.5732 9.15854 93.8874 9.27969 94.1532 9.52198C94.4191 9.76427 94.5399 10.055 94.5399 10.37V18.1718Z" fill="black"/>
<path d="M96.8828 12.9384C96.8828 12.4054 96.9553 11.9208 97.1245 11.4605C97.2936 11.0001 97.5353 10.5882 97.8736 10.2732C98.212 9.93403 98.6228 9.66751 99.1545 9.47368C99.662 9.27984 100.29 9.18293 100.991 9.18293C101.281 9.18293 101.619 9.20716 102.006 9.25561C102.393 9.30407 102.755 9.37676 103.118 9.52213C103.456 9.64328 103.77 9.81288 104.012 10.0552C104.254 10.2732 104.374 10.564 104.374 10.9274C104.374 11.1697 104.302 11.3878 104.133 11.6058C103.964 11.8239 103.649 11.9208 103.166 11.9208C103.069 11.9208 102.973 11.9208 102.876 11.8966C102.779 11.8724 102.659 11.8481 102.514 11.7997C102.296 11.727 102.103 11.6543 101.909 11.5816C101.716 11.5089 101.474 11.4847 101.16 11.4847C100.604 11.4847 100.218 11.6301 99.9761 11.8966C99.7345 12.1631 99.6378 12.5265 99.6378 12.9869V15.6521C99.6378 16.1124 99.7586 16.4759 99.9761 16.7424C100.218 17.0089 100.604 17.1543 101.16 17.1543C101.474 17.1543 101.716 17.1301 101.909 17.0574C102.103 16.9847 102.296 16.912 102.514 16.8393C102.61 16.7909 102.707 16.7666 102.779 16.7424C102.852 16.7182 102.973 16.7182 103.118 16.7182C103.359 16.7182 103.577 16.7424 103.746 16.8151C103.915 16.8635 104.036 16.9605 104.133 17.0574C104.229 17.1543 104.302 17.2754 104.326 17.3724C104.35 17.4935 104.374 17.6146 104.374 17.7358C104.374 18.0992 104.254 18.39 104.012 18.608C103.77 18.8261 103.48 18.9957 103.118 19.1411C102.779 19.2622 102.393 19.3591 102.006 19.4076C101.619 19.4561 101.257 19.4803 100.967 19.4803C100.266 19.4803 99.662 19.3834 99.1545 19.1895C98.647 18.9957 98.2361 18.7292 97.8978 18.39C97.5595 18.0508 97.3178 17.6631 97.1486 17.2027C96.9795 16.7424 96.907 16.2336 96.907 15.7248V12.9384H96.8828Z" fill="black"/>
<path d="M110.006 15.4824C109.741 15.4824 109.499 15.4824 109.257 15.4582C109.016 15.4339 108.774 15.4097 108.484 15.3613V16.0154C108.484 16.3546 108.605 16.6212 108.871 16.8392C109.136 17.0331 109.523 17.13 110.055 17.13C110.369 17.13 110.659 17.1058 110.949 17.0331C111.215 16.9604 111.529 16.8635 111.843 16.7181C111.891 16.6939 111.94 16.6696 112.036 16.6454C112.133 16.6212 112.254 16.5969 112.423 16.5969C112.665 16.5969 112.858 16.6454 113.027 16.6939C113.196 16.7665 113.317 16.8635 113.414 16.9604C113.511 17.0573 113.583 17.1784 113.607 17.2996C113.656 17.4207 113.656 17.5419 113.656 17.663C113.656 18.0022 113.511 18.293 113.245 18.511C112.979 18.7291 112.641 18.9229 112.23 19.0441C111.843 19.1652 111.408 19.2621 110.997 19.3106C110.562 19.3591 110.176 19.3833 109.861 19.3833C109.209 19.3833 108.629 19.2864 108.121 19.1168C107.614 18.9472 107.179 18.7049 106.841 18.3899C106.502 18.0749 106.237 17.7115 106.043 17.2996C105.85 16.8877 105.777 16.4273 105.777 15.9428V12.6234C105.777 12.1146 105.874 11.6542 106.043 11.2181C106.212 10.782 106.478 10.4185 106.841 10.1036C107.203 9.78857 107.638 9.54628 108.17 9.35245C108.701 9.18285 109.306 9.08593 109.982 9.08593C111.287 9.08593 112.254 9.40091 112.906 10.0066C113.535 10.6366 113.873 11.4361 113.873 12.4538C113.873 13.3987 113.559 14.1498 112.955 14.6828C112.326 15.2159 111.36 15.4824 110.006 15.4824ZM111.142 12.3326C111.142 11.945 111.046 11.6542 110.828 11.4846C110.635 11.315 110.321 11.2181 109.958 11.2181C109.475 11.2181 109.112 11.3392 108.871 11.5573C108.629 11.7996 108.484 12.0903 108.484 12.5022V13.3502C108.798 13.3745 109.088 13.3987 109.354 13.3987C109.62 13.4229 109.813 13.4229 109.91 13.4229C110.296 13.4229 110.586 13.3502 110.804 13.1806C111.021 13.0595 111.142 12.7687 111.142 12.3326Z" fill="black"/>
<path d="M132.402 11.8366V21.9886H133.417V11.8366H132.402Z" fill="#EC2227"/>
<path d="M133.423 20.9824H0V22H133.423V20.9824Z" fill="#EC2227"/>
<path d="M126.265 4.66514L125.547 5.3847L132.707 12.5632L133.424 11.8436L126.265 4.66514Z" fill="#EC2227"/>
<path d="M126.258 4.65463L119.098 11.8331L119.815 12.5527L126.975 5.37419L126.258 4.65463Z" fill="#EC2227"/>
<path d="M126.254 0.0011683L125.178 1.08051L135.926 11.8568L137.003 10.7774L126.254 0.0011683Z" fill="#EC2227"/>
<path d="M126.26 0.00247064L115.512 10.7787L116.588 11.8581L127.337 1.08181L126.26 0.00247064Z" fill="#EC2227"/>
<path d="M120.059 3.10128L117.014 6.12992V2.05943H120.059V3.10128Z" fill="#EC2227"/>
</g>
<defs>
<clipPath id="clip0">
<rect width="137" height="22" fill="white"/>
</clipPath>
</defs>
</svg>
