<svg width="31" height="45" viewBox="0 0 31 45" fill="none" xmlns="http://www.w3.org/2000/svg">
<path d="M15.5 0C19.6109 0 23.5533 1.65937 26.4602 4.61307C29.367 7.56677 31 11.5728 31 15.75C31 27.5625 15.5 45 15.5 45C15.5 45 0 27.5625 0 15.75C0 11.5728 1.63303 7.56677 4.53984 4.61307C7.44666 1.65937 11.3891 0 15.5 0Z" fill="#17315B"/>
<g clip-path="url(#clip0)">
<path d="M25 26.0977H7V8.09766H25V26.0977ZM7.28631 25.807H24.7137V8.38831H7.28631V25.807Z" fill="url(#paint0_linear)"/>
<path d="M24.7163 16.9422H7.2832V21.129H24.7163V16.9422Z" fill="url(#paint1_linear)"/>
<path d="M24.7163 13.7083H7.2832V15.4522H24.7163V13.7083Z" fill="url(#paint2_linear)"/>
<path d="M24.7163 8.09766H7.2832V12.3644H24.7163V8.09766Z" fill="url(#paint3_linear)"/>
<g opacity="0.7">
<path d="M8.39453 22.2029H8.94567V23.3292L9.81461 22.2029H10.4388L9.56266 23.3132L10.5561 24.8246H9.90479L9.21766 23.7623L8.94567 24.1169V24.8261H8.39453V22.2029Z" fill="white"/>
<path d="M11.9511 22.1477C12.9016 22.1477 13.3282 22.8961 13.3282 23.5138C13.3282 24.2578 12.7742 24.8798 11.9511 24.8798C11.0778 24.8798 10.5625 24.2375 10.5625 23.5138C10.5625 22.7784 11.1065 22.1477 11.9511 22.1477ZM11.9482 24.3683C12.4249 24.3683 12.7556 23.9948 12.7556 23.5138C12.7556 23.0967 12.4765 22.6592 11.9482 22.6592C11.4787 22.6592 11.138 23.0138 11.138 23.5138C11.1365 23.9323 11.4128 24.3683 11.9482 24.3683Z" fill="white"/>
<path d="M13.7949 24.8261V22.2029H14.3461V24.3131H15.3352V24.8246H13.7949V24.8261Z" fill="white"/>
<path d="M16.8671 22.1477C17.8176 22.1477 18.2442 22.8961 18.2442 23.5138C18.2442 24.2578 17.6902 24.8798 16.8671 24.8798C15.9939 24.8798 15.4785 24.2375 15.4785 23.5138C15.4785 22.7784 16.0211 22.1477 16.8671 22.1477ZM16.8628 24.3683C17.3395 24.3683 17.6702 23.9948 17.6702 23.5138C17.6702 23.0967 17.391 22.6592 16.8628 22.6592C16.3933 22.6592 16.0526 23.0138 16.0526 23.5138C16.0526 23.9323 16.3274 24.3683 16.8628 24.3683Z" fill="white"/>
<path d="M19.2606 24.8261H18.7109V22.2029H19.4911C20.0609 22.2073 20.4603 22.5067 20.4603 23.0458C20.4603 23.4629 20.2541 23.6678 19.9406 23.7695L20.728 24.8246H20.0537L19.3365 23.864H19.2635V24.8261H19.2606ZM19.2606 23.3525H19.4811C19.7488 23.3525 19.8805 23.258 19.8805 23.0298C19.8805 22.8729 19.776 22.7145 19.5469 22.7145H19.2606V23.3525Z" fill="white"/>
<path d="M21.0469 22.2029H21.598V24.8246H21.0469V22.2029Z" fill="white"/>
<path d="M22.4923 22.716H21.9297V22.2044H23.606V22.716H23.0434V24.8261H22.4923V22.716Z" fill="white"/>
</g>
</g>
<defs>
<linearGradient id="paint0_linear" x1="7" y1="17.0975" x2="25" y2="17.0975" gradientUnits="userSpaceOnUse">
<stop stop-color="#966B34"/>
<stop offset="0.5" stop-color="#D1B173"/>
<stop offset="1" stop-color="#966B34"/>
</linearGradient>
<linearGradient id="paint1_linear" x1="7.28316" y1="19.0353" x2="24.7163" y2="19.0353" gradientUnits="userSpaceOnUse">
<stop stop-color="#966B34"/>
<stop offset="0.5" stop-color="#D1B173"/>
<stop offset="1" stop-color="#966B34"/>
</linearGradient>
<linearGradient id="paint2_linear" x1="7.28316" y1="14.5796" x2="24.7163" y2="14.5796" gradientUnits="userSpaceOnUse">
<stop stop-color="#966B34"/>
<stop offset="0.5" stop-color="#D1B173"/>
<stop offset="1" stop-color="#966B34"/>
</linearGradient>
<linearGradient id="paint3_linear" x1="7.28316" y1="10.231" x2="24.7163" y2="10.231" gradientUnits="userSpaceOnUse">
<stop stop-color="#966B34"/>
<stop offset="0.5" stop-color="#D1B173"/>
<stop offset="1" stop-color="#966B34"/>
</linearGradient>
<clipPath id="clip0">
<rect width="18" height="18" fill="white" transform="translate(7 8.09766)"/>
</clipPath>
</defs>
</svg>
